G04 #@! TF.FileFunction,Soldermask,Top*
%FSLAX46Y46*%
G04 Gerber Fmt 4.6, Leading zero omitted, Abs format (unit mm)*
G04 Created by KiCad (PCBNEW 4.0.7) date 02/07/18 14:45:59*
%MOMM*%
%LPD*%
G01*
G04 APERTURE LIST*
%ADD10C,0.100000*%
%ADD11R,3.000000X3.000000*%
%ADD12R,0.500000X2.300000*%
%ADD13R,2.000000X2.500000*%
%ADD14C,0.900000*%
%ADD15R,1.700000X1.700000*%
%ADD16O,1.700000X1.700000*%
%ADD17R,1.500000X1.250000*%
%ADD18R,1.600000X0.550000*%
%ADD19R,0.550000X1.600000*%
%ADD20R,1.100000X0.400000*%
%ADD21R,1.300000X1.500000*%
%ADD22R,1.800000X1.100000*%
%ADD23R,1.500000X1.300000*%
%ADD24R,1.000000X1.000000*%
%ADD25R,0.970000X1.270000*%
%ADD26R,1.270000X0.970000*%
%ADD27R,3.500000X3.500000*%
%ADD28R,2.300000X1.600000*%
%ADD29R,1.600000X2.300000*%
%ADD30R,1.250000X1.500000*%
%ADD31R,1.300000X0.800000*%
%ADD32R,4.800000X1.750000*%
%ADD33C,6.500000*%
%ADD34R,2.000000X3.800000*%
%ADD35R,2.000000X1.500000*%
G04 APERTURE END LIST*
D10*
D11*
X210000000Y-26000000D03*
D12*
X185700000Y-97700000D03*
X186500000Y-97700000D03*
X187300000Y-97700000D03*
X188100000Y-97700000D03*
X188900000Y-97700000D03*
D13*
X182850000Y-97800000D03*
X182850000Y-103300000D03*
X191750000Y-97800000D03*
X191750000Y-103300000D03*
D14*
X185100000Y-100300000D03*
X189500000Y-100300000D03*
D15*
X169540000Y-75500000D03*
D16*
X167000000Y-75500000D03*
X164460000Y-75500000D03*
D17*
X187250000Y-81500000D03*
X189750000Y-81500000D03*
D18*
X195750000Y-75200000D03*
X195750000Y-76000000D03*
X195750000Y-76800000D03*
X195750000Y-77600000D03*
X195750000Y-78400000D03*
X195750000Y-79200000D03*
X195750000Y-80000000D03*
X195750000Y-80800000D03*
D19*
X197200000Y-82250000D03*
X198000000Y-82250000D03*
X198800000Y-82250000D03*
X199600000Y-82250000D03*
X200400000Y-82250000D03*
X201200000Y-82250000D03*
X202000000Y-82250000D03*
X202800000Y-82250000D03*
D18*
X204250000Y-80800000D03*
X204250000Y-80000000D03*
X204250000Y-79200000D03*
X204250000Y-78400000D03*
X204250000Y-77600000D03*
X204250000Y-76800000D03*
X204250000Y-76000000D03*
X204250000Y-75200000D03*
D19*
X202800000Y-73750000D03*
X202000000Y-73750000D03*
X201200000Y-73750000D03*
X200400000Y-73750000D03*
X199600000Y-73750000D03*
X198800000Y-73750000D03*
X198000000Y-73750000D03*
X197200000Y-73750000D03*
D15*
X181380000Y-78500000D03*
D16*
X183920000Y-78500000D03*
X186460000Y-78500000D03*
X189000000Y-78500000D03*
D20*
X197150000Y-67725000D03*
X197150000Y-67075000D03*
X197150000Y-66425000D03*
X197150000Y-65775000D03*
X197150000Y-65125000D03*
X197150000Y-64475000D03*
X197150000Y-63825000D03*
X197150000Y-63175000D03*
X197150000Y-62525000D03*
X197150000Y-61875000D03*
X197150000Y-61225000D03*
X197150000Y-60575000D03*
X197150000Y-59925000D03*
X197150000Y-59275000D03*
X202850000Y-59275000D03*
X202850000Y-59925000D03*
X202850000Y-60575000D03*
X202850000Y-61225000D03*
X202850000Y-61875000D03*
X202850000Y-62525000D03*
X202850000Y-63175000D03*
X202850000Y-63825000D03*
X202850000Y-64475000D03*
X202850000Y-65125000D03*
X202850000Y-65775000D03*
X202850000Y-66425000D03*
X202850000Y-67075000D03*
X202850000Y-67725000D03*
D15*
X197920000Y-98460000D03*
D16*
X197920000Y-101000000D03*
X200460000Y-98460000D03*
X200460000Y-101000000D03*
X203000000Y-98460000D03*
X203000000Y-101000000D03*
X205540000Y-98460000D03*
X205540000Y-101000000D03*
X208080000Y-98460000D03*
X208080000Y-101000000D03*
D15*
X230960000Y-62000000D03*
D16*
X233500000Y-62000000D03*
X236040000Y-62000000D03*
D15*
X230960000Y-69000000D03*
D16*
X233500000Y-69000000D03*
X236040000Y-69000000D03*
D15*
X230960000Y-65500000D03*
D16*
X233500000Y-65500000D03*
X236040000Y-65500000D03*
D15*
X230960000Y-72500000D03*
D16*
X233500000Y-72500000D03*
X236040000Y-72500000D03*
D15*
X230960000Y-58500000D03*
D16*
X233500000Y-58500000D03*
X236040000Y-58500000D03*
D15*
X230960000Y-76000000D03*
D16*
X233500000Y-76000000D03*
X236040000Y-76000000D03*
D15*
X230960000Y-55000000D03*
D16*
X233500000Y-55000000D03*
X236040000Y-55000000D03*
D15*
X230960000Y-51500000D03*
D16*
X233500000Y-51500000D03*
X236040000Y-51500000D03*
D21*
X192000000Y-68200000D03*
X192000000Y-65500000D03*
D22*
X196900000Y-88300000D03*
X203100000Y-88300000D03*
X196900000Y-92000000D03*
X203100000Y-92000000D03*
D21*
X226500000Y-81150000D03*
X226500000Y-83850000D03*
X229000000Y-83850000D03*
X229000000Y-81150000D03*
D23*
X212850000Y-90800000D03*
X210150000Y-90800000D03*
X209800000Y-88000000D03*
X207100000Y-88000000D03*
D24*
X200500000Y-86500000D03*
X199500000Y-85000000D03*
X198500000Y-86500000D03*
X197500000Y-85000000D03*
X201500000Y-85000000D03*
X196500000Y-86500000D03*
D25*
X186220000Y-65500000D03*
X187500000Y-65500000D03*
D23*
X204700000Y-70500000D03*
X202000000Y-70500000D03*
X207400000Y-70500000D03*
X210100000Y-70500000D03*
D26*
X214000000Y-72640000D03*
X214000000Y-71360000D03*
X216000000Y-72640000D03*
X216000000Y-71360000D03*
X218000000Y-72640000D03*
X218000000Y-71360000D03*
X220000000Y-72640000D03*
X220000000Y-71360000D03*
X222000000Y-72640000D03*
X222000000Y-71360000D03*
D15*
X169540000Y-72000000D03*
D16*
X167000000Y-72000000D03*
X164460000Y-72000000D03*
D15*
X169540000Y-68500000D03*
D16*
X167000000Y-68500000D03*
X164460000Y-68500000D03*
D15*
X169540000Y-65000000D03*
D16*
X167000000Y-65000000D03*
X164460000Y-65000000D03*
D15*
X169540000Y-61500000D03*
D16*
X167000000Y-61500000D03*
X164460000Y-61500000D03*
D15*
X169540000Y-58000000D03*
D16*
X167000000Y-58000000D03*
X164460000Y-58000000D03*
D15*
X169540000Y-54500000D03*
D16*
X167000000Y-54500000D03*
X164460000Y-54500000D03*
D15*
X169540000Y-51000000D03*
D16*
X167000000Y-51000000D03*
X164460000Y-51000000D03*
D23*
X188800000Y-75500000D03*
X191500000Y-75500000D03*
X181800000Y-81500000D03*
X184500000Y-81500000D03*
D27*
X225000000Y-31000000D03*
X225000000Y-51000000D03*
X175000000Y-51000000D03*
X175000000Y-31000000D03*
D28*
X163150000Y-46500000D03*
X167850000Y-46500000D03*
D29*
X235400000Y-79050000D03*
X235400000Y-83750000D03*
D17*
X173750000Y-82500000D03*
X171250000Y-82500000D03*
D30*
X213000000Y-85750000D03*
X213000000Y-88250000D03*
D31*
X177350000Y-83550000D03*
X177350000Y-84830000D03*
X177350000Y-86090000D03*
X177350000Y-87360000D03*
X177350000Y-88640000D03*
X177350000Y-89910000D03*
X177350000Y-91170000D03*
X177350000Y-92450000D03*
X183650000Y-92450000D03*
X183650000Y-91170000D03*
X183650000Y-89910000D03*
X183650000Y-88640000D03*
X183650000Y-87360000D03*
X183650000Y-86090000D03*
X183650000Y-84830000D03*
X183650000Y-83550000D03*
D32*
X172000000Y-85750000D03*
X172000000Y-89000000D03*
X172000000Y-92250000D03*
X189000000Y-92000000D03*
X189000000Y-88750000D03*
X189000000Y-85500000D03*
D33*
X227000000Y-37525000D03*
X227000000Y-44475000D03*
D11*
X218000000Y-26000000D03*
D34*
X211850000Y-100200000D03*
D35*
X218150000Y-100200000D03*
X218150000Y-97900000D03*
X218150000Y-102500000D03*
D17*
X211550000Y-93600000D03*
X214050000Y-93600000D03*
D15*
X183350000Y-48120000D03*
D16*
X185890000Y-48120000D03*
X188430000Y-48120000D03*
X190970000Y-48120000D03*
D15*
X206210000Y-48120000D03*
D16*
X208750000Y-48120000D03*
X211290000Y-48120000D03*
X213830000Y-48120000D03*
D15*
X222740000Y-99620000D03*
D16*
X222740000Y-97080000D03*
X222740000Y-94540000D03*
X222740000Y-92000000D03*
X222740000Y-89460000D03*
X222740000Y-86920000D03*
X222740000Y-84380000D03*
X222740000Y-81840000D03*
D15*
X226000000Y-87000000D03*
D16*
X228540000Y-87000000D03*
X226000000Y-89540000D03*
X228540000Y-89540000D03*
X226000000Y-92080000D03*
X228540000Y-92080000D03*
X226000000Y-94620000D03*
X228540000Y-94620000D03*
D15*
X193510000Y-50660000D03*
D16*
X196050000Y-50660000D03*
X198590000Y-50660000D03*
X201130000Y-50660000D03*
X203670000Y-50660000D03*
M02*
