G04 #@! TF.FileFunction,Legend,Top*
%FSLAX46Y46*%
G04 Gerber Fmt 4.6, Leading zero omitted, Abs format (unit mm)*
G04 Created by KiCad (PCBNEW 4.0.7) date 02/07/18 14:45:59*
%MOMM*%
%LPD*%
G01*
G04 APERTURE LIST*
%ADD10C,0.100000*%
%ADD11C,0.200000*%
%ADD12C,0.300000*%
%ADD13C,0.120000*%
%ADD14C,0.150000*%
G04 APERTURE END LIST*
D10*
X220200000Y-53200000D02*
X177000000Y-53200000D01*
X177000000Y-21400000D02*
X220200000Y-21400000D01*
X220200000Y-21400000D02*
X220200000Y-53200000D01*
X177000000Y-53200000D02*
X177000000Y-21400000D01*
D11*
X173000000Y-53000000D02*
X173000000Y-29000000D01*
X227000000Y-53000000D02*
X173000000Y-53000000D01*
X227000000Y-29000000D02*
X227000000Y-53000000D01*
X173000000Y-29000000D02*
X227000000Y-29000000D01*
D12*
X193928573Y-119028571D02*
X193071430Y-119028571D01*
X193500002Y-119028571D02*
X193500002Y-117528571D01*
X193357145Y-117742857D01*
X193214287Y-117885714D01*
X193071430Y-117957143D01*
X194857144Y-117528571D02*
X195000001Y-117528571D01*
X195142858Y-117600000D01*
X195214287Y-117671429D01*
X195285716Y-117814286D01*
X195357144Y-118100000D01*
X195357144Y-118457143D01*
X195285716Y-118742857D01*
X195214287Y-118885714D01*
X195142858Y-118957143D01*
X195000001Y-119028571D01*
X194857144Y-119028571D01*
X194714287Y-118957143D01*
X194642858Y-118885714D01*
X194571430Y-118742857D01*
X194500001Y-118457143D01*
X194500001Y-118100000D01*
X194571430Y-117814286D01*
X194642858Y-117671429D01*
X194714287Y-117600000D01*
X194857144Y-117528571D01*
X196285715Y-117528571D02*
X196428572Y-117528571D01*
X196571429Y-117600000D01*
X196642858Y-117671429D01*
X196714287Y-117814286D01*
X196785715Y-118100000D01*
X196785715Y-118457143D01*
X196714287Y-118742857D01*
X196642858Y-118885714D01*
X196571429Y-118957143D01*
X196428572Y-119028571D01*
X196285715Y-119028571D01*
X196142858Y-118957143D01*
X196071429Y-118885714D01*
X196000001Y-118742857D01*
X195928572Y-118457143D01*
X195928572Y-118100000D01*
X196000001Y-117814286D01*
X196071429Y-117671429D01*
X196142858Y-117600000D01*
X196285715Y-117528571D01*
X197500000Y-118957143D02*
X197500000Y-119028571D01*
X197428572Y-119171429D01*
X197357143Y-119242857D01*
X198428572Y-117528571D02*
X198571429Y-117528571D01*
X198714286Y-117600000D01*
X198785715Y-117671429D01*
X198857144Y-117814286D01*
X198928572Y-118100000D01*
X198928572Y-118457143D01*
X198857144Y-118742857D01*
X198785715Y-118885714D01*
X198714286Y-118957143D01*
X198571429Y-119028571D01*
X198428572Y-119028571D01*
X198285715Y-118957143D01*
X198214286Y-118885714D01*
X198142858Y-118742857D01*
X198071429Y-118457143D01*
X198071429Y-118100000D01*
X198142858Y-117814286D01*
X198214286Y-117671429D01*
X198285715Y-117600000D01*
X198428572Y-117528571D01*
X199857143Y-117528571D02*
X200000000Y-117528571D01*
X200142857Y-117600000D01*
X200214286Y-117671429D01*
X200285715Y-117814286D01*
X200357143Y-118100000D01*
X200357143Y-118457143D01*
X200285715Y-118742857D01*
X200214286Y-118885714D01*
X200142857Y-118957143D01*
X200000000Y-119028571D01*
X199857143Y-119028571D01*
X199714286Y-118957143D01*
X199642857Y-118885714D01*
X199571429Y-118742857D01*
X199500000Y-118457143D01*
X199500000Y-118100000D01*
X199571429Y-117814286D01*
X199642857Y-117671429D01*
X199714286Y-117600000D01*
X199857143Y-117528571D01*
X201285714Y-117528571D02*
X201428571Y-117528571D01*
X201571428Y-117600000D01*
X201642857Y-117671429D01*
X201714286Y-117814286D01*
X201785714Y-118100000D01*
X201785714Y-118457143D01*
X201714286Y-118742857D01*
X201642857Y-118885714D01*
X201571428Y-118957143D01*
X201428571Y-119028571D01*
X201285714Y-119028571D01*
X201142857Y-118957143D01*
X201071428Y-118885714D01*
X201000000Y-118742857D01*
X200928571Y-118457143D01*
X200928571Y-118100000D01*
X201000000Y-117814286D01*
X201071428Y-117671429D01*
X201142857Y-117600000D01*
X201285714Y-117528571D01*
X203571428Y-119028571D02*
X203571428Y-118028571D01*
X203571428Y-118171429D02*
X203642856Y-118100000D01*
X203785714Y-118028571D01*
X203999999Y-118028571D01*
X204142856Y-118100000D01*
X204214285Y-118242857D01*
X204214285Y-119028571D01*
X204214285Y-118242857D02*
X204285714Y-118100000D01*
X204428571Y-118028571D01*
X204642856Y-118028571D01*
X204785714Y-118100000D01*
X204857142Y-118242857D01*
X204857142Y-119028571D01*
X205571428Y-119028571D02*
X205571428Y-118028571D01*
X205571428Y-118171429D02*
X205642856Y-118100000D01*
X205785714Y-118028571D01*
X205999999Y-118028571D01*
X206142856Y-118100000D01*
X206214285Y-118242857D01*
X206214285Y-119028571D01*
X206214285Y-118242857D02*
X206285714Y-118100000D01*
X206428571Y-118028571D01*
X206642856Y-118028571D01*
X206785714Y-118100000D01*
X206857142Y-118242857D01*
X206857142Y-119028571D01*
X150000000Y-117000000D02*
X250000000Y-117000000D01*
X150000000Y-64000000D02*
X150000000Y-119700000D01*
X250000000Y-64000000D02*
X250000000Y-119700000D01*
X250000000Y-117000000D02*
X248873496Y-117586421D01*
X250000000Y-117000000D02*
X248873496Y-116413579D01*
X150000000Y-117000000D02*
X151126504Y-117586421D01*
X150000000Y-117000000D02*
X151126504Y-116413579D01*
D11*
X200500000Y-38500000D02*
G75*
G03X200500000Y-38500000I-500000J0D01*
G01*
X221500000Y-29000000D02*
X178500000Y-29000000D01*
D13*
X183450000Y-104750000D02*
X191150000Y-104750000D01*
X183450000Y-105750000D02*
X191150000Y-105750000D01*
X191150000Y-105750000D02*
X191150000Y-96550000D01*
X191150000Y-96550000D02*
X183450000Y-96550000D01*
X183450000Y-96550000D02*
X183450000Y-105750000D01*
X189000000Y-80650000D02*
X188000000Y-80650000D01*
X188000000Y-82350000D02*
X189000000Y-82350000D01*
D14*
X196375000Y-74375000D02*
X196375000Y-74600000D01*
X203625000Y-74375000D02*
X203625000Y-74700000D01*
X203625000Y-81625000D02*
X203625000Y-81300000D01*
X196375000Y-81625000D02*
X196375000Y-81300000D01*
X196375000Y-74375000D02*
X196700000Y-74375000D01*
X196375000Y-81625000D02*
X196700000Y-81625000D01*
X203625000Y-81625000D02*
X203300000Y-81625000D01*
X203625000Y-74375000D02*
X203300000Y-74375000D01*
X196375000Y-74600000D02*
X194950000Y-74600000D01*
X202325000Y-68250000D02*
X203400000Y-68250000D01*
X202325000Y-58525000D02*
X197675000Y-58525000D01*
X202325000Y-68475000D02*
X197675000Y-68475000D01*
X202325000Y-58525000D02*
X202325000Y-58850000D01*
X197675000Y-58525000D02*
X197675000Y-58850000D01*
X197675000Y-68475000D02*
X197675000Y-68150000D01*
X202325000Y-68475000D02*
X202325000Y-68250000D01*
D13*
X192880000Y-66250000D02*
X192880000Y-67450000D01*
X191120000Y-67450000D02*
X191120000Y-66250000D01*
X198550000Y-92850000D02*
X198100000Y-92400000D01*
X197300000Y-91150000D02*
X197300000Y-89150000D01*
X198100000Y-87900000D02*
X198550000Y-87450000D01*
X198550000Y-87450000D02*
X201450000Y-87450000D01*
X201450000Y-87450000D02*
X201900000Y-87900000D01*
X202700000Y-89150000D02*
X202700000Y-91150000D01*
X201900000Y-92400000D02*
X201450000Y-92850000D01*
X201450000Y-92850000D02*
X198550000Y-92850000D01*
X225750000Y-84700000D02*
X227250000Y-84700000D01*
X225750000Y-84700000D02*
X225750000Y-81500000D01*
X227250000Y-81500000D02*
X227250000Y-84700000D01*
X229880000Y-81900000D02*
X229880000Y-83100000D01*
X228120000Y-83100000D02*
X228120000Y-81900000D01*
X209300000Y-90050000D02*
X209300000Y-91550000D01*
X209300000Y-90050000D02*
X212500000Y-90050000D01*
X212500000Y-91550000D02*
X209300000Y-91550000D01*
X207850000Y-87120000D02*
X209050000Y-87120000D01*
X209050000Y-88880000D02*
X207850000Y-88880000D01*
X199800000Y-85800000D02*
X201200000Y-85800000D01*
X201200000Y-85800000D02*
X201200000Y-87200000D01*
X201200000Y-87200000D02*
X199800000Y-87200000D01*
X199800000Y-87200000D02*
X199800000Y-85800000D01*
X198800000Y-84300000D02*
X200200000Y-84300000D01*
X200200000Y-84300000D02*
X200200000Y-85700000D01*
X200200000Y-85700000D02*
X198800000Y-85700000D01*
X198800000Y-85700000D02*
X198800000Y-84300000D01*
X197800000Y-85800000D02*
X199200000Y-85800000D01*
X199200000Y-85800000D02*
X199200000Y-87200000D01*
X199200000Y-87200000D02*
X197800000Y-87200000D01*
X197800000Y-87200000D02*
X197800000Y-85800000D01*
X196800000Y-84300000D02*
X198200000Y-84300000D01*
X198200000Y-84300000D02*
X198200000Y-85700000D01*
X198200000Y-85700000D02*
X196800000Y-85700000D01*
X196800000Y-85700000D02*
X196800000Y-84300000D01*
X200800000Y-84300000D02*
X202200000Y-84300000D01*
X202200000Y-84300000D02*
X202200000Y-85700000D01*
X202200000Y-85700000D02*
X200800000Y-85700000D01*
X200800000Y-85700000D02*
X200800000Y-84300000D01*
X195800000Y-85800000D02*
X197200000Y-85800000D01*
X197200000Y-85800000D02*
X197200000Y-87200000D01*
X197200000Y-87200000D02*
X195800000Y-87200000D01*
X195800000Y-87200000D02*
X195800000Y-85800000D01*
X185590000Y-66390000D02*
X188130000Y-66390000D01*
X188130000Y-64610000D02*
X185590000Y-64610000D01*
X188130000Y-64610000D02*
X188130000Y-66390000D01*
X185590000Y-66390000D02*
X185590000Y-64610000D01*
X202750000Y-69620000D02*
X203950000Y-69620000D01*
X203950000Y-71380000D02*
X202750000Y-71380000D01*
X209350000Y-71380000D02*
X208150000Y-71380000D01*
X208150000Y-69620000D02*
X209350000Y-69620000D01*
X214890000Y-73270000D02*
X214890000Y-70730000D01*
X213110000Y-70730000D02*
X213110000Y-73270000D01*
X213110000Y-70730000D02*
X214890000Y-70730000D01*
X214890000Y-73270000D02*
X213110000Y-73270000D01*
X216890000Y-73270000D02*
X216890000Y-70730000D01*
X215110000Y-70730000D02*
X215110000Y-73270000D01*
X215110000Y-70730000D02*
X216890000Y-70730000D01*
X216890000Y-73270000D02*
X215110000Y-73270000D01*
X218890000Y-73270000D02*
X218890000Y-70730000D01*
X217110000Y-70730000D02*
X217110000Y-73270000D01*
X217110000Y-70730000D02*
X218890000Y-70730000D01*
X218890000Y-73270000D02*
X217110000Y-73270000D01*
X220890000Y-73270000D02*
X220890000Y-70730000D01*
X219110000Y-70730000D02*
X219110000Y-73270000D01*
X219110000Y-70730000D02*
X220890000Y-70730000D01*
X220890000Y-73270000D02*
X219110000Y-73270000D01*
X222890000Y-73270000D02*
X222890000Y-70730000D01*
X221110000Y-70730000D02*
X221110000Y-73270000D01*
X221110000Y-70730000D02*
X222890000Y-70730000D01*
X222890000Y-73270000D02*
X221110000Y-73270000D01*
X190750000Y-76380000D02*
X189550000Y-76380000D01*
X189550000Y-74620000D02*
X190750000Y-74620000D01*
X183750000Y-82380000D02*
X182550000Y-82380000D01*
X182550000Y-80620000D02*
X183750000Y-80620000D01*
X224305000Y-31685000D02*
X225695000Y-31685000D01*
X224305000Y-31685000D02*
X224305000Y-31560000D01*
X225695000Y-31685000D02*
X225695000Y-31560000D01*
X224305000Y-31685000D02*
X224391724Y-31685000D01*
X225608276Y-31685000D02*
X225695000Y-31685000D01*
X224305000Y-31000000D02*
X224305000Y-30315000D01*
X224305000Y-30315000D02*
X225000000Y-30315000D01*
X224305000Y-51685000D02*
X225695000Y-51685000D01*
X224305000Y-51685000D02*
X224305000Y-51560000D01*
X225695000Y-51685000D02*
X225695000Y-51560000D01*
X224305000Y-51685000D02*
X224391724Y-51685000D01*
X225608276Y-51685000D02*
X225695000Y-51685000D01*
X224305000Y-51000000D02*
X224305000Y-50315000D01*
X224305000Y-50315000D02*
X225000000Y-50315000D01*
X174305000Y-51685000D02*
X175695000Y-51685000D01*
X174305000Y-51685000D02*
X174305000Y-51560000D01*
X175695000Y-51685000D02*
X175695000Y-51560000D01*
X174305000Y-51685000D02*
X174391724Y-51685000D01*
X175608276Y-51685000D02*
X175695000Y-51685000D01*
X174305000Y-51000000D02*
X174305000Y-50315000D01*
X174305000Y-50315000D02*
X175000000Y-50315000D01*
X174305000Y-31685000D02*
X175695000Y-31685000D01*
X174305000Y-31685000D02*
X174305000Y-31560000D01*
X175695000Y-31685000D02*
X175695000Y-31560000D01*
X174305000Y-31685000D02*
X174391724Y-31685000D01*
X175608276Y-31685000D02*
X175695000Y-31685000D01*
X174305000Y-31000000D02*
X174305000Y-30315000D01*
X174305000Y-30315000D02*
X175000000Y-30315000D01*
X163050000Y-44300000D02*
X163550000Y-44300000D01*
X163050000Y-44300000D02*
X163050000Y-44800000D01*
X163050000Y-48700000D02*
X163550000Y-48700000D01*
X163050000Y-48700000D02*
X163050000Y-48200000D01*
X167950000Y-44300000D02*
X167450000Y-44300000D01*
X167950000Y-44300000D02*
X167950000Y-44800000D01*
X167950000Y-48700000D02*
X167450000Y-48700000D01*
X167950000Y-48700000D02*
X167950000Y-48200000D01*
X237600000Y-78950000D02*
X237600000Y-79450000D01*
X237600000Y-78950000D02*
X237100000Y-78950000D01*
X233200000Y-78950000D02*
X233200000Y-79450000D01*
X233200000Y-78950000D02*
X233700000Y-78950000D01*
X237600000Y-83850000D02*
X237600000Y-83350000D01*
X237600000Y-83850000D02*
X237100000Y-83850000D01*
X233200000Y-83850000D02*
X233200000Y-83350000D01*
X233200000Y-83850000D02*
X233700000Y-83850000D01*
X172000000Y-83350000D02*
X173000000Y-83350000D01*
X173000000Y-81650000D02*
X172000000Y-81650000D01*
X213850000Y-87500000D02*
X213850000Y-86500000D01*
X212150000Y-86500000D02*
X212150000Y-87500000D01*
X178100000Y-82600000D02*
X178100000Y-83000000D01*
X178100000Y-83000000D02*
X176700000Y-83000000D01*
X178100000Y-82600000D02*
X182900000Y-82600000D01*
X178100000Y-93400000D02*
X182900000Y-93400000D01*
X174600000Y-84675000D02*
X169400000Y-84675000D01*
X169400000Y-84675000D02*
X169400000Y-93325000D01*
X186400000Y-93075000D02*
X191600000Y-93075000D01*
X191600000Y-93075000D02*
X191600000Y-84425000D01*
X213090000Y-96790000D02*
X213090000Y-98050000D01*
X213090000Y-103610000D02*
X213090000Y-102350000D01*
X216850000Y-96790000D02*
X213090000Y-96790000D01*
X219100000Y-103610000D02*
X213090000Y-103610000D01*
X213300000Y-92750000D02*
X212300000Y-92750000D01*
X212300000Y-94450000D02*
X213300000Y-94450000D01*
X192300000Y-49450000D02*
X192300000Y-46790000D01*
X184620000Y-49450000D02*
X192300000Y-49450000D01*
X184620000Y-46790000D02*
X192300000Y-46790000D01*
X184620000Y-49450000D02*
X184620000Y-46790000D01*
X183350000Y-49450000D02*
X182020000Y-49450000D01*
X182020000Y-49450000D02*
X182020000Y-48120000D01*
X215160000Y-49450000D02*
X215160000Y-46790000D01*
X207480000Y-49450000D02*
X215160000Y-49450000D01*
X207480000Y-46790000D02*
X215160000Y-46790000D01*
X207480000Y-49450000D02*
X207480000Y-46790000D01*
X206210000Y-49450000D02*
X204880000Y-49450000D01*
X204880000Y-49450000D02*
X204880000Y-48120000D01*
X224070000Y-80510000D02*
X221410000Y-80510000D01*
X224070000Y-98350000D02*
X224070000Y-80510000D01*
X221410000Y-98350000D02*
X221410000Y-80510000D01*
X224070000Y-98350000D02*
X221410000Y-98350000D01*
X224070000Y-99620000D02*
X224070000Y-100950000D01*
X224070000Y-100950000D02*
X222740000Y-100950000D01*
X224670000Y-95950000D02*
X229870000Y-95950000D01*
X224670000Y-88270000D02*
X224670000Y-95950000D01*
X229870000Y-85670000D02*
X229870000Y-95950000D01*
X224670000Y-88270000D02*
X227270000Y-88270000D01*
X227270000Y-88270000D02*
X227270000Y-85670000D01*
X227270000Y-85670000D02*
X229870000Y-85670000D01*
X224670000Y-87000000D02*
X224670000Y-85670000D01*
X224670000Y-85670000D02*
X226000000Y-85670000D01*
X192180000Y-49220000D02*
X205000000Y-49220000D01*
X205000000Y-49220000D02*
X205000000Y-46560000D01*
X205000000Y-46560000D02*
X192180000Y-46560000D01*
X192180000Y-46560000D02*
X192180000Y-49220000D01*
X193130000Y-46560000D02*
X193130000Y-40560000D01*
X193130000Y-40560000D02*
X193890000Y-40560000D01*
X193890000Y-40560000D02*
X193890000Y-46560000D01*
X193190000Y-46560000D02*
X193190000Y-40560000D01*
X193310000Y-46560000D02*
X193310000Y-40560000D01*
X193430000Y-46560000D02*
X193430000Y-40560000D01*
X193550000Y-46560000D02*
X193550000Y-40560000D01*
X193670000Y-46560000D02*
X193670000Y-40560000D01*
X193790000Y-46560000D02*
X193790000Y-40560000D01*
X193130000Y-49550000D02*
X193130000Y-49220000D01*
X193890000Y-49550000D02*
X193890000Y-49220000D01*
X194780000Y-49220000D02*
X194780000Y-46560000D01*
X195670000Y-46560000D02*
X195670000Y-40560000D01*
X195670000Y-40560000D02*
X196430000Y-40560000D01*
X196430000Y-40560000D02*
X196430000Y-46560000D01*
X195670000Y-49617071D02*
X195670000Y-49220000D01*
X196430000Y-49617071D02*
X196430000Y-49220000D01*
X197320000Y-49220000D02*
X197320000Y-46560000D01*
X198210000Y-46560000D02*
X198210000Y-40560000D01*
X198210000Y-40560000D02*
X198970000Y-40560000D01*
X198970000Y-40560000D02*
X198970000Y-46560000D01*
X198210000Y-49617071D02*
X198210000Y-49220000D01*
X198970000Y-49617071D02*
X198970000Y-49220000D01*
X199860000Y-49220000D02*
X199860000Y-46560000D01*
X200750000Y-46560000D02*
X200750000Y-40560000D01*
X200750000Y-40560000D02*
X201510000Y-40560000D01*
X201510000Y-40560000D02*
X201510000Y-46560000D01*
X200750000Y-49617071D02*
X200750000Y-49220000D01*
X201510000Y-49617071D02*
X201510000Y-49220000D01*
X202400000Y-49220000D02*
X202400000Y-46560000D01*
X203290000Y-46560000D02*
X203290000Y-40560000D01*
X203290000Y-40560000D02*
X204050000Y-40560000D01*
X204050000Y-40560000D02*
X204050000Y-46560000D01*
X203290000Y-49617071D02*
X203290000Y-49220000D01*
X204050000Y-49617071D02*
X204050000Y-49220000D01*
X193510000Y-51930000D02*
X192240000Y-51930000D01*
X192240000Y-51930000D02*
X192240000Y-50660000D01*
D14*
X209238096Y-22500000D02*
X209142858Y-22452381D01*
X209000001Y-22452381D01*
X208857143Y-22500000D01*
X208761905Y-22595238D01*
X208714286Y-22690476D01*
X208666667Y-22880952D01*
X208666667Y-23023810D01*
X208714286Y-23214286D01*
X208761905Y-23309524D01*
X208857143Y-23404762D01*
X209000001Y-23452381D01*
X209095239Y-23452381D01*
X209238096Y-23404762D01*
X209285715Y-23357143D01*
X209285715Y-23023810D01*
X209095239Y-23023810D01*
X209714286Y-23452381D02*
X209714286Y-22452381D01*
X210285715Y-23452381D01*
X210285715Y-22452381D01*
X210761905Y-23452381D02*
X210761905Y-22452381D01*
X211000000Y-22452381D01*
X211142858Y-22500000D01*
X211238096Y-22595238D01*
X211285715Y-22690476D01*
X211333334Y-22880952D01*
X211333334Y-23023810D01*
X211285715Y-23214286D01*
X211238096Y-23309524D01*
X211142858Y-23404762D01*
X211000000Y-23452381D01*
X210761905Y-23452381D01*
X193652381Y-101483333D02*
X194366667Y-101483333D01*
X194509524Y-101530953D01*
X194604762Y-101626191D01*
X194652381Y-101769048D01*
X194652381Y-101864286D01*
X194652381Y-100959524D02*
X194652381Y-100769048D01*
X194604762Y-100673809D01*
X194557143Y-100626190D01*
X194414286Y-100530952D01*
X194223810Y-100483333D01*
X193842857Y-100483333D01*
X193747619Y-100530952D01*
X193700000Y-100578571D01*
X193652381Y-100673809D01*
X193652381Y-100864286D01*
X193700000Y-100959524D01*
X193747619Y-101007143D01*
X193842857Y-101054762D01*
X194080952Y-101054762D01*
X194176190Y-101007143D01*
X194223810Y-100959524D01*
X194271429Y-100864286D01*
X194271429Y-100673809D01*
X194223810Y-100578571D01*
X194176190Y-100530952D01*
X194080952Y-100483333D01*
X188333334Y-80107143D02*
X188285715Y-80154762D01*
X188142858Y-80202381D01*
X188047620Y-80202381D01*
X187904762Y-80154762D01*
X187809524Y-80059524D01*
X187761905Y-79964286D01*
X187714286Y-79773810D01*
X187714286Y-79630952D01*
X187761905Y-79440476D01*
X187809524Y-79345238D01*
X187904762Y-79250000D01*
X188047620Y-79202381D01*
X188142858Y-79202381D01*
X188285715Y-79250000D01*
X188333334Y-79297619D01*
X188666667Y-79202381D02*
X189285715Y-79202381D01*
X188952381Y-79583333D01*
X189095239Y-79583333D01*
X189190477Y-79630952D01*
X189238096Y-79678571D01*
X189285715Y-79773810D01*
X189285715Y-80011905D01*
X189238096Y-80107143D01*
X189190477Y-80154762D01*
X189095239Y-80202381D01*
X188809524Y-80202381D01*
X188714286Y-80154762D01*
X188666667Y-80107143D01*
X199023810Y-72402381D02*
X199023810Y-71402381D01*
X200071429Y-72307143D02*
X200023810Y-72354762D01*
X199880953Y-72402381D01*
X199785715Y-72402381D01*
X199642857Y-72354762D01*
X199547619Y-72259524D01*
X199500000Y-72164286D01*
X199452381Y-71973810D01*
X199452381Y-71830952D01*
X199500000Y-71640476D01*
X199547619Y-71545238D01*
X199642857Y-71450000D01*
X199785715Y-71402381D01*
X199880953Y-71402381D01*
X200023810Y-71450000D01*
X200071429Y-71497619D01*
X201023810Y-72402381D02*
X200452381Y-72402381D01*
X200738095Y-72402381D02*
X200738095Y-71402381D01*
X200642857Y-71545238D01*
X200547619Y-71640476D01*
X200452381Y-71688095D01*
X199238095Y-68852381D02*
X199238095Y-69661905D01*
X199285714Y-69757143D01*
X199333333Y-69804762D01*
X199428571Y-69852381D01*
X199619048Y-69852381D01*
X199714286Y-69804762D01*
X199761905Y-69757143D01*
X199809524Y-69661905D01*
X199809524Y-68852381D01*
X200809524Y-69852381D02*
X200238095Y-69852381D01*
X200523809Y-69852381D02*
X200523809Y-68852381D01*
X200428571Y-68995238D01*
X200333333Y-69090476D01*
X200238095Y-69138095D01*
X190752381Y-67016666D02*
X190276190Y-67350000D01*
X190752381Y-67588095D02*
X189752381Y-67588095D01*
X189752381Y-67207142D01*
X189800000Y-67111904D01*
X189847619Y-67064285D01*
X189942857Y-67016666D01*
X190085714Y-67016666D01*
X190180952Y-67064285D01*
X190228571Y-67111904D01*
X190276190Y-67207142D01*
X190276190Y-67588095D01*
X190085714Y-66159523D02*
X190752381Y-66159523D01*
X189704762Y-66397619D02*
X190419048Y-66635714D01*
X190419048Y-66016666D01*
X198666667Y-94154762D02*
X198809524Y-94202381D01*
X199047620Y-94202381D01*
X199142858Y-94154762D01*
X199190477Y-94107143D01*
X199238096Y-94011905D01*
X199238096Y-93916667D01*
X199190477Y-93821429D01*
X199142858Y-93773810D01*
X199047620Y-93726190D01*
X198857143Y-93678571D01*
X198761905Y-93630952D01*
X198714286Y-93583333D01*
X198666667Y-93488095D01*
X198666667Y-93392857D01*
X198714286Y-93297619D01*
X198761905Y-93250000D01*
X198857143Y-93202381D01*
X199095239Y-93202381D01*
X199238096Y-93250000D01*
X199571429Y-93202381D02*
X199809524Y-94202381D01*
X200000001Y-93488095D01*
X200190477Y-94202381D01*
X200428572Y-93202381D01*
X201333334Y-94202381D02*
X200761905Y-94202381D01*
X201047619Y-94202381D02*
X201047619Y-93202381D01*
X200952381Y-93345238D01*
X200857143Y-93440476D01*
X200761905Y-93488095D01*
X225252381Y-83238095D02*
X224252381Y-83238095D01*
X224252381Y-83000000D01*
X224300000Y-82857142D01*
X224395238Y-82761904D01*
X224490476Y-82714285D01*
X224680952Y-82666666D01*
X224823810Y-82666666D01*
X225014286Y-82714285D01*
X225109524Y-82761904D01*
X225204762Y-82857142D01*
X225252381Y-83000000D01*
X225252381Y-83238095D01*
X225252381Y-81714285D02*
X225252381Y-82285714D01*
X225252381Y-82000000D02*
X224252381Y-82000000D01*
X224395238Y-82095238D01*
X224490476Y-82190476D01*
X224538095Y-82285714D01*
X231152381Y-82666666D02*
X230676190Y-83000000D01*
X231152381Y-83238095D02*
X230152381Y-83238095D01*
X230152381Y-82857142D01*
X230200000Y-82761904D01*
X230247619Y-82714285D01*
X230342857Y-82666666D01*
X230485714Y-82666666D01*
X230580952Y-82714285D01*
X230628571Y-82761904D01*
X230676190Y-82857142D01*
X230676190Y-83238095D01*
X231152381Y-81714285D02*
X231152381Y-82285714D01*
X231152381Y-82000000D02*
X230152381Y-82000000D01*
X230295238Y-82095238D01*
X230390476Y-82190476D01*
X230438095Y-82285714D01*
X210761905Y-89552381D02*
X210761905Y-88552381D01*
X211000000Y-88552381D01*
X211142858Y-88600000D01*
X211238096Y-88695238D01*
X211285715Y-88790476D01*
X211333334Y-88980952D01*
X211333334Y-89123810D01*
X211285715Y-89314286D01*
X211238096Y-89409524D01*
X211142858Y-89504762D01*
X211000000Y-89552381D01*
X210761905Y-89552381D01*
X211714286Y-88647619D02*
X211761905Y-88600000D01*
X211857143Y-88552381D01*
X212095239Y-88552381D01*
X212190477Y-88600000D01*
X212238096Y-88647619D01*
X212285715Y-88742857D01*
X212285715Y-88838095D01*
X212238096Y-88980952D01*
X211666667Y-89552381D01*
X212285715Y-89552381D01*
X208283334Y-86752381D02*
X207950000Y-86276190D01*
X207711905Y-86752381D02*
X207711905Y-85752381D01*
X208092858Y-85752381D01*
X208188096Y-85800000D01*
X208235715Y-85847619D01*
X208283334Y-85942857D01*
X208283334Y-86085714D01*
X208235715Y-86180952D01*
X208188096Y-86228571D01*
X208092858Y-86276190D01*
X207711905Y-86276190D01*
X208664286Y-85847619D02*
X208711905Y-85800000D01*
X208807143Y-85752381D01*
X209045239Y-85752381D01*
X209140477Y-85800000D01*
X209188096Y-85847619D01*
X209235715Y-85942857D01*
X209235715Y-86038095D01*
X209188096Y-86180952D01*
X208616667Y-86752381D01*
X209235715Y-86752381D01*
X186526667Y-63172381D02*
X186526667Y-63886667D01*
X186479047Y-64029524D01*
X186383809Y-64124762D01*
X186240952Y-64172381D01*
X186145714Y-64172381D01*
X187431429Y-63172381D02*
X187240952Y-63172381D01*
X187145714Y-63220000D01*
X187098095Y-63267619D01*
X187002857Y-63410476D01*
X186955238Y-63600952D01*
X186955238Y-63981905D01*
X187002857Y-64077143D01*
X187050476Y-64124762D01*
X187145714Y-64172381D01*
X187336191Y-64172381D01*
X187431429Y-64124762D01*
X187479048Y-64077143D01*
X187526667Y-63981905D01*
X187526667Y-63743810D01*
X187479048Y-63648571D01*
X187431429Y-63600952D01*
X187336191Y-63553333D01*
X187145714Y-63553333D01*
X187050476Y-63600952D01*
X187002857Y-63648571D01*
X186955238Y-63743810D01*
X203183334Y-72652381D02*
X202850000Y-72176190D01*
X202611905Y-72652381D02*
X202611905Y-71652381D01*
X202992858Y-71652381D01*
X203088096Y-71700000D01*
X203135715Y-71747619D01*
X203183334Y-71842857D01*
X203183334Y-71985714D01*
X203135715Y-72080952D01*
X203088096Y-72128571D01*
X202992858Y-72176190D01*
X202611905Y-72176190D01*
X203516667Y-71652381D02*
X204135715Y-71652381D01*
X203802381Y-72033333D01*
X203945239Y-72033333D01*
X204040477Y-72080952D01*
X204088096Y-72128571D01*
X204135715Y-72223810D01*
X204135715Y-72461905D01*
X204088096Y-72557143D01*
X204040477Y-72604762D01*
X203945239Y-72652381D01*
X203659524Y-72652381D01*
X203564286Y-72604762D01*
X203516667Y-72557143D01*
X208583334Y-69252381D02*
X208250000Y-68776190D01*
X208011905Y-69252381D02*
X208011905Y-68252381D01*
X208392858Y-68252381D01*
X208488096Y-68300000D01*
X208535715Y-68347619D01*
X208583334Y-68442857D01*
X208583334Y-68585714D01*
X208535715Y-68680952D01*
X208488096Y-68728571D01*
X208392858Y-68776190D01*
X208011905Y-68776190D01*
X209488096Y-68252381D02*
X209011905Y-68252381D01*
X208964286Y-68728571D01*
X209011905Y-68680952D01*
X209107143Y-68633333D01*
X209345239Y-68633333D01*
X209440477Y-68680952D01*
X209488096Y-68728571D01*
X209535715Y-68823810D01*
X209535715Y-69061905D01*
X209488096Y-69157143D01*
X209440477Y-69204762D01*
X209345239Y-69252381D01*
X209107143Y-69252381D01*
X209011905Y-69204762D01*
X208964286Y-69157143D01*
X211672381Y-72333333D02*
X212386667Y-72333333D01*
X212529524Y-72380953D01*
X212624762Y-72476191D01*
X212672381Y-72619048D01*
X212672381Y-72714286D01*
X212672381Y-71333333D02*
X212672381Y-71904762D01*
X212672381Y-71619048D02*
X211672381Y-71619048D01*
X211815238Y-71714286D01*
X211910476Y-71809524D01*
X211958095Y-71904762D01*
X213672381Y-72333333D02*
X214386667Y-72333333D01*
X214529524Y-72380953D01*
X214624762Y-72476191D01*
X214672381Y-72619048D01*
X214672381Y-72714286D01*
X213767619Y-71904762D02*
X213720000Y-71857143D01*
X213672381Y-71761905D01*
X213672381Y-71523809D01*
X213720000Y-71428571D01*
X213767619Y-71380952D01*
X213862857Y-71333333D01*
X213958095Y-71333333D01*
X214100952Y-71380952D01*
X214672381Y-71952381D01*
X214672381Y-71333333D01*
X215672381Y-72333333D02*
X216386667Y-72333333D01*
X216529524Y-72380953D01*
X216624762Y-72476191D01*
X216672381Y-72619048D01*
X216672381Y-72714286D01*
X215672381Y-71952381D02*
X215672381Y-71333333D01*
X216053333Y-71666667D01*
X216053333Y-71523809D01*
X216100952Y-71428571D01*
X216148571Y-71380952D01*
X216243810Y-71333333D01*
X216481905Y-71333333D01*
X216577143Y-71380952D01*
X216624762Y-71428571D01*
X216672381Y-71523809D01*
X216672381Y-71809524D01*
X216624762Y-71904762D01*
X216577143Y-71952381D01*
X217672381Y-72333333D02*
X218386667Y-72333333D01*
X218529524Y-72380953D01*
X218624762Y-72476191D01*
X218672381Y-72619048D01*
X218672381Y-72714286D01*
X218005714Y-71428571D02*
X218672381Y-71428571D01*
X217624762Y-71666667D02*
X218339048Y-71904762D01*
X218339048Y-71285714D01*
X219672381Y-72333333D02*
X220386667Y-72333333D01*
X220529524Y-72380953D01*
X220624762Y-72476191D01*
X220672381Y-72619048D01*
X220672381Y-72714286D01*
X219672381Y-71380952D02*
X219672381Y-71857143D01*
X220148571Y-71904762D01*
X220100952Y-71857143D01*
X220053333Y-71761905D01*
X220053333Y-71523809D01*
X220100952Y-71428571D01*
X220148571Y-71380952D01*
X220243810Y-71333333D01*
X220481905Y-71333333D01*
X220577143Y-71380952D01*
X220624762Y-71428571D01*
X220672381Y-71523809D01*
X220672381Y-71761905D01*
X220624762Y-71857143D01*
X220577143Y-71904762D01*
X189983334Y-74252381D02*
X189650000Y-73776190D01*
X189411905Y-74252381D02*
X189411905Y-73252381D01*
X189792858Y-73252381D01*
X189888096Y-73300000D01*
X189935715Y-73347619D01*
X189983334Y-73442857D01*
X189983334Y-73585714D01*
X189935715Y-73680952D01*
X189888096Y-73728571D01*
X189792858Y-73776190D01*
X189411905Y-73776190D01*
X190316667Y-73252381D02*
X190983334Y-73252381D01*
X190554762Y-74252381D01*
X182983334Y-80252381D02*
X182650000Y-79776190D01*
X182411905Y-80252381D02*
X182411905Y-79252381D01*
X182792858Y-79252381D01*
X182888096Y-79300000D01*
X182935715Y-79347619D01*
X182983334Y-79442857D01*
X182983334Y-79585714D01*
X182935715Y-79680952D01*
X182888096Y-79728571D01*
X182792858Y-79776190D01*
X182411905Y-79776190D01*
X183459524Y-80252381D02*
X183650000Y-80252381D01*
X183745239Y-80204762D01*
X183792858Y-80157143D01*
X183888096Y-80014286D01*
X183935715Y-79823810D01*
X183935715Y-79442857D01*
X183888096Y-79347619D01*
X183840477Y-79300000D01*
X183745239Y-79252381D01*
X183554762Y-79252381D01*
X183459524Y-79300000D01*
X183411905Y-79347619D01*
X183364286Y-79442857D01*
X183364286Y-79680952D01*
X183411905Y-79776190D01*
X183459524Y-79823810D01*
X183554762Y-79871429D01*
X183745239Y-79871429D01*
X183840477Y-79823810D01*
X183888096Y-79776190D01*
X183935715Y-79680952D01*
X223666667Y-29892381D02*
X223333333Y-29416190D01*
X223095238Y-29892381D02*
X223095238Y-28892381D01*
X223476191Y-28892381D01*
X223571429Y-28940000D01*
X223619048Y-28987619D01*
X223666667Y-29082857D01*
X223666667Y-29225714D01*
X223619048Y-29320952D01*
X223571429Y-29368571D01*
X223476191Y-29416190D01*
X223095238Y-29416190D01*
X224095238Y-29368571D02*
X224428572Y-29368571D01*
X224571429Y-29892381D02*
X224095238Y-29892381D01*
X224095238Y-28892381D01*
X224571429Y-28892381D01*
X225333334Y-29368571D02*
X225000000Y-29368571D01*
X225000000Y-29892381D02*
X225000000Y-28892381D01*
X225476191Y-28892381D01*
X226000000Y-28892381D02*
X226000000Y-29130476D01*
X225761905Y-29035238D02*
X226000000Y-29130476D01*
X226238096Y-29035238D01*
X225857143Y-29320952D02*
X226000000Y-29130476D01*
X226142858Y-29320952D01*
X226761905Y-28892381D02*
X226761905Y-29130476D01*
X226523810Y-29035238D02*
X226761905Y-29130476D01*
X227000001Y-29035238D01*
X226619048Y-29320952D02*
X226761905Y-29130476D01*
X226904763Y-29320952D01*
X223666667Y-49892381D02*
X223333333Y-49416190D01*
X223095238Y-49892381D02*
X223095238Y-48892381D01*
X223476191Y-48892381D01*
X223571429Y-48940000D01*
X223619048Y-48987619D01*
X223666667Y-49082857D01*
X223666667Y-49225714D01*
X223619048Y-49320952D01*
X223571429Y-49368571D01*
X223476191Y-49416190D01*
X223095238Y-49416190D01*
X224095238Y-49368571D02*
X224428572Y-49368571D01*
X224571429Y-49892381D02*
X224095238Y-49892381D01*
X224095238Y-48892381D01*
X224571429Y-48892381D01*
X225333334Y-49368571D02*
X225000000Y-49368571D01*
X225000000Y-49892381D02*
X225000000Y-48892381D01*
X225476191Y-48892381D01*
X226000000Y-48892381D02*
X226000000Y-49130476D01*
X225761905Y-49035238D02*
X226000000Y-49130476D01*
X226238096Y-49035238D01*
X225857143Y-49320952D02*
X226000000Y-49130476D01*
X226142858Y-49320952D01*
X226761905Y-48892381D02*
X226761905Y-49130476D01*
X226523810Y-49035238D02*
X226761905Y-49130476D01*
X227000001Y-49035238D01*
X226619048Y-49320952D02*
X226761905Y-49130476D01*
X226904763Y-49320952D01*
X173666667Y-49892381D02*
X173333333Y-49416190D01*
X173095238Y-49892381D02*
X173095238Y-48892381D01*
X173476191Y-48892381D01*
X173571429Y-48940000D01*
X173619048Y-48987619D01*
X173666667Y-49082857D01*
X173666667Y-49225714D01*
X173619048Y-49320952D01*
X173571429Y-49368571D01*
X173476191Y-49416190D01*
X173095238Y-49416190D01*
X174095238Y-49368571D02*
X174428572Y-49368571D01*
X174571429Y-49892381D02*
X174095238Y-49892381D01*
X174095238Y-48892381D01*
X174571429Y-48892381D01*
X175333334Y-49368571D02*
X175000000Y-49368571D01*
X175000000Y-49892381D02*
X175000000Y-48892381D01*
X175476191Y-48892381D01*
X176000000Y-48892381D02*
X176000000Y-49130476D01*
X175761905Y-49035238D02*
X176000000Y-49130476D01*
X176238096Y-49035238D01*
X175857143Y-49320952D02*
X176000000Y-49130476D01*
X176142858Y-49320952D01*
X176761905Y-48892381D02*
X176761905Y-49130476D01*
X176523810Y-49035238D02*
X176761905Y-49130476D01*
X177000001Y-49035238D01*
X176619048Y-49320952D02*
X176761905Y-49130476D01*
X176904763Y-49320952D01*
X173666667Y-29892381D02*
X173333333Y-29416190D01*
X173095238Y-29892381D02*
X173095238Y-28892381D01*
X173476191Y-28892381D01*
X173571429Y-28940000D01*
X173619048Y-28987619D01*
X173666667Y-29082857D01*
X173666667Y-29225714D01*
X173619048Y-29320952D01*
X173571429Y-29368571D01*
X173476191Y-29416190D01*
X173095238Y-29416190D01*
X174095238Y-29368571D02*
X174428572Y-29368571D01*
X174571429Y-29892381D02*
X174095238Y-29892381D01*
X174095238Y-28892381D01*
X174571429Y-28892381D01*
X175333334Y-29368571D02*
X175000000Y-29368571D01*
X175000000Y-29892381D02*
X175000000Y-28892381D01*
X175476191Y-28892381D01*
X176000000Y-28892381D02*
X176000000Y-29130476D01*
X175761905Y-29035238D02*
X176000000Y-29130476D01*
X176238096Y-29035238D01*
X175857143Y-29320952D02*
X176000000Y-29130476D01*
X176142858Y-29320952D01*
X176761905Y-28892381D02*
X176761905Y-29130476D01*
X176523810Y-29035238D02*
X176761905Y-29130476D01*
X177000001Y-29035238D01*
X176619048Y-29320952D02*
X176761905Y-29130476D01*
X176904763Y-29320952D01*
X165333334Y-43607143D02*
X165285715Y-43654762D01*
X165142858Y-43702381D01*
X165047620Y-43702381D01*
X164904762Y-43654762D01*
X164809524Y-43559524D01*
X164761905Y-43464286D01*
X164714286Y-43273810D01*
X164714286Y-43130952D01*
X164761905Y-42940476D01*
X164809524Y-42845238D01*
X164904762Y-42750000D01*
X165047620Y-42702381D01*
X165142858Y-42702381D01*
X165285715Y-42750000D01*
X165333334Y-42797619D01*
X166285715Y-43702381D02*
X165714286Y-43702381D01*
X166000000Y-43702381D02*
X166000000Y-42702381D01*
X165904762Y-42845238D01*
X165809524Y-42940476D01*
X165714286Y-42988095D01*
X239007143Y-81566666D02*
X239054762Y-81614285D01*
X239102381Y-81757142D01*
X239102381Y-81852380D01*
X239054762Y-81995238D01*
X238959524Y-82090476D01*
X238864286Y-82138095D01*
X238673810Y-82185714D01*
X238530952Y-82185714D01*
X238340476Y-82138095D01*
X238245238Y-82090476D01*
X238150000Y-81995238D01*
X238102381Y-81852380D01*
X238102381Y-81757142D01*
X238150000Y-81614285D01*
X238197619Y-81566666D01*
X238197619Y-81185714D02*
X238150000Y-81138095D01*
X238102381Y-81042857D01*
X238102381Y-80804761D01*
X238150000Y-80709523D01*
X238197619Y-80661904D01*
X238292857Y-80614285D01*
X238388095Y-80614285D01*
X238530952Y-80661904D01*
X239102381Y-81233333D01*
X239102381Y-80614285D01*
X172333334Y-84607143D02*
X172285715Y-84654762D01*
X172142858Y-84702381D01*
X172047620Y-84702381D01*
X171904762Y-84654762D01*
X171809524Y-84559524D01*
X171761905Y-84464286D01*
X171714286Y-84273810D01*
X171714286Y-84130952D01*
X171761905Y-83940476D01*
X171809524Y-83845238D01*
X171904762Y-83750000D01*
X172047620Y-83702381D01*
X172142858Y-83702381D01*
X172285715Y-83750000D01*
X172333334Y-83797619D01*
X173190477Y-84035714D02*
X173190477Y-84702381D01*
X172952381Y-83654762D02*
X172714286Y-84369048D01*
X173333334Y-84369048D01*
X215107143Y-87166666D02*
X215154762Y-87214285D01*
X215202381Y-87357142D01*
X215202381Y-87452380D01*
X215154762Y-87595238D01*
X215059524Y-87690476D01*
X214964286Y-87738095D01*
X214773810Y-87785714D01*
X214630952Y-87785714D01*
X214440476Y-87738095D01*
X214345238Y-87690476D01*
X214250000Y-87595238D01*
X214202381Y-87452380D01*
X214202381Y-87357142D01*
X214250000Y-87214285D01*
X214297619Y-87166666D01*
X214202381Y-86261904D02*
X214202381Y-86738095D01*
X214678571Y-86785714D01*
X214630952Y-86738095D01*
X214583333Y-86642857D01*
X214583333Y-86404761D01*
X214630952Y-86309523D01*
X214678571Y-86261904D01*
X214773810Y-86214285D01*
X215011905Y-86214285D01*
X215107143Y-86261904D01*
X215154762Y-86309523D01*
X215202381Y-86404761D01*
X215202381Y-86642857D01*
X215154762Y-86738095D01*
X215107143Y-86785714D01*
X179738095Y-81252381D02*
X179738095Y-82061905D01*
X179785714Y-82157143D01*
X179833333Y-82204762D01*
X179928571Y-82252381D01*
X180119048Y-82252381D01*
X180214286Y-82204762D01*
X180261905Y-82157143D01*
X180309524Y-82061905D01*
X180309524Y-81252381D01*
X180738095Y-81347619D02*
X180785714Y-81300000D01*
X180880952Y-81252381D01*
X181119048Y-81252381D01*
X181214286Y-81300000D01*
X181261905Y-81347619D01*
X181309524Y-81442857D01*
X181309524Y-81538095D01*
X181261905Y-81680952D01*
X180690476Y-82252381D01*
X181309524Y-82252381D01*
X174852381Y-89809524D02*
X175852381Y-89142857D01*
X174852381Y-89142857D02*
X175852381Y-89809524D01*
X174947619Y-88809524D02*
X174900000Y-88761905D01*
X174852381Y-88666667D01*
X174852381Y-88428571D01*
X174900000Y-88333333D01*
X174947619Y-88285714D01*
X175042857Y-88238095D01*
X175138095Y-88238095D01*
X175280952Y-88285714D01*
X175852381Y-88857143D01*
X175852381Y-88238095D01*
X185052381Y-89559524D02*
X186052381Y-88892857D01*
X185052381Y-88892857D02*
X186052381Y-89559524D01*
X186052381Y-87988095D02*
X186052381Y-88559524D01*
X186052381Y-88273810D02*
X185052381Y-88273810D01*
X185195238Y-88369048D01*
X185290476Y-88464286D01*
X185338095Y-88559524D01*
X216261905Y-22928571D02*
X216404762Y-22976190D01*
X216452381Y-23023810D01*
X216500000Y-23119048D01*
X216500000Y-23261905D01*
X216452381Y-23357143D01*
X216404762Y-23404762D01*
X216309524Y-23452381D01*
X215928571Y-23452381D01*
X215928571Y-22452381D01*
X216261905Y-22452381D01*
X216357143Y-22500000D01*
X216404762Y-22547619D01*
X216452381Y-22642857D01*
X216452381Y-22738095D01*
X216404762Y-22833333D01*
X216357143Y-22880952D01*
X216261905Y-22928571D01*
X215928571Y-22928571D01*
X216880952Y-23166667D02*
X217357143Y-23166667D01*
X216785714Y-23452381D02*
X217119047Y-22452381D01*
X217452381Y-23452381D01*
X217642857Y-22452381D02*
X218214286Y-22452381D01*
X217928571Y-23452381D02*
X217928571Y-22452381D01*
X218404762Y-22452381D02*
X218976191Y-22452381D01*
X218690476Y-23452381D02*
X218690476Y-22452381D01*
X219309524Y-23071429D02*
X220071429Y-23071429D01*
X219690477Y-23452381D02*
X219690477Y-22690476D01*
X214238095Y-104152381D02*
X214238095Y-104961905D01*
X214285714Y-105057143D01*
X214333333Y-105104762D01*
X214428571Y-105152381D01*
X214619048Y-105152381D01*
X214714286Y-105104762D01*
X214761905Y-105057143D01*
X214809524Y-104961905D01*
X214809524Y-104152381D01*
X215190476Y-104152381D02*
X215809524Y-104152381D01*
X215476190Y-104533333D01*
X215619048Y-104533333D01*
X215714286Y-104580952D01*
X215761905Y-104628571D01*
X215809524Y-104723810D01*
X215809524Y-104961905D01*
X215761905Y-105057143D01*
X215714286Y-105104762D01*
X215619048Y-105152381D01*
X215333333Y-105152381D01*
X215238095Y-105104762D01*
X215190476Y-105057143D01*
X212633334Y-92207143D02*
X212585715Y-92254762D01*
X212442858Y-92302381D01*
X212347620Y-92302381D01*
X212204762Y-92254762D01*
X212109524Y-92159524D01*
X212061905Y-92064286D01*
X212014286Y-91873810D01*
X212014286Y-91730952D01*
X212061905Y-91540476D01*
X212109524Y-91445238D01*
X212204762Y-91350000D01*
X212347620Y-91302381D01*
X212442858Y-91302381D01*
X212585715Y-91350000D01*
X212633334Y-91397619D01*
X213490477Y-91302381D02*
X213300000Y-91302381D01*
X213204762Y-91350000D01*
X213157143Y-91397619D01*
X213061905Y-91540476D01*
X213014286Y-91730952D01*
X213014286Y-92111905D01*
X213061905Y-92207143D01*
X213109524Y-92254762D01*
X213204762Y-92302381D01*
X213395239Y-92302381D01*
X213490477Y-92254762D01*
X213538096Y-92207143D01*
X213585715Y-92111905D01*
X213585715Y-91873810D01*
X213538096Y-91778571D01*
X213490477Y-91730952D01*
X213395239Y-91683333D01*
X213204762Y-91683333D01*
X213109524Y-91730952D01*
X213061905Y-91778571D01*
X213014286Y-91873810D01*
X180472381Y-48929523D02*
X181186667Y-48929523D01*
X181329524Y-48977143D01*
X181424762Y-49072381D01*
X181472381Y-49215238D01*
X181472381Y-49310476D01*
X181472381Y-47929523D02*
X181472381Y-48500952D01*
X181472381Y-48215238D02*
X180472381Y-48215238D01*
X180615238Y-48310476D01*
X180710476Y-48405714D01*
X180758095Y-48500952D01*
X181472381Y-46977142D02*
X181472381Y-47548571D01*
X181472381Y-47262857D02*
X180472381Y-47262857D01*
X180615238Y-47358095D01*
X180710476Y-47453333D01*
X180758095Y-47548571D01*
X203332381Y-48929523D02*
X204046667Y-48929523D01*
X204189524Y-48977143D01*
X204284762Y-49072381D01*
X204332381Y-49215238D01*
X204332381Y-49310476D01*
X204332381Y-47929523D02*
X204332381Y-48500952D01*
X204332381Y-48215238D02*
X203332381Y-48215238D01*
X203475238Y-48310476D01*
X203570476Y-48405714D01*
X203618095Y-48500952D01*
X203427619Y-47548571D02*
X203380000Y-47500952D01*
X203332381Y-47405714D01*
X203332381Y-47167618D01*
X203380000Y-47072380D01*
X203427619Y-47024761D01*
X203522857Y-46977142D01*
X203618095Y-46977142D01*
X203760952Y-47024761D01*
X204332381Y-47596190D01*
X204332381Y-46977142D01*
X222001905Y-102402381D02*
X222001905Y-101402381D01*
X222382858Y-101402381D01*
X222478096Y-101450000D01*
X222525715Y-101497619D01*
X222573334Y-101592857D01*
X222573334Y-101735714D01*
X222525715Y-101830952D01*
X222478096Y-101878571D01*
X222382858Y-101926190D01*
X222001905Y-101926190D01*
X223144762Y-101830952D02*
X223049524Y-101783333D01*
X223001905Y-101735714D01*
X222954286Y-101640476D01*
X222954286Y-101592857D01*
X223001905Y-101497619D01*
X223049524Y-101450000D01*
X223144762Y-101402381D01*
X223335239Y-101402381D01*
X223430477Y-101450000D01*
X223478096Y-101497619D01*
X223525715Y-101592857D01*
X223525715Y-101640476D01*
X223478096Y-101735714D01*
X223430477Y-101783333D01*
X223335239Y-101830952D01*
X223144762Y-101830952D01*
X223049524Y-101878571D01*
X223001905Y-101926190D01*
X222954286Y-102021429D01*
X222954286Y-102211905D01*
X223001905Y-102307143D01*
X223049524Y-102354762D01*
X223144762Y-102402381D01*
X223335239Y-102402381D01*
X223430477Y-102354762D01*
X223478096Y-102307143D01*
X223525715Y-102211905D01*
X223525715Y-102021429D01*
X223478096Y-101926190D01*
X223430477Y-101878571D01*
X223335239Y-101830952D01*
X225936667Y-85122381D02*
X225603333Y-84646190D01*
X225365238Y-85122381D02*
X225365238Y-84122381D01*
X225746191Y-84122381D01*
X225841429Y-84170000D01*
X225889048Y-84217619D01*
X225936667Y-84312857D01*
X225936667Y-84455714D01*
X225889048Y-84550952D01*
X225841429Y-84598571D01*
X225746191Y-84646190D01*
X225365238Y-84646190D01*
X226365238Y-84598571D02*
X226698572Y-84598571D01*
X226841429Y-85122381D02*
X226365238Y-85122381D01*
X226365238Y-84122381D01*
X226841429Y-84122381D01*
X227603334Y-84598571D02*
X227270000Y-84598571D01*
X227270000Y-85122381D02*
X227270000Y-84122381D01*
X227746191Y-84122381D01*
X228270000Y-84122381D02*
X228270000Y-84360476D01*
X228031905Y-84265238D02*
X228270000Y-84360476D01*
X228508096Y-84265238D01*
X228127143Y-84550952D02*
X228270000Y-84360476D01*
X228412858Y-84550952D01*
X229031905Y-84122381D02*
X229031905Y-84360476D01*
X228793810Y-84265238D02*
X229031905Y-84360476D01*
X229270001Y-84265238D01*
X228889048Y-84550952D02*
X229031905Y-84360476D01*
X229174763Y-84550952D01*
X190692381Y-46608333D02*
X191406667Y-46608333D01*
X191549524Y-46655953D01*
X191644762Y-46751191D01*
X191692381Y-46894048D01*
X191692381Y-46989286D01*
X190692381Y-46227381D02*
X190692381Y-45560714D01*
X191692381Y-45989286D01*
M02*
