M48
;DRILL file {KiCad no-vcs-found-3ad3869~61~ubuntu16.04.1} date Mon Feb 12 14:20:28 2018
;FORMAT={-:-/ absolute / inch / decimal}
FMAT,2
INCH,TZ
T1C0.0157
T2C0.0394
T3C0.1811
%
G90
G05
M72
T1
X6.6142Y-3.5039
X6.748Y-3.1811
X6.9291Y-3.8583
X7.2409Y-3.0031
X7.2913Y-3.6142
X7.3819Y-4.0748
X7.4409Y-3.7402
X7.4567Y-2.685
X7.6299Y-3.0315
X7.6299Y-3.0787
X7.6378Y-4.0748
X7.752Y-3.5472
X7.7559Y-3.7165
X7.8937Y-3.7441
X7.8976Y-4.0709
X7.9654Y-2.9811
X7.9843Y-2.2756
X8.0866Y-4.0709
X8.1496Y-3.0945
X8.2677Y-3.9606
X8.4449Y-3.563
X8.4964Y-3.4807
X8.9173Y-3.1299
T2
X7.6185Y-1.9945
X7.7185Y-1.9945
X7.8185Y-1.9945
X7.9185Y-1.9945
X8.0185Y-1.9945
X6.4748Y-2.6969
X6.5748Y-2.6969
X6.6748Y-2.6969
X9.0929Y-2.5787
X9.1929Y-2.5787
X9.2929Y-2.5787
X9.0929Y-2.7165
X9.1929Y-2.7165
X9.2929Y-2.7165
X6.4748Y-2.2835
X6.5748Y-2.2835
X6.6748Y-2.2835
X7.1409Y-3.0906
X7.2409Y-3.0906
X7.3409Y-3.0906
X7.4409Y-3.0906
X6.4748Y-2.1457
X6.5748Y-2.1457
X6.6748Y-2.1457
X8.8583Y-1.2205
X9.0929Y-2.1654
X9.1929Y-2.1654
X9.2929Y-2.1654
X7.7921Y-3.8764
X7.7921Y-3.9764
X7.8921Y-3.8764
X7.8921Y-3.9764
X7.9921Y-3.8764
X7.9921Y-3.9764
X8.0921Y-3.8764
X8.0921Y-3.9764
X8.1921Y-3.8764
X8.1921Y-3.9764
X9.0929Y-2.3031
X9.1929Y-2.3031
X9.2929Y-2.3031
X9.0929Y-2.9921
X9.1929Y-2.9921
X9.2929Y-2.9921
X8.7693Y-3.222
X8.7693Y-3.322
X8.7693Y-3.422
X8.7693Y-3.522
X8.7693Y-3.622
X8.7693Y-3.722
X8.7693Y-3.822
X8.7693Y-3.922
X6.4748Y-2.4213
X6.5748Y-2.4213
X6.6748Y-2.4213
X8.1185Y-1.8945
X8.2185Y-1.8945
X8.3185Y-1.8945
X8.4185Y-1.8945
X6.4748Y-2.9724
X6.5748Y-2.9724
X6.6748Y-2.9724
X8.8583Y-2.0079
X8.874Y-3.4252
X8.874Y-3.5252
X8.874Y-3.6252
X8.874Y-3.7252
X8.974Y-3.4252
X8.974Y-3.5252
X8.974Y-3.6252
X8.974Y-3.7252
X6.8898Y-2.0079
X9.0929Y-2.4409
X9.1929Y-2.4409
X9.2929Y-2.4409
X7.2185Y-1.8945
X7.3185Y-1.8945
X7.4185Y-1.8945
X7.5185Y-1.8945
X6.4748Y-2.5591
X6.5748Y-2.5591
X6.6748Y-2.5591
X6.4748Y-2.8346
X6.5748Y-2.8346
X6.6748Y-2.8346
X9.0929Y-2.0276
X9.1929Y-2.0276
X9.2929Y-2.0276
X6.4748Y-2.0079
X6.5748Y-2.0079
X6.6748Y-2.0079
X9.0929Y-2.8543
X9.1929Y-2.8543
X9.2929Y-2.8543
X6.8898Y-1.2205
T3
X8.937Y-1.4774
X8.937Y-1.751
T0
M30
