M48
;DRILL file {KiCad no-vcs-found-3ad3869~61~ubuntu16.04.1} date Thu Feb 15 12:37:49 2018
;FORMAT={-:-/ absolute / inch / decimal}
FMAT,2
INCH,TZ
T1C0.0236
T2C0.0394
T3C0.1811
%
G90
G05
M72
T1
X6.6181Y-3.5039
X6.7441Y-3.1811
X6.9783Y-3.8504
X7.2402Y-3.0157
X7.3031Y-3.6063
X7.374Y-4.0669
X7.4528Y-2.685
X7.4646Y-3.748
X7.6102Y-3.0551
X7.748Y-3.7087
X7.752Y-3.5472
X7.8937Y-3.7441
X7.8937Y-4.0669
X7.9654Y-2.9811
X7.9882Y-2.2677
X7.9921Y-4.0669
X8.1811Y-3.122
X8.4964Y-3.4807
X8.8425Y-3.2717
T2
X6.4748Y-2.4213
X6.5748Y-2.4213
X6.6748Y-2.4213
X9.0929Y-2.9921
X9.1929Y-2.9921
X9.2929Y-2.9921
X9.0929Y-2.8543
X9.1929Y-2.8543
X9.2929Y-2.8543
X6.4748Y-2.2835
X6.5748Y-2.2835
X6.6748Y-2.2835
X7.7921Y-3.8764
X7.7921Y-3.9764
X7.8921Y-3.8764
X7.8921Y-3.9764
X7.9921Y-3.8764
X7.9921Y-3.9764
X8.0921Y-3.8764
X8.0921Y-3.9764
X8.1921Y-3.8764
X8.1921Y-3.9764
X6.4748Y-2.9724
X6.5748Y-2.9724
X6.6748Y-2.9724
X8.8583Y-2.0079
X9.0929Y-2.1654
X9.1929Y-2.1654
X9.2929Y-2.1654
X7.6185Y-1.9945
X7.7185Y-1.9945
X7.8185Y-1.9945
X7.9185Y-1.9945
X8.0185Y-1.9945
X8.8583Y-1.2205
X6.4748Y-2.0079
X6.5748Y-2.0079
X6.6748Y-2.0079
X9.0929Y-2.3031
X9.1929Y-2.3031
X9.2929Y-2.3031
X8.7693Y-3.222
X8.7693Y-3.322
X8.7693Y-3.422
X8.7693Y-3.522
X8.7693Y-3.622
X8.7693Y-3.722
X8.7693Y-3.822
X8.7693Y-3.922
X9.0929Y-2.4409
X9.1929Y-2.4409
X9.2929Y-2.4409
X9.0929Y-2.5787
X9.1929Y-2.5787
X9.2929Y-2.5787
X9.0929Y-2.0276
X9.1929Y-2.0276
X9.2929Y-2.0276
X6.4748Y-2.1457
X6.5748Y-2.1457
X6.6748Y-2.1457
X6.8898Y-2.0079
X7.1409Y-3.0906
X7.2409Y-3.0906
X7.3409Y-3.0906
X7.4409Y-3.0906
X6.4748Y-2.6969
X6.5748Y-2.6969
X6.6748Y-2.6969
X6.8898Y-1.2205
X9.0929Y-2.7165
X9.1929Y-2.7165
X9.2929Y-2.7165
X6.4748Y-2.8346
X6.5748Y-2.8346
X6.6748Y-2.8346
X8.1185Y-1.8945
X8.2185Y-1.8945
X8.3185Y-1.8945
X8.4185Y-1.8945
X8.874Y-3.4252
X8.874Y-3.5252
X8.874Y-3.6252
X8.874Y-3.7252
X8.974Y-3.4252
X8.974Y-3.5252
X8.974Y-3.6252
X8.974Y-3.7252
X6.4748Y-2.5591
X6.5748Y-2.5591
X6.6748Y-2.5591
X7.2185Y-1.8945
X7.3185Y-1.8945
X7.4185Y-1.8945
X7.5185Y-1.8945
T3
X8.937Y-1.4774
X8.937Y-1.751
T0
M30
