%TF.GenerationSoftware,KiCad,Pcbnew,4.0.7*%
%TF.CreationDate,2018-01-17T20:37:36+02:00*%
%TF.ProjectId,BrainDamage,427261696E44616D6167652E6B696361,rev?*%
%TF.FileFunction,Legend,Top*%
%FSLAX46Y46*%
G04 Gerber Fmt 4.6, Leading zero omitted, Abs format (unit mm)*
G04 Created by KiCad (PCBNEW 4.0.7) date 01/17/18 20:37:36*
%MOMM*%
%LPD*%
G01*
G04 APERTURE LIST*
%ADD10C,0.100000*%
%ADD11C,0.200000*%
%ADD12C,0.300000*%
%ADD13C,0.150000*%
%ADD14C,0.120000*%
%ADD15R,1.700000X1.700000*%
%ADD16O,1.700000X1.700000*%
%ADD17R,1.600000X0.550000*%
%ADD18R,0.550000X1.600000*%
%ADD19R,1.300000X1.500000*%
%ADD20R,1.100000X0.400000*%
%ADD21R,1.800000X1.100000*%
%ADD22R,1.500000X1.300000*%
%ADD23R,1.000000X1.000000*%
%ADD24R,4.000000X4.000000*%
%ADD25R,0.970000X1.270000*%
%ADD26R,4.800000X1.750000*%
%ADD27R,1.270000X0.970000*%
G04 APERTURE END LIST*
D10*
D11*
X176500000Y-69500000D02*
X176500000Y-105500000D01*
X176500000Y-105500000D02*
X194500000Y-105500000D01*
X194500000Y-105500000D02*
X194500000Y-69500000D01*
X194500000Y-69500000D02*
X176500000Y-69500000D01*
D12*
X184035715Y-103392857D02*
X183535715Y-103392857D01*
X183535715Y-104178571D02*
X183535715Y-102678571D01*
X184250001Y-102678571D01*
X184607143Y-102678571D02*
X185464286Y-102678571D01*
X185035715Y-104178571D02*
X185035715Y-102678571D01*
X185964286Y-104178571D02*
X185964286Y-102678571D01*
X186321429Y-102678571D01*
X186535714Y-102750000D01*
X186678572Y-102892857D01*
X186750000Y-103035714D01*
X186821429Y-103321429D01*
X186821429Y-103535714D01*
X186750000Y-103821429D01*
X186678572Y-103964286D01*
X186535714Y-104107143D01*
X186321429Y-104178571D01*
X185964286Y-104178571D01*
X187464286Y-104178571D02*
X187464286Y-102678571D01*
D11*
X200500000Y-33000000D02*
G75*
G03X200500000Y-33000000I-500000J0D01*
G01*
X178500000Y-43500000D02*
X221500000Y-43500000D01*
X178500000Y-22500000D02*
X178500000Y-43500000D01*
X221500000Y-22500000D02*
X178500000Y-22500000D01*
X221500000Y-43500000D02*
X221500000Y-22500000D01*
D13*
X196375000Y-74375000D02*
X196375000Y-74600000D01*
X203625000Y-74375000D02*
X203625000Y-74700000D01*
X203625000Y-81625000D02*
X203625000Y-81300000D01*
X196375000Y-81625000D02*
X196375000Y-81300000D01*
X196375000Y-74375000D02*
X196700000Y-74375000D01*
X196375000Y-81625000D02*
X196700000Y-81625000D01*
X203625000Y-81625000D02*
X203300000Y-81625000D01*
X203625000Y-74375000D02*
X203300000Y-74375000D01*
X196375000Y-74600000D02*
X194950000Y-74600000D01*
D14*
X192910000Y-72440000D02*
X180090000Y-72440000D01*
X180090000Y-72440000D02*
X180090000Y-75100000D01*
X180090000Y-75100000D02*
X192910000Y-75100000D01*
X192910000Y-75100000D02*
X192910000Y-72440000D01*
X191960000Y-75100000D02*
X191960000Y-81100000D01*
X191960000Y-81100000D02*
X191200000Y-81100000D01*
X191200000Y-81100000D02*
X191200000Y-75100000D01*
X191900000Y-75100000D02*
X191900000Y-81100000D01*
X191780000Y-75100000D02*
X191780000Y-81100000D01*
X191660000Y-75100000D02*
X191660000Y-81100000D01*
X191540000Y-75100000D02*
X191540000Y-81100000D01*
X191420000Y-75100000D02*
X191420000Y-81100000D01*
X191300000Y-75100000D02*
X191300000Y-81100000D01*
X191960000Y-72110000D02*
X191960000Y-72440000D01*
X191200000Y-72110000D02*
X191200000Y-72440000D01*
X190310000Y-72440000D02*
X190310000Y-75100000D01*
X189420000Y-75100000D02*
X189420000Y-81100000D01*
X189420000Y-81100000D02*
X188660000Y-81100000D01*
X188660000Y-81100000D02*
X188660000Y-75100000D01*
X189420000Y-72042929D02*
X189420000Y-72440000D01*
X188660000Y-72042929D02*
X188660000Y-72440000D01*
X187770000Y-72440000D02*
X187770000Y-75100000D01*
X186880000Y-75100000D02*
X186880000Y-81100000D01*
X186880000Y-81100000D02*
X186120000Y-81100000D01*
X186120000Y-81100000D02*
X186120000Y-75100000D01*
X186880000Y-72042929D02*
X186880000Y-72440000D01*
X186120000Y-72042929D02*
X186120000Y-72440000D01*
X185230000Y-72440000D02*
X185230000Y-75100000D01*
X184340000Y-75100000D02*
X184340000Y-81100000D01*
X184340000Y-81100000D02*
X183580000Y-81100000D01*
X183580000Y-81100000D02*
X183580000Y-75100000D01*
X184340000Y-72042929D02*
X184340000Y-72440000D01*
X183580000Y-72042929D02*
X183580000Y-72440000D01*
X182690000Y-72440000D02*
X182690000Y-75100000D01*
X181800000Y-75100000D02*
X181800000Y-81100000D01*
X181800000Y-81100000D02*
X181040000Y-81100000D01*
X181040000Y-81100000D02*
X181040000Y-75100000D01*
X181800000Y-72042929D02*
X181800000Y-72440000D01*
X181040000Y-72042929D02*
X181040000Y-72440000D01*
X191580000Y-69730000D02*
X192850000Y-69730000D01*
X192850000Y-69730000D02*
X192850000Y-71000000D01*
X192880000Y-66250000D02*
X192880000Y-67450000D01*
X191120000Y-67450000D02*
X191120000Y-66250000D01*
D13*
X202325000Y-68250000D02*
X203400000Y-68250000D01*
X202325000Y-58525000D02*
X197675000Y-58525000D01*
X202325000Y-68475000D02*
X197675000Y-68475000D01*
X202325000Y-58525000D02*
X202325000Y-58850000D01*
X197675000Y-58525000D02*
X197675000Y-58850000D01*
X197675000Y-68475000D02*
X197675000Y-68150000D01*
X202325000Y-68475000D02*
X202325000Y-68250000D01*
D14*
X198550000Y-92850000D02*
X198100000Y-92400000D01*
X197300000Y-91150000D02*
X197300000Y-89150000D01*
X198100000Y-87900000D02*
X198550000Y-87450000D01*
X198550000Y-87450000D02*
X201450000Y-87450000D01*
X201450000Y-87450000D02*
X201900000Y-87900000D01*
X202700000Y-89150000D02*
X202700000Y-91150000D01*
X201900000Y-92400000D02*
X201450000Y-92850000D01*
X201450000Y-92850000D02*
X198550000Y-92850000D01*
X226750000Y-87200000D02*
X228250000Y-87200000D01*
X226750000Y-87200000D02*
X226750000Y-84000000D01*
X228250000Y-84000000D02*
X228250000Y-87200000D01*
X230880000Y-84400000D02*
X230880000Y-85600000D01*
X229120000Y-85600000D02*
X229120000Y-84400000D01*
X209300000Y-90500000D02*
X209300000Y-92000000D01*
X209300000Y-90500000D02*
X212500000Y-90500000D01*
X212500000Y-92000000D02*
X209300000Y-92000000D01*
X207850000Y-87120000D02*
X209050000Y-87120000D01*
X209050000Y-88880000D02*
X207850000Y-88880000D01*
X199800000Y-85800000D02*
X201200000Y-85800000D01*
X201200000Y-85800000D02*
X201200000Y-87200000D01*
X201200000Y-87200000D02*
X199800000Y-87200000D01*
X199800000Y-87200000D02*
X199800000Y-85800000D01*
X198800000Y-84300000D02*
X200200000Y-84300000D01*
X200200000Y-84300000D02*
X200200000Y-85700000D01*
X200200000Y-85700000D02*
X198800000Y-85700000D01*
X198800000Y-85700000D02*
X198800000Y-84300000D01*
X197800000Y-85800000D02*
X199200000Y-85800000D01*
X199200000Y-85800000D02*
X199200000Y-87200000D01*
X199200000Y-87200000D02*
X197800000Y-87200000D01*
X197800000Y-87200000D02*
X197800000Y-85800000D01*
X196800000Y-84300000D02*
X198200000Y-84300000D01*
X198200000Y-84300000D02*
X198200000Y-85700000D01*
X198200000Y-85700000D02*
X196800000Y-85700000D01*
X196800000Y-85700000D02*
X196800000Y-84300000D01*
X200800000Y-84300000D02*
X202200000Y-84300000D01*
X202200000Y-84300000D02*
X202200000Y-85700000D01*
X202200000Y-85700000D02*
X200800000Y-85700000D01*
X200800000Y-85700000D02*
X200800000Y-84300000D01*
X195800000Y-85800000D02*
X197200000Y-85800000D01*
X197200000Y-85800000D02*
X197200000Y-87200000D01*
X197200000Y-87200000D02*
X195800000Y-87200000D01*
X195800000Y-87200000D02*
X195800000Y-85800000D01*
X183200000Y-27200000D02*
X178800000Y-27200000D01*
X178800000Y-27200000D02*
X178800000Y-22800000D01*
X178800000Y-22800000D02*
X183200000Y-22800000D01*
X183200000Y-22800000D02*
X183200000Y-27200000D01*
X183200000Y-43200000D02*
X178800000Y-43200000D01*
X178800000Y-43200000D02*
X178800000Y-38800000D01*
X178800000Y-38800000D02*
X183200000Y-38800000D01*
X183200000Y-38800000D02*
X183200000Y-43200000D01*
X221200000Y-43200000D02*
X216800000Y-43200000D01*
X216800000Y-43200000D02*
X216800000Y-38800000D01*
X216800000Y-38800000D02*
X221200000Y-38800000D01*
X221200000Y-38800000D02*
X221200000Y-43200000D01*
X221200000Y-27200000D02*
X216800000Y-27200000D01*
X216800000Y-27200000D02*
X216800000Y-22800000D01*
X216800000Y-22800000D02*
X221200000Y-22800000D01*
X221200000Y-22800000D02*
X221200000Y-27200000D01*
X185590000Y-66390000D02*
X188130000Y-66390000D01*
X188130000Y-64610000D02*
X185590000Y-64610000D01*
X188130000Y-64610000D02*
X188130000Y-66390000D01*
X185590000Y-66390000D02*
X185590000Y-64610000D01*
X202750000Y-69370000D02*
X203950000Y-69370000D01*
X203950000Y-71130000D02*
X202750000Y-71130000D01*
X188250000Y-68880000D02*
X187050000Y-68880000D01*
X187050000Y-67120000D02*
X188250000Y-67120000D01*
X169400000Y-88825000D02*
X174600000Y-88825000D01*
X174600000Y-88825000D02*
X174600000Y-80175000D01*
X195110000Y-50730000D02*
X195110000Y-53270000D01*
X196890000Y-53270000D02*
X196890000Y-50730000D01*
X196890000Y-53270000D02*
X195110000Y-53270000D01*
X195110000Y-50730000D02*
X196890000Y-50730000D01*
X197110000Y-50730000D02*
X197110000Y-53270000D01*
X198890000Y-53270000D02*
X198890000Y-50730000D01*
X198890000Y-53270000D02*
X197110000Y-53270000D01*
X197110000Y-50730000D02*
X198890000Y-50730000D01*
X199110000Y-50730000D02*
X199110000Y-53270000D01*
X200890000Y-53270000D02*
X200890000Y-50730000D01*
X200890000Y-53270000D02*
X199110000Y-53270000D01*
X199110000Y-50730000D02*
X200890000Y-50730000D01*
X201110000Y-50730000D02*
X201110000Y-53270000D01*
X202890000Y-53270000D02*
X202890000Y-50730000D01*
X202890000Y-53270000D02*
X201110000Y-53270000D01*
X201110000Y-50730000D02*
X202890000Y-50730000D01*
X203110000Y-50730000D02*
X203110000Y-53270000D01*
X204890000Y-53270000D02*
X204890000Y-50730000D01*
X204890000Y-53270000D02*
X203110000Y-53270000D01*
X203110000Y-50730000D02*
X204890000Y-50730000D01*
X159100000Y-63880000D02*
X157900000Y-63880000D01*
X157900000Y-62120000D02*
X159100000Y-62120000D01*
X171600000Y-77380000D02*
X170400000Y-77380000D01*
X170400000Y-75620000D02*
X171600000Y-75620000D01*
X159100000Y-65880000D02*
X157900000Y-65880000D01*
X157900000Y-64120000D02*
X159100000Y-64120000D01*
X167380000Y-77400000D02*
X167380000Y-78600000D01*
X165620000Y-78600000D02*
X165620000Y-77400000D01*
D13*
X199023810Y-72402381D02*
X199023810Y-71402381D01*
X200071429Y-72307143D02*
X200023810Y-72354762D01*
X199880953Y-72402381D01*
X199785715Y-72402381D01*
X199642857Y-72354762D01*
X199547619Y-72259524D01*
X199500000Y-72164286D01*
X199452381Y-71973810D01*
X199452381Y-71830952D01*
X199500000Y-71640476D01*
X199547619Y-71545238D01*
X199642857Y-71450000D01*
X199785715Y-71402381D01*
X199880953Y-71402381D01*
X200023810Y-71450000D01*
X200071429Y-71497619D01*
X201023810Y-72402381D02*
X200452381Y-72402381D01*
X200738095Y-72402381D02*
X200738095Y-71402381D01*
X200642857Y-71545238D01*
X200547619Y-71640476D01*
X200452381Y-71688095D01*
X193302381Y-75718333D02*
X194016667Y-75718333D01*
X194159524Y-75765953D01*
X194254762Y-75861191D01*
X194302381Y-76004048D01*
X194302381Y-76099286D01*
X193302381Y-75337381D02*
X193302381Y-74670714D01*
X194302381Y-75099286D01*
X190752381Y-67016666D02*
X190276190Y-67350000D01*
X190752381Y-67588095D02*
X189752381Y-67588095D01*
X189752381Y-67207142D01*
X189800000Y-67111904D01*
X189847619Y-67064285D01*
X189942857Y-67016666D01*
X190085714Y-67016666D01*
X190180952Y-67064285D01*
X190228571Y-67111904D01*
X190276190Y-67207142D01*
X190276190Y-67588095D01*
X190085714Y-66159523D02*
X190752381Y-66159523D01*
X189704762Y-66397619D02*
X190419048Y-66635714D01*
X190419048Y-66016666D01*
X199238095Y-68852381D02*
X199238095Y-69661905D01*
X199285714Y-69757143D01*
X199333333Y-69804762D01*
X199428571Y-69852381D01*
X199619048Y-69852381D01*
X199714286Y-69804762D01*
X199761905Y-69757143D01*
X199809524Y-69661905D01*
X199809524Y-68852381D01*
X200809524Y-69852381D02*
X200238095Y-69852381D01*
X200523809Y-69852381D02*
X200523809Y-68852381D01*
X200428571Y-68995238D01*
X200333333Y-69090476D01*
X200238095Y-69138095D01*
X198666667Y-94154762D02*
X198809524Y-94202381D01*
X199047620Y-94202381D01*
X199142858Y-94154762D01*
X199190477Y-94107143D01*
X199238096Y-94011905D01*
X199238096Y-93916667D01*
X199190477Y-93821429D01*
X199142858Y-93773810D01*
X199047620Y-93726190D01*
X198857143Y-93678571D01*
X198761905Y-93630952D01*
X198714286Y-93583333D01*
X198666667Y-93488095D01*
X198666667Y-93392857D01*
X198714286Y-93297619D01*
X198761905Y-93250000D01*
X198857143Y-93202381D01*
X199095239Y-93202381D01*
X199238096Y-93250000D01*
X199571429Y-93202381D02*
X199809524Y-94202381D01*
X200000001Y-93488095D01*
X200190477Y-94202381D01*
X200428572Y-93202381D01*
X201333334Y-94202381D02*
X200761905Y-94202381D01*
X201047619Y-94202381D02*
X201047619Y-93202381D01*
X200952381Y-93345238D01*
X200857143Y-93440476D01*
X200761905Y-93488095D01*
X226252381Y-85738095D02*
X225252381Y-85738095D01*
X225252381Y-85500000D01*
X225300000Y-85357142D01*
X225395238Y-85261904D01*
X225490476Y-85214285D01*
X225680952Y-85166666D01*
X225823810Y-85166666D01*
X226014286Y-85214285D01*
X226109524Y-85261904D01*
X226204762Y-85357142D01*
X226252381Y-85500000D01*
X226252381Y-85738095D01*
X226252381Y-84214285D02*
X226252381Y-84785714D01*
X226252381Y-84500000D02*
X225252381Y-84500000D01*
X225395238Y-84595238D01*
X225490476Y-84690476D01*
X225538095Y-84785714D01*
X232152381Y-85166666D02*
X231676190Y-85500000D01*
X232152381Y-85738095D02*
X231152381Y-85738095D01*
X231152381Y-85357142D01*
X231200000Y-85261904D01*
X231247619Y-85214285D01*
X231342857Y-85166666D01*
X231485714Y-85166666D01*
X231580952Y-85214285D01*
X231628571Y-85261904D01*
X231676190Y-85357142D01*
X231676190Y-85738095D01*
X232152381Y-84214285D02*
X232152381Y-84785714D01*
X232152381Y-84500000D02*
X231152381Y-84500000D01*
X231295238Y-84595238D01*
X231390476Y-84690476D01*
X231438095Y-84785714D01*
X210761905Y-90002381D02*
X210761905Y-89002381D01*
X211000000Y-89002381D01*
X211142858Y-89050000D01*
X211238096Y-89145238D01*
X211285715Y-89240476D01*
X211333334Y-89430952D01*
X211333334Y-89573810D01*
X211285715Y-89764286D01*
X211238096Y-89859524D01*
X211142858Y-89954762D01*
X211000000Y-90002381D01*
X210761905Y-90002381D01*
X211714286Y-89097619D02*
X211761905Y-89050000D01*
X211857143Y-89002381D01*
X212095239Y-89002381D01*
X212190477Y-89050000D01*
X212238096Y-89097619D01*
X212285715Y-89192857D01*
X212285715Y-89288095D01*
X212238096Y-89430952D01*
X211666667Y-90002381D01*
X212285715Y-90002381D01*
X208283334Y-86752381D02*
X207950000Y-86276190D01*
X207711905Y-86752381D02*
X207711905Y-85752381D01*
X208092858Y-85752381D01*
X208188096Y-85800000D01*
X208235715Y-85847619D01*
X208283334Y-85942857D01*
X208283334Y-86085714D01*
X208235715Y-86180952D01*
X208188096Y-86228571D01*
X208092858Y-86276190D01*
X207711905Y-86276190D01*
X208664286Y-85847619D02*
X208711905Y-85800000D01*
X208807143Y-85752381D01*
X209045239Y-85752381D01*
X209140477Y-85800000D01*
X209188096Y-85847619D01*
X209235715Y-85942857D01*
X209235715Y-86038095D01*
X209188096Y-86180952D01*
X208616667Y-86752381D01*
X209235715Y-86752381D01*
X179666667Y-28350381D02*
X179333333Y-27874190D01*
X179095238Y-28350381D02*
X179095238Y-27350381D01*
X179476191Y-27350381D01*
X179571429Y-27398000D01*
X179619048Y-27445619D01*
X179666667Y-27540857D01*
X179666667Y-27683714D01*
X179619048Y-27778952D01*
X179571429Y-27826571D01*
X179476191Y-27874190D01*
X179095238Y-27874190D01*
X180095238Y-27826571D02*
X180428572Y-27826571D01*
X180571429Y-28350381D02*
X180095238Y-28350381D01*
X180095238Y-27350381D01*
X180571429Y-27350381D01*
X181333334Y-27826571D02*
X181000000Y-27826571D01*
X181000000Y-28350381D02*
X181000000Y-27350381D01*
X181476191Y-27350381D01*
X182000000Y-27350381D02*
X182000000Y-27588476D01*
X181761905Y-27493238D02*
X182000000Y-27588476D01*
X182238096Y-27493238D01*
X181857143Y-27778952D02*
X182000000Y-27588476D01*
X182142858Y-27778952D01*
X182761905Y-27350381D02*
X182761905Y-27588476D01*
X182523810Y-27493238D02*
X182761905Y-27588476D01*
X183000001Y-27493238D01*
X182619048Y-27778952D02*
X182761905Y-27588476D01*
X182904763Y-27778952D01*
X186526667Y-63172381D02*
X186526667Y-63886667D01*
X186479047Y-64029524D01*
X186383809Y-64124762D01*
X186240952Y-64172381D01*
X186145714Y-64172381D01*
X187431429Y-63172381D02*
X187240952Y-63172381D01*
X187145714Y-63220000D01*
X187098095Y-63267619D01*
X187002857Y-63410476D01*
X186955238Y-63600952D01*
X186955238Y-63981905D01*
X187002857Y-64077143D01*
X187050476Y-64124762D01*
X187145714Y-64172381D01*
X187336191Y-64172381D01*
X187431429Y-64124762D01*
X187479048Y-64077143D01*
X187526667Y-63981905D01*
X187526667Y-63743810D01*
X187479048Y-63648571D01*
X187431429Y-63600952D01*
X187336191Y-63553333D01*
X187145714Y-63553333D01*
X187050476Y-63600952D01*
X187002857Y-63648571D01*
X186955238Y-63743810D01*
X203183334Y-72402381D02*
X202850000Y-71926190D01*
X202611905Y-72402381D02*
X202611905Y-71402381D01*
X202992858Y-71402381D01*
X203088096Y-71450000D01*
X203135715Y-71497619D01*
X203183334Y-71592857D01*
X203183334Y-71735714D01*
X203135715Y-71830952D01*
X203088096Y-71878571D01*
X202992858Y-71926190D01*
X202611905Y-71926190D01*
X203516667Y-71402381D02*
X204135715Y-71402381D01*
X203802381Y-71783333D01*
X203945239Y-71783333D01*
X204040477Y-71830952D01*
X204088096Y-71878571D01*
X204135715Y-71973810D01*
X204135715Y-72211905D01*
X204088096Y-72307143D01*
X204040477Y-72354762D01*
X203945239Y-72402381D01*
X203659524Y-72402381D01*
X203564286Y-72354762D01*
X203516667Y-72307143D01*
X187483334Y-66752381D02*
X187150000Y-66276190D01*
X186911905Y-66752381D02*
X186911905Y-65752381D01*
X187292858Y-65752381D01*
X187388096Y-65800000D01*
X187435715Y-65847619D01*
X187483334Y-65942857D01*
X187483334Y-66085714D01*
X187435715Y-66180952D01*
X187388096Y-66228571D01*
X187292858Y-66276190D01*
X186911905Y-66276190D01*
X188388096Y-65752381D02*
X187911905Y-65752381D01*
X187864286Y-66228571D01*
X187911905Y-66180952D01*
X188007143Y-66133333D01*
X188245239Y-66133333D01*
X188340477Y-66180952D01*
X188388096Y-66228571D01*
X188435715Y-66323810D01*
X188435715Y-66561905D01*
X188388096Y-66657143D01*
X188340477Y-66704762D01*
X188245239Y-66752381D01*
X188007143Y-66752381D01*
X187911905Y-66704762D01*
X187864286Y-66657143D01*
X168052381Y-85309524D02*
X169052381Y-84642857D01*
X168052381Y-84642857D02*
X169052381Y-85309524D01*
X169052381Y-83738095D02*
X169052381Y-84309524D01*
X169052381Y-84023810D02*
X168052381Y-84023810D01*
X168195238Y-84119048D01*
X168290476Y-84214286D01*
X168338095Y-84309524D01*
X197232381Y-52333333D02*
X197946667Y-52333333D01*
X198089524Y-52380953D01*
X198184762Y-52476191D01*
X198232381Y-52619048D01*
X198232381Y-52714286D01*
X198232381Y-51333333D02*
X198232381Y-51904762D01*
X198232381Y-51619048D02*
X197232381Y-51619048D01*
X197375238Y-51714286D01*
X197470476Y-51809524D01*
X197518095Y-51904762D01*
X199232381Y-52333333D02*
X199946667Y-52333333D01*
X200089524Y-52380953D01*
X200184762Y-52476191D01*
X200232381Y-52619048D01*
X200232381Y-52714286D01*
X199327619Y-51904762D02*
X199280000Y-51857143D01*
X199232381Y-51761905D01*
X199232381Y-51523809D01*
X199280000Y-51428571D01*
X199327619Y-51380952D01*
X199422857Y-51333333D01*
X199518095Y-51333333D01*
X199660952Y-51380952D01*
X200232381Y-51952381D01*
X200232381Y-51333333D01*
X201232381Y-52333333D02*
X201946667Y-52333333D01*
X202089524Y-52380953D01*
X202184762Y-52476191D01*
X202232381Y-52619048D01*
X202232381Y-52714286D01*
X201232381Y-51952381D02*
X201232381Y-51333333D01*
X201613333Y-51666667D01*
X201613333Y-51523809D01*
X201660952Y-51428571D01*
X201708571Y-51380952D01*
X201803810Y-51333333D01*
X202041905Y-51333333D01*
X202137143Y-51380952D01*
X202184762Y-51428571D01*
X202232381Y-51523809D01*
X202232381Y-51809524D01*
X202184762Y-51904762D01*
X202137143Y-51952381D01*
X203232381Y-52333333D02*
X203946667Y-52333333D01*
X204089524Y-52380953D01*
X204184762Y-52476191D01*
X204232381Y-52619048D01*
X204232381Y-52714286D01*
X203565714Y-51428571D02*
X204232381Y-51428571D01*
X203184762Y-51666667D02*
X203899048Y-51904762D01*
X203899048Y-51285714D01*
X205232381Y-52333333D02*
X205946667Y-52333333D01*
X206089524Y-52380953D01*
X206184762Y-52476191D01*
X206232381Y-52619048D01*
X206232381Y-52714286D01*
X205232381Y-51380952D02*
X205232381Y-51857143D01*
X205708571Y-51904762D01*
X205660952Y-51857143D01*
X205613333Y-51761905D01*
X205613333Y-51523809D01*
X205660952Y-51428571D01*
X205708571Y-51380952D01*
X205803810Y-51333333D01*
X206041905Y-51333333D01*
X206137143Y-51380952D01*
X206184762Y-51428571D01*
X206232381Y-51523809D01*
X206232381Y-51761905D01*
X206184762Y-51857143D01*
X206137143Y-51904762D01*
X158333334Y-61752381D02*
X158000000Y-61276190D01*
X157761905Y-61752381D02*
X157761905Y-60752381D01*
X158142858Y-60752381D01*
X158238096Y-60800000D01*
X158285715Y-60847619D01*
X158333334Y-60942857D01*
X158333334Y-61085714D01*
X158285715Y-61180952D01*
X158238096Y-61228571D01*
X158142858Y-61276190D01*
X157761905Y-61276190D01*
X159190477Y-60752381D02*
X159000000Y-60752381D01*
X158904762Y-60800000D01*
X158857143Y-60847619D01*
X158761905Y-60990476D01*
X158714286Y-61180952D01*
X158714286Y-61561905D01*
X158761905Y-61657143D01*
X158809524Y-61704762D01*
X158904762Y-61752381D01*
X159095239Y-61752381D01*
X159190477Y-61704762D01*
X159238096Y-61657143D01*
X159285715Y-61561905D01*
X159285715Y-61323810D01*
X159238096Y-61228571D01*
X159190477Y-61180952D01*
X159095239Y-61133333D01*
X158904762Y-61133333D01*
X158809524Y-61180952D01*
X158761905Y-61228571D01*
X158714286Y-61323810D01*
X170833334Y-75252381D02*
X170500000Y-74776190D01*
X170261905Y-75252381D02*
X170261905Y-74252381D01*
X170642858Y-74252381D01*
X170738096Y-74300000D01*
X170785715Y-74347619D01*
X170833334Y-74442857D01*
X170833334Y-74585714D01*
X170785715Y-74680952D01*
X170738096Y-74728571D01*
X170642858Y-74776190D01*
X170261905Y-74776190D01*
X171166667Y-74252381D02*
X171833334Y-74252381D01*
X171404762Y-75252381D01*
X158333334Y-63752381D02*
X158000000Y-63276190D01*
X157761905Y-63752381D02*
X157761905Y-62752381D01*
X158142858Y-62752381D01*
X158238096Y-62800000D01*
X158285715Y-62847619D01*
X158333334Y-62942857D01*
X158333334Y-63085714D01*
X158285715Y-63180952D01*
X158238096Y-63228571D01*
X158142858Y-63276190D01*
X157761905Y-63276190D01*
X158904762Y-63180952D02*
X158809524Y-63133333D01*
X158761905Y-63085714D01*
X158714286Y-62990476D01*
X158714286Y-62942857D01*
X158761905Y-62847619D01*
X158809524Y-62800000D01*
X158904762Y-62752381D01*
X159095239Y-62752381D01*
X159190477Y-62800000D01*
X159238096Y-62847619D01*
X159285715Y-62942857D01*
X159285715Y-62990476D01*
X159238096Y-63085714D01*
X159190477Y-63133333D01*
X159095239Y-63180952D01*
X158904762Y-63180952D01*
X158809524Y-63228571D01*
X158761905Y-63276190D01*
X158714286Y-63371429D01*
X158714286Y-63561905D01*
X158761905Y-63657143D01*
X158809524Y-63704762D01*
X158904762Y-63752381D01*
X159095239Y-63752381D01*
X159190477Y-63704762D01*
X159238096Y-63657143D01*
X159285715Y-63561905D01*
X159285715Y-63371429D01*
X159238096Y-63276190D01*
X159190477Y-63228571D01*
X159095239Y-63180952D01*
X165252381Y-78166666D02*
X164776190Y-78500000D01*
X165252381Y-78738095D02*
X164252381Y-78738095D01*
X164252381Y-78357142D01*
X164300000Y-78261904D01*
X164347619Y-78214285D01*
X164442857Y-78166666D01*
X164585714Y-78166666D01*
X164680952Y-78214285D01*
X164728571Y-78261904D01*
X164776190Y-78357142D01*
X164776190Y-78738095D01*
X165252381Y-77690476D02*
X165252381Y-77500000D01*
X165204762Y-77404761D01*
X165157143Y-77357142D01*
X165014286Y-77261904D01*
X164823810Y-77214285D01*
X164442857Y-77214285D01*
X164347619Y-77261904D01*
X164300000Y-77309523D01*
X164252381Y-77404761D01*
X164252381Y-77595238D01*
X164300000Y-77690476D01*
X164347619Y-77738095D01*
X164442857Y-77785714D01*
X164680952Y-77785714D01*
X164776190Y-77738095D01*
X164823810Y-77690476D01*
X164871429Y-77595238D01*
X164871429Y-77404761D01*
X164823810Y-77309523D01*
X164776190Y-77261904D01*
X164680952Y-77214285D01*
%LPC*%
D15*
X197920000Y-98460000D03*
D16*
X197920000Y-101000000D03*
X200460000Y-98460000D03*
X200460000Y-101000000D03*
X203000000Y-98460000D03*
X203000000Y-101000000D03*
X205540000Y-98460000D03*
X205540000Y-101000000D03*
X208080000Y-98460000D03*
X208080000Y-101000000D03*
D17*
X195750000Y-75200000D03*
X195750000Y-76000000D03*
X195750000Y-76800000D03*
X195750000Y-77600000D03*
X195750000Y-78400000D03*
X195750000Y-79200000D03*
X195750000Y-80000000D03*
X195750000Y-80800000D03*
D18*
X197200000Y-82250000D03*
X198000000Y-82250000D03*
X198800000Y-82250000D03*
X199600000Y-82250000D03*
X200400000Y-82250000D03*
X201200000Y-82250000D03*
X202000000Y-82250000D03*
X202800000Y-82250000D03*
D17*
X204250000Y-80800000D03*
X204250000Y-80000000D03*
X204250000Y-79200000D03*
X204250000Y-78400000D03*
X204250000Y-77600000D03*
X204250000Y-76800000D03*
X204250000Y-76000000D03*
X204250000Y-75200000D03*
D18*
X202800000Y-73750000D03*
X202000000Y-73750000D03*
X201200000Y-73750000D03*
X200400000Y-73750000D03*
X199600000Y-73750000D03*
X198800000Y-73750000D03*
X198000000Y-73750000D03*
X197200000Y-73750000D03*
D15*
X227460000Y-57500000D03*
D16*
X230000000Y-57500000D03*
X232540000Y-57500000D03*
D15*
X227460000Y-64500000D03*
D16*
X230000000Y-64500000D03*
X232540000Y-64500000D03*
D15*
X227460000Y-61000000D03*
D16*
X230000000Y-61000000D03*
X232540000Y-61000000D03*
D15*
X227460000Y-68000000D03*
D16*
X230000000Y-68000000D03*
X232540000Y-68000000D03*
D15*
X227460000Y-54000000D03*
D16*
X230000000Y-54000000D03*
X232540000Y-54000000D03*
D15*
X227460000Y-71500000D03*
D16*
X230000000Y-71500000D03*
X232540000Y-71500000D03*
D15*
X227460000Y-50500000D03*
D16*
X230000000Y-50500000D03*
X232540000Y-50500000D03*
D15*
X227460000Y-47000000D03*
D16*
X230000000Y-47000000D03*
X232540000Y-47000000D03*
D15*
X191580000Y-71000000D03*
D16*
X189040000Y-71000000D03*
X186500000Y-71000000D03*
X183960000Y-71000000D03*
X181420000Y-71000000D03*
D19*
X192000000Y-68200000D03*
X192000000Y-65500000D03*
D20*
X197150000Y-67725000D03*
X197150000Y-67075000D03*
X197150000Y-66425000D03*
X197150000Y-65775000D03*
X197150000Y-65125000D03*
X197150000Y-64475000D03*
X197150000Y-63825000D03*
X197150000Y-63175000D03*
X197150000Y-62525000D03*
X197150000Y-61875000D03*
X197150000Y-61225000D03*
X197150000Y-60575000D03*
X197150000Y-59925000D03*
X197150000Y-59275000D03*
X202850000Y-59275000D03*
X202850000Y-59925000D03*
X202850000Y-60575000D03*
X202850000Y-61225000D03*
X202850000Y-61875000D03*
X202850000Y-62525000D03*
X202850000Y-63175000D03*
X202850000Y-63825000D03*
X202850000Y-64475000D03*
X202850000Y-65125000D03*
X202850000Y-65775000D03*
X202850000Y-66425000D03*
X202850000Y-67075000D03*
X202850000Y-67725000D03*
D21*
X196900000Y-88300000D03*
X203100000Y-88300000D03*
X196900000Y-92000000D03*
X203100000Y-92000000D03*
D19*
X227500000Y-83650000D03*
X227500000Y-86350000D03*
X230000000Y-86350000D03*
X230000000Y-83650000D03*
D22*
X212850000Y-91250000D03*
X210150000Y-91250000D03*
X209800000Y-88000000D03*
X207100000Y-88000000D03*
D23*
X200500000Y-86500000D03*
X199500000Y-85000000D03*
X198500000Y-86500000D03*
X197500000Y-85000000D03*
X201500000Y-85000000D03*
X196500000Y-86500000D03*
D24*
X181000000Y-25000000D03*
X181000000Y-41000000D03*
X219000000Y-41000000D03*
X219000000Y-25000000D03*
D25*
X186220000Y-65500000D03*
X187500000Y-65500000D03*
D22*
X204700000Y-70250000D03*
X202000000Y-70250000D03*
X186300000Y-68000000D03*
X189000000Y-68000000D03*
D26*
X172000000Y-87750000D03*
X172000000Y-84500000D03*
X172000000Y-81250000D03*
D27*
X196000000Y-51360000D03*
X196000000Y-52640000D03*
X198000000Y-51360000D03*
X198000000Y-52640000D03*
X200000000Y-51360000D03*
X200000000Y-52640000D03*
X202000000Y-51360000D03*
X202000000Y-52640000D03*
X204000000Y-51360000D03*
X204000000Y-52640000D03*
D15*
X172540000Y-71500000D03*
D16*
X170000000Y-71500000D03*
X167460000Y-71500000D03*
D15*
X222740000Y-94250000D03*
D16*
X222740000Y-91710000D03*
X222740000Y-89170000D03*
X222740000Y-86630000D03*
X222740000Y-84090000D03*
X222740000Y-81550000D03*
X222740000Y-79010000D03*
X222740000Y-76470000D03*
D15*
X172540000Y-68000000D03*
D16*
X170000000Y-68000000D03*
X167460000Y-68000000D03*
D15*
X172540000Y-64500000D03*
D16*
X170000000Y-64500000D03*
X167460000Y-64500000D03*
D15*
X172540000Y-61000000D03*
D16*
X170000000Y-61000000D03*
X167460000Y-61000000D03*
D15*
X172540000Y-57500000D03*
D16*
X170000000Y-57500000D03*
X167460000Y-57500000D03*
D15*
X172540000Y-54000000D03*
D16*
X170000000Y-54000000D03*
X167460000Y-54000000D03*
D15*
X172540000Y-50500000D03*
D16*
X170000000Y-50500000D03*
X167460000Y-50500000D03*
D15*
X172540000Y-47000000D03*
D16*
X170000000Y-47000000D03*
X167460000Y-47000000D03*
D15*
X163000000Y-63920000D03*
D16*
X163000000Y-66460000D03*
X163000000Y-69000000D03*
X163000000Y-71540000D03*
D22*
X157150000Y-63000000D03*
X159850000Y-63000000D03*
X169650000Y-76500000D03*
X172350000Y-76500000D03*
X157150000Y-65000000D03*
X159850000Y-65000000D03*
D19*
X166500000Y-79350000D03*
X166500000Y-76650000D03*
M02*
