G04 #@! TF.GenerationSoftware,KiCad,Pcbnew,no-vcs-found-3ad3869~61~ubuntu16.04.1*
G04 #@! TF.CreationDate,2018-02-15T12:37:46+02:00*
G04 #@! TF.ProjectId,BrainDamage,427261696E44616D6167652E6B696361,rev?*
G04 #@! TF.SameCoordinates,Original*
G04 #@! TF.FileFunction,Copper,L1,Top,Signal*
G04 #@! TF.FilePolarity,Positive*
%FSLAX46Y46*%
G04 Gerber Fmt 4.6, Leading zero omitted, Abs format (unit mm)*
G04 Created by KiCad (PCBNEW no-vcs-found-3ad3869~61~ubuntu16.04.1) date Thu Feb 15 12:37:46 2018*
%MOMM*%
%LPD*%
G01*
G04 APERTURE LIST*
%ADD10C,0.300000*%
%ADD11R,3.000000X3.000000*%
%ADD12R,1.000000X1.000000*%
%ADD13R,3.500000X3.500000*%
%ADD14R,1.700000X1.700000*%
%ADD15O,1.700000X1.700000*%
%ADD16R,0.500000X2.300000*%
%ADD17R,2.000000X2.500000*%
%ADD18R,1.500000X1.250000*%
%ADD19R,1.600000X0.550000*%
%ADD20R,0.550000X1.600000*%
%ADD21R,1.100000X0.400000*%
%ADD22R,1.300000X1.500000*%
%ADD23R,1.800000X1.100000*%
%ADD24R,1.500000X1.300000*%
%ADD25R,0.970000X1.270000*%
%ADD26R,1.270000X0.970000*%
%ADD27R,2.300000X1.600000*%
%ADD28R,1.600000X2.300000*%
%ADD29R,1.250000X1.500000*%
%ADD30R,1.300000X0.800000*%
%ADD31R,4.800000X1.750000*%
%ADD32C,6.500000*%
%ADD33R,2.000000X3.800000*%
%ADD34R,2.000000X1.500000*%
%ADD35C,1.000000*%
%ADD36C,1.000000*%
%ADD37C,0.250000*%
%ADD38C,0.254000*%
G04 APERTURE END LIST*
D10*
X215964285Y-75250000D02*
X216678571Y-75250000D01*
X215821428Y-75678571D02*
X216321428Y-74178571D01*
X216821428Y-75678571D01*
X217964285Y-75678571D02*
X217964285Y-74178571D01*
X217964285Y-75607142D02*
X217821428Y-75678571D01*
X217535714Y-75678571D01*
X217392857Y-75607142D01*
X217321428Y-75535714D01*
X217250000Y-75392857D01*
X217250000Y-74964285D01*
X217321428Y-74821428D01*
X217392857Y-74750000D01*
X217535714Y-74678571D01*
X217821428Y-74678571D01*
X217964285Y-74750000D01*
X219321428Y-75678571D02*
X219321428Y-74178571D01*
X219321428Y-75607142D02*
X219178571Y-75678571D01*
X218892857Y-75678571D01*
X218750000Y-75607142D01*
X218678571Y-75535714D01*
X218607142Y-75392857D01*
X218607142Y-74964285D01*
X218678571Y-74821428D01*
X218750000Y-74750000D01*
X218892857Y-74678571D01*
X219178571Y-74678571D01*
X219321428Y-74750000D01*
X220035714Y-75678571D02*
X220035714Y-74678571D01*
X220035714Y-74964285D02*
X220107142Y-74821428D01*
X220178571Y-74750000D01*
X220321428Y-74678571D01*
X220464285Y-74678571D01*
X221535714Y-75607142D02*
X221392857Y-75678571D01*
X221107142Y-75678571D01*
X220964285Y-75607142D01*
X220892857Y-75464285D01*
X220892857Y-74892857D01*
X220964285Y-74750000D01*
X221107142Y-74678571D01*
X221392857Y-74678571D01*
X221535714Y-74750000D01*
X221607142Y-74892857D01*
X221607142Y-75035714D01*
X220892857Y-75178571D01*
X222178571Y-75607142D02*
X222321428Y-75678571D01*
X222607142Y-75678571D01*
X222750000Y-75607142D01*
X222821428Y-75464285D01*
X222821428Y-75392857D01*
X222750000Y-75250000D01*
X222607142Y-75178571D01*
X222392857Y-75178571D01*
X222250000Y-75107142D01*
X222178571Y-74964285D01*
X222178571Y-74892857D01*
X222250000Y-74750000D01*
X222392857Y-74678571D01*
X222607142Y-74678571D01*
X222750000Y-74750000D01*
X223392857Y-75607142D02*
X223535714Y-75678571D01*
X223821428Y-75678571D01*
X223964285Y-75607142D01*
X224035714Y-75464285D01*
X224035714Y-75392857D01*
X223964285Y-75250000D01*
X223821428Y-75178571D01*
X223607142Y-75178571D01*
X223464285Y-75107142D01*
X223392857Y-74964285D01*
X223392857Y-74892857D01*
X223464285Y-74750000D01*
X223607142Y-74678571D01*
X223821428Y-74678571D01*
X223964285Y-74750000D01*
D11*
X210000000Y-26000000D03*
D12*
X200500000Y-86500000D03*
X199500000Y-85000000D03*
X198500000Y-86500000D03*
X197500000Y-85000000D03*
X201500000Y-85000000D03*
X196500000Y-86500000D03*
D13*
X225000000Y-31000000D03*
X225000000Y-51000000D03*
X175000000Y-51000000D03*
X175000000Y-31000000D03*
D11*
X218000000Y-26000000D03*
D14*
X225400000Y-87000000D03*
D15*
X227940000Y-87000000D03*
X225400000Y-89540000D03*
X227940000Y-89540000D03*
X225400000Y-92080000D03*
X227940000Y-92080000D03*
X225400000Y-94620000D03*
X227940000Y-94620000D03*
D14*
X193510000Y-50660000D03*
D15*
X196050000Y-50660000D03*
X198590000Y-50660000D03*
X201130000Y-50660000D03*
X203670000Y-50660000D03*
D16*
X185700000Y-97700000D03*
X186500000Y-97700000D03*
X187300000Y-97700000D03*
X188100000Y-97700000D03*
X188900000Y-97700000D03*
D17*
X182850000Y-97800000D03*
X182850000Y-103300000D03*
X191750000Y-97800000D03*
X191750000Y-103300000D03*
D14*
X169540000Y-75500000D03*
D15*
X167000000Y-75500000D03*
X164460000Y-75500000D03*
D18*
X184500000Y-81000000D03*
X182000000Y-81000000D03*
D19*
X195750000Y-75200000D03*
X195750000Y-76000000D03*
X195750000Y-76800000D03*
X195750000Y-77600000D03*
X195750000Y-78400000D03*
X195750000Y-79200000D03*
X195750000Y-80000000D03*
X195750000Y-80800000D03*
D20*
X197200000Y-82250000D03*
X198000000Y-82250000D03*
X198800000Y-82250000D03*
X199600000Y-82250000D03*
X200400000Y-82250000D03*
X201200000Y-82250000D03*
X202000000Y-82250000D03*
X202800000Y-82250000D03*
D19*
X204250000Y-80800000D03*
X204250000Y-80000000D03*
X204250000Y-79200000D03*
X204250000Y-78400000D03*
X204250000Y-77600000D03*
X204250000Y-76800000D03*
X204250000Y-76000000D03*
X204250000Y-75200000D03*
D20*
X202800000Y-73750000D03*
X202000000Y-73750000D03*
X201200000Y-73750000D03*
X200400000Y-73750000D03*
X199600000Y-73750000D03*
X198800000Y-73750000D03*
X198000000Y-73750000D03*
X197200000Y-73750000D03*
D14*
X181380000Y-78500000D03*
D15*
X183920000Y-78500000D03*
X186460000Y-78500000D03*
X189000000Y-78500000D03*
D21*
X197150000Y-67725000D03*
X197150000Y-67075000D03*
X197150000Y-66425000D03*
X197150000Y-65775000D03*
X197150000Y-65125000D03*
X197150000Y-64475000D03*
X197150000Y-63825000D03*
X197150000Y-63175000D03*
X197150000Y-62525000D03*
X197150000Y-61875000D03*
X197150000Y-61225000D03*
X197150000Y-60575000D03*
X197150000Y-59925000D03*
X197150000Y-59275000D03*
X202850000Y-59275000D03*
X202850000Y-59925000D03*
X202850000Y-60575000D03*
X202850000Y-61225000D03*
X202850000Y-61875000D03*
X202850000Y-62525000D03*
X202850000Y-63175000D03*
X202850000Y-63825000D03*
X202850000Y-64475000D03*
X202850000Y-65125000D03*
X202850000Y-65775000D03*
X202850000Y-66425000D03*
X202850000Y-67075000D03*
X202850000Y-67725000D03*
D14*
X197920000Y-98460000D03*
D15*
X197920000Y-101000000D03*
X200460000Y-98460000D03*
X200460000Y-101000000D03*
X203000000Y-98460000D03*
X203000000Y-101000000D03*
X205540000Y-98460000D03*
X205540000Y-101000000D03*
X208080000Y-98460000D03*
X208080000Y-101000000D03*
D14*
X230960000Y-62000000D03*
D15*
X233500000Y-62000000D03*
X236040000Y-62000000D03*
D14*
X230960000Y-69000000D03*
D15*
X233500000Y-69000000D03*
X236040000Y-69000000D03*
D14*
X230960000Y-65500000D03*
D15*
X233500000Y-65500000D03*
X236040000Y-65500000D03*
D14*
X230960000Y-72500000D03*
D15*
X233500000Y-72500000D03*
X236040000Y-72500000D03*
D14*
X230960000Y-58500000D03*
D15*
X233500000Y-58500000D03*
X236040000Y-58500000D03*
D14*
X230960000Y-76000000D03*
D15*
X233500000Y-76000000D03*
X236040000Y-76000000D03*
D14*
X230960000Y-55000000D03*
D15*
X233500000Y-55000000D03*
X236040000Y-55000000D03*
D14*
X230960000Y-51500000D03*
D15*
X233500000Y-51500000D03*
X236040000Y-51500000D03*
D22*
X192000000Y-68200000D03*
X192000000Y-65500000D03*
D23*
X196900000Y-88300000D03*
X203100000Y-88300000D03*
X196900000Y-92000000D03*
X203100000Y-92000000D03*
D22*
X226500000Y-81150000D03*
X226500000Y-83850000D03*
X229000000Y-83850000D03*
X229000000Y-81150000D03*
D24*
X212850000Y-90800000D03*
X210150000Y-90800000D03*
X209800000Y-88000000D03*
X207100000Y-88000000D03*
D25*
X186220000Y-65500000D03*
X187500000Y-65500000D03*
D24*
X204700000Y-70500000D03*
X202000000Y-70500000D03*
X207400000Y-70500000D03*
X210100000Y-70500000D03*
D26*
X214000000Y-72640000D03*
X214000000Y-71360000D03*
X216000000Y-72640000D03*
X216000000Y-71360000D03*
X218000000Y-72640000D03*
X218000000Y-71360000D03*
X220000000Y-72640000D03*
X220000000Y-71360000D03*
X222000000Y-72640000D03*
X222000000Y-71360000D03*
D14*
X169540000Y-72000000D03*
D15*
X167000000Y-72000000D03*
X164460000Y-72000000D03*
D14*
X169540000Y-68500000D03*
D15*
X167000000Y-68500000D03*
X164460000Y-68500000D03*
D14*
X169540000Y-65000000D03*
D15*
X167000000Y-65000000D03*
X164460000Y-65000000D03*
D14*
X169540000Y-61500000D03*
D15*
X167000000Y-61500000D03*
X164460000Y-61500000D03*
D14*
X169540000Y-58000000D03*
D15*
X167000000Y-58000000D03*
X164460000Y-58000000D03*
D14*
X169540000Y-54500000D03*
D15*
X167000000Y-54500000D03*
X164460000Y-54500000D03*
D14*
X169540000Y-51000000D03*
D15*
X167000000Y-51000000D03*
X164460000Y-51000000D03*
D24*
X188800000Y-75500000D03*
X191500000Y-75500000D03*
X189700000Y-81500000D03*
X187000000Y-81500000D03*
D27*
X163150000Y-46500000D03*
X167850000Y-46500000D03*
D28*
X235400000Y-79050000D03*
X235400000Y-83750000D03*
D18*
X173750000Y-82500000D03*
X171250000Y-82500000D03*
D29*
X213000000Y-85750000D03*
X213000000Y-88250000D03*
D30*
X177350000Y-83550000D03*
X177350000Y-84830000D03*
X177350000Y-86090000D03*
X177350000Y-87360000D03*
X177350000Y-88640000D03*
X177350000Y-89910000D03*
X177350000Y-91170000D03*
X177350000Y-92450000D03*
X183650000Y-92450000D03*
X183650000Y-91170000D03*
X183650000Y-89910000D03*
X183650000Y-88640000D03*
X183650000Y-87360000D03*
X183650000Y-86090000D03*
X183650000Y-84830000D03*
X183650000Y-83550000D03*
D31*
X172000000Y-85750000D03*
X172000000Y-89000000D03*
X172000000Y-92250000D03*
X189000000Y-92000000D03*
X189000000Y-88750000D03*
X189000000Y-85500000D03*
D32*
X227000000Y-37525000D03*
X227000000Y-44475000D03*
D33*
X211850000Y-100200000D03*
D34*
X218150000Y-100200000D03*
X218150000Y-97900000D03*
X218150000Y-102500000D03*
D18*
X211550000Y-93600000D03*
X214050000Y-93600000D03*
D14*
X183350000Y-48120000D03*
D15*
X185890000Y-48120000D03*
X188430000Y-48120000D03*
X190970000Y-48120000D03*
D14*
X206210000Y-48120000D03*
D15*
X208750000Y-48120000D03*
X211290000Y-48120000D03*
X213830000Y-48120000D03*
D14*
X222740000Y-99620000D03*
D15*
X222740000Y-97080000D03*
X222740000Y-94540000D03*
X222740000Y-92000000D03*
X222740000Y-89460000D03*
X222740000Y-86920000D03*
X222740000Y-84380000D03*
X222740000Y-81840000D03*
D35*
X224600000Y-83100000D03*
X177250000Y-97800000D03*
X187300000Y-103300000D03*
X203000000Y-103300000D03*
X200500000Y-103300000D03*
X207800000Y-79300000D03*
X193300000Y-77600000D03*
X183900000Y-76600000D03*
X196800000Y-94200000D03*
X189600000Y-95200000D03*
X185500000Y-91600000D03*
X168100000Y-89000000D03*
X171300000Y-80800000D03*
X189300000Y-68200000D03*
X202900000Y-57600000D03*
X200500000Y-95100022D03*
X196900000Y-90100008D03*
X215809502Y-88409314D03*
X202320000Y-75720000D03*
D36*
X198000000Y-37000000D02*
X196000000Y-35000000D01*
X198000000Y-38000000D02*
X198000000Y-37000000D01*
X198000000Y-41000000D02*
X198000000Y-38000000D01*
X200000000Y-35000000D02*
X200000000Y-41000000D01*
X202000000Y-39000000D02*
X202000000Y-35000000D01*
X204000000Y-41000000D02*
X202000000Y-39000000D01*
D37*
X226500000Y-81150000D02*
X225350000Y-81150000D01*
X225350000Y-81150000D02*
X224600000Y-81900000D01*
X224600000Y-81900000D02*
X224600000Y-83100000D01*
X182850000Y-97800000D02*
X177250000Y-97800000D01*
X177300000Y-97800000D02*
X177250000Y-97800000D01*
X182850000Y-103300000D02*
X187300000Y-103300000D01*
X200460000Y-101000000D02*
X200460000Y-103260000D01*
X200460000Y-103260000D02*
X200500000Y-103300000D01*
X204250000Y-77600000D02*
X206100000Y-77600000D01*
X206100000Y-77600000D02*
X207800000Y-79300000D01*
X195750000Y-78400000D02*
X194100000Y-78400000D01*
X194100000Y-78400000D02*
X193300000Y-77600000D01*
X183920000Y-78500000D02*
X183920000Y-76620000D01*
X183920000Y-76620000D02*
X183900000Y-76600000D01*
X196900000Y-92000000D02*
X196900000Y-94100000D01*
X196900000Y-94100000D02*
X196800000Y-94200000D01*
X191750000Y-97800000D02*
X191750000Y-95850000D01*
X191100000Y-95200000D02*
X189600000Y-95200000D01*
X191750000Y-95850000D02*
X191100000Y-95200000D01*
X189000000Y-88750000D02*
X186050000Y-88750000D01*
X186050000Y-88750000D02*
X185500000Y-89300000D01*
X185500000Y-89300000D02*
X185500000Y-91600000D01*
X169350000Y-89000000D02*
X168100000Y-89000000D01*
X172000000Y-89000000D02*
X169350000Y-89000000D01*
X171250000Y-82500000D02*
X171250000Y-80850000D01*
X171250000Y-80850000D02*
X171300000Y-80800000D01*
X192000000Y-68200000D02*
X189300000Y-68200000D01*
X202850000Y-59275000D02*
X202850000Y-57650000D01*
X202850000Y-57650000D02*
X202900000Y-57600000D01*
X187300000Y-103300000D02*
X187500000Y-103500000D01*
X191750000Y-103300000D02*
X193800000Y-103300000D01*
X193800000Y-103300000D02*
X194000000Y-103500000D01*
X202850000Y-59275000D02*
X202850000Y-57850000D01*
X202850000Y-57850000D02*
X202800000Y-57800000D01*
X197150000Y-65775000D02*
X199225000Y-65775000D01*
X200000000Y-65000000D02*
X200000000Y-60000000D01*
X199225000Y-65775000D02*
X200000000Y-65000000D01*
X200000000Y-60000000D02*
X200725000Y-59275000D01*
X200725000Y-59275000D02*
X202850000Y-59275000D01*
X195750000Y-76800000D02*
X191700000Y-76800000D01*
X191700000Y-76800000D02*
X191500000Y-77000000D01*
X191500000Y-77000000D02*
X191500000Y-78000000D01*
X191500000Y-78000000D02*
X191900000Y-78400000D01*
X191900000Y-78400000D02*
X195750000Y-78400000D01*
X204250000Y-77600000D02*
X205300000Y-77600000D01*
X191580000Y-68620000D02*
X192000000Y-68200000D01*
X192080000Y-68280000D02*
X192000000Y-68200000D01*
X192000000Y-68200000D02*
X192900000Y-68200000D01*
X192900000Y-68200000D02*
X195325000Y-65775000D01*
X195325000Y-65775000D02*
X196350000Y-65775000D01*
X196350000Y-65775000D02*
X197150000Y-65775000D01*
X197150000Y-65775000D02*
X197150000Y-65799999D01*
X203450001Y-83082121D02*
X204951999Y-84584119D01*
X204951999Y-96058997D02*
X206854999Y-97961997D01*
X204951999Y-84584119D02*
X204951999Y-96058997D01*
X200500000Y-95100022D02*
X204824997Y-95100022D01*
X204824997Y-95100022D02*
X204999990Y-94925029D01*
X204999990Y-84632110D02*
X203450001Y-83082121D01*
X204999990Y-94925029D02*
X204999990Y-84632110D01*
X196900000Y-88300000D02*
X196900000Y-90100008D01*
X201396781Y-95500000D02*
X201396760Y-95500021D01*
X200899999Y-95500021D02*
X200500000Y-95100022D01*
X201396760Y-95500021D02*
X200899999Y-95500021D01*
X203000000Y-98500000D02*
X203000000Y-97100000D01*
X203000000Y-97100000D02*
X201400000Y-95500000D01*
X201400000Y-95500000D02*
X201396781Y-95500000D01*
X201396781Y-95500000D02*
X201396781Y-90081041D01*
X201396781Y-90081041D02*
X203123536Y-88354286D01*
X199600000Y-73750000D02*
X199600000Y-78369998D01*
X199600000Y-78369998D02*
X194346008Y-83623990D01*
X194346008Y-83623990D02*
X194346008Y-87346008D01*
X194346008Y-87346008D02*
X195300000Y-88300000D01*
X195300000Y-88300000D02*
X196900000Y-88300000D01*
X202000000Y-83500000D02*
X202500000Y-84000000D01*
X202500000Y-86683805D02*
X199985750Y-89198055D01*
X202500000Y-84000000D02*
X202500000Y-86683805D01*
X202000000Y-82250000D02*
X202000000Y-83500000D01*
X199985750Y-89198055D02*
X199985750Y-93314250D01*
X199985750Y-93314250D02*
X197920000Y-95380000D01*
X197920000Y-95380000D02*
X197920000Y-97400000D01*
X197920000Y-97400000D02*
X197920000Y-98500000D01*
X204250000Y-80800000D02*
X204725102Y-80800000D01*
X204725102Y-80800000D02*
X207100000Y-83174898D01*
X207100000Y-83174898D02*
X207100000Y-88000000D01*
X207100000Y-91500000D02*
X207100000Y-93600000D01*
X207244642Y-99725001D02*
X206019641Y-98500000D01*
X207100000Y-93600000D02*
X210000000Y-96500000D01*
X210000000Y-96500000D02*
X210000000Y-99000000D01*
X210000000Y-99000000D02*
X209274999Y-99725001D01*
X209274999Y-99725001D02*
X207244642Y-99725001D01*
X206019641Y-98500000D02*
X205540000Y-98500000D01*
X207100000Y-88000000D02*
X207100000Y-91500000D01*
X207100000Y-91500000D02*
X207100000Y-91994554D01*
X207050000Y-87950000D02*
X207100000Y-88000000D01*
X208080000Y-98500000D02*
X208080000Y-97297919D01*
X208080000Y-97297919D02*
X205500000Y-94717919D01*
X205500000Y-94717919D02*
X205500000Y-84425000D01*
X202800000Y-82250000D02*
X203325000Y-82250000D01*
X203325000Y-82250000D02*
X205500000Y-84425000D01*
X229000000Y-83850000D02*
X228100000Y-83850000D01*
X228100000Y-83850000D02*
X226500000Y-83850000D01*
X181600000Y-72400000D02*
X179000000Y-75000000D01*
X179500000Y-84840000D02*
X178250000Y-86090000D01*
X197700000Y-72400000D02*
X181600000Y-72400000D01*
X179500000Y-81292878D02*
X179500000Y-84840000D01*
X198000000Y-72700000D02*
X197700000Y-72400000D01*
X179000000Y-80792878D02*
X179500000Y-81292878D01*
X198000000Y-73750000D02*
X198000000Y-72700000D01*
X179000000Y-75000000D02*
X179000000Y-80792878D01*
X178250000Y-86090000D02*
X177350000Y-86090000D01*
X198800000Y-73750000D02*
X198800000Y-72400000D01*
X197900000Y-71500000D02*
X195500000Y-71500000D01*
X198800000Y-72400000D02*
X197900000Y-71500000D01*
X178800000Y-84280000D02*
X178800000Y-81700000D01*
X178800000Y-81700000D02*
X178000000Y-80900000D01*
X178250000Y-84830000D02*
X178800000Y-84280000D01*
X177350000Y-84830000D02*
X178250000Y-84830000D01*
X178000000Y-74500000D02*
X181000000Y-71500000D01*
X178000000Y-80900000D02*
X178000000Y-74500000D01*
X181000000Y-71500000D02*
X195500000Y-71500000D01*
X195500000Y-71500000D02*
X195250000Y-71500000D01*
X197150000Y-66425000D02*
X197950000Y-66425000D01*
X197950000Y-66425000D02*
X200025000Y-68500000D01*
X200025000Y-68500000D02*
X209500000Y-68500000D01*
X209500000Y-68500000D02*
X210100000Y-69100000D01*
X210100000Y-69100000D02*
X210100000Y-70250000D01*
X195415001Y-70165001D02*
X195500000Y-70250000D01*
X200400000Y-73750000D02*
X200400000Y-72900000D01*
X200400000Y-72900000D02*
X197750000Y-70250000D01*
X197750000Y-70250000D02*
X195500000Y-70250000D01*
X195500000Y-70250000D02*
X194750000Y-69500000D01*
X194750000Y-69500000D02*
X194750000Y-67500000D01*
X194750000Y-67500000D02*
X195825000Y-66425000D01*
X195825000Y-66425000D02*
X196350000Y-66425000D01*
X196350000Y-66425000D02*
X197150000Y-66425000D01*
X197150000Y-67075000D02*
X196175000Y-67075000D01*
X196175000Y-67075000D02*
X195559389Y-67690611D01*
X195559389Y-67690611D02*
X195559389Y-68987963D01*
X195559389Y-68987963D02*
X195971426Y-69400000D01*
X195971426Y-69400000D02*
X197900000Y-69400000D01*
X197900000Y-69400000D02*
X201200000Y-72700000D01*
X201200000Y-72700000D02*
X202000000Y-71900000D01*
X202000000Y-71900000D02*
X202000000Y-70250000D01*
X201200000Y-72700000D02*
X201200000Y-73750000D01*
X202850000Y-65775000D02*
X215525000Y-65775000D01*
X215525000Y-65775000D02*
X220000000Y-70250000D01*
X220000000Y-70250000D02*
X220000000Y-71360000D01*
X202850000Y-66425000D02*
X214175000Y-66425000D01*
X214175000Y-66425000D02*
X218000000Y-70250000D01*
X218000000Y-70250000D02*
X218000000Y-71360000D01*
X202850000Y-67075000D02*
X213075000Y-67075000D01*
X213075000Y-67075000D02*
X216000000Y-70000000D01*
X216000000Y-70000000D02*
X216000000Y-71360000D01*
X202850000Y-67725000D02*
X211725000Y-67725000D01*
X211725000Y-67725000D02*
X214000000Y-70000000D01*
X214000000Y-70000000D02*
X214000000Y-71360000D01*
X222740000Y-97080000D02*
X221580000Y-97080000D01*
X221580000Y-97080000D02*
X218000000Y-93500000D01*
X218000000Y-93500000D02*
X218000000Y-87707122D01*
X218000000Y-87707122D02*
X207092878Y-76800000D01*
X207092878Y-76800000D02*
X205300000Y-76800000D01*
X205300000Y-76800000D02*
X204250000Y-76800000D01*
X204250000Y-76800000D02*
X204800000Y-76800000D01*
X211300000Y-84550000D02*
X211300000Y-86100002D01*
X205950000Y-79200000D02*
X211300000Y-84550000D01*
X211300000Y-86100002D02*
X212199998Y-87000000D01*
X204250000Y-79200000D02*
X205950000Y-79200000D01*
X212199998Y-87000000D02*
X215800000Y-87000000D01*
X217200000Y-94200000D02*
X222620000Y-99620000D01*
X215800000Y-87000000D02*
X217200000Y-88400000D01*
X222620000Y-99620000D02*
X222740000Y-99620000D01*
X217200000Y-88400000D02*
X217200000Y-94200000D01*
X183500000Y-81000000D02*
X183500000Y-81500000D01*
X183500000Y-80620000D02*
X183500000Y-81000000D01*
X183500000Y-81000000D02*
X184500000Y-81000000D01*
X183500000Y-81500000D02*
X183500000Y-82750000D01*
X181380000Y-78500000D02*
X183500000Y-80620000D01*
X183500000Y-82750000D02*
X183650000Y-82900000D01*
X220200000Y-101000000D02*
X219400000Y-100200000D01*
X224000000Y-101000000D02*
X220200000Y-101000000D01*
X225400000Y-99600000D02*
X224000000Y-101000000D01*
X225400000Y-94620000D02*
X225400000Y-99600000D01*
X219400000Y-100200000D02*
X218150000Y-100200000D01*
X225400000Y-92080000D02*
X225400000Y-93282081D01*
X225400000Y-93282081D02*
X225400000Y-94620000D01*
X225400000Y-87000000D02*
X225400000Y-89540000D01*
X233350000Y-83750000D02*
X231600000Y-85500000D01*
X225400000Y-85900000D02*
X225400000Y-87000000D01*
X231600000Y-85500000D02*
X225800000Y-85500000D01*
X225800000Y-85500000D02*
X225400000Y-85900000D01*
D36*
X180000000Y-48120000D02*
X180000000Y-53700000D01*
X180000000Y-53700000D02*
X180400000Y-54100000D01*
X228200000Y-53100000D02*
X227200000Y-54100000D01*
X232650000Y-48800000D02*
X228950000Y-48800000D01*
X179400000Y-54100000D02*
X180400000Y-54100000D01*
X176100000Y-54100000D02*
X179400000Y-54100000D01*
X175000000Y-53000000D02*
X176100000Y-54100000D01*
X228950000Y-48800000D02*
X228200000Y-49550000D01*
X175000000Y-51000000D02*
X175000000Y-53000000D01*
X228200000Y-49550000D02*
X228200000Y-53100000D01*
X233500000Y-49650000D02*
X232650000Y-48800000D01*
X233500000Y-50500000D02*
X233500000Y-49650000D01*
X227200000Y-54100000D02*
X180400000Y-54100000D01*
D37*
X191600000Y-101400000D02*
X193265179Y-99734821D01*
X185700000Y-99400000D02*
X187700000Y-101400000D01*
X187700000Y-101400000D02*
X191600000Y-101400000D01*
X185700000Y-97700000D02*
X185700000Y-99400000D01*
X193265179Y-99734821D02*
X199500000Y-99734821D01*
D36*
X180000000Y-48120000D02*
X175130000Y-48120000D01*
X185890000Y-48120000D02*
X180000000Y-48120000D01*
X175130000Y-48120000D02*
X174750000Y-48500000D01*
X174750000Y-48500000D02*
X174000000Y-48500000D01*
X232650001Y-76849999D02*
X232650001Y-80000000D01*
D37*
X229000000Y-81150000D02*
X229000000Y-80150000D01*
D36*
X232650001Y-80000000D02*
X232650001Y-83050001D01*
D37*
X229000000Y-80150000D02*
X229150000Y-80000000D01*
X229150000Y-80000000D02*
X232650001Y-80000000D01*
X222740000Y-79260000D02*
X222740000Y-81840000D01*
X223500000Y-78500000D02*
X222740000Y-79260000D01*
X213000000Y-88250000D02*
X212125000Y-88250000D01*
X211500000Y-88875000D02*
X211500000Y-95500000D01*
X212125000Y-88250000D02*
X211500000Y-88875000D01*
X211500000Y-95500000D02*
X208500000Y-92500000D01*
X208500000Y-92500000D02*
X208500000Y-83402759D01*
X208500000Y-83402759D02*
X205097241Y-80000000D01*
D36*
X232650001Y-83050001D02*
X233350000Y-83750000D01*
X233350000Y-83750000D02*
X235400000Y-83750000D01*
X233500000Y-76000000D02*
X232650001Y-76849999D01*
D37*
X174000000Y-71750000D02*
X180250000Y-65500000D01*
X180250000Y-65500000D02*
X184000000Y-65500000D01*
X174000000Y-74750000D02*
X174000000Y-71750000D01*
X171250000Y-77500000D02*
X174000000Y-74750000D01*
X167797919Y-77500000D02*
X171250000Y-77500000D01*
X208750000Y-71225002D02*
X210024998Y-72500000D01*
X210024998Y-72500000D02*
X216024998Y-78500000D01*
X222000000Y-72640000D02*
X210164998Y-72640000D01*
X210164998Y-72640000D02*
X210024998Y-72500000D01*
X216274998Y-78500000D02*
X216500000Y-78500000D01*
X216500000Y-78500000D02*
X217000000Y-78500000D01*
X208750000Y-69750000D02*
X208750000Y-71225002D01*
X216024998Y-78500000D02*
X216500000Y-78500000D01*
X208250000Y-69250000D02*
X208750000Y-69750000D01*
X204250000Y-69250000D02*
X208250000Y-69250000D01*
X204700000Y-70500000D02*
X205700000Y-70500000D01*
X205700000Y-70500000D02*
X207400000Y-70500000D01*
X204700000Y-70250000D02*
X204700000Y-69700000D01*
X204700000Y-69700000D02*
X204250000Y-69250000D01*
X204250000Y-69250000D02*
X199475000Y-69250000D01*
X199475000Y-69250000D02*
X197950000Y-67725000D01*
X197950000Y-67725000D02*
X197150000Y-67725000D01*
X217000000Y-78500000D02*
X223500000Y-78500000D01*
X199225179Y-99734821D02*
X199500000Y-99734821D01*
X199500000Y-99734821D02*
X206212164Y-99734821D01*
D36*
X168000000Y-48500000D02*
X167850000Y-48350000D01*
X167850000Y-48350000D02*
X167850000Y-46500000D01*
X175000000Y-49500000D02*
X174000000Y-48500000D01*
X174000000Y-48500000D02*
X168000000Y-48500000D01*
X175000000Y-51000000D02*
X175000000Y-49500000D01*
D37*
X195750000Y-79200000D02*
X194300000Y-79200000D01*
X194300000Y-79200000D02*
X190600000Y-82900000D01*
X190600000Y-82900000D02*
X189750000Y-82900000D01*
X188100000Y-82900000D02*
X189750000Y-82900000D01*
X189750000Y-82900000D02*
X190400002Y-82900000D01*
X167000000Y-75500000D02*
X167000000Y-76702081D01*
X167000000Y-76702081D02*
X167797919Y-77500000D01*
D36*
X233500000Y-50297919D02*
X233500000Y-50500000D01*
X233500000Y-50500000D02*
X233500000Y-51500000D01*
X167000000Y-49500000D02*
X168000000Y-48500000D01*
X167000000Y-51000000D02*
X167000000Y-49500000D01*
X167000000Y-75500000D02*
X167000000Y-51000000D01*
D37*
X232500000Y-78500000D02*
X223500000Y-78500000D01*
X206854999Y-100377656D02*
X206854999Y-101854999D01*
X209654654Y-102500000D02*
X211500000Y-100654654D01*
X211500000Y-100654654D02*
X211500000Y-95500000D01*
X205097241Y-80000000D02*
X204250000Y-80000000D01*
X197920000Y-101040000D02*
X199225179Y-99734821D01*
X206212164Y-99734821D02*
X206854999Y-100377656D01*
X206854999Y-101854999D02*
X207500000Y-102500000D01*
X207500000Y-102500000D02*
X209654654Y-102500000D01*
X185725000Y-82900000D02*
X188100000Y-82900000D01*
X183650000Y-82900000D02*
X185725000Y-82900000D01*
X188500000Y-80000000D02*
X189000000Y-79500000D01*
X189000000Y-79500000D02*
X189000000Y-78500000D01*
X187500000Y-80000000D02*
X188500000Y-80000000D01*
X187000000Y-80500000D02*
X187500000Y-80000000D01*
X187000000Y-81500000D02*
X187000000Y-80500000D01*
X187125000Y-81500000D02*
X187250000Y-81500000D01*
X183650000Y-82900000D02*
X183650000Y-83550000D01*
X221890000Y-72750000D02*
X222000000Y-72640000D01*
X184000000Y-65500000D02*
X186220000Y-65500000D01*
D36*
X233500000Y-51500000D02*
X233500000Y-76000000D01*
D37*
X197500000Y-67725000D02*
X197150000Y-67725000D01*
X195750000Y-77600000D02*
X196791996Y-77600000D01*
X196791996Y-77600000D02*
X197154458Y-77962462D01*
X197154458Y-77962462D02*
X197154458Y-78845542D01*
X197154458Y-78845542D02*
X196800000Y-79200000D01*
X196800000Y-79200000D02*
X195750000Y-79200000D01*
X193000000Y-91000000D02*
X192000000Y-92000000D01*
X193000000Y-82600000D02*
X193000000Y-91000000D01*
X194800000Y-80800000D02*
X193000000Y-82600000D01*
X195750000Y-80800000D02*
X194800000Y-80800000D01*
X192000000Y-92000000D02*
X189000000Y-92000000D01*
X192000000Y-85150000D02*
X191650000Y-85500000D01*
X192000000Y-82600000D02*
X192000000Y-85150000D01*
X194600000Y-80000000D02*
X192000000Y-82600000D01*
X195750000Y-80000000D02*
X194600000Y-80000000D01*
X191650000Y-85500000D02*
X189000000Y-85500000D01*
X230960000Y-76000000D02*
X229860000Y-76000000D01*
X229860000Y-76000000D02*
X218335000Y-64475000D01*
X218335000Y-64475000D02*
X202850000Y-64475000D01*
X228500000Y-72500000D02*
X230960000Y-72500000D01*
X219825000Y-63825000D02*
X228500000Y-72500000D01*
X202850000Y-63825000D02*
X219825000Y-63825000D01*
X229860000Y-72500000D02*
X230960000Y-72500000D01*
X221675000Y-63175000D02*
X227500000Y-69000000D01*
X227500000Y-69000000D02*
X230960000Y-69000000D01*
X202850000Y-63175000D02*
X221675000Y-63175000D01*
X224025000Y-62525000D02*
X227000000Y-65500000D01*
X227000000Y-65500000D02*
X230960000Y-65500000D01*
X202850000Y-62525000D02*
X224025000Y-62525000D01*
X202850000Y-61875000D02*
X230835000Y-61875000D01*
X230835000Y-61875000D02*
X230960000Y-62000000D01*
X225275000Y-61225000D02*
X228000000Y-58500000D01*
X228000000Y-58500000D02*
X230960000Y-58500000D01*
X202850000Y-61225000D02*
X225275000Y-61225000D01*
X197150000Y-59275000D02*
X176775000Y-59275000D01*
X176775000Y-59275000D02*
X172500000Y-55000000D01*
X172500000Y-55000000D02*
X172500000Y-51500000D01*
X172500000Y-51500000D02*
X172000000Y-51000000D01*
X172000000Y-51000000D02*
X169540000Y-51000000D01*
X197150000Y-59925000D02*
X175925000Y-59925000D01*
X175925000Y-59925000D02*
X171500000Y-55500000D01*
X171500000Y-55000000D02*
X171000000Y-54500000D01*
X171000000Y-54500000D02*
X169540000Y-54500000D01*
X171500000Y-55500000D02*
X171500000Y-55000000D01*
X197150000Y-60575000D02*
X175075000Y-60575000D01*
X175075000Y-60575000D02*
X172500000Y-58000000D01*
X172500000Y-58000000D02*
X169540000Y-58000000D01*
X197150000Y-61225000D02*
X171275000Y-61225000D01*
X171275000Y-61225000D02*
X171000000Y-61500000D01*
X171000000Y-61500000D02*
X169540000Y-61500000D01*
X197150000Y-61875000D02*
X176625000Y-61875000D01*
X176625000Y-61875000D02*
X173500000Y-65000000D01*
X173500000Y-65000000D02*
X169540000Y-65000000D01*
X197150000Y-62525000D02*
X177475000Y-62525000D01*
X177475000Y-62525000D02*
X171500000Y-68500000D01*
X171500000Y-68500000D02*
X169540000Y-68500000D01*
X230960000Y-55000000D02*
X230000000Y-55000000D01*
X230000000Y-55000000D02*
X224425000Y-60575000D01*
X224425000Y-60575000D02*
X202850000Y-60575000D01*
X197150000Y-63175000D02*
X178325000Y-63175000D01*
X178325000Y-63175000D02*
X172000000Y-69500000D01*
X172000000Y-69500000D02*
X172000000Y-71500000D01*
X172000000Y-71500000D02*
X171500000Y-72000000D01*
X171500000Y-72000000D02*
X169540000Y-72000000D01*
X169540000Y-71460000D02*
X169540000Y-72000000D01*
X202850000Y-59925000D02*
X224075000Y-59925000D01*
X224075000Y-59925000D02*
X229250000Y-54750000D01*
X229250000Y-54750000D02*
X229250000Y-52000000D01*
X229250000Y-52000000D02*
X229750000Y-51500000D01*
X229750000Y-51500000D02*
X230960000Y-51500000D01*
X197150000Y-63825000D02*
X179175000Y-63825000D01*
X179175000Y-63825000D02*
X173000000Y-70000000D01*
X173000000Y-70000000D02*
X173000000Y-74500000D01*
X173000000Y-74500000D02*
X172000000Y-75500000D01*
X172000000Y-75500000D02*
X169540000Y-75500000D01*
X209800000Y-88000000D02*
X209800000Y-90900000D01*
X209800000Y-90900000D02*
X210150000Y-91250000D01*
X187500000Y-65500000D02*
X188750000Y-65500000D01*
X188750000Y-65500000D02*
X189873398Y-66623398D01*
X189873398Y-66623398D02*
X191048396Y-66623398D01*
X191048396Y-66623398D02*
X191049999Y-66625001D01*
X191049999Y-66625001D02*
X192950001Y-66625001D01*
X192950001Y-66625001D02*
X192951604Y-66623398D01*
X192951604Y-66623398D02*
X193376602Y-66623398D01*
X193376602Y-66623398D02*
X194875000Y-65125000D01*
X194875000Y-65125000D02*
X197150000Y-65125000D01*
X192000000Y-65500000D02*
X193500000Y-65500000D01*
X193500000Y-65500000D02*
X194525000Y-64475000D01*
X194525000Y-64475000D02*
X197150000Y-64475000D01*
X202850000Y-65125000D02*
X216875000Y-65125000D01*
X216875000Y-65125000D02*
X222000000Y-70250000D01*
X222000000Y-70250000D02*
X222000000Y-71360000D01*
X197200000Y-82250000D02*
X197200000Y-82300000D01*
X197200000Y-82300000D02*
X196500000Y-83000000D01*
X196500000Y-83000000D02*
X196500000Y-86500000D01*
X198000000Y-82250000D02*
X197900001Y-82349999D01*
X197900001Y-82349999D02*
X197900001Y-83390001D01*
X197900001Y-83390001D02*
X197347824Y-83942178D01*
X197347824Y-83942178D02*
X197347824Y-84847824D01*
X197347824Y-84847824D02*
X197500000Y-85000000D01*
X188000000Y-74000000D02*
X186460000Y-75540000D01*
X193000000Y-74000000D02*
X188000000Y-74000000D01*
X194200000Y-75200000D02*
X193000000Y-74000000D01*
X195750000Y-75200000D02*
X194200000Y-75200000D01*
X186460000Y-75540000D02*
X186460000Y-77297919D01*
X186460000Y-77297919D02*
X186460000Y-78500000D01*
X184500000Y-81500000D02*
X184600000Y-81500000D01*
X202320000Y-75720000D02*
X201920001Y-76119999D01*
X201920001Y-76119999D02*
X201920001Y-77889999D01*
X201920001Y-77889999D02*
X198800000Y-81010000D01*
X198800000Y-81010000D02*
X198800000Y-82250000D01*
X198500000Y-84000000D02*
X198500000Y-86500000D01*
X198800000Y-83700000D02*
X198500000Y-84000000D01*
X199600000Y-82250000D02*
X199600000Y-84900000D01*
X199600000Y-84900000D02*
X199500000Y-85000000D01*
X200400000Y-82250000D02*
X200499999Y-82349999D01*
X200499999Y-82349999D02*
X200499999Y-83390001D01*
X200499999Y-83390001D02*
X200528755Y-83418757D01*
X200528755Y-83418757D02*
X200528755Y-86471245D01*
X200528755Y-86471245D02*
X200500000Y-86500000D01*
X201200000Y-82250000D02*
X201200000Y-84700000D01*
X201200000Y-84700000D02*
X201500000Y-85000000D01*
X204250000Y-76000000D02*
X207500000Y-76000000D01*
X207500000Y-76000000D02*
X219000000Y-87500000D01*
X219000000Y-87500000D02*
X219000000Y-92000000D01*
X219000000Y-92000000D02*
X221540000Y-94540000D01*
X221540000Y-94540000D02*
X222740000Y-94540000D01*
X204250000Y-75200000D02*
X208200000Y-75200000D01*
X208200000Y-75200000D02*
X220000000Y-87000000D01*
X220000000Y-87000000D02*
X220000000Y-90500000D01*
X220000000Y-90500000D02*
X221500000Y-92000000D01*
X221500000Y-92000000D02*
X222740000Y-92000000D01*
X202800000Y-73750000D02*
X202800000Y-72700000D01*
X203000000Y-72500000D02*
X207000000Y-72500000D01*
X202800000Y-72700000D02*
X203000000Y-72500000D01*
X207000000Y-72500000D02*
X221000000Y-86500000D01*
X221460000Y-89460000D02*
X222740000Y-89460000D01*
X221000000Y-86500000D02*
X221000000Y-89000000D01*
X221000000Y-89000000D02*
X221460000Y-89460000D01*
X222740000Y-86920000D02*
X207570000Y-71750000D01*
X207570000Y-71750000D02*
X202950000Y-71750000D01*
X202950000Y-71750000D02*
X202000000Y-72700000D01*
X202000000Y-72700000D02*
X202000000Y-73750000D01*
X188800000Y-75500000D02*
X188800000Y-78300000D01*
X188800000Y-78300000D02*
X189000000Y-78500000D01*
X194000000Y-76000000D02*
X193500000Y-75500000D01*
X193500000Y-75500000D02*
X191500000Y-75500000D01*
X195750000Y-76000000D02*
X194000000Y-76000000D01*
X175500000Y-83000000D02*
X175000000Y-82500000D01*
X175000000Y-82500000D02*
X173750000Y-82500000D01*
X175500000Y-86410000D02*
X175500000Y-83000000D01*
X177350000Y-87360000D02*
X176450000Y-87360000D01*
X176450000Y-87360000D02*
X175500000Y-86410000D01*
X185900000Y-95100000D02*
X180700000Y-95100000D01*
X186500000Y-95700000D02*
X185900000Y-95100000D01*
X179200000Y-93600000D02*
X179200000Y-90700000D01*
X180700000Y-95100000D02*
X179200000Y-93600000D01*
X186500000Y-96900000D02*
X186500000Y-95700000D01*
X178410000Y-89910000D02*
X177350000Y-89910000D01*
X179200000Y-90700000D02*
X178410000Y-89910000D01*
X179900000Y-93400000D02*
X181000000Y-94500000D01*
X187300000Y-95500000D02*
X187300000Y-96900000D01*
X179900000Y-90100000D02*
X179900000Y-93400000D01*
X186300000Y-94500000D02*
X187300000Y-95500000D01*
X178440000Y-88640000D02*
X179900000Y-90100000D01*
X177350000Y-88640000D02*
X178440000Y-88640000D01*
X181000000Y-94500000D02*
X186300000Y-94500000D01*
X175750000Y-90470000D02*
X175750000Y-87975000D01*
X175750000Y-87975000D02*
X173525000Y-85750000D01*
X173525000Y-85750000D02*
X172000000Y-85750000D01*
X177350000Y-91170000D02*
X176450000Y-91170000D01*
X176450000Y-91170000D02*
X175750000Y-90470000D01*
X172000000Y-92250000D02*
X177150000Y-92250000D01*
X177150000Y-92250000D02*
X177350000Y-92450000D01*
D36*
X213850000Y-48120000D02*
X214699999Y-47270001D01*
X214699999Y-47270001D02*
X214699999Y-46300001D01*
X214699999Y-46300001D02*
X218000000Y-43000000D01*
X211310000Y-48120000D02*
X213850000Y-48120000D01*
X218000000Y-43000000D02*
X223000000Y-48000000D01*
X223000000Y-48000000D02*
X225000000Y-48000000D01*
X218000000Y-26000000D02*
X218000000Y-43000000D01*
X227000000Y-46000000D02*
X225000000Y-48000000D01*
X225000000Y-48000000D02*
X225000000Y-51000000D01*
X227000000Y-44475000D02*
X227000000Y-46000000D01*
D37*
X215809502Y-88974999D02*
X215809502Y-88409314D01*
X215809502Y-94559502D02*
X215809502Y-88974999D01*
X218150000Y-96900000D02*
X215809502Y-94559502D01*
X218150000Y-97900000D02*
X218150000Y-96900000D01*
X198800000Y-82250000D02*
X198800000Y-83700000D01*
D38*
G36*
X249213315Y-63996036D02*
X225602480Y-105315000D01*
X174397521Y-105315000D01*
X173409379Y-103585750D01*
X181215000Y-103585750D01*
X181215000Y-104676309D01*
X181311673Y-104909698D01*
X181490301Y-105088327D01*
X181723690Y-105185000D01*
X182564250Y-105185000D01*
X182723000Y-105026250D01*
X182723000Y-103427000D01*
X182977000Y-103427000D01*
X182977000Y-105026250D01*
X183135750Y-105185000D01*
X183976310Y-105185000D01*
X184209699Y-105088327D01*
X184388327Y-104909698D01*
X184485000Y-104676309D01*
X184485000Y-103585750D01*
X190115000Y-103585750D01*
X190115000Y-104676309D01*
X190211673Y-104909698D01*
X190390301Y-105088327D01*
X190623690Y-105185000D01*
X191464250Y-105185000D01*
X191623000Y-105026250D01*
X191623000Y-103427000D01*
X191877000Y-103427000D01*
X191877000Y-105026250D01*
X192035750Y-105185000D01*
X192876310Y-105185000D01*
X193109699Y-105088327D01*
X193288327Y-104909698D01*
X193385000Y-104676309D01*
X193385000Y-103585750D01*
X193226250Y-103427000D01*
X191877000Y-103427000D01*
X191623000Y-103427000D01*
X190273750Y-103427000D01*
X190115000Y-103585750D01*
X184485000Y-103585750D01*
X184326250Y-103427000D01*
X182977000Y-103427000D01*
X182723000Y-103427000D01*
X181373750Y-103427000D01*
X181215000Y-103585750D01*
X173409379Y-103585750D01*
X172459631Y-101923691D01*
X181215000Y-101923691D01*
X181215000Y-103014250D01*
X181373750Y-103173000D01*
X182723000Y-103173000D01*
X182723000Y-101573750D01*
X182977000Y-101573750D01*
X182977000Y-103173000D01*
X184326250Y-103173000D01*
X184485000Y-103014250D01*
X184485000Y-101923691D01*
X184388327Y-101690302D01*
X184209699Y-101511673D01*
X183976310Y-101415000D01*
X183135750Y-101415000D01*
X182977000Y-101573750D01*
X182723000Y-101573750D01*
X182564250Y-101415000D01*
X181723690Y-101415000D01*
X181490301Y-101511673D01*
X181311673Y-101690302D01*
X181215000Y-101923691D01*
X172459631Y-101923691D01*
X170266522Y-98085750D01*
X181215000Y-98085750D01*
X181215000Y-99176309D01*
X181311673Y-99409698D01*
X181490301Y-99588327D01*
X181723690Y-99685000D01*
X182564250Y-99685000D01*
X182723000Y-99526250D01*
X182723000Y-97927000D01*
X182977000Y-97927000D01*
X182977000Y-99526250D01*
X183135750Y-99685000D01*
X183976310Y-99685000D01*
X184209699Y-99588327D01*
X184388327Y-99409698D01*
X184485000Y-99176309D01*
X184485000Y-98085750D01*
X184326250Y-97927000D01*
X182977000Y-97927000D01*
X182723000Y-97927000D01*
X181373750Y-97927000D01*
X181215000Y-98085750D01*
X170266522Y-98085750D01*
X169316774Y-96423691D01*
X181215000Y-96423691D01*
X181215000Y-97514250D01*
X181373750Y-97673000D01*
X182723000Y-97673000D01*
X182723000Y-96073750D01*
X182977000Y-96073750D01*
X182977000Y-97673000D01*
X184326250Y-97673000D01*
X184485000Y-97514250D01*
X184485000Y-96423691D01*
X184388327Y-96190302D01*
X184209699Y-96011673D01*
X183976310Y-95915000D01*
X183135750Y-95915000D01*
X182977000Y-96073750D01*
X182723000Y-96073750D01*
X182564250Y-95915000D01*
X181723690Y-95915000D01*
X181490301Y-96011673D01*
X181311673Y-96190302D01*
X181215000Y-96423691D01*
X169316774Y-96423691D01*
X165237950Y-89285750D01*
X168965000Y-89285750D01*
X168965000Y-90001309D01*
X169061673Y-90234698D01*
X169240301Y-90413327D01*
X169473690Y-90510000D01*
X171714250Y-90510000D01*
X171873000Y-90351250D01*
X171873000Y-89127000D01*
X169123750Y-89127000D01*
X168965000Y-89285750D01*
X165237950Y-89285750D01*
X164502488Y-87998691D01*
X168965000Y-87998691D01*
X168965000Y-88714250D01*
X169123750Y-88873000D01*
X171873000Y-88873000D01*
X171873000Y-87648750D01*
X171714250Y-87490000D01*
X169473690Y-87490000D01*
X169240301Y-87586673D01*
X169061673Y-87765302D01*
X168965000Y-87998691D01*
X164502488Y-87998691D01*
X161523665Y-82785750D01*
X169865000Y-82785750D01*
X169865000Y-83251310D01*
X169961673Y-83484699D01*
X170140302Y-83663327D01*
X170373691Y-83760000D01*
X170964250Y-83760000D01*
X171123000Y-83601250D01*
X171123000Y-82627000D01*
X170023750Y-82627000D01*
X169865000Y-82785750D01*
X161523665Y-82785750D01*
X160931060Y-81748690D01*
X169865000Y-81748690D01*
X169865000Y-82214250D01*
X170023750Y-82373000D01*
X171123000Y-82373000D01*
X171123000Y-81398750D01*
X170964250Y-81240000D01*
X170373691Y-81240000D01*
X170140302Y-81336673D01*
X169961673Y-81515301D01*
X169865000Y-81748690D01*
X160931060Y-81748690D01*
X157564317Y-75856892D01*
X163018514Y-75856892D01*
X163264817Y-76381358D01*
X163693076Y-76771645D01*
X164103110Y-76941476D01*
X164333000Y-76820155D01*
X164333000Y-75627000D01*
X163139181Y-75627000D01*
X163018514Y-75856892D01*
X157564317Y-75856892D01*
X157156441Y-75143108D01*
X163018514Y-75143108D01*
X163139181Y-75373000D01*
X164333000Y-75373000D01*
X164333000Y-74179845D01*
X164103110Y-74058524D01*
X163693076Y-74228355D01*
X163264817Y-74618642D01*
X163018514Y-75143108D01*
X157156441Y-75143108D01*
X155564318Y-72356892D01*
X163018514Y-72356892D01*
X163264817Y-72881358D01*
X163693076Y-73271645D01*
X164103110Y-73441476D01*
X164333000Y-73320155D01*
X164333000Y-72127000D01*
X163139181Y-72127000D01*
X163018514Y-72356892D01*
X155564318Y-72356892D01*
X155156442Y-71643108D01*
X163018514Y-71643108D01*
X163139181Y-71873000D01*
X164333000Y-71873000D01*
X164333000Y-70679845D01*
X164103110Y-70558524D01*
X163693076Y-70728355D01*
X163264817Y-71118642D01*
X163018514Y-71643108D01*
X155156442Y-71643108D01*
X153564318Y-68856892D01*
X163018514Y-68856892D01*
X163264817Y-69381358D01*
X163693076Y-69771645D01*
X164103110Y-69941476D01*
X164333000Y-69820155D01*
X164333000Y-68627000D01*
X163139181Y-68627000D01*
X163018514Y-68856892D01*
X153564318Y-68856892D01*
X153156442Y-68143108D01*
X163018514Y-68143108D01*
X163139181Y-68373000D01*
X164333000Y-68373000D01*
X164333000Y-67179845D01*
X164103110Y-67058524D01*
X163693076Y-67228355D01*
X163264817Y-67618642D01*
X163018514Y-68143108D01*
X153156442Y-68143108D01*
X151564317Y-65356892D01*
X163018514Y-65356892D01*
X163264817Y-65881358D01*
X163693076Y-66271645D01*
X164103110Y-66441476D01*
X164333000Y-66320155D01*
X164333000Y-65127000D01*
X163139181Y-65127000D01*
X163018514Y-65356892D01*
X151564317Y-65356892D01*
X151156440Y-64643108D01*
X163018514Y-64643108D01*
X163139181Y-64873000D01*
X164333000Y-64873000D01*
X164333000Y-63679845D01*
X164103110Y-63558524D01*
X163693076Y-63728355D01*
X163264817Y-64118642D01*
X163018514Y-64643108D01*
X151156440Y-64643108D01*
X150786684Y-63996036D01*
X151980624Y-61856892D01*
X163018514Y-61856892D01*
X163264817Y-62381358D01*
X163693076Y-62771645D01*
X164103110Y-62941476D01*
X164333000Y-62820155D01*
X164333000Y-61627000D01*
X163139181Y-61627000D01*
X163018514Y-61856892D01*
X151980624Y-61856892D01*
X152379015Y-61143108D01*
X163018514Y-61143108D01*
X163139181Y-61373000D01*
X164333000Y-61373000D01*
X164333000Y-60179845D01*
X164103110Y-60058524D01*
X163693076Y-60228355D01*
X163264817Y-60618642D01*
X163018514Y-61143108D01*
X152379015Y-61143108D01*
X153934112Y-58356892D01*
X163018514Y-58356892D01*
X163264817Y-58881358D01*
X163693076Y-59271645D01*
X164103110Y-59441476D01*
X164333000Y-59320155D01*
X164333000Y-58127000D01*
X163139181Y-58127000D01*
X163018514Y-58356892D01*
X153934112Y-58356892D01*
X154332503Y-57643108D01*
X163018514Y-57643108D01*
X163139181Y-57873000D01*
X164333000Y-57873000D01*
X164333000Y-56679845D01*
X164103110Y-56558524D01*
X163693076Y-56728355D01*
X163264817Y-57118642D01*
X163018514Y-57643108D01*
X154332503Y-57643108D01*
X155887600Y-54856892D01*
X163018514Y-54856892D01*
X163264817Y-55381358D01*
X163693076Y-55771645D01*
X164103110Y-55941476D01*
X164333000Y-55820155D01*
X164333000Y-54627000D01*
X163139181Y-54627000D01*
X163018514Y-54856892D01*
X155887600Y-54856892D01*
X156285991Y-54143108D01*
X163018514Y-54143108D01*
X163139181Y-54373000D01*
X164333000Y-54373000D01*
X164333000Y-53179845D01*
X164103110Y-53058524D01*
X163693076Y-53228355D01*
X163264817Y-53618642D01*
X163018514Y-54143108D01*
X156285991Y-54143108D01*
X157841088Y-51356892D01*
X163018514Y-51356892D01*
X163264817Y-51881358D01*
X163693076Y-52271645D01*
X164103110Y-52441476D01*
X164333000Y-52320155D01*
X164333000Y-51127000D01*
X163139181Y-51127000D01*
X163018514Y-51356892D01*
X157841088Y-51356892D01*
X158239479Y-50643108D01*
X163018514Y-50643108D01*
X163139181Y-50873000D01*
X164333000Y-50873000D01*
X164333000Y-49679845D01*
X164587000Y-49679845D01*
X164587000Y-50873000D01*
X164607000Y-50873000D01*
X164607000Y-51127000D01*
X164587000Y-51127000D01*
X164587000Y-52320155D01*
X164816890Y-52441476D01*
X165226924Y-52271645D01*
X165655183Y-51881358D01*
X165716157Y-51751522D01*
X165865001Y-51974282D01*
X165865001Y-53525718D01*
X165716157Y-53748478D01*
X165655183Y-53618642D01*
X165226924Y-53228355D01*
X164816890Y-53058524D01*
X164587000Y-53179845D01*
X164587000Y-54373000D01*
X164607000Y-54373000D01*
X164607000Y-54627000D01*
X164587000Y-54627000D01*
X164587000Y-55820155D01*
X164816890Y-55941476D01*
X165226924Y-55771645D01*
X165655183Y-55381358D01*
X165716157Y-55251522D01*
X165865001Y-55474282D01*
X165865001Y-57025718D01*
X165716157Y-57248478D01*
X165655183Y-57118642D01*
X165226924Y-56728355D01*
X164816890Y-56558524D01*
X164587000Y-56679845D01*
X164587000Y-57873000D01*
X164607000Y-57873000D01*
X164607000Y-58127000D01*
X164587000Y-58127000D01*
X164587000Y-59320155D01*
X164816890Y-59441476D01*
X165226924Y-59271645D01*
X165655183Y-58881358D01*
X165716157Y-58751522D01*
X165865001Y-58974282D01*
X165865001Y-60525718D01*
X165716157Y-60748478D01*
X165655183Y-60618642D01*
X165226924Y-60228355D01*
X164816890Y-60058524D01*
X164587000Y-60179845D01*
X164587000Y-61373000D01*
X164607000Y-61373000D01*
X164607000Y-61627000D01*
X164587000Y-61627000D01*
X164587000Y-62820155D01*
X164816890Y-62941476D01*
X165226924Y-62771645D01*
X165655183Y-62381358D01*
X165716157Y-62251522D01*
X165865001Y-62474282D01*
X165865000Y-64025718D01*
X165716157Y-64248478D01*
X165655183Y-64118642D01*
X165226924Y-63728355D01*
X164816890Y-63558524D01*
X164587000Y-63679845D01*
X164587000Y-64873000D01*
X164607000Y-64873000D01*
X164607000Y-65127000D01*
X164587000Y-65127000D01*
X164587000Y-66320155D01*
X164816890Y-66441476D01*
X165226924Y-66271645D01*
X165655183Y-65881358D01*
X165716157Y-65751522D01*
X165865000Y-65974282D01*
X165865000Y-67525719D01*
X165716157Y-67748478D01*
X165655183Y-67618642D01*
X165226924Y-67228355D01*
X164816890Y-67058524D01*
X164587000Y-67179845D01*
X164587000Y-68373000D01*
X164607000Y-68373000D01*
X164607000Y-68627000D01*
X164587000Y-68627000D01*
X164587000Y-69820155D01*
X164816890Y-69941476D01*
X165226924Y-69771645D01*
X165655183Y-69381358D01*
X165716157Y-69251522D01*
X165865000Y-69474281D01*
X165865000Y-71025719D01*
X165716157Y-71248478D01*
X165655183Y-71118642D01*
X165226924Y-70728355D01*
X164816890Y-70558524D01*
X164587000Y-70679845D01*
X164587000Y-71873000D01*
X164607000Y-71873000D01*
X164607000Y-72127000D01*
X164587000Y-72127000D01*
X164587000Y-73320155D01*
X164816890Y-73441476D01*
X165226924Y-73271645D01*
X165655183Y-72881358D01*
X165716157Y-72751522D01*
X165865000Y-72974281D01*
X165865000Y-74525719D01*
X165716157Y-74748478D01*
X165655183Y-74618642D01*
X165226924Y-74228355D01*
X164816890Y-74058524D01*
X164587000Y-74179845D01*
X164587000Y-75373000D01*
X164607000Y-75373000D01*
X164607000Y-75627000D01*
X164587000Y-75627000D01*
X164587000Y-76820155D01*
X164816890Y-76941476D01*
X165226924Y-76771645D01*
X165655183Y-76381358D01*
X165716157Y-76251522D01*
X165929375Y-76570625D01*
X166240287Y-76778370D01*
X166284097Y-76998618D01*
X166390082Y-77157235D01*
X166452072Y-77250010D01*
X166515528Y-77292410D01*
X167207590Y-77984473D01*
X167249990Y-78047929D01*
X167501382Y-78215904D01*
X167723067Y-78260000D01*
X167723072Y-78260000D01*
X167797919Y-78274888D01*
X167872766Y-78260000D01*
X171175153Y-78260000D01*
X171250000Y-78274888D01*
X171324847Y-78260000D01*
X171324852Y-78260000D01*
X171546537Y-78215904D01*
X171797929Y-78047929D01*
X171840331Y-77984470D01*
X174484476Y-75340327D01*
X174547929Y-75297929D01*
X174590327Y-75234476D01*
X174590329Y-75234474D01*
X174715903Y-75046538D01*
X174715904Y-75046537D01*
X174760000Y-74824852D01*
X174760000Y-74824848D01*
X174774888Y-74750001D01*
X174760000Y-74675154D01*
X174760000Y-72064801D01*
X178339051Y-68485750D01*
X190715000Y-68485750D01*
X190715000Y-69076309D01*
X190811673Y-69309698D01*
X190990301Y-69488327D01*
X191223690Y-69585000D01*
X191714250Y-69585000D01*
X191873000Y-69426250D01*
X191873000Y-68327000D01*
X192127000Y-68327000D01*
X192127000Y-69426250D01*
X192285750Y-69585000D01*
X192776310Y-69585000D01*
X193009699Y-69488327D01*
X193188327Y-69309698D01*
X193285000Y-69076309D01*
X193285000Y-68485750D01*
X193126250Y-68327000D01*
X192127000Y-68327000D01*
X191873000Y-68327000D01*
X190873750Y-68327000D01*
X190715000Y-68485750D01*
X178339051Y-68485750D01*
X180564802Y-66260000D01*
X185112424Y-66260000D01*
X185136843Y-66382765D01*
X185277191Y-66592809D01*
X185487235Y-66733157D01*
X185735000Y-66782440D01*
X186705000Y-66782440D01*
X186860000Y-66751609D01*
X187015000Y-66782440D01*
X187985000Y-66782440D01*
X188232765Y-66733157D01*
X188442809Y-66592809D01*
X188573066Y-66397867D01*
X189283068Y-67107870D01*
X189325469Y-67171327D01*
X189388925Y-67213727D01*
X189576860Y-67339302D01*
X189625003Y-67348878D01*
X189798546Y-67383398D01*
X189798550Y-67383398D01*
X189873398Y-67398286D01*
X189948246Y-67383398D01*
X190715000Y-67383398D01*
X190715000Y-67914250D01*
X190873750Y-68073000D01*
X191873000Y-68073000D01*
X191873000Y-68053000D01*
X192127000Y-68053000D01*
X192127000Y-68073000D01*
X193126250Y-68073000D01*
X193285000Y-67914250D01*
X193285000Y-67383398D01*
X193301755Y-67383398D01*
X193376602Y-67398286D01*
X193451449Y-67383398D01*
X193451454Y-67383398D01*
X193673139Y-67339302D01*
X193924531Y-67171327D01*
X193966933Y-67107868D01*
X195189802Y-65885000D01*
X195271773Y-65885000D01*
X195234671Y-65940527D01*
X194265528Y-66909671D01*
X194202072Y-66952071D01*
X194159672Y-67015527D01*
X194159671Y-67015528D01*
X194034097Y-67203463D01*
X193975112Y-67500000D01*
X193990001Y-67574852D01*
X193990000Y-69425153D01*
X193975112Y-69500000D01*
X193990000Y-69574847D01*
X193990000Y-69574851D01*
X194034096Y-69796536D01*
X194202071Y-70047929D01*
X194265530Y-70090331D01*
X194909670Y-70734472D01*
X194913364Y-70740000D01*
X181074848Y-70740000D01*
X181000000Y-70725112D01*
X180925152Y-70740000D01*
X180925148Y-70740000D01*
X180751605Y-70774520D01*
X180703462Y-70784096D01*
X180526656Y-70902235D01*
X180452071Y-70952071D01*
X180409671Y-71015527D01*
X177515528Y-73909671D01*
X177452072Y-73952071D01*
X177409672Y-74015527D01*
X177409671Y-74015528D01*
X177385406Y-74051843D01*
X177284097Y-74203463D01*
X177265307Y-74297929D01*
X177225112Y-74500000D01*
X177240001Y-74574852D01*
X177240000Y-80825153D01*
X177225112Y-80900000D01*
X177240000Y-80974847D01*
X177240000Y-80974851D01*
X177284096Y-81196536D01*
X177452071Y-81447929D01*
X177515530Y-81490331D01*
X178040001Y-82014803D01*
X178040001Y-82515000D01*
X177635750Y-82515000D01*
X177477000Y-82673750D01*
X177477000Y-83423000D01*
X177497000Y-83423000D01*
X177497000Y-83677000D01*
X177477000Y-83677000D01*
X177477000Y-83697000D01*
X177223000Y-83697000D01*
X177223000Y-83677000D01*
X177203000Y-83677000D01*
X177203000Y-83423000D01*
X177223000Y-83423000D01*
X177223000Y-82673750D01*
X177064250Y-82515000D01*
X176573691Y-82515000D01*
X176340302Y-82611673D01*
X176221314Y-82730660D01*
X176215904Y-82703463D01*
X176215904Y-82703462D01*
X176090329Y-82515527D01*
X176047929Y-82452071D01*
X175984472Y-82409671D01*
X175590331Y-82015529D01*
X175547929Y-81952071D01*
X175296537Y-81784096D01*
X175122471Y-81749472D01*
X175098157Y-81627235D01*
X174957809Y-81417191D01*
X174747765Y-81276843D01*
X174500000Y-81227560D01*
X173000000Y-81227560D01*
X172752235Y-81276843D01*
X172542191Y-81417191D01*
X172501346Y-81478320D01*
X172359698Y-81336673D01*
X172126309Y-81240000D01*
X171535750Y-81240000D01*
X171377000Y-81398750D01*
X171377000Y-82373000D01*
X171397000Y-82373000D01*
X171397000Y-82627000D01*
X171377000Y-82627000D01*
X171377000Y-83601250D01*
X171535750Y-83760000D01*
X172126309Y-83760000D01*
X172359698Y-83663327D01*
X172501346Y-83521680D01*
X172542191Y-83582809D01*
X172752235Y-83723157D01*
X173000000Y-83772440D01*
X174500000Y-83772440D01*
X174740001Y-83724701D01*
X174740001Y-84338473D01*
X174647765Y-84276843D01*
X174400000Y-84227560D01*
X169600000Y-84227560D01*
X169352235Y-84276843D01*
X169142191Y-84417191D01*
X169001843Y-84627235D01*
X168952560Y-84875000D01*
X168952560Y-86625000D01*
X169001843Y-86872765D01*
X169142191Y-87082809D01*
X169352235Y-87223157D01*
X169600000Y-87272440D01*
X173972639Y-87272440D01*
X174190198Y-87490000D01*
X172285750Y-87490000D01*
X172127000Y-87648750D01*
X172127000Y-88873000D01*
X172147000Y-88873000D01*
X172147000Y-89127000D01*
X172127000Y-89127000D01*
X172127000Y-90351250D01*
X172285750Y-90510000D01*
X174526310Y-90510000D01*
X174759699Y-90413327D01*
X174938327Y-90234698D01*
X174990000Y-90109948D01*
X174990000Y-90395153D01*
X174975112Y-90470000D01*
X174990000Y-90544847D01*
X174990000Y-90544851D01*
X175034096Y-90766536D01*
X175202071Y-91017929D01*
X175265529Y-91060330D01*
X175695198Y-91490000D01*
X175047440Y-91490000D01*
X175047440Y-91375000D01*
X174998157Y-91127235D01*
X174857809Y-90917191D01*
X174647765Y-90776843D01*
X174400000Y-90727560D01*
X169600000Y-90727560D01*
X169352235Y-90776843D01*
X169142191Y-90917191D01*
X169001843Y-91127235D01*
X168952560Y-91375000D01*
X168952560Y-93125000D01*
X169001843Y-93372765D01*
X169142191Y-93582809D01*
X169352235Y-93723157D01*
X169600000Y-93772440D01*
X174400000Y-93772440D01*
X174647765Y-93723157D01*
X174857809Y-93582809D01*
X174998157Y-93372765D01*
X175047440Y-93125000D01*
X175047440Y-93010000D01*
X176084386Y-93010000D01*
X176101843Y-93097765D01*
X176242191Y-93307809D01*
X176452235Y-93448157D01*
X176700000Y-93497440D01*
X178000000Y-93497440D01*
X178247765Y-93448157D01*
X178440000Y-93319709D01*
X178440000Y-93525153D01*
X178425112Y-93600000D01*
X178440000Y-93674847D01*
X178440000Y-93674851D01*
X178484096Y-93896536D01*
X178652071Y-94147929D01*
X178715530Y-94190331D01*
X180109673Y-95584476D01*
X180152071Y-95647929D01*
X180215524Y-95690327D01*
X180215526Y-95690329D01*
X180340902Y-95774102D01*
X180403463Y-95815904D01*
X180625148Y-95860000D01*
X180625152Y-95860000D01*
X180699999Y-95874888D01*
X180774846Y-95860000D01*
X185585199Y-95860000D01*
X185627759Y-95902560D01*
X185450000Y-95902560D01*
X185202235Y-95951843D01*
X184992191Y-96092191D01*
X184851843Y-96302235D01*
X184802560Y-96550000D01*
X184802560Y-98850000D01*
X184851843Y-99097765D01*
X184930178Y-99215000D01*
X184884180Y-99215000D01*
X184485397Y-99380182D01*
X184180182Y-99685397D01*
X184015000Y-100084180D01*
X184015000Y-100515820D01*
X184180182Y-100914603D01*
X184485397Y-101219818D01*
X184884180Y-101385000D01*
X185315820Y-101385000D01*
X185714603Y-101219818D01*
X186019818Y-100914603D01*
X186054960Y-100829762D01*
X187109671Y-101884473D01*
X187152071Y-101947929D01*
X187403463Y-102115904D01*
X187625148Y-102160000D01*
X187625152Y-102160000D01*
X187699999Y-102174888D01*
X187774846Y-102160000D01*
X190115000Y-102160000D01*
X190115000Y-103014250D01*
X190273750Y-103173000D01*
X191623000Y-103173000D01*
X191623000Y-103153000D01*
X191877000Y-103153000D01*
X191877000Y-103173000D01*
X193226250Y-103173000D01*
X193385000Y-103014250D01*
X193385000Y-101923691D01*
X193288327Y-101690302D01*
X193109699Y-101511673D01*
X192876310Y-101415000D01*
X192659801Y-101415000D01*
X193579981Y-100494821D01*
X196506394Y-100494821D01*
X196405908Y-101000000D01*
X196521161Y-101579418D01*
X196849375Y-102070625D01*
X197340582Y-102398839D01*
X197773744Y-102485000D01*
X198066256Y-102485000D01*
X198499418Y-102398839D01*
X198990625Y-102070625D01*
X199203843Y-101751522D01*
X199264817Y-101881358D01*
X199693076Y-102271645D01*
X200103110Y-102441476D01*
X200333000Y-102320155D01*
X200333000Y-101127000D01*
X200587000Y-101127000D01*
X200587000Y-102320155D01*
X200816890Y-102441476D01*
X201226924Y-102271645D01*
X201655183Y-101881358D01*
X201730000Y-101722046D01*
X201804817Y-101881358D01*
X202233076Y-102271645D01*
X202643110Y-102441476D01*
X202873000Y-102320155D01*
X202873000Y-101127000D01*
X203127000Y-101127000D01*
X203127000Y-102320155D01*
X203356890Y-102441476D01*
X203766924Y-102271645D01*
X204195183Y-101881358D01*
X204270000Y-101722046D01*
X204344817Y-101881358D01*
X204773076Y-102271645D01*
X205183110Y-102441476D01*
X205413000Y-102320155D01*
X205413000Y-101127000D01*
X203127000Y-101127000D01*
X202873000Y-101127000D01*
X200587000Y-101127000D01*
X200333000Y-101127000D01*
X200313000Y-101127000D01*
X200313000Y-100873000D01*
X200333000Y-100873000D01*
X200333000Y-100853000D01*
X200587000Y-100853000D01*
X200587000Y-100873000D01*
X202873000Y-100873000D01*
X202873000Y-100853000D01*
X203127000Y-100853000D01*
X203127000Y-100873000D01*
X205413000Y-100873000D01*
X205413000Y-100853000D01*
X205667000Y-100853000D01*
X205667000Y-100873000D01*
X205687000Y-100873000D01*
X205687000Y-101127000D01*
X205667000Y-101127000D01*
X205667000Y-102320155D01*
X205896890Y-102441476D01*
X206238333Y-102300055D01*
X206251764Y-102320155D01*
X206307071Y-102402928D01*
X206370527Y-102445328D01*
X206909671Y-102984473D01*
X206952071Y-103047929D01*
X207203463Y-103215904D01*
X207425148Y-103260000D01*
X207425152Y-103260000D01*
X207499999Y-103274888D01*
X207574846Y-103260000D01*
X209579807Y-103260000D01*
X209654654Y-103274888D01*
X209729501Y-103260000D01*
X209729506Y-103260000D01*
X209951191Y-103215904D01*
X210202583Y-103047929D01*
X210244985Y-102984470D01*
X210443705Y-102785750D01*
X216515000Y-102785750D01*
X216515000Y-103376310D01*
X216611673Y-103609699D01*
X216790302Y-103788327D01*
X217023691Y-103885000D01*
X217864250Y-103885000D01*
X218023000Y-103726250D01*
X218023000Y-102627000D01*
X218277000Y-102627000D01*
X218277000Y-103726250D01*
X218435750Y-103885000D01*
X219276309Y-103885000D01*
X219509698Y-103788327D01*
X219688327Y-103609699D01*
X219785000Y-103376310D01*
X219785000Y-102785750D01*
X219626250Y-102627000D01*
X218277000Y-102627000D01*
X218023000Y-102627000D01*
X216673750Y-102627000D01*
X216515000Y-102785750D01*
X210443705Y-102785750D01*
X210559712Y-102669744D01*
X210602235Y-102698157D01*
X210850000Y-102747440D01*
X212850000Y-102747440D01*
X213097765Y-102698157D01*
X213307809Y-102557809D01*
X213448157Y-102347765D01*
X213497440Y-102100000D01*
X213497440Y-98300000D01*
X213448157Y-98052235D01*
X213307809Y-97842191D01*
X213097765Y-97701843D01*
X212850000Y-97652560D01*
X212260000Y-97652560D01*
X212260000Y-95574848D01*
X212274888Y-95500000D01*
X212260000Y-95425152D01*
X212260000Y-94872440D01*
X212300000Y-94872440D01*
X212547765Y-94823157D01*
X212757809Y-94682809D01*
X212798654Y-94621680D01*
X212940302Y-94763327D01*
X213173691Y-94860000D01*
X213764250Y-94860000D01*
X213923000Y-94701250D01*
X213923000Y-93727000D01*
X213903000Y-93727000D01*
X213903000Y-93473000D01*
X213923000Y-93473000D01*
X213923000Y-92498750D01*
X213764250Y-92340000D01*
X213173691Y-92340000D01*
X212940302Y-92436673D01*
X212798654Y-92578320D01*
X212757809Y-92517191D01*
X212547765Y-92376843D01*
X212300000Y-92327560D01*
X212260000Y-92327560D01*
X212260000Y-92085000D01*
X212564250Y-92085000D01*
X212723000Y-91926250D01*
X212723000Y-90927000D01*
X212977000Y-90927000D01*
X212977000Y-91926250D01*
X213135750Y-92085000D01*
X213726309Y-92085000D01*
X213959698Y-91988327D01*
X214138327Y-91809699D01*
X214235000Y-91576310D01*
X214235000Y-91085750D01*
X214076250Y-90927000D01*
X212977000Y-90927000D01*
X212723000Y-90927000D01*
X212703000Y-90927000D01*
X212703000Y-90673000D01*
X212723000Y-90673000D01*
X212723000Y-90653000D01*
X212977000Y-90653000D01*
X212977000Y-90673000D01*
X214076250Y-90673000D01*
X214235000Y-90514250D01*
X214235000Y-90023690D01*
X214138327Y-89790301D01*
X213959698Y-89611673D01*
X213893546Y-89584272D01*
X214082809Y-89457809D01*
X214223157Y-89247765D01*
X214272440Y-89000000D01*
X214272440Y-87760000D01*
X214853683Y-87760000D01*
X214847295Y-87766388D01*
X214674502Y-88183548D01*
X214674502Y-88635080D01*
X214847295Y-89052240D01*
X215049503Y-89254448D01*
X215049502Y-92391028D01*
X214926309Y-92340000D01*
X214335750Y-92340000D01*
X214177000Y-92498750D01*
X214177000Y-93473000D01*
X214197000Y-93473000D01*
X214197000Y-93727000D01*
X214177000Y-93727000D01*
X214177000Y-94701250D01*
X214335750Y-94860000D01*
X214926309Y-94860000D01*
X215081592Y-94795680D01*
X215093598Y-94856038D01*
X215261573Y-95107431D01*
X215325032Y-95149833D01*
X216797214Y-96622016D01*
X216692191Y-96692191D01*
X216551843Y-96902235D01*
X216502560Y-97150000D01*
X216502560Y-98650000D01*
X216551843Y-98897765D01*
X216653564Y-99050000D01*
X216551843Y-99202235D01*
X216502560Y-99450000D01*
X216502560Y-100950000D01*
X216551843Y-101197765D01*
X216652927Y-101349047D01*
X216611673Y-101390301D01*
X216515000Y-101623690D01*
X216515000Y-102214250D01*
X216673750Y-102373000D01*
X218023000Y-102373000D01*
X218023000Y-102353000D01*
X218277000Y-102353000D01*
X218277000Y-102373000D01*
X219626250Y-102373000D01*
X219785000Y-102214250D01*
X219785000Y-101636750D01*
X219903462Y-101715904D01*
X219951605Y-101725480D01*
X220125148Y-101760000D01*
X220125152Y-101760000D01*
X220200000Y-101774888D01*
X220274848Y-101760000D01*
X223925153Y-101760000D01*
X224000000Y-101774888D01*
X224074847Y-101760000D01*
X224074852Y-101760000D01*
X224296537Y-101715904D01*
X224547929Y-101547929D01*
X224590331Y-101484470D01*
X225884473Y-100190329D01*
X225947929Y-100147929D01*
X226115904Y-99896537D01*
X226160000Y-99674852D01*
X226160000Y-99674847D01*
X226174888Y-99600000D01*
X226160000Y-99525153D01*
X226160000Y-95898178D01*
X226470625Y-95690625D01*
X226671353Y-95390214D01*
X227058642Y-95815183D01*
X227583108Y-96061486D01*
X227813000Y-95940819D01*
X227813000Y-94747000D01*
X228067000Y-94747000D01*
X228067000Y-95940819D01*
X228296892Y-96061486D01*
X228821358Y-95815183D01*
X229211645Y-95386924D01*
X229381476Y-94976890D01*
X229260155Y-94747000D01*
X228067000Y-94747000D01*
X227813000Y-94747000D01*
X227793000Y-94747000D01*
X227793000Y-94493000D01*
X227813000Y-94493000D01*
X227813000Y-92207000D01*
X228067000Y-92207000D01*
X228067000Y-94493000D01*
X229260155Y-94493000D01*
X229381476Y-94263110D01*
X229211645Y-93853076D01*
X228821358Y-93424817D01*
X228662046Y-93350000D01*
X228821358Y-93275183D01*
X229211645Y-92846924D01*
X229381476Y-92436890D01*
X229260155Y-92207000D01*
X228067000Y-92207000D01*
X227813000Y-92207000D01*
X227793000Y-92207000D01*
X227793000Y-91953000D01*
X227813000Y-91953000D01*
X227813000Y-89667000D01*
X228067000Y-89667000D01*
X228067000Y-91953000D01*
X229260155Y-91953000D01*
X229381476Y-91723110D01*
X229211645Y-91313076D01*
X228821358Y-90884817D01*
X228662046Y-90810000D01*
X228821358Y-90735183D01*
X229211645Y-90306924D01*
X229381476Y-89896890D01*
X229260155Y-89667000D01*
X228067000Y-89667000D01*
X227813000Y-89667000D01*
X227793000Y-89667000D01*
X227793000Y-89413000D01*
X227813000Y-89413000D01*
X227813000Y-87127000D01*
X228067000Y-87127000D01*
X228067000Y-89413000D01*
X229260155Y-89413000D01*
X229381476Y-89183110D01*
X229211645Y-88773076D01*
X228821358Y-88344817D01*
X228662046Y-88270000D01*
X228821358Y-88195183D01*
X229211645Y-87766924D01*
X229381476Y-87356890D01*
X229260155Y-87127000D01*
X228067000Y-87127000D01*
X227813000Y-87127000D01*
X227793000Y-87127000D01*
X227793000Y-86873000D01*
X227813000Y-86873000D01*
X227813000Y-86853000D01*
X228067000Y-86853000D01*
X228067000Y-86873000D01*
X229260155Y-86873000D01*
X229381476Y-86643110D01*
X229222797Y-86260000D01*
X231525153Y-86260000D01*
X231600000Y-86274888D01*
X231674847Y-86260000D01*
X231674852Y-86260000D01*
X231896537Y-86215904D01*
X232147929Y-86047929D01*
X232190331Y-85984470D01*
X233281243Y-84893559D01*
X233349999Y-84907235D01*
X233461782Y-84885000D01*
X233952560Y-84885000D01*
X233952560Y-84900000D01*
X234001843Y-85147765D01*
X234142191Y-85357809D01*
X234352235Y-85498157D01*
X234600000Y-85547440D01*
X236200000Y-85547440D01*
X236447765Y-85498157D01*
X236657809Y-85357809D01*
X236798157Y-85147765D01*
X236847440Y-84900000D01*
X236847440Y-82600000D01*
X236798157Y-82352235D01*
X236657809Y-82142191D01*
X236447765Y-82001843D01*
X236200000Y-81952560D01*
X234600000Y-81952560D01*
X234352235Y-82001843D01*
X234142191Y-82142191D01*
X234001843Y-82352235D01*
X233952560Y-82600000D01*
X233952560Y-82615000D01*
X233820131Y-82615000D01*
X233785001Y-82579870D01*
X233785001Y-79335750D01*
X233965000Y-79335750D01*
X233965000Y-80326309D01*
X234061673Y-80559698D01*
X234240301Y-80738327D01*
X234473690Y-80835000D01*
X235114250Y-80835000D01*
X235273000Y-80676250D01*
X235273000Y-79177000D01*
X235527000Y-79177000D01*
X235527000Y-80676250D01*
X235685750Y-80835000D01*
X236326310Y-80835000D01*
X236559699Y-80738327D01*
X236738327Y-80559698D01*
X236835000Y-80326309D01*
X236835000Y-79335750D01*
X236676250Y-79177000D01*
X235527000Y-79177000D01*
X235273000Y-79177000D01*
X234123750Y-79177000D01*
X233965000Y-79335750D01*
X233785001Y-79335750D01*
X233785001Y-77457402D01*
X234079418Y-77398839D01*
X234570625Y-77070625D01*
X234783843Y-76751522D01*
X234844817Y-76881358D01*
X235272998Y-77271574D01*
X235272998Y-77423748D01*
X235114250Y-77265000D01*
X234473690Y-77265000D01*
X234240301Y-77361673D01*
X234061673Y-77540302D01*
X233965000Y-77773691D01*
X233965000Y-78764250D01*
X234123750Y-78923000D01*
X235273000Y-78923000D01*
X235273000Y-78903000D01*
X235527000Y-78903000D01*
X235527000Y-78923000D01*
X236676250Y-78923000D01*
X236835000Y-78764250D01*
X236835000Y-77773691D01*
X236738327Y-77540302D01*
X236568446Y-77370420D01*
X236806924Y-77271645D01*
X237235183Y-76881358D01*
X237481486Y-76356892D01*
X237360819Y-76127000D01*
X236167000Y-76127000D01*
X236167000Y-76147000D01*
X235913000Y-76147000D01*
X235913000Y-76127000D01*
X235893000Y-76127000D01*
X235893000Y-75873000D01*
X235913000Y-75873000D01*
X235913000Y-74679845D01*
X236167000Y-74679845D01*
X236167000Y-75873000D01*
X237360819Y-75873000D01*
X237481486Y-75643108D01*
X237235183Y-75118642D01*
X236806924Y-74728355D01*
X236396890Y-74558524D01*
X236167000Y-74679845D01*
X235913000Y-74679845D01*
X235683110Y-74558524D01*
X235273076Y-74728355D01*
X234844817Y-75118642D01*
X234783843Y-75248478D01*
X234635000Y-75025719D01*
X234635000Y-73474281D01*
X234783843Y-73251522D01*
X234844817Y-73381358D01*
X235273076Y-73771645D01*
X235683110Y-73941476D01*
X235913000Y-73820155D01*
X235913000Y-72627000D01*
X236167000Y-72627000D01*
X236167000Y-73820155D01*
X236396890Y-73941476D01*
X236806924Y-73771645D01*
X237235183Y-73381358D01*
X237481486Y-72856892D01*
X237360819Y-72627000D01*
X236167000Y-72627000D01*
X235913000Y-72627000D01*
X235893000Y-72627000D01*
X235893000Y-72373000D01*
X235913000Y-72373000D01*
X235913000Y-71179845D01*
X236167000Y-71179845D01*
X236167000Y-72373000D01*
X237360819Y-72373000D01*
X237481486Y-72143108D01*
X237235183Y-71618642D01*
X236806924Y-71228355D01*
X236396890Y-71058524D01*
X236167000Y-71179845D01*
X235913000Y-71179845D01*
X235683110Y-71058524D01*
X235273076Y-71228355D01*
X234844817Y-71618642D01*
X234783843Y-71748478D01*
X234635000Y-71525719D01*
X234635000Y-69974281D01*
X234783843Y-69751522D01*
X234844817Y-69881358D01*
X235273076Y-70271645D01*
X235683110Y-70441476D01*
X235913000Y-70320155D01*
X235913000Y-69127000D01*
X236167000Y-69127000D01*
X236167000Y-70320155D01*
X236396890Y-70441476D01*
X236806924Y-70271645D01*
X237235183Y-69881358D01*
X237481486Y-69356892D01*
X237360819Y-69127000D01*
X236167000Y-69127000D01*
X235913000Y-69127000D01*
X235893000Y-69127000D01*
X235893000Y-68873000D01*
X235913000Y-68873000D01*
X235913000Y-67679845D01*
X236167000Y-67679845D01*
X236167000Y-68873000D01*
X237360819Y-68873000D01*
X237481486Y-68643108D01*
X237235183Y-68118642D01*
X236806924Y-67728355D01*
X236396890Y-67558524D01*
X236167000Y-67679845D01*
X235913000Y-67679845D01*
X235683110Y-67558524D01*
X235273076Y-67728355D01*
X234844817Y-68118642D01*
X234783843Y-68248478D01*
X234635000Y-68025719D01*
X234635000Y-66474281D01*
X234783843Y-66251522D01*
X234844817Y-66381358D01*
X235273076Y-66771645D01*
X235683110Y-66941476D01*
X235913000Y-66820155D01*
X235913000Y-65627000D01*
X236167000Y-65627000D01*
X236167000Y-66820155D01*
X236396890Y-66941476D01*
X236806924Y-66771645D01*
X237235183Y-66381358D01*
X237481486Y-65856892D01*
X237360819Y-65627000D01*
X236167000Y-65627000D01*
X235913000Y-65627000D01*
X235893000Y-65627000D01*
X235893000Y-65373000D01*
X235913000Y-65373000D01*
X235913000Y-64179845D01*
X236167000Y-64179845D01*
X236167000Y-65373000D01*
X237360819Y-65373000D01*
X237481486Y-65143108D01*
X237235183Y-64618642D01*
X236806924Y-64228355D01*
X236396890Y-64058524D01*
X236167000Y-64179845D01*
X235913000Y-64179845D01*
X235683110Y-64058524D01*
X235273076Y-64228355D01*
X234844817Y-64618642D01*
X234783843Y-64748478D01*
X234635000Y-64525719D01*
X234635000Y-62974281D01*
X234783843Y-62751522D01*
X234844817Y-62881358D01*
X235273076Y-63271645D01*
X235683110Y-63441476D01*
X235913000Y-63320155D01*
X235913000Y-62127000D01*
X236167000Y-62127000D01*
X236167000Y-63320155D01*
X236396890Y-63441476D01*
X236806924Y-63271645D01*
X237235183Y-62881358D01*
X237481486Y-62356892D01*
X237360819Y-62127000D01*
X236167000Y-62127000D01*
X235913000Y-62127000D01*
X235893000Y-62127000D01*
X235893000Y-61873000D01*
X235913000Y-61873000D01*
X235913000Y-60679845D01*
X236167000Y-60679845D01*
X236167000Y-61873000D01*
X237360819Y-61873000D01*
X237481486Y-61643108D01*
X237235183Y-61118642D01*
X236806924Y-60728355D01*
X236396890Y-60558524D01*
X236167000Y-60679845D01*
X235913000Y-60679845D01*
X235683110Y-60558524D01*
X235273076Y-60728355D01*
X234844817Y-61118642D01*
X234783843Y-61248478D01*
X234635000Y-61025719D01*
X234635000Y-59474281D01*
X234783843Y-59251522D01*
X234844817Y-59381358D01*
X235273076Y-59771645D01*
X235683110Y-59941476D01*
X235913000Y-59820155D01*
X235913000Y-58627000D01*
X236167000Y-58627000D01*
X236167000Y-59820155D01*
X236396890Y-59941476D01*
X236806924Y-59771645D01*
X237235183Y-59381358D01*
X237481486Y-58856892D01*
X237360819Y-58627000D01*
X236167000Y-58627000D01*
X235913000Y-58627000D01*
X235893000Y-58627000D01*
X235893000Y-58373000D01*
X235913000Y-58373000D01*
X235913000Y-57179845D01*
X236167000Y-57179845D01*
X236167000Y-58373000D01*
X237360819Y-58373000D01*
X237481486Y-58143108D01*
X237235183Y-57618642D01*
X236806924Y-57228355D01*
X236396890Y-57058524D01*
X236167000Y-57179845D01*
X235913000Y-57179845D01*
X235683110Y-57058524D01*
X235273076Y-57228355D01*
X234844817Y-57618642D01*
X234783843Y-57748478D01*
X234635000Y-57525719D01*
X234635000Y-55974281D01*
X234783843Y-55751522D01*
X234844817Y-55881358D01*
X235273076Y-56271645D01*
X235683110Y-56441476D01*
X235913000Y-56320155D01*
X235913000Y-55127000D01*
X236167000Y-55127000D01*
X236167000Y-56320155D01*
X236396890Y-56441476D01*
X236806924Y-56271645D01*
X237235183Y-55881358D01*
X237481486Y-55356892D01*
X237360819Y-55127000D01*
X236167000Y-55127000D01*
X235913000Y-55127000D01*
X235893000Y-55127000D01*
X235893000Y-54873000D01*
X235913000Y-54873000D01*
X235913000Y-53679845D01*
X236167000Y-53679845D01*
X236167000Y-54873000D01*
X237360819Y-54873000D01*
X237481486Y-54643108D01*
X237235183Y-54118642D01*
X236806924Y-53728355D01*
X236396890Y-53558524D01*
X236167000Y-53679845D01*
X235913000Y-53679845D01*
X235683110Y-53558524D01*
X235273076Y-53728355D01*
X234844817Y-54118642D01*
X234783843Y-54248478D01*
X234635000Y-54025719D01*
X234635000Y-52474281D01*
X234783843Y-52251522D01*
X234844817Y-52381358D01*
X235273076Y-52771645D01*
X235683110Y-52941476D01*
X235913000Y-52820155D01*
X235913000Y-51627000D01*
X236167000Y-51627000D01*
X236167000Y-52820155D01*
X236396890Y-52941476D01*
X236806924Y-52771645D01*
X237235183Y-52381358D01*
X237481486Y-51856892D01*
X237360819Y-51627000D01*
X236167000Y-51627000D01*
X235913000Y-51627000D01*
X235893000Y-51627000D01*
X235893000Y-51373000D01*
X235913000Y-51373000D01*
X235913000Y-50179845D01*
X236167000Y-50179845D01*
X236167000Y-51373000D01*
X237360819Y-51373000D01*
X237481486Y-51143108D01*
X237235183Y-50618642D01*
X236806924Y-50228355D01*
X236396890Y-50058524D01*
X236167000Y-50179845D01*
X235913000Y-50179845D01*
X235683110Y-50058524D01*
X235273076Y-50228355D01*
X234844817Y-50618642D01*
X234783843Y-50748478D01*
X234635000Y-50525719D01*
X234635000Y-49761783D01*
X234657235Y-49650000D01*
X234569146Y-49207145D01*
X234381609Y-48926476D01*
X234318289Y-48831711D01*
X234223523Y-48768391D01*
X233531612Y-48076481D01*
X233468289Y-47981711D01*
X233092855Y-47730854D01*
X232761783Y-47665000D01*
X232650000Y-47642765D01*
X232538217Y-47665000D01*
X229304220Y-47665000D01*
X230293544Y-46675676D01*
X230885000Y-45247775D01*
X230885000Y-43702225D01*
X230293544Y-42274324D01*
X229200676Y-41181456D01*
X228810458Y-41019822D01*
X229016174Y-40934612D01*
X229411957Y-40464459D01*
X227000000Y-38052502D01*
X224588043Y-40464459D01*
X224983826Y-40934612D01*
X225206504Y-41012797D01*
X224799324Y-41181456D01*
X223706456Y-42274324D01*
X223115000Y-43702225D01*
X223115000Y-45247775D01*
X223706456Y-46675676D01*
X223895780Y-46865000D01*
X223470132Y-46865000D01*
X219135000Y-42529869D01*
X219135000Y-36967100D01*
X223078373Y-36967100D01*
X223163390Y-38510309D01*
X223590388Y-39541174D01*
X224060541Y-39936957D01*
X226472498Y-37525000D01*
X227527502Y-37525000D01*
X229939459Y-39936957D01*
X230409612Y-39541174D01*
X230921627Y-38082900D01*
X230836610Y-36539691D01*
X230409612Y-35508826D01*
X229939459Y-35113043D01*
X227527502Y-37525000D01*
X226472498Y-37525000D01*
X224060541Y-35113043D01*
X223590388Y-35508826D01*
X223078373Y-36967100D01*
X219135000Y-36967100D01*
X219135000Y-34585541D01*
X224588043Y-34585541D01*
X227000000Y-36997498D01*
X229411957Y-34585541D01*
X229016174Y-34115388D01*
X227557900Y-33603373D01*
X226014691Y-33688390D01*
X224983826Y-34115388D01*
X224588043Y-34585541D01*
X219135000Y-34585541D01*
X219135000Y-31285750D01*
X222615000Y-31285750D01*
X222615000Y-32876310D01*
X222711673Y-33109699D01*
X222890302Y-33288327D01*
X223123691Y-33385000D01*
X224714250Y-33385000D01*
X224873000Y-33226250D01*
X224873000Y-31127000D01*
X225127000Y-31127000D01*
X225127000Y-33226250D01*
X225285750Y-33385000D01*
X226876309Y-33385000D01*
X227109698Y-33288327D01*
X227288327Y-33109699D01*
X227385000Y-32876310D01*
X227385000Y-31285750D01*
X227226250Y-31127000D01*
X225127000Y-31127000D01*
X224873000Y-31127000D01*
X222773750Y-31127000D01*
X222615000Y-31285750D01*
X219135000Y-31285750D01*
X219135000Y-29123690D01*
X222615000Y-29123690D01*
X222615000Y-30714250D01*
X222773750Y-30873000D01*
X224873000Y-30873000D01*
X224873000Y-28773750D01*
X225127000Y-28773750D01*
X225127000Y-30873000D01*
X227226250Y-30873000D01*
X227385000Y-30714250D01*
X227385000Y-29123690D01*
X227288327Y-28890301D01*
X227109698Y-28711673D01*
X226876309Y-28615000D01*
X225285750Y-28615000D01*
X225127000Y-28773750D01*
X224873000Y-28773750D01*
X224714250Y-28615000D01*
X223123691Y-28615000D01*
X222890302Y-28711673D01*
X222711673Y-28890301D01*
X222615000Y-29123690D01*
X219135000Y-29123690D01*
X219135000Y-28147440D01*
X219500000Y-28147440D01*
X219747765Y-28098157D01*
X219957809Y-27957809D01*
X220098157Y-27747765D01*
X220147440Y-27500000D01*
X220147440Y-24500000D01*
X220098157Y-24252235D01*
X219957809Y-24042191D01*
X219747765Y-23901843D01*
X219500000Y-23852560D01*
X216500000Y-23852560D01*
X216252235Y-23901843D01*
X216042191Y-24042191D01*
X215901843Y-24252235D01*
X215852560Y-24500000D01*
X215852560Y-27500000D01*
X215901843Y-27747765D01*
X216042191Y-27957809D01*
X216252235Y-28098157D01*
X216500000Y-28147440D01*
X216865000Y-28147440D01*
X216865001Y-42529867D01*
X213976479Y-45418390D01*
X213881711Y-45481712D01*
X213630853Y-45857146D01*
X213630853Y-45857147D01*
X213542764Y-46300001D01*
X213564999Y-46411784D01*
X213564999Y-46658620D01*
X213250582Y-46721161D01*
X212855719Y-46985000D01*
X212264281Y-46985000D01*
X211869418Y-46721161D01*
X211436256Y-46635000D01*
X211143744Y-46635000D01*
X210710582Y-46721161D01*
X210219375Y-47049375D01*
X210006157Y-47368478D01*
X209945183Y-47238642D01*
X209516924Y-46848355D01*
X209106890Y-46678524D01*
X208877000Y-46799845D01*
X208877000Y-47993000D01*
X208897000Y-47993000D01*
X208897000Y-48247000D01*
X208877000Y-48247000D01*
X208877000Y-49440155D01*
X209106890Y-49561476D01*
X209516924Y-49391645D01*
X209945183Y-49001358D01*
X210006157Y-48871522D01*
X210219375Y-49190625D01*
X210710582Y-49518839D01*
X211143744Y-49605000D01*
X211436256Y-49605000D01*
X211869418Y-49518839D01*
X212264281Y-49255000D01*
X212855719Y-49255000D01*
X213250582Y-49518839D01*
X213683744Y-49605000D01*
X213976256Y-49605000D01*
X214409418Y-49518839D01*
X214900625Y-49190625D01*
X215228839Y-48699418D01*
X215316521Y-48258611D01*
X215423520Y-48151612D01*
X215518288Y-48088290D01*
X215769145Y-47712856D01*
X215787935Y-47618391D01*
X215857234Y-47270002D01*
X215834999Y-47158219D01*
X215834999Y-46770132D01*
X218000000Y-44605131D01*
X222118389Y-48723521D01*
X222181711Y-48818289D01*
X222457006Y-49002235D01*
X222557145Y-49069146D01*
X222635436Y-49084719D01*
X222602560Y-49250000D01*
X222602560Y-52750000D01*
X222645326Y-52965000D01*
X181135000Y-52965000D01*
X181135000Y-49810000D01*
X192012560Y-49810000D01*
X192012560Y-51510000D01*
X192061843Y-51757765D01*
X192202191Y-51967809D01*
X192412235Y-52108157D01*
X192660000Y-52157440D01*
X194360000Y-52157440D01*
X194607765Y-52108157D01*
X194817809Y-51967809D01*
X194958157Y-51757765D01*
X194978739Y-51654292D01*
X195283076Y-51931645D01*
X195693110Y-52101476D01*
X195923000Y-51980155D01*
X195923000Y-50787000D01*
X196177000Y-50787000D01*
X196177000Y-51980155D01*
X196406890Y-52101476D01*
X196816924Y-51931645D01*
X197245183Y-51541358D01*
X197320000Y-51382046D01*
X197394817Y-51541358D01*
X197823076Y-51931645D01*
X198233110Y-52101476D01*
X198463000Y-51980155D01*
X198463000Y-50787000D01*
X196177000Y-50787000D01*
X195923000Y-50787000D01*
X195903000Y-50787000D01*
X195903000Y-50533000D01*
X195923000Y-50533000D01*
X195923000Y-49339845D01*
X196177000Y-49339845D01*
X196177000Y-50533000D01*
X198463000Y-50533000D01*
X198463000Y-49339845D01*
X198717000Y-49339845D01*
X198717000Y-50533000D01*
X198737000Y-50533000D01*
X198737000Y-50787000D01*
X198717000Y-50787000D01*
X198717000Y-51980155D01*
X198946890Y-52101476D01*
X199356924Y-51931645D01*
X199785183Y-51541358D01*
X199846157Y-51411522D01*
X200059375Y-51730625D01*
X200550582Y-52058839D01*
X200983744Y-52145000D01*
X201276256Y-52145000D01*
X201709418Y-52058839D01*
X202200625Y-51730625D01*
X202400000Y-51432239D01*
X202599375Y-51730625D01*
X203090582Y-52058839D01*
X203523744Y-52145000D01*
X203816256Y-52145000D01*
X204249418Y-52058839D01*
X204740625Y-51730625D01*
X205068839Y-51239418D01*
X205184092Y-50660000D01*
X205068839Y-50080582D01*
X204740625Y-49589375D01*
X204249418Y-49261161D01*
X203816256Y-49175000D01*
X203523744Y-49175000D01*
X203090582Y-49261161D01*
X202599375Y-49589375D01*
X202400000Y-49887761D01*
X202200625Y-49589375D01*
X201709418Y-49261161D01*
X201276256Y-49175000D01*
X200983744Y-49175000D01*
X200550582Y-49261161D01*
X200059375Y-49589375D01*
X199846157Y-49908478D01*
X199785183Y-49778642D01*
X199356924Y-49388355D01*
X198946890Y-49218524D01*
X198717000Y-49339845D01*
X198463000Y-49339845D01*
X198233110Y-49218524D01*
X197823076Y-49388355D01*
X197394817Y-49778642D01*
X197320000Y-49937954D01*
X197245183Y-49778642D01*
X196816924Y-49388355D01*
X196406890Y-49218524D01*
X196177000Y-49339845D01*
X195923000Y-49339845D01*
X195693110Y-49218524D01*
X195283076Y-49388355D01*
X194978739Y-49665708D01*
X194958157Y-49562235D01*
X194817809Y-49352191D01*
X194607765Y-49211843D01*
X194360000Y-49162560D01*
X192660000Y-49162560D01*
X192412235Y-49211843D01*
X192202191Y-49352191D01*
X192061843Y-49562235D01*
X192012560Y-49810000D01*
X181135000Y-49810000D01*
X181135000Y-49255000D01*
X181926723Y-49255000D01*
X182042191Y-49427809D01*
X182252235Y-49568157D01*
X182500000Y-49617440D01*
X184200000Y-49617440D01*
X184447765Y-49568157D01*
X184657809Y-49427809D01*
X184773277Y-49255000D01*
X184915719Y-49255000D01*
X185310582Y-49518839D01*
X185743744Y-49605000D01*
X186036256Y-49605000D01*
X186469418Y-49518839D01*
X186960625Y-49190625D01*
X187173843Y-48871522D01*
X187234817Y-49001358D01*
X187663076Y-49391645D01*
X188073110Y-49561476D01*
X188303000Y-49440155D01*
X188303000Y-48247000D01*
X188557000Y-48247000D01*
X188557000Y-49440155D01*
X188786890Y-49561476D01*
X189196924Y-49391645D01*
X189625183Y-49001358D01*
X189700000Y-48842046D01*
X189774817Y-49001358D01*
X190203076Y-49391645D01*
X190613110Y-49561476D01*
X190843000Y-49440155D01*
X190843000Y-48247000D01*
X191097000Y-48247000D01*
X191097000Y-49440155D01*
X191326890Y-49561476D01*
X191736924Y-49391645D01*
X192165183Y-49001358D01*
X192411486Y-48476892D01*
X192374145Y-48405750D01*
X204725000Y-48405750D01*
X204725000Y-49096309D01*
X204821673Y-49329698D01*
X205000301Y-49508327D01*
X205233690Y-49605000D01*
X205924250Y-49605000D01*
X206083000Y-49446250D01*
X206083000Y-48247000D01*
X206337000Y-48247000D01*
X206337000Y-49446250D01*
X206495750Y-49605000D01*
X207186310Y-49605000D01*
X207419699Y-49508327D01*
X207598327Y-49329698D01*
X207685136Y-49120122D01*
X207983076Y-49391645D01*
X208393110Y-49561476D01*
X208623000Y-49440155D01*
X208623000Y-48247000D01*
X206337000Y-48247000D01*
X206083000Y-48247000D01*
X204883750Y-48247000D01*
X204725000Y-48405750D01*
X192374145Y-48405750D01*
X192290819Y-48247000D01*
X191097000Y-48247000D01*
X190843000Y-48247000D01*
X188557000Y-48247000D01*
X188303000Y-48247000D01*
X188283000Y-48247000D01*
X188283000Y-47993000D01*
X188303000Y-47993000D01*
X188303000Y-46799845D01*
X188557000Y-46799845D01*
X188557000Y-47993000D01*
X190843000Y-47993000D01*
X190843000Y-46799845D01*
X191097000Y-46799845D01*
X191097000Y-47993000D01*
X192290819Y-47993000D01*
X192411486Y-47763108D01*
X192165183Y-47238642D01*
X192060994Y-47143691D01*
X204725000Y-47143691D01*
X204725000Y-47834250D01*
X204883750Y-47993000D01*
X206083000Y-47993000D01*
X206083000Y-46793750D01*
X206337000Y-46793750D01*
X206337000Y-47993000D01*
X208623000Y-47993000D01*
X208623000Y-46799845D01*
X208393110Y-46678524D01*
X207983076Y-46848355D01*
X207685136Y-47119878D01*
X207598327Y-46910302D01*
X207419699Y-46731673D01*
X207186310Y-46635000D01*
X206495750Y-46635000D01*
X206337000Y-46793750D01*
X206083000Y-46793750D01*
X205924250Y-46635000D01*
X205233690Y-46635000D01*
X205000301Y-46731673D01*
X204821673Y-46910302D01*
X204725000Y-47143691D01*
X192060994Y-47143691D01*
X191736924Y-46848355D01*
X191326890Y-46678524D01*
X191097000Y-46799845D01*
X190843000Y-46799845D01*
X190613110Y-46678524D01*
X190203076Y-46848355D01*
X189774817Y-47238642D01*
X189700000Y-47397954D01*
X189625183Y-47238642D01*
X189196924Y-46848355D01*
X188786890Y-46678524D01*
X188557000Y-46799845D01*
X188303000Y-46799845D01*
X188073110Y-46678524D01*
X187663076Y-46848355D01*
X187234817Y-47238642D01*
X187173843Y-47368478D01*
X186960625Y-47049375D01*
X186469418Y-46721161D01*
X186036256Y-46635000D01*
X185743744Y-46635000D01*
X185310582Y-46721161D01*
X184915719Y-46985000D01*
X184773277Y-46985000D01*
X184657809Y-46812191D01*
X184447765Y-46671843D01*
X184200000Y-46622560D01*
X182500000Y-46622560D01*
X182252235Y-46671843D01*
X182042191Y-46812191D01*
X181926723Y-46985000D01*
X180111783Y-46985000D01*
X180000000Y-46962765D01*
X179888217Y-46985000D01*
X175241782Y-46985000D01*
X175129999Y-46962765D01*
X174869480Y-47014585D01*
X174687145Y-47050854D01*
X174311711Y-47301711D01*
X174269423Y-47365000D01*
X174111783Y-47365000D01*
X174000000Y-47342765D01*
X173888217Y-47365000D01*
X169634511Y-47365000D01*
X169647440Y-47300000D01*
X169647440Y-45700000D01*
X169598157Y-45452235D01*
X169457809Y-45242191D01*
X169247765Y-45101843D01*
X169000000Y-45052560D01*
X166700000Y-45052560D01*
X166452235Y-45101843D01*
X166242191Y-45242191D01*
X166101843Y-45452235D01*
X166052560Y-45700000D01*
X166052560Y-47300000D01*
X166101843Y-47547765D01*
X166242191Y-47757809D01*
X166452235Y-47898157D01*
X166700000Y-47947440D01*
X166715000Y-47947440D01*
X166715000Y-48179868D01*
X166276479Y-48618390D01*
X166181712Y-48681711D01*
X166073593Y-48843523D01*
X165930854Y-49057146D01*
X165842765Y-49500000D01*
X165865000Y-49611783D01*
X165865000Y-50025719D01*
X165716157Y-50248478D01*
X165655183Y-50118642D01*
X165226924Y-49728355D01*
X164816890Y-49558524D01*
X164587000Y-49679845D01*
X164333000Y-49679845D01*
X164103110Y-49558524D01*
X163693076Y-49728355D01*
X163264817Y-50118642D01*
X163018514Y-50643108D01*
X158239479Y-50643108D01*
X160392425Y-46785750D01*
X161365000Y-46785750D01*
X161365000Y-47426310D01*
X161461673Y-47659699D01*
X161640302Y-47838327D01*
X161873691Y-47935000D01*
X162864250Y-47935000D01*
X163023000Y-47776250D01*
X163023000Y-46627000D01*
X163277000Y-46627000D01*
X163277000Y-47776250D01*
X163435750Y-47935000D01*
X164426309Y-47935000D01*
X164659698Y-47838327D01*
X164838327Y-47659699D01*
X164935000Y-47426310D01*
X164935000Y-46785750D01*
X164776250Y-46627000D01*
X163277000Y-46627000D01*
X163023000Y-46627000D01*
X161523750Y-46627000D01*
X161365000Y-46785750D01*
X160392425Y-46785750D01*
X161068923Y-45573690D01*
X161365000Y-45573690D01*
X161365000Y-46214250D01*
X161523750Y-46373000D01*
X163023000Y-46373000D01*
X163023000Y-45223750D01*
X163277000Y-45223750D01*
X163277000Y-46373000D01*
X164776250Y-46373000D01*
X164935000Y-46214250D01*
X164935000Y-45573690D01*
X164838327Y-45340301D01*
X164659698Y-45161673D01*
X164426309Y-45065000D01*
X163435750Y-45065000D01*
X163277000Y-45223750D01*
X163023000Y-45223750D01*
X162864250Y-45065000D01*
X161873691Y-45065000D01*
X161640302Y-45161673D01*
X161461673Y-45340301D01*
X161365000Y-45573690D01*
X161068923Y-45573690D01*
X166970518Y-35000000D01*
X194842765Y-35000000D01*
X194930854Y-35442854D01*
X195118392Y-35723523D01*
X196865000Y-37470132D01*
X196865000Y-38111782D01*
X196865001Y-38111787D01*
X196865000Y-41111782D01*
X196930854Y-41442854D01*
X197181711Y-41818289D01*
X197557145Y-42069146D01*
X198000000Y-42157235D01*
X198442854Y-42069146D01*
X198818289Y-41818289D01*
X199000001Y-41546339D01*
X199181712Y-41818289D01*
X199557146Y-42069146D01*
X200000000Y-42157235D01*
X200442855Y-42069146D01*
X200818289Y-41818289D01*
X201069146Y-41442855D01*
X201135000Y-41111783D01*
X201135000Y-39748381D01*
X201181711Y-39818289D01*
X201276482Y-39881613D01*
X203276476Y-41881608D01*
X203557145Y-42069146D01*
X203999999Y-42157235D01*
X204442854Y-42069146D01*
X204818288Y-41818288D01*
X205069146Y-41442854D01*
X205157235Y-40999999D01*
X205069146Y-40557145D01*
X204881608Y-40276476D01*
X203135000Y-38529869D01*
X203135000Y-34888217D01*
X203069146Y-34557145D01*
X202818289Y-34181711D01*
X202442855Y-33930854D01*
X202000000Y-33842765D01*
X201557146Y-33930854D01*
X201181712Y-34181711D01*
X201000001Y-34453661D01*
X200818289Y-34181711D01*
X200442854Y-33930854D01*
X200000000Y-33842765D01*
X199557145Y-33930854D01*
X199181711Y-34181711D01*
X198930854Y-34557146D01*
X198865000Y-34888218D01*
X198865000Y-36251619D01*
X198818289Y-36181711D01*
X198723521Y-36118389D01*
X196723523Y-34118392D01*
X196442854Y-33930854D01*
X196000000Y-33842765D01*
X195557146Y-33930854D01*
X195181712Y-34181712D01*
X194930854Y-34557146D01*
X194842765Y-35000000D01*
X166970518Y-35000000D01*
X169043588Y-31285750D01*
X172615000Y-31285750D01*
X172615000Y-32876310D01*
X172711673Y-33109699D01*
X172890302Y-33288327D01*
X173123691Y-33385000D01*
X174714250Y-33385000D01*
X174873000Y-33226250D01*
X174873000Y-31127000D01*
X175127000Y-31127000D01*
X175127000Y-33226250D01*
X175285750Y-33385000D01*
X176876309Y-33385000D01*
X177109698Y-33288327D01*
X177288327Y-33109699D01*
X177385000Y-32876310D01*
X177385000Y-31285750D01*
X177226250Y-31127000D01*
X175127000Y-31127000D01*
X174873000Y-31127000D01*
X172773750Y-31127000D01*
X172615000Y-31285750D01*
X169043588Y-31285750D01*
X170250319Y-29123690D01*
X172615000Y-29123690D01*
X172615000Y-30714250D01*
X172773750Y-30873000D01*
X174873000Y-30873000D01*
X174873000Y-28773750D01*
X175127000Y-28773750D01*
X175127000Y-30873000D01*
X177226250Y-30873000D01*
X177385000Y-30714250D01*
X177385000Y-29123690D01*
X177288327Y-28890301D01*
X177109698Y-28711673D01*
X176876309Y-28615000D01*
X175285750Y-28615000D01*
X175127000Y-28773750D01*
X174873000Y-28773750D01*
X174714250Y-28615000D01*
X173123691Y-28615000D01*
X172890302Y-28711673D01*
X172711673Y-28890301D01*
X172615000Y-29123690D01*
X170250319Y-29123690D01*
X171834286Y-26285750D01*
X207865000Y-26285750D01*
X207865000Y-27626310D01*
X207961673Y-27859699D01*
X208140302Y-28038327D01*
X208373691Y-28135000D01*
X209714250Y-28135000D01*
X209873000Y-27976250D01*
X209873000Y-26127000D01*
X210127000Y-26127000D01*
X210127000Y-27976250D01*
X210285750Y-28135000D01*
X211626309Y-28135000D01*
X211859698Y-28038327D01*
X212038327Y-27859699D01*
X212135000Y-27626310D01*
X212135000Y-26285750D01*
X211976250Y-26127000D01*
X210127000Y-26127000D01*
X209873000Y-26127000D01*
X208023750Y-26127000D01*
X207865000Y-26285750D01*
X171834286Y-26285750D01*
X172901482Y-24373690D01*
X207865000Y-24373690D01*
X207865000Y-25714250D01*
X208023750Y-25873000D01*
X209873000Y-25873000D01*
X209873000Y-24023750D01*
X210127000Y-24023750D01*
X210127000Y-25873000D01*
X211976250Y-25873000D01*
X212135000Y-25714250D01*
X212135000Y-24373690D01*
X212038327Y-24140301D01*
X211859698Y-23961673D01*
X211626309Y-23865000D01*
X210285750Y-23865000D01*
X210127000Y-24023750D01*
X209873000Y-24023750D01*
X209714250Y-23865000D01*
X208373691Y-23865000D01*
X208140302Y-23961673D01*
X207961673Y-24140301D01*
X207865000Y-24373690D01*
X172901482Y-24373690D01*
X174402148Y-21685000D01*
X225597853Y-21685000D01*
X249213315Y-63996036D01*
X249213315Y-63996036D01*
G37*
X249213315Y-63996036D02*
X225602480Y-105315000D01*
X174397521Y-105315000D01*
X173409379Y-103585750D01*
X181215000Y-103585750D01*
X181215000Y-104676309D01*
X181311673Y-104909698D01*
X181490301Y-105088327D01*
X181723690Y-105185000D01*
X182564250Y-105185000D01*
X182723000Y-105026250D01*
X182723000Y-103427000D01*
X182977000Y-103427000D01*
X182977000Y-105026250D01*
X183135750Y-105185000D01*
X183976310Y-105185000D01*
X184209699Y-105088327D01*
X184388327Y-104909698D01*
X184485000Y-104676309D01*
X184485000Y-103585750D01*
X190115000Y-103585750D01*
X190115000Y-104676309D01*
X190211673Y-104909698D01*
X190390301Y-105088327D01*
X190623690Y-105185000D01*
X191464250Y-105185000D01*
X191623000Y-105026250D01*
X191623000Y-103427000D01*
X191877000Y-103427000D01*
X191877000Y-105026250D01*
X192035750Y-105185000D01*
X192876310Y-105185000D01*
X193109699Y-105088327D01*
X193288327Y-104909698D01*
X193385000Y-104676309D01*
X193385000Y-103585750D01*
X193226250Y-103427000D01*
X191877000Y-103427000D01*
X191623000Y-103427000D01*
X190273750Y-103427000D01*
X190115000Y-103585750D01*
X184485000Y-103585750D01*
X184326250Y-103427000D01*
X182977000Y-103427000D01*
X182723000Y-103427000D01*
X181373750Y-103427000D01*
X181215000Y-103585750D01*
X173409379Y-103585750D01*
X172459631Y-101923691D01*
X181215000Y-101923691D01*
X181215000Y-103014250D01*
X181373750Y-103173000D01*
X182723000Y-103173000D01*
X182723000Y-101573750D01*
X182977000Y-101573750D01*
X182977000Y-103173000D01*
X184326250Y-103173000D01*
X184485000Y-103014250D01*
X184485000Y-101923691D01*
X184388327Y-101690302D01*
X184209699Y-101511673D01*
X183976310Y-101415000D01*
X183135750Y-101415000D01*
X182977000Y-101573750D01*
X182723000Y-101573750D01*
X182564250Y-101415000D01*
X181723690Y-101415000D01*
X181490301Y-101511673D01*
X181311673Y-101690302D01*
X181215000Y-101923691D01*
X172459631Y-101923691D01*
X170266522Y-98085750D01*
X181215000Y-98085750D01*
X181215000Y-99176309D01*
X181311673Y-99409698D01*
X181490301Y-99588327D01*
X181723690Y-99685000D01*
X182564250Y-99685000D01*
X182723000Y-99526250D01*
X182723000Y-97927000D01*
X182977000Y-97927000D01*
X182977000Y-99526250D01*
X183135750Y-99685000D01*
X183976310Y-99685000D01*
X184209699Y-99588327D01*
X184388327Y-99409698D01*
X184485000Y-99176309D01*
X184485000Y-98085750D01*
X184326250Y-97927000D01*
X182977000Y-97927000D01*
X182723000Y-97927000D01*
X181373750Y-97927000D01*
X181215000Y-98085750D01*
X170266522Y-98085750D01*
X169316774Y-96423691D01*
X181215000Y-96423691D01*
X181215000Y-97514250D01*
X181373750Y-97673000D01*
X182723000Y-97673000D01*
X182723000Y-96073750D01*
X182977000Y-96073750D01*
X182977000Y-97673000D01*
X184326250Y-97673000D01*
X184485000Y-97514250D01*
X184485000Y-96423691D01*
X184388327Y-96190302D01*
X184209699Y-96011673D01*
X183976310Y-95915000D01*
X183135750Y-95915000D01*
X182977000Y-96073750D01*
X182723000Y-96073750D01*
X182564250Y-95915000D01*
X181723690Y-95915000D01*
X181490301Y-96011673D01*
X181311673Y-96190302D01*
X181215000Y-96423691D01*
X169316774Y-96423691D01*
X165237950Y-89285750D01*
X168965000Y-89285750D01*
X168965000Y-90001309D01*
X169061673Y-90234698D01*
X169240301Y-90413327D01*
X169473690Y-90510000D01*
X171714250Y-90510000D01*
X171873000Y-90351250D01*
X171873000Y-89127000D01*
X169123750Y-89127000D01*
X168965000Y-89285750D01*
X165237950Y-89285750D01*
X164502488Y-87998691D01*
X168965000Y-87998691D01*
X168965000Y-88714250D01*
X169123750Y-88873000D01*
X171873000Y-88873000D01*
X171873000Y-87648750D01*
X171714250Y-87490000D01*
X169473690Y-87490000D01*
X169240301Y-87586673D01*
X169061673Y-87765302D01*
X168965000Y-87998691D01*
X164502488Y-87998691D01*
X161523665Y-82785750D01*
X169865000Y-82785750D01*
X169865000Y-83251310D01*
X169961673Y-83484699D01*
X170140302Y-83663327D01*
X170373691Y-83760000D01*
X170964250Y-83760000D01*
X171123000Y-83601250D01*
X171123000Y-82627000D01*
X170023750Y-82627000D01*
X169865000Y-82785750D01*
X161523665Y-82785750D01*
X160931060Y-81748690D01*
X169865000Y-81748690D01*
X169865000Y-82214250D01*
X170023750Y-82373000D01*
X171123000Y-82373000D01*
X171123000Y-81398750D01*
X170964250Y-81240000D01*
X170373691Y-81240000D01*
X170140302Y-81336673D01*
X169961673Y-81515301D01*
X169865000Y-81748690D01*
X160931060Y-81748690D01*
X157564317Y-75856892D01*
X163018514Y-75856892D01*
X163264817Y-76381358D01*
X163693076Y-76771645D01*
X164103110Y-76941476D01*
X164333000Y-76820155D01*
X164333000Y-75627000D01*
X163139181Y-75627000D01*
X163018514Y-75856892D01*
X157564317Y-75856892D01*
X157156441Y-75143108D01*
X163018514Y-75143108D01*
X163139181Y-75373000D01*
X164333000Y-75373000D01*
X164333000Y-74179845D01*
X164103110Y-74058524D01*
X163693076Y-74228355D01*
X163264817Y-74618642D01*
X163018514Y-75143108D01*
X157156441Y-75143108D01*
X155564318Y-72356892D01*
X163018514Y-72356892D01*
X163264817Y-72881358D01*
X163693076Y-73271645D01*
X164103110Y-73441476D01*
X164333000Y-73320155D01*
X164333000Y-72127000D01*
X163139181Y-72127000D01*
X163018514Y-72356892D01*
X155564318Y-72356892D01*
X155156442Y-71643108D01*
X163018514Y-71643108D01*
X163139181Y-71873000D01*
X164333000Y-71873000D01*
X164333000Y-70679845D01*
X164103110Y-70558524D01*
X163693076Y-70728355D01*
X163264817Y-71118642D01*
X163018514Y-71643108D01*
X155156442Y-71643108D01*
X153564318Y-68856892D01*
X163018514Y-68856892D01*
X163264817Y-69381358D01*
X163693076Y-69771645D01*
X164103110Y-69941476D01*
X164333000Y-69820155D01*
X164333000Y-68627000D01*
X163139181Y-68627000D01*
X163018514Y-68856892D01*
X153564318Y-68856892D01*
X153156442Y-68143108D01*
X163018514Y-68143108D01*
X163139181Y-68373000D01*
X164333000Y-68373000D01*
X164333000Y-67179845D01*
X164103110Y-67058524D01*
X163693076Y-67228355D01*
X163264817Y-67618642D01*
X163018514Y-68143108D01*
X153156442Y-68143108D01*
X151564317Y-65356892D01*
X163018514Y-65356892D01*
X163264817Y-65881358D01*
X163693076Y-66271645D01*
X164103110Y-66441476D01*
X164333000Y-66320155D01*
X164333000Y-65127000D01*
X163139181Y-65127000D01*
X163018514Y-65356892D01*
X151564317Y-65356892D01*
X151156440Y-64643108D01*
X163018514Y-64643108D01*
X163139181Y-64873000D01*
X164333000Y-64873000D01*
X164333000Y-63679845D01*
X164103110Y-63558524D01*
X163693076Y-63728355D01*
X163264817Y-64118642D01*
X163018514Y-64643108D01*
X151156440Y-64643108D01*
X150786684Y-63996036D01*
X151980624Y-61856892D01*
X163018514Y-61856892D01*
X163264817Y-62381358D01*
X163693076Y-62771645D01*
X164103110Y-62941476D01*
X164333000Y-62820155D01*
X164333000Y-61627000D01*
X163139181Y-61627000D01*
X163018514Y-61856892D01*
X151980624Y-61856892D01*
X152379015Y-61143108D01*
X163018514Y-61143108D01*
X163139181Y-61373000D01*
X164333000Y-61373000D01*
X164333000Y-60179845D01*
X164103110Y-60058524D01*
X163693076Y-60228355D01*
X163264817Y-60618642D01*
X163018514Y-61143108D01*
X152379015Y-61143108D01*
X153934112Y-58356892D01*
X163018514Y-58356892D01*
X163264817Y-58881358D01*
X163693076Y-59271645D01*
X164103110Y-59441476D01*
X164333000Y-59320155D01*
X164333000Y-58127000D01*
X163139181Y-58127000D01*
X163018514Y-58356892D01*
X153934112Y-58356892D01*
X154332503Y-57643108D01*
X163018514Y-57643108D01*
X163139181Y-57873000D01*
X164333000Y-57873000D01*
X164333000Y-56679845D01*
X164103110Y-56558524D01*
X163693076Y-56728355D01*
X163264817Y-57118642D01*
X163018514Y-57643108D01*
X154332503Y-57643108D01*
X155887600Y-54856892D01*
X163018514Y-54856892D01*
X163264817Y-55381358D01*
X163693076Y-55771645D01*
X164103110Y-55941476D01*
X164333000Y-55820155D01*
X164333000Y-54627000D01*
X163139181Y-54627000D01*
X163018514Y-54856892D01*
X155887600Y-54856892D01*
X156285991Y-54143108D01*
X163018514Y-54143108D01*
X163139181Y-54373000D01*
X164333000Y-54373000D01*
X164333000Y-53179845D01*
X164103110Y-53058524D01*
X163693076Y-53228355D01*
X163264817Y-53618642D01*
X163018514Y-54143108D01*
X156285991Y-54143108D01*
X157841088Y-51356892D01*
X163018514Y-51356892D01*
X163264817Y-51881358D01*
X163693076Y-52271645D01*
X164103110Y-52441476D01*
X164333000Y-52320155D01*
X164333000Y-51127000D01*
X163139181Y-51127000D01*
X163018514Y-51356892D01*
X157841088Y-51356892D01*
X158239479Y-50643108D01*
X163018514Y-50643108D01*
X163139181Y-50873000D01*
X164333000Y-50873000D01*
X164333000Y-49679845D01*
X164587000Y-49679845D01*
X164587000Y-50873000D01*
X164607000Y-50873000D01*
X164607000Y-51127000D01*
X164587000Y-51127000D01*
X164587000Y-52320155D01*
X164816890Y-52441476D01*
X165226924Y-52271645D01*
X165655183Y-51881358D01*
X165716157Y-51751522D01*
X165865001Y-51974282D01*
X165865001Y-53525718D01*
X165716157Y-53748478D01*
X165655183Y-53618642D01*
X165226924Y-53228355D01*
X164816890Y-53058524D01*
X164587000Y-53179845D01*
X164587000Y-54373000D01*
X164607000Y-54373000D01*
X164607000Y-54627000D01*
X164587000Y-54627000D01*
X164587000Y-55820155D01*
X164816890Y-55941476D01*
X165226924Y-55771645D01*
X165655183Y-55381358D01*
X165716157Y-55251522D01*
X165865001Y-55474282D01*
X165865001Y-57025718D01*
X165716157Y-57248478D01*
X165655183Y-57118642D01*
X165226924Y-56728355D01*
X164816890Y-56558524D01*
X164587000Y-56679845D01*
X164587000Y-57873000D01*
X164607000Y-57873000D01*
X164607000Y-58127000D01*
X164587000Y-58127000D01*
X164587000Y-59320155D01*
X164816890Y-59441476D01*
X165226924Y-59271645D01*
X165655183Y-58881358D01*
X165716157Y-58751522D01*
X165865001Y-58974282D01*
X165865001Y-60525718D01*
X165716157Y-60748478D01*
X165655183Y-60618642D01*
X165226924Y-60228355D01*
X164816890Y-60058524D01*
X164587000Y-60179845D01*
X164587000Y-61373000D01*
X164607000Y-61373000D01*
X164607000Y-61627000D01*
X164587000Y-61627000D01*
X164587000Y-62820155D01*
X164816890Y-62941476D01*
X165226924Y-62771645D01*
X165655183Y-62381358D01*
X165716157Y-62251522D01*
X165865001Y-62474282D01*
X165865000Y-64025718D01*
X165716157Y-64248478D01*
X165655183Y-64118642D01*
X165226924Y-63728355D01*
X164816890Y-63558524D01*
X164587000Y-63679845D01*
X164587000Y-64873000D01*
X164607000Y-64873000D01*
X164607000Y-65127000D01*
X164587000Y-65127000D01*
X164587000Y-66320155D01*
X164816890Y-66441476D01*
X165226924Y-66271645D01*
X165655183Y-65881358D01*
X165716157Y-65751522D01*
X165865000Y-65974282D01*
X165865000Y-67525719D01*
X165716157Y-67748478D01*
X165655183Y-67618642D01*
X165226924Y-67228355D01*
X164816890Y-67058524D01*
X164587000Y-67179845D01*
X164587000Y-68373000D01*
X164607000Y-68373000D01*
X164607000Y-68627000D01*
X164587000Y-68627000D01*
X164587000Y-69820155D01*
X164816890Y-69941476D01*
X165226924Y-69771645D01*
X165655183Y-69381358D01*
X165716157Y-69251522D01*
X165865000Y-69474281D01*
X165865000Y-71025719D01*
X165716157Y-71248478D01*
X165655183Y-71118642D01*
X165226924Y-70728355D01*
X164816890Y-70558524D01*
X164587000Y-70679845D01*
X164587000Y-71873000D01*
X164607000Y-71873000D01*
X164607000Y-72127000D01*
X164587000Y-72127000D01*
X164587000Y-73320155D01*
X164816890Y-73441476D01*
X165226924Y-73271645D01*
X165655183Y-72881358D01*
X165716157Y-72751522D01*
X165865000Y-72974281D01*
X165865000Y-74525719D01*
X165716157Y-74748478D01*
X165655183Y-74618642D01*
X165226924Y-74228355D01*
X164816890Y-74058524D01*
X164587000Y-74179845D01*
X164587000Y-75373000D01*
X164607000Y-75373000D01*
X164607000Y-75627000D01*
X164587000Y-75627000D01*
X164587000Y-76820155D01*
X164816890Y-76941476D01*
X165226924Y-76771645D01*
X165655183Y-76381358D01*
X165716157Y-76251522D01*
X165929375Y-76570625D01*
X166240287Y-76778370D01*
X166284097Y-76998618D01*
X166390082Y-77157235D01*
X166452072Y-77250010D01*
X166515528Y-77292410D01*
X167207590Y-77984473D01*
X167249990Y-78047929D01*
X167501382Y-78215904D01*
X167723067Y-78260000D01*
X167723072Y-78260000D01*
X167797919Y-78274888D01*
X167872766Y-78260000D01*
X171175153Y-78260000D01*
X171250000Y-78274888D01*
X171324847Y-78260000D01*
X171324852Y-78260000D01*
X171546537Y-78215904D01*
X171797929Y-78047929D01*
X171840331Y-77984470D01*
X174484476Y-75340327D01*
X174547929Y-75297929D01*
X174590327Y-75234476D01*
X174590329Y-75234474D01*
X174715903Y-75046538D01*
X174715904Y-75046537D01*
X174760000Y-74824852D01*
X174760000Y-74824848D01*
X174774888Y-74750001D01*
X174760000Y-74675154D01*
X174760000Y-72064801D01*
X178339051Y-68485750D01*
X190715000Y-68485750D01*
X190715000Y-69076309D01*
X190811673Y-69309698D01*
X190990301Y-69488327D01*
X191223690Y-69585000D01*
X191714250Y-69585000D01*
X191873000Y-69426250D01*
X191873000Y-68327000D01*
X192127000Y-68327000D01*
X192127000Y-69426250D01*
X192285750Y-69585000D01*
X192776310Y-69585000D01*
X193009699Y-69488327D01*
X193188327Y-69309698D01*
X193285000Y-69076309D01*
X193285000Y-68485750D01*
X193126250Y-68327000D01*
X192127000Y-68327000D01*
X191873000Y-68327000D01*
X190873750Y-68327000D01*
X190715000Y-68485750D01*
X178339051Y-68485750D01*
X180564802Y-66260000D01*
X185112424Y-66260000D01*
X185136843Y-66382765D01*
X185277191Y-66592809D01*
X185487235Y-66733157D01*
X185735000Y-66782440D01*
X186705000Y-66782440D01*
X186860000Y-66751609D01*
X187015000Y-66782440D01*
X187985000Y-66782440D01*
X188232765Y-66733157D01*
X188442809Y-66592809D01*
X188573066Y-66397867D01*
X189283068Y-67107870D01*
X189325469Y-67171327D01*
X189388925Y-67213727D01*
X189576860Y-67339302D01*
X189625003Y-67348878D01*
X189798546Y-67383398D01*
X189798550Y-67383398D01*
X189873398Y-67398286D01*
X189948246Y-67383398D01*
X190715000Y-67383398D01*
X190715000Y-67914250D01*
X190873750Y-68073000D01*
X191873000Y-68073000D01*
X191873000Y-68053000D01*
X192127000Y-68053000D01*
X192127000Y-68073000D01*
X193126250Y-68073000D01*
X193285000Y-67914250D01*
X193285000Y-67383398D01*
X193301755Y-67383398D01*
X193376602Y-67398286D01*
X193451449Y-67383398D01*
X193451454Y-67383398D01*
X193673139Y-67339302D01*
X193924531Y-67171327D01*
X193966933Y-67107868D01*
X195189802Y-65885000D01*
X195271773Y-65885000D01*
X195234671Y-65940527D01*
X194265528Y-66909671D01*
X194202072Y-66952071D01*
X194159672Y-67015527D01*
X194159671Y-67015528D01*
X194034097Y-67203463D01*
X193975112Y-67500000D01*
X193990001Y-67574852D01*
X193990000Y-69425153D01*
X193975112Y-69500000D01*
X193990000Y-69574847D01*
X193990000Y-69574851D01*
X194034096Y-69796536D01*
X194202071Y-70047929D01*
X194265530Y-70090331D01*
X194909670Y-70734472D01*
X194913364Y-70740000D01*
X181074848Y-70740000D01*
X181000000Y-70725112D01*
X180925152Y-70740000D01*
X180925148Y-70740000D01*
X180751605Y-70774520D01*
X180703462Y-70784096D01*
X180526656Y-70902235D01*
X180452071Y-70952071D01*
X180409671Y-71015527D01*
X177515528Y-73909671D01*
X177452072Y-73952071D01*
X177409672Y-74015527D01*
X177409671Y-74015528D01*
X177385406Y-74051843D01*
X177284097Y-74203463D01*
X177265307Y-74297929D01*
X177225112Y-74500000D01*
X177240001Y-74574852D01*
X177240000Y-80825153D01*
X177225112Y-80900000D01*
X177240000Y-80974847D01*
X177240000Y-80974851D01*
X177284096Y-81196536D01*
X177452071Y-81447929D01*
X177515530Y-81490331D01*
X178040001Y-82014803D01*
X178040001Y-82515000D01*
X177635750Y-82515000D01*
X177477000Y-82673750D01*
X177477000Y-83423000D01*
X177497000Y-83423000D01*
X177497000Y-83677000D01*
X177477000Y-83677000D01*
X177477000Y-83697000D01*
X177223000Y-83697000D01*
X177223000Y-83677000D01*
X177203000Y-83677000D01*
X177203000Y-83423000D01*
X177223000Y-83423000D01*
X177223000Y-82673750D01*
X177064250Y-82515000D01*
X176573691Y-82515000D01*
X176340302Y-82611673D01*
X176221314Y-82730660D01*
X176215904Y-82703463D01*
X176215904Y-82703462D01*
X176090329Y-82515527D01*
X176047929Y-82452071D01*
X175984472Y-82409671D01*
X175590331Y-82015529D01*
X175547929Y-81952071D01*
X175296537Y-81784096D01*
X175122471Y-81749472D01*
X175098157Y-81627235D01*
X174957809Y-81417191D01*
X174747765Y-81276843D01*
X174500000Y-81227560D01*
X173000000Y-81227560D01*
X172752235Y-81276843D01*
X172542191Y-81417191D01*
X172501346Y-81478320D01*
X172359698Y-81336673D01*
X172126309Y-81240000D01*
X171535750Y-81240000D01*
X171377000Y-81398750D01*
X171377000Y-82373000D01*
X171397000Y-82373000D01*
X171397000Y-82627000D01*
X171377000Y-82627000D01*
X171377000Y-83601250D01*
X171535750Y-83760000D01*
X172126309Y-83760000D01*
X172359698Y-83663327D01*
X172501346Y-83521680D01*
X172542191Y-83582809D01*
X172752235Y-83723157D01*
X173000000Y-83772440D01*
X174500000Y-83772440D01*
X174740001Y-83724701D01*
X174740001Y-84338473D01*
X174647765Y-84276843D01*
X174400000Y-84227560D01*
X169600000Y-84227560D01*
X169352235Y-84276843D01*
X169142191Y-84417191D01*
X169001843Y-84627235D01*
X168952560Y-84875000D01*
X168952560Y-86625000D01*
X169001843Y-86872765D01*
X169142191Y-87082809D01*
X169352235Y-87223157D01*
X169600000Y-87272440D01*
X173972639Y-87272440D01*
X174190198Y-87490000D01*
X172285750Y-87490000D01*
X172127000Y-87648750D01*
X172127000Y-88873000D01*
X172147000Y-88873000D01*
X172147000Y-89127000D01*
X172127000Y-89127000D01*
X172127000Y-90351250D01*
X172285750Y-90510000D01*
X174526310Y-90510000D01*
X174759699Y-90413327D01*
X174938327Y-90234698D01*
X174990000Y-90109948D01*
X174990000Y-90395153D01*
X174975112Y-90470000D01*
X174990000Y-90544847D01*
X174990000Y-90544851D01*
X175034096Y-90766536D01*
X175202071Y-91017929D01*
X175265529Y-91060330D01*
X175695198Y-91490000D01*
X175047440Y-91490000D01*
X175047440Y-91375000D01*
X174998157Y-91127235D01*
X174857809Y-90917191D01*
X174647765Y-90776843D01*
X174400000Y-90727560D01*
X169600000Y-90727560D01*
X169352235Y-90776843D01*
X169142191Y-90917191D01*
X169001843Y-91127235D01*
X168952560Y-91375000D01*
X168952560Y-93125000D01*
X169001843Y-93372765D01*
X169142191Y-93582809D01*
X169352235Y-93723157D01*
X169600000Y-93772440D01*
X174400000Y-93772440D01*
X174647765Y-93723157D01*
X174857809Y-93582809D01*
X174998157Y-93372765D01*
X175047440Y-93125000D01*
X175047440Y-93010000D01*
X176084386Y-93010000D01*
X176101843Y-93097765D01*
X176242191Y-93307809D01*
X176452235Y-93448157D01*
X176700000Y-93497440D01*
X178000000Y-93497440D01*
X178247765Y-93448157D01*
X178440000Y-93319709D01*
X178440000Y-93525153D01*
X178425112Y-93600000D01*
X178440000Y-93674847D01*
X178440000Y-93674851D01*
X178484096Y-93896536D01*
X178652071Y-94147929D01*
X178715530Y-94190331D01*
X180109673Y-95584476D01*
X180152071Y-95647929D01*
X180215524Y-95690327D01*
X180215526Y-95690329D01*
X180340902Y-95774102D01*
X180403463Y-95815904D01*
X180625148Y-95860000D01*
X180625152Y-95860000D01*
X180699999Y-95874888D01*
X180774846Y-95860000D01*
X185585199Y-95860000D01*
X185627759Y-95902560D01*
X185450000Y-95902560D01*
X185202235Y-95951843D01*
X184992191Y-96092191D01*
X184851843Y-96302235D01*
X184802560Y-96550000D01*
X184802560Y-98850000D01*
X184851843Y-99097765D01*
X184930178Y-99215000D01*
X184884180Y-99215000D01*
X184485397Y-99380182D01*
X184180182Y-99685397D01*
X184015000Y-100084180D01*
X184015000Y-100515820D01*
X184180182Y-100914603D01*
X184485397Y-101219818D01*
X184884180Y-101385000D01*
X185315820Y-101385000D01*
X185714603Y-101219818D01*
X186019818Y-100914603D01*
X186054960Y-100829762D01*
X187109671Y-101884473D01*
X187152071Y-101947929D01*
X187403463Y-102115904D01*
X187625148Y-102160000D01*
X187625152Y-102160000D01*
X187699999Y-102174888D01*
X187774846Y-102160000D01*
X190115000Y-102160000D01*
X190115000Y-103014250D01*
X190273750Y-103173000D01*
X191623000Y-103173000D01*
X191623000Y-103153000D01*
X191877000Y-103153000D01*
X191877000Y-103173000D01*
X193226250Y-103173000D01*
X193385000Y-103014250D01*
X193385000Y-101923691D01*
X193288327Y-101690302D01*
X193109699Y-101511673D01*
X192876310Y-101415000D01*
X192659801Y-101415000D01*
X193579981Y-100494821D01*
X196506394Y-100494821D01*
X196405908Y-101000000D01*
X196521161Y-101579418D01*
X196849375Y-102070625D01*
X197340582Y-102398839D01*
X197773744Y-102485000D01*
X198066256Y-102485000D01*
X198499418Y-102398839D01*
X198990625Y-102070625D01*
X199203843Y-101751522D01*
X199264817Y-101881358D01*
X199693076Y-102271645D01*
X200103110Y-102441476D01*
X200333000Y-102320155D01*
X200333000Y-101127000D01*
X200587000Y-101127000D01*
X200587000Y-102320155D01*
X200816890Y-102441476D01*
X201226924Y-102271645D01*
X201655183Y-101881358D01*
X201730000Y-101722046D01*
X201804817Y-101881358D01*
X202233076Y-102271645D01*
X202643110Y-102441476D01*
X202873000Y-102320155D01*
X202873000Y-101127000D01*
X203127000Y-101127000D01*
X203127000Y-102320155D01*
X203356890Y-102441476D01*
X203766924Y-102271645D01*
X204195183Y-101881358D01*
X204270000Y-101722046D01*
X204344817Y-101881358D01*
X204773076Y-102271645D01*
X205183110Y-102441476D01*
X205413000Y-102320155D01*
X205413000Y-101127000D01*
X203127000Y-101127000D01*
X202873000Y-101127000D01*
X200587000Y-101127000D01*
X200333000Y-101127000D01*
X200313000Y-101127000D01*
X200313000Y-100873000D01*
X200333000Y-100873000D01*
X200333000Y-100853000D01*
X200587000Y-100853000D01*
X200587000Y-100873000D01*
X202873000Y-100873000D01*
X202873000Y-100853000D01*
X203127000Y-100853000D01*
X203127000Y-100873000D01*
X205413000Y-100873000D01*
X205413000Y-100853000D01*
X205667000Y-100853000D01*
X205667000Y-100873000D01*
X205687000Y-100873000D01*
X205687000Y-101127000D01*
X205667000Y-101127000D01*
X205667000Y-102320155D01*
X205896890Y-102441476D01*
X206238333Y-102300055D01*
X206251764Y-102320155D01*
X206307071Y-102402928D01*
X206370527Y-102445328D01*
X206909671Y-102984473D01*
X206952071Y-103047929D01*
X207203463Y-103215904D01*
X207425148Y-103260000D01*
X207425152Y-103260000D01*
X207499999Y-103274888D01*
X207574846Y-103260000D01*
X209579807Y-103260000D01*
X209654654Y-103274888D01*
X209729501Y-103260000D01*
X209729506Y-103260000D01*
X209951191Y-103215904D01*
X210202583Y-103047929D01*
X210244985Y-102984470D01*
X210443705Y-102785750D01*
X216515000Y-102785750D01*
X216515000Y-103376310D01*
X216611673Y-103609699D01*
X216790302Y-103788327D01*
X217023691Y-103885000D01*
X217864250Y-103885000D01*
X218023000Y-103726250D01*
X218023000Y-102627000D01*
X218277000Y-102627000D01*
X218277000Y-103726250D01*
X218435750Y-103885000D01*
X219276309Y-103885000D01*
X219509698Y-103788327D01*
X219688327Y-103609699D01*
X219785000Y-103376310D01*
X219785000Y-102785750D01*
X219626250Y-102627000D01*
X218277000Y-102627000D01*
X218023000Y-102627000D01*
X216673750Y-102627000D01*
X216515000Y-102785750D01*
X210443705Y-102785750D01*
X210559712Y-102669744D01*
X210602235Y-102698157D01*
X210850000Y-102747440D01*
X212850000Y-102747440D01*
X213097765Y-102698157D01*
X213307809Y-102557809D01*
X213448157Y-102347765D01*
X213497440Y-102100000D01*
X213497440Y-98300000D01*
X213448157Y-98052235D01*
X213307809Y-97842191D01*
X213097765Y-97701843D01*
X212850000Y-97652560D01*
X212260000Y-97652560D01*
X212260000Y-95574848D01*
X212274888Y-95500000D01*
X212260000Y-95425152D01*
X212260000Y-94872440D01*
X212300000Y-94872440D01*
X212547765Y-94823157D01*
X212757809Y-94682809D01*
X212798654Y-94621680D01*
X212940302Y-94763327D01*
X213173691Y-94860000D01*
X213764250Y-94860000D01*
X213923000Y-94701250D01*
X213923000Y-93727000D01*
X213903000Y-93727000D01*
X213903000Y-93473000D01*
X213923000Y-93473000D01*
X213923000Y-92498750D01*
X213764250Y-92340000D01*
X213173691Y-92340000D01*
X212940302Y-92436673D01*
X212798654Y-92578320D01*
X212757809Y-92517191D01*
X212547765Y-92376843D01*
X212300000Y-92327560D01*
X212260000Y-92327560D01*
X212260000Y-92085000D01*
X212564250Y-92085000D01*
X212723000Y-91926250D01*
X212723000Y-90927000D01*
X212977000Y-90927000D01*
X212977000Y-91926250D01*
X213135750Y-92085000D01*
X213726309Y-92085000D01*
X213959698Y-91988327D01*
X214138327Y-91809699D01*
X214235000Y-91576310D01*
X214235000Y-91085750D01*
X214076250Y-90927000D01*
X212977000Y-90927000D01*
X212723000Y-90927000D01*
X212703000Y-90927000D01*
X212703000Y-90673000D01*
X212723000Y-90673000D01*
X212723000Y-90653000D01*
X212977000Y-90653000D01*
X212977000Y-90673000D01*
X214076250Y-90673000D01*
X214235000Y-90514250D01*
X214235000Y-90023690D01*
X214138327Y-89790301D01*
X213959698Y-89611673D01*
X213893546Y-89584272D01*
X214082809Y-89457809D01*
X214223157Y-89247765D01*
X214272440Y-89000000D01*
X214272440Y-87760000D01*
X214853683Y-87760000D01*
X214847295Y-87766388D01*
X214674502Y-88183548D01*
X214674502Y-88635080D01*
X214847295Y-89052240D01*
X215049503Y-89254448D01*
X215049502Y-92391028D01*
X214926309Y-92340000D01*
X214335750Y-92340000D01*
X214177000Y-92498750D01*
X214177000Y-93473000D01*
X214197000Y-93473000D01*
X214197000Y-93727000D01*
X214177000Y-93727000D01*
X214177000Y-94701250D01*
X214335750Y-94860000D01*
X214926309Y-94860000D01*
X215081592Y-94795680D01*
X215093598Y-94856038D01*
X215261573Y-95107431D01*
X215325032Y-95149833D01*
X216797214Y-96622016D01*
X216692191Y-96692191D01*
X216551843Y-96902235D01*
X216502560Y-97150000D01*
X216502560Y-98650000D01*
X216551843Y-98897765D01*
X216653564Y-99050000D01*
X216551843Y-99202235D01*
X216502560Y-99450000D01*
X216502560Y-100950000D01*
X216551843Y-101197765D01*
X216652927Y-101349047D01*
X216611673Y-101390301D01*
X216515000Y-101623690D01*
X216515000Y-102214250D01*
X216673750Y-102373000D01*
X218023000Y-102373000D01*
X218023000Y-102353000D01*
X218277000Y-102353000D01*
X218277000Y-102373000D01*
X219626250Y-102373000D01*
X219785000Y-102214250D01*
X219785000Y-101636750D01*
X219903462Y-101715904D01*
X219951605Y-101725480D01*
X220125148Y-101760000D01*
X220125152Y-101760000D01*
X220200000Y-101774888D01*
X220274848Y-101760000D01*
X223925153Y-101760000D01*
X224000000Y-101774888D01*
X224074847Y-101760000D01*
X224074852Y-101760000D01*
X224296537Y-101715904D01*
X224547929Y-101547929D01*
X224590331Y-101484470D01*
X225884473Y-100190329D01*
X225947929Y-100147929D01*
X226115904Y-99896537D01*
X226160000Y-99674852D01*
X226160000Y-99674847D01*
X226174888Y-99600000D01*
X226160000Y-99525153D01*
X226160000Y-95898178D01*
X226470625Y-95690625D01*
X226671353Y-95390214D01*
X227058642Y-95815183D01*
X227583108Y-96061486D01*
X227813000Y-95940819D01*
X227813000Y-94747000D01*
X228067000Y-94747000D01*
X228067000Y-95940819D01*
X228296892Y-96061486D01*
X228821358Y-95815183D01*
X229211645Y-95386924D01*
X229381476Y-94976890D01*
X229260155Y-94747000D01*
X228067000Y-94747000D01*
X227813000Y-94747000D01*
X227793000Y-94747000D01*
X227793000Y-94493000D01*
X227813000Y-94493000D01*
X227813000Y-92207000D01*
X228067000Y-92207000D01*
X228067000Y-94493000D01*
X229260155Y-94493000D01*
X229381476Y-94263110D01*
X229211645Y-93853076D01*
X228821358Y-93424817D01*
X228662046Y-93350000D01*
X228821358Y-93275183D01*
X229211645Y-92846924D01*
X229381476Y-92436890D01*
X229260155Y-92207000D01*
X228067000Y-92207000D01*
X227813000Y-92207000D01*
X227793000Y-92207000D01*
X227793000Y-91953000D01*
X227813000Y-91953000D01*
X227813000Y-89667000D01*
X228067000Y-89667000D01*
X228067000Y-91953000D01*
X229260155Y-91953000D01*
X229381476Y-91723110D01*
X229211645Y-91313076D01*
X228821358Y-90884817D01*
X228662046Y-90810000D01*
X228821358Y-90735183D01*
X229211645Y-90306924D01*
X229381476Y-89896890D01*
X229260155Y-89667000D01*
X228067000Y-89667000D01*
X227813000Y-89667000D01*
X227793000Y-89667000D01*
X227793000Y-89413000D01*
X227813000Y-89413000D01*
X227813000Y-87127000D01*
X228067000Y-87127000D01*
X228067000Y-89413000D01*
X229260155Y-89413000D01*
X229381476Y-89183110D01*
X229211645Y-88773076D01*
X228821358Y-88344817D01*
X228662046Y-88270000D01*
X228821358Y-88195183D01*
X229211645Y-87766924D01*
X229381476Y-87356890D01*
X229260155Y-87127000D01*
X228067000Y-87127000D01*
X227813000Y-87127000D01*
X227793000Y-87127000D01*
X227793000Y-86873000D01*
X227813000Y-86873000D01*
X227813000Y-86853000D01*
X228067000Y-86853000D01*
X228067000Y-86873000D01*
X229260155Y-86873000D01*
X229381476Y-86643110D01*
X229222797Y-86260000D01*
X231525153Y-86260000D01*
X231600000Y-86274888D01*
X231674847Y-86260000D01*
X231674852Y-86260000D01*
X231896537Y-86215904D01*
X232147929Y-86047929D01*
X232190331Y-85984470D01*
X233281243Y-84893559D01*
X233349999Y-84907235D01*
X233461782Y-84885000D01*
X233952560Y-84885000D01*
X233952560Y-84900000D01*
X234001843Y-85147765D01*
X234142191Y-85357809D01*
X234352235Y-85498157D01*
X234600000Y-85547440D01*
X236200000Y-85547440D01*
X236447765Y-85498157D01*
X236657809Y-85357809D01*
X236798157Y-85147765D01*
X236847440Y-84900000D01*
X236847440Y-82600000D01*
X236798157Y-82352235D01*
X236657809Y-82142191D01*
X236447765Y-82001843D01*
X236200000Y-81952560D01*
X234600000Y-81952560D01*
X234352235Y-82001843D01*
X234142191Y-82142191D01*
X234001843Y-82352235D01*
X233952560Y-82600000D01*
X233952560Y-82615000D01*
X233820131Y-82615000D01*
X233785001Y-82579870D01*
X233785001Y-79335750D01*
X233965000Y-79335750D01*
X233965000Y-80326309D01*
X234061673Y-80559698D01*
X234240301Y-80738327D01*
X234473690Y-80835000D01*
X235114250Y-80835000D01*
X235273000Y-80676250D01*
X235273000Y-79177000D01*
X235527000Y-79177000D01*
X235527000Y-80676250D01*
X235685750Y-80835000D01*
X236326310Y-80835000D01*
X236559699Y-80738327D01*
X236738327Y-80559698D01*
X236835000Y-80326309D01*
X236835000Y-79335750D01*
X236676250Y-79177000D01*
X235527000Y-79177000D01*
X235273000Y-79177000D01*
X234123750Y-79177000D01*
X233965000Y-79335750D01*
X233785001Y-79335750D01*
X233785001Y-77457402D01*
X234079418Y-77398839D01*
X234570625Y-77070625D01*
X234783843Y-76751522D01*
X234844817Y-76881358D01*
X235272998Y-77271574D01*
X235272998Y-77423748D01*
X235114250Y-77265000D01*
X234473690Y-77265000D01*
X234240301Y-77361673D01*
X234061673Y-77540302D01*
X233965000Y-77773691D01*
X233965000Y-78764250D01*
X234123750Y-78923000D01*
X235273000Y-78923000D01*
X235273000Y-78903000D01*
X235527000Y-78903000D01*
X235527000Y-78923000D01*
X236676250Y-78923000D01*
X236835000Y-78764250D01*
X236835000Y-77773691D01*
X236738327Y-77540302D01*
X236568446Y-77370420D01*
X236806924Y-77271645D01*
X237235183Y-76881358D01*
X237481486Y-76356892D01*
X237360819Y-76127000D01*
X236167000Y-76127000D01*
X236167000Y-76147000D01*
X235913000Y-76147000D01*
X235913000Y-76127000D01*
X235893000Y-76127000D01*
X235893000Y-75873000D01*
X235913000Y-75873000D01*
X235913000Y-74679845D01*
X236167000Y-74679845D01*
X236167000Y-75873000D01*
X237360819Y-75873000D01*
X237481486Y-75643108D01*
X237235183Y-75118642D01*
X236806924Y-74728355D01*
X236396890Y-74558524D01*
X236167000Y-74679845D01*
X235913000Y-74679845D01*
X235683110Y-74558524D01*
X235273076Y-74728355D01*
X234844817Y-75118642D01*
X234783843Y-75248478D01*
X234635000Y-75025719D01*
X234635000Y-73474281D01*
X234783843Y-73251522D01*
X234844817Y-73381358D01*
X235273076Y-73771645D01*
X235683110Y-73941476D01*
X235913000Y-73820155D01*
X235913000Y-72627000D01*
X236167000Y-72627000D01*
X236167000Y-73820155D01*
X236396890Y-73941476D01*
X236806924Y-73771645D01*
X237235183Y-73381358D01*
X237481486Y-72856892D01*
X237360819Y-72627000D01*
X236167000Y-72627000D01*
X235913000Y-72627000D01*
X235893000Y-72627000D01*
X235893000Y-72373000D01*
X235913000Y-72373000D01*
X235913000Y-71179845D01*
X236167000Y-71179845D01*
X236167000Y-72373000D01*
X237360819Y-72373000D01*
X237481486Y-72143108D01*
X237235183Y-71618642D01*
X236806924Y-71228355D01*
X236396890Y-71058524D01*
X236167000Y-71179845D01*
X235913000Y-71179845D01*
X235683110Y-71058524D01*
X235273076Y-71228355D01*
X234844817Y-71618642D01*
X234783843Y-71748478D01*
X234635000Y-71525719D01*
X234635000Y-69974281D01*
X234783843Y-69751522D01*
X234844817Y-69881358D01*
X235273076Y-70271645D01*
X235683110Y-70441476D01*
X235913000Y-70320155D01*
X235913000Y-69127000D01*
X236167000Y-69127000D01*
X236167000Y-70320155D01*
X236396890Y-70441476D01*
X236806924Y-70271645D01*
X237235183Y-69881358D01*
X237481486Y-69356892D01*
X237360819Y-69127000D01*
X236167000Y-69127000D01*
X235913000Y-69127000D01*
X235893000Y-69127000D01*
X235893000Y-68873000D01*
X235913000Y-68873000D01*
X235913000Y-67679845D01*
X236167000Y-67679845D01*
X236167000Y-68873000D01*
X237360819Y-68873000D01*
X237481486Y-68643108D01*
X237235183Y-68118642D01*
X236806924Y-67728355D01*
X236396890Y-67558524D01*
X236167000Y-67679845D01*
X235913000Y-67679845D01*
X235683110Y-67558524D01*
X235273076Y-67728355D01*
X234844817Y-68118642D01*
X234783843Y-68248478D01*
X234635000Y-68025719D01*
X234635000Y-66474281D01*
X234783843Y-66251522D01*
X234844817Y-66381358D01*
X235273076Y-66771645D01*
X235683110Y-66941476D01*
X235913000Y-66820155D01*
X235913000Y-65627000D01*
X236167000Y-65627000D01*
X236167000Y-66820155D01*
X236396890Y-66941476D01*
X236806924Y-66771645D01*
X237235183Y-66381358D01*
X237481486Y-65856892D01*
X237360819Y-65627000D01*
X236167000Y-65627000D01*
X235913000Y-65627000D01*
X235893000Y-65627000D01*
X235893000Y-65373000D01*
X235913000Y-65373000D01*
X235913000Y-64179845D01*
X236167000Y-64179845D01*
X236167000Y-65373000D01*
X237360819Y-65373000D01*
X237481486Y-65143108D01*
X237235183Y-64618642D01*
X236806924Y-64228355D01*
X236396890Y-64058524D01*
X236167000Y-64179845D01*
X235913000Y-64179845D01*
X235683110Y-64058524D01*
X235273076Y-64228355D01*
X234844817Y-64618642D01*
X234783843Y-64748478D01*
X234635000Y-64525719D01*
X234635000Y-62974281D01*
X234783843Y-62751522D01*
X234844817Y-62881358D01*
X235273076Y-63271645D01*
X235683110Y-63441476D01*
X235913000Y-63320155D01*
X235913000Y-62127000D01*
X236167000Y-62127000D01*
X236167000Y-63320155D01*
X236396890Y-63441476D01*
X236806924Y-63271645D01*
X237235183Y-62881358D01*
X237481486Y-62356892D01*
X237360819Y-62127000D01*
X236167000Y-62127000D01*
X235913000Y-62127000D01*
X235893000Y-62127000D01*
X235893000Y-61873000D01*
X235913000Y-61873000D01*
X235913000Y-60679845D01*
X236167000Y-60679845D01*
X236167000Y-61873000D01*
X237360819Y-61873000D01*
X237481486Y-61643108D01*
X237235183Y-61118642D01*
X236806924Y-60728355D01*
X236396890Y-60558524D01*
X236167000Y-60679845D01*
X235913000Y-60679845D01*
X235683110Y-60558524D01*
X235273076Y-60728355D01*
X234844817Y-61118642D01*
X234783843Y-61248478D01*
X234635000Y-61025719D01*
X234635000Y-59474281D01*
X234783843Y-59251522D01*
X234844817Y-59381358D01*
X235273076Y-59771645D01*
X235683110Y-59941476D01*
X235913000Y-59820155D01*
X235913000Y-58627000D01*
X236167000Y-58627000D01*
X236167000Y-59820155D01*
X236396890Y-59941476D01*
X236806924Y-59771645D01*
X237235183Y-59381358D01*
X237481486Y-58856892D01*
X237360819Y-58627000D01*
X236167000Y-58627000D01*
X235913000Y-58627000D01*
X235893000Y-58627000D01*
X235893000Y-58373000D01*
X235913000Y-58373000D01*
X235913000Y-57179845D01*
X236167000Y-57179845D01*
X236167000Y-58373000D01*
X237360819Y-58373000D01*
X237481486Y-58143108D01*
X237235183Y-57618642D01*
X236806924Y-57228355D01*
X236396890Y-57058524D01*
X236167000Y-57179845D01*
X235913000Y-57179845D01*
X235683110Y-57058524D01*
X235273076Y-57228355D01*
X234844817Y-57618642D01*
X234783843Y-57748478D01*
X234635000Y-57525719D01*
X234635000Y-55974281D01*
X234783843Y-55751522D01*
X234844817Y-55881358D01*
X235273076Y-56271645D01*
X235683110Y-56441476D01*
X235913000Y-56320155D01*
X235913000Y-55127000D01*
X236167000Y-55127000D01*
X236167000Y-56320155D01*
X236396890Y-56441476D01*
X236806924Y-56271645D01*
X237235183Y-55881358D01*
X237481486Y-55356892D01*
X237360819Y-55127000D01*
X236167000Y-55127000D01*
X235913000Y-55127000D01*
X235893000Y-55127000D01*
X235893000Y-54873000D01*
X235913000Y-54873000D01*
X235913000Y-53679845D01*
X236167000Y-53679845D01*
X236167000Y-54873000D01*
X237360819Y-54873000D01*
X237481486Y-54643108D01*
X237235183Y-54118642D01*
X236806924Y-53728355D01*
X236396890Y-53558524D01*
X236167000Y-53679845D01*
X235913000Y-53679845D01*
X235683110Y-53558524D01*
X235273076Y-53728355D01*
X234844817Y-54118642D01*
X234783843Y-54248478D01*
X234635000Y-54025719D01*
X234635000Y-52474281D01*
X234783843Y-52251522D01*
X234844817Y-52381358D01*
X235273076Y-52771645D01*
X235683110Y-52941476D01*
X235913000Y-52820155D01*
X235913000Y-51627000D01*
X236167000Y-51627000D01*
X236167000Y-52820155D01*
X236396890Y-52941476D01*
X236806924Y-52771645D01*
X237235183Y-52381358D01*
X237481486Y-51856892D01*
X237360819Y-51627000D01*
X236167000Y-51627000D01*
X235913000Y-51627000D01*
X235893000Y-51627000D01*
X235893000Y-51373000D01*
X235913000Y-51373000D01*
X235913000Y-50179845D01*
X236167000Y-50179845D01*
X236167000Y-51373000D01*
X237360819Y-51373000D01*
X237481486Y-51143108D01*
X237235183Y-50618642D01*
X236806924Y-50228355D01*
X236396890Y-50058524D01*
X236167000Y-50179845D01*
X235913000Y-50179845D01*
X235683110Y-50058524D01*
X235273076Y-50228355D01*
X234844817Y-50618642D01*
X234783843Y-50748478D01*
X234635000Y-50525719D01*
X234635000Y-49761783D01*
X234657235Y-49650000D01*
X234569146Y-49207145D01*
X234381609Y-48926476D01*
X234318289Y-48831711D01*
X234223523Y-48768391D01*
X233531612Y-48076481D01*
X233468289Y-47981711D01*
X233092855Y-47730854D01*
X232761783Y-47665000D01*
X232650000Y-47642765D01*
X232538217Y-47665000D01*
X229304220Y-47665000D01*
X230293544Y-46675676D01*
X230885000Y-45247775D01*
X230885000Y-43702225D01*
X230293544Y-42274324D01*
X229200676Y-41181456D01*
X228810458Y-41019822D01*
X229016174Y-40934612D01*
X229411957Y-40464459D01*
X227000000Y-38052502D01*
X224588043Y-40464459D01*
X224983826Y-40934612D01*
X225206504Y-41012797D01*
X224799324Y-41181456D01*
X223706456Y-42274324D01*
X223115000Y-43702225D01*
X223115000Y-45247775D01*
X223706456Y-46675676D01*
X223895780Y-46865000D01*
X223470132Y-46865000D01*
X219135000Y-42529869D01*
X219135000Y-36967100D01*
X223078373Y-36967100D01*
X223163390Y-38510309D01*
X223590388Y-39541174D01*
X224060541Y-39936957D01*
X226472498Y-37525000D01*
X227527502Y-37525000D01*
X229939459Y-39936957D01*
X230409612Y-39541174D01*
X230921627Y-38082900D01*
X230836610Y-36539691D01*
X230409612Y-35508826D01*
X229939459Y-35113043D01*
X227527502Y-37525000D01*
X226472498Y-37525000D01*
X224060541Y-35113043D01*
X223590388Y-35508826D01*
X223078373Y-36967100D01*
X219135000Y-36967100D01*
X219135000Y-34585541D01*
X224588043Y-34585541D01*
X227000000Y-36997498D01*
X229411957Y-34585541D01*
X229016174Y-34115388D01*
X227557900Y-33603373D01*
X226014691Y-33688390D01*
X224983826Y-34115388D01*
X224588043Y-34585541D01*
X219135000Y-34585541D01*
X219135000Y-31285750D01*
X222615000Y-31285750D01*
X222615000Y-32876310D01*
X222711673Y-33109699D01*
X222890302Y-33288327D01*
X223123691Y-33385000D01*
X224714250Y-33385000D01*
X224873000Y-33226250D01*
X224873000Y-31127000D01*
X225127000Y-31127000D01*
X225127000Y-33226250D01*
X225285750Y-33385000D01*
X226876309Y-33385000D01*
X227109698Y-33288327D01*
X227288327Y-33109699D01*
X227385000Y-32876310D01*
X227385000Y-31285750D01*
X227226250Y-31127000D01*
X225127000Y-31127000D01*
X224873000Y-31127000D01*
X222773750Y-31127000D01*
X222615000Y-31285750D01*
X219135000Y-31285750D01*
X219135000Y-29123690D01*
X222615000Y-29123690D01*
X222615000Y-30714250D01*
X222773750Y-30873000D01*
X224873000Y-30873000D01*
X224873000Y-28773750D01*
X225127000Y-28773750D01*
X225127000Y-30873000D01*
X227226250Y-30873000D01*
X227385000Y-30714250D01*
X227385000Y-29123690D01*
X227288327Y-28890301D01*
X227109698Y-28711673D01*
X226876309Y-28615000D01*
X225285750Y-28615000D01*
X225127000Y-28773750D01*
X224873000Y-28773750D01*
X224714250Y-28615000D01*
X223123691Y-28615000D01*
X222890302Y-28711673D01*
X222711673Y-28890301D01*
X222615000Y-29123690D01*
X219135000Y-29123690D01*
X219135000Y-28147440D01*
X219500000Y-28147440D01*
X219747765Y-28098157D01*
X219957809Y-27957809D01*
X220098157Y-27747765D01*
X220147440Y-27500000D01*
X220147440Y-24500000D01*
X220098157Y-24252235D01*
X219957809Y-24042191D01*
X219747765Y-23901843D01*
X219500000Y-23852560D01*
X216500000Y-23852560D01*
X216252235Y-23901843D01*
X216042191Y-24042191D01*
X215901843Y-24252235D01*
X215852560Y-24500000D01*
X215852560Y-27500000D01*
X215901843Y-27747765D01*
X216042191Y-27957809D01*
X216252235Y-28098157D01*
X216500000Y-28147440D01*
X216865000Y-28147440D01*
X216865001Y-42529867D01*
X213976479Y-45418390D01*
X213881711Y-45481712D01*
X213630853Y-45857146D01*
X213630853Y-45857147D01*
X213542764Y-46300001D01*
X213564999Y-46411784D01*
X213564999Y-46658620D01*
X213250582Y-46721161D01*
X212855719Y-46985000D01*
X212264281Y-46985000D01*
X211869418Y-46721161D01*
X211436256Y-46635000D01*
X211143744Y-46635000D01*
X210710582Y-46721161D01*
X210219375Y-47049375D01*
X210006157Y-47368478D01*
X209945183Y-47238642D01*
X209516924Y-46848355D01*
X209106890Y-46678524D01*
X208877000Y-46799845D01*
X208877000Y-47993000D01*
X208897000Y-47993000D01*
X208897000Y-48247000D01*
X208877000Y-48247000D01*
X208877000Y-49440155D01*
X209106890Y-49561476D01*
X209516924Y-49391645D01*
X209945183Y-49001358D01*
X210006157Y-48871522D01*
X210219375Y-49190625D01*
X210710582Y-49518839D01*
X211143744Y-49605000D01*
X211436256Y-49605000D01*
X211869418Y-49518839D01*
X212264281Y-49255000D01*
X212855719Y-49255000D01*
X213250582Y-49518839D01*
X213683744Y-49605000D01*
X213976256Y-49605000D01*
X214409418Y-49518839D01*
X214900625Y-49190625D01*
X215228839Y-48699418D01*
X215316521Y-48258611D01*
X215423520Y-48151612D01*
X215518288Y-48088290D01*
X215769145Y-47712856D01*
X215787935Y-47618391D01*
X215857234Y-47270002D01*
X215834999Y-47158219D01*
X215834999Y-46770132D01*
X218000000Y-44605131D01*
X222118389Y-48723521D01*
X222181711Y-48818289D01*
X222457006Y-49002235D01*
X222557145Y-49069146D01*
X222635436Y-49084719D01*
X222602560Y-49250000D01*
X222602560Y-52750000D01*
X222645326Y-52965000D01*
X181135000Y-52965000D01*
X181135000Y-49810000D01*
X192012560Y-49810000D01*
X192012560Y-51510000D01*
X192061843Y-51757765D01*
X192202191Y-51967809D01*
X192412235Y-52108157D01*
X192660000Y-52157440D01*
X194360000Y-52157440D01*
X194607765Y-52108157D01*
X194817809Y-51967809D01*
X194958157Y-51757765D01*
X194978739Y-51654292D01*
X195283076Y-51931645D01*
X195693110Y-52101476D01*
X195923000Y-51980155D01*
X195923000Y-50787000D01*
X196177000Y-50787000D01*
X196177000Y-51980155D01*
X196406890Y-52101476D01*
X196816924Y-51931645D01*
X197245183Y-51541358D01*
X197320000Y-51382046D01*
X197394817Y-51541358D01*
X197823076Y-51931645D01*
X198233110Y-52101476D01*
X198463000Y-51980155D01*
X198463000Y-50787000D01*
X196177000Y-50787000D01*
X195923000Y-50787000D01*
X195903000Y-50787000D01*
X195903000Y-50533000D01*
X195923000Y-50533000D01*
X195923000Y-49339845D01*
X196177000Y-49339845D01*
X196177000Y-50533000D01*
X198463000Y-50533000D01*
X198463000Y-49339845D01*
X198717000Y-49339845D01*
X198717000Y-50533000D01*
X198737000Y-50533000D01*
X198737000Y-50787000D01*
X198717000Y-50787000D01*
X198717000Y-51980155D01*
X198946890Y-52101476D01*
X199356924Y-51931645D01*
X199785183Y-51541358D01*
X199846157Y-51411522D01*
X200059375Y-51730625D01*
X200550582Y-52058839D01*
X200983744Y-52145000D01*
X201276256Y-52145000D01*
X201709418Y-52058839D01*
X202200625Y-51730625D01*
X202400000Y-51432239D01*
X202599375Y-51730625D01*
X203090582Y-52058839D01*
X203523744Y-52145000D01*
X203816256Y-52145000D01*
X204249418Y-52058839D01*
X204740625Y-51730625D01*
X205068839Y-51239418D01*
X205184092Y-50660000D01*
X205068839Y-50080582D01*
X204740625Y-49589375D01*
X204249418Y-49261161D01*
X203816256Y-49175000D01*
X203523744Y-49175000D01*
X203090582Y-49261161D01*
X202599375Y-49589375D01*
X202400000Y-49887761D01*
X202200625Y-49589375D01*
X201709418Y-49261161D01*
X201276256Y-49175000D01*
X200983744Y-49175000D01*
X200550582Y-49261161D01*
X200059375Y-49589375D01*
X199846157Y-49908478D01*
X199785183Y-49778642D01*
X199356924Y-49388355D01*
X198946890Y-49218524D01*
X198717000Y-49339845D01*
X198463000Y-49339845D01*
X198233110Y-49218524D01*
X197823076Y-49388355D01*
X197394817Y-49778642D01*
X197320000Y-49937954D01*
X197245183Y-49778642D01*
X196816924Y-49388355D01*
X196406890Y-49218524D01*
X196177000Y-49339845D01*
X195923000Y-49339845D01*
X195693110Y-49218524D01*
X195283076Y-49388355D01*
X194978739Y-49665708D01*
X194958157Y-49562235D01*
X194817809Y-49352191D01*
X194607765Y-49211843D01*
X194360000Y-49162560D01*
X192660000Y-49162560D01*
X192412235Y-49211843D01*
X192202191Y-49352191D01*
X192061843Y-49562235D01*
X192012560Y-49810000D01*
X181135000Y-49810000D01*
X181135000Y-49255000D01*
X181926723Y-49255000D01*
X182042191Y-49427809D01*
X182252235Y-49568157D01*
X182500000Y-49617440D01*
X184200000Y-49617440D01*
X184447765Y-49568157D01*
X184657809Y-49427809D01*
X184773277Y-49255000D01*
X184915719Y-49255000D01*
X185310582Y-49518839D01*
X185743744Y-49605000D01*
X186036256Y-49605000D01*
X186469418Y-49518839D01*
X186960625Y-49190625D01*
X187173843Y-48871522D01*
X187234817Y-49001358D01*
X187663076Y-49391645D01*
X188073110Y-49561476D01*
X188303000Y-49440155D01*
X188303000Y-48247000D01*
X188557000Y-48247000D01*
X188557000Y-49440155D01*
X188786890Y-49561476D01*
X189196924Y-49391645D01*
X189625183Y-49001358D01*
X189700000Y-48842046D01*
X189774817Y-49001358D01*
X190203076Y-49391645D01*
X190613110Y-49561476D01*
X190843000Y-49440155D01*
X190843000Y-48247000D01*
X191097000Y-48247000D01*
X191097000Y-49440155D01*
X191326890Y-49561476D01*
X191736924Y-49391645D01*
X192165183Y-49001358D01*
X192411486Y-48476892D01*
X192374145Y-48405750D01*
X204725000Y-48405750D01*
X204725000Y-49096309D01*
X204821673Y-49329698D01*
X205000301Y-49508327D01*
X205233690Y-49605000D01*
X205924250Y-49605000D01*
X206083000Y-49446250D01*
X206083000Y-48247000D01*
X206337000Y-48247000D01*
X206337000Y-49446250D01*
X206495750Y-49605000D01*
X207186310Y-49605000D01*
X207419699Y-49508327D01*
X207598327Y-49329698D01*
X207685136Y-49120122D01*
X207983076Y-49391645D01*
X208393110Y-49561476D01*
X208623000Y-49440155D01*
X208623000Y-48247000D01*
X206337000Y-48247000D01*
X206083000Y-48247000D01*
X204883750Y-48247000D01*
X204725000Y-48405750D01*
X192374145Y-48405750D01*
X192290819Y-48247000D01*
X191097000Y-48247000D01*
X190843000Y-48247000D01*
X188557000Y-48247000D01*
X188303000Y-48247000D01*
X188283000Y-48247000D01*
X188283000Y-47993000D01*
X188303000Y-47993000D01*
X188303000Y-46799845D01*
X188557000Y-46799845D01*
X188557000Y-47993000D01*
X190843000Y-47993000D01*
X190843000Y-46799845D01*
X191097000Y-46799845D01*
X191097000Y-47993000D01*
X192290819Y-47993000D01*
X192411486Y-47763108D01*
X192165183Y-47238642D01*
X192060994Y-47143691D01*
X204725000Y-47143691D01*
X204725000Y-47834250D01*
X204883750Y-47993000D01*
X206083000Y-47993000D01*
X206083000Y-46793750D01*
X206337000Y-46793750D01*
X206337000Y-47993000D01*
X208623000Y-47993000D01*
X208623000Y-46799845D01*
X208393110Y-46678524D01*
X207983076Y-46848355D01*
X207685136Y-47119878D01*
X207598327Y-46910302D01*
X207419699Y-46731673D01*
X207186310Y-46635000D01*
X206495750Y-46635000D01*
X206337000Y-46793750D01*
X206083000Y-46793750D01*
X205924250Y-46635000D01*
X205233690Y-46635000D01*
X205000301Y-46731673D01*
X204821673Y-46910302D01*
X204725000Y-47143691D01*
X192060994Y-47143691D01*
X191736924Y-46848355D01*
X191326890Y-46678524D01*
X191097000Y-46799845D01*
X190843000Y-46799845D01*
X190613110Y-46678524D01*
X190203076Y-46848355D01*
X189774817Y-47238642D01*
X189700000Y-47397954D01*
X189625183Y-47238642D01*
X189196924Y-46848355D01*
X188786890Y-46678524D01*
X188557000Y-46799845D01*
X188303000Y-46799845D01*
X188073110Y-46678524D01*
X187663076Y-46848355D01*
X187234817Y-47238642D01*
X187173843Y-47368478D01*
X186960625Y-47049375D01*
X186469418Y-46721161D01*
X186036256Y-46635000D01*
X185743744Y-46635000D01*
X185310582Y-46721161D01*
X184915719Y-46985000D01*
X184773277Y-46985000D01*
X184657809Y-46812191D01*
X184447765Y-46671843D01*
X184200000Y-46622560D01*
X182500000Y-46622560D01*
X182252235Y-46671843D01*
X182042191Y-46812191D01*
X181926723Y-46985000D01*
X180111783Y-46985000D01*
X180000000Y-46962765D01*
X179888217Y-46985000D01*
X175241782Y-46985000D01*
X175129999Y-46962765D01*
X174869480Y-47014585D01*
X174687145Y-47050854D01*
X174311711Y-47301711D01*
X174269423Y-47365000D01*
X174111783Y-47365000D01*
X174000000Y-47342765D01*
X173888217Y-47365000D01*
X169634511Y-47365000D01*
X169647440Y-47300000D01*
X169647440Y-45700000D01*
X169598157Y-45452235D01*
X169457809Y-45242191D01*
X169247765Y-45101843D01*
X169000000Y-45052560D01*
X166700000Y-45052560D01*
X166452235Y-45101843D01*
X166242191Y-45242191D01*
X166101843Y-45452235D01*
X166052560Y-45700000D01*
X166052560Y-47300000D01*
X166101843Y-47547765D01*
X166242191Y-47757809D01*
X166452235Y-47898157D01*
X166700000Y-47947440D01*
X166715000Y-47947440D01*
X166715000Y-48179868D01*
X166276479Y-48618390D01*
X166181712Y-48681711D01*
X166073593Y-48843523D01*
X165930854Y-49057146D01*
X165842765Y-49500000D01*
X165865000Y-49611783D01*
X165865000Y-50025719D01*
X165716157Y-50248478D01*
X165655183Y-50118642D01*
X165226924Y-49728355D01*
X164816890Y-49558524D01*
X164587000Y-49679845D01*
X164333000Y-49679845D01*
X164103110Y-49558524D01*
X163693076Y-49728355D01*
X163264817Y-50118642D01*
X163018514Y-50643108D01*
X158239479Y-50643108D01*
X160392425Y-46785750D01*
X161365000Y-46785750D01*
X161365000Y-47426310D01*
X161461673Y-47659699D01*
X161640302Y-47838327D01*
X161873691Y-47935000D01*
X162864250Y-47935000D01*
X163023000Y-47776250D01*
X163023000Y-46627000D01*
X163277000Y-46627000D01*
X163277000Y-47776250D01*
X163435750Y-47935000D01*
X164426309Y-47935000D01*
X164659698Y-47838327D01*
X164838327Y-47659699D01*
X164935000Y-47426310D01*
X164935000Y-46785750D01*
X164776250Y-46627000D01*
X163277000Y-46627000D01*
X163023000Y-46627000D01*
X161523750Y-46627000D01*
X161365000Y-46785750D01*
X160392425Y-46785750D01*
X161068923Y-45573690D01*
X161365000Y-45573690D01*
X161365000Y-46214250D01*
X161523750Y-46373000D01*
X163023000Y-46373000D01*
X163023000Y-45223750D01*
X163277000Y-45223750D01*
X163277000Y-46373000D01*
X164776250Y-46373000D01*
X164935000Y-46214250D01*
X164935000Y-45573690D01*
X164838327Y-45340301D01*
X164659698Y-45161673D01*
X164426309Y-45065000D01*
X163435750Y-45065000D01*
X163277000Y-45223750D01*
X163023000Y-45223750D01*
X162864250Y-45065000D01*
X161873691Y-45065000D01*
X161640302Y-45161673D01*
X161461673Y-45340301D01*
X161365000Y-45573690D01*
X161068923Y-45573690D01*
X166970518Y-35000000D01*
X194842765Y-35000000D01*
X194930854Y-35442854D01*
X195118392Y-35723523D01*
X196865000Y-37470132D01*
X196865000Y-38111782D01*
X196865001Y-38111787D01*
X196865000Y-41111782D01*
X196930854Y-41442854D01*
X197181711Y-41818289D01*
X197557145Y-42069146D01*
X198000000Y-42157235D01*
X198442854Y-42069146D01*
X198818289Y-41818289D01*
X199000001Y-41546339D01*
X199181712Y-41818289D01*
X199557146Y-42069146D01*
X200000000Y-42157235D01*
X200442855Y-42069146D01*
X200818289Y-41818289D01*
X201069146Y-41442855D01*
X201135000Y-41111783D01*
X201135000Y-39748381D01*
X201181711Y-39818289D01*
X201276482Y-39881613D01*
X203276476Y-41881608D01*
X203557145Y-42069146D01*
X203999999Y-42157235D01*
X204442854Y-42069146D01*
X204818288Y-41818288D01*
X205069146Y-41442854D01*
X205157235Y-40999999D01*
X205069146Y-40557145D01*
X204881608Y-40276476D01*
X203135000Y-38529869D01*
X203135000Y-34888217D01*
X203069146Y-34557145D01*
X202818289Y-34181711D01*
X202442855Y-33930854D01*
X202000000Y-33842765D01*
X201557146Y-33930854D01*
X201181712Y-34181711D01*
X201000001Y-34453661D01*
X200818289Y-34181711D01*
X200442854Y-33930854D01*
X200000000Y-33842765D01*
X199557145Y-33930854D01*
X199181711Y-34181711D01*
X198930854Y-34557146D01*
X198865000Y-34888218D01*
X198865000Y-36251619D01*
X198818289Y-36181711D01*
X198723521Y-36118389D01*
X196723523Y-34118392D01*
X196442854Y-33930854D01*
X196000000Y-33842765D01*
X195557146Y-33930854D01*
X195181712Y-34181712D01*
X194930854Y-34557146D01*
X194842765Y-35000000D01*
X166970518Y-35000000D01*
X169043588Y-31285750D01*
X172615000Y-31285750D01*
X172615000Y-32876310D01*
X172711673Y-33109699D01*
X172890302Y-33288327D01*
X173123691Y-33385000D01*
X174714250Y-33385000D01*
X174873000Y-33226250D01*
X174873000Y-31127000D01*
X175127000Y-31127000D01*
X175127000Y-33226250D01*
X175285750Y-33385000D01*
X176876309Y-33385000D01*
X177109698Y-33288327D01*
X177288327Y-33109699D01*
X177385000Y-32876310D01*
X177385000Y-31285750D01*
X177226250Y-31127000D01*
X175127000Y-31127000D01*
X174873000Y-31127000D01*
X172773750Y-31127000D01*
X172615000Y-31285750D01*
X169043588Y-31285750D01*
X170250319Y-29123690D01*
X172615000Y-29123690D01*
X172615000Y-30714250D01*
X172773750Y-30873000D01*
X174873000Y-30873000D01*
X174873000Y-28773750D01*
X175127000Y-28773750D01*
X175127000Y-30873000D01*
X177226250Y-30873000D01*
X177385000Y-30714250D01*
X177385000Y-29123690D01*
X177288327Y-28890301D01*
X177109698Y-28711673D01*
X176876309Y-28615000D01*
X175285750Y-28615000D01*
X175127000Y-28773750D01*
X174873000Y-28773750D01*
X174714250Y-28615000D01*
X173123691Y-28615000D01*
X172890302Y-28711673D01*
X172711673Y-28890301D01*
X172615000Y-29123690D01*
X170250319Y-29123690D01*
X171834286Y-26285750D01*
X207865000Y-26285750D01*
X207865000Y-27626310D01*
X207961673Y-27859699D01*
X208140302Y-28038327D01*
X208373691Y-28135000D01*
X209714250Y-28135000D01*
X209873000Y-27976250D01*
X209873000Y-26127000D01*
X210127000Y-26127000D01*
X210127000Y-27976250D01*
X210285750Y-28135000D01*
X211626309Y-28135000D01*
X211859698Y-28038327D01*
X212038327Y-27859699D01*
X212135000Y-27626310D01*
X212135000Y-26285750D01*
X211976250Y-26127000D01*
X210127000Y-26127000D01*
X209873000Y-26127000D01*
X208023750Y-26127000D01*
X207865000Y-26285750D01*
X171834286Y-26285750D01*
X172901482Y-24373690D01*
X207865000Y-24373690D01*
X207865000Y-25714250D01*
X208023750Y-25873000D01*
X209873000Y-25873000D01*
X209873000Y-24023750D01*
X210127000Y-24023750D01*
X210127000Y-25873000D01*
X211976250Y-25873000D01*
X212135000Y-25714250D01*
X212135000Y-24373690D01*
X212038327Y-24140301D01*
X211859698Y-23961673D01*
X211626309Y-23865000D01*
X210285750Y-23865000D01*
X210127000Y-24023750D01*
X209873000Y-24023750D01*
X209714250Y-23865000D01*
X208373691Y-23865000D01*
X208140302Y-23961673D01*
X207961673Y-24140301D01*
X207865000Y-24373690D01*
X172901482Y-24373690D01*
X174402148Y-21685000D01*
X225597853Y-21685000D01*
X249213315Y-63996036D01*
G36*
X210202560Y-100877292D02*
X209343088Y-101736765D01*
X209521486Y-101356892D01*
X209400819Y-101127000D01*
X208207000Y-101127000D01*
X208207000Y-101147000D01*
X207953000Y-101147000D01*
X207953000Y-101127000D01*
X207933000Y-101127000D01*
X207933000Y-100873000D01*
X207953000Y-100873000D01*
X207953000Y-100853000D01*
X208207000Y-100853000D01*
X208207000Y-100873000D01*
X209400819Y-100873000D01*
X209521486Y-100643108D01*
X209438915Y-100467285D01*
X209571536Y-100440905D01*
X209822928Y-100272930D01*
X209865330Y-100209471D01*
X210202560Y-99872242D01*
X210202560Y-100877292D01*
X210202560Y-100877292D01*
G37*
X210202560Y-100877292D02*
X209343088Y-101736765D01*
X209521486Y-101356892D01*
X209400819Y-101127000D01*
X208207000Y-101127000D01*
X208207000Y-101147000D01*
X207953000Y-101147000D01*
X207953000Y-101127000D01*
X207933000Y-101127000D01*
X207933000Y-100873000D01*
X207953000Y-100873000D01*
X207953000Y-100853000D01*
X208207000Y-100853000D01*
X208207000Y-100873000D01*
X209400819Y-100873000D01*
X209521486Y-100643108D01*
X209438915Y-100467285D01*
X209571536Y-100440905D01*
X209822928Y-100272930D01*
X209865330Y-100209471D01*
X210202560Y-99872242D01*
X210202560Y-100877292D01*
G36*
X196277560Y-74277560D02*
X194950000Y-74277560D01*
X194702235Y-74326843D01*
X194532885Y-74440000D01*
X194514802Y-74440000D01*
X193590331Y-73515530D01*
X193547929Y-73452071D01*
X193296537Y-73284096D01*
X193074852Y-73240000D01*
X193074847Y-73240000D01*
X193000000Y-73225112D01*
X192925153Y-73240000D01*
X188074847Y-73240000D01*
X188000000Y-73225112D01*
X187925153Y-73240000D01*
X187925148Y-73240000D01*
X187703463Y-73284096D01*
X187452071Y-73452071D01*
X187409671Y-73515527D01*
X185975530Y-74949669D01*
X185912071Y-74992071D01*
X185744096Y-75243464D01*
X185700000Y-75465149D01*
X185700000Y-75465153D01*
X185685112Y-75540000D01*
X185700000Y-75614847D01*
X185700001Y-77221821D01*
X185389375Y-77429375D01*
X185176157Y-77748478D01*
X185115183Y-77618642D01*
X184686924Y-77228355D01*
X184276890Y-77058524D01*
X184047000Y-77179845D01*
X184047000Y-78373000D01*
X184067000Y-78373000D01*
X184067000Y-78627000D01*
X184047000Y-78627000D01*
X184047000Y-78647000D01*
X183793000Y-78647000D01*
X183793000Y-78627000D01*
X183773000Y-78627000D01*
X183773000Y-78373000D01*
X183793000Y-78373000D01*
X183793000Y-77179845D01*
X183563110Y-77058524D01*
X183153076Y-77228355D01*
X182848739Y-77505708D01*
X182828157Y-77402235D01*
X182687809Y-77192191D01*
X182477765Y-77051843D01*
X182230000Y-77002560D01*
X180530000Y-77002560D01*
X180282235Y-77051843D01*
X180072191Y-77192191D01*
X179931843Y-77402235D01*
X179882560Y-77650000D01*
X179882560Y-79350000D01*
X179931843Y-79597765D01*
X180072191Y-79807809D01*
X180282235Y-79948157D01*
X180530000Y-79997440D01*
X180729534Y-79997440D01*
X180711673Y-80015301D01*
X180615000Y-80248690D01*
X180615000Y-80714250D01*
X180773750Y-80873000D01*
X181873000Y-80873000D01*
X181873000Y-80853000D01*
X182127000Y-80853000D01*
X182127000Y-80873000D01*
X182147000Y-80873000D01*
X182147000Y-81127000D01*
X182127000Y-81127000D01*
X182127000Y-82101250D01*
X182285750Y-82260000D01*
X182740001Y-82260000D01*
X182740001Y-82560018D01*
X182542191Y-82692191D01*
X182401843Y-82902235D01*
X182352560Y-83150000D01*
X182352560Y-83950000D01*
X182400298Y-84190000D01*
X182352560Y-84430000D01*
X182352560Y-85230000D01*
X182398309Y-85460000D01*
X182352560Y-85690000D01*
X182352560Y-86490000D01*
X182399304Y-86725000D01*
X182352560Y-86960000D01*
X182352560Y-87760000D01*
X182400298Y-88000000D01*
X182352560Y-88240000D01*
X182352560Y-89040000D01*
X182399304Y-89275000D01*
X182352560Y-89510000D01*
X182352560Y-90310000D01*
X182398309Y-90540000D01*
X182352560Y-90770000D01*
X182352560Y-91570000D01*
X182400298Y-91810000D01*
X182352560Y-92050000D01*
X182352560Y-92850000D01*
X182401843Y-93097765D01*
X182542191Y-93307809D01*
X182752235Y-93448157D01*
X183000000Y-93497440D01*
X184300000Y-93497440D01*
X184547765Y-93448157D01*
X184757809Y-93307809D01*
X184898157Y-93097765D01*
X184947440Y-92850000D01*
X184947440Y-92050000D01*
X184899702Y-91810000D01*
X184947440Y-91570000D01*
X184947440Y-90770000D01*
X184901691Y-90540000D01*
X184947440Y-90310000D01*
X184947440Y-89510000D01*
X184900696Y-89275000D01*
X184947440Y-89040000D01*
X184947440Y-89035750D01*
X185965000Y-89035750D01*
X185965000Y-89751309D01*
X186061673Y-89984698D01*
X186240301Y-90163327D01*
X186473690Y-90260000D01*
X188714250Y-90260000D01*
X188873000Y-90101250D01*
X188873000Y-88877000D01*
X189127000Y-88877000D01*
X189127000Y-90101250D01*
X189285750Y-90260000D01*
X191526310Y-90260000D01*
X191759699Y-90163327D01*
X191938327Y-89984698D01*
X192035000Y-89751309D01*
X192035000Y-89035750D01*
X191876250Y-88877000D01*
X189127000Y-88877000D01*
X188873000Y-88877000D01*
X186123750Y-88877000D01*
X185965000Y-89035750D01*
X184947440Y-89035750D01*
X184947440Y-88240000D01*
X184899702Y-88000000D01*
X184947440Y-87760000D01*
X184947440Y-87748691D01*
X185965000Y-87748691D01*
X185965000Y-88464250D01*
X186123750Y-88623000D01*
X188873000Y-88623000D01*
X188873000Y-87398750D01*
X189127000Y-87398750D01*
X189127000Y-88623000D01*
X191876250Y-88623000D01*
X192035000Y-88464250D01*
X192035000Y-87748691D01*
X191938327Y-87515302D01*
X191759699Y-87336673D01*
X191526310Y-87240000D01*
X189285750Y-87240000D01*
X189127000Y-87398750D01*
X188873000Y-87398750D01*
X188714250Y-87240000D01*
X186473690Y-87240000D01*
X186240301Y-87336673D01*
X186061673Y-87515302D01*
X185965000Y-87748691D01*
X184947440Y-87748691D01*
X184947440Y-86960000D01*
X184900696Y-86725000D01*
X184947440Y-86490000D01*
X184947440Y-85690000D01*
X184901691Y-85460000D01*
X184947440Y-85230000D01*
X184947440Y-84430000D01*
X184899702Y-84190000D01*
X184947440Y-83950000D01*
X184947440Y-83660000D01*
X190525153Y-83660000D01*
X190600000Y-83674888D01*
X190674847Y-83660000D01*
X190674852Y-83660000D01*
X190896537Y-83615904D01*
X191147929Y-83447929D01*
X191190331Y-83384470D01*
X191240000Y-83334801D01*
X191240001Y-83977560D01*
X186600000Y-83977560D01*
X186352235Y-84026843D01*
X186142191Y-84167191D01*
X186001843Y-84377235D01*
X185952560Y-84625000D01*
X185952560Y-86375000D01*
X186001843Y-86622765D01*
X186142191Y-86832809D01*
X186352235Y-86973157D01*
X186600000Y-87022440D01*
X191400000Y-87022440D01*
X191647765Y-86973157D01*
X191857809Y-86832809D01*
X191998157Y-86622765D01*
X192047440Y-86375000D01*
X192047440Y-86148483D01*
X192197929Y-86047929D01*
X192240000Y-85984965D01*
X192240001Y-90685197D01*
X192006420Y-90918778D01*
X191998157Y-90877235D01*
X191857809Y-90667191D01*
X191647765Y-90526843D01*
X191400000Y-90477560D01*
X186600000Y-90477560D01*
X186352235Y-90526843D01*
X186142191Y-90667191D01*
X186001843Y-90877235D01*
X185952560Y-91125000D01*
X185952560Y-92875000D01*
X186001843Y-93122765D01*
X186142191Y-93332809D01*
X186352235Y-93473157D01*
X186600000Y-93522440D01*
X191400000Y-93522440D01*
X191647765Y-93473157D01*
X191857809Y-93332809D01*
X191998157Y-93122765D01*
X192047440Y-92875000D01*
X192047440Y-92765452D01*
X192074847Y-92760000D01*
X192074852Y-92760000D01*
X192296537Y-92715904D01*
X192547929Y-92547929D01*
X192590331Y-92484470D01*
X192789051Y-92285750D01*
X195365000Y-92285750D01*
X195365000Y-92676310D01*
X195461673Y-92909699D01*
X195640302Y-93088327D01*
X195873691Y-93185000D01*
X196614250Y-93185000D01*
X196773000Y-93026250D01*
X196773000Y-92127000D01*
X197027000Y-92127000D01*
X197027000Y-93026250D01*
X197185750Y-93185000D01*
X197926309Y-93185000D01*
X198159698Y-93088327D01*
X198338327Y-92909699D01*
X198435000Y-92676310D01*
X198435000Y-92285750D01*
X198276250Y-92127000D01*
X197027000Y-92127000D01*
X196773000Y-92127000D01*
X195523750Y-92127000D01*
X195365000Y-92285750D01*
X192789051Y-92285750D01*
X193484473Y-91590329D01*
X193547929Y-91547929D01*
X193715904Y-91296537D01*
X193760000Y-91074852D01*
X193760000Y-91074848D01*
X193774888Y-91000000D01*
X193760000Y-90925152D01*
X193760000Y-87836946D01*
X193798080Y-87893937D01*
X193861535Y-87936337D01*
X194709673Y-88784475D01*
X194752071Y-88847929D01*
X194815524Y-88890327D01*
X194815526Y-88890329D01*
X194884682Y-88936537D01*
X195003463Y-89015904D01*
X195225148Y-89060000D01*
X195225152Y-89060000D01*
X195299999Y-89074888D01*
X195374846Y-89060000D01*
X195394331Y-89060000D01*
X195401843Y-89097765D01*
X195542191Y-89307809D01*
X195752235Y-89448157D01*
X195927084Y-89482936D01*
X195765000Y-89874242D01*
X195765000Y-90325774D01*
X195937793Y-90742934D01*
X196009859Y-90815000D01*
X195873691Y-90815000D01*
X195640302Y-90911673D01*
X195461673Y-91090301D01*
X195365000Y-91323690D01*
X195365000Y-91714250D01*
X195523750Y-91873000D01*
X196773000Y-91873000D01*
X196773000Y-91853000D01*
X197027000Y-91853000D01*
X197027000Y-91873000D01*
X198276250Y-91873000D01*
X198435000Y-91714250D01*
X198435000Y-91323690D01*
X198338327Y-91090301D01*
X198159698Y-90911673D01*
X197926309Y-90815000D01*
X197790141Y-90815000D01*
X197862207Y-90742934D01*
X198035000Y-90325774D01*
X198035000Y-89874242D01*
X197872916Y-89482936D01*
X198047765Y-89448157D01*
X198257809Y-89307809D01*
X198398157Y-89097765D01*
X198447440Y-88850000D01*
X198447440Y-87750000D01*
X198427040Y-87647440D01*
X199000000Y-87647440D01*
X199247765Y-87598157D01*
X199457809Y-87457809D01*
X199500000Y-87394666D01*
X199542191Y-87457809D01*
X199752235Y-87598157D01*
X200000000Y-87647440D01*
X200461563Y-87647440D01*
X199501280Y-88607724D01*
X199437821Y-88650126D01*
X199269846Y-88901519D01*
X199225750Y-89123204D01*
X199225750Y-89123208D01*
X199210862Y-89198055D01*
X199225750Y-89272902D01*
X199225751Y-92999447D01*
X197435530Y-94789669D01*
X197372071Y-94832071D01*
X197204096Y-95083464D01*
X197160000Y-95305149D01*
X197160000Y-95305153D01*
X197145112Y-95380000D01*
X197160000Y-95454847D01*
X197160001Y-96962560D01*
X197070000Y-96962560D01*
X196822235Y-97011843D01*
X196612191Y-97152191D01*
X196471843Y-97362235D01*
X196422560Y-97610000D01*
X196422560Y-98974821D01*
X193385000Y-98974821D01*
X193385000Y-98085750D01*
X193226250Y-97927000D01*
X191877000Y-97927000D01*
X191877000Y-99526250D01*
X192035750Y-99685000D01*
X192240198Y-99685000D01*
X191285199Y-100640000D01*
X190533563Y-100640000D01*
X190585000Y-100515820D01*
X190585000Y-100084180D01*
X190419818Y-99685397D01*
X190114603Y-99380182D01*
X189715820Y-99215000D01*
X189683025Y-99215000D01*
X189688327Y-99209698D01*
X189785000Y-98976309D01*
X189785000Y-98085750D01*
X190115000Y-98085750D01*
X190115000Y-99176309D01*
X190211673Y-99409698D01*
X190390301Y-99588327D01*
X190623690Y-99685000D01*
X191464250Y-99685000D01*
X191623000Y-99526250D01*
X191623000Y-97927000D01*
X190273750Y-97927000D01*
X190115000Y-98085750D01*
X189785000Y-98085750D01*
X189785000Y-97985750D01*
X189626250Y-97827000D01*
X189025000Y-97827000D01*
X189025000Y-97847000D01*
X188997440Y-97847000D01*
X188997440Y-96550000D01*
X188948157Y-96302235D01*
X188807809Y-96092191D01*
X188780211Y-96073750D01*
X189025000Y-96073750D01*
X189025000Y-97573000D01*
X189626250Y-97573000D01*
X189785000Y-97414250D01*
X189785000Y-96423691D01*
X190115000Y-96423691D01*
X190115000Y-97514250D01*
X190273750Y-97673000D01*
X191623000Y-97673000D01*
X191623000Y-96073750D01*
X191877000Y-96073750D01*
X191877000Y-97673000D01*
X193226250Y-97673000D01*
X193385000Y-97514250D01*
X193385000Y-96423691D01*
X193288327Y-96190302D01*
X193109699Y-96011673D01*
X192876310Y-95915000D01*
X192035750Y-95915000D01*
X191877000Y-96073750D01*
X191623000Y-96073750D01*
X191464250Y-95915000D01*
X190623690Y-95915000D01*
X190390301Y-96011673D01*
X190211673Y-96190302D01*
X190115000Y-96423691D01*
X189785000Y-96423691D01*
X189688327Y-96190302D01*
X189509699Y-96011673D01*
X189276310Y-95915000D01*
X189183750Y-95915000D01*
X189025000Y-96073750D01*
X188780211Y-96073750D01*
X188764508Y-96063258D01*
X188616250Y-95915000D01*
X188523690Y-95915000D01*
X188487631Y-95929936D01*
X188350000Y-95902560D01*
X188060000Y-95902560D01*
X188060000Y-95574848D01*
X188074888Y-95500000D01*
X188060000Y-95425152D01*
X188060000Y-95425148D01*
X188015904Y-95203463D01*
X187847929Y-94952071D01*
X187784473Y-94909671D01*
X186890331Y-94015530D01*
X186847929Y-93952071D01*
X186596537Y-93784096D01*
X186374852Y-93740000D01*
X186374847Y-93740000D01*
X186300000Y-93725112D01*
X186225153Y-93740000D01*
X181314802Y-93740000D01*
X180660000Y-93085199D01*
X180660000Y-90174848D01*
X180674888Y-90100000D01*
X180660000Y-90025152D01*
X180660000Y-90025148D01*
X180615904Y-89803463D01*
X180615904Y-89803462D01*
X180490329Y-89615527D01*
X180447929Y-89552071D01*
X180384473Y-89509671D01*
X179030331Y-88155530D01*
X178987929Y-88092071D01*
X178736537Y-87924096D01*
X178619433Y-87900802D01*
X178647440Y-87760000D01*
X178647440Y-86960000D01*
X178608547Y-86764470D01*
X178797929Y-86637929D01*
X178840331Y-86574470D01*
X179984473Y-85430329D01*
X180047929Y-85387929D01*
X180215904Y-85136537D01*
X180260000Y-84914852D01*
X180260000Y-84914847D01*
X180274888Y-84840000D01*
X180260000Y-84765153D01*
X180260000Y-81367726D01*
X180274888Y-81292878D01*
X180273471Y-81285750D01*
X180615000Y-81285750D01*
X180615000Y-81751310D01*
X180711673Y-81984699D01*
X180890302Y-82163327D01*
X181123691Y-82260000D01*
X181714250Y-82260000D01*
X181873000Y-82101250D01*
X181873000Y-81127000D01*
X180773750Y-81127000D01*
X180615000Y-81285750D01*
X180273471Y-81285750D01*
X180260000Y-81218030D01*
X180260000Y-81218026D01*
X180215904Y-80996341D01*
X180215904Y-80996340D01*
X180090329Y-80808405D01*
X180047929Y-80744949D01*
X179984473Y-80702549D01*
X179760000Y-80478077D01*
X179760000Y-75314801D01*
X181914802Y-73160000D01*
X196277560Y-73160000D01*
X196277560Y-74277560D01*
X196277560Y-74277560D01*
G37*
X196277560Y-74277560D02*
X194950000Y-74277560D01*
X194702235Y-74326843D01*
X194532885Y-74440000D01*
X194514802Y-74440000D01*
X193590331Y-73515530D01*
X193547929Y-73452071D01*
X193296537Y-73284096D01*
X193074852Y-73240000D01*
X193074847Y-73240000D01*
X193000000Y-73225112D01*
X192925153Y-73240000D01*
X188074847Y-73240000D01*
X188000000Y-73225112D01*
X187925153Y-73240000D01*
X187925148Y-73240000D01*
X187703463Y-73284096D01*
X187452071Y-73452071D01*
X187409671Y-73515527D01*
X185975530Y-74949669D01*
X185912071Y-74992071D01*
X185744096Y-75243464D01*
X185700000Y-75465149D01*
X185700000Y-75465153D01*
X185685112Y-75540000D01*
X185700000Y-75614847D01*
X185700001Y-77221821D01*
X185389375Y-77429375D01*
X185176157Y-77748478D01*
X185115183Y-77618642D01*
X184686924Y-77228355D01*
X184276890Y-77058524D01*
X184047000Y-77179845D01*
X184047000Y-78373000D01*
X184067000Y-78373000D01*
X184067000Y-78627000D01*
X184047000Y-78627000D01*
X184047000Y-78647000D01*
X183793000Y-78647000D01*
X183793000Y-78627000D01*
X183773000Y-78627000D01*
X183773000Y-78373000D01*
X183793000Y-78373000D01*
X183793000Y-77179845D01*
X183563110Y-77058524D01*
X183153076Y-77228355D01*
X182848739Y-77505708D01*
X182828157Y-77402235D01*
X182687809Y-77192191D01*
X182477765Y-77051843D01*
X182230000Y-77002560D01*
X180530000Y-77002560D01*
X180282235Y-77051843D01*
X180072191Y-77192191D01*
X179931843Y-77402235D01*
X179882560Y-77650000D01*
X179882560Y-79350000D01*
X179931843Y-79597765D01*
X180072191Y-79807809D01*
X180282235Y-79948157D01*
X180530000Y-79997440D01*
X180729534Y-79997440D01*
X180711673Y-80015301D01*
X180615000Y-80248690D01*
X180615000Y-80714250D01*
X180773750Y-80873000D01*
X181873000Y-80873000D01*
X181873000Y-80853000D01*
X182127000Y-80853000D01*
X182127000Y-80873000D01*
X182147000Y-80873000D01*
X182147000Y-81127000D01*
X182127000Y-81127000D01*
X182127000Y-82101250D01*
X182285750Y-82260000D01*
X182740001Y-82260000D01*
X182740001Y-82560018D01*
X182542191Y-82692191D01*
X182401843Y-82902235D01*
X182352560Y-83150000D01*
X182352560Y-83950000D01*
X182400298Y-84190000D01*
X182352560Y-84430000D01*
X182352560Y-85230000D01*
X182398309Y-85460000D01*
X182352560Y-85690000D01*
X182352560Y-86490000D01*
X182399304Y-86725000D01*
X182352560Y-86960000D01*
X182352560Y-87760000D01*
X182400298Y-88000000D01*
X182352560Y-88240000D01*
X182352560Y-89040000D01*
X182399304Y-89275000D01*
X182352560Y-89510000D01*
X182352560Y-90310000D01*
X182398309Y-90540000D01*
X182352560Y-90770000D01*
X182352560Y-91570000D01*
X182400298Y-91810000D01*
X182352560Y-92050000D01*
X182352560Y-92850000D01*
X182401843Y-93097765D01*
X182542191Y-93307809D01*
X182752235Y-93448157D01*
X183000000Y-93497440D01*
X184300000Y-93497440D01*
X184547765Y-93448157D01*
X184757809Y-93307809D01*
X184898157Y-93097765D01*
X184947440Y-92850000D01*
X184947440Y-92050000D01*
X184899702Y-91810000D01*
X184947440Y-91570000D01*
X184947440Y-90770000D01*
X184901691Y-90540000D01*
X184947440Y-90310000D01*
X184947440Y-89510000D01*
X184900696Y-89275000D01*
X184947440Y-89040000D01*
X184947440Y-89035750D01*
X185965000Y-89035750D01*
X185965000Y-89751309D01*
X186061673Y-89984698D01*
X186240301Y-90163327D01*
X186473690Y-90260000D01*
X188714250Y-90260000D01*
X188873000Y-90101250D01*
X188873000Y-88877000D01*
X189127000Y-88877000D01*
X189127000Y-90101250D01*
X189285750Y-90260000D01*
X191526310Y-90260000D01*
X191759699Y-90163327D01*
X191938327Y-89984698D01*
X192035000Y-89751309D01*
X192035000Y-89035750D01*
X191876250Y-88877000D01*
X189127000Y-88877000D01*
X188873000Y-88877000D01*
X186123750Y-88877000D01*
X185965000Y-89035750D01*
X184947440Y-89035750D01*
X184947440Y-88240000D01*
X184899702Y-88000000D01*
X184947440Y-87760000D01*
X184947440Y-87748691D01*
X185965000Y-87748691D01*
X185965000Y-88464250D01*
X186123750Y-88623000D01*
X188873000Y-88623000D01*
X188873000Y-87398750D01*
X189127000Y-87398750D01*
X189127000Y-88623000D01*
X191876250Y-88623000D01*
X192035000Y-88464250D01*
X192035000Y-87748691D01*
X191938327Y-87515302D01*
X191759699Y-87336673D01*
X191526310Y-87240000D01*
X189285750Y-87240000D01*
X189127000Y-87398750D01*
X188873000Y-87398750D01*
X188714250Y-87240000D01*
X186473690Y-87240000D01*
X186240301Y-87336673D01*
X186061673Y-87515302D01*
X185965000Y-87748691D01*
X184947440Y-87748691D01*
X184947440Y-86960000D01*
X184900696Y-86725000D01*
X184947440Y-86490000D01*
X184947440Y-85690000D01*
X184901691Y-85460000D01*
X184947440Y-85230000D01*
X184947440Y-84430000D01*
X184899702Y-84190000D01*
X184947440Y-83950000D01*
X184947440Y-83660000D01*
X190525153Y-83660000D01*
X190600000Y-83674888D01*
X190674847Y-83660000D01*
X190674852Y-83660000D01*
X190896537Y-83615904D01*
X191147929Y-83447929D01*
X191190331Y-83384470D01*
X191240000Y-83334801D01*
X191240001Y-83977560D01*
X186600000Y-83977560D01*
X186352235Y-84026843D01*
X186142191Y-84167191D01*
X186001843Y-84377235D01*
X185952560Y-84625000D01*
X185952560Y-86375000D01*
X186001843Y-86622765D01*
X186142191Y-86832809D01*
X186352235Y-86973157D01*
X186600000Y-87022440D01*
X191400000Y-87022440D01*
X191647765Y-86973157D01*
X191857809Y-86832809D01*
X191998157Y-86622765D01*
X192047440Y-86375000D01*
X192047440Y-86148483D01*
X192197929Y-86047929D01*
X192240000Y-85984965D01*
X192240001Y-90685197D01*
X192006420Y-90918778D01*
X191998157Y-90877235D01*
X191857809Y-90667191D01*
X191647765Y-90526843D01*
X191400000Y-90477560D01*
X186600000Y-90477560D01*
X186352235Y-90526843D01*
X186142191Y-90667191D01*
X186001843Y-90877235D01*
X185952560Y-91125000D01*
X185952560Y-92875000D01*
X186001843Y-93122765D01*
X186142191Y-93332809D01*
X186352235Y-93473157D01*
X186600000Y-93522440D01*
X191400000Y-93522440D01*
X191647765Y-93473157D01*
X191857809Y-93332809D01*
X191998157Y-93122765D01*
X192047440Y-92875000D01*
X192047440Y-92765452D01*
X192074847Y-92760000D01*
X192074852Y-92760000D01*
X192296537Y-92715904D01*
X192547929Y-92547929D01*
X192590331Y-92484470D01*
X192789051Y-92285750D01*
X195365000Y-92285750D01*
X195365000Y-92676310D01*
X195461673Y-92909699D01*
X195640302Y-93088327D01*
X195873691Y-93185000D01*
X196614250Y-93185000D01*
X196773000Y-93026250D01*
X196773000Y-92127000D01*
X197027000Y-92127000D01*
X197027000Y-93026250D01*
X197185750Y-93185000D01*
X197926309Y-93185000D01*
X198159698Y-93088327D01*
X198338327Y-92909699D01*
X198435000Y-92676310D01*
X198435000Y-92285750D01*
X198276250Y-92127000D01*
X197027000Y-92127000D01*
X196773000Y-92127000D01*
X195523750Y-92127000D01*
X195365000Y-92285750D01*
X192789051Y-92285750D01*
X193484473Y-91590329D01*
X193547929Y-91547929D01*
X193715904Y-91296537D01*
X193760000Y-91074852D01*
X193760000Y-91074848D01*
X193774888Y-91000000D01*
X193760000Y-90925152D01*
X193760000Y-87836946D01*
X193798080Y-87893937D01*
X193861535Y-87936337D01*
X194709673Y-88784475D01*
X194752071Y-88847929D01*
X194815524Y-88890327D01*
X194815526Y-88890329D01*
X194884682Y-88936537D01*
X195003463Y-89015904D01*
X195225148Y-89060000D01*
X195225152Y-89060000D01*
X195299999Y-89074888D01*
X195374846Y-89060000D01*
X195394331Y-89060000D01*
X195401843Y-89097765D01*
X195542191Y-89307809D01*
X195752235Y-89448157D01*
X195927084Y-89482936D01*
X195765000Y-89874242D01*
X195765000Y-90325774D01*
X195937793Y-90742934D01*
X196009859Y-90815000D01*
X195873691Y-90815000D01*
X195640302Y-90911673D01*
X195461673Y-91090301D01*
X195365000Y-91323690D01*
X195365000Y-91714250D01*
X195523750Y-91873000D01*
X196773000Y-91873000D01*
X196773000Y-91853000D01*
X197027000Y-91853000D01*
X197027000Y-91873000D01*
X198276250Y-91873000D01*
X198435000Y-91714250D01*
X198435000Y-91323690D01*
X198338327Y-91090301D01*
X198159698Y-90911673D01*
X197926309Y-90815000D01*
X197790141Y-90815000D01*
X197862207Y-90742934D01*
X198035000Y-90325774D01*
X198035000Y-89874242D01*
X197872916Y-89482936D01*
X198047765Y-89448157D01*
X198257809Y-89307809D01*
X198398157Y-89097765D01*
X198447440Y-88850000D01*
X198447440Y-87750000D01*
X198427040Y-87647440D01*
X199000000Y-87647440D01*
X199247765Y-87598157D01*
X199457809Y-87457809D01*
X199500000Y-87394666D01*
X199542191Y-87457809D01*
X199752235Y-87598157D01*
X200000000Y-87647440D01*
X200461563Y-87647440D01*
X199501280Y-88607724D01*
X199437821Y-88650126D01*
X199269846Y-88901519D01*
X199225750Y-89123204D01*
X199225750Y-89123208D01*
X199210862Y-89198055D01*
X199225750Y-89272902D01*
X199225751Y-92999447D01*
X197435530Y-94789669D01*
X197372071Y-94832071D01*
X197204096Y-95083464D01*
X197160000Y-95305149D01*
X197160000Y-95305153D01*
X197145112Y-95380000D01*
X197160000Y-95454847D01*
X197160001Y-96962560D01*
X197070000Y-96962560D01*
X196822235Y-97011843D01*
X196612191Y-97152191D01*
X196471843Y-97362235D01*
X196422560Y-97610000D01*
X196422560Y-98974821D01*
X193385000Y-98974821D01*
X193385000Y-98085750D01*
X193226250Y-97927000D01*
X191877000Y-97927000D01*
X191877000Y-99526250D01*
X192035750Y-99685000D01*
X192240198Y-99685000D01*
X191285199Y-100640000D01*
X190533563Y-100640000D01*
X190585000Y-100515820D01*
X190585000Y-100084180D01*
X190419818Y-99685397D01*
X190114603Y-99380182D01*
X189715820Y-99215000D01*
X189683025Y-99215000D01*
X189688327Y-99209698D01*
X189785000Y-98976309D01*
X189785000Y-98085750D01*
X190115000Y-98085750D01*
X190115000Y-99176309D01*
X190211673Y-99409698D01*
X190390301Y-99588327D01*
X190623690Y-99685000D01*
X191464250Y-99685000D01*
X191623000Y-99526250D01*
X191623000Y-97927000D01*
X190273750Y-97927000D01*
X190115000Y-98085750D01*
X189785000Y-98085750D01*
X189785000Y-97985750D01*
X189626250Y-97827000D01*
X189025000Y-97827000D01*
X189025000Y-97847000D01*
X188997440Y-97847000D01*
X188997440Y-96550000D01*
X188948157Y-96302235D01*
X188807809Y-96092191D01*
X188780211Y-96073750D01*
X189025000Y-96073750D01*
X189025000Y-97573000D01*
X189626250Y-97573000D01*
X189785000Y-97414250D01*
X189785000Y-96423691D01*
X190115000Y-96423691D01*
X190115000Y-97514250D01*
X190273750Y-97673000D01*
X191623000Y-97673000D01*
X191623000Y-96073750D01*
X191877000Y-96073750D01*
X191877000Y-97673000D01*
X193226250Y-97673000D01*
X193385000Y-97514250D01*
X193385000Y-96423691D01*
X193288327Y-96190302D01*
X193109699Y-96011673D01*
X192876310Y-95915000D01*
X192035750Y-95915000D01*
X191877000Y-96073750D01*
X191623000Y-96073750D01*
X191464250Y-95915000D01*
X190623690Y-95915000D01*
X190390301Y-96011673D01*
X190211673Y-96190302D01*
X190115000Y-96423691D01*
X189785000Y-96423691D01*
X189688327Y-96190302D01*
X189509699Y-96011673D01*
X189276310Y-95915000D01*
X189183750Y-95915000D01*
X189025000Y-96073750D01*
X188780211Y-96073750D01*
X188764508Y-96063258D01*
X188616250Y-95915000D01*
X188523690Y-95915000D01*
X188487631Y-95929936D01*
X188350000Y-95902560D01*
X188060000Y-95902560D01*
X188060000Y-95574848D01*
X188074888Y-95500000D01*
X188060000Y-95425152D01*
X188060000Y-95425148D01*
X188015904Y-95203463D01*
X187847929Y-94952071D01*
X187784473Y-94909671D01*
X186890331Y-94015530D01*
X186847929Y-93952071D01*
X186596537Y-93784096D01*
X186374852Y-93740000D01*
X186374847Y-93740000D01*
X186300000Y-93725112D01*
X186225153Y-93740000D01*
X181314802Y-93740000D01*
X180660000Y-93085199D01*
X180660000Y-90174848D01*
X180674888Y-90100000D01*
X180660000Y-90025152D01*
X180660000Y-90025148D01*
X180615904Y-89803463D01*
X180615904Y-89803462D01*
X180490329Y-89615527D01*
X180447929Y-89552071D01*
X180384473Y-89509671D01*
X179030331Y-88155530D01*
X178987929Y-88092071D01*
X178736537Y-87924096D01*
X178619433Y-87900802D01*
X178647440Y-87760000D01*
X178647440Y-86960000D01*
X178608547Y-86764470D01*
X178797929Y-86637929D01*
X178840331Y-86574470D01*
X179984473Y-85430329D01*
X180047929Y-85387929D01*
X180215904Y-85136537D01*
X180260000Y-84914852D01*
X180260000Y-84914847D01*
X180274888Y-84840000D01*
X180260000Y-84765153D01*
X180260000Y-81367726D01*
X180274888Y-81292878D01*
X180273471Y-81285750D01*
X180615000Y-81285750D01*
X180615000Y-81751310D01*
X180711673Y-81984699D01*
X180890302Y-82163327D01*
X181123691Y-82260000D01*
X181714250Y-82260000D01*
X181873000Y-82101250D01*
X181873000Y-81127000D01*
X180773750Y-81127000D01*
X180615000Y-81285750D01*
X180273471Y-81285750D01*
X180260000Y-81218030D01*
X180260000Y-81218026D01*
X180215904Y-80996341D01*
X180215904Y-80996340D01*
X180090329Y-80808405D01*
X180047929Y-80744949D01*
X179984473Y-80702549D01*
X179760000Y-80478077D01*
X179760000Y-75314801D01*
X181914802Y-73160000D01*
X196277560Y-73160000D01*
X196277560Y-74277560D01*
G36*
X204192000Y-90842210D02*
X204126309Y-90815000D01*
X203385750Y-90815000D01*
X203227000Y-90973750D01*
X203227000Y-91873000D01*
X203247000Y-91873000D01*
X203247000Y-92127000D01*
X203227000Y-92127000D01*
X203227000Y-93026250D01*
X203385750Y-93185000D01*
X204126309Y-93185000D01*
X204192000Y-93157790D01*
X204192000Y-94340022D01*
X202156781Y-94340022D01*
X202156781Y-93185000D01*
X202814250Y-93185000D01*
X202973000Y-93026250D01*
X202973000Y-92127000D01*
X202953000Y-92127000D01*
X202953000Y-91873000D01*
X202973000Y-91873000D01*
X202973000Y-90973750D01*
X202814250Y-90815000D01*
X202156781Y-90815000D01*
X202156781Y-90395842D01*
X203055184Y-89497440D01*
X204000000Y-89497440D01*
X204191999Y-89459249D01*
X204192000Y-90842210D01*
X204192000Y-90842210D01*
G37*
X204192000Y-90842210D02*
X204126309Y-90815000D01*
X203385750Y-90815000D01*
X203227000Y-90973750D01*
X203227000Y-91873000D01*
X203247000Y-91873000D01*
X203247000Y-92127000D01*
X203227000Y-92127000D01*
X203227000Y-93026250D01*
X203385750Y-93185000D01*
X204126309Y-93185000D01*
X204192000Y-93157790D01*
X204192000Y-94340022D01*
X202156781Y-94340022D01*
X202156781Y-93185000D01*
X202814250Y-93185000D01*
X202973000Y-93026250D01*
X202973000Y-92127000D01*
X202953000Y-92127000D01*
X202953000Y-91873000D01*
X202973000Y-91873000D01*
X202973000Y-90973750D01*
X202814250Y-90815000D01*
X202156781Y-90815000D01*
X202156781Y-90395842D01*
X203055184Y-89497440D01*
X204000000Y-89497440D01*
X204191999Y-89459249D01*
X204192000Y-90842210D01*
G36*
X213583076Y-84365000D02*
X213285750Y-84365000D01*
X213127000Y-84523750D01*
X213127000Y-85623000D01*
X214101250Y-85623000D01*
X214260000Y-85464250D01*
X214260000Y-85041924D01*
X215458076Y-86240000D01*
X214260000Y-86240000D01*
X214260000Y-86035750D01*
X214101250Y-85877000D01*
X213127000Y-85877000D01*
X213127000Y-85897000D01*
X212873000Y-85897000D01*
X212873000Y-85877000D01*
X212853000Y-85877000D01*
X212853000Y-85623000D01*
X212873000Y-85623000D01*
X212873000Y-84523750D01*
X212714250Y-84365000D01*
X212248690Y-84365000D01*
X212054121Y-84445593D01*
X212015904Y-84253463D01*
X211847929Y-84002071D01*
X211784473Y-83959671D01*
X206540331Y-78715530D01*
X206497929Y-78652071D01*
X206246537Y-78484096D01*
X206024852Y-78440000D01*
X206024847Y-78440000D01*
X205950000Y-78425112D01*
X205875153Y-78440000D01*
X205697440Y-78440000D01*
X205697440Y-78125000D01*
X205676783Y-78021148D01*
X205685000Y-78001310D01*
X205685000Y-77885750D01*
X205591112Y-77791862D01*
X205507809Y-77667191D01*
X205407251Y-77600000D01*
X205467115Y-77560000D01*
X206778077Y-77560000D01*
X213583076Y-84365000D01*
X213583076Y-84365000D01*
G37*
X213583076Y-84365000D02*
X213285750Y-84365000D01*
X213127000Y-84523750D01*
X213127000Y-85623000D01*
X214101250Y-85623000D01*
X214260000Y-85464250D01*
X214260000Y-85041924D01*
X215458076Y-86240000D01*
X214260000Y-86240000D01*
X214260000Y-86035750D01*
X214101250Y-85877000D01*
X213127000Y-85877000D01*
X213127000Y-85897000D01*
X212873000Y-85897000D01*
X212873000Y-85877000D01*
X212853000Y-85877000D01*
X212853000Y-85623000D01*
X212873000Y-85623000D01*
X212873000Y-84523750D01*
X212714250Y-84365000D01*
X212248690Y-84365000D01*
X212054121Y-84445593D01*
X212015904Y-84253463D01*
X211847929Y-84002071D01*
X211784473Y-83959671D01*
X206540331Y-78715530D01*
X206497929Y-78652071D01*
X206246537Y-78484096D01*
X206024852Y-78440000D01*
X206024847Y-78440000D01*
X205950000Y-78425112D01*
X205875153Y-78440000D01*
X205697440Y-78440000D01*
X205697440Y-78125000D01*
X205676783Y-78021148D01*
X205685000Y-78001310D01*
X205685000Y-77885750D01*
X205591112Y-77791862D01*
X205507809Y-77667191D01*
X205407251Y-77600000D01*
X205467115Y-77560000D01*
X206778077Y-77560000D01*
X213583076Y-84365000D01*
G36*
X228853463Y-79284096D02*
X228602071Y-79452071D01*
X228559669Y-79515530D01*
X228515528Y-79559671D01*
X228452072Y-79602071D01*
X228409672Y-79665527D01*
X228409671Y-79665528D01*
X228351518Y-79752560D01*
X228350000Y-79752560D01*
X228102235Y-79801843D01*
X227892191Y-79942191D01*
X227751843Y-80152235D01*
X227746279Y-80180209D01*
X227688327Y-80040302D01*
X227509699Y-79861673D01*
X227276310Y-79765000D01*
X226785750Y-79765000D01*
X226627000Y-79923750D01*
X226627000Y-81023000D01*
X226647000Y-81023000D01*
X226647000Y-81277000D01*
X226627000Y-81277000D01*
X226627000Y-81297000D01*
X226373000Y-81297000D01*
X226373000Y-81277000D01*
X225373750Y-81277000D01*
X225215000Y-81435750D01*
X225215000Y-82026309D01*
X225311673Y-82259698D01*
X225490301Y-82438327D01*
X225630209Y-82496279D01*
X225602235Y-82501843D01*
X225392191Y-82642191D01*
X225251843Y-82852235D01*
X225202560Y-83100000D01*
X225202560Y-84600000D01*
X225251843Y-84847765D01*
X225300097Y-84919981D01*
X225252071Y-84952071D01*
X225209671Y-85015528D01*
X224915529Y-85309669D01*
X224852071Y-85352071D01*
X224751518Y-85502560D01*
X224550000Y-85502560D01*
X224302235Y-85551843D01*
X224092191Y-85692191D01*
X223951843Y-85902235D01*
X223927550Y-86024366D01*
X223810625Y-85849375D01*
X223491522Y-85636157D01*
X223621358Y-85575183D01*
X224011645Y-85146924D01*
X224181476Y-84736890D01*
X224060155Y-84507000D01*
X222867000Y-84507000D01*
X222867000Y-84527000D01*
X222613000Y-84527000D01*
X222613000Y-84507000D01*
X222593000Y-84507000D01*
X222593000Y-84253000D01*
X222613000Y-84253000D01*
X222613000Y-84233000D01*
X222867000Y-84233000D01*
X222867000Y-84253000D01*
X224060155Y-84253000D01*
X224181476Y-84023110D01*
X224011645Y-83613076D01*
X223621358Y-83184817D01*
X223491522Y-83123843D01*
X223810625Y-82910625D01*
X224138839Y-82419418D01*
X224254092Y-81840000D01*
X224138839Y-81260582D01*
X223810625Y-80769375D01*
X223500000Y-80561822D01*
X223500000Y-80273691D01*
X225215000Y-80273691D01*
X225215000Y-80864250D01*
X225373750Y-81023000D01*
X226373000Y-81023000D01*
X226373000Y-79923750D01*
X226214250Y-79765000D01*
X225723690Y-79765000D01*
X225490301Y-79861673D01*
X225311673Y-80040302D01*
X225215000Y-80273691D01*
X223500000Y-80273691D01*
X223500000Y-79574802D01*
X223814802Y-79260000D01*
X228974601Y-79260000D01*
X228853463Y-79284096D01*
X228853463Y-79284096D01*
G37*
X228853463Y-79284096D02*
X228602071Y-79452071D01*
X228559669Y-79515530D01*
X228515528Y-79559671D01*
X228452072Y-79602071D01*
X228409672Y-79665527D01*
X228409671Y-79665528D01*
X228351518Y-79752560D01*
X228350000Y-79752560D01*
X228102235Y-79801843D01*
X227892191Y-79942191D01*
X227751843Y-80152235D01*
X227746279Y-80180209D01*
X227688327Y-80040302D01*
X227509699Y-79861673D01*
X227276310Y-79765000D01*
X226785750Y-79765000D01*
X226627000Y-79923750D01*
X226627000Y-81023000D01*
X226647000Y-81023000D01*
X226647000Y-81277000D01*
X226627000Y-81277000D01*
X226627000Y-81297000D01*
X226373000Y-81297000D01*
X226373000Y-81277000D01*
X225373750Y-81277000D01*
X225215000Y-81435750D01*
X225215000Y-82026309D01*
X225311673Y-82259698D01*
X225490301Y-82438327D01*
X225630209Y-82496279D01*
X225602235Y-82501843D01*
X225392191Y-82642191D01*
X225251843Y-82852235D01*
X225202560Y-83100000D01*
X225202560Y-84600000D01*
X225251843Y-84847765D01*
X225300097Y-84919981D01*
X225252071Y-84952071D01*
X225209671Y-85015528D01*
X224915529Y-85309669D01*
X224852071Y-85352071D01*
X224751518Y-85502560D01*
X224550000Y-85502560D01*
X224302235Y-85551843D01*
X224092191Y-85692191D01*
X223951843Y-85902235D01*
X223927550Y-86024366D01*
X223810625Y-85849375D01*
X223491522Y-85636157D01*
X223621358Y-85575183D01*
X224011645Y-85146924D01*
X224181476Y-84736890D01*
X224060155Y-84507000D01*
X222867000Y-84507000D01*
X222867000Y-84527000D01*
X222613000Y-84527000D01*
X222613000Y-84507000D01*
X222593000Y-84507000D01*
X222593000Y-84253000D01*
X222613000Y-84253000D01*
X222613000Y-84233000D01*
X222867000Y-84233000D01*
X222867000Y-84253000D01*
X224060155Y-84253000D01*
X224181476Y-84023110D01*
X224011645Y-83613076D01*
X223621358Y-83184817D01*
X223491522Y-83123843D01*
X223810625Y-82910625D01*
X224138839Y-82419418D01*
X224254092Y-81840000D01*
X224138839Y-81260582D01*
X223810625Y-80769375D01*
X223500000Y-80561822D01*
X223500000Y-80273691D01*
X225215000Y-80273691D01*
X225215000Y-80864250D01*
X225373750Y-81023000D01*
X226373000Y-81023000D01*
X226373000Y-79923750D01*
X226214250Y-79765000D01*
X225723690Y-79765000D01*
X225490301Y-79861673D01*
X225311673Y-80040302D01*
X225215000Y-80273691D01*
X223500000Y-80273691D01*
X223500000Y-79574802D01*
X223814802Y-79260000D01*
X228974601Y-79260000D01*
X228853463Y-79284096D01*
G36*
X193409671Y-76484472D02*
X193452071Y-76547929D01*
X193515527Y-76590329D01*
X193703462Y-76715904D01*
X193741771Y-76723524D01*
X193925148Y-76760000D01*
X193925152Y-76760000D01*
X194000000Y-76774888D01*
X194074848Y-76760000D01*
X194532885Y-76760000D01*
X194592749Y-76800000D01*
X194492191Y-76867191D01*
X194408888Y-76991862D01*
X194315000Y-77085750D01*
X194315000Y-77201310D01*
X194323217Y-77221148D01*
X194302560Y-77325000D01*
X194302560Y-77875000D01*
X194323217Y-77978852D01*
X194315000Y-77998690D01*
X194315000Y-78114250D01*
X194408888Y-78208138D01*
X194492191Y-78332809D01*
X194592749Y-78400000D01*
X194532885Y-78440000D01*
X194374846Y-78440000D01*
X194299999Y-78425112D01*
X194225152Y-78440000D01*
X194225148Y-78440000D01*
X194003463Y-78484096D01*
X193752071Y-78652071D01*
X193709671Y-78715527D01*
X191052201Y-81372998D01*
X190926252Y-81372998D01*
X191085000Y-81214250D01*
X191085000Y-80723690D01*
X190988327Y-80490301D01*
X190809698Y-80311673D01*
X190576309Y-80215000D01*
X189985750Y-80215000D01*
X189827000Y-80373750D01*
X189827000Y-81373000D01*
X189847000Y-81373000D01*
X189847000Y-81627000D01*
X189827000Y-81627000D01*
X189827000Y-81647000D01*
X189573000Y-81647000D01*
X189573000Y-81627000D01*
X189553000Y-81627000D01*
X189553000Y-81373000D01*
X189573000Y-81373000D01*
X189573000Y-80373750D01*
X189414250Y-80215000D01*
X189359802Y-80215000D01*
X189484473Y-80090329D01*
X189547929Y-80047929D01*
X189630903Y-79923750D01*
X189702500Y-79816598D01*
X190070625Y-79570625D01*
X190398839Y-79079418D01*
X190514092Y-78500000D01*
X190398839Y-77920582D01*
X190070625Y-77429375D01*
X189579418Y-77101161D01*
X189560000Y-77097299D01*
X189560000Y-76795451D01*
X189797765Y-76748157D01*
X190007809Y-76607809D01*
X190148157Y-76397765D01*
X190150000Y-76388500D01*
X190151843Y-76397765D01*
X190292191Y-76607809D01*
X190502235Y-76748157D01*
X190750000Y-76797440D01*
X192250000Y-76797440D01*
X192497765Y-76748157D01*
X192707809Y-76607809D01*
X192848157Y-76397765D01*
X192875560Y-76260000D01*
X193185199Y-76260000D01*
X193409671Y-76484472D01*
X193409671Y-76484472D01*
G37*
X193409671Y-76484472D02*
X193452071Y-76547929D01*
X193515527Y-76590329D01*
X193703462Y-76715904D01*
X193741771Y-76723524D01*
X193925148Y-76760000D01*
X193925152Y-76760000D01*
X194000000Y-76774888D01*
X194074848Y-76760000D01*
X194532885Y-76760000D01*
X194592749Y-76800000D01*
X194492191Y-76867191D01*
X194408888Y-76991862D01*
X194315000Y-77085750D01*
X194315000Y-77201310D01*
X194323217Y-77221148D01*
X194302560Y-77325000D01*
X194302560Y-77875000D01*
X194323217Y-77978852D01*
X194315000Y-77998690D01*
X194315000Y-78114250D01*
X194408888Y-78208138D01*
X194492191Y-78332809D01*
X194592749Y-78400000D01*
X194532885Y-78440000D01*
X194374846Y-78440000D01*
X194299999Y-78425112D01*
X194225152Y-78440000D01*
X194225148Y-78440000D01*
X194003463Y-78484096D01*
X193752071Y-78652071D01*
X193709671Y-78715527D01*
X191052201Y-81372998D01*
X190926252Y-81372998D01*
X191085000Y-81214250D01*
X191085000Y-80723690D01*
X190988327Y-80490301D01*
X190809698Y-80311673D01*
X190576309Y-80215000D01*
X189985750Y-80215000D01*
X189827000Y-80373750D01*
X189827000Y-81373000D01*
X189847000Y-81373000D01*
X189847000Y-81627000D01*
X189827000Y-81627000D01*
X189827000Y-81647000D01*
X189573000Y-81647000D01*
X189573000Y-81627000D01*
X189553000Y-81627000D01*
X189553000Y-81373000D01*
X189573000Y-81373000D01*
X189573000Y-80373750D01*
X189414250Y-80215000D01*
X189359802Y-80215000D01*
X189484473Y-80090329D01*
X189547929Y-80047929D01*
X189630903Y-79923750D01*
X189702500Y-79816598D01*
X190070625Y-79570625D01*
X190398839Y-79079418D01*
X190514092Y-78500000D01*
X190398839Y-77920582D01*
X190070625Y-77429375D01*
X189579418Y-77101161D01*
X189560000Y-77097299D01*
X189560000Y-76795451D01*
X189797765Y-76748157D01*
X190007809Y-76607809D01*
X190148157Y-76397765D01*
X190150000Y-76388500D01*
X190151843Y-76397765D01*
X190292191Y-76607809D01*
X190502235Y-76748157D01*
X190750000Y-76797440D01*
X192250000Y-76797440D01*
X192497765Y-76748157D01*
X192707809Y-76607809D01*
X192848157Y-76397765D01*
X192875560Y-76260000D01*
X193185199Y-76260000D01*
X193409671Y-76484472D01*
G36*
X173930854Y-53442854D02*
X173979061Y-53515000D01*
X174181712Y-53818289D01*
X174276479Y-53881611D01*
X175218389Y-54823521D01*
X175281711Y-54918289D01*
X175522858Y-55079418D01*
X175657145Y-55169146D01*
X176100000Y-55257235D01*
X176211783Y-55235000D01*
X180288217Y-55235000D01*
X180399999Y-55257235D01*
X180511781Y-55235000D01*
X227088217Y-55235000D01*
X227200000Y-55257235D01*
X227311783Y-55235000D01*
X227642855Y-55169146D01*
X227983994Y-54941204D01*
X223760199Y-59165000D01*
X204035000Y-59165000D01*
X204035000Y-59147998D01*
X203903252Y-59147998D01*
X204035000Y-59016250D01*
X204035000Y-58948690D01*
X203938327Y-58715301D01*
X203759698Y-58536673D01*
X203526309Y-58440000D01*
X203135750Y-58440000D01*
X202977000Y-58598750D01*
X202977000Y-59077560D01*
X202723000Y-59077560D01*
X202723000Y-58598750D01*
X202564250Y-58440000D01*
X202173691Y-58440000D01*
X201940302Y-58536673D01*
X201761673Y-58715301D01*
X201665000Y-58948690D01*
X201665000Y-59016250D01*
X201823750Y-59175000D01*
X201980164Y-59175000D01*
X201842191Y-59267191D01*
X201771491Y-59373000D01*
X200627000Y-59373000D01*
X200627000Y-58500000D01*
X200617333Y-58451399D01*
X200589803Y-58410197D01*
X200548601Y-58382667D01*
X200500000Y-58373000D01*
X198000000Y-58373000D01*
X197951399Y-58382667D01*
X197910197Y-58410197D01*
X197882667Y-58451399D01*
X197880276Y-58463419D01*
X197700000Y-58427560D01*
X196600000Y-58427560D01*
X196352235Y-58476843D01*
X196295129Y-58515000D01*
X177089802Y-58515000D01*
X173260000Y-54685199D01*
X173260000Y-53397440D01*
X173921821Y-53397440D01*
X173930854Y-53442854D01*
X173930854Y-53442854D01*
G37*
X173930854Y-53442854D02*
X173979061Y-53515000D01*
X174181712Y-53818289D01*
X174276479Y-53881611D01*
X175218389Y-54823521D01*
X175281711Y-54918289D01*
X175522858Y-55079418D01*
X175657145Y-55169146D01*
X176100000Y-55257235D01*
X176211783Y-55235000D01*
X180288217Y-55235000D01*
X180399999Y-55257235D01*
X180511781Y-55235000D01*
X227088217Y-55235000D01*
X227200000Y-55257235D01*
X227311783Y-55235000D01*
X227642855Y-55169146D01*
X227983994Y-54941204D01*
X223760199Y-59165000D01*
X204035000Y-59165000D01*
X204035000Y-59147998D01*
X203903252Y-59147998D01*
X204035000Y-59016250D01*
X204035000Y-58948690D01*
X203938327Y-58715301D01*
X203759698Y-58536673D01*
X203526309Y-58440000D01*
X203135750Y-58440000D01*
X202977000Y-58598750D01*
X202977000Y-59077560D01*
X202723000Y-59077560D01*
X202723000Y-58598750D01*
X202564250Y-58440000D01*
X202173691Y-58440000D01*
X201940302Y-58536673D01*
X201761673Y-58715301D01*
X201665000Y-58948690D01*
X201665000Y-59016250D01*
X201823750Y-59175000D01*
X201980164Y-59175000D01*
X201842191Y-59267191D01*
X201771491Y-59373000D01*
X200627000Y-59373000D01*
X200627000Y-58500000D01*
X200617333Y-58451399D01*
X200589803Y-58410197D01*
X200548601Y-58382667D01*
X200500000Y-58373000D01*
X198000000Y-58373000D01*
X197951399Y-58382667D01*
X197910197Y-58410197D01*
X197882667Y-58451399D01*
X197880276Y-58463419D01*
X197700000Y-58427560D01*
X196600000Y-58427560D01*
X196352235Y-58476843D01*
X196295129Y-58515000D01*
X177089802Y-58515000D01*
X173260000Y-54685199D01*
X173260000Y-53397440D01*
X173921821Y-53397440D01*
X173930854Y-53442854D01*
M02*
