%TF.GenerationSoftware,KiCad,Pcbnew,no-vcs-found-835c19f~60~ubuntu16.04.1*%
%TF.CreationDate,2018-01-19T17:15:27+02:00*%
%TF.ProjectId,BrainDamage,427261696E44616D6167652E6B696361,rev?*%
%TF.SameCoordinates,Original*%
%TF.FileFunction,Copper,L1,Top,Signal*%
%TF.FilePolarity,Positive*%
%FSLAX46Y46*%
G04 Gerber Fmt 4.6, Leading zero omitted, Abs format (unit mm)*
G04 Created by KiCad (PCBNEW no-vcs-found-835c19f~60~ubuntu16.04.1) date Fri Jan 19 17:15:27 2018*
%MOMM*%
%LPD*%
G01*
G04 APERTURE LIST*
%TA.AperFunction,NonConductor*%
%ADD10C,0.300000*%
%TD*%
%TA.AperFunction,ComponentPad*%
%ADD11R,1.700000X1.700000*%
%TD*%
%TA.AperFunction,ComponentPad*%
%ADD12O,1.700000X1.700000*%
%TD*%
%TA.AperFunction,SMDPad,CuDef*%
%ADD13R,1.600000X0.550000*%
%TD*%
%TA.AperFunction,SMDPad,CuDef*%
%ADD14R,0.550000X1.600000*%
%TD*%
%TA.AperFunction,SMDPad,CuDef*%
%ADD15R,1.300000X1.500000*%
%TD*%
%TA.AperFunction,SMDPad,CuDef*%
%ADD16R,1.100000X0.400000*%
%TD*%
%TA.AperFunction,SMDPad,CuDef*%
%ADD17R,1.800000X1.100000*%
%TD*%
%TA.AperFunction,SMDPad,CuDef*%
%ADD18R,1.500000X1.300000*%
%TD*%
%TA.AperFunction,SMDPad,CuDef*%
%ADD19R,1.000000X1.000000*%
%TD*%
%TA.AperFunction,ComponentPad*%
%ADD20R,4.000000X4.000000*%
%TD*%
%TA.AperFunction,WasherPad*%
%ADD21R,4.000000X4.000000*%
%TD*%
%TA.AperFunction,SMDPad,CuDef*%
%ADD22R,0.970000X1.270000*%
%TD*%
%TA.AperFunction,SMDPad,CuDef*%
%ADD23R,4.800000X1.750000*%
%TD*%
%TA.AperFunction,SMDPad,CuDef*%
%ADD24R,1.270000X0.970000*%
%TD*%
%TA.AperFunction,Conductor*%
%ADD25C,1.000000*%
%TD*%
%TA.AperFunction,Conductor*%
%ADD26C,0.250000*%
%TD*%
%TA.AperFunction,Conductor*%
%ADD27C,0.254000*%
%TD*%
G04 APERTURE END LIST*
D10*
X213464285Y-73250000D02*
X214178571Y-73250000D01*
X213321428Y-73678571D02*
X213821428Y-72178571D01*
X214321428Y-73678571D01*
X215464285Y-73678571D02*
X215464285Y-72178571D01*
X215464285Y-73607142D02*
X215321428Y-73678571D01*
X215035714Y-73678571D01*
X214892857Y-73607142D01*
X214821428Y-73535714D01*
X214750000Y-73392857D01*
X214750000Y-72964285D01*
X214821428Y-72821428D01*
X214892857Y-72750000D01*
X215035714Y-72678571D01*
X215321428Y-72678571D01*
X215464285Y-72750000D01*
X216821428Y-73678571D02*
X216821428Y-72178571D01*
X216821428Y-73607142D02*
X216678571Y-73678571D01*
X216392857Y-73678571D01*
X216250000Y-73607142D01*
X216178571Y-73535714D01*
X216107142Y-73392857D01*
X216107142Y-72964285D01*
X216178571Y-72821428D01*
X216250000Y-72750000D01*
X216392857Y-72678571D01*
X216678571Y-72678571D01*
X216821428Y-72750000D01*
X217535714Y-73678571D02*
X217535714Y-72678571D01*
X217535714Y-72964285D02*
X217607142Y-72821428D01*
X217678571Y-72750000D01*
X217821428Y-72678571D01*
X217964285Y-72678571D01*
X219035714Y-73607142D02*
X218892857Y-73678571D01*
X218607142Y-73678571D01*
X218464285Y-73607142D01*
X218392857Y-73464285D01*
X218392857Y-72892857D01*
X218464285Y-72750000D01*
X218607142Y-72678571D01*
X218892857Y-72678571D01*
X219035714Y-72750000D01*
X219107142Y-72892857D01*
X219107142Y-73035714D01*
X218392857Y-73178571D01*
X219678571Y-73607142D02*
X219821428Y-73678571D01*
X220107142Y-73678571D01*
X220250000Y-73607142D01*
X220321428Y-73464285D01*
X220321428Y-73392857D01*
X220250000Y-73250000D01*
X220107142Y-73178571D01*
X219892857Y-73178571D01*
X219750000Y-73107142D01*
X219678571Y-72964285D01*
X219678571Y-72892857D01*
X219750000Y-72750000D01*
X219892857Y-72678571D01*
X220107142Y-72678571D01*
X220250000Y-72750000D01*
X220892857Y-73607142D02*
X221035714Y-73678571D01*
X221321428Y-73678571D01*
X221464285Y-73607142D01*
X221535714Y-73464285D01*
X221535714Y-73392857D01*
X221464285Y-73250000D01*
X221321428Y-73178571D01*
X221107142Y-73178571D01*
X220964285Y-73107142D01*
X220892857Y-72964285D01*
X220892857Y-72892857D01*
X220964285Y-72750000D01*
X221107142Y-72678571D01*
X221321428Y-72678571D01*
X221464285Y-72750000D01*
X180857142Y-95189285D02*
X180785714Y-95117857D01*
X180642857Y-95046428D01*
X180500000Y-95046428D01*
X180357142Y-95117857D01*
X180285714Y-95189285D01*
X180214285Y-95332142D01*
X180214285Y-95475000D01*
X180285714Y-95617857D01*
X180357142Y-95689285D01*
X180500000Y-95760714D01*
X180642857Y-95760714D01*
X180785714Y-95689285D01*
X180857142Y-95617857D01*
X180857142Y-95046428D02*
X180857142Y-95617857D01*
X180928571Y-95689285D01*
X181000000Y-95689285D01*
X181142857Y-95617857D01*
X181214285Y-95475000D01*
X181214285Y-95117857D01*
X181071428Y-94903571D01*
X180857142Y-94760714D01*
X180571428Y-94689285D01*
X180285714Y-94760714D01*
X180071428Y-94903571D01*
X179928571Y-95117857D01*
X179857142Y-95403571D01*
X179928571Y-95689285D01*
X180071428Y-95903571D01*
X180285714Y-96046428D01*
X180571428Y-96117857D01*
X180857142Y-96046428D01*
X181071428Y-95903571D01*
X182428571Y-95832142D02*
X182285714Y-95903571D01*
X182000000Y-95903571D01*
X181857142Y-95832142D01*
X181785714Y-95689285D01*
X181785714Y-95117857D01*
X181857142Y-94975000D01*
X182000000Y-94903571D01*
X182285714Y-94903571D01*
X182428571Y-94975000D01*
X182500000Y-95117857D01*
X182500000Y-95260714D01*
X181785714Y-95403571D01*
X183785714Y-95832142D02*
X183642857Y-95903571D01*
X183357142Y-95903571D01*
X183214285Y-95832142D01*
X183142857Y-95760714D01*
X183071428Y-95617857D01*
X183071428Y-95189285D01*
X183142857Y-95046428D01*
X183214285Y-94975000D01*
X183357142Y-94903571D01*
X183642857Y-94903571D01*
X183785714Y-94975000D01*
X185071428Y-95832142D02*
X184928571Y-95903571D01*
X184642857Y-95903571D01*
X184500000Y-95832142D01*
X184428571Y-95760714D01*
X184357142Y-95617857D01*
X184357142Y-95189285D01*
X184428571Y-95046428D01*
X184500000Y-94975000D01*
X184642857Y-94903571D01*
X184928571Y-94903571D01*
X185071428Y-94975000D01*
X185928571Y-95903571D02*
X185785714Y-95832142D01*
X185714285Y-95760714D01*
X185642857Y-95617857D01*
X185642857Y-95189285D01*
X185714285Y-95046428D01*
X185785714Y-94975000D01*
X185928571Y-94903571D01*
X186142857Y-94903571D01*
X186285714Y-94975000D01*
X186357142Y-95046428D01*
X186428571Y-95189285D01*
X186428571Y-95617857D01*
X186357142Y-95760714D01*
X186285714Y-95832142D01*
X186142857Y-95903571D01*
X185928571Y-95903571D01*
X187857142Y-95903571D02*
X187000000Y-95903571D01*
X187428571Y-95903571D02*
X187428571Y-94403571D01*
X187285714Y-94617857D01*
X187142857Y-94760714D01*
X187000000Y-94832142D01*
X188571428Y-95903571D02*
X188857142Y-95903571D01*
X189000000Y-95832142D01*
X189071428Y-95760714D01*
X189214285Y-95546428D01*
X189285714Y-95260714D01*
X189285714Y-94689285D01*
X189214285Y-94546428D01*
X189142857Y-94475000D01*
X189000000Y-94403571D01*
X188714285Y-94403571D01*
X188571428Y-94475000D01*
X188500000Y-94546428D01*
X188428571Y-94689285D01*
X188428571Y-95046428D01*
X188500000Y-95189285D01*
X188571428Y-95260714D01*
X188714285Y-95332142D01*
X189000000Y-95332142D01*
X189142857Y-95260714D01*
X189214285Y-95189285D01*
X189285714Y-95046428D01*
X190000000Y-95903571D02*
X190285714Y-95903571D01*
X190428571Y-95832142D01*
X190500000Y-95760714D01*
X190642857Y-95546428D01*
X190714285Y-95260714D01*
X190714285Y-94689285D01*
X190642857Y-94546428D01*
X190571428Y-94475000D01*
X190428571Y-94403571D01*
X190142857Y-94403571D01*
X190000000Y-94475000D01*
X189928571Y-94546428D01*
X189857142Y-94689285D01*
X189857142Y-95046428D01*
X189928571Y-95189285D01*
X190000000Y-95260714D01*
X190142857Y-95332142D01*
X190428571Y-95332142D01*
X190571428Y-95260714D01*
X190642857Y-95189285D01*
X190714285Y-95046428D01*
X192000000Y-94403571D02*
X191714285Y-94403571D01*
X191571428Y-94475000D01*
X191500000Y-94546428D01*
X191357142Y-94760714D01*
X191285714Y-95046428D01*
X191285714Y-95617857D01*
X191357142Y-95760714D01*
X191428571Y-95832142D01*
X191571428Y-95903571D01*
X191857142Y-95903571D01*
X192000000Y-95832142D01*
X192071428Y-95760714D01*
X192142857Y-95617857D01*
X192142857Y-95260714D01*
X192071428Y-95117857D01*
X192000000Y-95046428D01*
X191857142Y-94975000D01*
X191571428Y-94975000D01*
X191428571Y-95046428D01*
X191357142Y-95117857D01*
X191285714Y-95260714D01*
X183428571Y-97096428D02*
X183500000Y-97025000D01*
X183642857Y-96953571D01*
X184000000Y-96953571D01*
X184142857Y-97025000D01*
X184214285Y-97096428D01*
X184285714Y-97239285D01*
X184285714Y-97382142D01*
X184214285Y-97596428D01*
X183357142Y-98453571D01*
X184285714Y-98453571D01*
X185214285Y-96953571D02*
X185357142Y-96953571D01*
X185500000Y-97025000D01*
X185571428Y-97096428D01*
X185642857Y-97239285D01*
X185714285Y-97525000D01*
X185714285Y-97882142D01*
X185642857Y-98167857D01*
X185571428Y-98310714D01*
X185500000Y-98382142D01*
X185357142Y-98453571D01*
X185214285Y-98453571D01*
X185071428Y-98382142D01*
X185000000Y-98310714D01*
X184928571Y-98167857D01*
X184857142Y-97882142D01*
X184857142Y-97525000D01*
X184928571Y-97239285D01*
X185000000Y-97096428D01*
X185071428Y-97025000D01*
X185214285Y-96953571D01*
X187142857Y-98453571D02*
X186285714Y-98453571D01*
X186714285Y-98453571D02*
X186714285Y-96953571D01*
X186571428Y-97167857D01*
X186428571Y-97310714D01*
X186285714Y-97382142D01*
X188000000Y-97596428D02*
X187857142Y-97525000D01*
X187785714Y-97453571D01*
X187714285Y-97310714D01*
X187714285Y-97239285D01*
X187785714Y-97096428D01*
X187857142Y-97025000D01*
X188000000Y-96953571D01*
X188285714Y-96953571D01*
X188428571Y-97025000D01*
X188500000Y-97096428D01*
X188571428Y-97239285D01*
X188571428Y-97310714D01*
X188500000Y-97453571D01*
X188428571Y-97525000D01*
X188285714Y-97596428D01*
X188000000Y-97596428D01*
X187857142Y-97667857D01*
X187785714Y-97739285D01*
X187714285Y-97882142D01*
X187714285Y-98167857D01*
X187785714Y-98310714D01*
X187857142Y-98382142D01*
X188000000Y-98453571D01*
X188285714Y-98453571D01*
X188428571Y-98382142D01*
X188500000Y-98310714D01*
X188571428Y-98167857D01*
X188571428Y-97882142D01*
X188500000Y-97739285D01*
X188428571Y-97667857D01*
X188285714Y-97596428D01*
X241596428Y-56285714D02*
X243096428Y-56285714D01*
X241596428Y-57857142D02*
X242310714Y-57357142D01*
X241596428Y-57000000D02*
X243096428Y-57000000D01*
X243096428Y-57571428D01*
X243025000Y-57714285D01*
X242953571Y-57785714D01*
X242810714Y-57857142D01*
X242596428Y-57857142D01*
X242453571Y-57785714D01*
X242382142Y-57714285D01*
X242310714Y-57571428D01*
X242310714Y-57000000D01*
X241596428Y-58500000D02*
X243096428Y-58500000D01*
X241667857Y-59142857D02*
X241596428Y-59357142D01*
X241596428Y-59714285D01*
X241667857Y-59857142D01*
X241739285Y-59928571D01*
X241882142Y-60000000D01*
X242025000Y-60000000D01*
X242167857Y-59928571D01*
X242239285Y-59857142D01*
X242310714Y-59714285D01*
X242382142Y-59428571D01*
X242453571Y-59285714D01*
X242525000Y-59214285D01*
X242667857Y-59142857D01*
X242810714Y-59142857D01*
X242953571Y-59214285D01*
X243025000Y-59285714D01*
X243096428Y-59428571D01*
X243096428Y-59785714D01*
X243025000Y-60000000D01*
X241596428Y-62642857D02*
X242310714Y-62142857D01*
X241596428Y-61785714D02*
X243096428Y-61785714D01*
X243096428Y-62357142D01*
X243025000Y-62500000D01*
X242953571Y-62571428D01*
X242810714Y-62642857D01*
X242596428Y-62642857D01*
X242453571Y-62571428D01*
X242382142Y-62500000D01*
X242310714Y-62357142D01*
X242310714Y-61785714D01*
X241596428Y-63500000D02*
X241667857Y-63357142D01*
X241739285Y-63285714D01*
X241882142Y-63214285D01*
X242310714Y-63214285D01*
X242453571Y-63285714D01*
X242525000Y-63357142D01*
X242596428Y-63500000D01*
X242596428Y-63714285D01*
X242525000Y-63857142D01*
X242453571Y-63928571D01*
X242310714Y-64000000D01*
X241882142Y-64000000D01*
X241739285Y-63928571D01*
X241667857Y-63857142D01*
X241596428Y-63714285D01*
X241596428Y-63500000D01*
X241596428Y-64642857D02*
X243096428Y-64642857D01*
X242525000Y-64642857D02*
X242596428Y-64785714D01*
X242596428Y-65071428D01*
X242525000Y-65214285D01*
X242453571Y-65285714D01*
X242310714Y-65357142D01*
X241882142Y-65357142D01*
X241739285Y-65285714D01*
X241667857Y-65214285D01*
X241596428Y-65071428D01*
X241596428Y-64785714D01*
X241667857Y-64642857D01*
X241596428Y-66214285D02*
X241667857Y-66071428D01*
X241739285Y-66000000D01*
X241882142Y-65928571D01*
X242310714Y-65928571D01*
X242453571Y-66000000D01*
X242525000Y-66071428D01*
X242596428Y-66214285D01*
X242596428Y-66428571D01*
X242525000Y-66571428D01*
X242453571Y-66642857D01*
X242310714Y-66714285D01*
X241882142Y-66714285D01*
X241739285Y-66642857D01*
X241667857Y-66571428D01*
X241596428Y-66428571D01*
X241596428Y-66214285D01*
X242596428Y-67142857D02*
X242596428Y-67714285D01*
X243096428Y-67357142D02*
X241810714Y-67357142D01*
X241667857Y-67428571D01*
X241596428Y-67571428D01*
X241596428Y-67714285D01*
X241596428Y-68214285D02*
X242596428Y-68214285D01*
X243096428Y-68214285D02*
X243025000Y-68142857D01*
X242953571Y-68214285D01*
X243025000Y-68285714D01*
X243096428Y-68214285D01*
X242953571Y-68214285D01*
X241667857Y-69571428D02*
X241596428Y-69428571D01*
X241596428Y-69142857D01*
X241667857Y-69000000D01*
X241739285Y-68928571D01*
X241882142Y-68857142D01*
X242310714Y-68857142D01*
X242453571Y-68928571D01*
X242525000Y-69000000D01*
X242596428Y-69142857D01*
X242596428Y-69428571D01*
X242525000Y-69571428D01*
X241667857Y-70142857D02*
X241596428Y-70285714D01*
X241596428Y-70571428D01*
X241667857Y-70714285D01*
X241810714Y-70785714D01*
X241882142Y-70785714D01*
X242025000Y-70714285D01*
X242096428Y-70571428D01*
X242096428Y-70357142D01*
X242167857Y-70214285D01*
X242310714Y-70142857D01*
X242382142Y-70142857D01*
X242525000Y-70214285D01*
X242596428Y-70357142D01*
X242596428Y-70571428D01*
X242525000Y-70714285D01*
X239046428Y-57428571D02*
X240546428Y-57428571D01*
X239475000Y-57928571D01*
X240546428Y-58428571D01*
X239046428Y-58428571D01*
X240546428Y-58928571D02*
X239046428Y-59428571D01*
X240546428Y-59928571D01*
X240403571Y-60357142D02*
X240475000Y-60428571D01*
X240546428Y-60571428D01*
X240546428Y-60928571D01*
X240475000Y-61071428D01*
X240403571Y-61142857D01*
X240260714Y-61214285D01*
X240117857Y-61214285D01*
X239903571Y-61142857D01*
X239046428Y-60285714D01*
X239046428Y-61214285D01*
X240546428Y-61714285D02*
X240546428Y-62714285D01*
X239046428Y-62071428D01*
X240546428Y-63071428D02*
X240546428Y-63928571D01*
X239046428Y-63500000D02*
X240546428Y-63500000D01*
X240046428Y-65428571D02*
X239046428Y-65785714D01*
X240046428Y-66142857D01*
X240546428Y-67000000D02*
X240546428Y-67142857D01*
X240475000Y-67285714D01*
X240403571Y-67357142D01*
X240260714Y-67428571D01*
X239975000Y-67500000D01*
X239617857Y-67500000D01*
X239332142Y-67428571D01*
X239189285Y-67357142D01*
X239117857Y-67285714D01*
X239046428Y-67142857D01*
X239046428Y-67000000D01*
X239117857Y-66857142D01*
X239189285Y-66785714D01*
X239332142Y-66714285D01*
X239617857Y-66642857D01*
X239975000Y-66642857D01*
X240260714Y-66714285D01*
X240403571Y-66785714D01*
X240475000Y-66857142D01*
X240546428Y-67000000D01*
X239189285Y-68142857D02*
X239117857Y-68214285D01*
X239046428Y-68142857D01*
X239117857Y-68071428D01*
X239189285Y-68142857D01*
X239046428Y-68142857D01*
X239046428Y-69642857D02*
X239046428Y-68785714D01*
X239046428Y-69214285D02*
X240546428Y-69214285D01*
X240332142Y-69071428D01*
X240189285Y-68928571D01*
X240117857Y-68785714D01*
X190892857Y-47535714D02*
X190964285Y-47607142D01*
X190892857Y-47678571D01*
X190821428Y-47607142D01*
X190892857Y-47535714D01*
X190892857Y-47678571D01*
X190892857Y-47107142D02*
X190821428Y-46250000D01*
X190892857Y-46178571D01*
X190964285Y-46250000D01*
X190892857Y-47107142D01*
X190892857Y-46178571D01*
X191392857Y-46678571D02*
X191964285Y-46678571D01*
X191607142Y-47678571D02*
X191607142Y-46392857D01*
X191678571Y-46250000D01*
X191821428Y-46178571D01*
X191964285Y-46178571D01*
X192678571Y-47678571D02*
X192535714Y-47607142D01*
X192464285Y-47464285D01*
X192464285Y-46178571D01*
X193464285Y-47678571D02*
X193321428Y-47607142D01*
X193250000Y-47535714D01*
X193178571Y-47392857D01*
X193178571Y-46964285D01*
X193250000Y-46821428D01*
X193321428Y-46750000D01*
X193464285Y-46678571D01*
X193678571Y-46678571D01*
X193821428Y-46750000D01*
X193892857Y-46821428D01*
X193964285Y-46964285D01*
X193964285Y-47392857D01*
X193892857Y-47535714D01*
X193821428Y-47607142D01*
X193678571Y-47678571D01*
X193464285Y-47678571D01*
X195250000Y-47678571D02*
X195250000Y-46892857D01*
X195178571Y-46750000D01*
X195035714Y-46678571D01*
X194750000Y-46678571D01*
X194607142Y-46750000D01*
X195250000Y-47607142D02*
X195107142Y-47678571D01*
X194750000Y-47678571D01*
X194607142Y-47607142D01*
X194535714Y-47464285D01*
X194535714Y-47321428D01*
X194607142Y-47178571D01*
X194750000Y-47107142D01*
X195107142Y-47107142D01*
X195250000Y-47035714D01*
X195750000Y-46678571D02*
X196321428Y-46678571D01*
X195964285Y-46178571D02*
X195964285Y-47464285D01*
X196035714Y-47607142D01*
X196178571Y-47678571D01*
X196321428Y-47678571D01*
X196821428Y-47678571D02*
X196821428Y-46678571D01*
X196821428Y-46178571D02*
X196750000Y-46250000D01*
X196821428Y-46321428D01*
X196892857Y-46250000D01*
X196821428Y-46178571D01*
X196821428Y-46321428D01*
X197535714Y-46678571D02*
X197535714Y-47678571D01*
X197535714Y-46821428D02*
X197607142Y-46750000D01*
X197750000Y-46678571D01*
X197964285Y-46678571D01*
X198107142Y-46750000D01*
X198178571Y-46892857D01*
X198178571Y-47678571D01*
X199535714Y-46678571D02*
X199535714Y-47892857D01*
X199464285Y-48035714D01*
X199392857Y-48107142D01*
X199250000Y-48178571D01*
X199035714Y-48178571D01*
X198892857Y-48107142D01*
X199535714Y-47607142D02*
X199392857Y-47678571D01*
X199107142Y-47678571D01*
X198964285Y-47607142D01*
X198892857Y-47535714D01*
X198821428Y-47392857D01*
X198821428Y-46964285D01*
X198892857Y-46821428D01*
X198964285Y-46750000D01*
X199107142Y-46678571D01*
X199392857Y-46678571D01*
X199535714Y-46750000D01*
X202035714Y-46678571D02*
X202035714Y-47892857D01*
X201964285Y-48035714D01*
X201892857Y-48107142D01*
X201750000Y-48178571D01*
X201535714Y-48178571D01*
X201392857Y-48107142D01*
X202035714Y-47607142D02*
X201892857Y-47678571D01*
X201607142Y-47678571D01*
X201464285Y-47607142D01*
X201392857Y-47535714D01*
X201321428Y-47392857D01*
X201321428Y-46964285D01*
X201392857Y-46821428D01*
X201464285Y-46750000D01*
X201607142Y-46678571D01*
X201892857Y-46678571D01*
X202035714Y-46750000D01*
X202750000Y-47678571D02*
X202750000Y-46678571D01*
X202750000Y-46964285D02*
X202821428Y-46821428D01*
X202892857Y-46750000D01*
X203035714Y-46678571D01*
X203178571Y-46678571D01*
X203892857Y-47678571D02*
X203750000Y-47607142D01*
X203678571Y-47535714D01*
X203607142Y-47392857D01*
X203607142Y-46964285D01*
X203678571Y-46821428D01*
X203750000Y-46750000D01*
X203892857Y-46678571D01*
X204107142Y-46678571D01*
X204250000Y-46750000D01*
X204321428Y-46821428D01*
X204392857Y-46964285D01*
X204392857Y-47392857D01*
X204321428Y-47535714D01*
X204250000Y-47607142D01*
X204107142Y-47678571D01*
X203892857Y-47678571D01*
X205678571Y-46678571D02*
X205678571Y-47678571D01*
X205035714Y-46678571D02*
X205035714Y-47464285D01*
X205107142Y-47607142D01*
X205250000Y-47678571D01*
X205464285Y-47678571D01*
X205607142Y-47607142D01*
X205678571Y-47535714D01*
X206392857Y-46678571D02*
X206392857Y-47678571D01*
X206392857Y-46821428D02*
X206464285Y-46750000D01*
X206607142Y-46678571D01*
X206821428Y-46678571D01*
X206964285Y-46750000D01*
X207035714Y-46892857D01*
X207035714Y-47678571D01*
X208392857Y-47678571D02*
X208392857Y-46178571D01*
X208392857Y-47607142D02*
X208250000Y-47678571D01*
X207964285Y-47678571D01*
X207821428Y-47607142D01*
X207750000Y-47535714D01*
X207678571Y-47392857D01*
X207678571Y-46964285D01*
X207750000Y-46821428D01*
X207821428Y-46750000D01*
X207964285Y-46678571D01*
X208250000Y-46678571D01*
X208392857Y-46750000D01*
X209107142Y-47535714D02*
X209178571Y-47607142D01*
X209107142Y-47678571D01*
X209035714Y-47607142D01*
X209107142Y-47535714D01*
X209107142Y-47678571D01*
X209107142Y-47107142D02*
X209035714Y-46250000D01*
X209107142Y-46178571D01*
X209178571Y-46250000D01*
X209107142Y-47107142D01*
X209107142Y-46178571D01*
D11*
%TO.P,CON1,1*%
%TO.N,/MOSI*%
X197920000Y-98460000D03*
D12*
%TO.P,CON1,2*%
%TO.N,+5V*%
X197920000Y-101000000D03*
%TO.P,CON1,3*%
%TO.N,Net-(CON1-Pad3)*%
X200460000Y-98460000D03*
%TO.P,CON1,4*%
%TO.N,GND*%
X200460000Y-101000000D03*
%TO.P,CON1,5*%
%TO.N,/RESET*%
X203000000Y-98460000D03*
%TO.P,CON1,6*%
%TO.N,GND*%
X203000000Y-101000000D03*
%TO.P,CON1,7*%
%TO.N,/SCK*%
X205540000Y-98460000D03*
%TO.P,CON1,8*%
%TO.N,GND*%
X205540000Y-101000000D03*
%TO.P,CON1,9*%
%TO.N,/MISO*%
X208080000Y-98460000D03*
%TO.P,CON1,10*%
%TO.N,GND*%
X208080000Y-101000000D03*
%TD*%
D13*
%TO.P,IC1,1*%
%TO.N,/TXB*%
X195750000Y-75200000D03*
%TO.P,IC1,2*%
%TO.N,/RXB*%
X195750000Y-76000000D03*
%TO.P,IC1,3*%
%TO.N,GND*%
X195750000Y-76800000D03*
%TO.P,IC1,4*%
%TO.N,+5V*%
X195750000Y-77600000D03*
%TO.P,IC1,5*%
%TO.N,GND*%
X195750000Y-78400000D03*
%TO.P,IC1,6*%
%TO.N,+5V*%
X195750000Y-79200000D03*
%TO.P,IC1,7*%
%TO.N,/XTAL1*%
X195750000Y-80000000D03*
%TO.P,IC1,8*%
%TO.N,/XTAL2*%
X195750000Y-80800000D03*
D14*
%TO.P,IC1,9*%
%TO.N,/PD5*%
X197200000Y-82250000D03*
%TO.P,IC1,10*%
%TO.N,/PD6*%
X198000000Y-82250000D03*
%TO.P,IC1,11*%
%TO.N,/PD7*%
X198800000Y-82250000D03*
%TO.P,IC1,12*%
%TO.N,/PB0*%
X199600000Y-82250000D03*
%TO.P,IC1,13*%
%TO.N,/PB1*%
X200400000Y-82250000D03*
%TO.P,IC1,14*%
%TO.N,/PB2*%
X201200000Y-82250000D03*
%TO.P,IC1,15*%
%TO.N,/MOSI*%
X202000000Y-82250000D03*
%TO.P,IC1,16*%
%TO.N,/MISO*%
X202800000Y-82250000D03*
D13*
%TO.P,IC1,17*%
%TO.N,/SCK*%
X204250000Y-80800000D03*
%TO.P,IC1,18*%
%TO.N,+5V*%
X204250000Y-80000000D03*
%TO.P,IC1,19*%
%TO.N,/ADC6*%
X204250000Y-79200000D03*
%TO.P,IC1,20*%
%TO.N,Net-(IC1-Pad20)*%
X204250000Y-78400000D03*
%TO.P,IC1,21*%
%TO.N,GND*%
X204250000Y-77600000D03*
%TO.P,IC1,22*%
%TO.N,/ADC7*%
X204250000Y-76800000D03*
%TO.P,IC1,23*%
%TO.N,/PC0*%
X204250000Y-76000000D03*
%TO.P,IC1,24*%
%TO.N,/PC1*%
X204250000Y-75200000D03*
D14*
%TO.P,IC1,25*%
%TO.N,/PC2*%
X202800000Y-73750000D03*
%TO.P,IC1,26*%
%TO.N,/PC3*%
X202000000Y-73750000D03*
%TO.P,IC1,27*%
%TO.N,/SDA*%
X201200000Y-73750000D03*
%TO.P,IC1,28*%
%TO.N,/SCL*%
X200400000Y-73750000D03*
%TO.P,IC1,29*%
%TO.N,/RESET*%
X199600000Y-73750000D03*
%TO.P,IC1,30*%
%TO.N,/RX*%
X198800000Y-73750000D03*
%TO.P,IC1,31*%
%TO.N,/TX*%
X198000000Y-73750000D03*
%TO.P,IC1,32*%
%TO.N,/PD2*%
X197200000Y-73750000D03*
%TD*%
D11*
%TO.P,P4,1*%
%TO.N,/LED4*%
X227460000Y-57500000D03*
D12*
%TO.P,P4,2*%
%TO.N,+5V*%
X230000000Y-57500000D03*
%TO.P,P4,3*%
%TO.N,GND*%
X232540000Y-57500000D03*
%TD*%
D11*
%TO.P,P6,1*%
%TO.N,/LED2*%
X227460000Y-64500000D03*
D12*
%TO.P,P6,2*%
%TO.N,+5V*%
X230000000Y-64500000D03*
%TO.P,P6,3*%
%TO.N,GND*%
X232540000Y-64500000D03*
%TD*%
D11*
%TO.P,P5,1*%
%TO.N,/LED3*%
X227460000Y-61000000D03*
D12*
%TO.P,P5,2*%
%TO.N,+5V*%
X230000000Y-61000000D03*
%TO.P,P5,3*%
%TO.N,GND*%
X232540000Y-61000000D03*
%TD*%
D11*
%TO.P,P14,1*%
%TO.N,/LED1*%
X227460000Y-68000000D03*
D12*
%TO.P,P14,2*%
%TO.N,+5V*%
X230000000Y-68000000D03*
%TO.P,P14,3*%
%TO.N,GND*%
X232540000Y-68000000D03*
%TD*%
D11*
%TO.P,P3,1*%
%TO.N,/LED5*%
X227460000Y-54000000D03*
D12*
%TO.P,P3,2*%
%TO.N,+5V*%
X230000000Y-54000000D03*
%TO.P,P3,3*%
%TO.N,GND*%
X232540000Y-54000000D03*
%TD*%
D11*
%TO.P,P16,1*%
%TO.N,/LED0*%
X227460000Y-71500000D03*
D12*
%TO.P,P16,2*%
%TO.N,+5V*%
X230000000Y-71500000D03*
%TO.P,P16,3*%
%TO.N,GND*%
X232540000Y-71500000D03*
%TD*%
D11*
%TO.P,P2,1*%
%TO.N,/LED6*%
X227460000Y-50500000D03*
D12*
%TO.P,P2,2*%
%TO.N,+5V*%
X230000000Y-50500000D03*
%TO.P,P2,3*%
%TO.N,GND*%
X232540000Y-50500000D03*
%TD*%
D11*
%TO.P,P1,1*%
%TO.N,/LED7*%
X227460000Y-47000000D03*
D12*
%TO.P,P1,2*%
%TO.N,+5V*%
X230000000Y-47000000D03*
%TO.P,P1,3*%
%TO.N,GND*%
X232540000Y-47000000D03*
%TD*%
D11*
%TO.P,J7,1*%
%TO.N,GND*%
X191580000Y-71000000D03*
D12*
%TO.P,J7,2*%
%TO.N,Net-(J7-Pad2)*%
X189040000Y-71000000D03*
%TO.P,J7,3*%
%TO.N,+5V*%
X186500000Y-71000000D03*
%TO.P,J7,4*%
%TO.N,/RX*%
X183960000Y-71000000D03*
%TO.P,J7,5*%
%TO.N,/TX*%
X181420000Y-71000000D03*
%TD*%
D15*
%TO.P,R4,1*%
%TO.N,GND*%
X192000000Y-68200000D03*
%TO.P,R4,2*%
%TO.N,/OE*%
X192000000Y-65500000D03*
%TD*%
D16*
%TO.P,U1,28*%
%TO.N,+5V*%
X197150000Y-67725000D03*
%TO.P,U1,27*%
%TO.N,/SDA*%
X197150000Y-67075000D03*
%TO.P,U1,26*%
%TO.N,/SCL*%
X197150000Y-66425000D03*
%TO.P,U1,25*%
%TO.N,GND*%
X197150000Y-65775000D03*
%TO.P,U1,24*%
%TO.N,/A5*%
X197150000Y-65125000D03*
%TO.P,U1,23*%
%TO.N,/OE*%
X197150000Y-64475000D03*
%TO.P,U1,22*%
%TO.N,/LED15*%
X197150000Y-63825000D03*
%TO.P,U1,21*%
%TO.N,/LED14*%
X197150000Y-63175000D03*
%TO.P,U1,20*%
%TO.N,/LED13*%
X197150000Y-62525000D03*
%TO.P,U1,19*%
%TO.N,/LED12*%
X197150000Y-61875000D03*
%TO.P,U1,18*%
%TO.N,/LED11*%
X197150000Y-61225000D03*
%TO.P,U1,17*%
%TO.N,/LED10*%
X197150000Y-60575000D03*
%TO.P,U1,16*%
%TO.N,/LED9*%
X197150000Y-59925000D03*
%TO.P,U1,15*%
%TO.N,/LED8*%
X197150000Y-59275000D03*
%TO.P,U1,14*%
%TO.N,GND*%
X202850000Y-59275000D03*
%TO.P,U1,13*%
%TO.N,/LED7*%
X202850000Y-59925000D03*
%TO.P,U1,12*%
%TO.N,/LED6*%
X202850000Y-60575000D03*
%TO.P,U1,11*%
%TO.N,/LED5*%
X202850000Y-61225000D03*
%TO.P,U1,10*%
%TO.N,/LED4*%
X202850000Y-61875000D03*
%TO.P,U1,9*%
%TO.N,/LED3*%
X202850000Y-62525000D03*
%TO.P,U1,8*%
%TO.N,/LED2*%
X202850000Y-63175000D03*
%TO.P,U1,7*%
%TO.N,/LED1*%
X202850000Y-63825000D03*
%TO.P,U1,6*%
%TO.N,/LED0*%
X202850000Y-64475000D03*
%TO.P,U1,5*%
%TO.N,/A4*%
X202850000Y-65125000D03*
%TO.P,U1,4*%
%TO.N,/A3*%
X202850000Y-65775000D03*
%TO.P,U1,3*%
%TO.N,/A2*%
X202850000Y-66425000D03*
%TO.P,U1,2*%
%TO.N,/A1*%
X202850000Y-67075000D03*
%TO.P,U1,1*%
%TO.N,/A0*%
X202850000Y-67725000D03*
%TD*%
D17*
%TO.P,SW1,2*%
%TO.N,/RESET*%
X196900000Y-88300000D03*
X203100000Y-88300000D03*
%TO.P,SW1,1*%
%TO.N,GND*%
X196900000Y-92000000D03*
X203100000Y-92000000D03*
%TD*%
D15*
%TO.P,D1,2*%
%TO.N,GND*%
X227500000Y-83650000D03*
%TO.P,D1,1*%
%TO.N,Net-(D1-Pad1)*%
X227500000Y-86350000D03*
%TD*%
%TO.P,R1,2*%
%TO.N,Net-(D1-Pad1)*%
X230000000Y-86350000D03*
%TO.P,R1,1*%
%TO.N,+5V*%
X230000000Y-83650000D03*
%TD*%
D18*
%TO.P,D2,2*%
%TO.N,GND*%
X212850000Y-91250000D03*
%TO.P,D2,1*%
%TO.N,Net-(D2-Pad1)*%
X210150000Y-91250000D03*
%TD*%
%TO.P,R2,2*%
%TO.N,Net-(D2-Pad1)*%
X209800000Y-88000000D03*
%TO.P,R2,1*%
%TO.N,/SCK*%
X207100000Y-88000000D03*
%TD*%
D19*
%TO.P,REF\002A\002A,1*%
%TO.N,/PB1*%
X200500000Y-86500000D03*
%TD*%
%TO.P,REF\002A\002A,1*%
%TO.N,/PB0*%
X199500000Y-85000000D03*
%TD*%
%TO.P,REF\002A\002A,1*%
%TO.N,/PD7*%
X198500000Y-86500000D03*
%TD*%
%TO.P,REF\002A\002A,1*%
%TO.N,/PD6*%
X197500000Y-85000000D03*
%TD*%
%TO.P,REF\002A\002A,1*%
%TO.N,/PB2*%
X201500000Y-85000000D03*
%TD*%
%TO.P,REF\002A\002A,1*%
%TO.N,/PD5*%
X196500000Y-86500000D03*
%TD*%
D20*
%TO.P,REF\002A\002A,1*%
%TO.N,GND*%
X181000000Y-25000000D03*
%TD*%
%TO.P,REF\002A\002A,1*%
%TO.N,+5V*%
X181000000Y-41000000D03*
%TD*%
D21*
%TO.P,REF\002A\002A,1*%
%TO.N,*%
X219000000Y-41000000D03*
%TD*%
D20*
%TO.P,REF\002A\002A,1*%
%TO.N,GND*%
X219000000Y-25000000D03*
%TD*%
D22*
%TO.P,J6,1*%
%TO.N,+5V*%
X186220000Y-65500000D03*
%TO.P,J6,2*%
%TO.N,/A5*%
X187500000Y-65500000D03*
%TD*%
D18*
%TO.P,R3,1*%
%TO.N,+5V*%
X204700000Y-70250000D03*
%TO.P,R3,2*%
%TO.N,/SDA*%
X202000000Y-70250000D03*
%TD*%
%TO.P,R5,1*%
%TO.N,+5V*%
X186300000Y-68000000D03*
%TO.P,R5,2*%
%TO.N,/SCL*%
X189000000Y-68000000D03*
%TD*%
D23*
%TO.P,X1,1*%
%TO.N,/XTAL2*%
X172000000Y-87750000D03*
%TO.P,X1,2*%
%TO.N,GND*%
X172000000Y-84500000D03*
%TO.P,X1,3*%
%TO.N,/XTAL1*%
X172000000Y-81250000D03*
%TD*%
D24*
%TO.P,J1,1*%
%TO.N,+5V*%
X210000000Y-70140000D03*
%TO.P,J1,2*%
%TO.N,/A0*%
X210000000Y-68860000D03*
%TD*%
%TO.P,J2,1*%
%TO.N,+5V*%
X212000000Y-70140000D03*
%TO.P,J2,2*%
%TO.N,/A1*%
X212000000Y-68860000D03*
%TD*%
%TO.P,J3,1*%
%TO.N,+5V*%
X214000000Y-70140000D03*
%TO.P,J3,2*%
%TO.N,/A2*%
X214000000Y-68860000D03*
%TD*%
%TO.P,J4,1*%
%TO.N,+5V*%
X216000000Y-70140000D03*
%TO.P,J4,2*%
%TO.N,/A3*%
X216000000Y-68860000D03*
%TD*%
%TO.P,J5,1*%
%TO.N,+5V*%
X218000000Y-70140000D03*
%TO.P,J5,2*%
%TO.N,/A4*%
X218000000Y-68860000D03*
%TD*%
D11*
%TO.P,P7,1*%
%TO.N,/LED15*%
X172540000Y-71500000D03*
D12*
%TO.P,P7,2*%
%TO.N,+5V*%
X170000000Y-71500000D03*
%TO.P,P7,3*%
%TO.N,GND*%
X167460000Y-71500000D03*
%TD*%
D11*
%TO.P,P8,1*%
%TO.N,/ADC6*%
X222740000Y-94250000D03*
D12*
%TO.P,P8,2*%
%TO.N,/ADC7*%
X222740000Y-91710000D03*
%TO.P,P8,3*%
%TO.N,/PC0*%
X222740000Y-89170000D03*
%TO.P,P8,4*%
%TO.N,/PC1*%
X222740000Y-86630000D03*
%TO.P,P8,5*%
%TO.N,/PC2*%
X222740000Y-84090000D03*
%TO.P,P8,6*%
%TO.N,/PC3*%
X222740000Y-81550000D03*
%TO.P,P8,7*%
%TO.N,GND*%
X222740000Y-79010000D03*
%TO.P,P8,8*%
%TO.N,+5V*%
X222740000Y-76470000D03*
%TD*%
D11*
%TO.P,P9,1*%
%TO.N,/LED14*%
X172540000Y-68000000D03*
D12*
%TO.P,P9,2*%
%TO.N,+5V*%
X170000000Y-68000000D03*
%TO.P,P9,3*%
%TO.N,GND*%
X167460000Y-68000000D03*
%TD*%
D11*
%TO.P,P10,1*%
%TO.N,/LED13*%
X172540000Y-64500000D03*
D12*
%TO.P,P10,2*%
%TO.N,+5V*%
X170000000Y-64500000D03*
%TO.P,P10,3*%
%TO.N,GND*%
X167460000Y-64500000D03*
%TD*%
D11*
%TO.P,P11,1*%
%TO.N,/LED12*%
X172540000Y-61000000D03*
D12*
%TO.P,P11,2*%
%TO.N,+5V*%
X170000000Y-61000000D03*
%TO.P,P11,3*%
%TO.N,GND*%
X167460000Y-61000000D03*
%TD*%
D11*
%TO.P,P12,1*%
%TO.N,/LED11*%
X172540000Y-57500000D03*
D12*
%TO.P,P12,2*%
%TO.N,+5V*%
X170000000Y-57500000D03*
%TO.P,P12,3*%
%TO.N,GND*%
X167460000Y-57500000D03*
%TD*%
D11*
%TO.P,P13,1*%
%TO.N,/LED10*%
X172540000Y-54000000D03*
D12*
%TO.P,P13,2*%
%TO.N,+5V*%
X170000000Y-54000000D03*
%TO.P,P13,3*%
%TO.N,GND*%
X167460000Y-54000000D03*
%TD*%
D11*
%TO.P,P15,1*%
%TO.N,/LED9*%
X172540000Y-50500000D03*
D12*
%TO.P,P15,2*%
%TO.N,+5V*%
X170000000Y-50500000D03*
%TO.P,P15,3*%
%TO.N,GND*%
X167460000Y-50500000D03*
%TD*%
D11*
%TO.P,P17,1*%
%TO.N,/LED8*%
X172540000Y-47000000D03*
D12*
%TO.P,P17,2*%
%TO.N,+5V*%
X170000000Y-47000000D03*
%TO.P,P17,3*%
%TO.N,GND*%
X167460000Y-47000000D03*
%TD*%
D11*
%TO.P,J8,1*%
%TO.N,Net-(J8-Pad1)*%
X163000000Y-63920000D03*
D12*
%TO.P,J8,2*%
%TO.N,GND*%
X163000000Y-66460000D03*
%TO.P,J8,3*%
%TO.N,/TXB*%
X163000000Y-69000000D03*
%TO.P,J8,4*%
%TO.N,Net-(J8-Pad4)*%
X163000000Y-71540000D03*
%TD*%
D18*
%TO.P,R6,1*%
%TO.N,+5V*%
X157150000Y-63000000D03*
%TO.P,R6,2*%
%TO.N,Net-(J8-Pad1)*%
X159850000Y-63000000D03*
%TD*%
%TO.P,R7,1*%
%TO.N,Net-(J8-Pad4)*%
X169650000Y-76500000D03*
%TO.P,R7,2*%
%TO.N,/RXB*%
X172350000Y-76500000D03*
%TD*%
%TO.P,R8,1*%
%TO.N,GND*%
X157150000Y-65000000D03*
%TO.P,R8,2*%
%TO.N,Net-(J8-Pad1)*%
X159850000Y-65000000D03*
%TD*%
D15*
%TO.P,R9,1*%
%TO.N,GND*%
X166500000Y-79350000D03*
%TO.P,R9,2*%
%TO.N,Net-(J8-Pad4)*%
X166500000Y-76650000D03*
%TD*%
D25*
%TO.N,*%
X243500000Y-26500000D02*
X243500000Y-23500000D01*
X247500000Y-24500000D02*
X247500000Y-20500000D01*
X245500000Y-20500000D02*
X245500000Y-26500000D01*
X243500000Y-23500000D02*
X243500000Y-22500000D01*
X249500000Y-26500000D02*
X247500000Y-24500000D01*
X243500000Y-22500000D02*
X241500000Y-20500000D01*
X198000000Y-31500000D02*
X196000000Y-29500000D01*
X198000000Y-32500000D02*
X198000000Y-31500000D01*
X198000000Y-35500000D02*
X198000000Y-32500000D01*
X200000000Y-29500000D02*
X200000000Y-35500000D01*
X202000000Y-33500000D02*
X202000000Y-29500000D01*
X204000000Y-35500000D02*
X202000000Y-33500000D01*
D26*
%TO.N,GND*%
X197150000Y-65775000D02*
X199225000Y-65775000D01*
X200000000Y-65000000D02*
X200000000Y-60000000D01*
X199225000Y-65775000D02*
X200000000Y-65000000D01*
X200000000Y-60000000D02*
X200725000Y-59275000D01*
X200725000Y-59275000D02*
X202850000Y-59275000D01*
X195750000Y-76800000D02*
X191700000Y-76800000D01*
X191700000Y-76800000D02*
X191500000Y-77000000D01*
X191500000Y-77000000D02*
X191500000Y-78000000D01*
X191500000Y-78000000D02*
X191900000Y-78400000D01*
X191900000Y-78400000D02*
X195750000Y-78400000D01*
X227380000Y-83650000D02*
X227500000Y-83650000D01*
X204250000Y-77600000D02*
X205300000Y-77600000D01*
X205300000Y-77600000D02*
X220700000Y-93000000D01*
X220700000Y-93000000D02*
X225750000Y-93000000D01*
X191580000Y-68620000D02*
X192000000Y-68200000D01*
X192080000Y-68280000D02*
X192000000Y-68200000D01*
X192000000Y-68200000D02*
X192900000Y-68200000D01*
X192900000Y-68200000D02*
X195325000Y-65775000D01*
X195325000Y-65775000D02*
X196350000Y-65775000D01*
X196350000Y-65775000D02*
X197150000Y-65775000D01*
X197150000Y-65775000D02*
X197150000Y-65799999D01*
%TO.N,/RESET*%
X203000000Y-98500000D02*
X203000000Y-97297919D01*
X203000000Y-97297919D02*
X201396781Y-95694700D01*
X201396781Y-95694700D02*
X201396781Y-90081041D01*
X201396781Y-90081041D02*
X203123536Y-88354286D01*
X199600000Y-73750000D02*
X199600000Y-78369998D01*
X199600000Y-78369998D02*
X194346008Y-83623990D01*
X194346008Y-83623990D02*
X194346008Y-87346008D01*
X194346008Y-87346008D02*
X195300000Y-88300000D01*
X195300000Y-88300000D02*
X196900000Y-88300000D01*
%TO.N,/MOSI*%
X202000000Y-82250000D02*
X202000000Y-83500000D01*
X202000000Y-83500000D02*
X202500000Y-84000000D01*
X202500000Y-84000000D02*
X202500000Y-86683805D01*
X202500000Y-86683805D02*
X199985750Y-89198055D01*
X199985750Y-89198055D02*
X199985750Y-94014250D01*
X199985750Y-94014250D02*
X197920000Y-96080000D01*
X197920000Y-96080000D02*
X197920000Y-97400000D01*
X197920000Y-97400000D02*
X197920000Y-98500000D01*
%TO.N,/SCK*%
X204250000Y-80800000D02*
X204725102Y-80800000D01*
X204725102Y-80800000D02*
X207100000Y-83174898D01*
X207100000Y-83174898D02*
X207100000Y-88000000D01*
X207100000Y-91500000D02*
X207100000Y-93600000D01*
X207244642Y-99725001D02*
X206019641Y-98500000D01*
X207100000Y-93600000D02*
X210000000Y-96500000D01*
X210000000Y-96500000D02*
X210000000Y-99000000D01*
X210000000Y-99000000D02*
X209274999Y-99725001D01*
X209274999Y-99725001D02*
X207244642Y-99725001D01*
X206019641Y-98500000D02*
X205540000Y-98500000D01*
X207100000Y-88000000D02*
X207100000Y-91500000D01*
X207100000Y-91500000D02*
X207100000Y-91994554D01*
X207050000Y-87950000D02*
X207100000Y-88000000D01*
%TO.N,/MISO*%
X208080000Y-98500000D02*
X208080000Y-97297919D01*
X208080000Y-97297919D02*
X205500000Y-94717919D01*
X205500000Y-94717919D02*
X205500000Y-84425000D01*
X202800000Y-82250000D02*
X203325000Y-82250000D01*
X203325000Y-82250000D02*
X205500000Y-84425000D01*
%TO.N,Net-(D1-Pad1)*%
X227500000Y-86350000D02*
X228400000Y-86350000D01*
X228400000Y-86350000D02*
X230000000Y-86350000D01*
%TO.N,/TX*%
X198000000Y-73750000D02*
X198000000Y-72700000D01*
X198000000Y-72700000D02*
X197800000Y-72500000D01*
X193500000Y-74500000D02*
X182500000Y-74500000D01*
X182500000Y-74500000D02*
X181420000Y-73420000D01*
X181420000Y-73420000D02*
X181420000Y-71000000D01*
X197800000Y-72500000D02*
X195500000Y-72500000D01*
X195500000Y-72500000D02*
X193500000Y-74500000D01*
%TO.N,/RX*%
X198800000Y-73750000D02*
X198800000Y-72700000D01*
X198800000Y-72700000D02*
X197600000Y-71500000D01*
X197600000Y-71500000D02*
X195250000Y-71500000D01*
X195250000Y-71500000D02*
X193250000Y-73500000D01*
X193250000Y-73500000D02*
X185000000Y-73500000D01*
X185000000Y-73500000D02*
X183960000Y-72460000D01*
X183960000Y-72460000D02*
X183960000Y-71000000D01*
%TO.N,/SCL*%
X189000000Y-68000000D02*
X189000000Y-68900000D01*
X189000000Y-68900000D02*
X190265001Y-70165001D01*
X190265001Y-70165001D02*
X190265001Y-71984999D01*
X190265001Y-71984999D02*
X190780002Y-72500000D01*
X193250000Y-72500000D02*
X195500000Y-70250000D01*
X190780002Y-72500000D02*
X193250000Y-72500000D01*
X200400000Y-73750000D02*
X200400000Y-72900000D01*
X200400000Y-72900000D02*
X197750000Y-70250000D01*
X197750000Y-70250000D02*
X195500000Y-70250000D01*
X195500000Y-70250000D02*
X194750000Y-69500000D01*
X194750000Y-69500000D02*
X194750000Y-67500000D01*
X194750000Y-67500000D02*
X195825000Y-66425000D01*
X195825000Y-66425000D02*
X196350000Y-66425000D01*
X196350000Y-66425000D02*
X197150000Y-66425000D01*
%TO.N,/SDA*%
X197150000Y-67075000D02*
X196175000Y-67075000D01*
X196175000Y-67075000D02*
X195559389Y-67690611D01*
X195559389Y-67690611D02*
X195559389Y-68987963D01*
X195559389Y-68987963D02*
X195971426Y-69400000D01*
X195971426Y-69400000D02*
X197900000Y-69400000D01*
X197900000Y-69400000D02*
X201200000Y-72700000D01*
X201200000Y-72700000D02*
X202000000Y-71900000D01*
X202000000Y-71900000D02*
X202000000Y-70250000D01*
X201200000Y-72700000D02*
X201200000Y-73750000D01*
%TO.N,/A3*%
X202850000Y-65775000D02*
X213650000Y-65775000D01*
X213650000Y-65775000D02*
X216000000Y-68125000D01*
X216000000Y-68125000D02*
X216000000Y-68860000D01*
%TO.N,/A2*%
X202850000Y-66425000D02*
X212300000Y-66425000D01*
X212300000Y-66425000D02*
X214000000Y-68125000D01*
X214000000Y-68125000D02*
X214000000Y-68860000D01*
%TO.N,/A1*%
X202850000Y-67075000D02*
X210950000Y-67075000D01*
X210950000Y-67075000D02*
X212000000Y-68125000D01*
X212000000Y-68125000D02*
X212000000Y-68860000D01*
%TO.N,/A0*%
X210000000Y-68860000D02*
X209115000Y-68860000D01*
X209115000Y-68860000D02*
X207980000Y-67725000D01*
X207980000Y-67725000D02*
X203650000Y-67725000D01*
X203650000Y-67725000D02*
X202850000Y-67725000D01*
%TO.N,/ADC7*%
X222740000Y-91710000D02*
X220710000Y-91710000D01*
X220710000Y-91710000D02*
X205800000Y-76800000D01*
X205800000Y-76800000D02*
X204250000Y-76800000D01*
X204250000Y-76800000D02*
X205300000Y-76800000D01*
X204250000Y-76800000D02*
X204800000Y-76800000D01*
%TO.N,/ADC6*%
X222740000Y-94250000D02*
X220500000Y-94250000D01*
X220500000Y-94250000D02*
X205450000Y-79200000D01*
X205450000Y-79200000D02*
X204250000Y-79200000D01*
%TO.N,+5V*%
X168500000Y-82000000D02*
X169500000Y-83000000D01*
X195750000Y-79200000D02*
X169300000Y-79200000D01*
X169300000Y-79200000D02*
X168500000Y-80000000D01*
X168500000Y-80000000D02*
X168500000Y-82000000D01*
X205097241Y-80000000D02*
X204250000Y-80000000D01*
X168500000Y-89000000D02*
X169500000Y-90000000D01*
X168500000Y-87299998D02*
X168500000Y-89000000D01*
X169500000Y-86299998D02*
X168500000Y-87299998D01*
X196000000Y-100000000D02*
X196190001Y-100190001D01*
X198843040Y-91343040D02*
X198843040Y-93351760D01*
X169500000Y-83000000D02*
X175000000Y-83000000D01*
X175000000Y-83000000D02*
X175500000Y-83500000D01*
X174700002Y-86299998D02*
X169500000Y-86299998D01*
X175500000Y-83500000D02*
X175500000Y-85500000D01*
X175500000Y-85500000D02*
X174700002Y-86299998D01*
X198843040Y-93351760D02*
X196000000Y-96194800D01*
X169500000Y-90000000D02*
X197500000Y-90000000D01*
X197500000Y-90000000D02*
X198843040Y-91343040D01*
X196190001Y-100190001D02*
X197070001Y-100190001D01*
X196000000Y-96194800D02*
X196000000Y-100000000D01*
X197070001Y-100190001D02*
X197920000Y-101040000D01*
X206854999Y-100377656D02*
X206854999Y-101854999D01*
X197920000Y-101040000D02*
X199225179Y-99734821D01*
X211500000Y-100654654D02*
X211500000Y-95500000D01*
X199225179Y-99734821D02*
X206212164Y-99734821D01*
X208500000Y-83402759D02*
X205097241Y-80000000D01*
X206212164Y-99734821D02*
X206854999Y-100377656D01*
X206854999Y-101854999D02*
X207500000Y-102500000D01*
X207500000Y-102500000D02*
X209654654Y-102500000D01*
X211500000Y-95500000D02*
X208500000Y-92500000D01*
X209654654Y-102500000D02*
X211500000Y-100654654D01*
X208500000Y-92500000D02*
X208500000Y-83402759D01*
X204700000Y-70250000D02*
X217890000Y-70250000D01*
X217890000Y-70250000D02*
X218000000Y-70140000D01*
X204350000Y-69000000D02*
X199225000Y-69000000D01*
X199225000Y-69000000D02*
X197950000Y-67725000D01*
X204700000Y-70250000D02*
X204700000Y-69350000D01*
X204700000Y-69350000D02*
X204350000Y-69000000D01*
X213470000Y-76470000D02*
X207250000Y-70250000D01*
X207250000Y-70250000D02*
X204700000Y-70250000D01*
X222740000Y-76470000D02*
X213470000Y-76470000D01*
X181000000Y-68500000D02*
X181500000Y-68000000D01*
X181500000Y-68000000D02*
X184000000Y-65500000D01*
X182500000Y-68000000D02*
X181500000Y-68000000D01*
X184000000Y-65500000D02*
X186220000Y-65500000D01*
X170797919Y-73500000D02*
X176000000Y-73500000D01*
X176000000Y-73500000D02*
X181250000Y-68250000D01*
X157150000Y-63000000D02*
X157250000Y-63000000D01*
X157250000Y-63000000D02*
X158750000Y-61500000D01*
X158750000Y-61500000D02*
X164000000Y-61500000D01*
X164000000Y-61500000D02*
X165500000Y-63000000D01*
X165500000Y-63000000D02*
X165500000Y-72000000D01*
X165500000Y-72000000D02*
X167000000Y-73500000D01*
X167000000Y-73500000D02*
X170797919Y-73500000D01*
X170000000Y-72702081D02*
X170797919Y-73500000D01*
X230000000Y-83650000D02*
X230000000Y-78240002D01*
X230000000Y-78240002D02*
X227379999Y-75620001D01*
D25*
X230000000Y-47000000D02*
X230000000Y-71500000D01*
X181000000Y-41000000D02*
X184000000Y-41000000D01*
X184000000Y-41000000D02*
X187500000Y-44500000D01*
X187500000Y-44500000D02*
X228702081Y-44500000D01*
X228702081Y-44500000D02*
X230000000Y-45797919D01*
X230000000Y-45797919D02*
X230000000Y-47000000D01*
X171500000Y-44000000D02*
X171000000Y-44500000D01*
X171000000Y-44500000D02*
X170000000Y-45500000D01*
X181000000Y-41000000D02*
X174500000Y-41000000D01*
X174500000Y-41000000D02*
X171000000Y-44500000D01*
D26*
X186500000Y-71000000D02*
X183500000Y-68000000D01*
X183500000Y-68000000D02*
X182500000Y-68000000D01*
X186300000Y-68000000D02*
X182500000Y-68000000D01*
X170000000Y-71500000D02*
X170000000Y-72702081D01*
X186220000Y-67920000D02*
X186300000Y-68000000D01*
X197500000Y-67725000D02*
X197150000Y-67725000D01*
X222740000Y-76470000D02*
X223589999Y-75620001D01*
X223589999Y-75620001D02*
X227379999Y-75620001D01*
X227379999Y-75620001D02*
X230000000Y-73000000D01*
X230000000Y-73000000D02*
X230000000Y-71500000D01*
D25*
X170000000Y-45500000D02*
X170000000Y-71500000D01*
D26*
X197150000Y-67725000D02*
X197950000Y-67725000D01*
X182500000Y-40500000D02*
X182500000Y-40000000D01*
X195750000Y-77600000D02*
X196791996Y-77600000D01*
X196791996Y-77600000D02*
X197154458Y-77962462D01*
X197154458Y-77962462D02*
X197154458Y-78845542D01*
X197154458Y-78845542D02*
X196800000Y-79200000D01*
X196800000Y-79200000D02*
X195750000Y-79200000D01*
%TO.N,/XTAL2*%
X195750000Y-80800000D02*
X194700000Y-80800000D01*
X194700000Y-80800000D02*
X192206180Y-83293820D01*
X192206180Y-83293820D02*
X183178078Y-83293820D01*
X183178078Y-83293820D02*
X178721898Y-87750000D01*
X178721898Y-87750000D02*
X173782150Y-87750000D01*
X173782150Y-87750000D02*
X173750672Y-87781478D01*
%TO.N,/XTAL1*%
X195750000Y-80000000D02*
X192000000Y-80000000D01*
X192000000Y-80000000D02*
X190750000Y-81250000D01*
X190750000Y-81250000D02*
X173942570Y-81250000D01*
X173942570Y-81250000D02*
X173923917Y-81268653D01*
%TO.N,/LED0*%
X202850000Y-64475000D02*
X218475000Y-64475000D01*
X218475000Y-64475000D02*
X225500000Y-71500000D01*
X225500000Y-71500000D02*
X227460000Y-71500000D01*
%TO.N,/LED1*%
X203150000Y-63825000D02*
X219825000Y-63825000D01*
X219825000Y-63825000D02*
X224000000Y-68000000D01*
X224000000Y-68000000D02*
X226360000Y-68000000D01*
X226360000Y-68000000D02*
X227460000Y-68000000D01*
%TO.N,/LED2*%
X227460000Y-64500000D02*
X222500000Y-64500000D01*
X221175000Y-63175000D02*
X203650000Y-63175000D01*
X222500000Y-64500000D02*
X221175000Y-63175000D01*
X203650000Y-63175000D02*
X202850000Y-63175000D01*
%TO.N,/LED3*%
X227460000Y-61000000D02*
X215800000Y-61000000D01*
X215800000Y-61000000D02*
X214275000Y-62525000D01*
X202850000Y-62525000D02*
X214275000Y-62525000D01*
%TO.N,/LED4*%
X227460000Y-57500000D02*
X215500000Y-57500000D01*
X215500000Y-57500000D02*
X211125000Y-61875000D01*
X211125000Y-61875000D02*
X202850000Y-61875000D01*
%TO.N,/LED5*%
X227460000Y-54000000D02*
X216750000Y-54000000D01*
X216750000Y-54000000D02*
X209525000Y-61225000D01*
X209525000Y-61225000D02*
X202850000Y-61225000D01*
%TO.N,/LED8*%
X197150000Y-59275000D02*
X194275000Y-59275000D01*
X194275000Y-59275000D02*
X183000000Y-48000000D01*
X183000000Y-48000000D02*
X176916891Y-48000000D01*
X176916891Y-48000000D02*
X175916891Y-47000000D01*
X175916891Y-47000000D02*
X172540000Y-47000000D01*
%TO.N,/LED9*%
X172540000Y-50500000D02*
X182636410Y-50500000D01*
X182636410Y-50500000D02*
X192061410Y-59925000D01*
X192061410Y-59925000D02*
X196350000Y-59925000D01*
X196350000Y-59925000D02*
X197150000Y-59925000D01*
%TO.N,/LED10*%
X172540000Y-54000000D02*
X183000000Y-54000000D01*
X183000000Y-54000000D02*
X189575000Y-60575000D01*
X189575000Y-60575000D02*
X197150000Y-60575000D01*
%TO.N,/LED11*%
X172540000Y-57500000D02*
X181500000Y-57500000D01*
X181500000Y-57500000D02*
X185225000Y-61225000D01*
X185225000Y-61225000D02*
X197150000Y-61225000D01*
%TO.N,/LED12*%
X172540000Y-61000000D02*
X181000000Y-61000000D01*
X181000000Y-61000000D02*
X181875000Y-61875000D01*
X181875000Y-61875000D02*
X197150000Y-61875000D01*
%TO.N,/LED13*%
X197150000Y-62525000D02*
X180475000Y-62525000D01*
X180475000Y-62525000D02*
X178500000Y-64500000D01*
X178500000Y-64500000D02*
X172540000Y-64500000D01*
%TO.N,/LED6*%
X227460000Y-50500000D02*
X217250000Y-50500000D01*
X217250000Y-50500000D02*
X207175000Y-60575000D01*
X207175000Y-60575000D02*
X202850000Y-60575000D01*
%TO.N,/LED14*%
X172540000Y-68000000D02*
X177000000Y-68000000D01*
X177000000Y-68000000D02*
X181825000Y-63175000D01*
X181825000Y-63175000D02*
X197150000Y-63175000D01*
%TO.N,/LED7*%
X227460000Y-47000000D02*
X223841729Y-47000000D01*
X217250000Y-48000000D02*
X213750000Y-51500000D01*
X223841729Y-47000000D02*
X222841729Y-48000000D01*
X222841729Y-48000000D02*
X217250000Y-48000000D01*
X205325000Y-59925000D02*
X213750000Y-51500000D01*
X213750000Y-51500000D02*
X214022933Y-51227067D01*
X202850000Y-59925000D02*
X205325000Y-59925000D01*
%TO.N,/LED15*%
X172540000Y-71500000D02*
X175500000Y-71500000D01*
X175500000Y-71500000D02*
X183175000Y-63825000D01*
X183175000Y-63825000D02*
X197150000Y-63825000D01*
%TO.N,Net-(D2-Pad1)*%
X209800000Y-88000000D02*
X209800000Y-90900000D01*
X209800000Y-90900000D02*
X210150000Y-91250000D01*
%TO.N,/A5*%
X187500000Y-65500000D02*
X188750000Y-65500000D01*
X188750000Y-65500000D02*
X190250000Y-67000000D01*
X190250000Y-67000000D02*
X193000000Y-67000000D01*
X193000000Y-67000000D02*
X194875000Y-65125000D01*
X194875000Y-65125000D02*
X197150000Y-65125000D01*
%TO.N,/OE*%
X192000000Y-65500000D02*
X193500000Y-65500000D01*
X193500000Y-65500000D02*
X194525000Y-64475000D01*
X194525000Y-64475000D02*
X197150000Y-64475000D01*
%TO.N,/A4*%
X202850000Y-65125000D02*
X215000000Y-65125000D01*
X215000000Y-65125000D02*
X218000000Y-68125000D01*
X218000000Y-68125000D02*
X218000000Y-68860000D01*
%TO.N,/PD5*%
X197200000Y-82250000D02*
X197200000Y-82300000D01*
X197200000Y-82300000D02*
X196500000Y-83000000D01*
X196500000Y-83000000D02*
X196500000Y-86500000D01*
%TO.N,/PD6*%
X198000000Y-82250000D02*
X197900001Y-82349999D01*
X197900001Y-82349999D02*
X197900001Y-83390001D01*
X197900001Y-83390001D02*
X197347824Y-83942178D01*
X197347824Y-83942178D02*
X197347824Y-84847824D01*
X197347824Y-84847824D02*
X197500000Y-85000000D01*
%TO.N,/PD7*%
X198800000Y-82250000D02*
X198800000Y-83700000D01*
X198500000Y-84000000D02*
X198500000Y-86500000D01*
X198800000Y-83700000D02*
X198500000Y-84000000D01*
%TO.N,/PB0*%
X199600000Y-82250000D02*
X199600000Y-84900000D01*
X199600000Y-84900000D02*
X199500000Y-85000000D01*
%TO.N,/PB1*%
X200400000Y-82250000D02*
X200499999Y-82349999D01*
X200499999Y-82349999D02*
X200499999Y-83390001D01*
X200499999Y-83390001D02*
X200528755Y-83418757D01*
X200528755Y-83418757D02*
X200528755Y-86471245D01*
X200528755Y-86471245D02*
X200500000Y-86500000D01*
%TO.N,/PB2*%
X201200000Y-82250000D02*
X201200000Y-84700000D01*
X201200000Y-84700000D02*
X201500000Y-85000000D01*
%TO.N,/PC0*%
X222740000Y-89170000D02*
X219670000Y-89170000D01*
X219670000Y-89170000D02*
X206500000Y-76000000D01*
X206500000Y-76000000D02*
X205300000Y-76000000D01*
X205300000Y-76000000D02*
X204250000Y-76000000D01*
%TO.N,/PC1*%
X222740000Y-86630000D02*
X218630000Y-86630000D01*
X218630000Y-86630000D02*
X207200000Y-75200000D01*
X207200000Y-75200000D02*
X205300000Y-75200000D01*
X205300000Y-75200000D02*
X204250000Y-75200000D01*
%TO.N,/PC2*%
X202800000Y-73750000D02*
X207250000Y-73750000D01*
X207250000Y-73750000D02*
X217590000Y-84090000D01*
X217590000Y-84090000D02*
X221537919Y-84090000D01*
X221537919Y-84090000D02*
X222740000Y-84090000D01*
%TO.N,/PC3*%
X202000000Y-73750000D02*
X202000000Y-72700000D01*
X207500000Y-72500000D02*
X216550000Y-81550000D01*
X202000000Y-72700000D02*
X202200000Y-72500000D01*
X202200000Y-72500000D02*
X207500000Y-72500000D01*
X216550000Y-81550000D02*
X222740000Y-81550000D01*
%TO.N,Net-(J8-Pad1)*%
X159850000Y-64000000D02*
X159850000Y-65000000D01*
X159850000Y-63000000D02*
X159850000Y-64000000D01*
X159850000Y-64000000D02*
X159930000Y-63920000D01*
X159930000Y-63920000D02*
X163000000Y-63920000D01*
%TO.N,/TXB*%
X163000000Y-69000000D02*
X164225001Y-70225001D01*
X164225001Y-70225001D02*
X164225001Y-72725001D01*
X164225001Y-72725001D02*
X166700000Y-75200000D01*
X166700000Y-75200000D02*
X195750000Y-75200000D01*
%TO.N,Net-(J8-Pad4)*%
X169650000Y-76500000D02*
X166650000Y-76500000D01*
X166650000Y-76500000D02*
X166500000Y-76650000D01*
X163000000Y-71540000D02*
X163000000Y-74050000D01*
X163000000Y-74050000D02*
X165600000Y-76650000D01*
X165600000Y-76650000D02*
X166500000Y-76650000D01*
%TO.N,/RXB*%
X172350000Y-76500000D02*
X173350000Y-76500000D01*
X173350000Y-76500000D02*
X173850000Y-76000000D01*
X173850000Y-76000000D02*
X194700000Y-76000000D01*
X194700000Y-76000000D02*
X195750000Y-76000000D01*
%TD*%
D27*
%TO.N,GND*%
G36*
X227280033Y-23553977D02*
X249174646Y-62781826D01*
X249317500Y-63500000D01*
X248878608Y-65706458D01*
X227333593Y-103410235D01*
X223647805Y-105873000D01*
X176352195Y-105873000D01*
X172666407Y-103410235D01*
X166966274Y-93435000D01*
X178786429Y-93435000D01*
X178786429Y-99805000D01*
X193213572Y-99805000D01*
X193213572Y-93435000D01*
X178786429Y-93435000D01*
X166966274Y-93435000D01*
X166309560Y-92285750D01*
X195365000Y-92285750D01*
X195365000Y-92676310D01*
X195461673Y-92909699D01*
X195640302Y-93088327D01*
X195873691Y-93185000D01*
X196614250Y-93185000D01*
X196773000Y-93026250D01*
X196773000Y-92127000D01*
X195523750Y-92127000D01*
X195365000Y-92285750D01*
X166309560Y-92285750D01*
X165759812Y-91323690D01*
X195365000Y-91323690D01*
X195365000Y-91714250D01*
X195523750Y-91873000D01*
X196773000Y-91873000D01*
X196773000Y-90973750D01*
X196614250Y-90815000D01*
X195873691Y-90815000D01*
X195640302Y-90911673D01*
X195461673Y-91090301D01*
X195365000Y-91323690D01*
X165759812Y-91323690D01*
X159080988Y-79635750D01*
X165215000Y-79635750D01*
X165215000Y-80226309D01*
X165311673Y-80459698D01*
X165490301Y-80638327D01*
X165723690Y-80735000D01*
X166214250Y-80735000D01*
X166373000Y-80576250D01*
X166373000Y-79477000D01*
X165373750Y-79477000D01*
X165215000Y-79635750D01*
X159080988Y-79635750D01*
X151121392Y-65706458D01*
X151037708Y-65285750D01*
X155765000Y-65285750D01*
X155765000Y-65776310D01*
X155861673Y-66009699D01*
X156040302Y-66188327D01*
X156273691Y-66285000D01*
X156864250Y-66285000D01*
X157023000Y-66126250D01*
X157023000Y-65127000D01*
X155923750Y-65127000D01*
X155765000Y-65285750D01*
X151037708Y-65285750D01*
X150682500Y-63500000D01*
X150825354Y-62781826D01*
X151066373Y-62350000D01*
X155752560Y-62350000D01*
X155752560Y-63650000D01*
X155801843Y-63897765D01*
X155862873Y-63989101D01*
X155861673Y-63990301D01*
X155765000Y-64223690D01*
X155765000Y-64714250D01*
X155923750Y-64873000D01*
X157023000Y-64873000D01*
X157023000Y-64853000D01*
X157277000Y-64853000D01*
X157277000Y-64873000D01*
X157297000Y-64873000D01*
X157297000Y-65127000D01*
X157277000Y-65127000D01*
X157277000Y-66126250D01*
X157435750Y-66285000D01*
X158026309Y-66285000D01*
X158259698Y-66188327D01*
X158438327Y-66009699D01*
X158496279Y-65869791D01*
X158501843Y-65897765D01*
X158642191Y-66107809D01*
X158852235Y-66248157D01*
X159100000Y-66297440D01*
X160600000Y-66297440D01*
X160847765Y-66248157D01*
X161057809Y-66107809D01*
X161198157Y-65897765D01*
X161247440Y-65650000D01*
X161247440Y-64680000D01*
X161502560Y-64680000D01*
X161502560Y-64770000D01*
X161551843Y-65017765D01*
X161692191Y-65227809D01*
X161902235Y-65368157D01*
X162005708Y-65388739D01*
X161728355Y-65693076D01*
X161558524Y-66103110D01*
X161679845Y-66333000D01*
X162873000Y-66333000D01*
X162873000Y-66313000D01*
X163127000Y-66313000D01*
X163127000Y-66333000D01*
X164320155Y-66333000D01*
X164441476Y-66103110D01*
X164271645Y-65693076D01*
X163994292Y-65388739D01*
X164097765Y-65368157D01*
X164307809Y-65227809D01*
X164448157Y-65017765D01*
X164497440Y-64770000D01*
X164497440Y-63072242D01*
X164740000Y-63314802D01*
X164740000Y-69665198D01*
X164441210Y-69366408D01*
X164514093Y-69000000D01*
X164401054Y-68431715D01*
X164079147Y-67949946D01*
X163738447Y-67722298D01*
X163881358Y-67655183D01*
X164271645Y-67226924D01*
X164441476Y-66816890D01*
X164320155Y-66587000D01*
X163127000Y-66587000D01*
X163127000Y-66607000D01*
X162873000Y-66607000D01*
X162873000Y-66587000D01*
X161679845Y-66587000D01*
X161558524Y-66816890D01*
X161728355Y-67226924D01*
X162118642Y-67655183D01*
X162261553Y-67722298D01*
X161920853Y-67949946D01*
X161598946Y-68431715D01*
X161485907Y-69000000D01*
X161598946Y-69568285D01*
X161920853Y-70050054D01*
X162250026Y-70270000D01*
X161920853Y-70489946D01*
X161598946Y-70971715D01*
X161485907Y-71540000D01*
X161598946Y-72108285D01*
X161920853Y-72590054D01*
X162240000Y-72803301D01*
X162240000Y-74050000D01*
X162297852Y-74340839D01*
X162462599Y-74587401D01*
X165062599Y-77187401D01*
X165202560Y-77280920D01*
X165202560Y-77400000D01*
X165251843Y-77647765D01*
X165392191Y-77857809D01*
X165602235Y-77998157D01*
X165630209Y-78003721D01*
X165490301Y-78061673D01*
X165311673Y-78240302D01*
X165215000Y-78473691D01*
X165215000Y-79064250D01*
X165373750Y-79223000D01*
X166373000Y-79223000D01*
X166373000Y-79203000D01*
X166627000Y-79203000D01*
X166627000Y-79223000D01*
X167626250Y-79223000D01*
X167785000Y-79064250D01*
X167785000Y-78473691D01*
X167688327Y-78240302D01*
X167509699Y-78061673D01*
X167369791Y-78003721D01*
X167397765Y-77998157D01*
X167607809Y-77857809D01*
X167748157Y-77647765D01*
X167797440Y-77400000D01*
X167797440Y-77260000D01*
X168274440Y-77260000D01*
X168301843Y-77397765D01*
X168442191Y-77607809D01*
X168652235Y-77748157D01*
X168900000Y-77797440D01*
X170400000Y-77797440D01*
X170647765Y-77748157D01*
X170857809Y-77607809D01*
X170998157Y-77397765D01*
X171000000Y-77388500D01*
X171001843Y-77397765D01*
X171142191Y-77607809D01*
X171352235Y-77748157D01*
X171600000Y-77797440D01*
X173100000Y-77797440D01*
X173347765Y-77748157D01*
X173557809Y-77607809D01*
X173698157Y-77397765D01*
X173747440Y-77150000D01*
X173747440Y-77130920D01*
X173887401Y-77037401D01*
X174164802Y-76760000D01*
X194532885Y-76760000D01*
X194592749Y-76800000D01*
X194492191Y-76867191D01*
X194408888Y-76991862D01*
X194315000Y-77085750D01*
X194315000Y-77201310D01*
X194323217Y-77221148D01*
X194302560Y-77325000D01*
X194302560Y-77875000D01*
X194323217Y-77978852D01*
X194315000Y-77998690D01*
X194315000Y-78114250D01*
X194408888Y-78208138D01*
X194492191Y-78332809D01*
X194592749Y-78400000D01*
X194532885Y-78440000D01*
X169300000Y-78440000D01*
X169009161Y-78497852D01*
X168762599Y-78662599D01*
X167962599Y-79462599D01*
X167797852Y-79709161D01*
X167785000Y-79773772D01*
X167785000Y-79635750D01*
X167626250Y-79477000D01*
X166627000Y-79477000D01*
X166627000Y-80576250D01*
X166785750Y-80735000D01*
X167276310Y-80735000D01*
X167509699Y-80638327D01*
X167688327Y-80459698D01*
X167740000Y-80334948D01*
X167740000Y-82000000D01*
X167797852Y-82290839D01*
X167962599Y-82537401D01*
X168962599Y-83537401D01*
X168965000Y-83539005D01*
X168965000Y-84214250D01*
X169123750Y-84373000D01*
X171873000Y-84373000D01*
X171873000Y-84353000D01*
X172127000Y-84353000D01*
X172127000Y-84373000D01*
X172147000Y-84373000D01*
X172147000Y-84627000D01*
X172127000Y-84627000D01*
X172127000Y-84647000D01*
X171873000Y-84647000D01*
X171873000Y-84627000D01*
X169123750Y-84627000D01*
X168965000Y-84785750D01*
X168965000Y-85501309D01*
X169049248Y-85704700D01*
X168962599Y-85762597D01*
X167962599Y-86762597D01*
X167797852Y-87009159D01*
X167740000Y-87299998D01*
X167740000Y-89000000D01*
X167797852Y-89290839D01*
X167962599Y-89537401D01*
X168962599Y-90537401D01*
X169209161Y-90702148D01*
X169500000Y-90760000D01*
X197185198Y-90760000D01*
X197240198Y-90815000D01*
X197185750Y-90815000D01*
X197027000Y-90973750D01*
X197027000Y-91873000D01*
X197047000Y-91873000D01*
X197047000Y-92127000D01*
X197027000Y-92127000D01*
X197027000Y-93026250D01*
X197185750Y-93185000D01*
X197926309Y-93185000D01*
X197941142Y-93178856D01*
X195462599Y-95657399D01*
X195297852Y-95903961D01*
X195240000Y-96194800D01*
X195240000Y-100000000D01*
X195297852Y-100290839D01*
X195462599Y-100537401D01*
X195652600Y-100727402D01*
X195899162Y-100892149D01*
X196190001Y-100950001D01*
X196439158Y-100950001D01*
X196435000Y-100970907D01*
X196435000Y-101029093D01*
X196548039Y-101597378D01*
X196869946Y-102079147D01*
X197351715Y-102401054D01*
X197920000Y-102514093D01*
X198488285Y-102401054D01*
X198970054Y-102079147D01*
X199197702Y-101738447D01*
X199264817Y-101881358D01*
X199693076Y-102271645D01*
X200103110Y-102441476D01*
X200333000Y-102320155D01*
X200333000Y-101127000D01*
X200587000Y-101127000D01*
X200587000Y-102320155D01*
X200816890Y-102441476D01*
X201226924Y-102271645D01*
X201655183Y-101881358D01*
X201730000Y-101722046D01*
X201804817Y-101881358D01*
X202233076Y-102271645D01*
X202643110Y-102441476D01*
X202873000Y-102320155D01*
X202873000Y-101127000D01*
X203127000Y-101127000D01*
X203127000Y-102320155D01*
X203356890Y-102441476D01*
X203766924Y-102271645D01*
X204195183Y-101881358D01*
X204270000Y-101722046D01*
X204344817Y-101881358D01*
X204773076Y-102271645D01*
X205183110Y-102441476D01*
X205413000Y-102320155D01*
X205413000Y-101127000D01*
X203127000Y-101127000D01*
X202873000Y-101127000D01*
X200587000Y-101127000D01*
X200333000Y-101127000D01*
X200313000Y-101127000D01*
X200313000Y-100873000D01*
X200333000Y-100873000D01*
X200333000Y-100853000D01*
X200587000Y-100853000D01*
X200587000Y-100873000D01*
X202873000Y-100873000D01*
X202873000Y-100853000D01*
X203127000Y-100853000D01*
X203127000Y-100873000D01*
X205413000Y-100873000D01*
X205413000Y-100853000D01*
X205667000Y-100853000D01*
X205667000Y-100873000D01*
X205687000Y-100873000D01*
X205687000Y-101127000D01*
X205667000Y-101127000D01*
X205667000Y-102320155D01*
X205896890Y-102441476D01*
X206252088Y-102294357D01*
X206317598Y-102392400D01*
X206962599Y-103037401D01*
X207209161Y-103202148D01*
X207500000Y-103260000D01*
X209654654Y-103260000D01*
X209945493Y-103202148D01*
X210192055Y-103037401D01*
X212037401Y-101192055D01*
X212202148Y-100945494D01*
X212260000Y-100654654D01*
X212260000Y-95500000D01*
X212202148Y-95209161D01*
X212037401Y-94962599D01*
X209622242Y-92547440D01*
X210900000Y-92547440D01*
X211147765Y-92498157D01*
X211357809Y-92357809D01*
X211498157Y-92147765D01*
X211503721Y-92119791D01*
X211561673Y-92259699D01*
X211740302Y-92438327D01*
X211973691Y-92535000D01*
X212564250Y-92535000D01*
X212723000Y-92376250D01*
X212723000Y-91377000D01*
X212977000Y-91377000D01*
X212977000Y-92376250D01*
X213135750Y-92535000D01*
X213726309Y-92535000D01*
X213959698Y-92438327D01*
X214138327Y-92259699D01*
X214235000Y-92026310D01*
X214235000Y-91535750D01*
X214076250Y-91377000D01*
X212977000Y-91377000D01*
X212723000Y-91377000D01*
X212703000Y-91377000D01*
X212703000Y-91123000D01*
X212723000Y-91123000D01*
X212723000Y-90123750D01*
X212977000Y-90123750D01*
X212977000Y-91123000D01*
X214076250Y-91123000D01*
X214235000Y-90964250D01*
X214235000Y-90473690D01*
X214138327Y-90240301D01*
X213959698Y-90061673D01*
X213726309Y-89965000D01*
X213135750Y-89965000D01*
X212977000Y-90123750D01*
X212723000Y-90123750D01*
X212564250Y-89965000D01*
X211973691Y-89965000D01*
X211740302Y-90061673D01*
X211561673Y-90240301D01*
X211503721Y-90380209D01*
X211498157Y-90352235D01*
X211357809Y-90142191D01*
X211147765Y-90001843D01*
X210900000Y-89952560D01*
X210560000Y-89952560D01*
X210560000Y-89295451D01*
X210797765Y-89248157D01*
X211007809Y-89107809D01*
X211148157Y-88897765D01*
X211197440Y-88650000D01*
X211197440Y-87350000D01*
X211148157Y-87102235D01*
X211007809Y-86892191D01*
X210797765Y-86751843D01*
X210550000Y-86702560D01*
X209260000Y-86702560D01*
X209260000Y-84084802D01*
X219962599Y-94787401D01*
X220209161Y-94952148D01*
X220500000Y-95010000D01*
X221242560Y-95010000D01*
X221242560Y-95100000D01*
X221291843Y-95347765D01*
X221432191Y-95557809D01*
X221642235Y-95698157D01*
X221890000Y-95747440D01*
X223590000Y-95747440D01*
X223837765Y-95698157D01*
X224047809Y-95557809D01*
X224188157Y-95347765D01*
X224237440Y-95100000D01*
X224237440Y-93400000D01*
X224188157Y-93152235D01*
X224047809Y-92942191D01*
X223837765Y-92801843D01*
X223775223Y-92789403D01*
X223819147Y-92760054D01*
X224141054Y-92278285D01*
X224254093Y-91710000D01*
X224141054Y-91141715D01*
X223819147Y-90659946D01*
X223489974Y-90440000D01*
X223819147Y-90220054D01*
X224141054Y-89738285D01*
X224254093Y-89170000D01*
X224141054Y-88601715D01*
X223819147Y-88119946D01*
X223489974Y-87900000D01*
X223819147Y-87680054D01*
X224141054Y-87198285D01*
X224254093Y-86630000D01*
X224141054Y-86061715D01*
X223819147Y-85579946D01*
X223489974Y-85360000D01*
X223819147Y-85140054D01*
X224141054Y-84658285D01*
X224254093Y-84090000D01*
X224141054Y-83521715D01*
X223819147Y-83039946D01*
X223489974Y-82820000D01*
X223559280Y-82773691D01*
X226215000Y-82773691D01*
X226215000Y-83364250D01*
X226373750Y-83523000D01*
X227373000Y-83523000D01*
X227373000Y-82423750D01*
X227214250Y-82265000D01*
X226723690Y-82265000D01*
X226490301Y-82361673D01*
X226311673Y-82540302D01*
X226215000Y-82773691D01*
X223559280Y-82773691D01*
X223819147Y-82600054D01*
X224141054Y-82118285D01*
X224254093Y-81550000D01*
X224141054Y-80981715D01*
X223819147Y-80499946D01*
X223478447Y-80272298D01*
X223621358Y-80205183D01*
X224011645Y-79776924D01*
X224181476Y-79366890D01*
X224060155Y-79137000D01*
X222867000Y-79137000D01*
X222867000Y-79157000D01*
X222613000Y-79157000D01*
X222613000Y-79137000D01*
X221419845Y-79137000D01*
X221298524Y-79366890D01*
X221468355Y-79776924D01*
X221858642Y-80205183D01*
X222001553Y-80272298D01*
X221660853Y-80499946D01*
X221467046Y-80790000D01*
X216864802Y-80790000D01*
X213263783Y-77188981D01*
X213470000Y-77230000D01*
X221467046Y-77230000D01*
X221660853Y-77520054D01*
X222001553Y-77747702D01*
X221858642Y-77814817D01*
X221468355Y-78243076D01*
X221298524Y-78653110D01*
X221419845Y-78883000D01*
X222613000Y-78883000D01*
X222613000Y-78863000D01*
X222867000Y-78863000D01*
X222867000Y-78883000D01*
X224060155Y-78883000D01*
X224181476Y-78653110D01*
X224011645Y-78243076D01*
X223621358Y-77814817D01*
X223478447Y-77747702D01*
X223819147Y-77520054D01*
X224141054Y-77038285D01*
X224254093Y-76470000D01*
X224236191Y-76380001D01*
X227065197Y-76380001D01*
X229240000Y-78554804D01*
X229240000Y-82274440D01*
X229102235Y-82301843D01*
X228892191Y-82442191D01*
X228751843Y-82652235D01*
X228746279Y-82680209D01*
X228688327Y-82540302D01*
X228509699Y-82361673D01*
X228276310Y-82265000D01*
X227785750Y-82265000D01*
X227627000Y-82423750D01*
X227627000Y-83523000D01*
X227647000Y-83523000D01*
X227647000Y-83777000D01*
X227627000Y-83777000D01*
X227627000Y-83797000D01*
X227373000Y-83797000D01*
X227373000Y-83777000D01*
X226373750Y-83777000D01*
X226215000Y-83935750D01*
X226215000Y-84526309D01*
X226311673Y-84759698D01*
X226490301Y-84938327D01*
X226630209Y-84996279D01*
X226602235Y-85001843D01*
X226392191Y-85142191D01*
X226251843Y-85352235D01*
X226202560Y-85600000D01*
X226202560Y-87100000D01*
X226251843Y-87347765D01*
X226392191Y-87557809D01*
X226602235Y-87698157D01*
X226850000Y-87747440D01*
X228150000Y-87747440D01*
X228397765Y-87698157D01*
X228607809Y-87557809D01*
X228748157Y-87347765D01*
X228750000Y-87338500D01*
X228751843Y-87347765D01*
X228892191Y-87557809D01*
X229102235Y-87698157D01*
X229350000Y-87747440D01*
X230650000Y-87747440D01*
X230897765Y-87698157D01*
X231107809Y-87557809D01*
X231248157Y-87347765D01*
X231297440Y-87100000D01*
X231297440Y-85600000D01*
X231248157Y-85352235D01*
X231107809Y-85142191D01*
X230897765Y-85001843D01*
X230888500Y-85000000D01*
X230897765Y-84998157D01*
X231107809Y-84857809D01*
X231248157Y-84647765D01*
X231297440Y-84400000D01*
X231297440Y-82900000D01*
X231248157Y-82652235D01*
X231107809Y-82442191D01*
X230897765Y-82301843D01*
X230760000Y-82274440D01*
X230760000Y-78240002D01*
X230702148Y-77949163D01*
X230537401Y-77702601D01*
X228454801Y-75620001D01*
X230537401Y-73537401D01*
X230702148Y-73290839D01*
X230760000Y-73000000D01*
X230760000Y-72772954D01*
X231050054Y-72579147D01*
X231277702Y-72238447D01*
X231344817Y-72381358D01*
X231773076Y-72771645D01*
X232183110Y-72941476D01*
X232413000Y-72820155D01*
X232413000Y-71627000D01*
X232667000Y-71627000D01*
X232667000Y-72820155D01*
X232896890Y-72941476D01*
X233306924Y-72771645D01*
X233735183Y-72381358D01*
X233981486Y-71856892D01*
X233860819Y-71627000D01*
X232667000Y-71627000D01*
X232413000Y-71627000D01*
X232393000Y-71627000D01*
X232393000Y-71373000D01*
X232413000Y-71373000D01*
X232413000Y-70179845D01*
X232667000Y-70179845D01*
X232667000Y-71373000D01*
X233860819Y-71373000D01*
X233981486Y-71143108D01*
X233735183Y-70618642D01*
X233306924Y-70228355D01*
X232896890Y-70058524D01*
X232667000Y-70179845D01*
X232413000Y-70179845D01*
X232183110Y-70058524D01*
X231773076Y-70228355D01*
X231344817Y-70618642D01*
X231277702Y-70761553D01*
X231135000Y-70547984D01*
X231135000Y-68952016D01*
X231277702Y-68738447D01*
X231344817Y-68881358D01*
X231773076Y-69271645D01*
X232183110Y-69441476D01*
X232413000Y-69320155D01*
X232413000Y-68127000D01*
X232667000Y-68127000D01*
X232667000Y-69320155D01*
X232896890Y-69441476D01*
X233306924Y-69271645D01*
X233735183Y-68881358D01*
X233981486Y-68356892D01*
X233860819Y-68127000D01*
X232667000Y-68127000D01*
X232413000Y-68127000D01*
X232393000Y-68127000D01*
X232393000Y-67873000D01*
X232413000Y-67873000D01*
X232413000Y-66679845D01*
X232667000Y-66679845D01*
X232667000Y-67873000D01*
X233860819Y-67873000D01*
X233981486Y-67643108D01*
X233735183Y-67118642D01*
X233306924Y-66728355D01*
X232896890Y-66558524D01*
X232667000Y-66679845D01*
X232413000Y-66679845D01*
X232183110Y-66558524D01*
X231773076Y-66728355D01*
X231344817Y-67118642D01*
X231277702Y-67261553D01*
X231135000Y-67047984D01*
X231135000Y-65452016D01*
X231277702Y-65238447D01*
X231344817Y-65381358D01*
X231773076Y-65771645D01*
X232183110Y-65941476D01*
X232413000Y-65820155D01*
X232413000Y-64627000D01*
X232667000Y-64627000D01*
X232667000Y-65820155D01*
X232896890Y-65941476D01*
X233306924Y-65771645D01*
X233735183Y-65381358D01*
X233981486Y-64856892D01*
X233860819Y-64627000D01*
X232667000Y-64627000D01*
X232413000Y-64627000D01*
X232393000Y-64627000D01*
X232393000Y-64373000D01*
X232413000Y-64373000D01*
X232413000Y-63179845D01*
X232667000Y-63179845D01*
X232667000Y-64373000D01*
X233860819Y-64373000D01*
X233981486Y-64143108D01*
X233735183Y-63618642D01*
X233306924Y-63228355D01*
X232896890Y-63058524D01*
X232667000Y-63179845D01*
X232413000Y-63179845D01*
X232183110Y-63058524D01*
X231773076Y-63228355D01*
X231344817Y-63618642D01*
X231277702Y-63761553D01*
X231135000Y-63547984D01*
X231135000Y-61952016D01*
X231277702Y-61738447D01*
X231344817Y-61881358D01*
X231773076Y-62271645D01*
X232183110Y-62441476D01*
X232413000Y-62320155D01*
X232413000Y-61127000D01*
X232667000Y-61127000D01*
X232667000Y-62320155D01*
X232896890Y-62441476D01*
X233306924Y-62271645D01*
X233735183Y-61881358D01*
X233981486Y-61356892D01*
X233860819Y-61127000D01*
X232667000Y-61127000D01*
X232413000Y-61127000D01*
X232393000Y-61127000D01*
X232393000Y-60873000D01*
X232413000Y-60873000D01*
X232413000Y-59679845D01*
X232667000Y-59679845D01*
X232667000Y-60873000D01*
X233860819Y-60873000D01*
X233981486Y-60643108D01*
X233735183Y-60118642D01*
X233306924Y-59728355D01*
X232896890Y-59558524D01*
X232667000Y-59679845D01*
X232413000Y-59679845D01*
X232183110Y-59558524D01*
X231773076Y-59728355D01*
X231344817Y-60118642D01*
X231277702Y-60261553D01*
X231135000Y-60047984D01*
X231135000Y-58452016D01*
X231277702Y-58238447D01*
X231344817Y-58381358D01*
X231773076Y-58771645D01*
X232183110Y-58941476D01*
X232413000Y-58820155D01*
X232413000Y-57627000D01*
X232667000Y-57627000D01*
X232667000Y-58820155D01*
X232896890Y-58941476D01*
X233306924Y-58771645D01*
X233735183Y-58381358D01*
X233981486Y-57856892D01*
X233860819Y-57627000D01*
X232667000Y-57627000D01*
X232413000Y-57627000D01*
X232393000Y-57627000D01*
X232393000Y-57373000D01*
X232413000Y-57373000D01*
X232413000Y-56179845D01*
X232667000Y-56179845D01*
X232667000Y-57373000D01*
X233860819Y-57373000D01*
X233981486Y-57143108D01*
X233735183Y-56618642D01*
X233306924Y-56228355D01*
X232896890Y-56058524D01*
X232667000Y-56179845D01*
X232413000Y-56179845D01*
X232183110Y-56058524D01*
X231773076Y-56228355D01*
X231344817Y-56618642D01*
X231277702Y-56761553D01*
X231135000Y-56547984D01*
X231135000Y-54952016D01*
X231277702Y-54738447D01*
X231344817Y-54881358D01*
X231773076Y-55271645D01*
X232183110Y-55441476D01*
X232413000Y-55320155D01*
X232413000Y-54127000D01*
X232667000Y-54127000D01*
X232667000Y-55320155D01*
X232896890Y-55441476D01*
X233306924Y-55271645D01*
X233447457Y-55143572D01*
X237695000Y-55143572D01*
X237695000Y-71856429D01*
X244065000Y-71856429D01*
X244065000Y-55143572D01*
X237695000Y-55143572D01*
X233447457Y-55143572D01*
X233735183Y-54881358D01*
X233981486Y-54356892D01*
X233860819Y-54127000D01*
X232667000Y-54127000D01*
X232413000Y-54127000D01*
X232393000Y-54127000D01*
X232393000Y-53873000D01*
X232413000Y-53873000D01*
X232413000Y-52679845D01*
X232667000Y-52679845D01*
X232667000Y-53873000D01*
X233860819Y-53873000D01*
X233981486Y-53643108D01*
X233735183Y-53118642D01*
X233306924Y-52728355D01*
X232896890Y-52558524D01*
X232667000Y-52679845D01*
X232413000Y-52679845D01*
X232183110Y-52558524D01*
X231773076Y-52728355D01*
X231344817Y-53118642D01*
X231277702Y-53261553D01*
X231135000Y-53047984D01*
X231135000Y-51452016D01*
X231277702Y-51238447D01*
X231344817Y-51381358D01*
X231773076Y-51771645D01*
X232183110Y-51941476D01*
X232413000Y-51820155D01*
X232413000Y-50627000D01*
X232667000Y-50627000D01*
X232667000Y-51820155D01*
X232896890Y-51941476D01*
X233306924Y-51771645D01*
X233735183Y-51381358D01*
X233981486Y-50856892D01*
X233860819Y-50627000D01*
X232667000Y-50627000D01*
X232413000Y-50627000D01*
X232393000Y-50627000D01*
X232393000Y-50373000D01*
X232413000Y-50373000D01*
X232413000Y-49179845D01*
X232667000Y-49179845D01*
X232667000Y-50373000D01*
X233860819Y-50373000D01*
X233981486Y-50143108D01*
X233735183Y-49618642D01*
X233306924Y-49228355D01*
X232896890Y-49058524D01*
X232667000Y-49179845D01*
X232413000Y-49179845D01*
X232183110Y-49058524D01*
X231773076Y-49228355D01*
X231344817Y-49618642D01*
X231277702Y-49761553D01*
X231135000Y-49547984D01*
X231135000Y-47952016D01*
X231277702Y-47738447D01*
X231344817Y-47881358D01*
X231773076Y-48271645D01*
X232183110Y-48441476D01*
X232413000Y-48320155D01*
X232413000Y-47127000D01*
X232667000Y-47127000D01*
X232667000Y-48320155D01*
X232896890Y-48441476D01*
X233306924Y-48271645D01*
X233735183Y-47881358D01*
X233981486Y-47356892D01*
X233860819Y-47127000D01*
X232667000Y-47127000D01*
X232413000Y-47127000D01*
X232393000Y-47127000D01*
X232393000Y-46873000D01*
X232413000Y-46873000D01*
X232413000Y-45679845D01*
X232667000Y-45679845D01*
X232667000Y-46873000D01*
X233860819Y-46873000D01*
X233981486Y-46643108D01*
X233735183Y-46118642D01*
X233306924Y-45728355D01*
X232896890Y-45558524D01*
X232667000Y-45679845D01*
X232413000Y-45679845D01*
X232183110Y-45558524D01*
X231773076Y-45728355D01*
X231344817Y-46118642D01*
X231277702Y-46261553D01*
X231135000Y-46047984D01*
X231135000Y-45797919D01*
X231121163Y-45728355D01*
X231048604Y-45363574D01*
X230802566Y-44995353D01*
X229504647Y-43697434D01*
X229429826Y-43647440D01*
X229136427Y-43451397D01*
X228702081Y-43365000D01*
X221519822Y-43365000D01*
X221598157Y-43247765D01*
X221647440Y-43000000D01*
X221647440Y-39000000D01*
X221598157Y-38752235D01*
X221457809Y-38542191D01*
X221247765Y-38401843D01*
X221000000Y-38352560D01*
X217000000Y-38352560D01*
X216752235Y-38401843D01*
X216542191Y-38542191D01*
X216401843Y-38752235D01*
X216352560Y-39000000D01*
X216352560Y-43000000D01*
X216401843Y-43247765D01*
X216480178Y-43365000D01*
X187970133Y-43365000D01*
X184802566Y-40197434D01*
X184507085Y-40000000D01*
X184434346Y-39951397D01*
X184000000Y-39865000D01*
X183647440Y-39865000D01*
X183647440Y-39000000D01*
X183598157Y-38752235D01*
X183457809Y-38542191D01*
X183247765Y-38401843D01*
X183000000Y-38352560D01*
X179000000Y-38352560D01*
X178752235Y-38401843D01*
X178542191Y-38542191D01*
X178401843Y-38752235D01*
X178352560Y-39000000D01*
X178352560Y-39865000D01*
X174500000Y-39865000D01*
X174065654Y-39951397D01*
X173697433Y-40197434D01*
X170197437Y-43697431D01*
X170197434Y-43697433D01*
X169197434Y-44697434D01*
X168951397Y-45065654D01*
X168865000Y-45500000D01*
X168865000Y-46047984D01*
X168722298Y-46261553D01*
X168655183Y-46118642D01*
X168226924Y-45728355D01*
X167816890Y-45558524D01*
X167587000Y-45679845D01*
X167587000Y-46873000D01*
X167607000Y-46873000D01*
X167607000Y-47127000D01*
X167587000Y-47127000D01*
X167587000Y-48320155D01*
X167816890Y-48441476D01*
X168226924Y-48271645D01*
X168655183Y-47881358D01*
X168722298Y-47738447D01*
X168865000Y-47952016D01*
X168865000Y-49547984D01*
X168722298Y-49761553D01*
X168655183Y-49618642D01*
X168226924Y-49228355D01*
X167816890Y-49058524D01*
X167587000Y-49179845D01*
X167587000Y-50373000D01*
X167607000Y-50373000D01*
X167607000Y-50627000D01*
X167587000Y-50627000D01*
X167587000Y-51820155D01*
X167816890Y-51941476D01*
X168226924Y-51771645D01*
X168655183Y-51381358D01*
X168722298Y-51238447D01*
X168865000Y-51452016D01*
X168865000Y-53047984D01*
X168722298Y-53261553D01*
X168655183Y-53118642D01*
X168226924Y-52728355D01*
X167816890Y-52558524D01*
X167587000Y-52679845D01*
X167587000Y-53873000D01*
X167607000Y-53873000D01*
X167607000Y-54127000D01*
X167587000Y-54127000D01*
X167587000Y-55320155D01*
X167816890Y-55441476D01*
X168226924Y-55271645D01*
X168655183Y-54881358D01*
X168722298Y-54738447D01*
X168865000Y-54952016D01*
X168865000Y-56547984D01*
X168722298Y-56761553D01*
X168655183Y-56618642D01*
X168226924Y-56228355D01*
X167816890Y-56058524D01*
X167587000Y-56179845D01*
X167587000Y-57373000D01*
X167607000Y-57373000D01*
X167607000Y-57627000D01*
X167587000Y-57627000D01*
X167587000Y-58820155D01*
X167816890Y-58941476D01*
X168226924Y-58771645D01*
X168655183Y-58381358D01*
X168722298Y-58238447D01*
X168865000Y-58452016D01*
X168865000Y-60047984D01*
X168722298Y-60261553D01*
X168655183Y-60118642D01*
X168226924Y-59728355D01*
X167816890Y-59558524D01*
X167587000Y-59679845D01*
X167587000Y-60873000D01*
X167607000Y-60873000D01*
X167607000Y-61127000D01*
X167587000Y-61127000D01*
X167587000Y-62320155D01*
X167816890Y-62441476D01*
X168226924Y-62271645D01*
X168655183Y-61881358D01*
X168722298Y-61738447D01*
X168865000Y-61952016D01*
X168865000Y-63547984D01*
X168722298Y-63761553D01*
X168655183Y-63618642D01*
X168226924Y-63228355D01*
X167816890Y-63058524D01*
X167587000Y-63179845D01*
X167587000Y-64373000D01*
X167607000Y-64373000D01*
X167607000Y-64627000D01*
X167587000Y-64627000D01*
X167587000Y-65820155D01*
X167816890Y-65941476D01*
X168226924Y-65771645D01*
X168655183Y-65381358D01*
X168722298Y-65238447D01*
X168865000Y-65452016D01*
X168865000Y-67047984D01*
X168722298Y-67261553D01*
X168655183Y-67118642D01*
X168226924Y-66728355D01*
X167816890Y-66558524D01*
X167587000Y-66679845D01*
X167587000Y-67873000D01*
X167607000Y-67873000D01*
X167607000Y-68127000D01*
X167587000Y-68127000D01*
X167587000Y-69320155D01*
X167816890Y-69441476D01*
X168226924Y-69271645D01*
X168655183Y-68881358D01*
X168722298Y-68738447D01*
X168865000Y-68952016D01*
X168865000Y-70547984D01*
X168722298Y-70761553D01*
X168655183Y-70618642D01*
X168226924Y-70228355D01*
X167816890Y-70058524D01*
X167587000Y-70179845D01*
X167587000Y-71373000D01*
X167607000Y-71373000D01*
X167607000Y-71627000D01*
X167587000Y-71627000D01*
X167587000Y-71647000D01*
X167333000Y-71647000D01*
X167333000Y-71627000D01*
X167313000Y-71627000D01*
X167313000Y-71373000D01*
X167333000Y-71373000D01*
X167333000Y-70179845D01*
X167103110Y-70058524D01*
X166693076Y-70228355D01*
X166264817Y-70618642D01*
X166260000Y-70628899D01*
X166260000Y-68871101D01*
X166264817Y-68881358D01*
X166693076Y-69271645D01*
X167103110Y-69441476D01*
X167333000Y-69320155D01*
X167333000Y-68127000D01*
X167313000Y-68127000D01*
X167313000Y-67873000D01*
X167333000Y-67873000D01*
X167333000Y-66679845D01*
X167103110Y-66558524D01*
X166693076Y-66728355D01*
X166264817Y-67118642D01*
X166260000Y-67128899D01*
X166260000Y-65371101D01*
X166264817Y-65381358D01*
X166693076Y-65771645D01*
X167103110Y-65941476D01*
X167333000Y-65820155D01*
X167333000Y-64627000D01*
X167313000Y-64627000D01*
X167313000Y-64373000D01*
X167333000Y-64373000D01*
X167333000Y-63179845D01*
X167103110Y-63058524D01*
X166693076Y-63228355D01*
X166264817Y-63618642D01*
X166260000Y-63628899D01*
X166260000Y-63000000D01*
X166205299Y-62725000D01*
X166202148Y-62709160D01*
X166037401Y-62462599D01*
X164931694Y-61356892D01*
X166018514Y-61356892D01*
X166264817Y-61881358D01*
X166693076Y-62271645D01*
X167103110Y-62441476D01*
X167333000Y-62320155D01*
X167333000Y-61127000D01*
X166139181Y-61127000D01*
X166018514Y-61356892D01*
X164931694Y-61356892D01*
X164537401Y-60962599D01*
X164290839Y-60797852D01*
X164000000Y-60740000D01*
X158750000Y-60740000D01*
X158459160Y-60797852D01*
X158212599Y-60962599D01*
X157472638Y-61702560D01*
X156400000Y-61702560D01*
X156152235Y-61751843D01*
X155942191Y-61892191D01*
X155801843Y-62102235D01*
X155752560Y-62350000D01*
X151066373Y-62350000D01*
X152019056Y-60643108D01*
X166018514Y-60643108D01*
X166139181Y-60873000D01*
X167333000Y-60873000D01*
X167333000Y-59679845D01*
X167103110Y-59558524D01*
X166693076Y-59728355D01*
X166264817Y-60118642D01*
X166018514Y-60643108D01*
X152019056Y-60643108D01*
X153574153Y-57856892D01*
X166018514Y-57856892D01*
X166264817Y-58381358D01*
X166693076Y-58771645D01*
X167103110Y-58941476D01*
X167333000Y-58820155D01*
X167333000Y-57627000D01*
X166139181Y-57627000D01*
X166018514Y-57856892D01*
X153574153Y-57856892D01*
X153972544Y-57143108D01*
X166018514Y-57143108D01*
X166139181Y-57373000D01*
X167333000Y-57373000D01*
X167333000Y-56179845D01*
X167103110Y-56058524D01*
X166693076Y-56228355D01*
X166264817Y-56618642D01*
X166018514Y-57143108D01*
X153972544Y-57143108D01*
X155527641Y-54356892D01*
X166018514Y-54356892D01*
X166264817Y-54881358D01*
X166693076Y-55271645D01*
X167103110Y-55441476D01*
X167333000Y-55320155D01*
X167333000Y-54127000D01*
X166139181Y-54127000D01*
X166018514Y-54356892D01*
X155527641Y-54356892D01*
X155926032Y-53643108D01*
X166018514Y-53643108D01*
X166139181Y-53873000D01*
X167333000Y-53873000D01*
X167333000Y-52679845D01*
X167103110Y-52558524D01*
X166693076Y-52728355D01*
X166264817Y-53118642D01*
X166018514Y-53643108D01*
X155926032Y-53643108D01*
X157481129Y-50856892D01*
X166018514Y-50856892D01*
X166264817Y-51381358D01*
X166693076Y-51771645D01*
X167103110Y-51941476D01*
X167333000Y-51820155D01*
X167333000Y-50627000D01*
X166139181Y-50627000D01*
X166018514Y-50856892D01*
X157481129Y-50856892D01*
X157879520Y-50143108D01*
X166018514Y-50143108D01*
X166139181Y-50373000D01*
X167333000Y-50373000D01*
X167333000Y-49179845D01*
X167103110Y-49058524D01*
X166693076Y-49228355D01*
X166264817Y-49618642D01*
X166018514Y-50143108D01*
X157879520Y-50143108D01*
X159434617Y-47356892D01*
X166018514Y-47356892D01*
X166264817Y-47881358D01*
X166693076Y-48271645D01*
X167103110Y-48441476D01*
X167333000Y-48320155D01*
X167333000Y-47127000D01*
X166139181Y-47127000D01*
X166018514Y-47356892D01*
X159434617Y-47356892D01*
X159833008Y-46643108D01*
X166018514Y-46643108D01*
X166139181Y-46873000D01*
X167333000Y-46873000D01*
X167333000Y-45679845D01*
X167103110Y-45558524D01*
X166693076Y-45728355D01*
X166264817Y-46118642D01*
X166018514Y-46643108D01*
X159833008Y-46643108D01*
X169401255Y-29500000D01*
X194865000Y-29500000D01*
X194951397Y-29934345D01*
X195197434Y-30302566D01*
X196865000Y-31970132D01*
X196865000Y-35500000D01*
X196951397Y-35934346D01*
X197197434Y-36302566D01*
X197565654Y-36548603D01*
X198000000Y-36635000D01*
X198434346Y-36548603D01*
X198802566Y-36302566D01*
X199000000Y-36007085D01*
X199197434Y-36302566D01*
X199565654Y-36548603D01*
X200000000Y-36635000D01*
X200434346Y-36548603D01*
X200802566Y-36302566D01*
X201048603Y-35934346D01*
X201135000Y-35500000D01*
X201135000Y-34209127D01*
X201197434Y-34302566D01*
X203197434Y-36302566D01*
X203565655Y-36548603D01*
X204000000Y-36635000D01*
X204434345Y-36548603D01*
X204802566Y-36302566D01*
X205048603Y-35934345D01*
X205135000Y-35500000D01*
X205048603Y-35065655D01*
X204802566Y-34697434D01*
X203135000Y-33029868D01*
X203135000Y-29500000D01*
X203048603Y-29065654D01*
X202802566Y-28697434D01*
X202434346Y-28451397D01*
X202000000Y-28365000D01*
X201565654Y-28451397D01*
X201197434Y-28697434D01*
X201000000Y-28992915D01*
X200802566Y-28697434D01*
X200434346Y-28451397D01*
X200000000Y-28365000D01*
X199565654Y-28451397D01*
X199197434Y-28697434D01*
X198951397Y-29065654D01*
X198865000Y-29500000D01*
X198865000Y-30790873D01*
X198802566Y-30697434D01*
X196802566Y-28697434D01*
X196434345Y-28451397D01*
X196000000Y-28365000D01*
X195565655Y-28451397D01*
X195197434Y-28697434D01*
X194951397Y-29065655D01*
X194865000Y-29500000D01*
X169401255Y-29500000D01*
X171753395Y-25285750D01*
X178365000Y-25285750D01*
X178365000Y-27126310D01*
X178461673Y-27359699D01*
X178640302Y-27538327D01*
X178873691Y-27635000D01*
X180714250Y-27635000D01*
X180873000Y-27476250D01*
X180873000Y-25127000D01*
X181127000Y-25127000D01*
X181127000Y-27476250D01*
X181285750Y-27635000D01*
X183126309Y-27635000D01*
X183359698Y-27538327D01*
X183538327Y-27359699D01*
X183635000Y-27126310D01*
X183635000Y-25285750D01*
X216365000Y-25285750D01*
X216365000Y-27126310D01*
X216461673Y-27359699D01*
X216640302Y-27538327D01*
X216873691Y-27635000D01*
X218714250Y-27635000D01*
X218873000Y-27476250D01*
X218873000Y-25127000D01*
X219127000Y-25127000D01*
X219127000Y-27476250D01*
X219285750Y-27635000D01*
X221126309Y-27635000D01*
X221359698Y-27538327D01*
X221538327Y-27359699D01*
X221635000Y-27126310D01*
X221635000Y-25285750D01*
X221476250Y-25127000D01*
X219127000Y-25127000D01*
X218873000Y-25127000D01*
X216523750Y-25127000D01*
X216365000Y-25285750D01*
X183635000Y-25285750D01*
X183476250Y-25127000D01*
X181127000Y-25127000D01*
X180873000Y-25127000D01*
X178523750Y-25127000D01*
X178365000Y-25285750D01*
X171753395Y-25285750D01*
X172719967Y-23553977D01*
X173738088Y-22873690D01*
X178365000Y-22873690D01*
X178365000Y-24714250D01*
X178523750Y-24873000D01*
X180873000Y-24873000D01*
X180873000Y-22523750D01*
X181127000Y-22523750D01*
X181127000Y-24873000D01*
X183476250Y-24873000D01*
X183635000Y-24714250D01*
X183635000Y-22873690D01*
X216365000Y-22873690D01*
X216365000Y-24714250D01*
X216523750Y-24873000D01*
X218873000Y-24873000D01*
X218873000Y-22523750D01*
X219127000Y-22523750D01*
X219127000Y-24873000D01*
X221476250Y-24873000D01*
X221635000Y-24714250D01*
X221635000Y-22873690D01*
X221538327Y-22640301D01*
X221359698Y-22461673D01*
X221126309Y-22365000D01*
X219285750Y-22365000D01*
X219127000Y-22523750D01*
X218873000Y-22523750D01*
X218714250Y-22365000D01*
X216873691Y-22365000D01*
X216640302Y-22461673D01*
X216461673Y-22640301D01*
X216365000Y-22873690D01*
X183635000Y-22873690D01*
X183538327Y-22640301D01*
X183359698Y-22461673D01*
X183126309Y-22365000D01*
X181285750Y-22365000D01*
X181127000Y-22523750D01*
X180873000Y-22523750D01*
X180714250Y-22365000D01*
X178873691Y-22365000D01*
X178640302Y-22461673D01*
X178461673Y-22640301D01*
X178365000Y-22873690D01*
X173738088Y-22873690D01*
X176352195Y-21127000D01*
X223647805Y-21127000D01*
X227280033Y-23553977D01*
X227280033Y-23553977D01*
G37*
X227280033Y-23553977D02*
X249174646Y-62781826D01*
X249317500Y-63500000D01*
X248878608Y-65706458D01*
X227333593Y-103410235D01*
X223647805Y-105873000D01*
X176352195Y-105873000D01*
X172666407Y-103410235D01*
X166966274Y-93435000D01*
X178786429Y-93435000D01*
X178786429Y-99805000D01*
X193213572Y-99805000D01*
X193213572Y-93435000D01*
X178786429Y-93435000D01*
X166966274Y-93435000D01*
X166309560Y-92285750D01*
X195365000Y-92285750D01*
X195365000Y-92676310D01*
X195461673Y-92909699D01*
X195640302Y-93088327D01*
X195873691Y-93185000D01*
X196614250Y-93185000D01*
X196773000Y-93026250D01*
X196773000Y-92127000D01*
X195523750Y-92127000D01*
X195365000Y-92285750D01*
X166309560Y-92285750D01*
X165759812Y-91323690D01*
X195365000Y-91323690D01*
X195365000Y-91714250D01*
X195523750Y-91873000D01*
X196773000Y-91873000D01*
X196773000Y-90973750D01*
X196614250Y-90815000D01*
X195873691Y-90815000D01*
X195640302Y-90911673D01*
X195461673Y-91090301D01*
X195365000Y-91323690D01*
X165759812Y-91323690D01*
X159080988Y-79635750D01*
X165215000Y-79635750D01*
X165215000Y-80226309D01*
X165311673Y-80459698D01*
X165490301Y-80638327D01*
X165723690Y-80735000D01*
X166214250Y-80735000D01*
X166373000Y-80576250D01*
X166373000Y-79477000D01*
X165373750Y-79477000D01*
X165215000Y-79635750D01*
X159080988Y-79635750D01*
X151121392Y-65706458D01*
X151037708Y-65285750D01*
X155765000Y-65285750D01*
X155765000Y-65776310D01*
X155861673Y-66009699D01*
X156040302Y-66188327D01*
X156273691Y-66285000D01*
X156864250Y-66285000D01*
X157023000Y-66126250D01*
X157023000Y-65127000D01*
X155923750Y-65127000D01*
X155765000Y-65285750D01*
X151037708Y-65285750D01*
X150682500Y-63500000D01*
X150825354Y-62781826D01*
X151066373Y-62350000D01*
X155752560Y-62350000D01*
X155752560Y-63650000D01*
X155801843Y-63897765D01*
X155862873Y-63989101D01*
X155861673Y-63990301D01*
X155765000Y-64223690D01*
X155765000Y-64714250D01*
X155923750Y-64873000D01*
X157023000Y-64873000D01*
X157023000Y-64853000D01*
X157277000Y-64853000D01*
X157277000Y-64873000D01*
X157297000Y-64873000D01*
X157297000Y-65127000D01*
X157277000Y-65127000D01*
X157277000Y-66126250D01*
X157435750Y-66285000D01*
X158026309Y-66285000D01*
X158259698Y-66188327D01*
X158438327Y-66009699D01*
X158496279Y-65869791D01*
X158501843Y-65897765D01*
X158642191Y-66107809D01*
X158852235Y-66248157D01*
X159100000Y-66297440D01*
X160600000Y-66297440D01*
X160847765Y-66248157D01*
X161057809Y-66107809D01*
X161198157Y-65897765D01*
X161247440Y-65650000D01*
X161247440Y-64680000D01*
X161502560Y-64680000D01*
X161502560Y-64770000D01*
X161551843Y-65017765D01*
X161692191Y-65227809D01*
X161902235Y-65368157D01*
X162005708Y-65388739D01*
X161728355Y-65693076D01*
X161558524Y-66103110D01*
X161679845Y-66333000D01*
X162873000Y-66333000D01*
X162873000Y-66313000D01*
X163127000Y-66313000D01*
X163127000Y-66333000D01*
X164320155Y-66333000D01*
X164441476Y-66103110D01*
X164271645Y-65693076D01*
X163994292Y-65388739D01*
X164097765Y-65368157D01*
X164307809Y-65227809D01*
X164448157Y-65017765D01*
X164497440Y-64770000D01*
X164497440Y-63072242D01*
X164740000Y-63314802D01*
X164740000Y-69665198D01*
X164441210Y-69366408D01*
X164514093Y-69000000D01*
X164401054Y-68431715D01*
X164079147Y-67949946D01*
X163738447Y-67722298D01*
X163881358Y-67655183D01*
X164271645Y-67226924D01*
X164441476Y-66816890D01*
X164320155Y-66587000D01*
X163127000Y-66587000D01*
X163127000Y-66607000D01*
X162873000Y-66607000D01*
X162873000Y-66587000D01*
X161679845Y-66587000D01*
X161558524Y-66816890D01*
X161728355Y-67226924D01*
X162118642Y-67655183D01*
X162261553Y-67722298D01*
X161920853Y-67949946D01*
X161598946Y-68431715D01*
X161485907Y-69000000D01*
X161598946Y-69568285D01*
X161920853Y-70050054D01*
X162250026Y-70270000D01*
X161920853Y-70489946D01*
X161598946Y-70971715D01*
X161485907Y-71540000D01*
X161598946Y-72108285D01*
X161920853Y-72590054D01*
X162240000Y-72803301D01*
X162240000Y-74050000D01*
X162297852Y-74340839D01*
X162462599Y-74587401D01*
X165062599Y-77187401D01*
X165202560Y-77280920D01*
X165202560Y-77400000D01*
X165251843Y-77647765D01*
X165392191Y-77857809D01*
X165602235Y-77998157D01*
X165630209Y-78003721D01*
X165490301Y-78061673D01*
X165311673Y-78240302D01*
X165215000Y-78473691D01*
X165215000Y-79064250D01*
X165373750Y-79223000D01*
X166373000Y-79223000D01*
X166373000Y-79203000D01*
X166627000Y-79203000D01*
X166627000Y-79223000D01*
X167626250Y-79223000D01*
X167785000Y-79064250D01*
X167785000Y-78473691D01*
X167688327Y-78240302D01*
X167509699Y-78061673D01*
X167369791Y-78003721D01*
X167397765Y-77998157D01*
X167607809Y-77857809D01*
X167748157Y-77647765D01*
X167797440Y-77400000D01*
X167797440Y-77260000D01*
X168274440Y-77260000D01*
X168301843Y-77397765D01*
X168442191Y-77607809D01*
X168652235Y-77748157D01*
X168900000Y-77797440D01*
X170400000Y-77797440D01*
X170647765Y-77748157D01*
X170857809Y-77607809D01*
X170998157Y-77397765D01*
X171000000Y-77388500D01*
X171001843Y-77397765D01*
X171142191Y-77607809D01*
X171352235Y-77748157D01*
X171600000Y-77797440D01*
X173100000Y-77797440D01*
X173347765Y-77748157D01*
X173557809Y-77607809D01*
X173698157Y-77397765D01*
X173747440Y-77150000D01*
X173747440Y-77130920D01*
X173887401Y-77037401D01*
X174164802Y-76760000D01*
X194532885Y-76760000D01*
X194592749Y-76800000D01*
X194492191Y-76867191D01*
X194408888Y-76991862D01*
X194315000Y-77085750D01*
X194315000Y-77201310D01*
X194323217Y-77221148D01*
X194302560Y-77325000D01*
X194302560Y-77875000D01*
X194323217Y-77978852D01*
X194315000Y-77998690D01*
X194315000Y-78114250D01*
X194408888Y-78208138D01*
X194492191Y-78332809D01*
X194592749Y-78400000D01*
X194532885Y-78440000D01*
X169300000Y-78440000D01*
X169009161Y-78497852D01*
X168762599Y-78662599D01*
X167962599Y-79462599D01*
X167797852Y-79709161D01*
X167785000Y-79773772D01*
X167785000Y-79635750D01*
X167626250Y-79477000D01*
X166627000Y-79477000D01*
X166627000Y-80576250D01*
X166785750Y-80735000D01*
X167276310Y-80735000D01*
X167509699Y-80638327D01*
X167688327Y-80459698D01*
X167740000Y-80334948D01*
X167740000Y-82000000D01*
X167797852Y-82290839D01*
X167962599Y-82537401D01*
X168962599Y-83537401D01*
X168965000Y-83539005D01*
X168965000Y-84214250D01*
X169123750Y-84373000D01*
X171873000Y-84373000D01*
X171873000Y-84353000D01*
X172127000Y-84353000D01*
X172127000Y-84373000D01*
X172147000Y-84373000D01*
X172147000Y-84627000D01*
X172127000Y-84627000D01*
X172127000Y-84647000D01*
X171873000Y-84647000D01*
X171873000Y-84627000D01*
X169123750Y-84627000D01*
X168965000Y-84785750D01*
X168965000Y-85501309D01*
X169049248Y-85704700D01*
X168962599Y-85762597D01*
X167962599Y-86762597D01*
X167797852Y-87009159D01*
X167740000Y-87299998D01*
X167740000Y-89000000D01*
X167797852Y-89290839D01*
X167962599Y-89537401D01*
X168962599Y-90537401D01*
X169209161Y-90702148D01*
X169500000Y-90760000D01*
X197185198Y-90760000D01*
X197240198Y-90815000D01*
X197185750Y-90815000D01*
X197027000Y-90973750D01*
X197027000Y-91873000D01*
X197047000Y-91873000D01*
X197047000Y-92127000D01*
X197027000Y-92127000D01*
X197027000Y-93026250D01*
X197185750Y-93185000D01*
X197926309Y-93185000D01*
X197941142Y-93178856D01*
X195462599Y-95657399D01*
X195297852Y-95903961D01*
X195240000Y-96194800D01*
X195240000Y-100000000D01*
X195297852Y-100290839D01*
X195462599Y-100537401D01*
X195652600Y-100727402D01*
X195899162Y-100892149D01*
X196190001Y-100950001D01*
X196439158Y-100950001D01*
X196435000Y-100970907D01*
X196435000Y-101029093D01*
X196548039Y-101597378D01*
X196869946Y-102079147D01*
X197351715Y-102401054D01*
X197920000Y-102514093D01*
X198488285Y-102401054D01*
X198970054Y-102079147D01*
X199197702Y-101738447D01*
X199264817Y-101881358D01*
X199693076Y-102271645D01*
X200103110Y-102441476D01*
X200333000Y-102320155D01*
X200333000Y-101127000D01*
X200587000Y-101127000D01*
X200587000Y-102320155D01*
X200816890Y-102441476D01*
X201226924Y-102271645D01*
X201655183Y-101881358D01*
X201730000Y-101722046D01*
X201804817Y-101881358D01*
X202233076Y-102271645D01*
X202643110Y-102441476D01*
X202873000Y-102320155D01*
X202873000Y-101127000D01*
X203127000Y-101127000D01*
X203127000Y-102320155D01*
X203356890Y-102441476D01*
X203766924Y-102271645D01*
X204195183Y-101881358D01*
X204270000Y-101722046D01*
X204344817Y-101881358D01*
X204773076Y-102271645D01*
X205183110Y-102441476D01*
X205413000Y-102320155D01*
X205413000Y-101127000D01*
X203127000Y-101127000D01*
X202873000Y-101127000D01*
X200587000Y-101127000D01*
X200333000Y-101127000D01*
X200313000Y-101127000D01*
X200313000Y-100873000D01*
X200333000Y-100873000D01*
X200333000Y-100853000D01*
X200587000Y-100853000D01*
X200587000Y-100873000D01*
X202873000Y-100873000D01*
X202873000Y-100853000D01*
X203127000Y-100853000D01*
X203127000Y-100873000D01*
X205413000Y-100873000D01*
X205413000Y-100853000D01*
X205667000Y-100853000D01*
X205667000Y-100873000D01*
X205687000Y-100873000D01*
X205687000Y-101127000D01*
X205667000Y-101127000D01*
X205667000Y-102320155D01*
X205896890Y-102441476D01*
X206252088Y-102294357D01*
X206317598Y-102392400D01*
X206962599Y-103037401D01*
X207209161Y-103202148D01*
X207500000Y-103260000D01*
X209654654Y-103260000D01*
X209945493Y-103202148D01*
X210192055Y-103037401D01*
X212037401Y-101192055D01*
X212202148Y-100945494D01*
X212260000Y-100654654D01*
X212260000Y-95500000D01*
X212202148Y-95209161D01*
X212037401Y-94962599D01*
X209622242Y-92547440D01*
X210900000Y-92547440D01*
X211147765Y-92498157D01*
X211357809Y-92357809D01*
X211498157Y-92147765D01*
X211503721Y-92119791D01*
X211561673Y-92259699D01*
X211740302Y-92438327D01*
X211973691Y-92535000D01*
X212564250Y-92535000D01*
X212723000Y-92376250D01*
X212723000Y-91377000D01*
X212977000Y-91377000D01*
X212977000Y-92376250D01*
X213135750Y-92535000D01*
X213726309Y-92535000D01*
X213959698Y-92438327D01*
X214138327Y-92259699D01*
X214235000Y-92026310D01*
X214235000Y-91535750D01*
X214076250Y-91377000D01*
X212977000Y-91377000D01*
X212723000Y-91377000D01*
X212703000Y-91377000D01*
X212703000Y-91123000D01*
X212723000Y-91123000D01*
X212723000Y-90123750D01*
X212977000Y-90123750D01*
X212977000Y-91123000D01*
X214076250Y-91123000D01*
X214235000Y-90964250D01*
X214235000Y-90473690D01*
X214138327Y-90240301D01*
X213959698Y-90061673D01*
X213726309Y-89965000D01*
X213135750Y-89965000D01*
X212977000Y-90123750D01*
X212723000Y-90123750D01*
X212564250Y-89965000D01*
X211973691Y-89965000D01*
X211740302Y-90061673D01*
X211561673Y-90240301D01*
X211503721Y-90380209D01*
X211498157Y-90352235D01*
X211357809Y-90142191D01*
X211147765Y-90001843D01*
X210900000Y-89952560D01*
X210560000Y-89952560D01*
X210560000Y-89295451D01*
X210797765Y-89248157D01*
X211007809Y-89107809D01*
X211148157Y-88897765D01*
X211197440Y-88650000D01*
X211197440Y-87350000D01*
X211148157Y-87102235D01*
X211007809Y-86892191D01*
X210797765Y-86751843D01*
X210550000Y-86702560D01*
X209260000Y-86702560D01*
X209260000Y-84084802D01*
X219962599Y-94787401D01*
X220209161Y-94952148D01*
X220500000Y-95010000D01*
X221242560Y-95010000D01*
X221242560Y-95100000D01*
X221291843Y-95347765D01*
X221432191Y-95557809D01*
X221642235Y-95698157D01*
X221890000Y-95747440D01*
X223590000Y-95747440D01*
X223837765Y-95698157D01*
X224047809Y-95557809D01*
X224188157Y-95347765D01*
X224237440Y-95100000D01*
X224237440Y-93400000D01*
X224188157Y-93152235D01*
X224047809Y-92942191D01*
X223837765Y-92801843D01*
X223775223Y-92789403D01*
X223819147Y-92760054D01*
X224141054Y-92278285D01*
X224254093Y-91710000D01*
X224141054Y-91141715D01*
X223819147Y-90659946D01*
X223489974Y-90440000D01*
X223819147Y-90220054D01*
X224141054Y-89738285D01*
X224254093Y-89170000D01*
X224141054Y-88601715D01*
X223819147Y-88119946D01*
X223489974Y-87900000D01*
X223819147Y-87680054D01*
X224141054Y-87198285D01*
X224254093Y-86630000D01*
X224141054Y-86061715D01*
X223819147Y-85579946D01*
X223489974Y-85360000D01*
X223819147Y-85140054D01*
X224141054Y-84658285D01*
X224254093Y-84090000D01*
X224141054Y-83521715D01*
X223819147Y-83039946D01*
X223489974Y-82820000D01*
X223559280Y-82773691D01*
X226215000Y-82773691D01*
X226215000Y-83364250D01*
X226373750Y-83523000D01*
X227373000Y-83523000D01*
X227373000Y-82423750D01*
X227214250Y-82265000D01*
X226723690Y-82265000D01*
X226490301Y-82361673D01*
X226311673Y-82540302D01*
X226215000Y-82773691D01*
X223559280Y-82773691D01*
X223819147Y-82600054D01*
X224141054Y-82118285D01*
X224254093Y-81550000D01*
X224141054Y-80981715D01*
X223819147Y-80499946D01*
X223478447Y-80272298D01*
X223621358Y-80205183D01*
X224011645Y-79776924D01*
X224181476Y-79366890D01*
X224060155Y-79137000D01*
X222867000Y-79137000D01*
X222867000Y-79157000D01*
X222613000Y-79157000D01*
X222613000Y-79137000D01*
X221419845Y-79137000D01*
X221298524Y-79366890D01*
X221468355Y-79776924D01*
X221858642Y-80205183D01*
X222001553Y-80272298D01*
X221660853Y-80499946D01*
X221467046Y-80790000D01*
X216864802Y-80790000D01*
X213263783Y-77188981D01*
X213470000Y-77230000D01*
X221467046Y-77230000D01*
X221660853Y-77520054D01*
X222001553Y-77747702D01*
X221858642Y-77814817D01*
X221468355Y-78243076D01*
X221298524Y-78653110D01*
X221419845Y-78883000D01*
X222613000Y-78883000D01*
X222613000Y-78863000D01*
X222867000Y-78863000D01*
X222867000Y-78883000D01*
X224060155Y-78883000D01*
X224181476Y-78653110D01*
X224011645Y-78243076D01*
X223621358Y-77814817D01*
X223478447Y-77747702D01*
X223819147Y-77520054D01*
X224141054Y-77038285D01*
X224254093Y-76470000D01*
X224236191Y-76380001D01*
X227065197Y-76380001D01*
X229240000Y-78554804D01*
X229240000Y-82274440D01*
X229102235Y-82301843D01*
X228892191Y-82442191D01*
X228751843Y-82652235D01*
X228746279Y-82680209D01*
X228688327Y-82540302D01*
X228509699Y-82361673D01*
X228276310Y-82265000D01*
X227785750Y-82265000D01*
X227627000Y-82423750D01*
X227627000Y-83523000D01*
X227647000Y-83523000D01*
X227647000Y-83777000D01*
X227627000Y-83777000D01*
X227627000Y-83797000D01*
X227373000Y-83797000D01*
X227373000Y-83777000D01*
X226373750Y-83777000D01*
X226215000Y-83935750D01*
X226215000Y-84526309D01*
X226311673Y-84759698D01*
X226490301Y-84938327D01*
X226630209Y-84996279D01*
X226602235Y-85001843D01*
X226392191Y-85142191D01*
X226251843Y-85352235D01*
X226202560Y-85600000D01*
X226202560Y-87100000D01*
X226251843Y-87347765D01*
X226392191Y-87557809D01*
X226602235Y-87698157D01*
X226850000Y-87747440D01*
X228150000Y-87747440D01*
X228397765Y-87698157D01*
X228607809Y-87557809D01*
X228748157Y-87347765D01*
X228750000Y-87338500D01*
X228751843Y-87347765D01*
X228892191Y-87557809D01*
X229102235Y-87698157D01*
X229350000Y-87747440D01*
X230650000Y-87747440D01*
X230897765Y-87698157D01*
X231107809Y-87557809D01*
X231248157Y-87347765D01*
X231297440Y-87100000D01*
X231297440Y-85600000D01*
X231248157Y-85352235D01*
X231107809Y-85142191D01*
X230897765Y-85001843D01*
X230888500Y-85000000D01*
X230897765Y-84998157D01*
X231107809Y-84857809D01*
X231248157Y-84647765D01*
X231297440Y-84400000D01*
X231297440Y-82900000D01*
X231248157Y-82652235D01*
X231107809Y-82442191D01*
X230897765Y-82301843D01*
X230760000Y-82274440D01*
X230760000Y-78240002D01*
X230702148Y-77949163D01*
X230537401Y-77702601D01*
X228454801Y-75620001D01*
X230537401Y-73537401D01*
X230702148Y-73290839D01*
X230760000Y-73000000D01*
X230760000Y-72772954D01*
X231050054Y-72579147D01*
X231277702Y-72238447D01*
X231344817Y-72381358D01*
X231773076Y-72771645D01*
X232183110Y-72941476D01*
X232413000Y-72820155D01*
X232413000Y-71627000D01*
X232667000Y-71627000D01*
X232667000Y-72820155D01*
X232896890Y-72941476D01*
X233306924Y-72771645D01*
X233735183Y-72381358D01*
X233981486Y-71856892D01*
X233860819Y-71627000D01*
X232667000Y-71627000D01*
X232413000Y-71627000D01*
X232393000Y-71627000D01*
X232393000Y-71373000D01*
X232413000Y-71373000D01*
X232413000Y-70179845D01*
X232667000Y-70179845D01*
X232667000Y-71373000D01*
X233860819Y-71373000D01*
X233981486Y-71143108D01*
X233735183Y-70618642D01*
X233306924Y-70228355D01*
X232896890Y-70058524D01*
X232667000Y-70179845D01*
X232413000Y-70179845D01*
X232183110Y-70058524D01*
X231773076Y-70228355D01*
X231344817Y-70618642D01*
X231277702Y-70761553D01*
X231135000Y-70547984D01*
X231135000Y-68952016D01*
X231277702Y-68738447D01*
X231344817Y-68881358D01*
X231773076Y-69271645D01*
X232183110Y-69441476D01*
X232413000Y-69320155D01*
X232413000Y-68127000D01*
X232667000Y-68127000D01*
X232667000Y-69320155D01*
X232896890Y-69441476D01*
X233306924Y-69271645D01*
X233735183Y-68881358D01*
X233981486Y-68356892D01*
X233860819Y-68127000D01*
X232667000Y-68127000D01*
X232413000Y-68127000D01*
X232393000Y-68127000D01*
X232393000Y-67873000D01*
X232413000Y-67873000D01*
X232413000Y-66679845D01*
X232667000Y-66679845D01*
X232667000Y-67873000D01*
X233860819Y-67873000D01*
X233981486Y-67643108D01*
X233735183Y-67118642D01*
X233306924Y-66728355D01*
X232896890Y-66558524D01*
X232667000Y-66679845D01*
X232413000Y-66679845D01*
X232183110Y-66558524D01*
X231773076Y-66728355D01*
X231344817Y-67118642D01*
X231277702Y-67261553D01*
X231135000Y-67047984D01*
X231135000Y-65452016D01*
X231277702Y-65238447D01*
X231344817Y-65381358D01*
X231773076Y-65771645D01*
X232183110Y-65941476D01*
X232413000Y-65820155D01*
X232413000Y-64627000D01*
X232667000Y-64627000D01*
X232667000Y-65820155D01*
X232896890Y-65941476D01*
X233306924Y-65771645D01*
X233735183Y-65381358D01*
X233981486Y-64856892D01*
X233860819Y-64627000D01*
X232667000Y-64627000D01*
X232413000Y-64627000D01*
X232393000Y-64627000D01*
X232393000Y-64373000D01*
X232413000Y-64373000D01*
X232413000Y-63179845D01*
X232667000Y-63179845D01*
X232667000Y-64373000D01*
X233860819Y-64373000D01*
X233981486Y-64143108D01*
X233735183Y-63618642D01*
X233306924Y-63228355D01*
X232896890Y-63058524D01*
X232667000Y-63179845D01*
X232413000Y-63179845D01*
X232183110Y-63058524D01*
X231773076Y-63228355D01*
X231344817Y-63618642D01*
X231277702Y-63761553D01*
X231135000Y-63547984D01*
X231135000Y-61952016D01*
X231277702Y-61738447D01*
X231344817Y-61881358D01*
X231773076Y-62271645D01*
X232183110Y-62441476D01*
X232413000Y-62320155D01*
X232413000Y-61127000D01*
X232667000Y-61127000D01*
X232667000Y-62320155D01*
X232896890Y-62441476D01*
X233306924Y-62271645D01*
X233735183Y-61881358D01*
X233981486Y-61356892D01*
X233860819Y-61127000D01*
X232667000Y-61127000D01*
X232413000Y-61127000D01*
X232393000Y-61127000D01*
X232393000Y-60873000D01*
X232413000Y-60873000D01*
X232413000Y-59679845D01*
X232667000Y-59679845D01*
X232667000Y-60873000D01*
X233860819Y-60873000D01*
X233981486Y-60643108D01*
X233735183Y-60118642D01*
X233306924Y-59728355D01*
X232896890Y-59558524D01*
X232667000Y-59679845D01*
X232413000Y-59679845D01*
X232183110Y-59558524D01*
X231773076Y-59728355D01*
X231344817Y-60118642D01*
X231277702Y-60261553D01*
X231135000Y-60047984D01*
X231135000Y-58452016D01*
X231277702Y-58238447D01*
X231344817Y-58381358D01*
X231773076Y-58771645D01*
X232183110Y-58941476D01*
X232413000Y-58820155D01*
X232413000Y-57627000D01*
X232667000Y-57627000D01*
X232667000Y-58820155D01*
X232896890Y-58941476D01*
X233306924Y-58771645D01*
X233735183Y-58381358D01*
X233981486Y-57856892D01*
X233860819Y-57627000D01*
X232667000Y-57627000D01*
X232413000Y-57627000D01*
X232393000Y-57627000D01*
X232393000Y-57373000D01*
X232413000Y-57373000D01*
X232413000Y-56179845D01*
X232667000Y-56179845D01*
X232667000Y-57373000D01*
X233860819Y-57373000D01*
X233981486Y-57143108D01*
X233735183Y-56618642D01*
X233306924Y-56228355D01*
X232896890Y-56058524D01*
X232667000Y-56179845D01*
X232413000Y-56179845D01*
X232183110Y-56058524D01*
X231773076Y-56228355D01*
X231344817Y-56618642D01*
X231277702Y-56761553D01*
X231135000Y-56547984D01*
X231135000Y-54952016D01*
X231277702Y-54738447D01*
X231344817Y-54881358D01*
X231773076Y-55271645D01*
X232183110Y-55441476D01*
X232413000Y-55320155D01*
X232413000Y-54127000D01*
X232667000Y-54127000D01*
X232667000Y-55320155D01*
X232896890Y-55441476D01*
X233306924Y-55271645D01*
X233447457Y-55143572D01*
X237695000Y-55143572D01*
X237695000Y-71856429D01*
X244065000Y-71856429D01*
X244065000Y-55143572D01*
X237695000Y-55143572D01*
X233447457Y-55143572D01*
X233735183Y-54881358D01*
X233981486Y-54356892D01*
X233860819Y-54127000D01*
X232667000Y-54127000D01*
X232413000Y-54127000D01*
X232393000Y-54127000D01*
X232393000Y-53873000D01*
X232413000Y-53873000D01*
X232413000Y-52679845D01*
X232667000Y-52679845D01*
X232667000Y-53873000D01*
X233860819Y-53873000D01*
X233981486Y-53643108D01*
X233735183Y-53118642D01*
X233306924Y-52728355D01*
X232896890Y-52558524D01*
X232667000Y-52679845D01*
X232413000Y-52679845D01*
X232183110Y-52558524D01*
X231773076Y-52728355D01*
X231344817Y-53118642D01*
X231277702Y-53261553D01*
X231135000Y-53047984D01*
X231135000Y-51452016D01*
X231277702Y-51238447D01*
X231344817Y-51381358D01*
X231773076Y-51771645D01*
X232183110Y-51941476D01*
X232413000Y-51820155D01*
X232413000Y-50627000D01*
X232667000Y-50627000D01*
X232667000Y-51820155D01*
X232896890Y-51941476D01*
X233306924Y-51771645D01*
X233735183Y-51381358D01*
X233981486Y-50856892D01*
X233860819Y-50627000D01*
X232667000Y-50627000D01*
X232413000Y-50627000D01*
X232393000Y-50627000D01*
X232393000Y-50373000D01*
X232413000Y-50373000D01*
X232413000Y-49179845D01*
X232667000Y-49179845D01*
X232667000Y-50373000D01*
X233860819Y-50373000D01*
X233981486Y-50143108D01*
X233735183Y-49618642D01*
X233306924Y-49228355D01*
X232896890Y-49058524D01*
X232667000Y-49179845D01*
X232413000Y-49179845D01*
X232183110Y-49058524D01*
X231773076Y-49228355D01*
X231344817Y-49618642D01*
X231277702Y-49761553D01*
X231135000Y-49547984D01*
X231135000Y-47952016D01*
X231277702Y-47738447D01*
X231344817Y-47881358D01*
X231773076Y-48271645D01*
X232183110Y-48441476D01*
X232413000Y-48320155D01*
X232413000Y-47127000D01*
X232667000Y-47127000D01*
X232667000Y-48320155D01*
X232896890Y-48441476D01*
X233306924Y-48271645D01*
X233735183Y-47881358D01*
X233981486Y-47356892D01*
X233860819Y-47127000D01*
X232667000Y-47127000D01*
X232413000Y-47127000D01*
X232393000Y-47127000D01*
X232393000Y-46873000D01*
X232413000Y-46873000D01*
X232413000Y-45679845D01*
X232667000Y-45679845D01*
X232667000Y-46873000D01*
X233860819Y-46873000D01*
X233981486Y-46643108D01*
X233735183Y-46118642D01*
X233306924Y-45728355D01*
X232896890Y-45558524D01*
X232667000Y-45679845D01*
X232413000Y-45679845D01*
X232183110Y-45558524D01*
X231773076Y-45728355D01*
X231344817Y-46118642D01*
X231277702Y-46261553D01*
X231135000Y-46047984D01*
X231135000Y-45797919D01*
X231121163Y-45728355D01*
X231048604Y-45363574D01*
X230802566Y-44995353D01*
X229504647Y-43697434D01*
X229429826Y-43647440D01*
X229136427Y-43451397D01*
X228702081Y-43365000D01*
X221519822Y-43365000D01*
X221598157Y-43247765D01*
X221647440Y-43000000D01*
X221647440Y-39000000D01*
X221598157Y-38752235D01*
X221457809Y-38542191D01*
X221247765Y-38401843D01*
X221000000Y-38352560D01*
X217000000Y-38352560D01*
X216752235Y-38401843D01*
X216542191Y-38542191D01*
X216401843Y-38752235D01*
X216352560Y-39000000D01*
X216352560Y-43000000D01*
X216401843Y-43247765D01*
X216480178Y-43365000D01*
X187970133Y-43365000D01*
X184802566Y-40197434D01*
X184507085Y-40000000D01*
X184434346Y-39951397D01*
X184000000Y-39865000D01*
X183647440Y-39865000D01*
X183647440Y-39000000D01*
X183598157Y-38752235D01*
X183457809Y-38542191D01*
X183247765Y-38401843D01*
X183000000Y-38352560D01*
X179000000Y-38352560D01*
X178752235Y-38401843D01*
X178542191Y-38542191D01*
X178401843Y-38752235D01*
X178352560Y-39000000D01*
X178352560Y-39865000D01*
X174500000Y-39865000D01*
X174065654Y-39951397D01*
X173697433Y-40197434D01*
X170197437Y-43697431D01*
X170197434Y-43697433D01*
X169197434Y-44697434D01*
X168951397Y-45065654D01*
X168865000Y-45500000D01*
X168865000Y-46047984D01*
X168722298Y-46261553D01*
X168655183Y-46118642D01*
X168226924Y-45728355D01*
X167816890Y-45558524D01*
X167587000Y-45679845D01*
X167587000Y-46873000D01*
X167607000Y-46873000D01*
X167607000Y-47127000D01*
X167587000Y-47127000D01*
X167587000Y-48320155D01*
X167816890Y-48441476D01*
X168226924Y-48271645D01*
X168655183Y-47881358D01*
X168722298Y-47738447D01*
X168865000Y-47952016D01*
X168865000Y-49547984D01*
X168722298Y-49761553D01*
X168655183Y-49618642D01*
X168226924Y-49228355D01*
X167816890Y-49058524D01*
X167587000Y-49179845D01*
X167587000Y-50373000D01*
X167607000Y-50373000D01*
X167607000Y-50627000D01*
X167587000Y-50627000D01*
X167587000Y-51820155D01*
X167816890Y-51941476D01*
X168226924Y-51771645D01*
X168655183Y-51381358D01*
X168722298Y-51238447D01*
X168865000Y-51452016D01*
X168865000Y-53047984D01*
X168722298Y-53261553D01*
X168655183Y-53118642D01*
X168226924Y-52728355D01*
X167816890Y-52558524D01*
X167587000Y-52679845D01*
X167587000Y-53873000D01*
X167607000Y-53873000D01*
X167607000Y-54127000D01*
X167587000Y-54127000D01*
X167587000Y-55320155D01*
X167816890Y-55441476D01*
X168226924Y-55271645D01*
X168655183Y-54881358D01*
X168722298Y-54738447D01*
X168865000Y-54952016D01*
X168865000Y-56547984D01*
X168722298Y-56761553D01*
X168655183Y-56618642D01*
X168226924Y-56228355D01*
X167816890Y-56058524D01*
X167587000Y-56179845D01*
X167587000Y-57373000D01*
X167607000Y-57373000D01*
X167607000Y-57627000D01*
X167587000Y-57627000D01*
X167587000Y-58820155D01*
X167816890Y-58941476D01*
X168226924Y-58771645D01*
X168655183Y-58381358D01*
X168722298Y-58238447D01*
X168865000Y-58452016D01*
X168865000Y-60047984D01*
X168722298Y-60261553D01*
X168655183Y-60118642D01*
X168226924Y-59728355D01*
X167816890Y-59558524D01*
X167587000Y-59679845D01*
X167587000Y-60873000D01*
X167607000Y-60873000D01*
X167607000Y-61127000D01*
X167587000Y-61127000D01*
X167587000Y-62320155D01*
X167816890Y-62441476D01*
X168226924Y-62271645D01*
X168655183Y-61881358D01*
X168722298Y-61738447D01*
X168865000Y-61952016D01*
X168865000Y-63547984D01*
X168722298Y-63761553D01*
X168655183Y-63618642D01*
X168226924Y-63228355D01*
X167816890Y-63058524D01*
X167587000Y-63179845D01*
X167587000Y-64373000D01*
X167607000Y-64373000D01*
X167607000Y-64627000D01*
X167587000Y-64627000D01*
X167587000Y-65820155D01*
X167816890Y-65941476D01*
X168226924Y-65771645D01*
X168655183Y-65381358D01*
X168722298Y-65238447D01*
X168865000Y-65452016D01*
X168865000Y-67047984D01*
X168722298Y-67261553D01*
X168655183Y-67118642D01*
X168226924Y-66728355D01*
X167816890Y-66558524D01*
X167587000Y-66679845D01*
X167587000Y-67873000D01*
X167607000Y-67873000D01*
X167607000Y-68127000D01*
X167587000Y-68127000D01*
X167587000Y-69320155D01*
X167816890Y-69441476D01*
X168226924Y-69271645D01*
X168655183Y-68881358D01*
X168722298Y-68738447D01*
X168865000Y-68952016D01*
X168865000Y-70547984D01*
X168722298Y-70761553D01*
X168655183Y-70618642D01*
X168226924Y-70228355D01*
X167816890Y-70058524D01*
X167587000Y-70179845D01*
X167587000Y-71373000D01*
X167607000Y-71373000D01*
X167607000Y-71627000D01*
X167587000Y-71627000D01*
X167587000Y-71647000D01*
X167333000Y-71647000D01*
X167333000Y-71627000D01*
X167313000Y-71627000D01*
X167313000Y-71373000D01*
X167333000Y-71373000D01*
X167333000Y-70179845D01*
X167103110Y-70058524D01*
X166693076Y-70228355D01*
X166264817Y-70618642D01*
X166260000Y-70628899D01*
X166260000Y-68871101D01*
X166264817Y-68881358D01*
X166693076Y-69271645D01*
X167103110Y-69441476D01*
X167333000Y-69320155D01*
X167333000Y-68127000D01*
X167313000Y-68127000D01*
X167313000Y-67873000D01*
X167333000Y-67873000D01*
X167333000Y-66679845D01*
X167103110Y-66558524D01*
X166693076Y-66728355D01*
X166264817Y-67118642D01*
X166260000Y-67128899D01*
X166260000Y-65371101D01*
X166264817Y-65381358D01*
X166693076Y-65771645D01*
X167103110Y-65941476D01*
X167333000Y-65820155D01*
X167333000Y-64627000D01*
X167313000Y-64627000D01*
X167313000Y-64373000D01*
X167333000Y-64373000D01*
X167333000Y-63179845D01*
X167103110Y-63058524D01*
X166693076Y-63228355D01*
X166264817Y-63618642D01*
X166260000Y-63628899D01*
X166260000Y-63000000D01*
X166205299Y-62725000D01*
X166202148Y-62709160D01*
X166037401Y-62462599D01*
X164931694Y-61356892D01*
X166018514Y-61356892D01*
X166264817Y-61881358D01*
X166693076Y-62271645D01*
X167103110Y-62441476D01*
X167333000Y-62320155D01*
X167333000Y-61127000D01*
X166139181Y-61127000D01*
X166018514Y-61356892D01*
X164931694Y-61356892D01*
X164537401Y-60962599D01*
X164290839Y-60797852D01*
X164000000Y-60740000D01*
X158750000Y-60740000D01*
X158459160Y-60797852D01*
X158212599Y-60962599D01*
X157472638Y-61702560D01*
X156400000Y-61702560D01*
X156152235Y-61751843D01*
X155942191Y-61892191D01*
X155801843Y-62102235D01*
X155752560Y-62350000D01*
X151066373Y-62350000D01*
X152019056Y-60643108D01*
X166018514Y-60643108D01*
X166139181Y-60873000D01*
X167333000Y-60873000D01*
X167333000Y-59679845D01*
X167103110Y-59558524D01*
X166693076Y-59728355D01*
X166264817Y-60118642D01*
X166018514Y-60643108D01*
X152019056Y-60643108D01*
X153574153Y-57856892D01*
X166018514Y-57856892D01*
X166264817Y-58381358D01*
X166693076Y-58771645D01*
X167103110Y-58941476D01*
X167333000Y-58820155D01*
X167333000Y-57627000D01*
X166139181Y-57627000D01*
X166018514Y-57856892D01*
X153574153Y-57856892D01*
X153972544Y-57143108D01*
X166018514Y-57143108D01*
X166139181Y-57373000D01*
X167333000Y-57373000D01*
X167333000Y-56179845D01*
X167103110Y-56058524D01*
X166693076Y-56228355D01*
X166264817Y-56618642D01*
X166018514Y-57143108D01*
X153972544Y-57143108D01*
X155527641Y-54356892D01*
X166018514Y-54356892D01*
X166264817Y-54881358D01*
X166693076Y-55271645D01*
X167103110Y-55441476D01*
X167333000Y-55320155D01*
X167333000Y-54127000D01*
X166139181Y-54127000D01*
X166018514Y-54356892D01*
X155527641Y-54356892D01*
X155926032Y-53643108D01*
X166018514Y-53643108D01*
X166139181Y-53873000D01*
X167333000Y-53873000D01*
X167333000Y-52679845D01*
X167103110Y-52558524D01*
X166693076Y-52728355D01*
X166264817Y-53118642D01*
X166018514Y-53643108D01*
X155926032Y-53643108D01*
X157481129Y-50856892D01*
X166018514Y-50856892D01*
X166264817Y-51381358D01*
X166693076Y-51771645D01*
X167103110Y-51941476D01*
X167333000Y-51820155D01*
X167333000Y-50627000D01*
X166139181Y-50627000D01*
X166018514Y-50856892D01*
X157481129Y-50856892D01*
X157879520Y-50143108D01*
X166018514Y-50143108D01*
X166139181Y-50373000D01*
X167333000Y-50373000D01*
X167333000Y-49179845D01*
X167103110Y-49058524D01*
X166693076Y-49228355D01*
X166264817Y-49618642D01*
X166018514Y-50143108D01*
X157879520Y-50143108D01*
X159434617Y-47356892D01*
X166018514Y-47356892D01*
X166264817Y-47881358D01*
X166693076Y-48271645D01*
X167103110Y-48441476D01*
X167333000Y-48320155D01*
X167333000Y-47127000D01*
X166139181Y-47127000D01*
X166018514Y-47356892D01*
X159434617Y-47356892D01*
X159833008Y-46643108D01*
X166018514Y-46643108D01*
X166139181Y-46873000D01*
X167333000Y-46873000D01*
X167333000Y-45679845D01*
X167103110Y-45558524D01*
X166693076Y-45728355D01*
X166264817Y-46118642D01*
X166018514Y-46643108D01*
X159833008Y-46643108D01*
X169401255Y-29500000D01*
X194865000Y-29500000D01*
X194951397Y-29934345D01*
X195197434Y-30302566D01*
X196865000Y-31970132D01*
X196865000Y-35500000D01*
X196951397Y-35934346D01*
X197197434Y-36302566D01*
X197565654Y-36548603D01*
X198000000Y-36635000D01*
X198434346Y-36548603D01*
X198802566Y-36302566D01*
X199000000Y-36007085D01*
X199197434Y-36302566D01*
X199565654Y-36548603D01*
X200000000Y-36635000D01*
X200434346Y-36548603D01*
X200802566Y-36302566D01*
X201048603Y-35934346D01*
X201135000Y-35500000D01*
X201135000Y-34209127D01*
X201197434Y-34302566D01*
X203197434Y-36302566D01*
X203565655Y-36548603D01*
X204000000Y-36635000D01*
X204434345Y-36548603D01*
X204802566Y-36302566D01*
X205048603Y-35934345D01*
X205135000Y-35500000D01*
X205048603Y-35065655D01*
X204802566Y-34697434D01*
X203135000Y-33029868D01*
X203135000Y-29500000D01*
X203048603Y-29065654D01*
X202802566Y-28697434D01*
X202434346Y-28451397D01*
X202000000Y-28365000D01*
X201565654Y-28451397D01*
X201197434Y-28697434D01*
X201000000Y-28992915D01*
X200802566Y-28697434D01*
X200434346Y-28451397D01*
X200000000Y-28365000D01*
X199565654Y-28451397D01*
X199197434Y-28697434D01*
X198951397Y-29065654D01*
X198865000Y-29500000D01*
X198865000Y-30790873D01*
X198802566Y-30697434D01*
X196802566Y-28697434D01*
X196434345Y-28451397D01*
X196000000Y-28365000D01*
X195565655Y-28451397D01*
X195197434Y-28697434D01*
X194951397Y-29065655D01*
X194865000Y-29500000D01*
X169401255Y-29500000D01*
X171753395Y-25285750D01*
X178365000Y-25285750D01*
X178365000Y-27126310D01*
X178461673Y-27359699D01*
X178640302Y-27538327D01*
X178873691Y-27635000D01*
X180714250Y-27635000D01*
X180873000Y-27476250D01*
X180873000Y-25127000D01*
X181127000Y-25127000D01*
X181127000Y-27476250D01*
X181285750Y-27635000D01*
X183126309Y-27635000D01*
X183359698Y-27538327D01*
X183538327Y-27359699D01*
X183635000Y-27126310D01*
X183635000Y-25285750D01*
X216365000Y-25285750D01*
X216365000Y-27126310D01*
X216461673Y-27359699D01*
X216640302Y-27538327D01*
X216873691Y-27635000D01*
X218714250Y-27635000D01*
X218873000Y-27476250D01*
X218873000Y-25127000D01*
X219127000Y-25127000D01*
X219127000Y-27476250D01*
X219285750Y-27635000D01*
X221126309Y-27635000D01*
X221359698Y-27538327D01*
X221538327Y-27359699D01*
X221635000Y-27126310D01*
X221635000Y-25285750D01*
X221476250Y-25127000D01*
X219127000Y-25127000D01*
X218873000Y-25127000D01*
X216523750Y-25127000D01*
X216365000Y-25285750D01*
X183635000Y-25285750D01*
X183476250Y-25127000D01*
X181127000Y-25127000D01*
X180873000Y-25127000D01*
X178523750Y-25127000D01*
X178365000Y-25285750D01*
X171753395Y-25285750D01*
X172719967Y-23553977D01*
X173738088Y-22873690D01*
X178365000Y-22873690D01*
X178365000Y-24714250D01*
X178523750Y-24873000D01*
X180873000Y-24873000D01*
X180873000Y-22523750D01*
X181127000Y-22523750D01*
X181127000Y-24873000D01*
X183476250Y-24873000D01*
X183635000Y-24714250D01*
X183635000Y-22873690D01*
X216365000Y-22873690D01*
X216365000Y-24714250D01*
X216523750Y-24873000D01*
X218873000Y-24873000D01*
X218873000Y-22523750D01*
X219127000Y-22523750D01*
X219127000Y-24873000D01*
X221476250Y-24873000D01*
X221635000Y-24714250D01*
X221635000Y-22873690D01*
X221538327Y-22640301D01*
X221359698Y-22461673D01*
X221126309Y-22365000D01*
X219285750Y-22365000D01*
X219127000Y-22523750D01*
X218873000Y-22523750D01*
X218714250Y-22365000D01*
X216873691Y-22365000D01*
X216640302Y-22461673D01*
X216461673Y-22640301D01*
X216365000Y-22873690D01*
X183635000Y-22873690D01*
X183538327Y-22640301D01*
X183359698Y-22461673D01*
X183126309Y-22365000D01*
X181285750Y-22365000D01*
X181127000Y-22523750D01*
X180873000Y-22523750D01*
X180714250Y-22365000D01*
X178873691Y-22365000D01*
X178640302Y-22461673D01*
X178461673Y-22640301D01*
X178365000Y-22873690D01*
X173738088Y-22873690D01*
X176352195Y-21127000D01*
X223647805Y-21127000D01*
X227280033Y-23553977D01*
G36*
X210740000Y-100339852D02*
X209343088Y-101736764D01*
X209521486Y-101356892D01*
X209400819Y-101127000D01*
X208207000Y-101127000D01*
X208207000Y-101147000D01*
X207953000Y-101147000D01*
X207953000Y-101127000D01*
X207933000Y-101127000D01*
X207933000Y-100873000D01*
X207953000Y-100873000D01*
X207953000Y-100853000D01*
X208207000Y-100853000D01*
X208207000Y-100873000D01*
X209400819Y-100873000D01*
X209521486Y-100643108D01*
X209432520Y-100453668D01*
X209565838Y-100427149D01*
X209812400Y-100262402D01*
X210537401Y-99537401D01*
X210702148Y-99290840D01*
X210740000Y-99100546D01*
X210740000Y-100339852D01*
X210740000Y-100339852D01*
G37*
X210740000Y-100339852D02*
X209343088Y-101736764D01*
X209521486Y-101356892D01*
X209400819Y-101127000D01*
X208207000Y-101127000D01*
X208207000Y-101147000D01*
X207953000Y-101147000D01*
X207953000Y-101127000D01*
X207933000Y-101127000D01*
X207933000Y-100873000D01*
X207953000Y-100873000D01*
X207953000Y-100853000D01*
X208207000Y-100853000D01*
X208207000Y-100873000D01*
X209400819Y-100873000D01*
X209521486Y-100643108D01*
X209432520Y-100453668D01*
X209565838Y-100427149D01*
X209812400Y-100262402D01*
X210537401Y-99537401D01*
X210702148Y-99290840D01*
X210740000Y-99100546D01*
X210740000Y-100339852D01*
G36*
X204740000Y-84739803D02*
X204740000Y-94717919D01*
X204797852Y-95008758D01*
X204962599Y-95255320D01*
X207064826Y-97357547D01*
X207029946Y-97380853D01*
X206810000Y-97710026D01*
X206590054Y-97380853D01*
X206108285Y-97058946D01*
X205540000Y-96945907D01*
X204971715Y-97058946D01*
X204489946Y-97380853D01*
X204270000Y-97710026D01*
X204050054Y-97380853D01*
X203734565Y-97170051D01*
X203702148Y-97007080D01*
X203537401Y-96760518D01*
X202156781Y-95379898D01*
X202156781Y-93185000D01*
X202814250Y-93185000D01*
X202973000Y-93026250D01*
X202973000Y-92127000D01*
X203227000Y-92127000D01*
X203227000Y-93026250D01*
X203385750Y-93185000D01*
X204126309Y-93185000D01*
X204359698Y-93088327D01*
X204538327Y-92909699D01*
X204635000Y-92676310D01*
X204635000Y-92285750D01*
X204476250Y-92127000D01*
X203227000Y-92127000D01*
X202973000Y-92127000D01*
X202953000Y-92127000D01*
X202953000Y-91873000D01*
X202973000Y-91873000D01*
X202973000Y-90973750D01*
X203227000Y-90973750D01*
X203227000Y-91873000D01*
X204476250Y-91873000D01*
X204635000Y-91714250D01*
X204635000Y-91323690D01*
X204538327Y-91090301D01*
X204359698Y-90911673D01*
X204126309Y-90815000D01*
X203385750Y-90815000D01*
X203227000Y-90973750D01*
X202973000Y-90973750D01*
X202814250Y-90815000D01*
X202156781Y-90815000D01*
X202156781Y-90395843D01*
X203055184Y-89497440D01*
X204000000Y-89497440D01*
X204247765Y-89448157D01*
X204457809Y-89307809D01*
X204598157Y-89097765D01*
X204647440Y-88850000D01*
X204647440Y-87750000D01*
X204598157Y-87502235D01*
X204457809Y-87292191D01*
X204247765Y-87151843D01*
X204000000Y-87102560D01*
X203116678Y-87102560D01*
X203202148Y-86974645D01*
X203219502Y-86887401D01*
X203260000Y-86683805D01*
X203260000Y-84000000D01*
X203202148Y-83709161D01*
X203180319Y-83676491D01*
X203322765Y-83648157D01*
X203517941Y-83517743D01*
X204740000Y-84739803D01*
X204740000Y-84739803D01*
G37*
X204740000Y-84739803D02*
X204740000Y-94717919D01*
X204797852Y-95008758D01*
X204962599Y-95255320D01*
X207064826Y-97357547D01*
X207029946Y-97380853D01*
X206810000Y-97710026D01*
X206590054Y-97380853D01*
X206108285Y-97058946D01*
X205540000Y-96945907D01*
X204971715Y-97058946D01*
X204489946Y-97380853D01*
X204270000Y-97710026D01*
X204050054Y-97380853D01*
X203734565Y-97170051D01*
X203702148Y-97007080D01*
X203537401Y-96760518D01*
X202156781Y-95379898D01*
X202156781Y-93185000D01*
X202814250Y-93185000D01*
X202973000Y-93026250D01*
X202973000Y-92127000D01*
X203227000Y-92127000D01*
X203227000Y-93026250D01*
X203385750Y-93185000D01*
X204126309Y-93185000D01*
X204359698Y-93088327D01*
X204538327Y-92909699D01*
X204635000Y-92676310D01*
X204635000Y-92285750D01*
X204476250Y-92127000D01*
X203227000Y-92127000D01*
X202973000Y-92127000D01*
X202953000Y-92127000D01*
X202953000Y-91873000D01*
X202973000Y-91873000D01*
X202973000Y-90973750D01*
X203227000Y-90973750D01*
X203227000Y-91873000D01*
X204476250Y-91873000D01*
X204635000Y-91714250D01*
X204635000Y-91323690D01*
X204538327Y-91090301D01*
X204359698Y-90911673D01*
X204126309Y-90815000D01*
X203385750Y-90815000D01*
X203227000Y-90973750D01*
X202973000Y-90973750D01*
X202814250Y-90815000D01*
X202156781Y-90815000D01*
X202156781Y-90395843D01*
X203055184Y-89497440D01*
X204000000Y-89497440D01*
X204247765Y-89448157D01*
X204457809Y-89307809D01*
X204598157Y-89097765D01*
X204647440Y-88850000D01*
X204647440Y-87750000D01*
X204598157Y-87502235D01*
X204457809Y-87292191D01*
X204247765Y-87151843D01*
X204000000Y-87102560D01*
X203116678Y-87102560D01*
X203202148Y-86974645D01*
X203219502Y-86887401D01*
X203260000Y-86683805D01*
X203260000Y-84000000D01*
X203202148Y-83709161D01*
X203180319Y-83676491D01*
X203322765Y-83648157D01*
X203517941Y-83517743D01*
X204740000Y-84739803D01*
G36*
X220172599Y-92247401D02*
X220419160Y-92412148D01*
X220710000Y-92470000D01*
X221467046Y-92470000D01*
X221660853Y-92760054D01*
X221704777Y-92789403D01*
X221642235Y-92801843D01*
X221432191Y-92942191D01*
X221291843Y-93152235D01*
X221242560Y-93400000D01*
X221242560Y-93490000D01*
X220814802Y-93490000D01*
X205987401Y-78662599D01*
X205740839Y-78497852D01*
X205697440Y-78489219D01*
X205697440Y-78125000D01*
X205676783Y-78021148D01*
X205685000Y-78001310D01*
X205685000Y-77885750D01*
X205591112Y-77791862D01*
X205547774Y-77727002D01*
X205652200Y-77727002D01*
X220172599Y-92247401D01*
X220172599Y-92247401D01*
G37*
X220172599Y-92247401D02*
X220419160Y-92412148D01*
X220710000Y-92470000D01*
X221467046Y-92470000D01*
X221660853Y-92760054D01*
X221704777Y-92789403D01*
X221642235Y-92801843D01*
X221432191Y-92942191D01*
X221291843Y-93152235D01*
X221242560Y-93400000D01*
X221242560Y-93490000D01*
X220814802Y-93490000D01*
X205987401Y-78662599D01*
X205740839Y-78497852D01*
X205697440Y-78489219D01*
X205697440Y-78125000D01*
X205676783Y-78021148D01*
X205685000Y-78001310D01*
X205685000Y-77885750D01*
X205591112Y-77791862D01*
X205547774Y-77727002D01*
X205652200Y-77727002D01*
X220172599Y-92247401D01*
G36*
X195287599Y-65887599D02*
X194212599Y-66962599D01*
X194047852Y-67209161D01*
X193990000Y-67500000D01*
X193990000Y-69500000D01*
X194047852Y-69790839D01*
X194212599Y-70037401D01*
X194425198Y-70250000D01*
X193065000Y-71610198D01*
X193065000Y-71285750D01*
X192906250Y-71127000D01*
X191707000Y-71127000D01*
X191707000Y-71147000D01*
X191453000Y-71147000D01*
X191453000Y-71127000D01*
X191433000Y-71127000D01*
X191433000Y-70873000D01*
X191453000Y-70873000D01*
X191453000Y-70853000D01*
X191707000Y-70853000D01*
X191707000Y-70873000D01*
X192906250Y-70873000D01*
X193065000Y-70714250D01*
X193065000Y-70023691D01*
X192968327Y-69790302D01*
X192789699Y-69611673D01*
X192725305Y-69585000D01*
X192776310Y-69585000D01*
X193009699Y-69488327D01*
X193188327Y-69309698D01*
X193285000Y-69076309D01*
X193285000Y-68485750D01*
X193126250Y-68327000D01*
X192127000Y-68327000D01*
X192127000Y-68347000D01*
X191873000Y-68347000D01*
X191873000Y-68327000D01*
X190873750Y-68327000D01*
X190715000Y-68485750D01*
X190715000Y-69076309D01*
X190811673Y-69309698D01*
X190990301Y-69488327D01*
X191054695Y-69515000D01*
X190689802Y-69515000D01*
X190237771Y-69062969D01*
X190348157Y-68897765D01*
X190397440Y-68650000D01*
X190397440Y-67760000D01*
X190715000Y-67760000D01*
X190715000Y-67914250D01*
X190873750Y-68073000D01*
X191873000Y-68073000D01*
X191873000Y-68053000D01*
X192127000Y-68053000D01*
X192127000Y-68073000D01*
X193126250Y-68073000D01*
X193285000Y-67914250D01*
X193285000Y-67703309D01*
X193290839Y-67702148D01*
X193537401Y-67537401D01*
X195189802Y-65885000D01*
X195291489Y-65885000D01*
X195287599Y-65887599D01*
X195287599Y-65887599D01*
G37*
X195287599Y-65887599D02*
X194212599Y-66962599D01*
X194047852Y-67209161D01*
X193990000Y-67500000D01*
X193990000Y-69500000D01*
X194047852Y-69790839D01*
X194212599Y-70037401D01*
X194425198Y-70250000D01*
X193065000Y-71610198D01*
X193065000Y-71285750D01*
X192906250Y-71127000D01*
X191707000Y-71127000D01*
X191707000Y-71147000D01*
X191453000Y-71147000D01*
X191453000Y-71127000D01*
X191433000Y-71127000D01*
X191433000Y-70873000D01*
X191453000Y-70873000D01*
X191453000Y-70853000D01*
X191707000Y-70853000D01*
X191707000Y-70873000D01*
X192906250Y-70873000D01*
X193065000Y-70714250D01*
X193065000Y-70023691D01*
X192968327Y-69790302D01*
X192789699Y-69611673D01*
X192725305Y-69585000D01*
X192776310Y-69585000D01*
X193009699Y-69488327D01*
X193188327Y-69309698D01*
X193285000Y-69076309D01*
X193285000Y-68485750D01*
X193126250Y-68327000D01*
X192127000Y-68327000D01*
X192127000Y-68347000D01*
X191873000Y-68347000D01*
X191873000Y-68327000D01*
X190873750Y-68327000D01*
X190715000Y-68485750D01*
X190715000Y-69076309D01*
X190811673Y-69309698D01*
X190990301Y-69488327D01*
X191054695Y-69515000D01*
X190689802Y-69515000D01*
X190237771Y-69062969D01*
X190348157Y-68897765D01*
X190397440Y-68650000D01*
X190397440Y-67760000D01*
X190715000Y-67760000D01*
X190715000Y-67914250D01*
X190873750Y-68073000D01*
X191873000Y-68073000D01*
X191873000Y-68053000D01*
X192127000Y-68053000D01*
X192127000Y-68073000D01*
X193126250Y-68073000D01*
X193285000Y-67914250D01*
X193285000Y-67703309D01*
X193290839Y-67702148D01*
X193537401Y-67537401D01*
X195189802Y-65885000D01*
X195291489Y-65885000D01*
X195287599Y-65887599D01*
G36*
X178352560Y-43000000D02*
X178401843Y-43247765D01*
X178542191Y-43457809D01*
X178752235Y-43598157D01*
X179000000Y-43647440D01*
X183000000Y-43647440D01*
X183247765Y-43598157D01*
X183457809Y-43457809D01*
X183598157Y-43247765D01*
X183647440Y-43000000D01*
X183647440Y-42252572D01*
X186697433Y-45302566D01*
X186996746Y-45502560D01*
X187065654Y-45548603D01*
X187500000Y-45635000D01*
X189750715Y-45635000D01*
X189750715Y-49030000D01*
X210249286Y-49030000D01*
X210249286Y-45635000D01*
X226237783Y-45635000D01*
X226152191Y-45692191D01*
X226011843Y-45902235D01*
X225962560Y-46150000D01*
X225962560Y-46240000D01*
X223841729Y-46240000D01*
X223550890Y-46297852D01*
X223304328Y-46462599D01*
X222526927Y-47240000D01*
X217250000Y-47240000D01*
X217007414Y-47288254D01*
X216959160Y-47297852D01*
X216712599Y-47462599D01*
X205010198Y-59165000D01*
X204035000Y-59165000D01*
X204035000Y-59147998D01*
X203903252Y-59147998D01*
X204035000Y-59016250D01*
X204035000Y-58948690D01*
X203938327Y-58715301D01*
X203759698Y-58536673D01*
X203526309Y-58440000D01*
X203135750Y-58440000D01*
X202977000Y-58598750D01*
X202977000Y-59077560D01*
X202723000Y-59077560D01*
X202723000Y-58598750D01*
X202564250Y-58440000D01*
X202173691Y-58440000D01*
X201940302Y-58536673D01*
X201761673Y-58715301D01*
X201665000Y-58948690D01*
X201665000Y-59016250D01*
X201823750Y-59175000D01*
X201980164Y-59175000D01*
X201842191Y-59267191D01*
X201771491Y-59373000D01*
X200627000Y-59373000D01*
X200627000Y-58500000D01*
X200617333Y-58451399D01*
X200589803Y-58410197D01*
X200548601Y-58382667D01*
X200500000Y-58373000D01*
X198000000Y-58373000D01*
X197951399Y-58382667D01*
X197910197Y-58410197D01*
X197882667Y-58451399D01*
X197880276Y-58463419D01*
X197700000Y-58427560D01*
X196600000Y-58427560D01*
X196352235Y-58476843D01*
X196295129Y-58515000D01*
X194589802Y-58515000D01*
X183537401Y-47462599D01*
X183290839Y-47297852D01*
X183000000Y-47240000D01*
X177231693Y-47240000D01*
X176454292Y-46462599D01*
X176207730Y-46297852D01*
X175916891Y-46240000D01*
X174037440Y-46240000D01*
X174037440Y-46150000D01*
X173988157Y-45902235D01*
X173847809Y-45692191D01*
X173637765Y-45551843D01*
X173390000Y-45502560D01*
X171690000Y-45502560D01*
X171580865Y-45524268D01*
X171802567Y-45302566D01*
X171802569Y-45302563D01*
X172302566Y-44802566D01*
X174970133Y-42135000D01*
X178352560Y-42135000D01*
X178352560Y-43000000D01*
X178352560Y-43000000D01*
G37*
X178352560Y-43000000D02*
X178401843Y-43247765D01*
X178542191Y-43457809D01*
X178752235Y-43598157D01*
X179000000Y-43647440D01*
X183000000Y-43647440D01*
X183247765Y-43598157D01*
X183457809Y-43457809D01*
X183598157Y-43247765D01*
X183647440Y-43000000D01*
X183647440Y-42252572D01*
X186697433Y-45302566D01*
X186996746Y-45502560D01*
X187065654Y-45548603D01*
X187500000Y-45635000D01*
X189750715Y-45635000D01*
X189750715Y-49030000D01*
X210249286Y-49030000D01*
X210249286Y-45635000D01*
X226237783Y-45635000D01*
X226152191Y-45692191D01*
X226011843Y-45902235D01*
X225962560Y-46150000D01*
X225962560Y-46240000D01*
X223841729Y-46240000D01*
X223550890Y-46297852D01*
X223304328Y-46462599D01*
X222526927Y-47240000D01*
X217250000Y-47240000D01*
X217007414Y-47288254D01*
X216959160Y-47297852D01*
X216712599Y-47462599D01*
X205010198Y-59165000D01*
X204035000Y-59165000D01*
X204035000Y-59147998D01*
X203903252Y-59147998D01*
X204035000Y-59016250D01*
X204035000Y-58948690D01*
X203938327Y-58715301D01*
X203759698Y-58536673D01*
X203526309Y-58440000D01*
X203135750Y-58440000D01*
X202977000Y-58598750D01*
X202977000Y-59077560D01*
X202723000Y-59077560D01*
X202723000Y-58598750D01*
X202564250Y-58440000D01*
X202173691Y-58440000D01*
X201940302Y-58536673D01*
X201761673Y-58715301D01*
X201665000Y-58948690D01*
X201665000Y-59016250D01*
X201823750Y-59175000D01*
X201980164Y-59175000D01*
X201842191Y-59267191D01*
X201771491Y-59373000D01*
X200627000Y-59373000D01*
X200627000Y-58500000D01*
X200617333Y-58451399D01*
X200589803Y-58410197D01*
X200548601Y-58382667D01*
X200500000Y-58373000D01*
X198000000Y-58373000D01*
X197951399Y-58382667D01*
X197910197Y-58410197D01*
X197882667Y-58451399D01*
X197880276Y-58463419D01*
X197700000Y-58427560D01*
X196600000Y-58427560D01*
X196352235Y-58476843D01*
X196295129Y-58515000D01*
X194589802Y-58515000D01*
X183537401Y-47462599D01*
X183290839Y-47297852D01*
X183000000Y-47240000D01*
X177231693Y-47240000D01*
X176454292Y-46462599D01*
X176207730Y-46297852D01*
X175916891Y-46240000D01*
X174037440Y-46240000D01*
X174037440Y-46150000D01*
X173988157Y-45902235D01*
X173847809Y-45692191D01*
X173637765Y-45551843D01*
X173390000Y-45502560D01*
X171690000Y-45502560D01*
X171580865Y-45524268D01*
X171802567Y-45302566D01*
X171802569Y-45302563D01*
X172302566Y-44802566D01*
X174970133Y-42135000D01*
X178352560Y-42135000D01*
X178352560Y-43000000D01*
%TD*%
M02*
