G04 #@! TF.FileFunction,Copper,L1,Top,Signal*
%FSLAX46Y46*%
G04 Gerber Fmt 4.6, Leading zero omitted, Abs format (unit mm)*
G04 Created by KiCad (PCBNEW 4.0.7) date 02/07/18 14:45:59*
%MOMM*%
%LPD*%
G01*
G04 APERTURE LIST*
%ADD10C,0.100000*%
%ADD11C,0.300000*%
%ADD12R,3.000000X3.000000*%
%ADD13R,0.500000X2.300000*%
%ADD14R,2.000000X2.500000*%
%ADD15R,1.700000X1.700000*%
%ADD16O,1.700000X1.700000*%
%ADD17R,1.500000X1.250000*%
%ADD18R,1.600000X0.550000*%
%ADD19R,0.550000X1.600000*%
%ADD20R,1.100000X0.400000*%
%ADD21R,1.300000X1.500000*%
%ADD22R,1.800000X1.100000*%
%ADD23R,1.500000X1.300000*%
%ADD24R,1.000000X1.000000*%
%ADD25R,0.970000X1.270000*%
%ADD26R,1.270000X0.970000*%
%ADD27R,3.500000X3.500000*%
%ADD28R,2.300000X1.600000*%
%ADD29R,1.600000X2.300000*%
%ADD30R,1.250000X1.500000*%
%ADD31R,1.300000X0.800000*%
%ADD32R,4.800000X1.750000*%
%ADD33C,6.500000*%
%ADD34R,2.000000X3.800000*%
%ADD35R,2.000000X1.500000*%
%ADD36C,0.800000*%
%ADD37C,0.250000*%
%ADD38C,1.000000*%
%ADD39C,0.254000*%
G04 APERTURE END LIST*
D10*
D11*
X215964286Y-75250000D02*
X216678572Y-75250000D01*
X215821429Y-75678571D02*
X216321429Y-74178571D01*
X216821429Y-75678571D01*
X217964286Y-75678571D02*
X217964286Y-74178571D01*
X217964286Y-75607143D02*
X217821429Y-75678571D01*
X217535715Y-75678571D01*
X217392857Y-75607143D01*
X217321429Y-75535714D01*
X217250000Y-75392857D01*
X217250000Y-74964286D01*
X217321429Y-74821429D01*
X217392857Y-74750000D01*
X217535715Y-74678571D01*
X217821429Y-74678571D01*
X217964286Y-74750000D01*
X219321429Y-75678571D02*
X219321429Y-74178571D01*
X219321429Y-75607143D02*
X219178572Y-75678571D01*
X218892858Y-75678571D01*
X218750000Y-75607143D01*
X218678572Y-75535714D01*
X218607143Y-75392857D01*
X218607143Y-74964286D01*
X218678572Y-74821429D01*
X218750000Y-74750000D01*
X218892858Y-74678571D01*
X219178572Y-74678571D01*
X219321429Y-74750000D01*
X220035715Y-75678571D02*
X220035715Y-74678571D01*
X220035715Y-74964286D02*
X220107143Y-74821429D01*
X220178572Y-74750000D01*
X220321429Y-74678571D01*
X220464286Y-74678571D01*
X221535714Y-75607143D02*
X221392857Y-75678571D01*
X221107143Y-75678571D01*
X220964286Y-75607143D01*
X220892857Y-75464286D01*
X220892857Y-74892857D01*
X220964286Y-74750000D01*
X221107143Y-74678571D01*
X221392857Y-74678571D01*
X221535714Y-74750000D01*
X221607143Y-74892857D01*
X221607143Y-75035714D01*
X220892857Y-75178571D01*
X222178571Y-75607143D02*
X222321428Y-75678571D01*
X222607143Y-75678571D01*
X222750000Y-75607143D01*
X222821428Y-75464286D01*
X222821428Y-75392857D01*
X222750000Y-75250000D01*
X222607143Y-75178571D01*
X222392857Y-75178571D01*
X222250000Y-75107143D01*
X222178571Y-74964286D01*
X222178571Y-74892857D01*
X222250000Y-74750000D01*
X222392857Y-74678571D01*
X222607143Y-74678571D01*
X222750000Y-74750000D01*
X223392857Y-75607143D02*
X223535714Y-75678571D01*
X223821429Y-75678571D01*
X223964286Y-75607143D01*
X224035714Y-75464286D01*
X224035714Y-75392857D01*
X223964286Y-75250000D01*
X223821429Y-75178571D01*
X223607143Y-75178571D01*
X223464286Y-75107143D01*
X223392857Y-74964286D01*
X223392857Y-74892857D01*
X223464286Y-74750000D01*
X223607143Y-74678571D01*
X223821429Y-74678571D01*
X223964286Y-74750000D01*
D12*
X210000000Y-26000000D03*
D13*
X185700000Y-97700000D03*
X186500000Y-97700000D03*
X187300000Y-97700000D03*
X188100000Y-97700000D03*
X188900000Y-97700000D03*
D14*
X182850000Y-97800000D03*
X182850000Y-103300000D03*
X191750000Y-97800000D03*
X191750000Y-103300000D03*
D15*
X169540000Y-75500000D03*
D16*
X167000000Y-75500000D03*
X164460000Y-75500000D03*
D17*
X187250000Y-81500000D03*
X189750000Y-81500000D03*
D18*
X195750000Y-75200000D03*
X195750000Y-76000000D03*
X195750000Y-76800000D03*
X195750000Y-77600000D03*
X195750000Y-78400000D03*
X195750000Y-79200000D03*
X195750000Y-80000000D03*
X195750000Y-80800000D03*
D19*
X197200000Y-82250000D03*
X198000000Y-82250000D03*
X198800000Y-82250000D03*
X199600000Y-82250000D03*
X200400000Y-82250000D03*
X201200000Y-82250000D03*
X202000000Y-82250000D03*
X202800000Y-82250000D03*
D18*
X204250000Y-80800000D03*
X204250000Y-80000000D03*
X204250000Y-79200000D03*
X204250000Y-78400000D03*
X204250000Y-77600000D03*
X204250000Y-76800000D03*
X204250000Y-76000000D03*
X204250000Y-75200000D03*
D19*
X202800000Y-73750000D03*
X202000000Y-73750000D03*
X201200000Y-73750000D03*
X200400000Y-73750000D03*
X199600000Y-73750000D03*
X198800000Y-73750000D03*
X198000000Y-73750000D03*
X197200000Y-73750000D03*
D15*
X181380000Y-78500000D03*
D16*
X183920000Y-78500000D03*
X186460000Y-78500000D03*
X189000000Y-78500000D03*
D20*
X197150000Y-67725000D03*
X197150000Y-67075000D03*
X197150000Y-66425000D03*
X197150000Y-65775000D03*
X197150000Y-65125000D03*
X197150000Y-64475000D03*
X197150000Y-63825000D03*
X197150000Y-63175000D03*
X197150000Y-62525000D03*
X197150000Y-61875000D03*
X197150000Y-61225000D03*
X197150000Y-60575000D03*
X197150000Y-59925000D03*
X197150000Y-59275000D03*
X202850000Y-59275000D03*
X202850000Y-59925000D03*
X202850000Y-60575000D03*
X202850000Y-61225000D03*
X202850000Y-61875000D03*
X202850000Y-62525000D03*
X202850000Y-63175000D03*
X202850000Y-63825000D03*
X202850000Y-64475000D03*
X202850000Y-65125000D03*
X202850000Y-65775000D03*
X202850000Y-66425000D03*
X202850000Y-67075000D03*
X202850000Y-67725000D03*
D15*
X197920000Y-98460000D03*
D16*
X197920000Y-101000000D03*
X200460000Y-98460000D03*
X200460000Y-101000000D03*
X203000000Y-98460000D03*
X203000000Y-101000000D03*
X205540000Y-98460000D03*
X205540000Y-101000000D03*
X208080000Y-98460000D03*
X208080000Y-101000000D03*
D15*
X230960000Y-62000000D03*
D16*
X233500000Y-62000000D03*
X236040000Y-62000000D03*
D15*
X230960000Y-69000000D03*
D16*
X233500000Y-69000000D03*
X236040000Y-69000000D03*
D15*
X230960000Y-65500000D03*
D16*
X233500000Y-65500000D03*
X236040000Y-65500000D03*
D15*
X230960000Y-72500000D03*
D16*
X233500000Y-72500000D03*
X236040000Y-72500000D03*
D15*
X230960000Y-58500000D03*
D16*
X233500000Y-58500000D03*
X236040000Y-58500000D03*
D15*
X230960000Y-76000000D03*
D16*
X233500000Y-76000000D03*
X236040000Y-76000000D03*
D15*
X230960000Y-55000000D03*
D16*
X233500000Y-55000000D03*
X236040000Y-55000000D03*
D15*
X230960000Y-51500000D03*
D16*
X233500000Y-51500000D03*
X236040000Y-51500000D03*
D21*
X192000000Y-68200000D03*
X192000000Y-65500000D03*
D22*
X196900000Y-88300000D03*
X203100000Y-88300000D03*
X196900000Y-92000000D03*
X203100000Y-92000000D03*
D21*
X226500000Y-81150000D03*
X226500000Y-83850000D03*
X229000000Y-83850000D03*
X229000000Y-81150000D03*
D23*
X212850000Y-90800000D03*
X210150000Y-90800000D03*
X209800000Y-88000000D03*
X207100000Y-88000000D03*
D24*
X200500000Y-86500000D03*
X199500000Y-85000000D03*
X198500000Y-86500000D03*
X197500000Y-85000000D03*
X201500000Y-85000000D03*
X196500000Y-86500000D03*
D25*
X186220000Y-65500000D03*
X187500000Y-65500000D03*
D23*
X204700000Y-70500000D03*
X202000000Y-70500000D03*
X207400000Y-70500000D03*
X210100000Y-70500000D03*
D26*
X214000000Y-72640000D03*
X214000000Y-71360000D03*
X216000000Y-72640000D03*
X216000000Y-71360000D03*
X218000000Y-72640000D03*
X218000000Y-71360000D03*
X220000000Y-72640000D03*
X220000000Y-71360000D03*
X222000000Y-72640000D03*
X222000000Y-71360000D03*
D15*
X169540000Y-72000000D03*
D16*
X167000000Y-72000000D03*
X164460000Y-72000000D03*
D15*
X169540000Y-68500000D03*
D16*
X167000000Y-68500000D03*
X164460000Y-68500000D03*
D15*
X169540000Y-65000000D03*
D16*
X167000000Y-65000000D03*
X164460000Y-65000000D03*
D15*
X169540000Y-61500000D03*
D16*
X167000000Y-61500000D03*
X164460000Y-61500000D03*
D15*
X169540000Y-58000000D03*
D16*
X167000000Y-58000000D03*
X164460000Y-58000000D03*
D15*
X169540000Y-54500000D03*
D16*
X167000000Y-54500000D03*
X164460000Y-54500000D03*
D15*
X169540000Y-51000000D03*
D16*
X167000000Y-51000000D03*
X164460000Y-51000000D03*
D23*
X188800000Y-75500000D03*
X191500000Y-75500000D03*
X181800000Y-81500000D03*
X184500000Y-81500000D03*
D27*
X225000000Y-31000000D03*
X225000000Y-51000000D03*
X175000000Y-51000000D03*
X175000000Y-31000000D03*
D28*
X163150000Y-46500000D03*
X167850000Y-46500000D03*
D29*
X235400000Y-79050000D03*
X235400000Y-83750000D03*
D17*
X173750000Y-82500000D03*
X171250000Y-82500000D03*
D30*
X213000000Y-85750000D03*
X213000000Y-88250000D03*
D31*
X177350000Y-83550000D03*
X177350000Y-84830000D03*
X177350000Y-86090000D03*
X177350000Y-87360000D03*
X177350000Y-88640000D03*
X177350000Y-89910000D03*
X177350000Y-91170000D03*
X177350000Y-92450000D03*
X183650000Y-92450000D03*
X183650000Y-91170000D03*
X183650000Y-89910000D03*
X183650000Y-88640000D03*
X183650000Y-87360000D03*
X183650000Y-86090000D03*
X183650000Y-84830000D03*
X183650000Y-83550000D03*
D32*
X172000000Y-85750000D03*
X172000000Y-89000000D03*
X172000000Y-92250000D03*
X189000000Y-92000000D03*
X189000000Y-88750000D03*
X189000000Y-85500000D03*
D33*
X227000000Y-37525000D03*
X227000000Y-44475000D03*
D12*
X218000000Y-26000000D03*
D34*
X211850000Y-100200000D03*
D35*
X218150000Y-100200000D03*
X218150000Y-97900000D03*
X218150000Y-102500000D03*
D17*
X211550000Y-93600000D03*
X214050000Y-93600000D03*
D15*
X183350000Y-48120000D03*
D16*
X185890000Y-48120000D03*
X188430000Y-48120000D03*
X190970000Y-48120000D03*
D15*
X206210000Y-48120000D03*
D16*
X208750000Y-48120000D03*
X211290000Y-48120000D03*
X213830000Y-48120000D03*
D15*
X222740000Y-99620000D03*
D16*
X222740000Y-97080000D03*
X222740000Y-94540000D03*
X222740000Y-92000000D03*
X222740000Y-89460000D03*
X222740000Y-86920000D03*
X222740000Y-84380000D03*
X222740000Y-81840000D03*
D15*
X226000000Y-87000000D03*
D16*
X228540000Y-87000000D03*
X226000000Y-89540000D03*
X228540000Y-89540000D03*
X226000000Y-92080000D03*
X228540000Y-92080000D03*
X226000000Y-94620000D03*
X228540000Y-94620000D03*
D15*
X193510000Y-50660000D03*
D16*
X196050000Y-50660000D03*
X198590000Y-50660000D03*
X201130000Y-50660000D03*
X203670000Y-50660000D03*
D36*
X168200000Y-88800000D03*
X187500000Y-103500000D03*
X176000000Y-98000000D03*
X194000000Y-103500000D03*
X226500000Y-79500000D03*
X171400000Y-80800000D03*
X207000000Y-78600000D03*
X210000000Y-100600000D03*
X205400000Y-103400000D03*
X200600000Y-103400000D03*
X189000000Y-95000000D03*
X197000000Y-94400000D03*
X185200000Y-91800000D03*
X193800000Y-78200000D03*
X193800000Y-77000000D03*
X183920000Y-76280000D03*
X189400000Y-68200000D03*
X202800000Y-57800000D03*
X215809502Y-88409314D03*
X202320000Y-75720000D03*
D37*
X168600000Y-89000000D02*
X168400000Y-89000000D01*
X168400000Y-89000000D02*
X168200000Y-88800000D01*
D38*
X198000000Y-37000000D02*
X196000000Y-35000000D01*
X198000000Y-38000000D02*
X198000000Y-37000000D01*
X198000000Y-41000000D02*
X198000000Y-38000000D01*
X200000000Y-35000000D02*
X200000000Y-41000000D01*
X202000000Y-39000000D02*
X202000000Y-35000000D01*
X204000000Y-41000000D02*
X202000000Y-39000000D01*
D37*
X182850000Y-103300000D02*
X187300000Y-103300000D01*
X187300000Y-103300000D02*
X187500000Y-103500000D01*
X182850000Y-97800000D02*
X176200000Y-97800000D01*
X176200000Y-97800000D02*
X176000000Y-98000000D01*
X191750000Y-103300000D02*
X193800000Y-103300000D01*
X193800000Y-103300000D02*
X194000000Y-103500000D01*
X226500000Y-81150000D02*
X226500000Y-79500000D01*
X228925000Y-36925000D02*
X230400000Y-36925000D01*
X171250000Y-82500000D02*
X171250000Y-80950000D01*
X171250000Y-80950000D02*
X171400000Y-80800000D01*
X204250000Y-77600000D02*
X206000000Y-77600000D01*
X206000000Y-77600000D02*
X207000000Y-78600000D01*
X205540000Y-103260000D02*
X205400000Y-103400000D01*
X205540000Y-101000000D02*
X205540000Y-103260000D01*
X188900000Y-97700000D02*
X188900000Y-95100000D01*
X188900000Y-95100000D02*
X189000000Y-95000000D01*
X196900000Y-94300000D02*
X197000000Y-94400000D01*
X196900000Y-92000000D02*
X196900000Y-94300000D01*
X189000000Y-88750000D02*
X187475000Y-88750000D01*
X187475000Y-88750000D02*
X185200000Y-91025000D01*
X185200000Y-91025000D02*
X185200000Y-91800000D01*
X195750000Y-76800000D02*
X194000000Y-76800000D01*
X194000000Y-76800000D02*
X193800000Y-77000000D01*
X183920000Y-78500000D02*
X183920000Y-76280000D01*
X192000000Y-68200000D02*
X189400000Y-68200000D01*
X202850000Y-59275000D02*
X202850000Y-57850000D01*
X202850000Y-57850000D02*
X202800000Y-57800000D01*
X197150000Y-65775000D02*
X199225000Y-65775000D01*
X200000000Y-65000000D02*
X200000000Y-60000000D01*
X199225000Y-65775000D02*
X200000000Y-65000000D01*
X200000000Y-60000000D02*
X200725000Y-59275000D01*
X200725000Y-59275000D02*
X202850000Y-59275000D01*
X195750000Y-76800000D02*
X191700000Y-76800000D01*
X191700000Y-76800000D02*
X191500000Y-77000000D01*
X191500000Y-77000000D02*
X191500000Y-78000000D01*
X191500000Y-78000000D02*
X191900000Y-78400000D01*
X191900000Y-78400000D02*
X195750000Y-78400000D01*
X204250000Y-77600000D02*
X205300000Y-77600000D01*
X191580000Y-68620000D02*
X192000000Y-68200000D01*
X192080000Y-68280000D02*
X192000000Y-68200000D01*
X192000000Y-68200000D02*
X192900000Y-68200000D01*
X192900000Y-68200000D02*
X195325000Y-65775000D01*
X195325000Y-65775000D02*
X196350000Y-65775000D01*
X196350000Y-65775000D02*
X197150000Y-65775000D01*
X197150000Y-65775000D02*
X197150000Y-65799999D01*
X203000000Y-98500000D02*
X203000000Y-97297919D01*
X203000000Y-97297919D02*
X201396781Y-95694700D01*
X201396781Y-95694700D02*
X201396781Y-90081041D01*
X201396781Y-90081041D02*
X203123536Y-88354286D01*
X199600000Y-73750000D02*
X199600000Y-78369998D01*
X199600000Y-78369998D02*
X194346008Y-83623990D01*
X194346008Y-83623990D02*
X194346008Y-87346008D01*
X194346008Y-87346008D02*
X195300000Y-88300000D01*
X195300000Y-88300000D02*
X196900000Y-88300000D01*
X202000000Y-82250000D02*
X202000000Y-83500000D01*
X202000000Y-83500000D02*
X202500000Y-84000000D01*
X202500000Y-84000000D02*
X202500000Y-86683805D01*
X202500000Y-86683805D02*
X199985750Y-89198055D01*
X199985750Y-89198055D02*
X199985750Y-94014250D01*
X199985750Y-94014250D02*
X197920000Y-96080000D01*
X197920000Y-96080000D02*
X197920000Y-97400000D01*
X197920000Y-97400000D02*
X197920000Y-98500000D01*
X204250000Y-80800000D02*
X204725102Y-80800000D01*
X204725102Y-80800000D02*
X207100000Y-83174898D01*
X207100000Y-83174898D02*
X207100000Y-88000000D01*
X207100000Y-91500000D02*
X207100000Y-93600000D01*
X207244642Y-99725001D02*
X206019641Y-98500000D01*
X207100000Y-93600000D02*
X210000000Y-96500000D01*
X210000000Y-96500000D02*
X210000000Y-99000000D01*
X210000000Y-99000000D02*
X209274999Y-99725001D01*
X209274999Y-99725001D02*
X207244642Y-99725001D01*
X206019641Y-98500000D02*
X205540000Y-98500000D01*
X207100000Y-88000000D02*
X207100000Y-91500000D01*
X207100000Y-91500000D02*
X207100000Y-91994554D01*
X207050000Y-87950000D02*
X207100000Y-88000000D01*
X208080000Y-98500000D02*
X208080000Y-97297919D01*
X208080000Y-97297919D02*
X205500000Y-94717919D01*
X205500000Y-94717919D02*
X205500000Y-84425000D01*
X202800000Y-82250000D02*
X203325000Y-82250000D01*
X203325000Y-82250000D02*
X205500000Y-84425000D01*
X229000000Y-83850000D02*
X228100000Y-83850000D01*
X228100000Y-83850000D02*
X226500000Y-83850000D01*
X179500000Y-81292878D02*
X179500000Y-84840000D01*
X179000000Y-75000000D02*
X179000000Y-80792878D01*
X178250000Y-86090000D02*
X177350000Y-86090000D01*
X181500000Y-72500000D02*
X179000000Y-75000000D01*
X179500000Y-84840000D02*
X178250000Y-86090000D01*
X197800000Y-72500000D02*
X181500000Y-72500000D01*
X179000000Y-80792878D02*
X179500000Y-81292878D01*
X198000000Y-72700000D02*
X197800000Y-72500000D01*
X198000000Y-73750000D02*
X198000000Y-72700000D01*
X177350000Y-84830000D02*
X178250000Y-84830000D01*
X178250000Y-84830000D02*
X178500000Y-84580000D01*
X178500000Y-84580000D02*
X178500000Y-82000000D01*
X178500000Y-82000000D02*
X178000000Y-81500000D01*
X178000000Y-81500000D02*
X178000000Y-74500000D01*
X178000000Y-74500000D02*
X181000000Y-71500000D01*
X181000000Y-71500000D02*
X195500000Y-71500000D01*
X197600000Y-71500000D02*
X195500000Y-71500000D01*
X195500000Y-71500000D02*
X195250000Y-71500000D01*
X198800000Y-73750000D02*
X198800000Y-72700000D01*
X198800000Y-72700000D02*
X197600000Y-71500000D01*
X197150000Y-66425000D02*
X197950000Y-66425000D01*
X197950000Y-66425000D02*
X200025000Y-68500000D01*
X200025000Y-68500000D02*
X209500000Y-68500000D01*
X209500000Y-68500000D02*
X210100000Y-69100000D01*
X210100000Y-69100000D02*
X210100000Y-70250000D01*
X195415001Y-70165001D02*
X195500000Y-70250000D01*
X200400000Y-73750000D02*
X200400000Y-72900000D01*
X200400000Y-72900000D02*
X197750000Y-70250000D01*
X197750000Y-70250000D02*
X195500000Y-70250000D01*
X195500000Y-70250000D02*
X194750000Y-69500000D01*
X194750000Y-69500000D02*
X194750000Y-67500000D01*
X194750000Y-67500000D02*
X195825000Y-66425000D01*
X195825000Y-66425000D02*
X196350000Y-66425000D01*
X196350000Y-66425000D02*
X197150000Y-66425000D01*
X197150000Y-67075000D02*
X196175000Y-67075000D01*
X196175000Y-67075000D02*
X195559389Y-67690611D01*
X195559389Y-67690611D02*
X195559389Y-68987963D01*
X195559389Y-68987963D02*
X195971426Y-69400000D01*
X195971426Y-69400000D02*
X197900000Y-69400000D01*
X197900000Y-69400000D02*
X201200000Y-72700000D01*
X201200000Y-72700000D02*
X202000000Y-71900000D01*
X202000000Y-71900000D02*
X202000000Y-70250000D01*
X201200000Y-72700000D02*
X201200000Y-73750000D01*
X202850000Y-65775000D02*
X215525000Y-65775000D01*
X215525000Y-65775000D02*
X220000000Y-70250000D01*
X220000000Y-70250000D02*
X220000000Y-71360000D01*
X202850000Y-66425000D02*
X214175000Y-66425000D01*
X214175000Y-66425000D02*
X218000000Y-70250000D01*
X218000000Y-70250000D02*
X218000000Y-71360000D01*
X202850000Y-67075000D02*
X213075000Y-67075000D01*
X213075000Y-67075000D02*
X216000000Y-70000000D01*
X216000000Y-70000000D02*
X216000000Y-71360000D01*
X202850000Y-67725000D02*
X211725000Y-67725000D01*
X211725000Y-67725000D02*
X214000000Y-70000000D01*
X214000000Y-70000000D02*
X214000000Y-71360000D01*
X222740000Y-97080000D02*
X221580000Y-97080000D01*
X221580000Y-97080000D02*
X218000000Y-93500000D01*
X218000000Y-93500000D02*
X218000000Y-87707122D01*
X218000000Y-87707122D02*
X207092878Y-76800000D01*
X207092878Y-76800000D02*
X205300000Y-76800000D01*
X205300000Y-76800000D02*
X204250000Y-76800000D01*
X204250000Y-76800000D02*
X204800000Y-76800000D01*
X204250000Y-79200000D02*
X205950000Y-79200000D01*
X215800000Y-87000000D02*
X217200000Y-88400000D01*
X205950000Y-79200000D02*
X211250000Y-84500000D01*
X211250000Y-84500000D02*
X211250000Y-86050002D01*
X211250000Y-86050002D02*
X212199998Y-87000000D01*
X212199998Y-87000000D02*
X215800000Y-87000000D01*
X217200000Y-88400000D02*
X217200000Y-94200000D01*
X217200000Y-94200000D02*
X222620000Y-99620000D01*
X222620000Y-99620000D02*
X222740000Y-99620000D01*
X226400000Y-85500000D02*
X231600000Y-85500000D01*
X231600000Y-85500000D02*
X233350000Y-83750000D01*
X226000000Y-87000000D02*
X226000000Y-85900000D01*
X226000000Y-85900000D02*
X226400000Y-85500000D01*
X226000000Y-89540000D02*
X226000000Y-87000000D01*
X218150000Y-100200000D02*
X219400000Y-100200000D01*
X219400000Y-100200000D02*
X220200000Y-101000000D01*
X220200000Y-101000000D02*
X223735002Y-101000000D01*
X223735002Y-101000000D02*
X226000000Y-98735002D01*
X226000000Y-98735002D02*
X226000000Y-92080000D01*
D38*
X180000000Y-48120000D02*
X175130000Y-48120000D01*
X185890000Y-48120000D02*
X180000000Y-48120000D01*
X176000000Y-54000000D02*
X179500000Y-54000000D01*
X179500000Y-54000000D02*
X226850002Y-54000000D01*
X180000000Y-48120000D02*
X180000000Y-53500000D01*
X180000000Y-53500000D02*
X179500000Y-54000000D01*
X175130000Y-48120000D02*
X174750000Y-48500000D01*
X174750000Y-48500000D02*
X174000000Y-48500000D01*
X232650001Y-76849999D02*
X232650001Y-80000000D01*
D37*
X229000000Y-81150000D02*
X229000000Y-80150000D01*
D38*
X232650001Y-80000000D02*
X232650001Y-83050001D01*
D37*
X229000000Y-80150000D02*
X229150000Y-80000000D01*
X229150000Y-80000000D02*
X232650001Y-80000000D01*
X222740000Y-79260000D02*
X222740000Y-81840000D01*
X223500000Y-78500000D02*
X222740000Y-79260000D01*
X213000000Y-88250000D02*
X212125000Y-88250000D01*
X211500000Y-88875000D02*
X211500000Y-95500000D01*
X212125000Y-88250000D02*
X211500000Y-88875000D01*
X211500000Y-95500000D02*
X208500000Y-92500000D01*
X208500000Y-92500000D02*
X208500000Y-83402759D01*
X208500000Y-83402759D02*
X205097241Y-80000000D01*
D38*
X232650001Y-83050001D02*
X233350000Y-83750000D01*
X233350000Y-83750000D02*
X235400000Y-83750000D01*
X233500000Y-76000000D02*
X232650001Y-76849999D01*
D37*
X174000000Y-71750000D02*
X180250000Y-65500000D01*
X180250000Y-65500000D02*
X184000000Y-65500000D01*
X174000000Y-74750000D02*
X174000000Y-71750000D01*
X171250000Y-77500000D02*
X174000000Y-74750000D01*
X167797919Y-77500000D02*
X171250000Y-77500000D01*
X208750000Y-71225002D02*
X210024998Y-72500000D01*
X210024998Y-72500000D02*
X216024998Y-78500000D01*
X222000000Y-72640000D02*
X210164998Y-72640000D01*
X210164998Y-72640000D02*
X210024998Y-72500000D01*
X216274998Y-78500000D02*
X216500000Y-78500000D01*
X216500000Y-78500000D02*
X217000000Y-78500000D01*
X208750000Y-69750000D02*
X208750000Y-71225002D01*
X216024998Y-78500000D02*
X216500000Y-78500000D01*
X208250000Y-69250000D02*
X208750000Y-69750000D01*
X204250000Y-69250000D02*
X208250000Y-69250000D01*
X204700000Y-70500000D02*
X205700000Y-70500000D01*
X205700000Y-70500000D02*
X207400000Y-70500000D01*
X204700000Y-70250000D02*
X204700000Y-69700000D01*
X204700000Y-69700000D02*
X204250000Y-69250000D01*
X204250000Y-69250000D02*
X199475000Y-69250000D01*
X199475000Y-69250000D02*
X197950000Y-67725000D01*
X197950000Y-67725000D02*
X197150000Y-67725000D01*
X217000000Y-78500000D02*
X223500000Y-78500000D01*
X199225179Y-99734821D02*
X199500000Y-99734821D01*
X191874999Y-101125001D02*
X193265179Y-99734821D01*
X199500000Y-99734821D02*
X206212164Y-99734821D01*
X193265179Y-99734821D02*
X199500000Y-99734821D01*
X185700000Y-97700000D02*
X185700000Y-99678998D01*
X185700000Y-99678998D02*
X187146003Y-101125001D01*
X187146003Y-101125001D02*
X191874999Y-101125001D01*
D38*
X175000000Y-53000000D02*
X176000000Y-54000000D01*
X175000000Y-51000000D02*
X175000000Y-53000000D01*
X232650000Y-48800000D02*
X228950000Y-48800000D01*
X228950000Y-48800000D02*
X228000000Y-49750000D01*
X228000000Y-49750000D02*
X228000000Y-52850002D01*
X228000000Y-52850002D02*
X226850002Y-54000000D01*
X168000000Y-48500000D02*
X167850000Y-48350000D01*
X167850000Y-48350000D02*
X167850000Y-46500000D01*
X175000000Y-49500000D02*
X174000000Y-48500000D01*
X174000000Y-48500000D02*
X168000000Y-48500000D01*
X175000000Y-51000000D02*
X175000000Y-49500000D01*
D37*
X195750000Y-79200000D02*
X194300000Y-79200000D01*
X194300000Y-79200000D02*
X190600000Y-82900000D01*
X190600000Y-82900000D02*
X189750000Y-82900000D01*
X188100000Y-82900000D02*
X189750000Y-82900000D01*
X189750000Y-82900000D02*
X190400002Y-82900000D01*
X167000000Y-75500000D02*
X167000000Y-76702081D01*
X167000000Y-76702081D02*
X167797919Y-77500000D01*
D38*
X233500000Y-50297919D02*
X233500000Y-50500000D01*
X233500000Y-50500000D02*
X233500000Y-51500000D01*
X232650000Y-48800000D02*
X233500000Y-49650000D01*
X233500000Y-49650000D02*
X233500000Y-50500000D01*
X167000000Y-49500000D02*
X168000000Y-48500000D01*
X167000000Y-51000000D02*
X167000000Y-49500000D01*
X167000000Y-75500000D02*
X167000000Y-51000000D01*
D37*
X232500000Y-78500000D02*
X223500000Y-78500000D01*
X206854999Y-100377656D02*
X206854999Y-101854999D01*
X209654654Y-102500000D02*
X211500000Y-100654654D01*
X211500000Y-100654654D02*
X211500000Y-95500000D01*
X205097241Y-80000000D02*
X204250000Y-80000000D01*
X197920000Y-101040000D02*
X199225179Y-99734821D01*
X206212164Y-99734821D02*
X206854999Y-100377656D01*
X206854999Y-101854999D02*
X207500000Y-102500000D01*
X207500000Y-102500000D02*
X209654654Y-102500000D01*
X185725000Y-82900000D02*
X188100000Y-82900000D01*
X183650000Y-82900000D02*
X185725000Y-82900000D01*
X185725000Y-82900000D02*
X187125000Y-81500000D01*
X187125000Y-81500000D02*
X187250000Y-81500000D01*
X183000000Y-82250000D02*
X183650000Y-82900000D01*
X183650000Y-82900000D02*
X183650000Y-83550000D01*
X183000000Y-80120000D02*
X183000000Y-82250000D01*
X181380000Y-78500000D02*
X183000000Y-80120000D01*
X221890000Y-72750000D02*
X222000000Y-72640000D01*
X184000000Y-65500000D02*
X186220000Y-65500000D01*
D38*
X233500000Y-51500000D02*
X233500000Y-76000000D01*
D37*
X197500000Y-67725000D02*
X197150000Y-67725000D01*
X195750000Y-77600000D02*
X196791996Y-77600000D01*
X196791996Y-77600000D02*
X197154458Y-77962462D01*
X197154458Y-77962462D02*
X197154458Y-78845542D01*
X197154458Y-78845542D02*
X196800000Y-79200000D01*
X196800000Y-79200000D02*
X195750000Y-79200000D01*
X193000000Y-91000000D02*
X192000000Y-92000000D01*
X192000000Y-92000000D02*
X189000000Y-92000000D01*
X193000000Y-82500000D02*
X193000000Y-91000000D01*
X194700000Y-80800000D02*
X193000000Y-82500000D01*
X195750000Y-80800000D02*
X194700000Y-80800000D01*
X195750000Y-80000000D02*
X194700000Y-80000000D01*
X194700000Y-80000000D02*
X192000000Y-82700000D01*
X192000000Y-82700000D02*
X192000000Y-85150000D01*
X192000000Y-85150000D02*
X191650000Y-85500000D01*
X191650000Y-85500000D02*
X189000000Y-85500000D01*
X230960000Y-76000000D02*
X229860000Y-76000000D01*
X229860000Y-76000000D02*
X218335000Y-64475000D01*
X218335000Y-64475000D02*
X202850000Y-64475000D01*
X228500000Y-72500000D02*
X230960000Y-72500000D01*
X219825000Y-63825000D02*
X228500000Y-72500000D01*
X202850000Y-63825000D02*
X219825000Y-63825000D01*
X229860000Y-72500000D02*
X230960000Y-72500000D01*
X221675000Y-63175000D02*
X227500000Y-69000000D01*
X227500000Y-69000000D02*
X230960000Y-69000000D01*
X202850000Y-63175000D02*
X221675000Y-63175000D01*
X224025000Y-62525000D02*
X227000000Y-65500000D01*
X227000000Y-65500000D02*
X230960000Y-65500000D01*
X202850000Y-62525000D02*
X224025000Y-62525000D01*
X202850000Y-61875000D02*
X230835000Y-61875000D01*
X230835000Y-61875000D02*
X230960000Y-62000000D01*
X225275000Y-61225000D02*
X228000000Y-58500000D01*
X228000000Y-58500000D02*
X230960000Y-58500000D01*
X202850000Y-61225000D02*
X225275000Y-61225000D01*
X197150000Y-59275000D02*
X176775000Y-59275000D01*
X176775000Y-59275000D02*
X172500000Y-55000000D01*
X172500000Y-55000000D02*
X172500000Y-51500000D01*
X172500000Y-51500000D02*
X172000000Y-51000000D01*
X172000000Y-51000000D02*
X169540000Y-51000000D01*
X197150000Y-59925000D02*
X175925000Y-59925000D01*
X175925000Y-59925000D02*
X171500000Y-55500000D01*
X171500000Y-55000000D02*
X171000000Y-54500000D01*
X171000000Y-54500000D02*
X169540000Y-54500000D01*
X171500000Y-55500000D02*
X171500000Y-55000000D01*
X197150000Y-60575000D02*
X175075000Y-60575000D01*
X175075000Y-60575000D02*
X172500000Y-58000000D01*
X172500000Y-58000000D02*
X169540000Y-58000000D01*
X197150000Y-61225000D02*
X171275000Y-61225000D01*
X171275000Y-61225000D02*
X171000000Y-61500000D01*
X171000000Y-61500000D02*
X169540000Y-61500000D01*
X197150000Y-61875000D02*
X176625000Y-61875000D01*
X176625000Y-61875000D02*
X173500000Y-65000000D01*
X173500000Y-65000000D02*
X169540000Y-65000000D01*
X197150000Y-62525000D02*
X177475000Y-62525000D01*
X177475000Y-62525000D02*
X171500000Y-68500000D01*
X171500000Y-68500000D02*
X169540000Y-68500000D01*
X230960000Y-55000000D02*
X230000000Y-55000000D01*
X230000000Y-55000000D02*
X224425000Y-60575000D01*
X224425000Y-60575000D02*
X202850000Y-60575000D01*
X197150000Y-63175000D02*
X178325000Y-63175000D01*
X178325000Y-63175000D02*
X172000000Y-69500000D01*
X172000000Y-69500000D02*
X172000000Y-71500000D01*
X172000000Y-71500000D02*
X171500000Y-72000000D01*
X171500000Y-72000000D02*
X169540000Y-72000000D01*
X169540000Y-71460000D02*
X169540000Y-72000000D01*
X202850000Y-59925000D02*
X224075000Y-59925000D01*
X224075000Y-59925000D02*
X229250000Y-54750000D01*
X229250000Y-54750000D02*
X229250000Y-52000000D01*
X229250000Y-52000000D02*
X229750000Y-51500000D01*
X229750000Y-51500000D02*
X230960000Y-51500000D01*
X197150000Y-63825000D02*
X179175000Y-63825000D01*
X179175000Y-63825000D02*
X173000000Y-70000000D01*
X173000000Y-70000000D02*
X173000000Y-74500000D01*
X173000000Y-74500000D02*
X172000000Y-75500000D01*
X172000000Y-75500000D02*
X169540000Y-75500000D01*
X209800000Y-88000000D02*
X209800000Y-90900000D01*
X209800000Y-90900000D02*
X210150000Y-91250000D01*
X187500000Y-65500000D02*
X188750000Y-65500000D01*
X188750000Y-65500000D02*
X189873398Y-66623398D01*
X189873398Y-66623398D02*
X191048396Y-66623398D01*
X191048396Y-66623398D02*
X191049999Y-66625001D01*
X191049999Y-66625001D02*
X192950001Y-66625001D01*
X192950001Y-66625001D02*
X192951604Y-66623398D01*
X192951604Y-66623398D02*
X193376602Y-66623398D01*
X193376602Y-66623398D02*
X194875000Y-65125000D01*
X194875000Y-65125000D02*
X197150000Y-65125000D01*
X192000000Y-65500000D02*
X193500000Y-65500000D01*
X193500000Y-65500000D02*
X194525000Y-64475000D01*
X194525000Y-64475000D02*
X197150000Y-64475000D01*
X202850000Y-65125000D02*
X216875000Y-65125000D01*
X216875000Y-65125000D02*
X222000000Y-70250000D01*
X222000000Y-70250000D02*
X222000000Y-71360000D01*
X197200000Y-82250000D02*
X197200000Y-82300000D01*
X197200000Y-82300000D02*
X196500000Y-83000000D01*
X196500000Y-83000000D02*
X196500000Y-86500000D01*
X198000000Y-82250000D02*
X197900001Y-82349999D01*
X197900001Y-82349999D02*
X197900001Y-83390001D01*
X197900001Y-83390001D02*
X197347824Y-83942178D01*
X197347824Y-83942178D02*
X197347824Y-84847824D01*
X197347824Y-84847824D02*
X197500000Y-85000000D01*
X198500000Y-84000000D02*
X198500000Y-86500000D01*
X198800000Y-83700000D02*
X198500000Y-84000000D01*
X199600000Y-82250000D02*
X199600000Y-84900000D01*
X199600000Y-84900000D02*
X199500000Y-85000000D01*
X200400000Y-82250000D02*
X200499999Y-82349999D01*
X200499999Y-82349999D02*
X200499999Y-83390001D01*
X200499999Y-83390001D02*
X200528755Y-83418757D01*
X200528755Y-83418757D02*
X200528755Y-86471245D01*
X200528755Y-86471245D02*
X200500000Y-86500000D01*
X201200000Y-82250000D02*
X201200000Y-84700000D01*
X201200000Y-84700000D02*
X201500000Y-85000000D01*
X204250000Y-76000000D02*
X207500000Y-76000000D01*
X207500000Y-76000000D02*
X219000000Y-87500000D01*
X219000000Y-87500000D02*
X219000000Y-92000000D01*
X219000000Y-92000000D02*
X221540000Y-94540000D01*
X221540000Y-94540000D02*
X222740000Y-94540000D01*
X204250000Y-75200000D02*
X208200000Y-75200000D01*
X208200000Y-75200000D02*
X220000000Y-87000000D01*
X220000000Y-87000000D02*
X220000000Y-90500000D01*
X220000000Y-90500000D02*
X221500000Y-92000000D01*
X221500000Y-92000000D02*
X222740000Y-92000000D01*
X202800000Y-73750000D02*
X202800000Y-72700000D01*
X203000000Y-72500000D02*
X207000000Y-72500000D01*
X202800000Y-72700000D02*
X203000000Y-72500000D01*
X207000000Y-72500000D02*
X221000000Y-86500000D01*
X221460000Y-89460000D02*
X222740000Y-89460000D01*
X221000000Y-86500000D02*
X221000000Y-89000000D01*
X221000000Y-89000000D02*
X221460000Y-89460000D01*
X222740000Y-86920000D02*
X207570000Y-71750000D01*
X207570000Y-71750000D02*
X202950000Y-71750000D01*
X202950000Y-71750000D02*
X202000000Y-72700000D01*
X202000000Y-72700000D02*
X202000000Y-73750000D01*
X195750000Y-75200000D02*
X194200000Y-75200000D01*
X194200000Y-75200000D02*
X193000000Y-74000000D01*
X193000000Y-74000000D02*
X188224998Y-74000000D01*
X188224998Y-74000000D02*
X186460000Y-75764998D01*
X186460000Y-75764998D02*
X186460000Y-77297919D01*
X186460000Y-77297919D02*
X186460000Y-78500000D01*
X188800000Y-75500000D02*
X188800000Y-78300000D01*
X188800000Y-78300000D02*
X189000000Y-78500000D01*
X194000000Y-76000000D02*
X193500000Y-75500000D01*
X193500000Y-75500000D02*
X191500000Y-75500000D01*
X195750000Y-76000000D02*
X194000000Y-76000000D01*
X175500000Y-83000000D02*
X175000000Y-82500000D01*
X175000000Y-82500000D02*
X173750000Y-82500000D01*
X175500000Y-86410000D02*
X175500000Y-83000000D01*
X177350000Y-87360000D02*
X176450000Y-87360000D01*
X176450000Y-87360000D02*
X175500000Y-86410000D01*
X186500000Y-96900000D02*
X186500000Y-95500000D01*
X186500000Y-95500000D02*
X186000000Y-95000000D01*
X186000000Y-95000000D02*
X180500000Y-95000000D01*
X180500000Y-95000000D02*
X178500000Y-93000000D01*
X178500000Y-93000000D02*
X178500000Y-90160000D01*
X178500000Y-90160000D02*
X178250000Y-89910000D01*
X178250000Y-89910000D02*
X177350000Y-89910000D01*
X177350000Y-88640000D02*
X178250000Y-88640000D01*
X178250000Y-88640000D02*
X179000000Y-89390000D01*
X179000000Y-89390000D02*
X179000000Y-92500000D01*
X179000000Y-92500000D02*
X181000000Y-94500000D01*
X181000000Y-94500000D02*
X186300000Y-94500000D01*
X186300000Y-94500000D02*
X187300000Y-95500000D01*
X187300000Y-95500000D02*
X187300000Y-96900000D01*
X175750000Y-90470000D02*
X175750000Y-87975000D01*
X175750000Y-87975000D02*
X173525000Y-85750000D01*
X173525000Y-85750000D02*
X172000000Y-85750000D01*
X177350000Y-91170000D02*
X176450000Y-91170000D01*
X176450000Y-91170000D02*
X175750000Y-90470000D01*
X172000000Y-92250000D02*
X177150000Y-92250000D01*
X177150000Y-92250000D02*
X177350000Y-92450000D01*
D38*
X213850000Y-48120000D02*
X214699999Y-47270001D01*
X214699999Y-47270001D02*
X214699999Y-46300001D01*
X214699999Y-46300001D02*
X218000000Y-43000000D01*
X211310000Y-48120000D02*
X213850000Y-48120000D01*
X218000000Y-43000000D02*
X223000000Y-48000000D01*
X223000000Y-48000000D02*
X225000000Y-48000000D01*
X218000000Y-26000000D02*
X218000000Y-43000000D01*
X227000000Y-46000000D02*
X225000000Y-48000000D01*
X225000000Y-48000000D02*
X225000000Y-51000000D01*
X227000000Y-44475000D02*
X227000000Y-46000000D01*
D37*
X215809502Y-88974999D02*
X215809502Y-88409314D01*
X215809502Y-94559502D02*
X215809502Y-88974999D01*
X218150000Y-96900000D02*
X215809502Y-94559502D01*
X218150000Y-97900000D02*
X218150000Y-96900000D01*
X202320000Y-75720000D02*
X201920001Y-76119999D01*
X201920001Y-76119999D02*
X201920001Y-77889999D01*
X201920001Y-77889999D02*
X198800000Y-81010000D01*
X198800000Y-81010000D02*
X198800000Y-82250000D01*
X198800000Y-82250000D02*
X198800000Y-83700000D01*
D39*
G36*
X249213315Y-63996036D02*
X225602479Y-105315000D01*
X174397521Y-105315000D01*
X173409379Y-103585750D01*
X181215000Y-103585750D01*
X181215000Y-104676309D01*
X181311673Y-104909698D01*
X181490301Y-105088327D01*
X181723690Y-105185000D01*
X182564250Y-105185000D01*
X182723000Y-105026250D01*
X182723000Y-103427000D01*
X182977000Y-103427000D01*
X182977000Y-105026250D01*
X183135750Y-105185000D01*
X183976310Y-105185000D01*
X184209699Y-105088327D01*
X184388327Y-104909698D01*
X184485000Y-104676309D01*
X184485000Y-103585750D01*
X190115000Y-103585750D01*
X190115000Y-104676309D01*
X190211673Y-104909698D01*
X190390301Y-105088327D01*
X190623690Y-105185000D01*
X191464250Y-105185000D01*
X191623000Y-105026250D01*
X191623000Y-103427000D01*
X191877000Y-103427000D01*
X191877000Y-105026250D01*
X192035750Y-105185000D01*
X192876310Y-105185000D01*
X193109699Y-105088327D01*
X193288327Y-104909698D01*
X193385000Y-104676309D01*
X193385000Y-103585750D01*
X193226250Y-103427000D01*
X191877000Y-103427000D01*
X191623000Y-103427000D01*
X190273750Y-103427000D01*
X190115000Y-103585750D01*
X184485000Y-103585750D01*
X184326250Y-103427000D01*
X182977000Y-103427000D01*
X182723000Y-103427000D01*
X181373750Y-103427000D01*
X181215000Y-103585750D01*
X173409379Y-103585750D01*
X172459631Y-101923691D01*
X181215000Y-101923691D01*
X181215000Y-103014250D01*
X181373750Y-103173000D01*
X182723000Y-103173000D01*
X182723000Y-101573750D01*
X182977000Y-101573750D01*
X182977000Y-103173000D01*
X184326250Y-103173000D01*
X184485000Y-103014250D01*
X184485000Y-101923691D01*
X184388327Y-101690302D01*
X184209699Y-101511673D01*
X183976310Y-101415000D01*
X183135750Y-101415000D01*
X182977000Y-101573750D01*
X182723000Y-101573750D01*
X182564250Y-101415000D01*
X181723690Y-101415000D01*
X181490301Y-101511673D01*
X181311673Y-101690302D01*
X181215000Y-101923691D01*
X172459631Y-101923691D01*
X170266522Y-98085750D01*
X181215000Y-98085750D01*
X181215000Y-99176309D01*
X181311673Y-99409698D01*
X181490301Y-99588327D01*
X181723690Y-99685000D01*
X182564250Y-99685000D01*
X182723000Y-99526250D01*
X182723000Y-97927000D01*
X182977000Y-97927000D01*
X182977000Y-99526250D01*
X183135750Y-99685000D01*
X183976310Y-99685000D01*
X184209699Y-99588327D01*
X184388327Y-99409698D01*
X184485000Y-99176309D01*
X184485000Y-98085750D01*
X184326250Y-97927000D01*
X182977000Y-97927000D01*
X182723000Y-97927000D01*
X181373750Y-97927000D01*
X181215000Y-98085750D01*
X170266522Y-98085750D01*
X169316774Y-96423691D01*
X181215000Y-96423691D01*
X181215000Y-97514250D01*
X181373750Y-97673000D01*
X182723000Y-97673000D01*
X182723000Y-96073750D01*
X182977000Y-96073750D01*
X182977000Y-97673000D01*
X184326250Y-97673000D01*
X184485000Y-97514250D01*
X184485000Y-96423691D01*
X184388327Y-96190302D01*
X184209699Y-96011673D01*
X183976310Y-95915000D01*
X183135750Y-95915000D01*
X182977000Y-96073750D01*
X182723000Y-96073750D01*
X182564250Y-95915000D01*
X181723690Y-95915000D01*
X181490301Y-96011673D01*
X181311673Y-96190302D01*
X181215000Y-96423691D01*
X169316774Y-96423691D01*
X165077505Y-89004971D01*
X167164821Y-89004971D01*
X167322058Y-89385515D01*
X167612954Y-89676919D01*
X167993223Y-89834820D01*
X168404971Y-89835179D01*
X168586919Y-89760000D01*
X168600000Y-89760000D01*
X168890839Y-89702148D01*
X168965000Y-89652595D01*
X168965000Y-90001309D01*
X169061673Y-90234698D01*
X169240301Y-90413327D01*
X169473690Y-90510000D01*
X171714250Y-90510000D01*
X171873000Y-90351250D01*
X171873000Y-89127000D01*
X171853000Y-89127000D01*
X171853000Y-88873000D01*
X171873000Y-88873000D01*
X171873000Y-87648750D01*
X171714250Y-87490000D01*
X169473690Y-87490000D01*
X169240301Y-87586673D01*
X169061673Y-87765302D01*
X168965000Y-87998691D01*
X168965000Y-88101346D01*
X168787046Y-87923081D01*
X168406777Y-87765180D01*
X167995029Y-87764821D01*
X167614485Y-87922058D01*
X167323081Y-88212954D01*
X167165180Y-88593223D01*
X167164821Y-89004971D01*
X165077505Y-89004971D01*
X161523665Y-82785750D01*
X169865000Y-82785750D01*
X169865000Y-83251310D01*
X169961673Y-83484699D01*
X170140302Y-83663327D01*
X170373691Y-83760000D01*
X170964250Y-83760000D01*
X171123000Y-83601250D01*
X171123000Y-82627000D01*
X170023750Y-82627000D01*
X169865000Y-82785750D01*
X161523665Y-82785750D01*
X160931060Y-81748690D01*
X169865000Y-81748690D01*
X169865000Y-82214250D01*
X170023750Y-82373000D01*
X171123000Y-82373000D01*
X171123000Y-81398750D01*
X170964250Y-81240000D01*
X170373691Y-81240000D01*
X170140302Y-81336673D01*
X169961673Y-81515301D01*
X169865000Y-81748690D01*
X160931060Y-81748690D01*
X157564317Y-75856892D01*
X163018514Y-75856892D01*
X163264817Y-76381358D01*
X163693076Y-76771645D01*
X164103110Y-76941476D01*
X164333000Y-76820155D01*
X164333000Y-75627000D01*
X163139181Y-75627000D01*
X163018514Y-75856892D01*
X157564317Y-75856892D01*
X157156441Y-75143108D01*
X163018514Y-75143108D01*
X163139181Y-75373000D01*
X164333000Y-75373000D01*
X164333000Y-74179845D01*
X164103110Y-74058524D01*
X163693076Y-74228355D01*
X163264817Y-74618642D01*
X163018514Y-75143108D01*
X157156441Y-75143108D01*
X155564318Y-72356892D01*
X163018514Y-72356892D01*
X163264817Y-72881358D01*
X163693076Y-73271645D01*
X164103110Y-73441476D01*
X164333000Y-73320155D01*
X164333000Y-72127000D01*
X163139181Y-72127000D01*
X163018514Y-72356892D01*
X155564318Y-72356892D01*
X155156442Y-71643108D01*
X163018514Y-71643108D01*
X163139181Y-71873000D01*
X164333000Y-71873000D01*
X164333000Y-70679845D01*
X164103110Y-70558524D01*
X163693076Y-70728355D01*
X163264817Y-71118642D01*
X163018514Y-71643108D01*
X155156442Y-71643108D01*
X153564318Y-68856892D01*
X163018514Y-68856892D01*
X163264817Y-69381358D01*
X163693076Y-69771645D01*
X164103110Y-69941476D01*
X164333000Y-69820155D01*
X164333000Y-68627000D01*
X163139181Y-68627000D01*
X163018514Y-68856892D01*
X153564318Y-68856892D01*
X153156442Y-68143108D01*
X163018514Y-68143108D01*
X163139181Y-68373000D01*
X164333000Y-68373000D01*
X164333000Y-67179845D01*
X164103110Y-67058524D01*
X163693076Y-67228355D01*
X163264817Y-67618642D01*
X163018514Y-68143108D01*
X153156442Y-68143108D01*
X151564318Y-65356892D01*
X163018514Y-65356892D01*
X163264817Y-65881358D01*
X163693076Y-66271645D01*
X164103110Y-66441476D01*
X164333000Y-66320155D01*
X164333000Y-65127000D01*
X163139181Y-65127000D01*
X163018514Y-65356892D01*
X151564318Y-65356892D01*
X151156441Y-64643108D01*
X163018514Y-64643108D01*
X163139181Y-64873000D01*
X164333000Y-64873000D01*
X164333000Y-63679845D01*
X164103110Y-63558524D01*
X163693076Y-63728355D01*
X163264817Y-64118642D01*
X163018514Y-64643108D01*
X151156441Y-64643108D01*
X150786685Y-63996036D01*
X151980625Y-61856892D01*
X163018514Y-61856892D01*
X163264817Y-62381358D01*
X163693076Y-62771645D01*
X164103110Y-62941476D01*
X164333000Y-62820155D01*
X164333000Y-61627000D01*
X163139181Y-61627000D01*
X163018514Y-61856892D01*
X151980625Y-61856892D01*
X152379016Y-61143108D01*
X163018514Y-61143108D01*
X163139181Y-61373000D01*
X164333000Y-61373000D01*
X164333000Y-60179845D01*
X164103110Y-60058524D01*
X163693076Y-60228355D01*
X163264817Y-60618642D01*
X163018514Y-61143108D01*
X152379016Y-61143108D01*
X153934113Y-58356892D01*
X163018514Y-58356892D01*
X163264817Y-58881358D01*
X163693076Y-59271645D01*
X164103110Y-59441476D01*
X164333000Y-59320155D01*
X164333000Y-58127000D01*
X163139181Y-58127000D01*
X163018514Y-58356892D01*
X153934113Y-58356892D01*
X154332504Y-57643108D01*
X163018514Y-57643108D01*
X163139181Y-57873000D01*
X164333000Y-57873000D01*
X164333000Y-56679845D01*
X164103110Y-56558524D01*
X163693076Y-56728355D01*
X163264817Y-57118642D01*
X163018514Y-57643108D01*
X154332504Y-57643108D01*
X155887601Y-54856892D01*
X163018514Y-54856892D01*
X163264817Y-55381358D01*
X163693076Y-55771645D01*
X164103110Y-55941476D01*
X164333000Y-55820155D01*
X164333000Y-54627000D01*
X163139181Y-54627000D01*
X163018514Y-54856892D01*
X155887601Y-54856892D01*
X156285992Y-54143108D01*
X163018514Y-54143108D01*
X163139181Y-54373000D01*
X164333000Y-54373000D01*
X164333000Y-53179845D01*
X164103110Y-53058524D01*
X163693076Y-53228355D01*
X163264817Y-53618642D01*
X163018514Y-54143108D01*
X156285992Y-54143108D01*
X157841089Y-51356892D01*
X163018514Y-51356892D01*
X163264817Y-51881358D01*
X163693076Y-52271645D01*
X164103110Y-52441476D01*
X164333000Y-52320155D01*
X164333000Y-51127000D01*
X163139181Y-51127000D01*
X163018514Y-51356892D01*
X157841089Y-51356892D01*
X158239480Y-50643108D01*
X163018514Y-50643108D01*
X163139181Y-50873000D01*
X164333000Y-50873000D01*
X164333000Y-49679845D01*
X164587000Y-49679845D01*
X164587000Y-50873000D01*
X164607000Y-50873000D01*
X164607000Y-51127000D01*
X164587000Y-51127000D01*
X164587000Y-52320155D01*
X164816890Y-52441476D01*
X165226924Y-52271645D01*
X165655183Y-51881358D01*
X165722298Y-51738447D01*
X165865000Y-51952016D01*
X165865000Y-53547984D01*
X165722298Y-53761553D01*
X165655183Y-53618642D01*
X165226924Y-53228355D01*
X164816890Y-53058524D01*
X164587000Y-53179845D01*
X164587000Y-54373000D01*
X164607000Y-54373000D01*
X164607000Y-54627000D01*
X164587000Y-54627000D01*
X164587000Y-55820155D01*
X164816890Y-55941476D01*
X165226924Y-55771645D01*
X165655183Y-55381358D01*
X165722298Y-55238447D01*
X165865000Y-55452016D01*
X165865000Y-57047984D01*
X165722298Y-57261553D01*
X165655183Y-57118642D01*
X165226924Y-56728355D01*
X164816890Y-56558524D01*
X164587000Y-56679845D01*
X164587000Y-57873000D01*
X164607000Y-57873000D01*
X164607000Y-58127000D01*
X164587000Y-58127000D01*
X164587000Y-59320155D01*
X164816890Y-59441476D01*
X165226924Y-59271645D01*
X165655183Y-58881358D01*
X165722298Y-58738447D01*
X165865000Y-58952016D01*
X165865000Y-60547984D01*
X165722298Y-60761553D01*
X165655183Y-60618642D01*
X165226924Y-60228355D01*
X164816890Y-60058524D01*
X164587000Y-60179845D01*
X164587000Y-61373000D01*
X164607000Y-61373000D01*
X164607000Y-61627000D01*
X164587000Y-61627000D01*
X164587000Y-62820155D01*
X164816890Y-62941476D01*
X165226924Y-62771645D01*
X165655183Y-62381358D01*
X165722298Y-62238447D01*
X165865000Y-62452016D01*
X165865000Y-64047984D01*
X165722298Y-64261553D01*
X165655183Y-64118642D01*
X165226924Y-63728355D01*
X164816890Y-63558524D01*
X164587000Y-63679845D01*
X164587000Y-64873000D01*
X164607000Y-64873000D01*
X164607000Y-65127000D01*
X164587000Y-65127000D01*
X164587000Y-66320155D01*
X164816890Y-66441476D01*
X165226924Y-66271645D01*
X165655183Y-65881358D01*
X165722298Y-65738447D01*
X165865000Y-65952016D01*
X165865000Y-67547984D01*
X165722298Y-67761553D01*
X165655183Y-67618642D01*
X165226924Y-67228355D01*
X164816890Y-67058524D01*
X164587000Y-67179845D01*
X164587000Y-68373000D01*
X164607000Y-68373000D01*
X164607000Y-68627000D01*
X164587000Y-68627000D01*
X164587000Y-69820155D01*
X164816890Y-69941476D01*
X165226924Y-69771645D01*
X165655183Y-69381358D01*
X165722298Y-69238447D01*
X165865000Y-69452016D01*
X165865000Y-71047984D01*
X165722298Y-71261553D01*
X165655183Y-71118642D01*
X165226924Y-70728355D01*
X164816890Y-70558524D01*
X164587000Y-70679845D01*
X164587000Y-71873000D01*
X164607000Y-71873000D01*
X164607000Y-72127000D01*
X164587000Y-72127000D01*
X164587000Y-73320155D01*
X164816890Y-73441476D01*
X165226924Y-73271645D01*
X165655183Y-72881358D01*
X165722298Y-72738447D01*
X165865000Y-72952016D01*
X165865000Y-74547984D01*
X165722298Y-74761553D01*
X165655183Y-74618642D01*
X165226924Y-74228355D01*
X164816890Y-74058524D01*
X164587000Y-74179845D01*
X164587000Y-75373000D01*
X164607000Y-75373000D01*
X164607000Y-75627000D01*
X164587000Y-75627000D01*
X164587000Y-76820155D01*
X164816890Y-76941476D01*
X165226924Y-76771645D01*
X165655183Y-76381358D01*
X165722298Y-76238447D01*
X165949946Y-76579147D01*
X166256259Y-76783818D01*
X166297852Y-76992920D01*
X166462599Y-77239482D01*
X167260518Y-78037401D01*
X167507080Y-78202148D01*
X167797919Y-78260000D01*
X171250000Y-78260000D01*
X171540839Y-78202148D01*
X171787401Y-78037401D01*
X174537401Y-75287401D01*
X174702148Y-75040840D01*
X174760000Y-74750000D01*
X174760000Y-72064802D01*
X178339052Y-68485750D01*
X190715000Y-68485750D01*
X190715000Y-69076309D01*
X190811673Y-69309698D01*
X190990301Y-69488327D01*
X191223690Y-69585000D01*
X191714250Y-69585000D01*
X191873000Y-69426250D01*
X191873000Y-68327000D01*
X192127000Y-68327000D01*
X192127000Y-69426250D01*
X192285750Y-69585000D01*
X192776310Y-69585000D01*
X193009699Y-69488327D01*
X193188327Y-69309698D01*
X193285000Y-69076309D01*
X193285000Y-68485750D01*
X193126250Y-68327000D01*
X192127000Y-68327000D01*
X191873000Y-68327000D01*
X190873750Y-68327000D01*
X190715000Y-68485750D01*
X178339052Y-68485750D01*
X180564802Y-66260000D01*
X185111080Y-66260000D01*
X185131838Y-66370317D01*
X185270910Y-66586441D01*
X185483110Y-66731431D01*
X185735000Y-66782440D01*
X186705000Y-66782440D01*
X186865690Y-66752204D01*
X187015000Y-66782440D01*
X187985000Y-66782440D01*
X188220317Y-66738162D01*
X188436441Y-66599090D01*
X188573579Y-66398381D01*
X189335997Y-67160799D01*
X189582559Y-67325546D01*
X189873398Y-67383398D01*
X190715000Y-67383398D01*
X190715000Y-67914250D01*
X190873750Y-68073000D01*
X191873000Y-68073000D01*
X191873000Y-68053000D01*
X192127000Y-68053000D01*
X192127000Y-68073000D01*
X193126250Y-68073000D01*
X193285000Y-67914250D01*
X193285000Y-67383398D01*
X193376602Y-67383398D01*
X193667441Y-67325546D01*
X193914003Y-67160799D01*
X195189802Y-65885000D01*
X195291489Y-65885000D01*
X195287599Y-65887599D01*
X194212599Y-66962599D01*
X194047852Y-67209161D01*
X193990000Y-67500000D01*
X193990000Y-69500000D01*
X194047852Y-69790839D01*
X194212599Y-70037401D01*
X194915198Y-70740000D01*
X181000000Y-70740000D01*
X180709161Y-70797852D01*
X180462599Y-70962599D01*
X177462599Y-73962599D01*
X177297852Y-74209161D01*
X177240000Y-74500000D01*
X177240000Y-81500000D01*
X177297852Y-81790839D01*
X177462599Y-82037401D01*
X177740000Y-82314802D01*
X177740000Y-82515000D01*
X177635750Y-82515000D01*
X177477000Y-82673750D01*
X177477000Y-83423000D01*
X177497000Y-83423000D01*
X177497000Y-83677000D01*
X177477000Y-83677000D01*
X177477000Y-83697000D01*
X177223000Y-83697000D01*
X177223000Y-83677000D01*
X177203000Y-83677000D01*
X177203000Y-83423000D01*
X177223000Y-83423000D01*
X177223000Y-82673750D01*
X177064250Y-82515000D01*
X176573691Y-82515000D01*
X176340302Y-82611673D01*
X176208895Y-82743079D01*
X176202148Y-82709161D01*
X176037401Y-82462599D01*
X175537401Y-81962599D01*
X175290839Y-81797852D01*
X175126783Y-81765219D01*
X175103162Y-81639683D01*
X174964090Y-81423559D01*
X174751890Y-81278569D01*
X174500000Y-81227560D01*
X173000000Y-81227560D01*
X172764683Y-81271838D01*
X172548559Y-81410910D01*
X172502031Y-81479006D01*
X172359698Y-81336673D01*
X172126309Y-81240000D01*
X171535750Y-81240000D01*
X171377000Y-81398750D01*
X171377000Y-82373000D01*
X171397000Y-82373000D01*
X171397000Y-82627000D01*
X171377000Y-82627000D01*
X171377000Y-83601250D01*
X171535750Y-83760000D01*
X172126309Y-83760000D01*
X172359698Y-83663327D01*
X172500936Y-83522090D01*
X172535910Y-83576441D01*
X172748110Y-83721431D01*
X173000000Y-83772440D01*
X174500000Y-83772440D01*
X174735317Y-83728162D01*
X174740000Y-83725149D01*
X174740000Y-84338772D01*
X174651890Y-84278569D01*
X174400000Y-84227560D01*
X169600000Y-84227560D01*
X169364683Y-84271838D01*
X169148559Y-84410910D01*
X169003569Y-84623110D01*
X168952560Y-84875000D01*
X168952560Y-86625000D01*
X168996838Y-86860317D01*
X169135910Y-87076441D01*
X169348110Y-87221431D01*
X169600000Y-87272440D01*
X173972638Y-87272440D01*
X174190198Y-87490000D01*
X172285750Y-87490000D01*
X172127000Y-87648750D01*
X172127000Y-88873000D01*
X172147000Y-88873000D01*
X172147000Y-89127000D01*
X172127000Y-89127000D01*
X172127000Y-90351250D01*
X172285750Y-90510000D01*
X174526310Y-90510000D01*
X174759699Y-90413327D01*
X174938327Y-90234698D01*
X174990000Y-90109948D01*
X174990000Y-90470000D01*
X175047852Y-90760839D01*
X175212599Y-91007401D01*
X175695197Y-91490000D01*
X175047440Y-91490000D01*
X175047440Y-91375000D01*
X175003162Y-91139683D01*
X174864090Y-90923559D01*
X174651890Y-90778569D01*
X174400000Y-90727560D01*
X169600000Y-90727560D01*
X169364683Y-90771838D01*
X169148559Y-90910910D01*
X169003569Y-91123110D01*
X168952560Y-91375000D01*
X168952560Y-93125000D01*
X168996838Y-93360317D01*
X169135910Y-93576441D01*
X169348110Y-93721431D01*
X169600000Y-93772440D01*
X174400000Y-93772440D01*
X174635317Y-93728162D01*
X174851441Y-93589090D01*
X174996431Y-93376890D01*
X175047440Y-93125000D01*
X175047440Y-93010000D01*
X176082666Y-93010000D01*
X176096838Y-93085317D01*
X176235910Y-93301441D01*
X176448110Y-93446431D01*
X176700000Y-93497440D01*
X177935898Y-93497440D01*
X177962599Y-93537401D01*
X179962599Y-95537401D01*
X180209161Y-95702148D01*
X180500000Y-95760000D01*
X185685198Y-95760000D01*
X185740000Y-95814802D01*
X185740000Y-95902560D01*
X185450000Y-95902560D01*
X185214683Y-95946838D01*
X184998559Y-96085910D01*
X184853569Y-96298110D01*
X184802560Y-96550000D01*
X184802560Y-98850000D01*
X184846838Y-99085317D01*
X184930191Y-99214851D01*
X184885127Y-99214812D01*
X184486200Y-99379646D01*
X184180718Y-99684595D01*
X184015189Y-100083233D01*
X184014812Y-100514873D01*
X184179646Y-100913800D01*
X184484595Y-101219282D01*
X184883233Y-101384811D01*
X185314873Y-101385188D01*
X185713800Y-101220354D01*
X185940375Y-100994175D01*
X186608602Y-101662402D01*
X186855164Y-101827149D01*
X187146003Y-101885001D01*
X190131026Y-101885001D01*
X190115000Y-101923691D01*
X190115000Y-103014250D01*
X190273750Y-103173000D01*
X191623000Y-103173000D01*
X191623000Y-103153000D01*
X191877000Y-103153000D01*
X191877000Y-103173000D01*
X193226250Y-103173000D01*
X193385000Y-103014250D01*
X193385000Y-101923691D01*
X193288327Y-101690302D01*
X193109699Y-101511673D01*
X192876310Y-101415000D01*
X192659802Y-101415000D01*
X193579981Y-100494821D01*
X196529699Y-100494821D01*
X196435000Y-100970907D01*
X196435000Y-101029093D01*
X196548039Y-101597378D01*
X196869946Y-102079147D01*
X197351715Y-102401054D01*
X197920000Y-102514093D01*
X198488285Y-102401054D01*
X198970054Y-102079147D01*
X199197702Y-101738447D01*
X199264817Y-101881358D01*
X199693076Y-102271645D01*
X200103110Y-102441476D01*
X200333000Y-102320155D01*
X200333000Y-101127000D01*
X200587000Y-101127000D01*
X200587000Y-102320155D01*
X200816890Y-102441476D01*
X201226924Y-102271645D01*
X201655183Y-101881358D01*
X201730000Y-101722046D01*
X201804817Y-101881358D01*
X202233076Y-102271645D01*
X202643110Y-102441476D01*
X202873000Y-102320155D01*
X202873000Y-101127000D01*
X203127000Y-101127000D01*
X203127000Y-102320155D01*
X203356890Y-102441476D01*
X203766924Y-102271645D01*
X204195183Y-101881358D01*
X204270000Y-101722046D01*
X204344817Y-101881358D01*
X204773076Y-102271645D01*
X205183110Y-102441476D01*
X205413000Y-102320155D01*
X205413000Y-101127000D01*
X203127000Y-101127000D01*
X202873000Y-101127000D01*
X200587000Y-101127000D01*
X200333000Y-101127000D01*
X200313000Y-101127000D01*
X200313000Y-100873000D01*
X200333000Y-100873000D01*
X200333000Y-100853000D01*
X200587000Y-100853000D01*
X200587000Y-100873000D01*
X202873000Y-100873000D01*
X202873000Y-100853000D01*
X203127000Y-100853000D01*
X203127000Y-100873000D01*
X205413000Y-100873000D01*
X205413000Y-100853000D01*
X205667000Y-100853000D01*
X205667000Y-100873000D01*
X205687000Y-100873000D01*
X205687000Y-101127000D01*
X205667000Y-101127000D01*
X205667000Y-102320155D01*
X205896890Y-102441476D01*
X206252088Y-102294357D01*
X206317598Y-102392400D01*
X206962599Y-103037401D01*
X207209161Y-103202148D01*
X207500000Y-103260000D01*
X209654654Y-103260000D01*
X209945493Y-103202148D01*
X210192055Y-103037401D01*
X210443706Y-102785750D01*
X216515000Y-102785750D01*
X216515000Y-103376310D01*
X216611673Y-103609699D01*
X216790302Y-103788327D01*
X217023691Y-103885000D01*
X217864250Y-103885000D01*
X218023000Y-103726250D01*
X218023000Y-102627000D01*
X218277000Y-102627000D01*
X218277000Y-103726250D01*
X218435750Y-103885000D01*
X219276309Y-103885000D01*
X219509698Y-103788327D01*
X219688327Y-103609699D01*
X219785000Y-103376310D01*
X219785000Y-102785750D01*
X219626250Y-102627000D01*
X218277000Y-102627000D01*
X218023000Y-102627000D01*
X216673750Y-102627000D01*
X216515000Y-102785750D01*
X210443706Y-102785750D01*
X210559444Y-102670012D01*
X210598110Y-102696431D01*
X210850000Y-102747440D01*
X212850000Y-102747440D01*
X213085317Y-102703162D01*
X213301441Y-102564090D01*
X213446431Y-102351890D01*
X213497440Y-102100000D01*
X213497440Y-98300000D01*
X213453162Y-98064683D01*
X213314090Y-97848559D01*
X213101890Y-97703569D01*
X212850000Y-97652560D01*
X212260000Y-97652560D01*
X212260000Y-94872440D01*
X212300000Y-94872440D01*
X212535317Y-94828162D01*
X212751441Y-94689090D01*
X212797969Y-94620994D01*
X212940302Y-94763327D01*
X213173691Y-94860000D01*
X213764250Y-94860000D01*
X213923000Y-94701250D01*
X213923000Y-93727000D01*
X213903000Y-93727000D01*
X213903000Y-93473000D01*
X213923000Y-93473000D01*
X213923000Y-92498750D01*
X213764250Y-92340000D01*
X213173691Y-92340000D01*
X212940302Y-92436673D01*
X212799064Y-92577910D01*
X212764090Y-92523559D01*
X212551890Y-92378569D01*
X212300000Y-92327560D01*
X212260000Y-92327560D01*
X212260000Y-92085000D01*
X212564250Y-92085000D01*
X212723000Y-91926250D01*
X212723000Y-90927000D01*
X212977000Y-90927000D01*
X212977000Y-91926250D01*
X213135750Y-92085000D01*
X213726309Y-92085000D01*
X213959698Y-91988327D01*
X214138327Y-91809699D01*
X214235000Y-91576310D01*
X214235000Y-91085750D01*
X214076250Y-90927000D01*
X212977000Y-90927000D01*
X212723000Y-90927000D01*
X212703000Y-90927000D01*
X212703000Y-90673000D01*
X212723000Y-90673000D01*
X212723000Y-90653000D01*
X212977000Y-90653000D01*
X212977000Y-90673000D01*
X214076250Y-90673000D01*
X214235000Y-90514250D01*
X214235000Y-90023690D01*
X214138327Y-89790301D01*
X213959698Y-89611673D01*
X213891190Y-89583296D01*
X214076441Y-89464090D01*
X214221431Y-89251890D01*
X214272440Y-89000000D01*
X214272440Y-87760000D01*
X214994960Y-87760000D01*
X214932583Y-87822268D01*
X214774682Y-88202537D01*
X214774323Y-88614285D01*
X214931560Y-88994829D01*
X215049502Y-89112977D01*
X215049502Y-92391028D01*
X214926309Y-92340000D01*
X214335750Y-92340000D01*
X214177000Y-92498750D01*
X214177000Y-93473000D01*
X214197000Y-93473000D01*
X214197000Y-93727000D01*
X214177000Y-93727000D01*
X214177000Y-94701250D01*
X214335750Y-94860000D01*
X214926309Y-94860000D01*
X215095348Y-94789982D01*
X215107354Y-94850341D01*
X215272101Y-95096903D01*
X216797464Y-96622266D01*
X216698559Y-96685910D01*
X216553569Y-96898110D01*
X216502560Y-97150000D01*
X216502560Y-98650000D01*
X216546838Y-98885317D01*
X216653759Y-99051477D01*
X216553569Y-99198110D01*
X216502560Y-99450000D01*
X216502560Y-100950000D01*
X216546838Y-101185317D01*
X216652482Y-101349492D01*
X216611673Y-101390301D01*
X216515000Y-101623690D01*
X216515000Y-102214250D01*
X216673750Y-102373000D01*
X218023000Y-102373000D01*
X218023000Y-102353000D01*
X218277000Y-102353000D01*
X218277000Y-102373000D01*
X219626250Y-102373000D01*
X219785000Y-102214250D01*
X219785000Y-101623690D01*
X219782421Y-101617463D01*
X219909161Y-101702148D01*
X220200000Y-101760000D01*
X223735002Y-101760000D01*
X224025841Y-101702148D01*
X224272403Y-101537401D01*
X226537401Y-99272403D01*
X226702148Y-99025841D01*
X226760000Y-98735002D01*
X226760000Y-95883301D01*
X227079147Y-95670054D01*
X227268345Y-95386899D01*
X227268355Y-95386924D01*
X227658642Y-95815183D01*
X228183108Y-96061486D01*
X228413000Y-95940819D01*
X228413000Y-94747000D01*
X228667000Y-94747000D01*
X228667000Y-95940819D01*
X228896892Y-96061486D01*
X229421358Y-95815183D01*
X229811645Y-95386924D01*
X229981476Y-94976890D01*
X229860155Y-94747000D01*
X228667000Y-94747000D01*
X228413000Y-94747000D01*
X228393000Y-94747000D01*
X228393000Y-94493000D01*
X228413000Y-94493000D01*
X228413000Y-92207000D01*
X228667000Y-92207000D01*
X228667000Y-94493000D01*
X229860155Y-94493000D01*
X229981476Y-94263110D01*
X229811645Y-93853076D01*
X229421358Y-93424817D01*
X229262046Y-93350000D01*
X229421358Y-93275183D01*
X229811645Y-92846924D01*
X229981476Y-92436890D01*
X229860155Y-92207000D01*
X228667000Y-92207000D01*
X228413000Y-92207000D01*
X228393000Y-92207000D01*
X228393000Y-91953000D01*
X228413000Y-91953000D01*
X228413000Y-89667000D01*
X228667000Y-89667000D01*
X228667000Y-91953000D01*
X229860155Y-91953000D01*
X229981476Y-91723110D01*
X229811645Y-91313076D01*
X229421358Y-90884817D01*
X229262046Y-90810000D01*
X229421358Y-90735183D01*
X229811645Y-90306924D01*
X229981476Y-89896890D01*
X229860155Y-89667000D01*
X228667000Y-89667000D01*
X228413000Y-89667000D01*
X228393000Y-89667000D01*
X228393000Y-89413000D01*
X228413000Y-89413000D01*
X228413000Y-87127000D01*
X228667000Y-87127000D01*
X228667000Y-89413000D01*
X229860155Y-89413000D01*
X229981476Y-89183110D01*
X229811645Y-88773076D01*
X229421358Y-88344817D01*
X229262046Y-88270000D01*
X229421358Y-88195183D01*
X229811645Y-87766924D01*
X229981476Y-87356890D01*
X229860155Y-87127000D01*
X228667000Y-87127000D01*
X228413000Y-87127000D01*
X228393000Y-87127000D01*
X228393000Y-86873000D01*
X228413000Y-86873000D01*
X228413000Y-86853000D01*
X228667000Y-86853000D01*
X228667000Y-86873000D01*
X229860155Y-86873000D01*
X229981476Y-86643110D01*
X229822797Y-86260000D01*
X231600000Y-86260000D01*
X231890839Y-86202148D01*
X232137401Y-86037401D01*
X233299790Y-84875012D01*
X233350000Y-84885000D01*
X233952560Y-84885000D01*
X233952560Y-84900000D01*
X233996838Y-85135317D01*
X234135910Y-85351441D01*
X234348110Y-85496431D01*
X234600000Y-85547440D01*
X236200000Y-85547440D01*
X236435317Y-85503162D01*
X236651441Y-85364090D01*
X236796431Y-85151890D01*
X236847440Y-84900000D01*
X236847440Y-82600000D01*
X236803162Y-82364683D01*
X236664090Y-82148559D01*
X236451890Y-82003569D01*
X236200000Y-81952560D01*
X234600000Y-81952560D01*
X234364683Y-81996838D01*
X234148559Y-82135910D01*
X234003569Y-82348110D01*
X233952560Y-82600000D01*
X233952560Y-82615000D01*
X233820132Y-82615000D01*
X233785001Y-82579869D01*
X233785001Y-79335750D01*
X233965000Y-79335750D01*
X233965000Y-80326309D01*
X234061673Y-80559698D01*
X234240301Y-80738327D01*
X234473690Y-80835000D01*
X235114250Y-80835000D01*
X235273000Y-80676250D01*
X235273000Y-79177000D01*
X235527000Y-79177000D01*
X235527000Y-80676250D01*
X235685750Y-80835000D01*
X236326310Y-80835000D01*
X236559699Y-80738327D01*
X236738327Y-80559698D01*
X236835000Y-80326309D01*
X236835000Y-79335750D01*
X236676250Y-79177000D01*
X235527000Y-79177000D01*
X235273000Y-79177000D01*
X234123750Y-79177000D01*
X233965000Y-79335750D01*
X233785001Y-79335750D01*
X233785001Y-77457403D01*
X234068285Y-77401054D01*
X234550054Y-77079147D01*
X234777702Y-76738447D01*
X234844817Y-76881358D01*
X235272998Y-77271574D01*
X235272998Y-77423748D01*
X235114250Y-77265000D01*
X234473690Y-77265000D01*
X234240301Y-77361673D01*
X234061673Y-77540302D01*
X233965000Y-77773691D01*
X233965000Y-78764250D01*
X234123750Y-78923000D01*
X235273000Y-78923000D01*
X235273000Y-78903000D01*
X235527000Y-78903000D01*
X235527000Y-78923000D01*
X236676250Y-78923000D01*
X236835000Y-78764250D01*
X236835000Y-77773691D01*
X236738327Y-77540302D01*
X236568446Y-77370420D01*
X236806924Y-77271645D01*
X237235183Y-76881358D01*
X237481486Y-76356892D01*
X237360819Y-76127000D01*
X236167000Y-76127000D01*
X236167000Y-76147000D01*
X235913000Y-76147000D01*
X235913000Y-76127000D01*
X235893000Y-76127000D01*
X235893000Y-75873000D01*
X235913000Y-75873000D01*
X235913000Y-74679845D01*
X236167000Y-74679845D01*
X236167000Y-75873000D01*
X237360819Y-75873000D01*
X237481486Y-75643108D01*
X237235183Y-75118642D01*
X236806924Y-74728355D01*
X236396890Y-74558524D01*
X236167000Y-74679845D01*
X235913000Y-74679845D01*
X235683110Y-74558524D01*
X235273076Y-74728355D01*
X234844817Y-75118642D01*
X234777702Y-75261553D01*
X234635000Y-75047984D01*
X234635000Y-73452016D01*
X234777702Y-73238447D01*
X234844817Y-73381358D01*
X235273076Y-73771645D01*
X235683110Y-73941476D01*
X235913000Y-73820155D01*
X235913000Y-72627000D01*
X236167000Y-72627000D01*
X236167000Y-73820155D01*
X236396890Y-73941476D01*
X236806924Y-73771645D01*
X237235183Y-73381358D01*
X237481486Y-72856892D01*
X237360819Y-72627000D01*
X236167000Y-72627000D01*
X235913000Y-72627000D01*
X235893000Y-72627000D01*
X235893000Y-72373000D01*
X235913000Y-72373000D01*
X235913000Y-71179845D01*
X236167000Y-71179845D01*
X236167000Y-72373000D01*
X237360819Y-72373000D01*
X237481486Y-72143108D01*
X237235183Y-71618642D01*
X236806924Y-71228355D01*
X236396890Y-71058524D01*
X236167000Y-71179845D01*
X235913000Y-71179845D01*
X235683110Y-71058524D01*
X235273076Y-71228355D01*
X234844817Y-71618642D01*
X234777702Y-71761553D01*
X234635000Y-71547984D01*
X234635000Y-69952016D01*
X234777702Y-69738447D01*
X234844817Y-69881358D01*
X235273076Y-70271645D01*
X235683110Y-70441476D01*
X235913000Y-70320155D01*
X235913000Y-69127000D01*
X236167000Y-69127000D01*
X236167000Y-70320155D01*
X236396890Y-70441476D01*
X236806924Y-70271645D01*
X237235183Y-69881358D01*
X237481486Y-69356892D01*
X237360819Y-69127000D01*
X236167000Y-69127000D01*
X235913000Y-69127000D01*
X235893000Y-69127000D01*
X235893000Y-68873000D01*
X235913000Y-68873000D01*
X235913000Y-67679845D01*
X236167000Y-67679845D01*
X236167000Y-68873000D01*
X237360819Y-68873000D01*
X237481486Y-68643108D01*
X237235183Y-68118642D01*
X236806924Y-67728355D01*
X236396890Y-67558524D01*
X236167000Y-67679845D01*
X235913000Y-67679845D01*
X235683110Y-67558524D01*
X235273076Y-67728355D01*
X234844817Y-68118642D01*
X234777702Y-68261553D01*
X234635000Y-68047984D01*
X234635000Y-66452016D01*
X234777702Y-66238447D01*
X234844817Y-66381358D01*
X235273076Y-66771645D01*
X235683110Y-66941476D01*
X235913000Y-66820155D01*
X235913000Y-65627000D01*
X236167000Y-65627000D01*
X236167000Y-66820155D01*
X236396890Y-66941476D01*
X236806924Y-66771645D01*
X237235183Y-66381358D01*
X237481486Y-65856892D01*
X237360819Y-65627000D01*
X236167000Y-65627000D01*
X235913000Y-65627000D01*
X235893000Y-65627000D01*
X235893000Y-65373000D01*
X235913000Y-65373000D01*
X235913000Y-64179845D01*
X236167000Y-64179845D01*
X236167000Y-65373000D01*
X237360819Y-65373000D01*
X237481486Y-65143108D01*
X237235183Y-64618642D01*
X236806924Y-64228355D01*
X236396890Y-64058524D01*
X236167000Y-64179845D01*
X235913000Y-64179845D01*
X235683110Y-64058524D01*
X235273076Y-64228355D01*
X234844817Y-64618642D01*
X234777702Y-64761553D01*
X234635000Y-64547984D01*
X234635000Y-62952016D01*
X234777702Y-62738447D01*
X234844817Y-62881358D01*
X235273076Y-63271645D01*
X235683110Y-63441476D01*
X235913000Y-63320155D01*
X235913000Y-62127000D01*
X236167000Y-62127000D01*
X236167000Y-63320155D01*
X236396890Y-63441476D01*
X236806924Y-63271645D01*
X237235183Y-62881358D01*
X237481486Y-62356892D01*
X237360819Y-62127000D01*
X236167000Y-62127000D01*
X235913000Y-62127000D01*
X235893000Y-62127000D01*
X235893000Y-61873000D01*
X235913000Y-61873000D01*
X235913000Y-60679845D01*
X236167000Y-60679845D01*
X236167000Y-61873000D01*
X237360819Y-61873000D01*
X237481486Y-61643108D01*
X237235183Y-61118642D01*
X236806924Y-60728355D01*
X236396890Y-60558524D01*
X236167000Y-60679845D01*
X235913000Y-60679845D01*
X235683110Y-60558524D01*
X235273076Y-60728355D01*
X234844817Y-61118642D01*
X234777702Y-61261553D01*
X234635000Y-61047984D01*
X234635000Y-59452016D01*
X234777702Y-59238447D01*
X234844817Y-59381358D01*
X235273076Y-59771645D01*
X235683110Y-59941476D01*
X235913000Y-59820155D01*
X235913000Y-58627000D01*
X236167000Y-58627000D01*
X236167000Y-59820155D01*
X236396890Y-59941476D01*
X236806924Y-59771645D01*
X237235183Y-59381358D01*
X237481486Y-58856892D01*
X237360819Y-58627000D01*
X236167000Y-58627000D01*
X235913000Y-58627000D01*
X235893000Y-58627000D01*
X235893000Y-58373000D01*
X235913000Y-58373000D01*
X235913000Y-57179845D01*
X236167000Y-57179845D01*
X236167000Y-58373000D01*
X237360819Y-58373000D01*
X237481486Y-58143108D01*
X237235183Y-57618642D01*
X236806924Y-57228355D01*
X236396890Y-57058524D01*
X236167000Y-57179845D01*
X235913000Y-57179845D01*
X235683110Y-57058524D01*
X235273076Y-57228355D01*
X234844817Y-57618642D01*
X234777702Y-57761553D01*
X234635000Y-57547984D01*
X234635000Y-55952016D01*
X234777702Y-55738447D01*
X234844817Y-55881358D01*
X235273076Y-56271645D01*
X235683110Y-56441476D01*
X235913000Y-56320155D01*
X235913000Y-55127000D01*
X236167000Y-55127000D01*
X236167000Y-56320155D01*
X236396890Y-56441476D01*
X236806924Y-56271645D01*
X237235183Y-55881358D01*
X237481486Y-55356892D01*
X237360819Y-55127000D01*
X236167000Y-55127000D01*
X235913000Y-55127000D01*
X235893000Y-55127000D01*
X235893000Y-54873000D01*
X235913000Y-54873000D01*
X235913000Y-53679845D01*
X236167000Y-53679845D01*
X236167000Y-54873000D01*
X237360819Y-54873000D01*
X237481486Y-54643108D01*
X237235183Y-54118642D01*
X236806924Y-53728355D01*
X236396890Y-53558524D01*
X236167000Y-53679845D01*
X235913000Y-53679845D01*
X235683110Y-53558524D01*
X235273076Y-53728355D01*
X234844817Y-54118642D01*
X234777702Y-54261553D01*
X234635000Y-54047984D01*
X234635000Y-52452016D01*
X234777702Y-52238447D01*
X234844817Y-52381358D01*
X235273076Y-52771645D01*
X235683110Y-52941476D01*
X235913000Y-52820155D01*
X235913000Y-51627000D01*
X236167000Y-51627000D01*
X236167000Y-52820155D01*
X236396890Y-52941476D01*
X236806924Y-52771645D01*
X237235183Y-52381358D01*
X237481486Y-51856892D01*
X237360819Y-51627000D01*
X236167000Y-51627000D01*
X235913000Y-51627000D01*
X235893000Y-51627000D01*
X235893000Y-51373000D01*
X235913000Y-51373000D01*
X235913000Y-50179845D01*
X236167000Y-50179845D01*
X236167000Y-51373000D01*
X237360819Y-51373000D01*
X237481486Y-51143108D01*
X237235183Y-50618642D01*
X236806924Y-50228355D01*
X236396890Y-50058524D01*
X236167000Y-50179845D01*
X235913000Y-50179845D01*
X235683110Y-50058524D01*
X235273076Y-50228355D01*
X234844817Y-50618642D01*
X234777702Y-50761553D01*
X234635000Y-50547984D01*
X234635000Y-49650000D01*
X234621246Y-49580853D01*
X234548604Y-49215655D01*
X234302567Y-48847434D01*
X233452566Y-47997434D01*
X233301404Y-47896431D01*
X233084346Y-47751397D01*
X232650000Y-47665000D01*
X229303448Y-47665000D01*
X230291623Y-46678549D01*
X230884324Y-45251165D01*
X230885673Y-43705616D01*
X230295463Y-42277199D01*
X229203549Y-41183377D01*
X228765222Y-41001368D01*
X229176896Y-40834311D01*
X229224342Y-40802608D01*
X229597373Y-40301978D01*
X227000000Y-37704605D01*
X224402627Y-40301978D01*
X224775658Y-40802608D01*
X225239721Y-40998757D01*
X224802199Y-41179537D01*
X223708377Y-42271451D01*
X223115676Y-43698835D01*
X223114327Y-45244384D01*
X223704537Y-46672801D01*
X223896401Y-46865000D01*
X223470132Y-46865000D01*
X219135000Y-42529868D01*
X219135000Y-38269772D01*
X223109534Y-38269772D01*
X223690689Y-39701896D01*
X223722392Y-39749342D01*
X224223022Y-40122373D01*
X226820395Y-37525000D01*
X227179605Y-37525000D01*
X229776978Y-40122373D01*
X230277608Y-39749342D01*
X230879333Y-38325738D01*
X230890466Y-36780228D01*
X230309311Y-35348104D01*
X230277608Y-35300658D01*
X229776978Y-34927627D01*
X227179605Y-37525000D01*
X226820395Y-37525000D01*
X224223022Y-34927627D01*
X223722392Y-35300658D01*
X223120667Y-36724262D01*
X223109534Y-38269772D01*
X219135000Y-38269772D01*
X219135000Y-34748022D01*
X224402627Y-34748022D01*
X227000000Y-37345395D01*
X229597373Y-34748022D01*
X229224342Y-34247392D01*
X227800738Y-33645667D01*
X226255228Y-33634534D01*
X224823104Y-34215689D01*
X224775658Y-34247392D01*
X224402627Y-34748022D01*
X219135000Y-34748022D01*
X219135000Y-31285750D01*
X222615000Y-31285750D01*
X222615000Y-32876310D01*
X222711673Y-33109699D01*
X222890302Y-33288327D01*
X223123691Y-33385000D01*
X224714250Y-33385000D01*
X224873000Y-33226250D01*
X224873000Y-31127000D01*
X225127000Y-31127000D01*
X225127000Y-33226250D01*
X225285750Y-33385000D01*
X226876309Y-33385000D01*
X227109698Y-33288327D01*
X227288327Y-33109699D01*
X227385000Y-32876310D01*
X227385000Y-31285750D01*
X227226250Y-31127000D01*
X225127000Y-31127000D01*
X224873000Y-31127000D01*
X222773750Y-31127000D01*
X222615000Y-31285750D01*
X219135000Y-31285750D01*
X219135000Y-29123690D01*
X222615000Y-29123690D01*
X222615000Y-30714250D01*
X222773750Y-30873000D01*
X224873000Y-30873000D01*
X224873000Y-28773750D01*
X225127000Y-28773750D01*
X225127000Y-30873000D01*
X227226250Y-30873000D01*
X227385000Y-30714250D01*
X227385000Y-29123690D01*
X227288327Y-28890301D01*
X227109698Y-28711673D01*
X226876309Y-28615000D01*
X225285750Y-28615000D01*
X225127000Y-28773750D01*
X224873000Y-28773750D01*
X224714250Y-28615000D01*
X223123691Y-28615000D01*
X222890302Y-28711673D01*
X222711673Y-28890301D01*
X222615000Y-29123690D01*
X219135000Y-29123690D01*
X219135000Y-28147440D01*
X219500000Y-28147440D01*
X219735317Y-28103162D01*
X219951441Y-27964090D01*
X220096431Y-27751890D01*
X220147440Y-27500000D01*
X220147440Y-24500000D01*
X220103162Y-24264683D01*
X219964090Y-24048559D01*
X219751890Y-23903569D01*
X219500000Y-23852560D01*
X216500000Y-23852560D01*
X216264683Y-23896838D01*
X216048559Y-24035910D01*
X215903569Y-24248110D01*
X215852560Y-24500000D01*
X215852560Y-27500000D01*
X215896838Y-27735317D01*
X216035910Y-27951441D01*
X216248110Y-28096431D01*
X216500000Y-28147440D01*
X216865000Y-28147440D01*
X216865000Y-42529868D01*
X213897433Y-45497435D01*
X213651396Y-45865655D01*
X213564999Y-46300001D01*
X213564999Y-46658619D01*
X213261715Y-46718946D01*
X212863536Y-46985000D01*
X212256464Y-46985000D01*
X211858285Y-46718946D01*
X211290000Y-46605907D01*
X210721715Y-46718946D01*
X210239946Y-47040853D01*
X210012298Y-47381553D01*
X209945183Y-47238642D01*
X209516924Y-46848355D01*
X209106890Y-46678524D01*
X208877000Y-46799845D01*
X208877000Y-47993000D01*
X208897000Y-47993000D01*
X208897000Y-48247000D01*
X208877000Y-48247000D01*
X208877000Y-49440155D01*
X209106890Y-49561476D01*
X209516924Y-49391645D01*
X209945183Y-49001358D01*
X210012298Y-48858447D01*
X210239946Y-49199147D01*
X210721715Y-49521054D01*
X211290000Y-49634093D01*
X211858285Y-49521054D01*
X212256464Y-49255000D01*
X212863536Y-49255000D01*
X213261715Y-49521054D01*
X213830000Y-49634093D01*
X214398285Y-49521054D01*
X214880054Y-49199147D01*
X215201961Y-48717378D01*
X215287429Y-48287703D01*
X215502565Y-48072567D01*
X215661803Y-47834250D01*
X215748602Y-47704347D01*
X215834999Y-47270001D01*
X215834999Y-46770133D01*
X218000000Y-44605132D01*
X222197434Y-48802566D01*
X222565654Y-49048603D01*
X222640336Y-49063458D01*
X222602560Y-49250000D01*
X222602560Y-52750000D01*
X222624199Y-52865000D01*
X181135000Y-52865000D01*
X181135000Y-49810000D01*
X192012560Y-49810000D01*
X192012560Y-51510000D01*
X192056838Y-51745317D01*
X192195910Y-51961441D01*
X192408110Y-52106431D01*
X192660000Y-52157440D01*
X194360000Y-52157440D01*
X194595317Y-52113162D01*
X194811441Y-51974090D01*
X194956431Y-51761890D01*
X194978301Y-51653893D01*
X195283076Y-51931645D01*
X195693110Y-52101476D01*
X195923000Y-51980155D01*
X195923000Y-50787000D01*
X196177000Y-50787000D01*
X196177000Y-51980155D01*
X196406890Y-52101476D01*
X196816924Y-51931645D01*
X197245183Y-51541358D01*
X197320000Y-51382046D01*
X197394817Y-51541358D01*
X197823076Y-51931645D01*
X198233110Y-52101476D01*
X198463000Y-51980155D01*
X198463000Y-50787000D01*
X196177000Y-50787000D01*
X195923000Y-50787000D01*
X195903000Y-50787000D01*
X195903000Y-50533000D01*
X195923000Y-50533000D01*
X195923000Y-49339845D01*
X196177000Y-49339845D01*
X196177000Y-50533000D01*
X198463000Y-50533000D01*
X198463000Y-49339845D01*
X198717000Y-49339845D01*
X198717000Y-50533000D01*
X198737000Y-50533000D01*
X198737000Y-50787000D01*
X198717000Y-50787000D01*
X198717000Y-51980155D01*
X198946890Y-52101476D01*
X199356924Y-51931645D01*
X199785183Y-51541358D01*
X199852298Y-51398447D01*
X200079946Y-51739147D01*
X200561715Y-52061054D01*
X201130000Y-52174093D01*
X201698285Y-52061054D01*
X202180054Y-51739147D01*
X202400000Y-51409974D01*
X202619946Y-51739147D01*
X203101715Y-52061054D01*
X203670000Y-52174093D01*
X204238285Y-52061054D01*
X204720054Y-51739147D01*
X205041961Y-51257378D01*
X205155000Y-50689093D01*
X205155000Y-50630907D01*
X205041961Y-50062622D01*
X204720054Y-49580853D01*
X204238285Y-49258946D01*
X203670000Y-49145907D01*
X203101715Y-49258946D01*
X202619946Y-49580853D01*
X202400000Y-49910026D01*
X202180054Y-49580853D01*
X201698285Y-49258946D01*
X201130000Y-49145907D01*
X200561715Y-49258946D01*
X200079946Y-49580853D01*
X199852298Y-49921553D01*
X199785183Y-49778642D01*
X199356924Y-49388355D01*
X198946890Y-49218524D01*
X198717000Y-49339845D01*
X198463000Y-49339845D01*
X198233110Y-49218524D01*
X197823076Y-49388355D01*
X197394817Y-49778642D01*
X197320000Y-49937954D01*
X197245183Y-49778642D01*
X196816924Y-49388355D01*
X196406890Y-49218524D01*
X196177000Y-49339845D01*
X195923000Y-49339845D01*
X195693110Y-49218524D01*
X195283076Y-49388355D01*
X194980063Y-49664501D01*
X194963162Y-49574683D01*
X194824090Y-49358559D01*
X194611890Y-49213569D01*
X194360000Y-49162560D01*
X192660000Y-49162560D01*
X192424683Y-49206838D01*
X192208559Y-49345910D01*
X192063569Y-49558110D01*
X192012560Y-49810000D01*
X181135000Y-49810000D01*
X181135000Y-49255000D01*
X181928808Y-49255000D01*
X182035910Y-49421441D01*
X182248110Y-49566431D01*
X182500000Y-49617440D01*
X184200000Y-49617440D01*
X184435317Y-49573162D01*
X184651441Y-49434090D01*
X184773808Y-49255000D01*
X184923536Y-49255000D01*
X185321715Y-49521054D01*
X185890000Y-49634093D01*
X186458285Y-49521054D01*
X186940054Y-49199147D01*
X187167702Y-48858447D01*
X187234817Y-49001358D01*
X187663076Y-49391645D01*
X188073110Y-49561476D01*
X188303000Y-49440155D01*
X188303000Y-48247000D01*
X188557000Y-48247000D01*
X188557000Y-49440155D01*
X188786890Y-49561476D01*
X189196924Y-49391645D01*
X189625183Y-49001358D01*
X189700000Y-48842046D01*
X189774817Y-49001358D01*
X190203076Y-49391645D01*
X190613110Y-49561476D01*
X190843000Y-49440155D01*
X190843000Y-48247000D01*
X191097000Y-48247000D01*
X191097000Y-49440155D01*
X191326890Y-49561476D01*
X191736924Y-49391645D01*
X192165183Y-49001358D01*
X192411486Y-48476892D01*
X192374145Y-48405750D01*
X204725000Y-48405750D01*
X204725000Y-49096309D01*
X204821673Y-49329698D01*
X205000301Y-49508327D01*
X205233690Y-49605000D01*
X205924250Y-49605000D01*
X206083000Y-49446250D01*
X206083000Y-48247000D01*
X206337000Y-48247000D01*
X206337000Y-49446250D01*
X206495750Y-49605000D01*
X207186310Y-49605000D01*
X207419699Y-49508327D01*
X207598327Y-49329698D01*
X207685136Y-49120122D01*
X207983076Y-49391645D01*
X208393110Y-49561476D01*
X208623000Y-49440155D01*
X208623000Y-48247000D01*
X206337000Y-48247000D01*
X206083000Y-48247000D01*
X204883750Y-48247000D01*
X204725000Y-48405750D01*
X192374145Y-48405750D01*
X192290819Y-48247000D01*
X191097000Y-48247000D01*
X190843000Y-48247000D01*
X188557000Y-48247000D01*
X188303000Y-48247000D01*
X188283000Y-48247000D01*
X188283000Y-47993000D01*
X188303000Y-47993000D01*
X188303000Y-46799845D01*
X188557000Y-46799845D01*
X188557000Y-47993000D01*
X190843000Y-47993000D01*
X190843000Y-46799845D01*
X191097000Y-46799845D01*
X191097000Y-47993000D01*
X192290819Y-47993000D01*
X192411486Y-47763108D01*
X192165183Y-47238642D01*
X192060994Y-47143691D01*
X204725000Y-47143691D01*
X204725000Y-47834250D01*
X204883750Y-47993000D01*
X206083000Y-47993000D01*
X206083000Y-46793750D01*
X206337000Y-46793750D01*
X206337000Y-47993000D01*
X208623000Y-47993000D01*
X208623000Y-46799845D01*
X208393110Y-46678524D01*
X207983076Y-46848355D01*
X207685136Y-47119878D01*
X207598327Y-46910302D01*
X207419699Y-46731673D01*
X207186310Y-46635000D01*
X206495750Y-46635000D01*
X206337000Y-46793750D01*
X206083000Y-46793750D01*
X205924250Y-46635000D01*
X205233690Y-46635000D01*
X205000301Y-46731673D01*
X204821673Y-46910302D01*
X204725000Y-47143691D01*
X192060994Y-47143691D01*
X191736924Y-46848355D01*
X191326890Y-46678524D01*
X191097000Y-46799845D01*
X190843000Y-46799845D01*
X190613110Y-46678524D01*
X190203076Y-46848355D01*
X189774817Y-47238642D01*
X189700000Y-47397954D01*
X189625183Y-47238642D01*
X189196924Y-46848355D01*
X188786890Y-46678524D01*
X188557000Y-46799845D01*
X188303000Y-46799845D01*
X188073110Y-46678524D01*
X187663076Y-46848355D01*
X187234817Y-47238642D01*
X187167702Y-47381553D01*
X186940054Y-47040853D01*
X186458285Y-46718946D01*
X185890000Y-46605907D01*
X185321715Y-46718946D01*
X184923536Y-46985000D01*
X184771192Y-46985000D01*
X184664090Y-46818559D01*
X184451890Y-46673569D01*
X184200000Y-46622560D01*
X182500000Y-46622560D01*
X182264683Y-46666838D01*
X182048559Y-46805910D01*
X181926192Y-46985000D01*
X175130000Y-46985000D01*
X174695654Y-47071397D01*
X174353526Y-47300000D01*
X174327434Y-47317434D01*
X174279868Y-47365000D01*
X169634277Y-47365000D01*
X169647440Y-47300000D01*
X169647440Y-45700000D01*
X169603162Y-45464683D01*
X169464090Y-45248559D01*
X169251890Y-45103569D01*
X169000000Y-45052560D01*
X166700000Y-45052560D01*
X166464683Y-45096838D01*
X166248559Y-45235910D01*
X166103569Y-45448110D01*
X166052560Y-45700000D01*
X166052560Y-47300000D01*
X166096838Y-47535317D01*
X166235910Y-47751441D01*
X166448110Y-47896431D01*
X166700000Y-47947440D01*
X166715000Y-47947440D01*
X166715000Y-48179867D01*
X166197434Y-48697434D01*
X165951397Y-49065654D01*
X165865000Y-49500000D01*
X165865000Y-50047984D01*
X165722298Y-50261553D01*
X165655183Y-50118642D01*
X165226924Y-49728355D01*
X164816890Y-49558524D01*
X164587000Y-49679845D01*
X164333000Y-49679845D01*
X164103110Y-49558524D01*
X163693076Y-49728355D01*
X163264817Y-50118642D01*
X163018514Y-50643108D01*
X158239480Y-50643108D01*
X160392426Y-46785750D01*
X161365000Y-46785750D01*
X161365000Y-47426310D01*
X161461673Y-47659699D01*
X161640302Y-47838327D01*
X161873691Y-47935000D01*
X162864250Y-47935000D01*
X163023000Y-47776250D01*
X163023000Y-46627000D01*
X163277000Y-46627000D01*
X163277000Y-47776250D01*
X163435750Y-47935000D01*
X164426309Y-47935000D01*
X164659698Y-47838327D01*
X164838327Y-47659699D01*
X164935000Y-47426310D01*
X164935000Y-46785750D01*
X164776250Y-46627000D01*
X163277000Y-46627000D01*
X163023000Y-46627000D01*
X161523750Y-46627000D01*
X161365000Y-46785750D01*
X160392426Y-46785750D01*
X161068924Y-45573690D01*
X161365000Y-45573690D01*
X161365000Y-46214250D01*
X161523750Y-46373000D01*
X163023000Y-46373000D01*
X163023000Y-45223750D01*
X163277000Y-45223750D01*
X163277000Y-46373000D01*
X164776250Y-46373000D01*
X164935000Y-46214250D01*
X164935000Y-45573690D01*
X164838327Y-45340301D01*
X164659698Y-45161673D01*
X164426309Y-45065000D01*
X163435750Y-45065000D01*
X163277000Y-45223750D01*
X163023000Y-45223750D01*
X162864250Y-45065000D01*
X161873691Y-45065000D01*
X161640302Y-45161673D01*
X161461673Y-45340301D01*
X161365000Y-45573690D01*
X161068924Y-45573690D01*
X166970518Y-35000000D01*
X194865000Y-35000000D01*
X194951397Y-35434345D01*
X195197434Y-35802566D01*
X196865000Y-37470132D01*
X196865000Y-41000000D01*
X196951397Y-41434346D01*
X197197434Y-41802566D01*
X197565654Y-42048603D01*
X198000000Y-42135000D01*
X198434346Y-42048603D01*
X198802566Y-41802566D01*
X199000000Y-41507085D01*
X199197434Y-41802566D01*
X199565654Y-42048603D01*
X200000000Y-42135000D01*
X200434346Y-42048603D01*
X200802566Y-41802566D01*
X201048603Y-41434346D01*
X201135000Y-41000000D01*
X201135000Y-39709127D01*
X201161871Y-39749342D01*
X201197434Y-39802566D01*
X203197434Y-41802566D01*
X203565655Y-42048603D01*
X204000000Y-42135000D01*
X204434345Y-42048603D01*
X204802566Y-41802566D01*
X205048603Y-41434345D01*
X205135000Y-41000000D01*
X205048603Y-40565655D01*
X204802566Y-40197434D01*
X203135000Y-38529868D01*
X203135000Y-35000000D01*
X203048603Y-34565654D01*
X202802566Y-34197434D01*
X202434346Y-33951397D01*
X202000000Y-33865000D01*
X201565654Y-33951397D01*
X201197434Y-34197434D01*
X201000000Y-34492915D01*
X200802566Y-34197434D01*
X200434346Y-33951397D01*
X200000000Y-33865000D01*
X199565654Y-33951397D01*
X199197434Y-34197434D01*
X198951397Y-34565654D01*
X198865000Y-35000000D01*
X198865000Y-36290873D01*
X198802566Y-36197434D01*
X196802566Y-34197434D01*
X196434345Y-33951397D01*
X196000000Y-33865000D01*
X195565655Y-33951397D01*
X195197434Y-34197434D01*
X194951397Y-34565655D01*
X194865000Y-35000000D01*
X166970518Y-35000000D01*
X169043588Y-31285750D01*
X172615000Y-31285750D01*
X172615000Y-32876310D01*
X172711673Y-33109699D01*
X172890302Y-33288327D01*
X173123691Y-33385000D01*
X174714250Y-33385000D01*
X174873000Y-33226250D01*
X174873000Y-31127000D01*
X175127000Y-31127000D01*
X175127000Y-33226250D01*
X175285750Y-33385000D01*
X176876309Y-33385000D01*
X177109698Y-33288327D01*
X177288327Y-33109699D01*
X177385000Y-32876310D01*
X177385000Y-31285750D01*
X177226250Y-31127000D01*
X175127000Y-31127000D01*
X174873000Y-31127000D01*
X172773750Y-31127000D01*
X172615000Y-31285750D01*
X169043588Y-31285750D01*
X170250319Y-29123690D01*
X172615000Y-29123690D01*
X172615000Y-30714250D01*
X172773750Y-30873000D01*
X174873000Y-30873000D01*
X174873000Y-28773750D01*
X175127000Y-28773750D01*
X175127000Y-30873000D01*
X177226250Y-30873000D01*
X177385000Y-30714250D01*
X177385000Y-29123690D01*
X177288327Y-28890301D01*
X177109698Y-28711673D01*
X176876309Y-28615000D01*
X175285750Y-28615000D01*
X175127000Y-28773750D01*
X174873000Y-28773750D01*
X174714250Y-28615000D01*
X173123691Y-28615000D01*
X172890302Y-28711673D01*
X172711673Y-28890301D01*
X172615000Y-29123690D01*
X170250319Y-29123690D01*
X171834285Y-26285750D01*
X207865000Y-26285750D01*
X207865000Y-27626310D01*
X207961673Y-27859699D01*
X208140302Y-28038327D01*
X208373691Y-28135000D01*
X209714250Y-28135000D01*
X209873000Y-27976250D01*
X209873000Y-26127000D01*
X210127000Y-26127000D01*
X210127000Y-27976250D01*
X210285750Y-28135000D01*
X211626309Y-28135000D01*
X211859698Y-28038327D01*
X212038327Y-27859699D01*
X212135000Y-27626310D01*
X212135000Y-26285750D01*
X211976250Y-26127000D01*
X210127000Y-26127000D01*
X209873000Y-26127000D01*
X208023750Y-26127000D01*
X207865000Y-26285750D01*
X171834285Y-26285750D01*
X172901481Y-24373690D01*
X207865000Y-24373690D01*
X207865000Y-25714250D01*
X208023750Y-25873000D01*
X209873000Y-25873000D01*
X209873000Y-24023750D01*
X210127000Y-24023750D01*
X210127000Y-25873000D01*
X211976250Y-25873000D01*
X212135000Y-25714250D01*
X212135000Y-24373690D01*
X212038327Y-24140301D01*
X211859698Y-23961673D01*
X211626309Y-23865000D01*
X210285750Y-23865000D01*
X210127000Y-24023750D01*
X209873000Y-24023750D01*
X209714250Y-23865000D01*
X208373691Y-23865000D01*
X208140302Y-23961673D01*
X207961673Y-24140301D01*
X207865000Y-24373690D01*
X172901481Y-24373690D01*
X174402147Y-21685000D01*
X225597853Y-21685000D01*
X249213315Y-63996036D01*
X249213315Y-63996036D01*
G37*
X249213315Y-63996036D02*
X225602479Y-105315000D01*
X174397521Y-105315000D01*
X173409379Y-103585750D01*
X181215000Y-103585750D01*
X181215000Y-104676309D01*
X181311673Y-104909698D01*
X181490301Y-105088327D01*
X181723690Y-105185000D01*
X182564250Y-105185000D01*
X182723000Y-105026250D01*
X182723000Y-103427000D01*
X182977000Y-103427000D01*
X182977000Y-105026250D01*
X183135750Y-105185000D01*
X183976310Y-105185000D01*
X184209699Y-105088327D01*
X184388327Y-104909698D01*
X184485000Y-104676309D01*
X184485000Y-103585750D01*
X190115000Y-103585750D01*
X190115000Y-104676309D01*
X190211673Y-104909698D01*
X190390301Y-105088327D01*
X190623690Y-105185000D01*
X191464250Y-105185000D01*
X191623000Y-105026250D01*
X191623000Y-103427000D01*
X191877000Y-103427000D01*
X191877000Y-105026250D01*
X192035750Y-105185000D01*
X192876310Y-105185000D01*
X193109699Y-105088327D01*
X193288327Y-104909698D01*
X193385000Y-104676309D01*
X193385000Y-103585750D01*
X193226250Y-103427000D01*
X191877000Y-103427000D01*
X191623000Y-103427000D01*
X190273750Y-103427000D01*
X190115000Y-103585750D01*
X184485000Y-103585750D01*
X184326250Y-103427000D01*
X182977000Y-103427000D01*
X182723000Y-103427000D01*
X181373750Y-103427000D01*
X181215000Y-103585750D01*
X173409379Y-103585750D01*
X172459631Y-101923691D01*
X181215000Y-101923691D01*
X181215000Y-103014250D01*
X181373750Y-103173000D01*
X182723000Y-103173000D01*
X182723000Y-101573750D01*
X182977000Y-101573750D01*
X182977000Y-103173000D01*
X184326250Y-103173000D01*
X184485000Y-103014250D01*
X184485000Y-101923691D01*
X184388327Y-101690302D01*
X184209699Y-101511673D01*
X183976310Y-101415000D01*
X183135750Y-101415000D01*
X182977000Y-101573750D01*
X182723000Y-101573750D01*
X182564250Y-101415000D01*
X181723690Y-101415000D01*
X181490301Y-101511673D01*
X181311673Y-101690302D01*
X181215000Y-101923691D01*
X172459631Y-101923691D01*
X170266522Y-98085750D01*
X181215000Y-98085750D01*
X181215000Y-99176309D01*
X181311673Y-99409698D01*
X181490301Y-99588327D01*
X181723690Y-99685000D01*
X182564250Y-99685000D01*
X182723000Y-99526250D01*
X182723000Y-97927000D01*
X182977000Y-97927000D01*
X182977000Y-99526250D01*
X183135750Y-99685000D01*
X183976310Y-99685000D01*
X184209699Y-99588327D01*
X184388327Y-99409698D01*
X184485000Y-99176309D01*
X184485000Y-98085750D01*
X184326250Y-97927000D01*
X182977000Y-97927000D01*
X182723000Y-97927000D01*
X181373750Y-97927000D01*
X181215000Y-98085750D01*
X170266522Y-98085750D01*
X169316774Y-96423691D01*
X181215000Y-96423691D01*
X181215000Y-97514250D01*
X181373750Y-97673000D01*
X182723000Y-97673000D01*
X182723000Y-96073750D01*
X182977000Y-96073750D01*
X182977000Y-97673000D01*
X184326250Y-97673000D01*
X184485000Y-97514250D01*
X184485000Y-96423691D01*
X184388327Y-96190302D01*
X184209699Y-96011673D01*
X183976310Y-95915000D01*
X183135750Y-95915000D01*
X182977000Y-96073750D01*
X182723000Y-96073750D01*
X182564250Y-95915000D01*
X181723690Y-95915000D01*
X181490301Y-96011673D01*
X181311673Y-96190302D01*
X181215000Y-96423691D01*
X169316774Y-96423691D01*
X165077505Y-89004971D01*
X167164821Y-89004971D01*
X167322058Y-89385515D01*
X167612954Y-89676919D01*
X167993223Y-89834820D01*
X168404971Y-89835179D01*
X168586919Y-89760000D01*
X168600000Y-89760000D01*
X168890839Y-89702148D01*
X168965000Y-89652595D01*
X168965000Y-90001309D01*
X169061673Y-90234698D01*
X169240301Y-90413327D01*
X169473690Y-90510000D01*
X171714250Y-90510000D01*
X171873000Y-90351250D01*
X171873000Y-89127000D01*
X171853000Y-89127000D01*
X171853000Y-88873000D01*
X171873000Y-88873000D01*
X171873000Y-87648750D01*
X171714250Y-87490000D01*
X169473690Y-87490000D01*
X169240301Y-87586673D01*
X169061673Y-87765302D01*
X168965000Y-87998691D01*
X168965000Y-88101346D01*
X168787046Y-87923081D01*
X168406777Y-87765180D01*
X167995029Y-87764821D01*
X167614485Y-87922058D01*
X167323081Y-88212954D01*
X167165180Y-88593223D01*
X167164821Y-89004971D01*
X165077505Y-89004971D01*
X161523665Y-82785750D01*
X169865000Y-82785750D01*
X169865000Y-83251310D01*
X169961673Y-83484699D01*
X170140302Y-83663327D01*
X170373691Y-83760000D01*
X170964250Y-83760000D01*
X171123000Y-83601250D01*
X171123000Y-82627000D01*
X170023750Y-82627000D01*
X169865000Y-82785750D01*
X161523665Y-82785750D01*
X160931060Y-81748690D01*
X169865000Y-81748690D01*
X169865000Y-82214250D01*
X170023750Y-82373000D01*
X171123000Y-82373000D01*
X171123000Y-81398750D01*
X170964250Y-81240000D01*
X170373691Y-81240000D01*
X170140302Y-81336673D01*
X169961673Y-81515301D01*
X169865000Y-81748690D01*
X160931060Y-81748690D01*
X157564317Y-75856892D01*
X163018514Y-75856892D01*
X163264817Y-76381358D01*
X163693076Y-76771645D01*
X164103110Y-76941476D01*
X164333000Y-76820155D01*
X164333000Y-75627000D01*
X163139181Y-75627000D01*
X163018514Y-75856892D01*
X157564317Y-75856892D01*
X157156441Y-75143108D01*
X163018514Y-75143108D01*
X163139181Y-75373000D01*
X164333000Y-75373000D01*
X164333000Y-74179845D01*
X164103110Y-74058524D01*
X163693076Y-74228355D01*
X163264817Y-74618642D01*
X163018514Y-75143108D01*
X157156441Y-75143108D01*
X155564318Y-72356892D01*
X163018514Y-72356892D01*
X163264817Y-72881358D01*
X163693076Y-73271645D01*
X164103110Y-73441476D01*
X164333000Y-73320155D01*
X164333000Y-72127000D01*
X163139181Y-72127000D01*
X163018514Y-72356892D01*
X155564318Y-72356892D01*
X155156442Y-71643108D01*
X163018514Y-71643108D01*
X163139181Y-71873000D01*
X164333000Y-71873000D01*
X164333000Y-70679845D01*
X164103110Y-70558524D01*
X163693076Y-70728355D01*
X163264817Y-71118642D01*
X163018514Y-71643108D01*
X155156442Y-71643108D01*
X153564318Y-68856892D01*
X163018514Y-68856892D01*
X163264817Y-69381358D01*
X163693076Y-69771645D01*
X164103110Y-69941476D01*
X164333000Y-69820155D01*
X164333000Y-68627000D01*
X163139181Y-68627000D01*
X163018514Y-68856892D01*
X153564318Y-68856892D01*
X153156442Y-68143108D01*
X163018514Y-68143108D01*
X163139181Y-68373000D01*
X164333000Y-68373000D01*
X164333000Y-67179845D01*
X164103110Y-67058524D01*
X163693076Y-67228355D01*
X163264817Y-67618642D01*
X163018514Y-68143108D01*
X153156442Y-68143108D01*
X151564318Y-65356892D01*
X163018514Y-65356892D01*
X163264817Y-65881358D01*
X163693076Y-66271645D01*
X164103110Y-66441476D01*
X164333000Y-66320155D01*
X164333000Y-65127000D01*
X163139181Y-65127000D01*
X163018514Y-65356892D01*
X151564318Y-65356892D01*
X151156441Y-64643108D01*
X163018514Y-64643108D01*
X163139181Y-64873000D01*
X164333000Y-64873000D01*
X164333000Y-63679845D01*
X164103110Y-63558524D01*
X163693076Y-63728355D01*
X163264817Y-64118642D01*
X163018514Y-64643108D01*
X151156441Y-64643108D01*
X150786685Y-63996036D01*
X151980625Y-61856892D01*
X163018514Y-61856892D01*
X163264817Y-62381358D01*
X163693076Y-62771645D01*
X164103110Y-62941476D01*
X164333000Y-62820155D01*
X164333000Y-61627000D01*
X163139181Y-61627000D01*
X163018514Y-61856892D01*
X151980625Y-61856892D01*
X152379016Y-61143108D01*
X163018514Y-61143108D01*
X163139181Y-61373000D01*
X164333000Y-61373000D01*
X164333000Y-60179845D01*
X164103110Y-60058524D01*
X163693076Y-60228355D01*
X163264817Y-60618642D01*
X163018514Y-61143108D01*
X152379016Y-61143108D01*
X153934113Y-58356892D01*
X163018514Y-58356892D01*
X163264817Y-58881358D01*
X163693076Y-59271645D01*
X164103110Y-59441476D01*
X164333000Y-59320155D01*
X164333000Y-58127000D01*
X163139181Y-58127000D01*
X163018514Y-58356892D01*
X153934113Y-58356892D01*
X154332504Y-57643108D01*
X163018514Y-57643108D01*
X163139181Y-57873000D01*
X164333000Y-57873000D01*
X164333000Y-56679845D01*
X164103110Y-56558524D01*
X163693076Y-56728355D01*
X163264817Y-57118642D01*
X163018514Y-57643108D01*
X154332504Y-57643108D01*
X155887601Y-54856892D01*
X163018514Y-54856892D01*
X163264817Y-55381358D01*
X163693076Y-55771645D01*
X164103110Y-55941476D01*
X164333000Y-55820155D01*
X164333000Y-54627000D01*
X163139181Y-54627000D01*
X163018514Y-54856892D01*
X155887601Y-54856892D01*
X156285992Y-54143108D01*
X163018514Y-54143108D01*
X163139181Y-54373000D01*
X164333000Y-54373000D01*
X164333000Y-53179845D01*
X164103110Y-53058524D01*
X163693076Y-53228355D01*
X163264817Y-53618642D01*
X163018514Y-54143108D01*
X156285992Y-54143108D01*
X157841089Y-51356892D01*
X163018514Y-51356892D01*
X163264817Y-51881358D01*
X163693076Y-52271645D01*
X164103110Y-52441476D01*
X164333000Y-52320155D01*
X164333000Y-51127000D01*
X163139181Y-51127000D01*
X163018514Y-51356892D01*
X157841089Y-51356892D01*
X158239480Y-50643108D01*
X163018514Y-50643108D01*
X163139181Y-50873000D01*
X164333000Y-50873000D01*
X164333000Y-49679845D01*
X164587000Y-49679845D01*
X164587000Y-50873000D01*
X164607000Y-50873000D01*
X164607000Y-51127000D01*
X164587000Y-51127000D01*
X164587000Y-52320155D01*
X164816890Y-52441476D01*
X165226924Y-52271645D01*
X165655183Y-51881358D01*
X165722298Y-51738447D01*
X165865000Y-51952016D01*
X165865000Y-53547984D01*
X165722298Y-53761553D01*
X165655183Y-53618642D01*
X165226924Y-53228355D01*
X164816890Y-53058524D01*
X164587000Y-53179845D01*
X164587000Y-54373000D01*
X164607000Y-54373000D01*
X164607000Y-54627000D01*
X164587000Y-54627000D01*
X164587000Y-55820155D01*
X164816890Y-55941476D01*
X165226924Y-55771645D01*
X165655183Y-55381358D01*
X165722298Y-55238447D01*
X165865000Y-55452016D01*
X165865000Y-57047984D01*
X165722298Y-57261553D01*
X165655183Y-57118642D01*
X165226924Y-56728355D01*
X164816890Y-56558524D01*
X164587000Y-56679845D01*
X164587000Y-57873000D01*
X164607000Y-57873000D01*
X164607000Y-58127000D01*
X164587000Y-58127000D01*
X164587000Y-59320155D01*
X164816890Y-59441476D01*
X165226924Y-59271645D01*
X165655183Y-58881358D01*
X165722298Y-58738447D01*
X165865000Y-58952016D01*
X165865000Y-60547984D01*
X165722298Y-60761553D01*
X165655183Y-60618642D01*
X165226924Y-60228355D01*
X164816890Y-60058524D01*
X164587000Y-60179845D01*
X164587000Y-61373000D01*
X164607000Y-61373000D01*
X164607000Y-61627000D01*
X164587000Y-61627000D01*
X164587000Y-62820155D01*
X164816890Y-62941476D01*
X165226924Y-62771645D01*
X165655183Y-62381358D01*
X165722298Y-62238447D01*
X165865000Y-62452016D01*
X165865000Y-64047984D01*
X165722298Y-64261553D01*
X165655183Y-64118642D01*
X165226924Y-63728355D01*
X164816890Y-63558524D01*
X164587000Y-63679845D01*
X164587000Y-64873000D01*
X164607000Y-64873000D01*
X164607000Y-65127000D01*
X164587000Y-65127000D01*
X164587000Y-66320155D01*
X164816890Y-66441476D01*
X165226924Y-66271645D01*
X165655183Y-65881358D01*
X165722298Y-65738447D01*
X165865000Y-65952016D01*
X165865000Y-67547984D01*
X165722298Y-67761553D01*
X165655183Y-67618642D01*
X165226924Y-67228355D01*
X164816890Y-67058524D01*
X164587000Y-67179845D01*
X164587000Y-68373000D01*
X164607000Y-68373000D01*
X164607000Y-68627000D01*
X164587000Y-68627000D01*
X164587000Y-69820155D01*
X164816890Y-69941476D01*
X165226924Y-69771645D01*
X165655183Y-69381358D01*
X165722298Y-69238447D01*
X165865000Y-69452016D01*
X165865000Y-71047984D01*
X165722298Y-71261553D01*
X165655183Y-71118642D01*
X165226924Y-70728355D01*
X164816890Y-70558524D01*
X164587000Y-70679845D01*
X164587000Y-71873000D01*
X164607000Y-71873000D01*
X164607000Y-72127000D01*
X164587000Y-72127000D01*
X164587000Y-73320155D01*
X164816890Y-73441476D01*
X165226924Y-73271645D01*
X165655183Y-72881358D01*
X165722298Y-72738447D01*
X165865000Y-72952016D01*
X165865000Y-74547984D01*
X165722298Y-74761553D01*
X165655183Y-74618642D01*
X165226924Y-74228355D01*
X164816890Y-74058524D01*
X164587000Y-74179845D01*
X164587000Y-75373000D01*
X164607000Y-75373000D01*
X164607000Y-75627000D01*
X164587000Y-75627000D01*
X164587000Y-76820155D01*
X164816890Y-76941476D01*
X165226924Y-76771645D01*
X165655183Y-76381358D01*
X165722298Y-76238447D01*
X165949946Y-76579147D01*
X166256259Y-76783818D01*
X166297852Y-76992920D01*
X166462599Y-77239482D01*
X167260518Y-78037401D01*
X167507080Y-78202148D01*
X167797919Y-78260000D01*
X171250000Y-78260000D01*
X171540839Y-78202148D01*
X171787401Y-78037401D01*
X174537401Y-75287401D01*
X174702148Y-75040840D01*
X174760000Y-74750000D01*
X174760000Y-72064802D01*
X178339052Y-68485750D01*
X190715000Y-68485750D01*
X190715000Y-69076309D01*
X190811673Y-69309698D01*
X190990301Y-69488327D01*
X191223690Y-69585000D01*
X191714250Y-69585000D01*
X191873000Y-69426250D01*
X191873000Y-68327000D01*
X192127000Y-68327000D01*
X192127000Y-69426250D01*
X192285750Y-69585000D01*
X192776310Y-69585000D01*
X193009699Y-69488327D01*
X193188327Y-69309698D01*
X193285000Y-69076309D01*
X193285000Y-68485750D01*
X193126250Y-68327000D01*
X192127000Y-68327000D01*
X191873000Y-68327000D01*
X190873750Y-68327000D01*
X190715000Y-68485750D01*
X178339052Y-68485750D01*
X180564802Y-66260000D01*
X185111080Y-66260000D01*
X185131838Y-66370317D01*
X185270910Y-66586441D01*
X185483110Y-66731431D01*
X185735000Y-66782440D01*
X186705000Y-66782440D01*
X186865690Y-66752204D01*
X187015000Y-66782440D01*
X187985000Y-66782440D01*
X188220317Y-66738162D01*
X188436441Y-66599090D01*
X188573579Y-66398381D01*
X189335997Y-67160799D01*
X189582559Y-67325546D01*
X189873398Y-67383398D01*
X190715000Y-67383398D01*
X190715000Y-67914250D01*
X190873750Y-68073000D01*
X191873000Y-68073000D01*
X191873000Y-68053000D01*
X192127000Y-68053000D01*
X192127000Y-68073000D01*
X193126250Y-68073000D01*
X193285000Y-67914250D01*
X193285000Y-67383398D01*
X193376602Y-67383398D01*
X193667441Y-67325546D01*
X193914003Y-67160799D01*
X195189802Y-65885000D01*
X195291489Y-65885000D01*
X195287599Y-65887599D01*
X194212599Y-66962599D01*
X194047852Y-67209161D01*
X193990000Y-67500000D01*
X193990000Y-69500000D01*
X194047852Y-69790839D01*
X194212599Y-70037401D01*
X194915198Y-70740000D01*
X181000000Y-70740000D01*
X180709161Y-70797852D01*
X180462599Y-70962599D01*
X177462599Y-73962599D01*
X177297852Y-74209161D01*
X177240000Y-74500000D01*
X177240000Y-81500000D01*
X177297852Y-81790839D01*
X177462599Y-82037401D01*
X177740000Y-82314802D01*
X177740000Y-82515000D01*
X177635750Y-82515000D01*
X177477000Y-82673750D01*
X177477000Y-83423000D01*
X177497000Y-83423000D01*
X177497000Y-83677000D01*
X177477000Y-83677000D01*
X177477000Y-83697000D01*
X177223000Y-83697000D01*
X177223000Y-83677000D01*
X177203000Y-83677000D01*
X177203000Y-83423000D01*
X177223000Y-83423000D01*
X177223000Y-82673750D01*
X177064250Y-82515000D01*
X176573691Y-82515000D01*
X176340302Y-82611673D01*
X176208895Y-82743079D01*
X176202148Y-82709161D01*
X176037401Y-82462599D01*
X175537401Y-81962599D01*
X175290839Y-81797852D01*
X175126783Y-81765219D01*
X175103162Y-81639683D01*
X174964090Y-81423559D01*
X174751890Y-81278569D01*
X174500000Y-81227560D01*
X173000000Y-81227560D01*
X172764683Y-81271838D01*
X172548559Y-81410910D01*
X172502031Y-81479006D01*
X172359698Y-81336673D01*
X172126309Y-81240000D01*
X171535750Y-81240000D01*
X171377000Y-81398750D01*
X171377000Y-82373000D01*
X171397000Y-82373000D01*
X171397000Y-82627000D01*
X171377000Y-82627000D01*
X171377000Y-83601250D01*
X171535750Y-83760000D01*
X172126309Y-83760000D01*
X172359698Y-83663327D01*
X172500936Y-83522090D01*
X172535910Y-83576441D01*
X172748110Y-83721431D01*
X173000000Y-83772440D01*
X174500000Y-83772440D01*
X174735317Y-83728162D01*
X174740000Y-83725149D01*
X174740000Y-84338772D01*
X174651890Y-84278569D01*
X174400000Y-84227560D01*
X169600000Y-84227560D01*
X169364683Y-84271838D01*
X169148559Y-84410910D01*
X169003569Y-84623110D01*
X168952560Y-84875000D01*
X168952560Y-86625000D01*
X168996838Y-86860317D01*
X169135910Y-87076441D01*
X169348110Y-87221431D01*
X169600000Y-87272440D01*
X173972638Y-87272440D01*
X174190198Y-87490000D01*
X172285750Y-87490000D01*
X172127000Y-87648750D01*
X172127000Y-88873000D01*
X172147000Y-88873000D01*
X172147000Y-89127000D01*
X172127000Y-89127000D01*
X172127000Y-90351250D01*
X172285750Y-90510000D01*
X174526310Y-90510000D01*
X174759699Y-90413327D01*
X174938327Y-90234698D01*
X174990000Y-90109948D01*
X174990000Y-90470000D01*
X175047852Y-90760839D01*
X175212599Y-91007401D01*
X175695197Y-91490000D01*
X175047440Y-91490000D01*
X175047440Y-91375000D01*
X175003162Y-91139683D01*
X174864090Y-90923559D01*
X174651890Y-90778569D01*
X174400000Y-90727560D01*
X169600000Y-90727560D01*
X169364683Y-90771838D01*
X169148559Y-90910910D01*
X169003569Y-91123110D01*
X168952560Y-91375000D01*
X168952560Y-93125000D01*
X168996838Y-93360317D01*
X169135910Y-93576441D01*
X169348110Y-93721431D01*
X169600000Y-93772440D01*
X174400000Y-93772440D01*
X174635317Y-93728162D01*
X174851441Y-93589090D01*
X174996431Y-93376890D01*
X175047440Y-93125000D01*
X175047440Y-93010000D01*
X176082666Y-93010000D01*
X176096838Y-93085317D01*
X176235910Y-93301441D01*
X176448110Y-93446431D01*
X176700000Y-93497440D01*
X177935898Y-93497440D01*
X177962599Y-93537401D01*
X179962599Y-95537401D01*
X180209161Y-95702148D01*
X180500000Y-95760000D01*
X185685198Y-95760000D01*
X185740000Y-95814802D01*
X185740000Y-95902560D01*
X185450000Y-95902560D01*
X185214683Y-95946838D01*
X184998559Y-96085910D01*
X184853569Y-96298110D01*
X184802560Y-96550000D01*
X184802560Y-98850000D01*
X184846838Y-99085317D01*
X184930191Y-99214851D01*
X184885127Y-99214812D01*
X184486200Y-99379646D01*
X184180718Y-99684595D01*
X184015189Y-100083233D01*
X184014812Y-100514873D01*
X184179646Y-100913800D01*
X184484595Y-101219282D01*
X184883233Y-101384811D01*
X185314873Y-101385188D01*
X185713800Y-101220354D01*
X185940375Y-100994175D01*
X186608602Y-101662402D01*
X186855164Y-101827149D01*
X187146003Y-101885001D01*
X190131026Y-101885001D01*
X190115000Y-101923691D01*
X190115000Y-103014250D01*
X190273750Y-103173000D01*
X191623000Y-103173000D01*
X191623000Y-103153000D01*
X191877000Y-103153000D01*
X191877000Y-103173000D01*
X193226250Y-103173000D01*
X193385000Y-103014250D01*
X193385000Y-101923691D01*
X193288327Y-101690302D01*
X193109699Y-101511673D01*
X192876310Y-101415000D01*
X192659802Y-101415000D01*
X193579981Y-100494821D01*
X196529699Y-100494821D01*
X196435000Y-100970907D01*
X196435000Y-101029093D01*
X196548039Y-101597378D01*
X196869946Y-102079147D01*
X197351715Y-102401054D01*
X197920000Y-102514093D01*
X198488285Y-102401054D01*
X198970054Y-102079147D01*
X199197702Y-101738447D01*
X199264817Y-101881358D01*
X199693076Y-102271645D01*
X200103110Y-102441476D01*
X200333000Y-102320155D01*
X200333000Y-101127000D01*
X200587000Y-101127000D01*
X200587000Y-102320155D01*
X200816890Y-102441476D01*
X201226924Y-102271645D01*
X201655183Y-101881358D01*
X201730000Y-101722046D01*
X201804817Y-101881358D01*
X202233076Y-102271645D01*
X202643110Y-102441476D01*
X202873000Y-102320155D01*
X202873000Y-101127000D01*
X203127000Y-101127000D01*
X203127000Y-102320155D01*
X203356890Y-102441476D01*
X203766924Y-102271645D01*
X204195183Y-101881358D01*
X204270000Y-101722046D01*
X204344817Y-101881358D01*
X204773076Y-102271645D01*
X205183110Y-102441476D01*
X205413000Y-102320155D01*
X205413000Y-101127000D01*
X203127000Y-101127000D01*
X202873000Y-101127000D01*
X200587000Y-101127000D01*
X200333000Y-101127000D01*
X200313000Y-101127000D01*
X200313000Y-100873000D01*
X200333000Y-100873000D01*
X200333000Y-100853000D01*
X200587000Y-100853000D01*
X200587000Y-100873000D01*
X202873000Y-100873000D01*
X202873000Y-100853000D01*
X203127000Y-100853000D01*
X203127000Y-100873000D01*
X205413000Y-100873000D01*
X205413000Y-100853000D01*
X205667000Y-100853000D01*
X205667000Y-100873000D01*
X205687000Y-100873000D01*
X205687000Y-101127000D01*
X205667000Y-101127000D01*
X205667000Y-102320155D01*
X205896890Y-102441476D01*
X206252088Y-102294357D01*
X206317598Y-102392400D01*
X206962599Y-103037401D01*
X207209161Y-103202148D01*
X207500000Y-103260000D01*
X209654654Y-103260000D01*
X209945493Y-103202148D01*
X210192055Y-103037401D01*
X210443706Y-102785750D01*
X216515000Y-102785750D01*
X216515000Y-103376310D01*
X216611673Y-103609699D01*
X216790302Y-103788327D01*
X217023691Y-103885000D01*
X217864250Y-103885000D01*
X218023000Y-103726250D01*
X218023000Y-102627000D01*
X218277000Y-102627000D01*
X218277000Y-103726250D01*
X218435750Y-103885000D01*
X219276309Y-103885000D01*
X219509698Y-103788327D01*
X219688327Y-103609699D01*
X219785000Y-103376310D01*
X219785000Y-102785750D01*
X219626250Y-102627000D01*
X218277000Y-102627000D01*
X218023000Y-102627000D01*
X216673750Y-102627000D01*
X216515000Y-102785750D01*
X210443706Y-102785750D01*
X210559444Y-102670012D01*
X210598110Y-102696431D01*
X210850000Y-102747440D01*
X212850000Y-102747440D01*
X213085317Y-102703162D01*
X213301441Y-102564090D01*
X213446431Y-102351890D01*
X213497440Y-102100000D01*
X213497440Y-98300000D01*
X213453162Y-98064683D01*
X213314090Y-97848559D01*
X213101890Y-97703569D01*
X212850000Y-97652560D01*
X212260000Y-97652560D01*
X212260000Y-94872440D01*
X212300000Y-94872440D01*
X212535317Y-94828162D01*
X212751441Y-94689090D01*
X212797969Y-94620994D01*
X212940302Y-94763327D01*
X213173691Y-94860000D01*
X213764250Y-94860000D01*
X213923000Y-94701250D01*
X213923000Y-93727000D01*
X213903000Y-93727000D01*
X213903000Y-93473000D01*
X213923000Y-93473000D01*
X213923000Y-92498750D01*
X213764250Y-92340000D01*
X213173691Y-92340000D01*
X212940302Y-92436673D01*
X212799064Y-92577910D01*
X212764090Y-92523559D01*
X212551890Y-92378569D01*
X212300000Y-92327560D01*
X212260000Y-92327560D01*
X212260000Y-92085000D01*
X212564250Y-92085000D01*
X212723000Y-91926250D01*
X212723000Y-90927000D01*
X212977000Y-90927000D01*
X212977000Y-91926250D01*
X213135750Y-92085000D01*
X213726309Y-92085000D01*
X213959698Y-91988327D01*
X214138327Y-91809699D01*
X214235000Y-91576310D01*
X214235000Y-91085750D01*
X214076250Y-90927000D01*
X212977000Y-90927000D01*
X212723000Y-90927000D01*
X212703000Y-90927000D01*
X212703000Y-90673000D01*
X212723000Y-90673000D01*
X212723000Y-90653000D01*
X212977000Y-90653000D01*
X212977000Y-90673000D01*
X214076250Y-90673000D01*
X214235000Y-90514250D01*
X214235000Y-90023690D01*
X214138327Y-89790301D01*
X213959698Y-89611673D01*
X213891190Y-89583296D01*
X214076441Y-89464090D01*
X214221431Y-89251890D01*
X214272440Y-89000000D01*
X214272440Y-87760000D01*
X214994960Y-87760000D01*
X214932583Y-87822268D01*
X214774682Y-88202537D01*
X214774323Y-88614285D01*
X214931560Y-88994829D01*
X215049502Y-89112977D01*
X215049502Y-92391028D01*
X214926309Y-92340000D01*
X214335750Y-92340000D01*
X214177000Y-92498750D01*
X214177000Y-93473000D01*
X214197000Y-93473000D01*
X214197000Y-93727000D01*
X214177000Y-93727000D01*
X214177000Y-94701250D01*
X214335750Y-94860000D01*
X214926309Y-94860000D01*
X215095348Y-94789982D01*
X215107354Y-94850341D01*
X215272101Y-95096903D01*
X216797464Y-96622266D01*
X216698559Y-96685910D01*
X216553569Y-96898110D01*
X216502560Y-97150000D01*
X216502560Y-98650000D01*
X216546838Y-98885317D01*
X216653759Y-99051477D01*
X216553569Y-99198110D01*
X216502560Y-99450000D01*
X216502560Y-100950000D01*
X216546838Y-101185317D01*
X216652482Y-101349492D01*
X216611673Y-101390301D01*
X216515000Y-101623690D01*
X216515000Y-102214250D01*
X216673750Y-102373000D01*
X218023000Y-102373000D01*
X218023000Y-102353000D01*
X218277000Y-102353000D01*
X218277000Y-102373000D01*
X219626250Y-102373000D01*
X219785000Y-102214250D01*
X219785000Y-101623690D01*
X219782421Y-101617463D01*
X219909161Y-101702148D01*
X220200000Y-101760000D01*
X223735002Y-101760000D01*
X224025841Y-101702148D01*
X224272403Y-101537401D01*
X226537401Y-99272403D01*
X226702148Y-99025841D01*
X226760000Y-98735002D01*
X226760000Y-95883301D01*
X227079147Y-95670054D01*
X227268345Y-95386899D01*
X227268355Y-95386924D01*
X227658642Y-95815183D01*
X228183108Y-96061486D01*
X228413000Y-95940819D01*
X228413000Y-94747000D01*
X228667000Y-94747000D01*
X228667000Y-95940819D01*
X228896892Y-96061486D01*
X229421358Y-95815183D01*
X229811645Y-95386924D01*
X229981476Y-94976890D01*
X229860155Y-94747000D01*
X228667000Y-94747000D01*
X228413000Y-94747000D01*
X228393000Y-94747000D01*
X228393000Y-94493000D01*
X228413000Y-94493000D01*
X228413000Y-92207000D01*
X228667000Y-92207000D01*
X228667000Y-94493000D01*
X229860155Y-94493000D01*
X229981476Y-94263110D01*
X229811645Y-93853076D01*
X229421358Y-93424817D01*
X229262046Y-93350000D01*
X229421358Y-93275183D01*
X229811645Y-92846924D01*
X229981476Y-92436890D01*
X229860155Y-92207000D01*
X228667000Y-92207000D01*
X228413000Y-92207000D01*
X228393000Y-92207000D01*
X228393000Y-91953000D01*
X228413000Y-91953000D01*
X228413000Y-89667000D01*
X228667000Y-89667000D01*
X228667000Y-91953000D01*
X229860155Y-91953000D01*
X229981476Y-91723110D01*
X229811645Y-91313076D01*
X229421358Y-90884817D01*
X229262046Y-90810000D01*
X229421358Y-90735183D01*
X229811645Y-90306924D01*
X229981476Y-89896890D01*
X229860155Y-89667000D01*
X228667000Y-89667000D01*
X228413000Y-89667000D01*
X228393000Y-89667000D01*
X228393000Y-89413000D01*
X228413000Y-89413000D01*
X228413000Y-87127000D01*
X228667000Y-87127000D01*
X228667000Y-89413000D01*
X229860155Y-89413000D01*
X229981476Y-89183110D01*
X229811645Y-88773076D01*
X229421358Y-88344817D01*
X229262046Y-88270000D01*
X229421358Y-88195183D01*
X229811645Y-87766924D01*
X229981476Y-87356890D01*
X229860155Y-87127000D01*
X228667000Y-87127000D01*
X228413000Y-87127000D01*
X228393000Y-87127000D01*
X228393000Y-86873000D01*
X228413000Y-86873000D01*
X228413000Y-86853000D01*
X228667000Y-86853000D01*
X228667000Y-86873000D01*
X229860155Y-86873000D01*
X229981476Y-86643110D01*
X229822797Y-86260000D01*
X231600000Y-86260000D01*
X231890839Y-86202148D01*
X232137401Y-86037401D01*
X233299790Y-84875012D01*
X233350000Y-84885000D01*
X233952560Y-84885000D01*
X233952560Y-84900000D01*
X233996838Y-85135317D01*
X234135910Y-85351441D01*
X234348110Y-85496431D01*
X234600000Y-85547440D01*
X236200000Y-85547440D01*
X236435317Y-85503162D01*
X236651441Y-85364090D01*
X236796431Y-85151890D01*
X236847440Y-84900000D01*
X236847440Y-82600000D01*
X236803162Y-82364683D01*
X236664090Y-82148559D01*
X236451890Y-82003569D01*
X236200000Y-81952560D01*
X234600000Y-81952560D01*
X234364683Y-81996838D01*
X234148559Y-82135910D01*
X234003569Y-82348110D01*
X233952560Y-82600000D01*
X233952560Y-82615000D01*
X233820132Y-82615000D01*
X233785001Y-82579869D01*
X233785001Y-79335750D01*
X233965000Y-79335750D01*
X233965000Y-80326309D01*
X234061673Y-80559698D01*
X234240301Y-80738327D01*
X234473690Y-80835000D01*
X235114250Y-80835000D01*
X235273000Y-80676250D01*
X235273000Y-79177000D01*
X235527000Y-79177000D01*
X235527000Y-80676250D01*
X235685750Y-80835000D01*
X236326310Y-80835000D01*
X236559699Y-80738327D01*
X236738327Y-80559698D01*
X236835000Y-80326309D01*
X236835000Y-79335750D01*
X236676250Y-79177000D01*
X235527000Y-79177000D01*
X235273000Y-79177000D01*
X234123750Y-79177000D01*
X233965000Y-79335750D01*
X233785001Y-79335750D01*
X233785001Y-77457403D01*
X234068285Y-77401054D01*
X234550054Y-77079147D01*
X234777702Y-76738447D01*
X234844817Y-76881358D01*
X235272998Y-77271574D01*
X235272998Y-77423748D01*
X235114250Y-77265000D01*
X234473690Y-77265000D01*
X234240301Y-77361673D01*
X234061673Y-77540302D01*
X233965000Y-77773691D01*
X233965000Y-78764250D01*
X234123750Y-78923000D01*
X235273000Y-78923000D01*
X235273000Y-78903000D01*
X235527000Y-78903000D01*
X235527000Y-78923000D01*
X236676250Y-78923000D01*
X236835000Y-78764250D01*
X236835000Y-77773691D01*
X236738327Y-77540302D01*
X236568446Y-77370420D01*
X236806924Y-77271645D01*
X237235183Y-76881358D01*
X237481486Y-76356892D01*
X237360819Y-76127000D01*
X236167000Y-76127000D01*
X236167000Y-76147000D01*
X235913000Y-76147000D01*
X235913000Y-76127000D01*
X235893000Y-76127000D01*
X235893000Y-75873000D01*
X235913000Y-75873000D01*
X235913000Y-74679845D01*
X236167000Y-74679845D01*
X236167000Y-75873000D01*
X237360819Y-75873000D01*
X237481486Y-75643108D01*
X237235183Y-75118642D01*
X236806924Y-74728355D01*
X236396890Y-74558524D01*
X236167000Y-74679845D01*
X235913000Y-74679845D01*
X235683110Y-74558524D01*
X235273076Y-74728355D01*
X234844817Y-75118642D01*
X234777702Y-75261553D01*
X234635000Y-75047984D01*
X234635000Y-73452016D01*
X234777702Y-73238447D01*
X234844817Y-73381358D01*
X235273076Y-73771645D01*
X235683110Y-73941476D01*
X235913000Y-73820155D01*
X235913000Y-72627000D01*
X236167000Y-72627000D01*
X236167000Y-73820155D01*
X236396890Y-73941476D01*
X236806924Y-73771645D01*
X237235183Y-73381358D01*
X237481486Y-72856892D01*
X237360819Y-72627000D01*
X236167000Y-72627000D01*
X235913000Y-72627000D01*
X235893000Y-72627000D01*
X235893000Y-72373000D01*
X235913000Y-72373000D01*
X235913000Y-71179845D01*
X236167000Y-71179845D01*
X236167000Y-72373000D01*
X237360819Y-72373000D01*
X237481486Y-72143108D01*
X237235183Y-71618642D01*
X236806924Y-71228355D01*
X236396890Y-71058524D01*
X236167000Y-71179845D01*
X235913000Y-71179845D01*
X235683110Y-71058524D01*
X235273076Y-71228355D01*
X234844817Y-71618642D01*
X234777702Y-71761553D01*
X234635000Y-71547984D01*
X234635000Y-69952016D01*
X234777702Y-69738447D01*
X234844817Y-69881358D01*
X235273076Y-70271645D01*
X235683110Y-70441476D01*
X235913000Y-70320155D01*
X235913000Y-69127000D01*
X236167000Y-69127000D01*
X236167000Y-70320155D01*
X236396890Y-70441476D01*
X236806924Y-70271645D01*
X237235183Y-69881358D01*
X237481486Y-69356892D01*
X237360819Y-69127000D01*
X236167000Y-69127000D01*
X235913000Y-69127000D01*
X235893000Y-69127000D01*
X235893000Y-68873000D01*
X235913000Y-68873000D01*
X235913000Y-67679845D01*
X236167000Y-67679845D01*
X236167000Y-68873000D01*
X237360819Y-68873000D01*
X237481486Y-68643108D01*
X237235183Y-68118642D01*
X236806924Y-67728355D01*
X236396890Y-67558524D01*
X236167000Y-67679845D01*
X235913000Y-67679845D01*
X235683110Y-67558524D01*
X235273076Y-67728355D01*
X234844817Y-68118642D01*
X234777702Y-68261553D01*
X234635000Y-68047984D01*
X234635000Y-66452016D01*
X234777702Y-66238447D01*
X234844817Y-66381358D01*
X235273076Y-66771645D01*
X235683110Y-66941476D01*
X235913000Y-66820155D01*
X235913000Y-65627000D01*
X236167000Y-65627000D01*
X236167000Y-66820155D01*
X236396890Y-66941476D01*
X236806924Y-66771645D01*
X237235183Y-66381358D01*
X237481486Y-65856892D01*
X237360819Y-65627000D01*
X236167000Y-65627000D01*
X235913000Y-65627000D01*
X235893000Y-65627000D01*
X235893000Y-65373000D01*
X235913000Y-65373000D01*
X235913000Y-64179845D01*
X236167000Y-64179845D01*
X236167000Y-65373000D01*
X237360819Y-65373000D01*
X237481486Y-65143108D01*
X237235183Y-64618642D01*
X236806924Y-64228355D01*
X236396890Y-64058524D01*
X236167000Y-64179845D01*
X235913000Y-64179845D01*
X235683110Y-64058524D01*
X235273076Y-64228355D01*
X234844817Y-64618642D01*
X234777702Y-64761553D01*
X234635000Y-64547984D01*
X234635000Y-62952016D01*
X234777702Y-62738447D01*
X234844817Y-62881358D01*
X235273076Y-63271645D01*
X235683110Y-63441476D01*
X235913000Y-63320155D01*
X235913000Y-62127000D01*
X236167000Y-62127000D01*
X236167000Y-63320155D01*
X236396890Y-63441476D01*
X236806924Y-63271645D01*
X237235183Y-62881358D01*
X237481486Y-62356892D01*
X237360819Y-62127000D01*
X236167000Y-62127000D01*
X235913000Y-62127000D01*
X235893000Y-62127000D01*
X235893000Y-61873000D01*
X235913000Y-61873000D01*
X235913000Y-60679845D01*
X236167000Y-60679845D01*
X236167000Y-61873000D01*
X237360819Y-61873000D01*
X237481486Y-61643108D01*
X237235183Y-61118642D01*
X236806924Y-60728355D01*
X236396890Y-60558524D01*
X236167000Y-60679845D01*
X235913000Y-60679845D01*
X235683110Y-60558524D01*
X235273076Y-60728355D01*
X234844817Y-61118642D01*
X234777702Y-61261553D01*
X234635000Y-61047984D01*
X234635000Y-59452016D01*
X234777702Y-59238447D01*
X234844817Y-59381358D01*
X235273076Y-59771645D01*
X235683110Y-59941476D01*
X235913000Y-59820155D01*
X235913000Y-58627000D01*
X236167000Y-58627000D01*
X236167000Y-59820155D01*
X236396890Y-59941476D01*
X236806924Y-59771645D01*
X237235183Y-59381358D01*
X237481486Y-58856892D01*
X237360819Y-58627000D01*
X236167000Y-58627000D01*
X235913000Y-58627000D01*
X235893000Y-58627000D01*
X235893000Y-58373000D01*
X235913000Y-58373000D01*
X235913000Y-57179845D01*
X236167000Y-57179845D01*
X236167000Y-58373000D01*
X237360819Y-58373000D01*
X237481486Y-58143108D01*
X237235183Y-57618642D01*
X236806924Y-57228355D01*
X236396890Y-57058524D01*
X236167000Y-57179845D01*
X235913000Y-57179845D01*
X235683110Y-57058524D01*
X235273076Y-57228355D01*
X234844817Y-57618642D01*
X234777702Y-57761553D01*
X234635000Y-57547984D01*
X234635000Y-55952016D01*
X234777702Y-55738447D01*
X234844817Y-55881358D01*
X235273076Y-56271645D01*
X235683110Y-56441476D01*
X235913000Y-56320155D01*
X235913000Y-55127000D01*
X236167000Y-55127000D01*
X236167000Y-56320155D01*
X236396890Y-56441476D01*
X236806924Y-56271645D01*
X237235183Y-55881358D01*
X237481486Y-55356892D01*
X237360819Y-55127000D01*
X236167000Y-55127000D01*
X235913000Y-55127000D01*
X235893000Y-55127000D01*
X235893000Y-54873000D01*
X235913000Y-54873000D01*
X235913000Y-53679845D01*
X236167000Y-53679845D01*
X236167000Y-54873000D01*
X237360819Y-54873000D01*
X237481486Y-54643108D01*
X237235183Y-54118642D01*
X236806924Y-53728355D01*
X236396890Y-53558524D01*
X236167000Y-53679845D01*
X235913000Y-53679845D01*
X235683110Y-53558524D01*
X235273076Y-53728355D01*
X234844817Y-54118642D01*
X234777702Y-54261553D01*
X234635000Y-54047984D01*
X234635000Y-52452016D01*
X234777702Y-52238447D01*
X234844817Y-52381358D01*
X235273076Y-52771645D01*
X235683110Y-52941476D01*
X235913000Y-52820155D01*
X235913000Y-51627000D01*
X236167000Y-51627000D01*
X236167000Y-52820155D01*
X236396890Y-52941476D01*
X236806924Y-52771645D01*
X237235183Y-52381358D01*
X237481486Y-51856892D01*
X237360819Y-51627000D01*
X236167000Y-51627000D01*
X235913000Y-51627000D01*
X235893000Y-51627000D01*
X235893000Y-51373000D01*
X235913000Y-51373000D01*
X235913000Y-50179845D01*
X236167000Y-50179845D01*
X236167000Y-51373000D01*
X237360819Y-51373000D01*
X237481486Y-51143108D01*
X237235183Y-50618642D01*
X236806924Y-50228355D01*
X236396890Y-50058524D01*
X236167000Y-50179845D01*
X235913000Y-50179845D01*
X235683110Y-50058524D01*
X235273076Y-50228355D01*
X234844817Y-50618642D01*
X234777702Y-50761553D01*
X234635000Y-50547984D01*
X234635000Y-49650000D01*
X234621246Y-49580853D01*
X234548604Y-49215655D01*
X234302567Y-48847434D01*
X233452566Y-47997434D01*
X233301404Y-47896431D01*
X233084346Y-47751397D01*
X232650000Y-47665000D01*
X229303448Y-47665000D01*
X230291623Y-46678549D01*
X230884324Y-45251165D01*
X230885673Y-43705616D01*
X230295463Y-42277199D01*
X229203549Y-41183377D01*
X228765222Y-41001368D01*
X229176896Y-40834311D01*
X229224342Y-40802608D01*
X229597373Y-40301978D01*
X227000000Y-37704605D01*
X224402627Y-40301978D01*
X224775658Y-40802608D01*
X225239721Y-40998757D01*
X224802199Y-41179537D01*
X223708377Y-42271451D01*
X223115676Y-43698835D01*
X223114327Y-45244384D01*
X223704537Y-46672801D01*
X223896401Y-46865000D01*
X223470132Y-46865000D01*
X219135000Y-42529868D01*
X219135000Y-38269772D01*
X223109534Y-38269772D01*
X223690689Y-39701896D01*
X223722392Y-39749342D01*
X224223022Y-40122373D01*
X226820395Y-37525000D01*
X227179605Y-37525000D01*
X229776978Y-40122373D01*
X230277608Y-39749342D01*
X230879333Y-38325738D01*
X230890466Y-36780228D01*
X230309311Y-35348104D01*
X230277608Y-35300658D01*
X229776978Y-34927627D01*
X227179605Y-37525000D01*
X226820395Y-37525000D01*
X224223022Y-34927627D01*
X223722392Y-35300658D01*
X223120667Y-36724262D01*
X223109534Y-38269772D01*
X219135000Y-38269772D01*
X219135000Y-34748022D01*
X224402627Y-34748022D01*
X227000000Y-37345395D01*
X229597373Y-34748022D01*
X229224342Y-34247392D01*
X227800738Y-33645667D01*
X226255228Y-33634534D01*
X224823104Y-34215689D01*
X224775658Y-34247392D01*
X224402627Y-34748022D01*
X219135000Y-34748022D01*
X219135000Y-31285750D01*
X222615000Y-31285750D01*
X222615000Y-32876310D01*
X222711673Y-33109699D01*
X222890302Y-33288327D01*
X223123691Y-33385000D01*
X224714250Y-33385000D01*
X224873000Y-33226250D01*
X224873000Y-31127000D01*
X225127000Y-31127000D01*
X225127000Y-33226250D01*
X225285750Y-33385000D01*
X226876309Y-33385000D01*
X227109698Y-33288327D01*
X227288327Y-33109699D01*
X227385000Y-32876310D01*
X227385000Y-31285750D01*
X227226250Y-31127000D01*
X225127000Y-31127000D01*
X224873000Y-31127000D01*
X222773750Y-31127000D01*
X222615000Y-31285750D01*
X219135000Y-31285750D01*
X219135000Y-29123690D01*
X222615000Y-29123690D01*
X222615000Y-30714250D01*
X222773750Y-30873000D01*
X224873000Y-30873000D01*
X224873000Y-28773750D01*
X225127000Y-28773750D01*
X225127000Y-30873000D01*
X227226250Y-30873000D01*
X227385000Y-30714250D01*
X227385000Y-29123690D01*
X227288327Y-28890301D01*
X227109698Y-28711673D01*
X226876309Y-28615000D01*
X225285750Y-28615000D01*
X225127000Y-28773750D01*
X224873000Y-28773750D01*
X224714250Y-28615000D01*
X223123691Y-28615000D01*
X222890302Y-28711673D01*
X222711673Y-28890301D01*
X222615000Y-29123690D01*
X219135000Y-29123690D01*
X219135000Y-28147440D01*
X219500000Y-28147440D01*
X219735317Y-28103162D01*
X219951441Y-27964090D01*
X220096431Y-27751890D01*
X220147440Y-27500000D01*
X220147440Y-24500000D01*
X220103162Y-24264683D01*
X219964090Y-24048559D01*
X219751890Y-23903569D01*
X219500000Y-23852560D01*
X216500000Y-23852560D01*
X216264683Y-23896838D01*
X216048559Y-24035910D01*
X215903569Y-24248110D01*
X215852560Y-24500000D01*
X215852560Y-27500000D01*
X215896838Y-27735317D01*
X216035910Y-27951441D01*
X216248110Y-28096431D01*
X216500000Y-28147440D01*
X216865000Y-28147440D01*
X216865000Y-42529868D01*
X213897433Y-45497435D01*
X213651396Y-45865655D01*
X213564999Y-46300001D01*
X213564999Y-46658619D01*
X213261715Y-46718946D01*
X212863536Y-46985000D01*
X212256464Y-46985000D01*
X211858285Y-46718946D01*
X211290000Y-46605907D01*
X210721715Y-46718946D01*
X210239946Y-47040853D01*
X210012298Y-47381553D01*
X209945183Y-47238642D01*
X209516924Y-46848355D01*
X209106890Y-46678524D01*
X208877000Y-46799845D01*
X208877000Y-47993000D01*
X208897000Y-47993000D01*
X208897000Y-48247000D01*
X208877000Y-48247000D01*
X208877000Y-49440155D01*
X209106890Y-49561476D01*
X209516924Y-49391645D01*
X209945183Y-49001358D01*
X210012298Y-48858447D01*
X210239946Y-49199147D01*
X210721715Y-49521054D01*
X211290000Y-49634093D01*
X211858285Y-49521054D01*
X212256464Y-49255000D01*
X212863536Y-49255000D01*
X213261715Y-49521054D01*
X213830000Y-49634093D01*
X214398285Y-49521054D01*
X214880054Y-49199147D01*
X215201961Y-48717378D01*
X215287429Y-48287703D01*
X215502565Y-48072567D01*
X215661803Y-47834250D01*
X215748602Y-47704347D01*
X215834999Y-47270001D01*
X215834999Y-46770133D01*
X218000000Y-44605132D01*
X222197434Y-48802566D01*
X222565654Y-49048603D01*
X222640336Y-49063458D01*
X222602560Y-49250000D01*
X222602560Y-52750000D01*
X222624199Y-52865000D01*
X181135000Y-52865000D01*
X181135000Y-49810000D01*
X192012560Y-49810000D01*
X192012560Y-51510000D01*
X192056838Y-51745317D01*
X192195910Y-51961441D01*
X192408110Y-52106431D01*
X192660000Y-52157440D01*
X194360000Y-52157440D01*
X194595317Y-52113162D01*
X194811441Y-51974090D01*
X194956431Y-51761890D01*
X194978301Y-51653893D01*
X195283076Y-51931645D01*
X195693110Y-52101476D01*
X195923000Y-51980155D01*
X195923000Y-50787000D01*
X196177000Y-50787000D01*
X196177000Y-51980155D01*
X196406890Y-52101476D01*
X196816924Y-51931645D01*
X197245183Y-51541358D01*
X197320000Y-51382046D01*
X197394817Y-51541358D01*
X197823076Y-51931645D01*
X198233110Y-52101476D01*
X198463000Y-51980155D01*
X198463000Y-50787000D01*
X196177000Y-50787000D01*
X195923000Y-50787000D01*
X195903000Y-50787000D01*
X195903000Y-50533000D01*
X195923000Y-50533000D01*
X195923000Y-49339845D01*
X196177000Y-49339845D01*
X196177000Y-50533000D01*
X198463000Y-50533000D01*
X198463000Y-49339845D01*
X198717000Y-49339845D01*
X198717000Y-50533000D01*
X198737000Y-50533000D01*
X198737000Y-50787000D01*
X198717000Y-50787000D01*
X198717000Y-51980155D01*
X198946890Y-52101476D01*
X199356924Y-51931645D01*
X199785183Y-51541358D01*
X199852298Y-51398447D01*
X200079946Y-51739147D01*
X200561715Y-52061054D01*
X201130000Y-52174093D01*
X201698285Y-52061054D01*
X202180054Y-51739147D01*
X202400000Y-51409974D01*
X202619946Y-51739147D01*
X203101715Y-52061054D01*
X203670000Y-52174093D01*
X204238285Y-52061054D01*
X204720054Y-51739147D01*
X205041961Y-51257378D01*
X205155000Y-50689093D01*
X205155000Y-50630907D01*
X205041961Y-50062622D01*
X204720054Y-49580853D01*
X204238285Y-49258946D01*
X203670000Y-49145907D01*
X203101715Y-49258946D01*
X202619946Y-49580853D01*
X202400000Y-49910026D01*
X202180054Y-49580853D01*
X201698285Y-49258946D01*
X201130000Y-49145907D01*
X200561715Y-49258946D01*
X200079946Y-49580853D01*
X199852298Y-49921553D01*
X199785183Y-49778642D01*
X199356924Y-49388355D01*
X198946890Y-49218524D01*
X198717000Y-49339845D01*
X198463000Y-49339845D01*
X198233110Y-49218524D01*
X197823076Y-49388355D01*
X197394817Y-49778642D01*
X197320000Y-49937954D01*
X197245183Y-49778642D01*
X196816924Y-49388355D01*
X196406890Y-49218524D01*
X196177000Y-49339845D01*
X195923000Y-49339845D01*
X195693110Y-49218524D01*
X195283076Y-49388355D01*
X194980063Y-49664501D01*
X194963162Y-49574683D01*
X194824090Y-49358559D01*
X194611890Y-49213569D01*
X194360000Y-49162560D01*
X192660000Y-49162560D01*
X192424683Y-49206838D01*
X192208559Y-49345910D01*
X192063569Y-49558110D01*
X192012560Y-49810000D01*
X181135000Y-49810000D01*
X181135000Y-49255000D01*
X181928808Y-49255000D01*
X182035910Y-49421441D01*
X182248110Y-49566431D01*
X182500000Y-49617440D01*
X184200000Y-49617440D01*
X184435317Y-49573162D01*
X184651441Y-49434090D01*
X184773808Y-49255000D01*
X184923536Y-49255000D01*
X185321715Y-49521054D01*
X185890000Y-49634093D01*
X186458285Y-49521054D01*
X186940054Y-49199147D01*
X187167702Y-48858447D01*
X187234817Y-49001358D01*
X187663076Y-49391645D01*
X188073110Y-49561476D01*
X188303000Y-49440155D01*
X188303000Y-48247000D01*
X188557000Y-48247000D01*
X188557000Y-49440155D01*
X188786890Y-49561476D01*
X189196924Y-49391645D01*
X189625183Y-49001358D01*
X189700000Y-48842046D01*
X189774817Y-49001358D01*
X190203076Y-49391645D01*
X190613110Y-49561476D01*
X190843000Y-49440155D01*
X190843000Y-48247000D01*
X191097000Y-48247000D01*
X191097000Y-49440155D01*
X191326890Y-49561476D01*
X191736924Y-49391645D01*
X192165183Y-49001358D01*
X192411486Y-48476892D01*
X192374145Y-48405750D01*
X204725000Y-48405750D01*
X204725000Y-49096309D01*
X204821673Y-49329698D01*
X205000301Y-49508327D01*
X205233690Y-49605000D01*
X205924250Y-49605000D01*
X206083000Y-49446250D01*
X206083000Y-48247000D01*
X206337000Y-48247000D01*
X206337000Y-49446250D01*
X206495750Y-49605000D01*
X207186310Y-49605000D01*
X207419699Y-49508327D01*
X207598327Y-49329698D01*
X207685136Y-49120122D01*
X207983076Y-49391645D01*
X208393110Y-49561476D01*
X208623000Y-49440155D01*
X208623000Y-48247000D01*
X206337000Y-48247000D01*
X206083000Y-48247000D01*
X204883750Y-48247000D01*
X204725000Y-48405750D01*
X192374145Y-48405750D01*
X192290819Y-48247000D01*
X191097000Y-48247000D01*
X190843000Y-48247000D01*
X188557000Y-48247000D01*
X188303000Y-48247000D01*
X188283000Y-48247000D01*
X188283000Y-47993000D01*
X188303000Y-47993000D01*
X188303000Y-46799845D01*
X188557000Y-46799845D01*
X188557000Y-47993000D01*
X190843000Y-47993000D01*
X190843000Y-46799845D01*
X191097000Y-46799845D01*
X191097000Y-47993000D01*
X192290819Y-47993000D01*
X192411486Y-47763108D01*
X192165183Y-47238642D01*
X192060994Y-47143691D01*
X204725000Y-47143691D01*
X204725000Y-47834250D01*
X204883750Y-47993000D01*
X206083000Y-47993000D01*
X206083000Y-46793750D01*
X206337000Y-46793750D01*
X206337000Y-47993000D01*
X208623000Y-47993000D01*
X208623000Y-46799845D01*
X208393110Y-46678524D01*
X207983076Y-46848355D01*
X207685136Y-47119878D01*
X207598327Y-46910302D01*
X207419699Y-46731673D01*
X207186310Y-46635000D01*
X206495750Y-46635000D01*
X206337000Y-46793750D01*
X206083000Y-46793750D01*
X205924250Y-46635000D01*
X205233690Y-46635000D01*
X205000301Y-46731673D01*
X204821673Y-46910302D01*
X204725000Y-47143691D01*
X192060994Y-47143691D01*
X191736924Y-46848355D01*
X191326890Y-46678524D01*
X191097000Y-46799845D01*
X190843000Y-46799845D01*
X190613110Y-46678524D01*
X190203076Y-46848355D01*
X189774817Y-47238642D01*
X189700000Y-47397954D01*
X189625183Y-47238642D01*
X189196924Y-46848355D01*
X188786890Y-46678524D01*
X188557000Y-46799845D01*
X188303000Y-46799845D01*
X188073110Y-46678524D01*
X187663076Y-46848355D01*
X187234817Y-47238642D01*
X187167702Y-47381553D01*
X186940054Y-47040853D01*
X186458285Y-46718946D01*
X185890000Y-46605907D01*
X185321715Y-46718946D01*
X184923536Y-46985000D01*
X184771192Y-46985000D01*
X184664090Y-46818559D01*
X184451890Y-46673569D01*
X184200000Y-46622560D01*
X182500000Y-46622560D01*
X182264683Y-46666838D01*
X182048559Y-46805910D01*
X181926192Y-46985000D01*
X175130000Y-46985000D01*
X174695654Y-47071397D01*
X174353526Y-47300000D01*
X174327434Y-47317434D01*
X174279868Y-47365000D01*
X169634277Y-47365000D01*
X169647440Y-47300000D01*
X169647440Y-45700000D01*
X169603162Y-45464683D01*
X169464090Y-45248559D01*
X169251890Y-45103569D01*
X169000000Y-45052560D01*
X166700000Y-45052560D01*
X166464683Y-45096838D01*
X166248559Y-45235910D01*
X166103569Y-45448110D01*
X166052560Y-45700000D01*
X166052560Y-47300000D01*
X166096838Y-47535317D01*
X166235910Y-47751441D01*
X166448110Y-47896431D01*
X166700000Y-47947440D01*
X166715000Y-47947440D01*
X166715000Y-48179867D01*
X166197434Y-48697434D01*
X165951397Y-49065654D01*
X165865000Y-49500000D01*
X165865000Y-50047984D01*
X165722298Y-50261553D01*
X165655183Y-50118642D01*
X165226924Y-49728355D01*
X164816890Y-49558524D01*
X164587000Y-49679845D01*
X164333000Y-49679845D01*
X164103110Y-49558524D01*
X163693076Y-49728355D01*
X163264817Y-50118642D01*
X163018514Y-50643108D01*
X158239480Y-50643108D01*
X160392426Y-46785750D01*
X161365000Y-46785750D01*
X161365000Y-47426310D01*
X161461673Y-47659699D01*
X161640302Y-47838327D01*
X161873691Y-47935000D01*
X162864250Y-47935000D01*
X163023000Y-47776250D01*
X163023000Y-46627000D01*
X163277000Y-46627000D01*
X163277000Y-47776250D01*
X163435750Y-47935000D01*
X164426309Y-47935000D01*
X164659698Y-47838327D01*
X164838327Y-47659699D01*
X164935000Y-47426310D01*
X164935000Y-46785750D01*
X164776250Y-46627000D01*
X163277000Y-46627000D01*
X163023000Y-46627000D01*
X161523750Y-46627000D01*
X161365000Y-46785750D01*
X160392426Y-46785750D01*
X161068924Y-45573690D01*
X161365000Y-45573690D01*
X161365000Y-46214250D01*
X161523750Y-46373000D01*
X163023000Y-46373000D01*
X163023000Y-45223750D01*
X163277000Y-45223750D01*
X163277000Y-46373000D01*
X164776250Y-46373000D01*
X164935000Y-46214250D01*
X164935000Y-45573690D01*
X164838327Y-45340301D01*
X164659698Y-45161673D01*
X164426309Y-45065000D01*
X163435750Y-45065000D01*
X163277000Y-45223750D01*
X163023000Y-45223750D01*
X162864250Y-45065000D01*
X161873691Y-45065000D01*
X161640302Y-45161673D01*
X161461673Y-45340301D01*
X161365000Y-45573690D01*
X161068924Y-45573690D01*
X166970518Y-35000000D01*
X194865000Y-35000000D01*
X194951397Y-35434345D01*
X195197434Y-35802566D01*
X196865000Y-37470132D01*
X196865000Y-41000000D01*
X196951397Y-41434346D01*
X197197434Y-41802566D01*
X197565654Y-42048603D01*
X198000000Y-42135000D01*
X198434346Y-42048603D01*
X198802566Y-41802566D01*
X199000000Y-41507085D01*
X199197434Y-41802566D01*
X199565654Y-42048603D01*
X200000000Y-42135000D01*
X200434346Y-42048603D01*
X200802566Y-41802566D01*
X201048603Y-41434346D01*
X201135000Y-41000000D01*
X201135000Y-39709127D01*
X201161871Y-39749342D01*
X201197434Y-39802566D01*
X203197434Y-41802566D01*
X203565655Y-42048603D01*
X204000000Y-42135000D01*
X204434345Y-42048603D01*
X204802566Y-41802566D01*
X205048603Y-41434345D01*
X205135000Y-41000000D01*
X205048603Y-40565655D01*
X204802566Y-40197434D01*
X203135000Y-38529868D01*
X203135000Y-35000000D01*
X203048603Y-34565654D01*
X202802566Y-34197434D01*
X202434346Y-33951397D01*
X202000000Y-33865000D01*
X201565654Y-33951397D01*
X201197434Y-34197434D01*
X201000000Y-34492915D01*
X200802566Y-34197434D01*
X200434346Y-33951397D01*
X200000000Y-33865000D01*
X199565654Y-33951397D01*
X199197434Y-34197434D01*
X198951397Y-34565654D01*
X198865000Y-35000000D01*
X198865000Y-36290873D01*
X198802566Y-36197434D01*
X196802566Y-34197434D01*
X196434345Y-33951397D01*
X196000000Y-33865000D01*
X195565655Y-33951397D01*
X195197434Y-34197434D01*
X194951397Y-34565655D01*
X194865000Y-35000000D01*
X166970518Y-35000000D01*
X169043588Y-31285750D01*
X172615000Y-31285750D01*
X172615000Y-32876310D01*
X172711673Y-33109699D01*
X172890302Y-33288327D01*
X173123691Y-33385000D01*
X174714250Y-33385000D01*
X174873000Y-33226250D01*
X174873000Y-31127000D01*
X175127000Y-31127000D01*
X175127000Y-33226250D01*
X175285750Y-33385000D01*
X176876309Y-33385000D01*
X177109698Y-33288327D01*
X177288327Y-33109699D01*
X177385000Y-32876310D01*
X177385000Y-31285750D01*
X177226250Y-31127000D01*
X175127000Y-31127000D01*
X174873000Y-31127000D01*
X172773750Y-31127000D01*
X172615000Y-31285750D01*
X169043588Y-31285750D01*
X170250319Y-29123690D01*
X172615000Y-29123690D01*
X172615000Y-30714250D01*
X172773750Y-30873000D01*
X174873000Y-30873000D01*
X174873000Y-28773750D01*
X175127000Y-28773750D01*
X175127000Y-30873000D01*
X177226250Y-30873000D01*
X177385000Y-30714250D01*
X177385000Y-29123690D01*
X177288327Y-28890301D01*
X177109698Y-28711673D01*
X176876309Y-28615000D01*
X175285750Y-28615000D01*
X175127000Y-28773750D01*
X174873000Y-28773750D01*
X174714250Y-28615000D01*
X173123691Y-28615000D01*
X172890302Y-28711673D01*
X172711673Y-28890301D01*
X172615000Y-29123690D01*
X170250319Y-29123690D01*
X171834285Y-26285750D01*
X207865000Y-26285750D01*
X207865000Y-27626310D01*
X207961673Y-27859699D01*
X208140302Y-28038327D01*
X208373691Y-28135000D01*
X209714250Y-28135000D01*
X209873000Y-27976250D01*
X209873000Y-26127000D01*
X210127000Y-26127000D01*
X210127000Y-27976250D01*
X210285750Y-28135000D01*
X211626309Y-28135000D01*
X211859698Y-28038327D01*
X212038327Y-27859699D01*
X212135000Y-27626310D01*
X212135000Y-26285750D01*
X211976250Y-26127000D01*
X210127000Y-26127000D01*
X209873000Y-26127000D01*
X208023750Y-26127000D01*
X207865000Y-26285750D01*
X171834285Y-26285750D01*
X172901481Y-24373690D01*
X207865000Y-24373690D01*
X207865000Y-25714250D01*
X208023750Y-25873000D01*
X209873000Y-25873000D01*
X209873000Y-24023750D01*
X210127000Y-24023750D01*
X210127000Y-25873000D01*
X211976250Y-25873000D01*
X212135000Y-25714250D01*
X212135000Y-24373690D01*
X212038327Y-24140301D01*
X211859698Y-23961673D01*
X211626309Y-23865000D01*
X210285750Y-23865000D01*
X210127000Y-24023750D01*
X209873000Y-24023750D01*
X209714250Y-23865000D01*
X208373691Y-23865000D01*
X208140302Y-23961673D01*
X207961673Y-24140301D01*
X207865000Y-24373690D01*
X172901481Y-24373690D01*
X174402147Y-21685000D01*
X225597853Y-21685000D01*
X249213315Y-63996036D01*
G36*
X210202560Y-100877292D02*
X209343088Y-101736764D01*
X209521486Y-101356892D01*
X209400819Y-101127000D01*
X208207000Y-101127000D01*
X208207000Y-101147000D01*
X207953000Y-101147000D01*
X207953000Y-101127000D01*
X207933000Y-101127000D01*
X207933000Y-100873000D01*
X207953000Y-100873000D01*
X207953000Y-100853000D01*
X208207000Y-100853000D01*
X208207000Y-100873000D01*
X209400819Y-100873000D01*
X209521486Y-100643108D01*
X209432520Y-100453668D01*
X209565838Y-100427149D01*
X209812400Y-100262402D01*
X210202560Y-99872242D01*
X210202560Y-100877292D01*
X210202560Y-100877292D01*
G37*
X210202560Y-100877292D02*
X209343088Y-101736764D01*
X209521486Y-101356892D01*
X209400819Y-101127000D01*
X208207000Y-101127000D01*
X208207000Y-101147000D01*
X207953000Y-101147000D01*
X207953000Y-101127000D01*
X207933000Y-101127000D01*
X207933000Y-100873000D01*
X207953000Y-100873000D01*
X207953000Y-100853000D01*
X208207000Y-100853000D01*
X208207000Y-100873000D01*
X209400819Y-100873000D01*
X209521486Y-100643108D01*
X209432520Y-100453668D01*
X209565838Y-100427149D01*
X209812400Y-100262402D01*
X210202560Y-99872242D01*
X210202560Y-100877292D01*
G36*
X187934159Y-73297852D02*
X187687597Y-73462599D01*
X185922599Y-75227597D01*
X185757852Y-75474159D01*
X185700000Y-75764998D01*
X185700000Y-77227046D01*
X185409946Y-77420853D01*
X185182298Y-77761553D01*
X185115183Y-77618642D01*
X184686924Y-77228355D01*
X184276890Y-77058524D01*
X184047000Y-77179845D01*
X184047000Y-78373000D01*
X184067000Y-78373000D01*
X184067000Y-78627000D01*
X184047000Y-78627000D01*
X184047000Y-79820155D01*
X184276890Y-79941476D01*
X184686924Y-79771645D01*
X185115183Y-79381358D01*
X185182298Y-79238447D01*
X185409946Y-79579147D01*
X185891715Y-79901054D01*
X186460000Y-80014093D01*
X187028285Y-79901054D01*
X187510054Y-79579147D01*
X187730000Y-79249974D01*
X187949946Y-79579147D01*
X188431715Y-79901054D01*
X189000000Y-80014093D01*
X189568285Y-79901054D01*
X190050054Y-79579147D01*
X190371961Y-79097378D01*
X190485000Y-78529093D01*
X190485000Y-78470907D01*
X190371961Y-77902622D01*
X190050054Y-77420853D01*
X189568285Y-77098946D01*
X189560000Y-77097298D01*
X189560000Y-76795558D01*
X189785317Y-76753162D01*
X190001441Y-76614090D01*
X190146431Y-76401890D01*
X190149081Y-76388803D01*
X190285910Y-76601441D01*
X190498110Y-76746431D01*
X190750000Y-76797440D01*
X192250000Y-76797440D01*
X192485317Y-76753162D01*
X192701441Y-76614090D01*
X192846431Y-76401890D01*
X192875164Y-76260000D01*
X193185198Y-76260000D01*
X193462599Y-76537401D01*
X193709161Y-76702148D01*
X194000000Y-76760000D01*
X194535025Y-76760000D01*
X194593397Y-76799884D01*
X194498559Y-76860910D01*
X194409505Y-76991245D01*
X194315000Y-77085750D01*
X194315000Y-77201310D01*
X194323468Y-77221753D01*
X194302560Y-77325000D01*
X194302560Y-77875000D01*
X194322450Y-77980705D01*
X194315000Y-77998690D01*
X194315000Y-78114250D01*
X194411401Y-78210651D01*
X194485910Y-78326441D01*
X194593397Y-78399884D01*
X194531054Y-78440000D01*
X194300000Y-78440000D01*
X194009160Y-78497852D01*
X193762599Y-78662599D01*
X191052200Y-81372998D01*
X190976252Y-81372998D01*
X191135000Y-81214250D01*
X191135000Y-80748690D01*
X191038327Y-80515301D01*
X190859698Y-80336673D01*
X190626309Y-80240000D01*
X190035750Y-80240000D01*
X189877000Y-80398750D01*
X189877000Y-81373000D01*
X189897000Y-81373000D01*
X189897000Y-81627000D01*
X189877000Y-81627000D01*
X189877000Y-81647000D01*
X189623000Y-81647000D01*
X189623000Y-81627000D01*
X189603000Y-81627000D01*
X189603000Y-81373000D01*
X189623000Y-81373000D01*
X189623000Y-80398750D01*
X189464250Y-80240000D01*
X188873691Y-80240000D01*
X188640302Y-80336673D01*
X188499064Y-80477910D01*
X188464090Y-80423559D01*
X188251890Y-80278569D01*
X188000000Y-80227560D01*
X186500000Y-80227560D01*
X186264683Y-80271838D01*
X186048559Y-80410910D01*
X185903569Y-80623110D01*
X185878262Y-80748079D01*
X185853162Y-80614683D01*
X185714090Y-80398559D01*
X185501890Y-80253569D01*
X185250000Y-80202560D01*
X183760000Y-80202560D01*
X183760000Y-80120000D01*
X183709158Y-79864401D01*
X183793000Y-79820155D01*
X183793000Y-78627000D01*
X183773000Y-78627000D01*
X183773000Y-78373000D01*
X183793000Y-78373000D01*
X183793000Y-77179845D01*
X183563110Y-77058524D01*
X183153076Y-77228355D01*
X182850063Y-77504501D01*
X182833162Y-77414683D01*
X182694090Y-77198559D01*
X182481890Y-77053569D01*
X182230000Y-77002560D01*
X180530000Y-77002560D01*
X180294683Y-77046838D01*
X180078559Y-77185910D01*
X179933569Y-77398110D01*
X179882560Y-77650000D01*
X179882560Y-79350000D01*
X179926838Y-79585317D01*
X180065910Y-79801441D01*
X180278110Y-79946431D01*
X180530000Y-79997440D01*
X181802638Y-79997440D01*
X182052974Y-80247776D01*
X181927000Y-80373750D01*
X181927000Y-81373000D01*
X181947000Y-81373000D01*
X181947000Y-81627000D01*
X181927000Y-81627000D01*
X181927000Y-82626250D01*
X182085750Y-82785000D01*
X182460995Y-82785000D01*
X182462599Y-82787401D01*
X182472469Y-82797271D01*
X182403569Y-82898110D01*
X182352560Y-83150000D01*
X182352560Y-83950000D01*
X182396838Y-84185317D01*
X182400848Y-84191548D01*
X182352560Y-84430000D01*
X182352560Y-85230000D01*
X182396838Y-85465317D01*
X182397767Y-85466761D01*
X182352560Y-85690000D01*
X182352560Y-86490000D01*
X182396838Y-86725317D01*
X182399307Y-86729155D01*
X182352560Y-86960000D01*
X182352560Y-87760000D01*
X182396838Y-87995317D01*
X182400848Y-88001548D01*
X182352560Y-88240000D01*
X182352560Y-89040000D01*
X182396838Y-89275317D01*
X182399307Y-89279155D01*
X182352560Y-89510000D01*
X182352560Y-90310000D01*
X182396838Y-90545317D01*
X182397767Y-90546761D01*
X182352560Y-90770000D01*
X182352560Y-91570000D01*
X182396838Y-91805317D01*
X182400848Y-91811548D01*
X182352560Y-92050000D01*
X182352560Y-92850000D01*
X182396838Y-93085317D01*
X182535910Y-93301441D01*
X182748110Y-93446431D01*
X183000000Y-93497440D01*
X184300000Y-93497440D01*
X184535317Y-93453162D01*
X184751441Y-93314090D01*
X184896431Y-93101890D01*
X184947440Y-92850000D01*
X184947440Y-92050000D01*
X184903162Y-91814683D01*
X184899152Y-91808452D01*
X184947440Y-91570000D01*
X184947440Y-90770000D01*
X184903162Y-90534683D01*
X184902233Y-90533239D01*
X184947440Y-90310000D01*
X184947440Y-89510000D01*
X184903162Y-89274683D01*
X184900693Y-89270845D01*
X184947440Y-89040000D01*
X184947440Y-89035750D01*
X185965000Y-89035750D01*
X185965000Y-89751309D01*
X186061673Y-89984698D01*
X186240301Y-90163327D01*
X186473690Y-90260000D01*
X188714250Y-90260000D01*
X188873000Y-90101250D01*
X188873000Y-88877000D01*
X189127000Y-88877000D01*
X189127000Y-90101250D01*
X189285750Y-90260000D01*
X191526310Y-90260000D01*
X191759699Y-90163327D01*
X191938327Y-89984698D01*
X192035000Y-89751309D01*
X192035000Y-89035750D01*
X191876250Y-88877000D01*
X189127000Y-88877000D01*
X188873000Y-88877000D01*
X186123750Y-88877000D01*
X185965000Y-89035750D01*
X184947440Y-89035750D01*
X184947440Y-88240000D01*
X184903162Y-88004683D01*
X184899152Y-87998452D01*
X184947440Y-87760000D01*
X184947440Y-87748691D01*
X185965000Y-87748691D01*
X185965000Y-88464250D01*
X186123750Y-88623000D01*
X188873000Y-88623000D01*
X188873000Y-87398750D01*
X189127000Y-87398750D01*
X189127000Y-88623000D01*
X191876250Y-88623000D01*
X192035000Y-88464250D01*
X192035000Y-87748691D01*
X191938327Y-87515302D01*
X191759699Y-87336673D01*
X191526310Y-87240000D01*
X189285750Y-87240000D01*
X189127000Y-87398750D01*
X188873000Y-87398750D01*
X188714250Y-87240000D01*
X186473690Y-87240000D01*
X186240301Y-87336673D01*
X186061673Y-87515302D01*
X185965000Y-87748691D01*
X184947440Y-87748691D01*
X184947440Y-86960000D01*
X184903162Y-86724683D01*
X184900693Y-86720845D01*
X184947440Y-86490000D01*
X184947440Y-85690000D01*
X184903162Y-85454683D01*
X184902233Y-85453239D01*
X184947440Y-85230000D01*
X184947440Y-84430000D01*
X184903162Y-84194683D01*
X184899152Y-84188452D01*
X184947440Y-83950000D01*
X184947440Y-83660000D01*
X190600000Y-83660000D01*
X190890839Y-83602148D01*
X191137401Y-83437401D01*
X191240000Y-83334802D01*
X191240000Y-83977560D01*
X186600000Y-83977560D01*
X186364683Y-84021838D01*
X186148559Y-84160910D01*
X186003569Y-84373110D01*
X185952560Y-84625000D01*
X185952560Y-86375000D01*
X185996838Y-86610317D01*
X186135910Y-86826441D01*
X186348110Y-86971431D01*
X186600000Y-87022440D01*
X191400000Y-87022440D01*
X191635317Y-86978162D01*
X191851441Y-86839090D01*
X191996431Y-86626890D01*
X192047440Y-86375000D01*
X192047440Y-86130920D01*
X192187401Y-86037401D01*
X192240000Y-85984802D01*
X192240000Y-90685198D01*
X192008286Y-90916912D01*
X192003162Y-90889683D01*
X191864090Y-90673559D01*
X191651890Y-90528569D01*
X191400000Y-90477560D01*
X186600000Y-90477560D01*
X186364683Y-90521838D01*
X186148559Y-90660910D01*
X186003569Y-90873110D01*
X185952560Y-91125000D01*
X185952560Y-92875000D01*
X185996838Y-93110317D01*
X186135910Y-93326441D01*
X186348110Y-93471431D01*
X186600000Y-93522440D01*
X191400000Y-93522440D01*
X191635317Y-93478162D01*
X191851441Y-93339090D01*
X191996431Y-93126890D01*
X192047440Y-92875000D01*
X192047440Y-92750564D01*
X192290839Y-92702148D01*
X192537401Y-92537401D01*
X192789052Y-92285750D01*
X195365000Y-92285750D01*
X195365000Y-92676310D01*
X195461673Y-92909699D01*
X195640302Y-93088327D01*
X195873691Y-93185000D01*
X196614250Y-93185000D01*
X196773000Y-93026250D01*
X196773000Y-92127000D01*
X197027000Y-92127000D01*
X197027000Y-93026250D01*
X197185750Y-93185000D01*
X197926309Y-93185000D01*
X198159698Y-93088327D01*
X198338327Y-92909699D01*
X198435000Y-92676310D01*
X198435000Y-92285750D01*
X198276250Y-92127000D01*
X197027000Y-92127000D01*
X196773000Y-92127000D01*
X195523750Y-92127000D01*
X195365000Y-92285750D01*
X192789052Y-92285750D01*
X193537401Y-91537401D01*
X193680197Y-91323690D01*
X195365000Y-91323690D01*
X195365000Y-91714250D01*
X195523750Y-91873000D01*
X196773000Y-91873000D01*
X196773000Y-90973750D01*
X197027000Y-90973750D01*
X197027000Y-91873000D01*
X198276250Y-91873000D01*
X198435000Y-91714250D01*
X198435000Y-91323690D01*
X198338327Y-91090301D01*
X198159698Y-90911673D01*
X197926309Y-90815000D01*
X197185750Y-90815000D01*
X197027000Y-90973750D01*
X196773000Y-90973750D01*
X196614250Y-90815000D01*
X195873691Y-90815000D01*
X195640302Y-90911673D01*
X195461673Y-91090301D01*
X195365000Y-91323690D01*
X193680197Y-91323690D01*
X193702148Y-91290839D01*
X193760000Y-91000000D01*
X193760000Y-87810663D01*
X193808607Y-87883409D01*
X194762599Y-88837401D01*
X195009160Y-89002148D01*
X195032432Y-89006777D01*
X195300000Y-89060000D01*
X195392074Y-89060000D01*
X195396838Y-89085317D01*
X195535910Y-89301441D01*
X195748110Y-89446431D01*
X196000000Y-89497440D01*
X197800000Y-89497440D01*
X198035317Y-89453162D01*
X198251441Y-89314090D01*
X198396431Y-89101890D01*
X198447440Y-88850000D01*
X198447440Y-87750000D01*
X198428142Y-87647440D01*
X199000000Y-87647440D01*
X199235317Y-87603162D01*
X199451441Y-87464090D01*
X199499134Y-87394289D01*
X199535910Y-87451441D01*
X199748110Y-87596431D01*
X200000000Y-87647440D01*
X200461563Y-87647440D01*
X199448349Y-88660654D01*
X199283602Y-88907216D01*
X199225750Y-89198055D01*
X199225750Y-93699448D01*
X197382599Y-95542599D01*
X197217852Y-95789161D01*
X197160000Y-96080000D01*
X197160000Y-96962560D01*
X197070000Y-96962560D01*
X196834683Y-97006838D01*
X196618559Y-97145910D01*
X196473569Y-97358110D01*
X196422560Y-97610000D01*
X196422560Y-98974821D01*
X193385000Y-98974821D01*
X193385000Y-98085750D01*
X193226250Y-97927000D01*
X191877000Y-97927000D01*
X191877000Y-99526250D01*
X192035750Y-99685000D01*
X192240198Y-99685000D01*
X191560197Y-100365001D01*
X190584944Y-100365001D01*
X190585188Y-100085127D01*
X190420354Y-99686200D01*
X190115405Y-99380718D01*
X189716767Y-99215189D01*
X189682866Y-99215159D01*
X189688327Y-99209698D01*
X189785000Y-98976309D01*
X189785000Y-98085750D01*
X190115000Y-98085750D01*
X190115000Y-99176309D01*
X190211673Y-99409698D01*
X190390301Y-99588327D01*
X190623690Y-99685000D01*
X191464250Y-99685000D01*
X191623000Y-99526250D01*
X191623000Y-97927000D01*
X190273750Y-97927000D01*
X190115000Y-98085750D01*
X189785000Y-98085750D01*
X189785000Y-97985750D01*
X189626250Y-97827000D01*
X189025000Y-97827000D01*
X189025000Y-97847000D01*
X188997440Y-97847000D01*
X188997440Y-96550000D01*
X188953162Y-96314683D01*
X188814090Y-96098559D01*
X188777781Y-96073750D01*
X189025000Y-96073750D01*
X189025000Y-97573000D01*
X189626250Y-97573000D01*
X189785000Y-97414250D01*
X189785000Y-96423691D01*
X190115000Y-96423691D01*
X190115000Y-97514250D01*
X190273750Y-97673000D01*
X191623000Y-97673000D01*
X191623000Y-96073750D01*
X191877000Y-96073750D01*
X191877000Y-97673000D01*
X193226250Y-97673000D01*
X193385000Y-97514250D01*
X193385000Y-96423691D01*
X193288327Y-96190302D01*
X193109699Y-96011673D01*
X192876310Y-95915000D01*
X192035750Y-95915000D01*
X191877000Y-96073750D01*
X191623000Y-96073750D01*
X191464250Y-95915000D01*
X190623690Y-95915000D01*
X190390301Y-96011673D01*
X190211673Y-96190302D01*
X190115000Y-96423691D01*
X189785000Y-96423691D01*
X189688327Y-96190302D01*
X189509699Y-96011673D01*
X189276310Y-95915000D01*
X189183750Y-95915000D01*
X189025000Y-96073750D01*
X188777781Y-96073750D01*
X188769001Y-96067751D01*
X188616250Y-95915000D01*
X188523690Y-95915000D01*
X188486829Y-95930268D01*
X188350000Y-95902560D01*
X188060000Y-95902560D01*
X188060000Y-95500000D01*
X188002148Y-95209161D01*
X187837401Y-94962599D01*
X186837401Y-93962599D01*
X186590839Y-93797852D01*
X186300000Y-93740000D01*
X181314802Y-93740000D01*
X179760000Y-92185198D01*
X179760000Y-89390000D01*
X179740276Y-89290840D01*
X179702148Y-89099160D01*
X179537401Y-88852599D01*
X178787401Y-88102599D01*
X178603012Y-87979394D01*
X178647440Y-87760000D01*
X178647440Y-86960000D01*
X178607478Y-86747621D01*
X178787401Y-86627401D01*
X180037401Y-85377401D01*
X180202148Y-85130839D01*
X180260000Y-84840000D01*
X180260000Y-81785750D01*
X180415000Y-81785750D01*
X180415000Y-82276310D01*
X180511673Y-82509699D01*
X180690302Y-82688327D01*
X180923691Y-82785000D01*
X181514250Y-82785000D01*
X181673000Y-82626250D01*
X181673000Y-81627000D01*
X180573750Y-81627000D01*
X180415000Y-81785750D01*
X180260000Y-81785750D01*
X180260000Y-81292878D01*
X180202148Y-81002039D01*
X180037401Y-80755477D01*
X180005614Y-80723690D01*
X180415000Y-80723690D01*
X180415000Y-81214250D01*
X180573750Y-81373000D01*
X181673000Y-81373000D01*
X181673000Y-80373750D01*
X181514250Y-80215000D01*
X180923691Y-80215000D01*
X180690302Y-80311673D01*
X180511673Y-80490301D01*
X180415000Y-80723690D01*
X180005614Y-80723690D01*
X179760000Y-80478076D01*
X179760000Y-75314802D01*
X181814802Y-73260000D01*
X188124452Y-73260000D01*
X187934159Y-73297852D01*
X187934159Y-73297852D01*
G37*
X187934159Y-73297852D02*
X187687597Y-73462599D01*
X185922599Y-75227597D01*
X185757852Y-75474159D01*
X185700000Y-75764998D01*
X185700000Y-77227046D01*
X185409946Y-77420853D01*
X185182298Y-77761553D01*
X185115183Y-77618642D01*
X184686924Y-77228355D01*
X184276890Y-77058524D01*
X184047000Y-77179845D01*
X184047000Y-78373000D01*
X184067000Y-78373000D01*
X184067000Y-78627000D01*
X184047000Y-78627000D01*
X184047000Y-79820155D01*
X184276890Y-79941476D01*
X184686924Y-79771645D01*
X185115183Y-79381358D01*
X185182298Y-79238447D01*
X185409946Y-79579147D01*
X185891715Y-79901054D01*
X186460000Y-80014093D01*
X187028285Y-79901054D01*
X187510054Y-79579147D01*
X187730000Y-79249974D01*
X187949946Y-79579147D01*
X188431715Y-79901054D01*
X189000000Y-80014093D01*
X189568285Y-79901054D01*
X190050054Y-79579147D01*
X190371961Y-79097378D01*
X190485000Y-78529093D01*
X190485000Y-78470907D01*
X190371961Y-77902622D01*
X190050054Y-77420853D01*
X189568285Y-77098946D01*
X189560000Y-77097298D01*
X189560000Y-76795558D01*
X189785317Y-76753162D01*
X190001441Y-76614090D01*
X190146431Y-76401890D01*
X190149081Y-76388803D01*
X190285910Y-76601441D01*
X190498110Y-76746431D01*
X190750000Y-76797440D01*
X192250000Y-76797440D01*
X192485317Y-76753162D01*
X192701441Y-76614090D01*
X192846431Y-76401890D01*
X192875164Y-76260000D01*
X193185198Y-76260000D01*
X193462599Y-76537401D01*
X193709161Y-76702148D01*
X194000000Y-76760000D01*
X194535025Y-76760000D01*
X194593397Y-76799884D01*
X194498559Y-76860910D01*
X194409505Y-76991245D01*
X194315000Y-77085750D01*
X194315000Y-77201310D01*
X194323468Y-77221753D01*
X194302560Y-77325000D01*
X194302560Y-77875000D01*
X194322450Y-77980705D01*
X194315000Y-77998690D01*
X194315000Y-78114250D01*
X194411401Y-78210651D01*
X194485910Y-78326441D01*
X194593397Y-78399884D01*
X194531054Y-78440000D01*
X194300000Y-78440000D01*
X194009160Y-78497852D01*
X193762599Y-78662599D01*
X191052200Y-81372998D01*
X190976252Y-81372998D01*
X191135000Y-81214250D01*
X191135000Y-80748690D01*
X191038327Y-80515301D01*
X190859698Y-80336673D01*
X190626309Y-80240000D01*
X190035750Y-80240000D01*
X189877000Y-80398750D01*
X189877000Y-81373000D01*
X189897000Y-81373000D01*
X189897000Y-81627000D01*
X189877000Y-81627000D01*
X189877000Y-81647000D01*
X189623000Y-81647000D01*
X189623000Y-81627000D01*
X189603000Y-81627000D01*
X189603000Y-81373000D01*
X189623000Y-81373000D01*
X189623000Y-80398750D01*
X189464250Y-80240000D01*
X188873691Y-80240000D01*
X188640302Y-80336673D01*
X188499064Y-80477910D01*
X188464090Y-80423559D01*
X188251890Y-80278569D01*
X188000000Y-80227560D01*
X186500000Y-80227560D01*
X186264683Y-80271838D01*
X186048559Y-80410910D01*
X185903569Y-80623110D01*
X185878262Y-80748079D01*
X185853162Y-80614683D01*
X185714090Y-80398559D01*
X185501890Y-80253569D01*
X185250000Y-80202560D01*
X183760000Y-80202560D01*
X183760000Y-80120000D01*
X183709158Y-79864401D01*
X183793000Y-79820155D01*
X183793000Y-78627000D01*
X183773000Y-78627000D01*
X183773000Y-78373000D01*
X183793000Y-78373000D01*
X183793000Y-77179845D01*
X183563110Y-77058524D01*
X183153076Y-77228355D01*
X182850063Y-77504501D01*
X182833162Y-77414683D01*
X182694090Y-77198559D01*
X182481890Y-77053569D01*
X182230000Y-77002560D01*
X180530000Y-77002560D01*
X180294683Y-77046838D01*
X180078559Y-77185910D01*
X179933569Y-77398110D01*
X179882560Y-77650000D01*
X179882560Y-79350000D01*
X179926838Y-79585317D01*
X180065910Y-79801441D01*
X180278110Y-79946431D01*
X180530000Y-79997440D01*
X181802638Y-79997440D01*
X182052974Y-80247776D01*
X181927000Y-80373750D01*
X181927000Y-81373000D01*
X181947000Y-81373000D01*
X181947000Y-81627000D01*
X181927000Y-81627000D01*
X181927000Y-82626250D01*
X182085750Y-82785000D01*
X182460995Y-82785000D01*
X182462599Y-82787401D01*
X182472469Y-82797271D01*
X182403569Y-82898110D01*
X182352560Y-83150000D01*
X182352560Y-83950000D01*
X182396838Y-84185317D01*
X182400848Y-84191548D01*
X182352560Y-84430000D01*
X182352560Y-85230000D01*
X182396838Y-85465317D01*
X182397767Y-85466761D01*
X182352560Y-85690000D01*
X182352560Y-86490000D01*
X182396838Y-86725317D01*
X182399307Y-86729155D01*
X182352560Y-86960000D01*
X182352560Y-87760000D01*
X182396838Y-87995317D01*
X182400848Y-88001548D01*
X182352560Y-88240000D01*
X182352560Y-89040000D01*
X182396838Y-89275317D01*
X182399307Y-89279155D01*
X182352560Y-89510000D01*
X182352560Y-90310000D01*
X182396838Y-90545317D01*
X182397767Y-90546761D01*
X182352560Y-90770000D01*
X182352560Y-91570000D01*
X182396838Y-91805317D01*
X182400848Y-91811548D01*
X182352560Y-92050000D01*
X182352560Y-92850000D01*
X182396838Y-93085317D01*
X182535910Y-93301441D01*
X182748110Y-93446431D01*
X183000000Y-93497440D01*
X184300000Y-93497440D01*
X184535317Y-93453162D01*
X184751441Y-93314090D01*
X184896431Y-93101890D01*
X184947440Y-92850000D01*
X184947440Y-92050000D01*
X184903162Y-91814683D01*
X184899152Y-91808452D01*
X184947440Y-91570000D01*
X184947440Y-90770000D01*
X184903162Y-90534683D01*
X184902233Y-90533239D01*
X184947440Y-90310000D01*
X184947440Y-89510000D01*
X184903162Y-89274683D01*
X184900693Y-89270845D01*
X184947440Y-89040000D01*
X184947440Y-89035750D01*
X185965000Y-89035750D01*
X185965000Y-89751309D01*
X186061673Y-89984698D01*
X186240301Y-90163327D01*
X186473690Y-90260000D01*
X188714250Y-90260000D01*
X188873000Y-90101250D01*
X188873000Y-88877000D01*
X189127000Y-88877000D01*
X189127000Y-90101250D01*
X189285750Y-90260000D01*
X191526310Y-90260000D01*
X191759699Y-90163327D01*
X191938327Y-89984698D01*
X192035000Y-89751309D01*
X192035000Y-89035750D01*
X191876250Y-88877000D01*
X189127000Y-88877000D01*
X188873000Y-88877000D01*
X186123750Y-88877000D01*
X185965000Y-89035750D01*
X184947440Y-89035750D01*
X184947440Y-88240000D01*
X184903162Y-88004683D01*
X184899152Y-87998452D01*
X184947440Y-87760000D01*
X184947440Y-87748691D01*
X185965000Y-87748691D01*
X185965000Y-88464250D01*
X186123750Y-88623000D01*
X188873000Y-88623000D01*
X188873000Y-87398750D01*
X189127000Y-87398750D01*
X189127000Y-88623000D01*
X191876250Y-88623000D01*
X192035000Y-88464250D01*
X192035000Y-87748691D01*
X191938327Y-87515302D01*
X191759699Y-87336673D01*
X191526310Y-87240000D01*
X189285750Y-87240000D01*
X189127000Y-87398750D01*
X188873000Y-87398750D01*
X188714250Y-87240000D01*
X186473690Y-87240000D01*
X186240301Y-87336673D01*
X186061673Y-87515302D01*
X185965000Y-87748691D01*
X184947440Y-87748691D01*
X184947440Y-86960000D01*
X184903162Y-86724683D01*
X184900693Y-86720845D01*
X184947440Y-86490000D01*
X184947440Y-85690000D01*
X184903162Y-85454683D01*
X184902233Y-85453239D01*
X184947440Y-85230000D01*
X184947440Y-84430000D01*
X184903162Y-84194683D01*
X184899152Y-84188452D01*
X184947440Y-83950000D01*
X184947440Y-83660000D01*
X190600000Y-83660000D01*
X190890839Y-83602148D01*
X191137401Y-83437401D01*
X191240000Y-83334802D01*
X191240000Y-83977560D01*
X186600000Y-83977560D01*
X186364683Y-84021838D01*
X186148559Y-84160910D01*
X186003569Y-84373110D01*
X185952560Y-84625000D01*
X185952560Y-86375000D01*
X185996838Y-86610317D01*
X186135910Y-86826441D01*
X186348110Y-86971431D01*
X186600000Y-87022440D01*
X191400000Y-87022440D01*
X191635317Y-86978162D01*
X191851441Y-86839090D01*
X191996431Y-86626890D01*
X192047440Y-86375000D01*
X192047440Y-86130920D01*
X192187401Y-86037401D01*
X192240000Y-85984802D01*
X192240000Y-90685198D01*
X192008286Y-90916912D01*
X192003162Y-90889683D01*
X191864090Y-90673559D01*
X191651890Y-90528569D01*
X191400000Y-90477560D01*
X186600000Y-90477560D01*
X186364683Y-90521838D01*
X186148559Y-90660910D01*
X186003569Y-90873110D01*
X185952560Y-91125000D01*
X185952560Y-92875000D01*
X185996838Y-93110317D01*
X186135910Y-93326441D01*
X186348110Y-93471431D01*
X186600000Y-93522440D01*
X191400000Y-93522440D01*
X191635317Y-93478162D01*
X191851441Y-93339090D01*
X191996431Y-93126890D01*
X192047440Y-92875000D01*
X192047440Y-92750564D01*
X192290839Y-92702148D01*
X192537401Y-92537401D01*
X192789052Y-92285750D01*
X195365000Y-92285750D01*
X195365000Y-92676310D01*
X195461673Y-92909699D01*
X195640302Y-93088327D01*
X195873691Y-93185000D01*
X196614250Y-93185000D01*
X196773000Y-93026250D01*
X196773000Y-92127000D01*
X197027000Y-92127000D01*
X197027000Y-93026250D01*
X197185750Y-93185000D01*
X197926309Y-93185000D01*
X198159698Y-93088327D01*
X198338327Y-92909699D01*
X198435000Y-92676310D01*
X198435000Y-92285750D01*
X198276250Y-92127000D01*
X197027000Y-92127000D01*
X196773000Y-92127000D01*
X195523750Y-92127000D01*
X195365000Y-92285750D01*
X192789052Y-92285750D01*
X193537401Y-91537401D01*
X193680197Y-91323690D01*
X195365000Y-91323690D01*
X195365000Y-91714250D01*
X195523750Y-91873000D01*
X196773000Y-91873000D01*
X196773000Y-90973750D01*
X197027000Y-90973750D01*
X197027000Y-91873000D01*
X198276250Y-91873000D01*
X198435000Y-91714250D01*
X198435000Y-91323690D01*
X198338327Y-91090301D01*
X198159698Y-90911673D01*
X197926309Y-90815000D01*
X197185750Y-90815000D01*
X197027000Y-90973750D01*
X196773000Y-90973750D01*
X196614250Y-90815000D01*
X195873691Y-90815000D01*
X195640302Y-90911673D01*
X195461673Y-91090301D01*
X195365000Y-91323690D01*
X193680197Y-91323690D01*
X193702148Y-91290839D01*
X193760000Y-91000000D01*
X193760000Y-87810663D01*
X193808607Y-87883409D01*
X194762599Y-88837401D01*
X195009160Y-89002148D01*
X195032432Y-89006777D01*
X195300000Y-89060000D01*
X195392074Y-89060000D01*
X195396838Y-89085317D01*
X195535910Y-89301441D01*
X195748110Y-89446431D01*
X196000000Y-89497440D01*
X197800000Y-89497440D01*
X198035317Y-89453162D01*
X198251441Y-89314090D01*
X198396431Y-89101890D01*
X198447440Y-88850000D01*
X198447440Y-87750000D01*
X198428142Y-87647440D01*
X199000000Y-87647440D01*
X199235317Y-87603162D01*
X199451441Y-87464090D01*
X199499134Y-87394289D01*
X199535910Y-87451441D01*
X199748110Y-87596431D01*
X200000000Y-87647440D01*
X200461563Y-87647440D01*
X199448349Y-88660654D01*
X199283602Y-88907216D01*
X199225750Y-89198055D01*
X199225750Y-93699448D01*
X197382599Y-95542599D01*
X197217852Y-95789161D01*
X197160000Y-96080000D01*
X197160000Y-96962560D01*
X197070000Y-96962560D01*
X196834683Y-97006838D01*
X196618559Y-97145910D01*
X196473569Y-97358110D01*
X196422560Y-97610000D01*
X196422560Y-98974821D01*
X193385000Y-98974821D01*
X193385000Y-98085750D01*
X193226250Y-97927000D01*
X191877000Y-97927000D01*
X191877000Y-99526250D01*
X192035750Y-99685000D01*
X192240198Y-99685000D01*
X191560197Y-100365001D01*
X190584944Y-100365001D01*
X190585188Y-100085127D01*
X190420354Y-99686200D01*
X190115405Y-99380718D01*
X189716767Y-99215189D01*
X189682866Y-99215159D01*
X189688327Y-99209698D01*
X189785000Y-98976309D01*
X189785000Y-98085750D01*
X190115000Y-98085750D01*
X190115000Y-99176309D01*
X190211673Y-99409698D01*
X190390301Y-99588327D01*
X190623690Y-99685000D01*
X191464250Y-99685000D01*
X191623000Y-99526250D01*
X191623000Y-97927000D01*
X190273750Y-97927000D01*
X190115000Y-98085750D01*
X189785000Y-98085750D01*
X189785000Y-97985750D01*
X189626250Y-97827000D01*
X189025000Y-97827000D01*
X189025000Y-97847000D01*
X188997440Y-97847000D01*
X188997440Y-96550000D01*
X188953162Y-96314683D01*
X188814090Y-96098559D01*
X188777781Y-96073750D01*
X189025000Y-96073750D01*
X189025000Y-97573000D01*
X189626250Y-97573000D01*
X189785000Y-97414250D01*
X189785000Y-96423691D01*
X190115000Y-96423691D01*
X190115000Y-97514250D01*
X190273750Y-97673000D01*
X191623000Y-97673000D01*
X191623000Y-96073750D01*
X191877000Y-96073750D01*
X191877000Y-97673000D01*
X193226250Y-97673000D01*
X193385000Y-97514250D01*
X193385000Y-96423691D01*
X193288327Y-96190302D01*
X193109699Y-96011673D01*
X192876310Y-95915000D01*
X192035750Y-95915000D01*
X191877000Y-96073750D01*
X191623000Y-96073750D01*
X191464250Y-95915000D01*
X190623690Y-95915000D01*
X190390301Y-96011673D01*
X190211673Y-96190302D01*
X190115000Y-96423691D01*
X189785000Y-96423691D01*
X189688327Y-96190302D01*
X189509699Y-96011673D01*
X189276310Y-95915000D01*
X189183750Y-95915000D01*
X189025000Y-96073750D01*
X188777781Y-96073750D01*
X188769001Y-96067751D01*
X188616250Y-95915000D01*
X188523690Y-95915000D01*
X188486829Y-95930268D01*
X188350000Y-95902560D01*
X188060000Y-95902560D01*
X188060000Y-95500000D01*
X188002148Y-95209161D01*
X187837401Y-94962599D01*
X186837401Y-93962599D01*
X186590839Y-93797852D01*
X186300000Y-93740000D01*
X181314802Y-93740000D01*
X179760000Y-92185198D01*
X179760000Y-89390000D01*
X179740276Y-89290840D01*
X179702148Y-89099160D01*
X179537401Y-88852599D01*
X178787401Y-88102599D01*
X178603012Y-87979394D01*
X178647440Y-87760000D01*
X178647440Y-86960000D01*
X178607478Y-86747621D01*
X178787401Y-86627401D01*
X180037401Y-85377401D01*
X180202148Y-85130839D01*
X180260000Y-84840000D01*
X180260000Y-81785750D01*
X180415000Y-81785750D01*
X180415000Y-82276310D01*
X180511673Y-82509699D01*
X180690302Y-82688327D01*
X180923691Y-82785000D01*
X181514250Y-82785000D01*
X181673000Y-82626250D01*
X181673000Y-81627000D01*
X180573750Y-81627000D01*
X180415000Y-81785750D01*
X180260000Y-81785750D01*
X180260000Y-81292878D01*
X180202148Y-81002039D01*
X180037401Y-80755477D01*
X180005614Y-80723690D01*
X180415000Y-80723690D01*
X180415000Y-81214250D01*
X180573750Y-81373000D01*
X181673000Y-81373000D01*
X181673000Y-80373750D01*
X181514250Y-80215000D01*
X180923691Y-80215000D01*
X180690302Y-80311673D01*
X180511673Y-80490301D01*
X180415000Y-80723690D01*
X180005614Y-80723690D01*
X179760000Y-80478076D01*
X179760000Y-75314802D01*
X181814802Y-73260000D01*
X188124452Y-73260000D01*
X187934159Y-73297852D01*
G36*
X228859161Y-79297852D02*
X228612599Y-79462599D01*
X228462599Y-79612599D01*
X228369080Y-79752560D01*
X228350000Y-79752560D01*
X228114683Y-79796838D01*
X227898559Y-79935910D01*
X227753569Y-80148110D01*
X227746809Y-80181491D01*
X227688327Y-80040302D01*
X227509699Y-79861673D01*
X227276310Y-79765000D01*
X226785750Y-79765000D01*
X226627000Y-79923750D01*
X226627000Y-81023000D01*
X226647000Y-81023000D01*
X226647000Y-81277000D01*
X226627000Y-81277000D01*
X226627000Y-81297000D01*
X226373000Y-81297000D01*
X226373000Y-81277000D01*
X225373750Y-81277000D01*
X225215000Y-81435750D01*
X225215000Y-82026309D01*
X225311673Y-82259698D01*
X225490301Y-82438327D01*
X225626287Y-82494654D01*
X225614683Y-82496838D01*
X225398559Y-82635910D01*
X225253569Y-82848110D01*
X225202560Y-83100000D01*
X225202560Y-84600000D01*
X225246838Y-84835317D01*
X225385910Y-85051441D01*
X225598110Y-85196431D01*
X225623604Y-85201594D01*
X225462599Y-85362599D01*
X225369080Y-85502560D01*
X225150000Y-85502560D01*
X224914683Y-85546838D01*
X224698559Y-85685910D01*
X224553569Y-85898110D01*
X224502560Y-86150000D01*
X224502560Y-87850000D01*
X224546838Y-88085317D01*
X224685910Y-88301441D01*
X224898110Y-88446431D01*
X224965541Y-88460086D01*
X224920853Y-88489946D01*
X224598946Y-88971715D01*
X224485907Y-89540000D01*
X224598946Y-90108285D01*
X224920853Y-90590054D01*
X225250026Y-90810000D01*
X224920853Y-91029946D01*
X224598946Y-91511715D01*
X224485907Y-92080000D01*
X224598946Y-92648285D01*
X224920853Y-93130054D01*
X225240000Y-93343301D01*
X225240000Y-93356699D01*
X224920853Y-93569946D01*
X224598946Y-94051715D01*
X224485907Y-94620000D01*
X224598946Y-95188285D01*
X224920853Y-95670054D01*
X225240000Y-95883301D01*
X225240000Y-98420200D01*
X224237440Y-99422760D01*
X224237440Y-98770000D01*
X224193162Y-98534683D01*
X224054090Y-98318559D01*
X223841890Y-98173569D01*
X223774459Y-98159914D01*
X223819147Y-98130054D01*
X224141054Y-97648285D01*
X224254093Y-97080000D01*
X224141054Y-96511715D01*
X223819147Y-96029946D01*
X223489974Y-95810000D01*
X223819147Y-95590054D01*
X224141054Y-95108285D01*
X224254093Y-94540000D01*
X224141054Y-93971715D01*
X223819147Y-93489946D01*
X223489974Y-93270000D01*
X223819147Y-93050054D01*
X224141054Y-92568285D01*
X224254093Y-92000000D01*
X224141054Y-91431715D01*
X223819147Y-90949946D01*
X223489974Y-90730000D01*
X223819147Y-90510054D01*
X224141054Y-90028285D01*
X224254093Y-89460000D01*
X224141054Y-88891715D01*
X223819147Y-88409946D01*
X223489974Y-88190000D01*
X223819147Y-87970054D01*
X224141054Y-87488285D01*
X224254093Y-86920000D01*
X224141054Y-86351715D01*
X223819147Y-85869946D01*
X223478447Y-85642298D01*
X223621358Y-85575183D01*
X224011645Y-85146924D01*
X224181476Y-84736890D01*
X224060155Y-84507000D01*
X222867000Y-84507000D01*
X222867000Y-84527000D01*
X222613000Y-84527000D01*
X222613000Y-84507000D01*
X222593000Y-84507000D01*
X222593000Y-84253000D01*
X222613000Y-84253000D01*
X222613000Y-84233000D01*
X222867000Y-84233000D01*
X222867000Y-84253000D01*
X224060155Y-84253000D01*
X224181476Y-84023110D01*
X224011645Y-83613076D01*
X223621358Y-83184817D01*
X223478447Y-83117702D01*
X223819147Y-82890054D01*
X224141054Y-82408285D01*
X224254093Y-81840000D01*
X224141054Y-81271715D01*
X223819147Y-80789946D01*
X223500000Y-80576699D01*
X223500000Y-80273691D01*
X225215000Y-80273691D01*
X225215000Y-80864250D01*
X225373750Y-81023000D01*
X226373000Y-81023000D01*
X226373000Y-79923750D01*
X226214250Y-79765000D01*
X225723690Y-79765000D01*
X225490301Y-79861673D01*
X225311673Y-80040302D01*
X225215000Y-80273691D01*
X223500000Y-80273691D01*
X223500000Y-79574802D01*
X223814802Y-79260000D01*
X229049454Y-79260000D01*
X228859161Y-79297852D01*
X228859161Y-79297852D01*
G37*
X228859161Y-79297852D02*
X228612599Y-79462599D01*
X228462599Y-79612599D01*
X228369080Y-79752560D01*
X228350000Y-79752560D01*
X228114683Y-79796838D01*
X227898559Y-79935910D01*
X227753569Y-80148110D01*
X227746809Y-80181491D01*
X227688327Y-80040302D01*
X227509699Y-79861673D01*
X227276310Y-79765000D01*
X226785750Y-79765000D01*
X226627000Y-79923750D01*
X226627000Y-81023000D01*
X226647000Y-81023000D01*
X226647000Y-81277000D01*
X226627000Y-81277000D01*
X226627000Y-81297000D01*
X226373000Y-81297000D01*
X226373000Y-81277000D01*
X225373750Y-81277000D01*
X225215000Y-81435750D01*
X225215000Y-82026309D01*
X225311673Y-82259698D01*
X225490301Y-82438327D01*
X225626287Y-82494654D01*
X225614683Y-82496838D01*
X225398559Y-82635910D01*
X225253569Y-82848110D01*
X225202560Y-83100000D01*
X225202560Y-84600000D01*
X225246838Y-84835317D01*
X225385910Y-85051441D01*
X225598110Y-85196431D01*
X225623604Y-85201594D01*
X225462599Y-85362599D01*
X225369080Y-85502560D01*
X225150000Y-85502560D01*
X224914683Y-85546838D01*
X224698559Y-85685910D01*
X224553569Y-85898110D01*
X224502560Y-86150000D01*
X224502560Y-87850000D01*
X224546838Y-88085317D01*
X224685910Y-88301441D01*
X224898110Y-88446431D01*
X224965541Y-88460086D01*
X224920853Y-88489946D01*
X224598946Y-88971715D01*
X224485907Y-89540000D01*
X224598946Y-90108285D01*
X224920853Y-90590054D01*
X225250026Y-90810000D01*
X224920853Y-91029946D01*
X224598946Y-91511715D01*
X224485907Y-92080000D01*
X224598946Y-92648285D01*
X224920853Y-93130054D01*
X225240000Y-93343301D01*
X225240000Y-93356699D01*
X224920853Y-93569946D01*
X224598946Y-94051715D01*
X224485907Y-94620000D01*
X224598946Y-95188285D01*
X224920853Y-95670054D01*
X225240000Y-95883301D01*
X225240000Y-98420200D01*
X224237440Y-99422760D01*
X224237440Y-98770000D01*
X224193162Y-98534683D01*
X224054090Y-98318559D01*
X223841890Y-98173569D01*
X223774459Y-98159914D01*
X223819147Y-98130054D01*
X224141054Y-97648285D01*
X224254093Y-97080000D01*
X224141054Y-96511715D01*
X223819147Y-96029946D01*
X223489974Y-95810000D01*
X223819147Y-95590054D01*
X224141054Y-95108285D01*
X224254093Y-94540000D01*
X224141054Y-93971715D01*
X223819147Y-93489946D01*
X223489974Y-93270000D01*
X223819147Y-93050054D01*
X224141054Y-92568285D01*
X224254093Y-92000000D01*
X224141054Y-91431715D01*
X223819147Y-90949946D01*
X223489974Y-90730000D01*
X223819147Y-90510054D01*
X224141054Y-90028285D01*
X224254093Y-89460000D01*
X224141054Y-88891715D01*
X223819147Y-88409946D01*
X223489974Y-88190000D01*
X223819147Y-87970054D01*
X224141054Y-87488285D01*
X224254093Y-86920000D01*
X224141054Y-86351715D01*
X223819147Y-85869946D01*
X223478447Y-85642298D01*
X223621358Y-85575183D01*
X224011645Y-85146924D01*
X224181476Y-84736890D01*
X224060155Y-84507000D01*
X222867000Y-84507000D01*
X222867000Y-84527000D01*
X222613000Y-84527000D01*
X222613000Y-84507000D01*
X222593000Y-84507000D01*
X222593000Y-84253000D01*
X222613000Y-84253000D01*
X222613000Y-84233000D01*
X222867000Y-84233000D01*
X222867000Y-84253000D01*
X224060155Y-84253000D01*
X224181476Y-84023110D01*
X224011645Y-83613076D01*
X223621358Y-83184817D01*
X223478447Y-83117702D01*
X223819147Y-82890054D01*
X224141054Y-82408285D01*
X224254093Y-81840000D01*
X224141054Y-81271715D01*
X223819147Y-80789946D01*
X223500000Y-80576699D01*
X223500000Y-80273691D01*
X225215000Y-80273691D01*
X225215000Y-80864250D01*
X225373750Y-81023000D01*
X226373000Y-81023000D01*
X226373000Y-79923750D01*
X226214250Y-79765000D01*
X225723690Y-79765000D01*
X225490301Y-79861673D01*
X225311673Y-80040302D01*
X225215000Y-80273691D01*
X223500000Y-80273691D01*
X223500000Y-79574802D01*
X223814802Y-79260000D01*
X229049454Y-79260000D01*
X228859161Y-79297852D01*
G36*
X204740000Y-84739803D02*
X204740000Y-94717919D01*
X204797852Y-95008758D01*
X204962599Y-95255320D01*
X207064826Y-97357547D01*
X207029946Y-97380853D01*
X206810000Y-97710026D01*
X206590054Y-97380853D01*
X206108285Y-97058946D01*
X205540000Y-96945907D01*
X204971715Y-97058946D01*
X204489946Y-97380853D01*
X204270000Y-97710026D01*
X204050054Y-97380853D01*
X203734565Y-97170051D01*
X203702148Y-97007080D01*
X203537401Y-96760518D01*
X202156781Y-95379898D01*
X202156781Y-93185000D01*
X202814250Y-93185000D01*
X202973000Y-93026250D01*
X202973000Y-92127000D01*
X203227000Y-92127000D01*
X203227000Y-93026250D01*
X203385750Y-93185000D01*
X204126309Y-93185000D01*
X204359698Y-93088327D01*
X204538327Y-92909699D01*
X204635000Y-92676310D01*
X204635000Y-92285750D01*
X204476250Y-92127000D01*
X203227000Y-92127000D01*
X202973000Y-92127000D01*
X202953000Y-92127000D01*
X202953000Y-91873000D01*
X202973000Y-91873000D01*
X202973000Y-90973750D01*
X203227000Y-90973750D01*
X203227000Y-91873000D01*
X204476250Y-91873000D01*
X204635000Y-91714250D01*
X204635000Y-91323690D01*
X204538327Y-91090301D01*
X204359698Y-90911673D01*
X204126309Y-90815000D01*
X203385750Y-90815000D01*
X203227000Y-90973750D01*
X202973000Y-90973750D01*
X202814250Y-90815000D01*
X202156781Y-90815000D01*
X202156781Y-90395843D01*
X203055184Y-89497440D01*
X204000000Y-89497440D01*
X204235317Y-89453162D01*
X204451441Y-89314090D01*
X204596431Y-89101890D01*
X204647440Y-88850000D01*
X204647440Y-87750000D01*
X204603162Y-87514683D01*
X204464090Y-87298559D01*
X204251890Y-87153569D01*
X204000000Y-87102560D01*
X203116678Y-87102560D01*
X203202148Y-86974645D01*
X203219798Y-86885910D01*
X203260000Y-86683805D01*
X203260000Y-84000000D01*
X203202148Y-83709161D01*
X203180991Y-83677496D01*
X203310317Y-83653162D01*
X203519046Y-83518848D01*
X204740000Y-84739803D01*
X204740000Y-84739803D01*
G37*
X204740000Y-84739803D02*
X204740000Y-94717919D01*
X204797852Y-95008758D01*
X204962599Y-95255320D01*
X207064826Y-97357547D01*
X207029946Y-97380853D01*
X206810000Y-97710026D01*
X206590054Y-97380853D01*
X206108285Y-97058946D01*
X205540000Y-96945907D01*
X204971715Y-97058946D01*
X204489946Y-97380853D01*
X204270000Y-97710026D01*
X204050054Y-97380853D01*
X203734565Y-97170051D01*
X203702148Y-97007080D01*
X203537401Y-96760518D01*
X202156781Y-95379898D01*
X202156781Y-93185000D01*
X202814250Y-93185000D01*
X202973000Y-93026250D01*
X202973000Y-92127000D01*
X203227000Y-92127000D01*
X203227000Y-93026250D01*
X203385750Y-93185000D01*
X204126309Y-93185000D01*
X204359698Y-93088327D01*
X204538327Y-92909699D01*
X204635000Y-92676310D01*
X204635000Y-92285750D01*
X204476250Y-92127000D01*
X203227000Y-92127000D01*
X202973000Y-92127000D01*
X202953000Y-92127000D01*
X202953000Y-91873000D01*
X202973000Y-91873000D01*
X202973000Y-90973750D01*
X203227000Y-90973750D01*
X203227000Y-91873000D01*
X204476250Y-91873000D01*
X204635000Y-91714250D01*
X204635000Y-91323690D01*
X204538327Y-91090301D01*
X204359698Y-90911673D01*
X204126309Y-90815000D01*
X203385750Y-90815000D01*
X203227000Y-90973750D01*
X202973000Y-90973750D01*
X202814250Y-90815000D01*
X202156781Y-90815000D01*
X202156781Y-90395843D01*
X203055184Y-89497440D01*
X204000000Y-89497440D01*
X204235317Y-89453162D01*
X204451441Y-89314090D01*
X204596431Y-89101890D01*
X204647440Y-88850000D01*
X204647440Y-87750000D01*
X204603162Y-87514683D01*
X204464090Y-87298559D01*
X204251890Y-87153569D01*
X204000000Y-87102560D01*
X203116678Y-87102560D01*
X203202148Y-86974645D01*
X203219798Y-86885910D01*
X203260000Y-86683805D01*
X203260000Y-84000000D01*
X203202148Y-83709161D01*
X203180991Y-83677496D01*
X203310317Y-83653162D01*
X203519046Y-83518848D01*
X204740000Y-84739803D01*
G36*
X213583076Y-84365000D02*
X213285750Y-84365000D01*
X213127000Y-84523750D01*
X213127000Y-85623000D01*
X214101250Y-85623000D01*
X214260000Y-85464250D01*
X214260000Y-85041924D01*
X215458076Y-86240000D01*
X214260000Y-86240000D01*
X214260000Y-86035750D01*
X214101250Y-85877000D01*
X213127000Y-85877000D01*
X213127000Y-85897000D01*
X212873000Y-85897000D01*
X212873000Y-85877000D01*
X212853000Y-85877000D01*
X212853000Y-85623000D01*
X212873000Y-85623000D01*
X212873000Y-84523750D01*
X212714250Y-84365000D01*
X212248690Y-84365000D01*
X212015301Y-84461673D01*
X212004521Y-84472453D01*
X211952148Y-84209161D01*
X211787401Y-83962599D01*
X206487401Y-78662599D01*
X206240839Y-78497852D01*
X205950000Y-78440000D01*
X205697440Y-78440000D01*
X205697440Y-78125000D01*
X205677550Y-78019295D01*
X205685000Y-78001310D01*
X205685000Y-77885750D01*
X205588599Y-77789349D01*
X205514090Y-77673559D01*
X205406603Y-77600116D01*
X205468946Y-77560000D01*
X206778076Y-77560000D01*
X213583076Y-84365000D01*
X213583076Y-84365000D01*
G37*
X213583076Y-84365000D02*
X213285750Y-84365000D01*
X213127000Y-84523750D01*
X213127000Y-85623000D01*
X214101250Y-85623000D01*
X214260000Y-85464250D01*
X214260000Y-85041924D01*
X215458076Y-86240000D01*
X214260000Y-86240000D01*
X214260000Y-86035750D01*
X214101250Y-85877000D01*
X213127000Y-85877000D01*
X213127000Y-85897000D01*
X212873000Y-85897000D01*
X212873000Y-85877000D01*
X212853000Y-85877000D01*
X212853000Y-85623000D01*
X212873000Y-85623000D01*
X212873000Y-84523750D01*
X212714250Y-84365000D01*
X212248690Y-84365000D01*
X212015301Y-84461673D01*
X212004521Y-84472453D01*
X211952148Y-84209161D01*
X211787401Y-83962599D01*
X206487401Y-78662599D01*
X206240839Y-78497852D01*
X205950000Y-78440000D01*
X205697440Y-78440000D01*
X205697440Y-78125000D01*
X205677550Y-78019295D01*
X205685000Y-78001310D01*
X205685000Y-77885750D01*
X205588599Y-77789349D01*
X205514090Y-77673559D01*
X205406603Y-77600116D01*
X205468946Y-77560000D01*
X206778076Y-77560000D01*
X213583076Y-84365000D01*
G36*
X173951397Y-53434346D02*
X174119487Y-53685910D01*
X174197434Y-53802566D01*
X175197434Y-54802567D01*
X175565655Y-55048604D01*
X176000000Y-55135000D01*
X226850002Y-55135000D01*
X227284348Y-55048603D01*
X227652568Y-54802566D01*
X228490000Y-53965134D01*
X228490000Y-54435198D01*
X223760198Y-59165000D01*
X204035000Y-59165000D01*
X204035000Y-59147998D01*
X203903252Y-59147998D01*
X204035000Y-59016250D01*
X204035000Y-58948690D01*
X203938327Y-58715301D01*
X203759698Y-58536673D01*
X203526309Y-58440000D01*
X203135750Y-58440000D01*
X202977000Y-58598750D01*
X202977000Y-59077560D01*
X202723000Y-59077560D01*
X202723000Y-58598750D01*
X202564250Y-58440000D01*
X202173691Y-58440000D01*
X201940302Y-58536673D01*
X201761673Y-58715301D01*
X201665000Y-58948690D01*
X201665000Y-59016250D01*
X201823750Y-59175000D01*
X201982067Y-59175000D01*
X201848559Y-59260910D01*
X201771971Y-59373000D01*
X200627000Y-59373000D01*
X200627000Y-58500000D01*
X200618315Y-58453841D01*
X200591035Y-58411447D01*
X200549410Y-58383006D01*
X200500000Y-58373000D01*
X198000000Y-58373000D01*
X197953841Y-58381685D01*
X197911447Y-58408965D01*
X197883006Y-58450590D01*
X197880277Y-58464067D01*
X197700000Y-58427560D01*
X196600000Y-58427560D01*
X196364683Y-58471838D01*
X196297607Y-58515000D01*
X177089802Y-58515000D01*
X173260000Y-54685198D01*
X173260000Y-53397440D01*
X173944056Y-53397440D01*
X173951397Y-53434346D01*
X173951397Y-53434346D01*
G37*
X173951397Y-53434346D02*
X174119487Y-53685910D01*
X174197434Y-53802566D01*
X175197434Y-54802567D01*
X175565655Y-55048604D01*
X176000000Y-55135000D01*
X226850002Y-55135000D01*
X227284348Y-55048603D01*
X227652568Y-54802566D01*
X228490000Y-53965134D01*
X228490000Y-54435198D01*
X223760198Y-59165000D01*
X204035000Y-59165000D01*
X204035000Y-59147998D01*
X203903252Y-59147998D01*
X204035000Y-59016250D01*
X204035000Y-58948690D01*
X203938327Y-58715301D01*
X203759698Y-58536673D01*
X203526309Y-58440000D01*
X203135750Y-58440000D01*
X202977000Y-58598750D01*
X202977000Y-59077560D01*
X202723000Y-59077560D01*
X202723000Y-58598750D01*
X202564250Y-58440000D01*
X202173691Y-58440000D01*
X201940302Y-58536673D01*
X201761673Y-58715301D01*
X201665000Y-58948690D01*
X201665000Y-59016250D01*
X201823750Y-59175000D01*
X201982067Y-59175000D01*
X201848559Y-59260910D01*
X201771971Y-59373000D01*
X200627000Y-59373000D01*
X200627000Y-58500000D01*
X200618315Y-58453841D01*
X200591035Y-58411447D01*
X200549410Y-58383006D01*
X200500000Y-58373000D01*
X198000000Y-58373000D01*
X197953841Y-58381685D01*
X197911447Y-58408965D01*
X197883006Y-58450590D01*
X197880277Y-58464067D01*
X197700000Y-58427560D01*
X196600000Y-58427560D01*
X196364683Y-58471838D01*
X196297607Y-58515000D01*
X177089802Y-58515000D01*
X173260000Y-54685198D01*
X173260000Y-53397440D01*
X173944056Y-53397440D01*
X173951397Y-53434346D01*
M02*
