G04 #@! TF.GenerationSoftware,KiCad,Pcbnew,no-vcs-found-3ad3869~61~ubuntu16.04.1*
G04 #@! TF.CreationDate,2018-02-12T14:20:26+02:00*
G04 #@! TF.ProjectId,BrainDamage,427261696E44616D6167652E6B696361,rev?*
G04 #@! TF.SameCoordinates,Original*
G04 #@! TF.FileFunction,Copper,L2,Bot,Signal*
G04 #@! TF.FilePolarity,Positive*
%FSLAX46Y46*%
G04 Gerber Fmt 4.6, Leading zero omitted, Abs format (unit mm)*
G04 Created by KiCad (PCBNEW no-vcs-found-3ad3869~61~ubuntu16.04.1) date Mon Feb 12 14:20:26 2018*
%MOMM*%
%LPD*%
G01*
G04 APERTURE LIST*
%ADD10C,0.300000*%
%ADD11R,1.700000X1.700000*%
%ADD12O,1.700000X1.700000*%
%ADD13R,3.500000X3.500000*%
%ADD14C,6.500000*%
%ADD15C,0.800000*%
%ADD16C,1.000000*%
%ADD17C,0.250000*%
%ADD18C,0.254000*%
G04 APERTURE END LIST*
D10*
X159150714Y-68812857D02*
X159222142Y-68884285D01*
X159293571Y-69027142D01*
X159293571Y-69170000D01*
X159222142Y-69312857D01*
X159150714Y-69384285D01*
X159007857Y-69455714D01*
X158865000Y-69455714D01*
X158722142Y-69384285D01*
X158650714Y-69312857D01*
X158579285Y-69170000D01*
X158579285Y-69027142D01*
X158650714Y-68884285D01*
X158722142Y-68812857D01*
X159293571Y-68812857D02*
X158722142Y-68812857D01*
X158650714Y-68741428D01*
X158650714Y-68670000D01*
X158722142Y-68527142D01*
X158865000Y-68455714D01*
X159222142Y-68455714D01*
X159436428Y-68598571D01*
X159579285Y-68812857D01*
X159650714Y-69098571D01*
X159579285Y-69384285D01*
X159436428Y-69598571D01*
X159222142Y-69741428D01*
X158936428Y-69812857D01*
X158650714Y-69741428D01*
X158436428Y-69598571D01*
X158293571Y-69384285D01*
X158222142Y-69098571D01*
X158293571Y-68812857D01*
X158436428Y-68598571D01*
X158507857Y-67241428D02*
X158436428Y-67384285D01*
X158436428Y-67670000D01*
X158507857Y-67812857D01*
X158650714Y-67884285D01*
X159222142Y-67884285D01*
X159365000Y-67812857D01*
X159436428Y-67670000D01*
X159436428Y-67384285D01*
X159365000Y-67241428D01*
X159222142Y-67170000D01*
X159079285Y-67170000D01*
X158936428Y-67884285D01*
X158507857Y-65884285D02*
X158436428Y-66027142D01*
X158436428Y-66312857D01*
X158507857Y-66455714D01*
X158579285Y-66527142D01*
X158722142Y-66598571D01*
X159150714Y-66598571D01*
X159293571Y-66527142D01*
X159365000Y-66455714D01*
X159436428Y-66312857D01*
X159436428Y-66027142D01*
X159365000Y-65884285D01*
X158507857Y-64598571D02*
X158436428Y-64741428D01*
X158436428Y-65027142D01*
X158507857Y-65170000D01*
X158579285Y-65241428D01*
X158722142Y-65312857D01*
X159150714Y-65312857D01*
X159293571Y-65241428D01*
X159365000Y-65170000D01*
X159436428Y-65027142D01*
X159436428Y-64741428D01*
X159365000Y-64598571D01*
X158436428Y-63741428D02*
X158507857Y-63884285D01*
X158579285Y-63955714D01*
X158722142Y-64027142D01*
X159150714Y-64027142D01*
X159293571Y-63955714D01*
X159365000Y-63884285D01*
X159436428Y-63741428D01*
X159436428Y-63527142D01*
X159365000Y-63384285D01*
X159293571Y-63312857D01*
X159150714Y-63241428D01*
X158722142Y-63241428D01*
X158579285Y-63312857D01*
X158507857Y-63384285D01*
X158436428Y-63527142D01*
X158436428Y-63741428D01*
X158436428Y-61812857D02*
X158436428Y-62670000D01*
X158436428Y-62241428D02*
X159936428Y-62241428D01*
X159722142Y-62384285D01*
X159579285Y-62527142D01*
X159507857Y-62670000D01*
X158436428Y-61098571D02*
X158436428Y-60812857D01*
X158507857Y-60670000D01*
X158579285Y-60598571D01*
X158793571Y-60455714D01*
X159079285Y-60384285D01*
X159650714Y-60384285D01*
X159793571Y-60455714D01*
X159865000Y-60527142D01*
X159936428Y-60670000D01*
X159936428Y-60955714D01*
X159865000Y-61098571D01*
X159793571Y-61170000D01*
X159650714Y-61241428D01*
X159293571Y-61241428D01*
X159150714Y-61170000D01*
X159079285Y-61098571D01*
X159007857Y-60955714D01*
X159007857Y-60670000D01*
X159079285Y-60527142D01*
X159150714Y-60455714D01*
X159293571Y-60384285D01*
X158436428Y-59670000D02*
X158436428Y-59384285D01*
X158507857Y-59241428D01*
X158579285Y-59170000D01*
X158793571Y-59027142D01*
X159079285Y-58955714D01*
X159650714Y-58955714D01*
X159793571Y-59027142D01*
X159865000Y-59098571D01*
X159936428Y-59241428D01*
X159936428Y-59527142D01*
X159865000Y-59670000D01*
X159793571Y-59741428D01*
X159650714Y-59812857D01*
X159293571Y-59812857D01*
X159150714Y-59741428D01*
X159079285Y-59670000D01*
X159007857Y-59527142D01*
X159007857Y-59241428D01*
X159079285Y-59098571D01*
X159150714Y-59027142D01*
X159293571Y-58955714D01*
X159936428Y-57670000D02*
X159936428Y-57955714D01*
X159865000Y-58098571D01*
X159793571Y-58170000D01*
X159579285Y-58312857D01*
X159293571Y-58384285D01*
X158722142Y-58384285D01*
X158579285Y-58312857D01*
X158507857Y-58241428D01*
X158436428Y-58098571D01*
X158436428Y-57812857D01*
X158507857Y-57670000D01*
X158579285Y-57598571D01*
X158722142Y-57527142D01*
X159079285Y-57527142D01*
X159222142Y-57598571D01*
X159293571Y-57670000D01*
X159365000Y-57812857D01*
X159365000Y-58098571D01*
X159293571Y-58241428D01*
X159222142Y-58312857D01*
X159079285Y-58384285D01*
X157243571Y-66241428D02*
X157315000Y-66170000D01*
X157386428Y-66027142D01*
X157386428Y-65670000D01*
X157315000Y-65527142D01*
X157243571Y-65455714D01*
X157100714Y-65384285D01*
X156957857Y-65384285D01*
X156743571Y-65455714D01*
X155886428Y-66312857D01*
X155886428Y-65384285D01*
X157386428Y-64455714D02*
X157386428Y-64312857D01*
X157315000Y-64170000D01*
X157243571Y-64098571D01*
X157100714Y-64027142D01*
X156815000Y-63955714D01*
X156457857Y-63955714D01*
X156172142Y-64027142D01*
X156029285Y-64098571D01*
X155957857Y-64170000D01*
X155886428Y-64312857D01*
X155886428Y-64455714D01*
X155957857Y-64598571D01*
X156029285Y-64670000D01*
X156172142Y-64741428D01*
X156457857Y-64812857D01*
X156815000Y-64812857D01*
X157100714Y-64741428D01*
X157243571Y-64670000D01*
X157315000Y-64598571D01*
X157386428Y-64455714D01*
X155886428Y-62527142D02*
X155886428Y-63384285D01*
X155886428Y-62955714D02*
X157386428Y-62955714D01*
X157172142Y-63098571D01*
X157029285Y-63241428D01*
X156957857Y-63384285D01*
X156743571Y-61670000D02*
X156815000Y-61812857D01*
X156886428Y-61884285D01*
X157029285Y-61955714D01*
X157100714Y-61955714D01*
X157243571Y-61884285D01*
X157315000Y-61812857D01*
X157386428Y-61670000D01*
X157386428Y-61384285D01*
X157315000Y-61241428D01*
X157243571Y-61170000D01*
X157100714Y-61098571D01*
X157029285Y-61098571D01*
X156886428Y-61170000D01*
X156815000Y-61241428D01*
X156743571Y-61384285D01*
X156743571Y-61670000D01*
X156672142Y-61812857D01*
X156600714Y-61884285D01*
X156457857Y-61955714D01*
X156172142Y-61955714D01*
X156029285Y-61884285D01*
X155957857Y-61812857D01*
X155886428Y-61670000D01*
X155886428Y-61384285D01*
X155957857Y-61241428D01*
X156029285Y-61170000D01*
X156172142Y-61098571D01*
X156457857Y-61098571D01*
X156600714Y-61170000D01*
X156672142Y-61241428D01*
X156743571Y-61384285D01*
X241403571Y-56785714D02*
X239903571Y-56785714D01*
X241403571Y-58357142D02*
X240689285Y-57857142D01*
X241403571Y-57500000D02*
X239903571Y-57500000D01*
X239903571Y-58071428D01*
X239975000Y-58214285D01*
X240046428Y-58285714D01*
X240189285Y-58357142D01*
X240403571Y-58357142D01*
X240546428Y-58285714D01*
X240617857Y-58214285D01*
X240689285Y-58071428D01*
X240689285Y-57500000D01*
X241403571Y-59000000D02*
X239903571Y-59000000D01*
X241332142Y-59642857D02*
X241403571Y-59857142D01*
X241403571Y-60214285D01*
X241332142Y-60357142D01*
X241260714Y-60428571D01*
X241117857Y-60500000D01*
X240975000Y-60500000D01*
X240832142Y-60428571D01*
X240760714Y-60357142D01*
X240689285Y-60214285D01*
X240617857Y-59928571D01*
X240546428Y-59785714D01*
X240475000Y-59714285D01*
X240332142Y-59642857D01*
X240189285Y-59642857D01*
X240046428Y-59714285D01*
X239975000Y-59785714D01*
X239903571Y-59928571D01*
X239903571Y-60285714D01*
X239975000Y-60500000D01*
X241403571Y-63142857D02*
X240689285Y-62642857D01*
X241403571Y-62285714D02*
X239903571Y-62285714D01*
X239903571Y-62857142D01*
X239975000Y-63000000D01*
X240046428Y-63071428D01*
X240189285Y-63142857D01*
X240403571Y-63142857D01*
X240546428Y-63071428D01*
X240617857Y-63000000D01*
X240689285Y-62857142D01*
X240689285Y-62285714D01*
X241403571Y-64000000D02*
X241332142Y-63857142D01*
X241260714Y-63785714D01*
X241117857Y-63714285D01*
X240689285Y-63714285D01*
X240546428Y-63785714D01*
X240475000Y-63857142D01*
X240403571Y-64000000D01*
X240403571Y-64214285D01*
X240475000Y-64357142D01*
X240546428Y-64428571D01*
X240689285Y-64500000D01*
X241117857Y-64500000D01*
X241260714Y-64428571D01*
X241332142Y-64357142D01*
X241403571Y-64214285D01*
X241403571Y-64000000D01*
X241403571Y-65142857D02*
X239903571Y-65142857D01*
X240475000Y-65142857D02*
X240403571Y-65285714D01*
X240403571Y-65571428D01*
X240475000Y-65714285D01*
X240546428Y-65785714D01*
X240689285Y-65857142D01*
X241117857Y-65857142D01*
X241260714Y-65785714D01*
X241332142Y-65714285D01*
X241403571Y-65571428D01*
X241403571Y-65285714D01*
X241332142Y-65142857D01*
X241403571Y-66714285D02*
X241332142Y-66571428D01*
X241260714Y-66500000D01*
X241117857Y-66428571D01*
X240689285Y-66428571D01*
X240546428Y-66500000D01*
X240475000Y-66571428D01*
X240403571Y-66714285D01*
X240403571Y-66928571D01*
X240475000Y-67071428D01*
X240546428Y-67142857D01*
X240689285Y-67214285D01*
X241117857Y-67214285D01*
X241260714Y-67142857D01*
X241332142Y-67071428D01*
X241403571Y-66928571D01*
X241403571Y-66714285D01*
X240403571Y-67642857D02*
X240403571Y-68214285D01*
X239903571Y-67857142D02*
X241189285Y-67857142D01*
X241332142Y-67928571D01*
X241403571Y-68071428D01*
X241403571Y-68214285D01*
X241403571Y-68714285D02*
X240403571Y-68714285D01*
X239903571Y-68714285D02*
X239975000Y-68642857D01*
X240046428Y-68714285D01*
X239975000Y-68785714D01*
X239903571Y-68714285D01*
X240046428Y-68714285D01*
X241332142Y-70071428D02*
X241403571Y-69928571D01*
X241403571Y-69642857D01*
X241332142Y-69500000D01*
X241260714Y-69428571D01*
X241117857Y-69357142D01*
X240689285Y-69357142D01*
X240546428Y-69428571D01*
X240475000Y-69500000D01*
X240403571Y-69642857D01*
X240403571Y-69928571D01*
X240475000Y-70071428D01*
X241332142Y-70642857D02*
X241403571Y-70785714D01*
X241403571Y-71071428D01*
X241332142Y-71214285D01*
X241189285Y-71285714D01*
X241117857Y-71285714D01*
X240975000Y-71214285D01*
X240903571Y-71071428D01*
X240903571Y-70857142D01*
X240832142Y-70714285D01*
X240689285Y-70642857D01*
X240617857Y-70642857D01*
X240475000Y-70714285D01*
X240403571Y-70857142D01*
X240403571Y-71071428D01*
X240475000Y-71214285D01*
X243953571Y-59000000D02*
X242453571Y-59000000D01*
X243525000Y-59500000D01*
X242453571Y-60000000D01*
X243953571Y-60000000D01*
X242453571Y-60500000D02*
X243953571Y-61000000D01*
X242453571Y-61500000D01*
X242596428Y-61928571D02*
X242525000Y-62000000D01*
X242453571Y-62142857D01*
X242453571Y-62500000D01*
X242525000Y-62642857D01*
X242596428Y-62714285D01*
X242739285Y-62785714D01*
X242882142Y-62785714D01*
X243096428Y-62714285D01*
X243953571Y-61857142D01*
X243953571Y-62785714D01*
X242453571Y-63285714D02*
X242453571Y-64285714D01*
X243953571Y-63642857D01*
X242453571Y-64642857D02*
X242453571Y-65500000D01*
X243953571Y-65071428D02*
X242453571Y-65071428D01*
X242953571Y-67000000D02*
X243953571Y-67357142D01*
X242953571Y-67714285D01*
X243953571Y-69071428D02*
X243953571Y-68214285D01*
X243953571Y-68642857D02*
X242453571Y-68642857D01*
X242667857Y-68500000D01*
X242810714Y-68357142D01*
X242882142Y-68214285D01*
D11*
X193510000Y-50660000D03*
D12*
X196050000Y-50660000D03*
X198590000Y-50660000D03*
X201130000Y-50660000D03*
X203670000Y-50660000D03*
D11*
X169540000Y-75500000D03*
D12*
X167000000Y-75500000D03*
X164460000Y-75500000D03*
D11*
X181380000Y-78500000D03*
D12*
X183920000Y-78500000D03*
X186460000Y-78500000D03*
X189000000Y-78500000D03*
D11*
X197920000Y-98460000D03*
D12*
X197920000Y-101000000D03*
X200460000Y-98460000D03*
X200460000Y-101000000D03*
X203000000Y-98460000D03*
X203000000Y-101000000D03*
X205540000Y-98460000D03*
X205540000Y-101000000D03*
X208080000Y-98460000D03*
X208080000Y-101000000D03*
D11*
X230960000Y-62000000D03*
D12*
X233500000Y-62000000D03*
X236040000Y-62000000D03*
D11*
X230960000Y-69000000D03*
D12*
X233500000Y-69000000D03*
X236040000Y-69000000D03*
D11*
X230960000Y-65500000D03*
D12*
X233500000Y-65500000D03*
X236040000Y-65500000D03*
D11*
X230960000Y-72500000D03*
D12*
X233500000Y-72500000D03*
X236040000Y-72500000D03*
D11*
X230960000Y-58500000D03*
D12*
X233500000Y-58500000D03*
X236040000Y-58500000D03*
D11*
X230960000Y-76000000D03*
D12*
X233500000Y-76000000D03*
X236040000Y-76000000D03*
D11*
X230960000Y-55000000D03*
D12*
X233500000Y-55000000D03*
X236040000Y-55000000D03*
D11*
X230960000Y-51500000D03*
D12*
X233500000Y-51500000D03*
X236040000Y-51500000D03*
D11*
X169540000Y-72000000D03*
D12*
X167000000Y-72000000D03*
X164460000Y-72000000D03*
D11*
X169540000Y-68500000D03*
D12*
X167000000Y-68500000D03*
X164460000Y-68500000D03*
D11*
X169540000Y-65000000D03*
D12*
X167000000Y-65000000D03*
X164460000Y-65000000D03*
D11*
X169540000Y-61500000D03*
D12*
X167000000Y-61500000D03*
X164460000Y-61500000D03*
D11*
X169540000Y-58000000D03*
D12*
X167000000Y-58000000D03*
X164460000Y-58000000D03*
D11*
X169540000Y-54500000D03*
D12*
X167000000Y-54500000D03*
X164460000Y-54500000D03*
D11*
X169540000Y-51000000D03*
D12*
X167000000Y-51000000D03*
X164460000Y-51000000D03*
D13*
X225000000Y-31000000D03*
X225000000Y-51000000D03*
X175000000Y-51000000D03*
X175000000Y-31000000D03*
D14*
X227000000Y-37525000D03*
X227000000Y-44475000D03*
D11*
X183350000Y-48120000D03*
D12*
X185890000Y-48120000D03*
X188430000Y-48120000D03*
X190970000Y-48120000D03*
D11*
X206210000Y-48120000D03*
D12*
X208750000Y-48120000D03*
X211290000Y-48120000D03*
X213830000Y-48120000D03*
D11*
X222740000Y-99620000D03*
D12*
X222740000Y-97080000D03*
X222740000Y-94540000D03*
X222740000Y-92000000D03*
X222740000Y-89460000D03*
X222740000Y-86920000D03*
X222740000Y-84380000D03*
X222740000Y-81840000D03*
D11*
X225400000Y-87000000D03*
D12*
X227940000Y-87000000D03*
X225400000Y-89540000D03*
X227940000Y-89540000D03*
X225400000Y-92080000D03*
X227940000Y-92080000D03*
X225400000Y-94620000D03*
X227940000Y-94620000D03*
D15*
X214500000Y-90500000D03*
X168000000Y-89000000D03*
X187500000Y-103500000D03*
X176000000Y-98000000D03*
X194000000Y-103500000D03*
X226500000Y-79500000D03*
X171400000Y-80800000D03*
X207000000Y-78600000D03*
X210000000Y-100600000D03*
X205400000Y-103400000D03*
X200600000Y-103400000D03*
X189000000Y-95000000D03*
X197000000Y-94400000D03*
X185200000Y-91800000D03*
X193800000Y-78200000D03*
X193800000Y-77000000D03*
X183920000Y-76280000D03*
X189400000Y-68200000D03*
X202800000Y-57800000D03*
X200500000Y-95100022D03*
X196900000Y-90100008D03*
X215809502Y-88409314D03*
X202320000Y-75720000D03*
D16*
X180500000Y-103500000D02*
X180500000Y-97500000D01*
X178500000Y-97500000D02*
X178500000Y-100500000D01*
X182500000Y-99500000D02*
X182500000Y-103500000D01*
X178500000Y-100500000D02*
X178500000Y-101500000D01*
X184500000Y-97500000D02*
X182500000Y-99500000D01*
X178500000Y-101500000D02*
X176500000Y-103500000D01*
D17*
X194000000Y-103500000D02*
X194000000Y-103000000D01*
X226500000Y-79500000D02*
X226500000Y-79000000D01*
X208080000Y-101000000D02*
X209600000Y-101000000D01*
X209600000Y-101000000D02*
X210000000Y-100600000D01*
X200460000Y-101000000D02*
X200460000Y-103260000D01*
X200460000Y-103260000D02*
X200600000Y-103400000D01*
X193800000Y-77000000D02*
X193800000Y-78200000D01*
X200500000Y-93700008D02*
X200500000Y-94534337D01*
X196900000Y-90100008D02*
X200500000Y-93700008D01*
X200500000Y-94534337D02*
X200500000Y-95100022D01*
X181380000Y-78500000D02*
X181380000Y-84460000D01*
X181380000Y-84460000D02*
X193800000Y-96880000D01*
X193800000Y-96880000D02*
X197920000Y-101000000D01*
X215809502Y-87843629D02*
X215809502Y-88409314D01*
X215809502Y-62190498D02*
X215809502Y-87843629D01*
X225000000Y-53000000D02*
X215809502Y-62190498D01*
X225000000Y-51000000D02*
X225000000Y-53000000D01*
X205940000Y-72070000D02*
X202320000Y-75690000D01*
X202320000Y-75690000D02*
X202320000Y-75720000D01*
X205940000Y-54132081D02*
X205940000Y-72070000D01*
X203670000Y-50660000D02*
X203670000Y-51862081D01*
X203670000Y-51862081D02*
X205940000Y-54132081D01*
D18*
G36*
X244551474Y-55643571D02*
X238935000Y-55643571D01*
X238935000Y-72356428D01*
X244435948Y-72356428D01*
X225602480Y-105315000D01*
X174397521Y-105315000D01*
X173360379Y-103500000D01*
X175342765Y-103500000D01*
X175430854Y-103942854D01*
X175681712Y-104318288D01*
X176057146Y-104569146D01*
X176500000Y-104657235D01*
X176942854Y-104569146D01*
X177223523Y-104381608D01*
X179223521Y-102381611D01*
X179318289Y-102318289D01*
X179365000Y-102248381D01*
X179365000Y-103611782D01*
X179430854Y-103942854D01*
X179681711Y-104318289D01*
X180057145Y-104569146D01*
X180500000Y-104657235D01*
X180942854Y-104569146D01*
X181318289Y-104318289D01*
X181500001Y-104046339D01*
X181681712Y-104318289D01*
X182057146Y-104569146D01*
X182500000Y-104657235D01*
X182942855Y-104569146D01*
X183318289Y-104318289D01*
X183569146Y-103942855D01*
X183635000Y-103611783D01*
X183635000Y-100084180D01*
X184015000Y-100084180D01*
X184015000Y-100515820D01*
X184180182Y-100914603D01*
X184485397Y-101219818D01*
X184884180Y-101385000D01*
X185315820Y-101385000D01*
X185714603Y-101219818D01*
X186019818Y-100914603D01*
X186185000Y-100515820D01*
X186185000Y-100084180D01*
X188415000Y-100084180D01*
X188415000Y-100515820D01*
X188580182Y-100914603D01*
X188885397Y-101219818D01*
X189284180Y-101385000D01*
X189715820Y-101385000D01*
X190114603Y-101219818D01*
X190419818Y-100914603D01*
X190585000Y-100515820D01*
X190585000Y-100084180D01*
X190419818Y-99685397D01*
X190114603Y-99380182D01*
X189715820Y-99215000D01*
X189284180Y-99215000D01*
X188885397Y-99380182D01*
X188580182Y-99685397D01*
X188415000Y-100084180D01*
X186185000Y-100084180D01*
X186019818Y-99685397D01*
X185714603Y-99380182D01*
X185315820Y-99215000D01*
X184884180Y-99215000D01*
X184485397Y-99380182D01*
X184180182Y-99685397D01*
X184015000Y-100084180D01*
X183635000Y-100084180D01*
X183635000Y-99970131D01*
X185381608Y-98223524D01*
X185569146Y-97942855D01*
X185657235Y-97500001D01*
X185569146Y-97057146D01*
X185318288Y-96681712D01*
X184942854Y-96430854D01*
X184499999Y-96342765D01*
X184057145Y-96430854D01*
X183776476Y-96618392D01*
X181776482Y-98618387D01*
X181681711Y-98681711D01*
X181635000Y-98751619D01*
X181635000Y-97388217D01*
X181569146Y-97057145D01*
X181318289Y-96681711D01*
X180942855Y-96430854D01*
X180500000Y-96342765D01*
X180057146Y-96430854D01*
X179681712Y-96681711D01*
X179500001Y-96953661D01*
X179318289Y-96681711D01*
X178942854Y-96430854D01*
X178500000Y-96342765D01*
X178057145Y-96430854D01*
X177681711Y-96681711D01*
X177430854Y-97057146D01*
X177365000Y-97388218D01*
X177365001Y-100388213D01*
X177365000Y-100388218D01*
X177365000Y-101029868D01*
X175618392Y-102776477D01*
X175430854Y-103057146D01*
X175342765Y-103500000D01*
X173360379Y-103500000D01*
X158588951Y-77650000D01*
X179882560Y-77650000D01*
X179882560Y-79350000D01*
X179931843Y-79597765D01*
X180072191Y-79807809D01*
X180282235Y-79948157D01*
X180530000Y-79997440D01*
X180620000Y-79997440D01*
X180620001Y-84385148D01*
X180605112Y-84460000D01*
X180620001Y-84534852D01*
X180664097Y-84756537D01*
X180832072Y-85007929D01*
X180895528Y-85050329D01*
X193315526Y-97470329D01*
X193315532Y-97470333D01*
X196478791Y-100633593D01*
X196405908Y-101000000D01*
X196521161Y-101579418D01*
X196849375Y-102070625D01*
X197340582Y-102398839D01*
X197773744Y-102485000D01*
X198066256Y-102485000D01*
X198499418Y-102398839D01*
X198990625Y-102070625D01*
X199203843Y-101751522D01*
X199264817Y-101881358D01*
X199693076Y-102271645D01*
X200103110Y-102441476D01*
X200333000Y-102320155D01*
X200333000Y-101127000D01*
X200587000Y-101127000D01*
X200587000Y-102320155D01*
X200816890Y-102441476D01*
X201226924Y-102271645D01*
X201655183Y-101881358D01*
X201730000Y-101722046D01*
X201804817Y-101881358D01*
X202233076Y-102271645D01*
X202643110Y-102441476D01*
X202873000Y-102320155D01*
X202873000Y-101127000D01*
X203127000Y-101127000D01*
X203127000Y-102320155D01*
X203356890Y-102441476D01*
X203766924Y-102271645D01*
X204195183Y-101881358D01*
X204270000Y-101722046D01*
X204344817Y-101881358D01*
X204773076Y-102271645D01*
X205183110Y-102441476D01*
X205413000Y-102320155D01*
X205413000Y-101127000D01*
X205667000Y-101127000D01*
X205667000Y-102320155D01*
X205896890Y-102441476D01*
X206306924Y-102271645D01*
X206735183Y-101881358D01*
X206810000Y-101722046D01*
X206884817Y-101881358D01*
X207313076Y-102271645D01*
X207723110Y-102441476D01*
X207953000Y-102320155D01*
X207953000Y-101127000D01*
X208207000Y-101127000D01*
X208207000Y-102320155D01*
X208436890Y-102441476D01*
X208846924Y-102271645D01*
X209275183Y-101881358D01*
X209521486Y-101356892D01*
X209400819Y-101127000D01*
X208207000Y-101127000D01*
X207953000Y-101127000D01*
X205667000Y-101127000D01*
X205413000Y-101127000D01*
X203127000Y-101127000D01*
X202873000Y-101127000D01*
X200587000Y-101127000D01*
X200333000Y-101127000D01*
X200313000Y-101127000D01*
X200313000Y-100873000D01*
X200333000Y-100873000D01*
X200333000Y-100853000D01*
X200587000Y-100853000D01*
X200587000Y-100873000D01*
X202873000Y-100873000D01*
X202873000Y-100853000D01*
X203127000Y-100853000D01*
X203127000Y-100873000D01*
X205413000Y-100873000D01*
X205413000Y-100853000D01*
X205667000Y-100853000D01*
X205667000Y-100873000D01*
X207953000Y-100873000D01*
X207953000Y-100853000D01*
X208207000Y-100853000D01*
X208207000Y-100873000D01*
X209400819Y-100873000D01*
X209521486Y-100643108D01*
X209275183Y-100118642D01*
X208850214Y-99731353D01*
X209150625Y-99530625D01*
X209478839Y-99039418D01*
X209594092Y-98460000D01*
X209478839Y-97880582D01*
X209150625Y-97389375D01*
X208659418Y-97061161D01*
X208226256Y-96975000D01*
X207933744Y-96975000D01*
X207500582Y-97061161D01*
X207009375Y-97389375D01*
X206810000Y-97687761D01*
X206610625Y-97389375D01*
X206119418Y-97061161D01*
X205686256Y-96975000D01*
X205393744Y-96975000D01*
X204960582Y-97061161D01*
X204469375Y-97389375D01*
X204270000Y-97687761D01*
X204070625Y-97389375D01*
X203579418Y-97061161D01*
X203146256Y-96975000D01*
X202853744Y-96975000D01*
X202420582Y-97061161D01*
X201929375Y-97389375D01*
X201730000Y-97687761D01*
X201530625Y-97389375D01*
X201039418Y-97061161D01*
X200606256Y-96975000D01*
X200313744Y-96975000D01*
X199880582Y-97061161D01*
X199389375Y-97389375D01*
X199377184Y-97407619D01*
X199368157Y-97362235D01*
X199227809Y-97152191D01*
X199017765Y-97011843D01*
X198770000Y-96962560D01*
X197070000Y-96962560D01*
X196822235Y-97011843D01*
X196612191Y-97152191D01*
X196471843Y-97362235D01*
X196422560Y-97610000D01*
X196422560Y-98427758D01*
X194390333Y-96395532D01*
X194390329Y-96395526D01*
X187888936Y-89894134D01*
X195865000Y-89894134D01*
X195865000Y-90305882D01*
X196022569Y-90686288D01*
X196313720Y-90977439D01*
X196694126Y-91135008D01*
X196860199Y-91135008D01*
X199740000Y-94014810D01*
X199740000Y-94396311D01*
X199622569Y-94513742D01*
X199465000Y-94894148D01*
X199465000Y-95305896D01*
X199622569Y-95686302D01*
X199913720Y-95977453D01*
X200294126Y-96135022D01*
X200705874Y-96135022D01*
X201086280Y-95977453D01*
X201377431Y-95686302D01*
X201535000Y-95305896D01*
X201535000Y-94894148D01*
X201377431Y-94513742D01*
X201260000Y-94396311D01*
X201260000Y-93774856D01*
X201274888Y-93700008D01*
X201260000Y-93625160D01*
X201260000Y-93625156D01*
X201215904Y-93403471D01*
X201215904Y-93403470D01*
X201090329Y-93215535D01*
X201047929Y-93152079D01*
X200984473Y-93109679D01*
X197935000Y-90060207D01*
X197935000Y-89894134D01*
X197777431Y-89513728D01*
X197486280Y-89222577D01*
X197105874Y-89065008D01*
X196694126Y-89065008D01*
X196313720Y-89222577D01*
X196022569Y-89513728D01*
X195865000Y-89894134D01*
X187888936Y-89894134D01*
X186198242Y-88203440D01*
X214774502Y-88203440D01*
X214774502Y-88615188D01*
X214932071Y-88995594D01*
X215223222Y-89286745D01*
X215603628Y-89444314D01*
X216015376Y-89444314D01*
X216395782Y-89286745D01*
X216686933Y-88995594D01*
X216844502Y-88615188D01*
X216844502Y-88203440D01*
X216686933Y-87823034D01*
X216569502Y-87705603D01*
X216569502Y-86920000D01*
X221225908Y-86920000D01*
X221341161Y-87499418D01*
X221669375Y-87990625D01*
X221967761Y-88190000D01*
X221669375Y-88389375D01*
X221341161Y-88880582D01*
X221225908Y-89460000D01*
X221341161Y-90039418D01*
X221669375Y-90530625D01*
X221967761Y-90730000D01*
X221669375Y-90929375D01*
X221341161Y-91420582D01*
X221225908Y-92000000D01*
X221341161Y-92579418D01*
X221669375Y-93070625D01*
X221967761Y-93270000D01*
X221669375Y-93469375D01*
X221341161Y-93960582D01*
X221225908Y-94540000D01*
X221341161Y-95119418D01*
X221669375Y-95610625D01*
X221967761Y-95810000D01*
X221669375Y-96009375D01*
X221341161Y-96500582D01*
X221225908Y-97080000D01*
X221341161Y-97659418D01*
X221669375Y-98150625D01*
X221687619Y-98162816D01*
X221642235Y-98171843D01*
X221432191Y-98312191D01*
X221291843Y-98522235D01*
X221242560Y-98770000D01*
X221242560Y-100470000D01*
X221291843Y-100717765D01*
X221432191Y-100927809D01*
X221642235Y-101068157D01*
X221890000Y-101117440D01*
X223590000Y-101117440D01*
X223837765Y-101068157D01*
X224047809Y-100927809D01*
X224188157Y-100717765D01*
X224237440Y-100470000D01*
X224237440Y-98770000D01*
X224188157Y-98522235D01*
X224047809Y-98312191D01*
X223837765Y-98171843D01*
X223792381Y-98162816D01*
X223810625Y-98150625D01*
X224138839Y-97659418D01*
X224254092Y-97080000D01*
X224138839Y-96500582D01*
X223810625Y-96009375D01*
X223512239Y-95810000D01*
X223810625Y-95610625D01*
X224043273Y-95262443D01*
X224329375Y-95690625D01*
X224820582Y-96018839D01*
X225253744Y-96105000D01*
X225546256Y-96105000D01*
X225979418Y-96018839D01*
X226470625Y-95690625D01*
X226671353Y-95390214D01*
X227058642Y-95815183D01*
X227583108Y-96061486D01*
X227813000Y-95940819D01*
X227813000Y-94747000D01*
X228067000Y-94747000D01*
X228067000Y-95940819D01*
X228296892Y-96061486D01*
X228821358Y-95815183D01*
X229211645Y-95386924D01*
X229381476Y-94976890D01*
X229260155Y-94747000D01*
X228067000Y-94747000D01*
X227813000Y-94747000D01*
X227793000Y-94747000D01*
X227793000Y-94493000D01*
X227813000Y-94493000D01*
X227813000Y-92207000D01*
X228067000Y-92207000D01*
X228067000Y-94493000D01*
X229260155Y-94493000D01*
X229381476Y-94263110D01*
X229211645Y-93853076D01*
X228821358Y-93424817D01*
X228662046Y-93350000D01*
X228821358Y-93275183D01*
X229211645Y-92846924D01*
X229381476Y-92436890D01*
X229260155Y-92207000D01*
X228067000Y-92207000D01*
X227813000Y-92207000D01*
X227793000Y-92207000D01*
X227793000Y-91953000D01*
X227813000Y-91953000D01*
X227813000Y-89667000D01*
X228067000Y-89667000D01*
X228067000Y-91953000D01*
X229260155Y-91953000D01*
X229381476Y-91723110D01*
X229211645Y-91313076D01*
X228821358Y-90884817D01*
X228662046Y-90810000D01*
X228821358Y-90735183D01*
X229211645Y-90306924D01*
X229381476Y-89896890D01*
X229260155Y-89667000D01*
X228067000Y-89667000D01*
X227813000Y-89667000D01*
X227793000Y-89667000D01*
X227793000Y-89413000D01*
X227813000Y-89413000D01*
X227813000Y-87127000D01*
X228067000Y-87127000D01*
X228067000Y-89413000D01*
X229260155Y-89413000D01*
X229381476Y-89183110D01*
X229211645Y-88773076D01*
X228821358Y-88344817D01*
X228662046Y-88270000D01*
X228821358Y-88195183D01*
X229211645Y-87766924D01*
X229381476Y-87356890D01*
X229260155Y-87127000D01*
X228067000Y-87127000D01*
X227813000Y-87127000D01*
X227793000Y-87127000D01*
X227793000Y-86873000D01*
X227813000Y-86873000D01*
X227813000Y-85679181D01*
X228067000Y-85679181D01*
X228067000Y-86873000D01*
X229260155Y-86873000D01*
X229381476Y-86643110D01*
X229211645Y-86233076D01*
X228821358Y-85804817D01*
X228296892Y-85558514D01*
X228067000Y-85679181D01*
X227813000Y-85679181D01*
X227583108Y-85558514D01*
X227058642Y-85804817D01*
X226869961Y-86011855D01*
X226848157Y-85902235D01*
X226707809Y-85692191D01*
X226497765Y-85551843D01*
X226250000Y-85502560D01*
X224550000Y-85502560D01*
X224302235Y-85551843D01*
X224092191Y-85692191D01*
X223951843Y-85902235D01*
X223927550Y-86024366D01*
X223810625Y-85849375D01*
X223491522Y-85636157D01*
X223621358Y-85575183D01*
X224011645Y-85146924D01*
X224181476Y-84736890D01*
X224060155Y-84507000D01*
X222867000Y-84507000D01*
X222867000Y-84527000D01*
X222613000Y-84527000D01*
X222613000Y-84507000D01*
X221419845Y-84507000D01*
X221298524Y-84736890D01*
X221468355Y-85146924D01*
X221858642Y-85575183D01*
X221988478Y-85636157D01*
X221669375Y-85849375D01*
X221341161Y-86340582D01*
X221225908Y-86920000D01*
X216569502Y-86920000D01*
X216569502Y-81840000D01*
X221225908Y-81840000D01*
X221341161Y-82419418D01*
X221669375Y-82910625D01*
X221988478Y-83123843D01*
X221858642Y-83184817D01*
X221468355Y-83613076D01*
X221298524Y-84023110D01*
X221419845Y-84253000D01*
X222613000Y-84253000D01*
X222613000Y-84233000D01*
X222867000Y-84233000D01*
X222867000Y-84253000D01*
X224060155Y-84253000D01*
X224181476Y-84023110D01*
X224011645Y-83613076D01*
X223621358Y-83184817D01*
X223491522Y-83123843D01*
X223810625Y-82910625D01*
X224138839Y-82419418D01*
X224254092Y-81840000D01*
X224138839Y-81260582D01*
X223810625Y-80769375D01*
X223319418Y-80441161D01*
X222886256Y-80355000D01*
X222593744Y-80355000D01*
X222160582Y-80441161D01*
X221669375Y-80769375D01*
X221341161Y-81260582D01*
X221225908Y-81840000D01*
X216569502Y-81840000D01*
X216569502Y-75150000D01*
X229462560Y-75150000D01*
X229462560Y-76850000D01*
X229511843Y-77097765D01*
X229652191Y-77307809D01*
X229862235Y-77448157D01*
X230110000Y-77497440D01*
X231810000Y-77497440D01*
X232057765Y-77448157D01*
X232267809Y-77307809D01*
X232408157Y-77097765D01*
X232417184Y-77052381D01*
X232429375Y-77070625D01*
X232920582Y-77398839D01*
X233353744Y-77485000D01*
X233646256Y-77485000D01*
X234079418Y-77398839D01*
X234570625Y-77070625D01*
X234783843Y-76751522D01*
X234844817Y-76881358D01*
X235273076Y-77271645D01*
X235683110Y-77441476D01*
X235913000Y-77320155D01*
X235913000Y-76127000D01*
X236167000Y-76127000D01*
X236167000Y-77320155D01*
X236396890Y-77441476D01*
X236806924Y-77271645D01*
X237235183Y-76881358D01*
X237481486Y-76356892D01*
X237360819Y-76127000D01*
X236167000Y-76127000D01*
X235913000Y-76127000D01*
X235893000Y-76127000D01*
X235893000Y-75873000D01*
X235913000Y-75873000D01*
X235913000Y-74679845D01*
X236167000Y-74679845D01*
X236167000Y-75873000D01*
X237360819Y-75873000D01*
X237481486Y-75643108D01*
X237235183Y-75118642D01*
X236806924Y-74728355D01*
X236396890Y-74558524D01*
X236167000Y-74679845D01*
X235913000Y-74679845D01*
X235683110Y-74558524D01*
X235273076Y-74728355D01*
X234844817Y-75118642D01*
X234783843Y-75248478D01*
X234570625Y-74929375D01*
X234079418Y-74601161D01*
X233646256Y-74515000D01*
X233353744Y-74515000D01*
X232920582Y-74601161D01*
X232429375Y-74929375D01*
X232417184Y-74947619D01*
X232408157Y-74902235D01*
X232267809Y-74692191D01*
X232057765Y-74551843D01*
X231810000Y-74502560D01*
X230110000Y-74502560D01*
X229862235Y-74551843D01*
X229652191Y-74692191D01*
X229511843Y-74902235D01*
X229462560Y-75150000D01*
X216569502Y-75150000D01*
X216569502Y-71650000D01*
X229462560Y-71650000D01*
X229462560Y-73350000D01*
X229511843Y-73597765D01*
X229652191Y-73807809D01*
X229862235Y-73948157D01*
X230110000Y-73997440D01*
X231810000Y-73997440D01*
X232057765Y-73948157D01*
X232267809Y-73807809D01*
X232408157Y-73597765D01*
X232417184Y-73552381D01*
X232429375Y-73570625D01*
X232920582Y-73898839D01*
X233353744Y-73985000D01*
X233646256Y-73985000D01*
X234079418Y-73898839D01*
X234570625Y-73570625D01*
X234783843Y-73251522D01*
X234844817Y-73381358D01*
X235273076Y-73771645D01*
X235683110Y-73941476D01*
X235913000Y-73820155D01*
X235913000Y-72627000D01*
X236167000Y-72627000D01*
X236167000Y-73820155D01*
X236396890Y-73941476D01*
X236806924Y-73771645D01*
X237235183Y-73381358D01*
X237481486Y-72856892D01*
X237360819Y-72627000D01*
X236167000Y-72627000D01*
X235913000Y-72627000D01*
X235893000Y-72627000D01*
X235893000Y-72373000D01*
X235913000Y-72373000D01*
X235913000Y-71179845D01*
X236167000Y-71179845D01*
X236167000Y-72373000D01*
X237360819Y-72373000D01*
X237481486Y-72143108D01*
X237235183Y-71618642D01*
X236806924Y-71228355D01*
X236396890Y-71058524D01*
X236167000Y-71179845D01*
X235913000Y-71179845D01*
X235683110Y-71058524D01*
X235273076Y-71228355D01*
X234844817Y-71618642D01*
X234783843Y-71748478D01*
X234570625Y-71429375D01*
X234079418Y-71101161D01*
X233646256Y-71015000D01*
X233353744Y-71015000D01*
X232920582Y-71101161D01*
X232429375Y-71429375D01*
X232417184Y-71447619D01*
X232408157Y-71402235D01*
X232267809Y-71192191D01*
X232057765Y-71051843D01*
X231810000Y-71002560D01*
X230110000Y-71002560D01*
X229862235Y-71051843D01*
X229652191Y-71192191D01*
X229511843Y-71402235D01*
X229462560Y-71650000D01*
X216569502Y-71650000D01*
X216569502Y-68150000D01*
X229462560Y-68150000D01*
X229462560Y-69850000D01*
X229511843Y-70097765D01*
X229652191Y-70307809D01*
X229862235Y-70448157D01*
X230110000Y-70497440D01*
X231810000Y-70497440D01*
X232057765Y-70448157D01*
X232267809Y-70307809D01*
X232408157Y-70097765D01*
X232417184Y-70052381D01*
X232429375Y-70070625D01*
X232920582Y-70398839D01*
X233353744Y-70485000D01*
X233646256Y-70485000D01*
X234079418Y-70398839D01*
X234570625Y-70070625D01*
X234783843Y-69751522D01*
X234844817Y-69881358D01*
X235273076Y-70271645D01*
X235683110Y-70441476D01*
X235913000Y-70320155D01*
X235913000Y-69127000D01*
X236167000Y-69127000D01*
X236167000Y-70320155D01*
X236396890Y-70441476D01*
X236806924Y-70271645D01*
X237235183Y-69881358D01*
X237481486Y-69356892D01*
X237360819Y-69127000D01*
X236167000Y-69127000D01*
X235913000Y-69127000D01*
X235893000Y-69127000D01*
X235893000Y-68873000D01*
X235913000Y-68873000D01*
X235913000Y-67679845D01*
X236167000Y-67679845D01*
X236167000Y-68873000D01*
X237360819Y-68873000D01*
X237481486Y-68643108D01*
X237235183Y-68118642D01*
X236806924Y-67728355D01*
X236396890Y-67558524D01*
X236167000Y-67679845D01*
X235913000Y-67679845D01*
X235683110Y-67558524D01*
X235273076Y-67728355D01*
X234844817Y-68118642D01*
X234783843Y-68248478D01*
X234570625Y-67929375D01*
X234079418Y-67601161D01*
X233646256Y-67515000D01*
X233353744Y-67515000D01*
X232920582Y-67601161D01*
X232429375Y-67929375D01*
X232417184Y-67947619D01*
X232408157Y-67902235D01*
X232267809Y-67692191D01*
X232057765Y-67551843D01*
X231810000Y-67502560D01*
X230110000Y-67502560D01*
X229862235Y-67551843D01*
X229652191Y-67692191D01*
X229511843Y-67902235D01*
X229462560Y-68150000D01*
X216569502Y-68150000D01*
X216569502Y-64650000D01*
X229462560Y-64650000D01*
X229462560Y-66350000D01*
X229511843Y-66597765D01*
X229652191Y-66807809D01*
X229862235Y-66948157D01*
X230110000Y-66997440D01*
X231810000Y-66997440D01*
X232057765Y-66948157D01*
X232267809Y-66807809D01*
X232408157Y-66597765D01*
X232417184Y-66552381D01*
X232429375Y-66570625D01*
X232920582Y-66898839D01*
X233353744Y-66985000D01*
X233646256Y-66985000D01*
X234079418Y-66898839D01*
X234570625Y-66570625D01*
X234783843Y-66251522D01*
X234844817Y-66381358D01*
X235273076Y-66771645D01*
X235683110Y-66941476D01*
X235913000Y-66820155D01*
X235913000Y-65627000D01*
X236167000Y-65627000D01*
X236167000Y-66820155D01*
X236396890Y-66941476D01*
X236806924Y-66771645D01*
X237235183Y-66381358D01*
X237481486Y-65856892D01*
X237360819Y-65627000D01*
X236167000Y-65627000D01*
X235913000Y-65627000D01*
X235893000Y-65627000D01*
X235893000Y-65373000D01*
X235913000Y-65373000D01*
X235913000Y-64179845D01*
X236167000Y-64179845D01*
X236167000Y-65373000D01*
X237360819Y-65373000D01*
X237481486Y-65143108D01*
X237235183Y-64618642D01*
X236806924Y-64228355D01*
X236396890Y-64058524D01*
X236167000Y-64179845D01*
X235913000Y-64179845D01*
X235683110Y-64058524D01*
X235273076Y-64228355D01*
X234844817Y-64618642D01*
X234783843Y-64748478D01*
X234570625Y-64429375D01*
X234079418Y-64101161D01*
X233646256Y-64015000D01*
X233353744Y-64015000D01*
X232920582Y-64101161D01*
X232429375Y-64429375D01*
X232417184Y-64447619D01*
X232408157Y-64402235D01*
X232267809Y-64192191D01*
X232057765Y-64051843D01*
X231810000Y-64002560D01*
X230110000Y-64002560D01*
X229862235Y-64051843D01*
X229652191Y-64192191D01*
X229511843Y-64402235D01*
X229462560Y-64650000D01*
X216569502Y-64650000D01*
X216569502Y-62505299D01*
X217924801Y-61150000D01*
X229462560Y-61150000D01*
X229462560Y-62850000D01*
X229511843Y-63097765D01*
X229652191Y-63307809D01*
X229862235Y-63448157D01*
X230110000Y-63497440D01*
X231810000Y-63497440D01*
X232057765Y-63448157D01*
X232267809Y-63307809D01*
X232408157Y-63097765D01*
X232417184Y-63052381D01*
X232429375Y-63070625D01*
X232920582Y-63398839D01*
X233353744Y-63485000D01*
X233646256Y-63485000D01*
X234079418Y-63398839D01*
X234570625Y-63070625D01*
X234783843Y-62751522D01*
X234844817Y-62881358D01*
X235273076Y-63271645D01*
X235683110Y-63441476D01*
X235913000Y-63320155D01*
X235913000Y-62127000D01*
X236167000Y-62127000D01*
X236167000Y-63320155D01*
X236396890Y-63441476D01*
X236806924Y-63271645D01*
X237235183Y-62881358D01*
X237481486Y-62356892D01*
X237360819Y-62127000D01*
X236167000Y-62127000D01*
X235913000Y-62127000D01*
X235893000Y-62127000D01*
X235893000Y-61873000D01*
X235913000Y-61873000D01*
X235913000Y-60679845D01*
X236167000Y-60679845D01*
X236167000Y-61873000D01*
X237360819Y-61873000D01*
X237481486Y-61643108D01*
X237235183Y-61118642D01*
X236806924Y-60728355D01*
X236396890Y-60558524D01*
X236167000Y-60679845D01*
X235913000Y-60679845D01*
X235683110Y-60558524D01*
X235273076Y-60728355D01*
X234844817Y-61118642D01*
X234783843Y-61248478D01*
X234570625Y-60929375D01*
X234079418Y-60601161D01*
X233646256Y-60515000D01*
X233353744Y-60515000D01*
X232920582Y-60601161D01*
X232429375Y-60929375D01*
X232417184Y-60947619D01*
X232408157Y-60902235D01*
X232267809Y-60692191D01*
X232057765Y-60551843D01*
X231810000Y-60502560D01*
X230110000Y-60502560D01*
X229862235Y-60551843D01*
X229652191Y-60692191D01*
X229511843Y-60902235D01*
X229462560Y-61150000D01*
X217924801Y-61150000D01*
X221424801Y-57650000D01*
X229462560Y-57650000D01*
X229462560Y-59350000D01*
X229511843Y-59597765D01*
X229652191Y-59807809D01*
X229862235Y-59948157D01*
X230110000Y-59997440D01*
X231810000Y-59997440D01*
X232057765Y-59948157D01*
X232267809Y-59807809D01*
X232408157Y-59597765D01*
X232417184Y-59552381D01*
X232429375Y-59570625D01*
X232920582Y-59898839D01*
X233353744Y-59985000D01*
X233646256Y-59985000D01*
X234079418Y-59898839D01*
X234570625Y-59570625D01*
X234783843Y-59251522D01*
X234844817Y-59381358D01*
X235273076Y-59771645D01*
X235683110Y-59941476D01*
X235913000Y-59820155D01*
X235913000Y-58627000D01*
X236167000Y-58627000D01*
X236167000Y-59820155D01*
X236396890Y-59941476D01*
X236806924Y-59771645D01*
X237235183Y-59381358D01*
X237481486Y-58856892D01*
X237360819Y-58627000D01*
X236167000Y-58627000D01*
X235913000Y-58627000D01*
X235893000Y-58627000D01*
X235893000Y-58373000D01*
X235913000Y-58373000D01*
X235913000Y-57179845D01*
X236167000Y-57179845D01*
X236167000Y-58373000D01*
X237360819Y-58373000D01*
X237481486Y-58143108D01*
X237235183Y-57618642D01*
X236806924Y-57228355D01*
X236396890Y-57058524D01*
X236167000Y-57179845D01*
X235913000Y-57179845D01*
X235683110Y-57058524D01*
X235273076Y-57228355D01*
X234844817Y-57618642D01*
X234783843Y-57748478D01*
X234570625Y-57429375D01*
X234079418Y-57101161D01*
X233646256Y-57015000D01*
X233353744Y-57015000D01*
X232920582Y-57101161D01*
X232429375Y-57429375D01*
X232417184Y-57447619D01*
X232408157Y-57402235D01*
X232267809Y-57192191D01*
X232057765Y-57051843D01*
X231810000Y-57002560D01*
X230110000Y-57002560D01*
X229862235Y-57051843D01*
X229652191Y-57192191D01*
X229511843Y-57402235D01*
X229462560Y-57650000D01*
X221424801Y-57650000D01*
X224924801Y-54150000D01*
X229462560Y-54150000D01*
X229462560Y-55850000D01*
X229511843Y-56097765D01*
X229652191Y-56307809D01*
X229862235Y-56448157D01*
X230110000Y-56497440D01*
X231810000Y-56497440D01*
X232057765Y-56448157D01*
X232267809Y-56307809D01*
X232408157Y-56097765D01*
X232417184Y-56052381D01*
X232429375Y-56070625D01*
X232920582Y-56398839D01*
X233353744Y-56485000D01*
X233646256Y-56485000D01*
X234079418Y-56398839D01*
X234570625Y-56070625D01*
X234783843Y-55751522D01*
X234844817Y-55881358D01*
X235273076Y-56271645D01*
X235683110Y-56441476D01*
X235913000Y-56320155D01*
X235913000Y-55127000D01*
X236167000Y-55127000D01*
X236167000Y-56320155D01*
X236396890Y-56441476D01*
X236806924Y-56271645D01*
X237235183Y-55881358D01*
X237481486Y-55356892D01*
X237360819Y-55127000D01*
X236167000Y-55127000D01*
X235913000Y-55127000D01*
X235893000Y-55127000D01*
X235893000Y-54873000D01*
X235913000Y-54873000D01*
X235913000Y-53679845D01*
X236167000Y-53679845D01*
X236167000Y-54873000D01*
X237360819Y-54873000D01*
X237481486Y-54643108D01*
X237235183Y-54118642D01*
X236806924Y-53728355D01*
X236396890Y-53558524D01*
X236167000Y-53679845D01*
X235913000Y-53679845D01*
X235683110Y-53558524D01*
X235273076Y-53728355D01*
X234844817Y-54118642D01*
X234783843Y-54248478D01*
X234570625Y-53929375D01*
X234079418Y-53601161D01*
X233646256Y-53515000D01*
X233353744Y-53515000D01*
X232920582Y-53601161D01*
X232429375Y-53929375D01*
X232417184Y-53947619D01*
X232408157Y-53902235D01*
X232267809Y-53692191D01*
X232057765Y-53551843D01*
X231810000Y-53502560D01*
X230110000Y-53502560D01*
X229862235Y-53551843D01*
X229652191Y-53692191D01*
X229511843Y-53902235D01*
X229462560Y-54150000D01*
X224924801Y-54150000D01*
X225484473Y-53590329D01*
X225547929Y-53547929D01*
X225648483Y-53397440D01*
X226750000Y-53397440D01*
X226997765Y-53348157D01*
X227207809Y-53207809D01*
X227348157Y-52997765D01*
X227397440Y-52750000D01*
X227397440Y-50650000D01*
X229462560Y-50650000D01*
X229462560Y-52350000D01*
X229511843Y-52597765D01*
X229652191Y-52807809D01*
X229862235Y-52948157D01*
X230110000Y-52997440D01*
X231810000Y-52997440D01*
X232057765Y-52948157D01*
X232267809Y-52807809D01*
X232408157Y-52597765D01*
X232417184Y-52552381D01*
X232429375Y-52570625D01*
X232920582Y-52898839D01*
X233353744Y-52985000D01*
X233646256Y-52985000D01*
X234079418Y-52898839D01*
X234570625Y-52570625D01*
X234783843Y-52251522D01*
X234844817Y-52381358D01*
X235273076Y-52771645D01*
X235683110Y-52941476D01*
X235913000Y-52820155D01*
X235913000Y-51627000D01*
X236167000Y-51627000D01*
X236167000Y-52820155D01*
X236396890Y-52941476D01*
X236806924Y-52771645D01*
X237235183Y-52381358D01*
X237481486Y-51856892D01*
X237360819Y-51627000D01*
X236167000Y-51627000D01*
X235913000Y-51627000D01*
X235893000Y-51627000D01*
X235893000Y-51373000D01*
X235913000Y-51373000D01*
X235913000Y-50179845D01*
X236167000Y-50179845D01*
X236167000Y-51373000D01*
X237360819Y-51373000D01*
X237481486Y-51143108D01*
X237235183Y-50618642D01*
X236806924Y-50228355D01*
X236396890Y-50058524D01*
X236167000Y-50179845D01*
X235913000Y-50179845D01*
X235683110Y-50058524D01*
X235273076Y-50228355D01*
X234844817Y-50618642D01*
X234783843Y-50748478D01*
X234570625Y-50429375D01*
X234079418Y-50101161D01*
X233646256Y-50015000D01*
X233353744Y-50015000D01*
X232920582Y-50101161D01*
X232429375Y-50429375D01*
X232417184Y-50447619D01*
X232408157Y-50402235D01*
X232267809Y-50192191D01*
X232057765Y-50051843D01*
X231810000Y-50002560D01*
X230110000Y-50002560D01*
X229862235Y-50051843D01*
X229652191Y-50192191D01*
X229511843Y-50402235D01*
X229462560Y-50650000D01*
X227397440Y-50650000D01*
X227397440Y-49250000D01*
X227348157Y-49002235D01*
X227207809Y-48792191D01*
X226997765Y-48651843D01*
X226750000Y-48602560D01*
X223250000Y-48602560D01*
X223002235Y-48651843D01*
X222792191Y-48792191D01*
X222651843Y-49002235D01*
X222602560Y-49250000D01*
X222602560Y-52750000D01*
X222651843Y-52997765D01*
X222792191Y-53207809D01*
X223002235Y-53348157D01*
X223250000Y-53397440D01*
X223527758Y-53397440D01*
X215325032Y-61600167D01*
X215261573Y-61642569D01*
X215093598Y-61893962D01*
X215049502Y-62115647D01*
X215049502Y-62115651D01*
X215034614Y-62190498D01*
X215049502Y-62265345D01*
X215049503Y-87705602D01*
X214932071Y-87823034D01*
X214774502Y-88203440D01*
X186198242Y-88203440D01*
X182140000Y-84145199D01*
X182140000Y-79997440D01*
X182230000Y-79997440D01*
X182477765Y-79948157D01*
X182687809Y-79807809D01*
X182828157Y-79597765D01*
X182848739Y-79494292D01*
X183153076Y-79771645D01*
X183563110Y-79941476D01*
X183793000Y-79820155D01*
X183793000Y-78627000D01*
X183773000Y-78627000D01*
X183773000Y-78373000D01*
X183793000Y-78373000D01*
X183793000Y-77179845D01*
X184047000Y-77179845D01*
X184047000Y-78373000D01*
X184067000Y-78373000D01*
X184067000Y-78627000D01*
X184047000Y-78627000D01*
X184047000Y-79820155D01*
X184276890Y-79941476D01*
X184686924Y-79771645D01*
X185115183Y-79381358D01*
X185176157Y-79251522D01*
X185389375Y-79570625D01*
X185880582Y-79898839D01*
X186313744Y-79985000D01*
X186606256Y-79985000D01*
X187039418Y-79898839D01*
X187530625Y-79570625D01*
X187730000Y-79272239D01*
X187929375Y-79570625D01*
X188420582Y-79898839D01*
X188853744Y-79985000D01*
X189146256Y-79985000D01*
X189579418Y-79898839D01*
X190070625Y-79570625D01*
X190398839Y-79079418D01*
X190514092Y-78500000D01*
X190398839Y-77920582D01*
X190070625Y-77429375D01*
X189579418Y-77101161D01*
X189146256Y-77015000D01*
X188853744Y-77015000D01*
X188420582Y-77101161D01*
X187929375Y-77429375D01*
X187730000Y-77727761D01*
X187530625Y-77429375D01*
X187039418Y-77101161D01*
X186606256Y-77015000D01*
X186313744Y-77015000D01*
X185880582Y-77101161D01*
X185389375Y-77429375D01*
X185176157Y-77748478D01*
X185115183Y-77618642D01*
X184686924Y-77228355D01*
X184276890Y-77058524D01*
X184047000Y-77179845D01*
X183793000Y-77179845D01*
X183563110Y-77058524D01*
X183153076Y-77228355D01*
X182848739Y-77505708D01*
X182828157Y-77402235D01*
X182687809Y-77192191D01*
X182477765Y-77051843D01*
X182230000Y-77002560D01*
X180530000Y-77002560D01*
X180282235Y-77051843D01*
X180072191Y-77192191D01*
X179931843Y-77402235D01*
X179882560Y-77650000D01*
X158588951Y-77650000D01*
X157564317Y-75856892D01*
X163018514Y-75856892D01*
X163264817Y-76381358D01*
X163693076Y-76771645D01*
X164103110Y-76941476D01*
X164333000Y-76820155D01*
X164333000Y-75627000D01*
X163139181Y-75627000D01*
X163018514Y-75856892D01*
X157564317Y-75856892D01*
X157156441Y-75143108D01*
X163018514Y-75143108D01*
X163139181Y-75373000D01*
X164333000Y-75373000D01*
X164333000Y-74179845D01*
X164587000Y-74179845D01*
X164587000Y-75373000D01*
X164607000Y-75373000D01*
X164607000Y-75627000D01*
X164587000Y-75627000D01*
X164587000Y-76820155D01*
X164816890Y-76941476D01*
X165226924Y-76771645D01*
X165655183Y-76381358D01*
X165716157Y-76251522D01*
X165929375Y-76570625D01*
X166420582Y-76898839D01*
X166853744Y-76985000D01*
X167146256Y-76985000D01*
X167579418Y-76898839D01*
X168070625Y-76570625D01*
X168082816Y-76552381D01*
X168091843Y-76597765D01*
X168232191Y-76807809D01*
X168442235Y-76948157D01*
X168690000Y-76997440D01*
X170390000Y-76997440D01*
X170637765Y-76948157D01*
X170847809Y-76807809D01*
X170988157Y-76597765D01*
X171037440Y-76350000D01*
X171037440Y-74650000D01*
X170988157Y-74402235D01*
X170847809Y-74192191D01*
X170637765Y-74051843D01*
X170390000Y-74002560D01*
X168690000Y-74002560D01*
X168442235Y-74051843D01*
X168232191Y-74192191D01*
X168091843Y-74402235D01*
X168082816Y-74447619D01*
X168070625Y-74429375D01*
X167579418Y-74101161D01*
X167146256Y-74015000D01*
X166853744Y-74015000D01*
X166420582Y-74101161D01*
X165929375Y-74429375D01*
X165716157Y-74748478D01*
X165655183Y-74618642D01*
X165226924Y-74228355D01*
X164816890Y-74058524D01*
X164587000Y-74179845D01*
X164333000Y-74179845D01*
X164103110Y-74058524D01*
X163693076Y-74228355D01*
X163264817Y-74618642D01*
X163018514Y-75143108D01*
X157156441Y-75143108D01*
X155564317Y-72356892D01*
X163018514Y-72356892D01*
X163264817Y-72881358D01*
X163693076Y-73271645D01*
X164103110Y-73441476D01*
X164333000Y-73320155D01*
X164333000Y-72127000D01*
X163139181Y-72127000D01*
X163018514Y-72356892D01*
X155564317Y-72356892D01*
X155156441Y-71643108D01*
X163018514Y-71643108D01*
X163139181Y-71873000D01*
X164333000Y-71873000D01*
X164333000Y-70679845D01*
X164587000Y-70679845D01*
X164587000Y-71873000D01*
X164607000Y-71873000D01*
X164607000Y-72127000D01*
X164587000Y-72127000D01*
X164587000Y-73320155D01*
X164816890Y-73441476D01*
X165226924Y-73271645D01*
X165655183Y-72881358D01*
X165716157Y-72751522D01*
X165929375Y-73070625D01*
X166420582Y-73398839D01*
X166853744Y-73485000D01*
X167146256Y-73485000D01*
X167579418Y-73398839D01*
X168070625Y-73070625D01*
X168082816Y-73052381D01*
X168091843Y-73097765D01*
X168232191Y-73307809D01*
X168442235Y-73448157D01*
X168690000Y-73497440D01*
X170390000Y-73497440D01*
X170637765Y-73448157D01*
X170847809Y-73307809D01*
X170988157Y-73097765D01*
X171037440Y-72850000D01*
X171037440Y-71150000D01*
X170988157Y-70902235D01*
X170847809Y-70692191D01*
X170637765Y-70551843D01*
X170390000Y-70502560D01*
X168690000Y-70502560D01*
X168442235Y-70551843D01*
X168232191Y-70692191D01*
X168091843Y-70902235D01*
X168082816Y-70947619D01*
X168070625Y-70929375D01*
X167579418Y-70601161D01*
X167146256Y-70515000D01*
X166853744Y-70515000D01*
X166420582Y-70601161D01*
X165929375Y-70929375D01*
X165716157Y-71248478D01*
X165655183Y-71118642D01*
X165226924Y-70728355D01*
X164816890Y-70558524D01*
X164587000Y-70679845D01*
X164333000Y-70679845D01*
X164103110Y-70558524D01*
X163693076Y-70728355D01*
X163264817Y-71118642D01*
X163018514Y-71643108D01*
X155156441Y-71643108D01*
X154722419Y-70883572D01*
X160905000Y-70883572D01*
X160905000Y-68856892D01*
X163018514Y-68856892D01*
X163264817Y-69381358D01*
X163693076Y-69771645D01*
X164103110Y-69941476D01*
X164333000Y-69820155D01*
X164333000Y-68627000D01*
X163139181Y-68627000D01*
X163018514Y-68856892D01*
X160905000Y-68856892D01*
X160905000Y-68143108D01*
X163018514Y-68143108D01*
X163139181Y-68373000D01*
X164333000Y-68373000D01*
X164333000Y-67179845D01*
X164587000Y-67179845D01*
X164587000Y-68373000D01*
X164607000Y-68373000D01*
X164607000Y-68627000D01*
X164587000Y-68627000D01*
X164587000Y-69820155D01*
X164816890Y-69941476D01*
X165226924Y-69771645D01*
X165655183Y-69381358D01*
X165716157Y-69251522D01*
X165929375Y-69570625D01*
X166420582Y-69898839D01*
X166853744Y-69985000D01*
X167146256Y-69985000D01*
X167579418Y-69898839D01*
X168070625Y-69570625D01*
X168082816Y-69552381D01*
X168091843Y-69597765D01*
X168232191Y-69807809D01*
X168442235Y-69948157D01*
X168690000Y-69997440D01*
X170390000Y-69997440D01*
X170637765Y-69948157D01*
X170847809Y-69807809D01*
X170988157Y-69597765D01*
X171037440Y-69350000D01*
X171037440Y-67650000D01*
X170988157Y-67402235D01*
X170847809Y-67192191D01*
X170637765Y-67051843D01*
X170390000Y-67002560D01*
X168690000Y-67002560D01*
X168442235Y-67051843D01*
X168232191Y-67192191D01*
X168091843Y-67402235D01*
X168082816Y-67447619D01*
X168070625Y-67429375D01*
X167579418Y-67101161D01*
X167146256Y-67015000D01*
X166853744Y-67015000D01*
X166420582Y-67101161D01*
X165929375Y-67429375D01*
X165716157Y-67748478D01*
X165655183Y-67618642D01*
X165226924Y-67228355D01*
X164816890Y-67058524D01*
X164587000Y-67179845D01*
X164333000Y-67179845D01*
X164103110Y-67058524D01*
X163693076Y-67228355D01*
X163264817Y-67618642D01*
X163018514Y-68143108D01*
X160905000Y-68143108D01*
X160905000Y-65356892D01*
X163018514Y-65356892D01*
X163264817Y-65881358D01*
X163693076Y-66271645D01*
X164103110Y-66441476D01*
X164333000Y-66320155D01*
X164333000Y-65127000D01*
X163139181Y-65127000D01*
X163018514Y-65356892D01*
X160905000Y-65356892D01*
X160905000Y-64643108D01*
X163018514Y-64643108D01*
X163139181Y-64873000D01*
X164333000Y-64873000D01*
X164333000Y-63679845D01*
X164587000Y-63679845D01*
X164587000Y-64873000D01*
X164607000Y-64873000D01*
X164607000Y-65127000D01*
X164587000Y-65127000D01*
X164587000Y-66320155D01*
X164816890Y-66441476D01*
X165226924Y-66271645D01*
X165655183Y-65881358D01*
X165716157Y-65751522D01*
X165929375Y-66070625D01*
X166420582Y-66398839D01*
X166853744Y-66485000D01*
X167146256Y-66485000D01*
X167579418Y-66398839D01*
X168070625Y-66070625D01*
X168082816Y-66052381D01*
X168091843Y-66097765D01*
X168232191Y-66307809D01*
X168442235Y-66448157D01*
X168690000Y-66497440D01*
X170390000Y-66497440D01*
X170637765Y-66448157D01*
X170847809Y-66307809D01*
X170988157Y-66097765D01*
X171037440Y-65850000D01*
X171037440Y-64150000D01*
X170988157Y-63902235D01*
X170847809Y-63692191D01*
X170637765Y-63551843D01*
X170390000Y-63502560D01*
X168690000Y-63502560D01*
X168442235Y-63551843D01*
X168232191Y-63692191D01*
X168091843Y-63902235D01*
X168082816Y-63947619D01*
X168070625Y-63929375D01*
X167579418Y-63601161D01*
X167146256Y-63515000D01*
X166853744Y-63515000D01*
X166420582Y-63601161D01*
X165929375Y-63929375D01*
X165716157Y-64248478D01*
X165655183Y-64118642D01*
X165226924Y-63728355D01*
X164816890Y-63558524D01*
X164587000Y-63679845D01*
X164333000Y-63679845D01*
X164103110Y-63558524D01*
X163693076Y-63728355D01*
X163264817Y-64118642D01*
X163018514Y-64643108D01*
X160905000Y-64643108D01*
X160905000Y-61856892D01*
X163018514Y-61856892D01*
X163264817Y-62381358D01*
X163693076Y-62771645D01*
X164103110Y-62941476D01*
X164333000Y-62820155D01*
X164333000Y-61627000D01*
X163139181Y-61627000D01*
X163018514Y-61856892D01*
X160905000Y-61856892D01*
X160905000Y-61143108D01*
X163018514Y-61143108D01*
X163139181Y-61373000D01*
X164333000Y-61373000D01*
X164333000Y-60179845D01*
X164587000Y-60179845D01*
X164587000Y-61373000D01*
X164607000Y-61373000D01*
X164607000Y-61627000D01*
X164587000Y-61627000D01*
X164587000Y-62820155D01*
X164816890Y-62941476D01*
X165226924Y-62771645D01*
X165655183Y-62381358D01*
X165716157Y-62251522D01*
X165929375Y-62570625D01*
X166420582Y-62898839D01*
X166853744Y-62985000D01*
X167146256Y-62985000D01*
X167579418Y-62898839D01*
X168070625Y-62570625D01*
X168082816Y-62552381D01*
X168091843Y-62597765D01*
X168232191Y-62807809D01*
X168442235Y-62948157D01*
X168690000Y-62997440D01*
X170390000Y-62997440D01*
X170637765Y-62948157D01*
X170847809Y-62807809D01*
X170988157Y-62597765D01*
X171037440Y-62350000D01*
X171037440Y-60650000D01*
X170988157Y-60402235D01*
X170847809Y-60192191D01*
X170637765Y-60051843D01*
X170390000Y-60002560D01*
X168690000Y-60002560D01*
X168442235Y-60051843D01*
X168232191Y-60192191D01*
X168091843Y-60402235D01*
X168082816Y-60447619D01*
X168070625Y-60429375D01*
X167579418Y-60101161D01*
X167146256Y-60015000D01*
X166853744Y-60015000D01*
X166420582Y-60101161D01*
X165929375Y-60429375D01*
X165716157Y-60748478D01*
X165655183Y-60618642D01*
X165226924Y-60228355D01*
X164816890Y-60058524D01*
X164587000Y-60179845D01*
X164333000Y-60179845D01*
X164103110Y-60058524D01*
X163693076Y-60228355D01*
X163264817Y-60618642D01*
X163018514Y-61143108D01*
X160905000Y-61143108D01*
X160905000Y-58356892D01*
X163018514Y-58356892D01*
X163264817Y-58881358D01*
X163693076Y-59271645D01*
X164103110Y-59441476D01*
X164333000Y-59320155D01*
X164333000Y-58127000D01*
X163139181Y-58127000D01*
X163018514Y-58356892D01*
X160905000Y-58356892D01*
X160905000Y-57643108D01*
X163018514Y-57643108D01*
X163139181Y-57873000D01*
X164333000Y-57873000D01*
X164333000Y-56679845D01*
X164587000Y-56679845D01*
X164587000Y-57873000D01*
X164607000Y-57873000D01*
X164607000Y-58127000D01*
X164587000Y-58127000D01*
X164587000Y-59320155D01*
X164816890Y-59441476D01*
X165226924Y-59271645D01*
X165655183Y-58881358D01*
X165716157Y-58751522D01*
X165929375Y-59070625D01*
X166420582Y-59398839D01*
X166853744Y-59485000D01*
X167146256Y-59485000D01*
X167579418Y-59398839D01*
X168070625Y-59070625D01*
X168082816Y-59052381D01*
X168091843Y-59097765D01*
X168232191Y-59307809D01*
X168442235Y-59448157D01*
X168690000Y-59497440D01*
X170390000Y-59497440D01*
X170637765Y-59448157D01*
X170847809Y-59307809D01*
X170988157Y-59097765D01*
X171037440Y-58850000D01*
X171037440Y-57150000D01*
X170988157Y-56902235D01*
X170847809Y-56692191D01*
X170637765Y-56551843D01*
X170390000Y-56502560D01*
X168690000Y-56502560D01*
X168442235Y-56551843D01*
X168232191Y-56692191D01*
X168091843Y-56902235D01*
X168082816Y-56947619D01*
X168070625Y-56929375D01*
X167579418Y-56601161D01*
X167146256Y-56515000D01*
X166853744Y-56515000D01*
X166420582Y-56601161D01*
X165929375Y-56929375D01*
X165716157Y-57248478D01*
X165655183Y-57118642D01*
X165226924Y-56728355D01*
X164816890Y-56558524D01*
X164587000Y-56679845D01*
X164333000Y-56679845D01*
X164103110Y-56558524D01*
X163693076Y-56728355D01*
X163264817Y-57118642D01*
X163018514Y-57643108D01*
X160905000Y-57643108D01*
X160905000Y-56456429D01*
X154994837Y-56456429D01*
X155887601Y-54856892D01*
X163018514Y-54856892D01*
X163264817Y-55381358D01*
X163693076Y-55771645D01*
X164103110Y-55941476D01*
X164333000Y-55820155D01*
X164333000Y-54627000D01*
X163139181Y-54627000D01*
X163018514Y-54856892D01*
X155887601Y-54856892D01*
X156285992Y-54143108D01*
X163018514Y-54143108D01*
X163139181Y-54373000D01*
X164333000Y-54373000D01*
X164333000Y-53179845D01*
X164587000Y-53179845D01*
X164587000Y-54373000D01*
X164607000Y-54373000D01*
X164607000Y-54627000D01*
X164587000Y-54627000D01*
X164587000Y-55820155D01*
X164816890Y-55941476D01*
X165226924Y-55771645D01*
X165655183Y-55381358D01*
X165716157Y-55251522D01*
X165929375Y-55570625D01*
X166420582Y-55898839D01*
X166853744Y-55985000D01*
X167146256Y-55985000D01*
X167579418Y-55898839D01*
X168070625Y-55570625D01*
X168082816Y-55552381D01*
X168091843Y-55597765D01*
X168232191Y-55807809D01*
X168442235Y-55948157D01*
X168690000Y-55997440D01*
X170390000Y-55997440D01*
X170637765Y-55948157D01*
X170847809Y-55807809D01*
X170988157Y-55597765D01*
X171037440Y-55350000D01*
X171037440Y-53650000D01*
X170988157Y-53402235D01*
X170847809Y-53192191D01*
X170637765Y-53051843D01*
X170390000Y-53002560D01*
X168690000Y-53002560D01*
X168442235Y-53051843D01*
X168232191Y-53192191D01*
X168091843Y-53402235D01*
X168082816Y-53447619D01*
X168070625Y-53429375D01*
X167579418Y-53101161D01*
X167146256Y-53015000D01*
X166853744Y-53015000D01*
X166420582Y-53101161D01*
X165929375Y-53429375D01*
X165716157Y-53748478D01*
X165655183Y-53618642D01*
X165226924Y-53228355D01*
X164816890Y-53058524D01*
X164587000Y-53179845D01*
X164333000Y-53179845D01*
X164103110Y-53058524D01*
X163693076Y-53228355D01*
X163264817Y-53618642D01*
X163018514Y-54143108D01*
X156285992Y-54143108D01*
X157841089Y-51356892D01*
X163018514Y-51356892D01*
X163264817Y-51881358D01*
X163693076Y-52271645D01*
X164103110Y-52441476D01*
X164333000Y-52320155D01*
X164333000Y-51127000D01*
X163139181Y-51127000D01*
X163018514Y-51356892D01*
X157841089Y-51356892D01*
X158239480Y-50643108D01*
X163018514Y-50643108D01*
X163139181Y-50873000D01*
X164333000Y-50873000D01*
X164333000Y-49679845D01*
X164587000Y-49679845D01*
X164587000Y-50873000D01*
X164607000Y-50873000D01*
X164607000Y-51127000D01*
X164587000Y-51127000D01*
X164587000Y-52320155D01*
X164816890Y-52441476D01*
X165226924Y-52271645D01*
X165655183Y-51881358D01*
X165716157Y-51751522D01*
X165929375Y-52070625D01*
X166420582Y-52398839D01*
X166853744Y-52485000D01*
X167146256Y-52485000D01*
X167579418Y-52398839D01*
X168070625Y-52070625D01*
X168082816Y-52052381D01*
X168091843Y-52097765D01*
X168232191Y-52307809D01*
X168442235Y-52448157D01*
X168690000Y-52497440D01*
X170390000Y-52497440D01*
X170637765Y-52448157D01*
X170847809Y-52307809D01*
X170988157Y-52097765D01*
X171037440Y-51850000D01*
X171037440Y-50150000D01*
X170988157Y-49902235D01*
X170847809Y-49692191D01*
X170637765Y-49551843D01*
X170390000Y-49502560D01*
X168690000Y-49502560D01*
X168442235Y-49551843D01*
X168232191Y-49692191D01*
X168091843Y-49902235D01*
X168082816Y-49947619D01*
X168070625Y-49929375D01*
X167579418Y-49601161D01*
X167146256Y-49515000D01*
X166853744Y-49515000D01*
X166420582Y-49601161D01*
X165929375Y-49929375D01*
X165716157Y-50248478D01*
X165655183Y-50118642D01*
X165226924Y-49728355D01*
X164816890Y-49558524D01*
X164587000Y-49679845D01*
X164333000Y-49679845D01*
X164103110Y-49558524D01*
X163693076Y-49728355D01*
X163264817Y-50118642D01*
X163018514Y-50643108D01*
X158239480Y-50643108D01*
X159017028Y-49250000D01*
X172602560Y-49250000D01*
X172602560Y-52750000D01*
X172651843Y-52997765D01*
X172792191Y-53207809D01*
X173002235Y-53348157D01*
X173250000Y-53397440D01*
X176750000Y-53397440D01*
X176997765Y-53348157D01*
X177207809Y-53207809D01*
X177348157Y-52997765D01*
X177397440Y-52750000D01*
X177397440Y-49810000D01*
X192012560Y-49810000D01*
X192012560Y-51510000D01*
X192061843Y-51757765D01*
X192202191Y-51967809D01*
X192412235Y-52108157D01*
X192660000Y-52157440D01*
X194360000Y-52157440D01*
X194607765Y-52108157D01*
X194817809Y-51967809D01*
X194958157Y-51757765D01*
X194978739Y-51654292D01*
X195283076Y-51931645D01*
X195693110Y-52101476D01*
X195923000Y-51980155D01*
X195923000Y-50787000D01*
X196177000Y-50787000D01*
X196177000Y-51980155D01*
X196406890Y-52101476D01*
X196816924Y-51931645D01*
X197245183Y-51541358D01*
X197320000Y-51382046D01*
X197394817Y-51541358D01*
X197823076Y-51931645D01*
X198233110Y-52101476D01*
X198463000Y-51980155D01*
X198463000Y-50787000D01*
X196177000Y-50787000D01*
X195923000Y-50787000D01*
X195903000Y-50787000D01*
X195903000Y-50533000D01*
X195923000Y-50533000D01*
X195923000Y-49339845D01*
X196177000Y-49339845D01*
X196177000Y-50533000D01*
X198463000Y-50533000D01*
X198463000Y-49339845D01*
X198717000Y-49339845D01*
X198717000Y-50533000D01*
X198737000Y-50533000D01*
X198737000Y-50787000D01*
X198717000Y-50787000D01*
X198717000Y-51980155D01*
X198946890Y-52101476D01*
X199356924Y-51931645D01*
X199785183Y-51541358D01*
X199846157Y-51411522D01*
X200059375Y-51730625D01*
X200550582Y-52058839D01*
X200983744Y-52145000D01*
X201276256Y-52145000D01*
X201709418Y-52058839D01*
X202200625Y-51730625D01*
X202400000Y-51432239D01*
X202599375Y-51730625D01*
X202910287Y-51938370D01*
X202954097Y-52158618D01*
X203062033Y-52320155D01*
X203122072Y-52410010D01*
X203185528Y-52452410D01*
X205180000Y-54446883D01*
X205180001Y-71755197D01*
X202250199Y-74685000D01*
X202114126Y-74685000D01*
X201733720Y-74842569D01*
X201442569Y-75133720D01*
X201285000Y-75514126D01*
X201285000Y-75925874D01*
X201442569Y-76306280D01*
X201733720Y-76597431D01*
X202114126Y-76755000D01*
X202525874Y-76755000D01*
X202906280Y-76597431D01*
X203197431Y-76306280D01*
X203355000Y-75925874D01*
X203355000Y-75729801D01*
X206424473Y-72660329D01*
X206487929Y-72617929D01*
X206655904Y-72366537D01*
X206700000Y-72144852D01*
X206700000Y-72144848D01*
X206714888Y-72070001D01*
X206700000Y-71995154D01*
X206700000Y-54206929D01*
X206714888Y-54132081D01*
X206700000Y-54057233D01*
X206700000Y-54057229D01*
X206655904Y-53835544D01*
X206655904Y-53835543D01*
X206530329Y-53647608D01*
X206487929Y-53584152D01*
X206424473Y-53541752D01*
X204664326Y-51781606D01*
X204740625Y-51730625D01*
X205068839Y-51239418D01*
X205184092Y-50660000D01*
X205068839Y-50080582D01*
X204740625Y-49589375D01*
X204249418Y-49261161D01*
X203816256Y-49175000D01*
X203523744Y-49175000D01*
X203090582Y-49261161D01*
X202599375Y-49589375D01*
X202400000Y-49887761D01*
X202200625Y-49589375D01*
X201709418Y-49261161D01*
X201276256Y-49175000D01*
X200983744Y-49175000D01*
X200550582Y-49261161D01*
X200059375Y-49589375D01*
X199846157Y-49908478D01*
X199785183Y-49778642D01*
X199356924Y-49388355D01*
X198946890Y-49218524D01*
X198717000Y-49339845D01*
X198463000Y-49339845D01*
X198233110Y-49218524D01*
X197823076Y-49388355D01*
X197394817Y-49778642D01*
X197320000Y-49937954D01*
X197245183Y-49778642D01*
X196816924Y-49388355D01*
X196406890Y-49218524D01*
X196177000Y-49339845D01*
X195923000Y-49339845D01*
X195693110Y-49218524D01*
X195283076Y-49388355D01*
X194978739Y-49665708D01*
X194958157Y-49562235D01*
X194817809Y-49352191D01*
X194607765Y-49211843D01*
X194360000Y-49162560D01*
X192660000Y-49162560D01*
X192412235Y-49211843D01*
X192202191Y-49352191D01*
X192061843Y-49562235D01*
X192012560Y-49810000D01*
X177397440Y-49810000D01*
X177397440Y-49250000D01*
X177348157Y-49002235D01*
X177207809Y-48792191D01*
X176997765Y-48651843D01*
X176750000Y-48602560D01*
X173250000Y-48602560D01*
X173002235Y-48651843D01*
X172792191Y-48792191D01*
X172651843Y-49002235D01*
X172602560Y-49250000D01*
X159017028Y-49250000D01*
X160122144Y-47270000D01*
X181852560Y-47270000D01*
X181852560Y-48970000D01*
X181901843Y-49217765D01*
X182042191Y-49427809D01*
X182252235Y-49568157D01*
X182500000Y-49617440D01*
X184200000Y-49617440D01*
X184447765Y-49568157D01*
X184657809Y-49427809D01*
X184798157Y-49217765D01*
X184807184Y-49172381D01*
X184819375Y-49190625D01*
X185310582Y-49518839D01*
X185743744Y-49605000D01*
X186036256Y-49605000D01*
X186469418Y-49518839D01*
X186960625Y-49190625D01*
X187173843Y-48871522D01*
X187234817Y-49001358D01*
X187663076Y-49391645D01*
X188073110Y-49561476D01*
X188303000Y-49440155D01*
X188303000Y-48247000D01*
X188557000Y-48247000D01*
X188557000Y-49440155D01*
X188786890Y-49561476D01*
X189196924Y-49391645D01*
X189625183Y-49001358D01*
X189700000Y-48842046D01*
X189774817Y-49001358D01*
X190203076Y-49391645D01*
X190613110Y-49561476D01*
X190843000Y-49440155D01*
X190843000Y-48247000D01*
X191097000Y-48247000D01*
X191097000Y-49440155D01*
X191326890Y-49561476D01*
X191736924Y-49391645D01*
X192165183Y-49001358D01*
X192411486Y-48476892D01*
X192374145Y-48405750D01*
X204725000Y-48405750D01*
X204725000Y-49096309D01*
X204821673Y-49329698D01*
X205000301Y-49508327D01*
X205233690Y-49605000D01*
X205924250Y-49605000D01*
X206083000Y-49446250D01*
X206083000Y-48247000D01*
X206337000Y-48247000D01*
X206337000Y-49446250D01*
X206495750Y-49605000D01*
X207186310Y-49605000D01*
X207419699Y-49508327D01*
X207598327Y-49329698D01*
X207685136Y-49120122D01*
X207983076Y-49391645D01*
X208393110Y-49561476D01*
X208623000Y-49440155D01*
X208623000Y-48247000D01*
X206337000Y-48247000D01*
X206083000Y-48247000D01*
X204883750Y-48247000D01*
X204725000Y-48405750D01*
X192374145Y-48405750D01*
X192290819Y-48247000D01*
X191097000Y-48247000D01*
X190843000Y-48247000D01*
X188557000Y-48247000D01*
X188303000Y-48247000D01*
X188283000Y-48247000D01*
X188283000Y-47993000D01*
X188303000Y-47993000D01*
X188303000Y-46799845D01*
X188557000Y-46799845D01*
X188557000Y-47993000D01*
X190843000Y-47993000D01*
X190843000Y-46799845D01*
X191097000Y-46799845D01*
X191097000Y-47993000D01*
X192290819Y-47993000D01*
X192411486Y-47763108D01*
X192165183Y-47238642D01*
X192060994Y-47143691D01*
X204725000Y-47143691D01*
X204725000Y-47834250D01*
X204883750Y-47993000D01*
X206083000Y-47993000D01*
X206083000Y-46793750D01*
X206337000Y-46793750D01*
X206337000Y-47993000D01*
X208623000Y-47993000D01*
X208623000Y-46799845D01*
X208877000Y-46799845D01*
X208877000Y-47993000D01*
X208897000Y-47993000D01*
X208897000Y-48247000D01*
X208877000Y-48247000D01*
X208877000Y-49440155D01*
X209106890Y-49561476D01*
X209516924Y-49391645D01*
X209945183Y-49001358D01*
X210006157Y-48871522D01*
X210219375Y-49190625D01*
X210710582Y-49518839D01*
X211143744Y-49605000D01*
X211436256Y-49605000D01*
X211869418Y-49518839D01*
X212360625Y-49190625D01*
X212560000Y-48892239D01*
X212759375Y-49190625D01*
X213250582Y-49518839D01*
X213683744Y-49605000D01*
X213976256Y-49605000D01*
X214409418Y-49518839D01*
X214900625Y-49190625D01*
X215228839Y-48699418D01*
X215344092Y-48120000D01*
X215228839Y-47540582D01*
X214900625Y-47049375D01*
X214409418Y-46721161D01*
X213976256Y-46635000D01*
X213683744Y-46635000D01*
X213250582Y-46721161D01*
X212759375Y-47049375D01*
X212560000Y-47347761D01*
X212360625Y-47049375D01*
X211869418Y-46721161D01*
X211436256Y-46635000D01*
X211143744Y-46635000D01*
X210710582Y-46721161D01*
X210219375Y-47049375D01*
X210006157Y-47368478D01*
X209945183Y-47238642D01*
X209516924Y-46848355D01*
X209106890Y-46678524D01*
X208877000Y-46799845D01*
X208623000Y-46799845D01*
X208393110Y-46678524D01*
X207983076Y-46848355D01*
X207685136Y-47119878D01*
X207598327Y-46910302D01*
X207419699Y-46731673D01*
X207186310Y-46635000D01*
X206495750Y-46635000D01*
X206337000Y-46793750D01*
X206083000Y-46793750D01*
X205924250Y-46635000D01*
X205233690Y-46635000D01*
X205000301Y-46731673D01*
X204821673Y-46910302D01*
X204725000Y-47143691D01*
X192060994Y-47143691D01*
X191736924Y-46848355D01*
X191326890Y-46678524D01*
X191097000Y-46799845D01*
X190843000Y-46799845D01*
X190613110Y-46678524D01*
X190203076Y-46848355D01*
X189774817Y-47238642D01*
X189700000Y-47397954D01*
X189625183Y-47238642D01*
X189196924Y-46848355D01*
X188786890Y-46678524D01*
X188557000Y-46799845D01*
X188303000Y-46799845D01*
X188073110Y-46678524D01*
X187663076Y-46848355D01*
X187234817Y-47238642D01*
X187173843Y-47368478D01*
X186960625Y-47049375D01*
X186469418Y-46721161D01*
X186036256Y-46635000D01*
X185743744Y-46635000D01*
X185310582Y-46721161D01*
X184819375Y-47049375D01*
X184807184Y-47067619D01*
X184798157Y-47022235D01*
X184657809Y-46812191D01*
X184447765Y-46671843D01*
X184200000Y-46622560D01*
X182500000Y-46622560D01*
X182252235Y-46671843D01*
X182042191Y-46812191D01*
X181901843Y-47022235D01*
X181852560Y-47270000D01*
X160122144Y-47270000D01*
X162113460Y-43702225D01*
X223115000Y-43702225D01*
X223115000Y-45247775D01*
X223706456Y-46675676D01*
X224799324Y-47768544D01*
X226227225Y-48360000D01*
X227772775Y-48360000D01*
X229200676Y-47768544D01*
X230293544Y-46675676D01*
X230885000Y-45247775D01*
X230885000Y-43702225D01*
X230293544Y-42274324D01*
X229200676Y-41181456D01*
X228810458Y-41019822D01*
X229016174Y-40934612D01*
X229411957Y-40464459D01*
X227000000Y-38052502D01*
X224588043Y-40464459D01*
X224983826Y-40934612D01*
X225206504Y-41012797D01*
X224799324Y-41181456D01*
X223706456Y-42274324D01*
X223115000Y-43702225D01*
X162113460Y-43702225D01*
X165872601Y-36967100D01*
X223078373Y-36967100D01*
X223163390Y-38510309D01*
X223590388Y-39541174D01*
X224060541Y-39936957D01*
X226472498Y-37525000D01*
X227527502Y-37525000D01*
X229939459Y-39936957D01*
X230409612Y-39541174D01*
X230921627Y-38082900D01*
X230836610Y-36539691D01*
X230409612Y-35508826D01*
X229939459Y-35113043D01*
X227527502Y-37525000D01*
X226472498Y-37525000D01*
X224060541Y-35113043D01*
X223590388Y-35508826D01*
X223078373Y-36967100D01*
X165872601Y-36967100D01*
X167201843Y-34585541D01*
X224588043Y-34585541D01*
X227000000Y-36997498D01*
X229411957Y-34585541D01*
X229016174Y-34115388D01*
X227557900Y-33603373D01*
X226014691Y-33688390D01*
X224983826Y-34115388D01*
X224588043Y-34585541D01*
X167201843Y-34585541D01*
X169043588Y-31285750D01*
X172615000Y-31285750D01*
X172615000Y-32876310D01*
X172711673Y-33109699D01*
X172890302Y-33288327D01*
X173123691Y-33385000D01*
X174714250Y-33385000D01*
X174873000Y-33226250D01*
X174873000Y-31127000D01*
X175127000Y-31127000D01*
X175127000Y-33226250D01*
X175285750Y-33385000D01*
X176876309Y-33385000D01*
X177109698Y-33288327D01*
X177288327Y-33109699D01*
X177385000Y-32876310D01*
X177385000Y-31285750D01*
X222615000Y-31285750D01*
X222615000Y-32876310D01*
X222711673Y-33109699D01*
X222890302Y-33288327D01*
X223123691Y-33385000D01*
X224714250Y-33385000D01*
X224873000Y-33226250D01*
X224873000Y-31127000D01*
X225127000Y-31127000D01*
X225127000Y-33226250D01*
X225285750Y-33385000D01*
X226876309Y-33385000D01*
X227109698Y-33288327D01*
X227288327Y-33109699D01*
X227385000Y-32876310D01*
X227385000Y-31285750D01*
X227226250Y-31127000D01*
X225127000Y-31127000D01*
X224873000Y-31127000D01*
X222773750Y-31127000D01*
X222615000Y-31285750D01*
X177385000Y-31285750D01*
X177226250Y-31127000D01*
X175127000Y-31127000D01*
X174873000Y-31127000D01*
X172773750Y-31127000D01*
X172615000Y-31285750D01*
X169043588Y-31285750D01*
X170250319Y-29123690D01*
X172615000Y-29123690D01*
X172615000Y-30714250D01*
X172773750Y-30873000D01*
X174873000Y-30873000D01*
X174873000Y-28773750D01*
X175127000Y-28773750D01*
X175127000Y-30873000D01*
X177226250Y-30873000D01*
X177385000Y-30714250D01*
X177385000Y-29123690D01*
X222615000Y-29123690D01*
X222615000Y-30714250D01*
X222773750Y-30873000D01*
X224873000Y-30873000D01*
X224873000Y-28773750D01*
X225127000Y-28773750D01*
X225127000Y-30873000D01*
X227226250Y-30873000D01*
X227385000Y-30714250D01*
X227385000Y-29123690D01*
X227288327Y-28890301D01*
X227109698Y-28711673D01*
X226876309Y-28615000D01*
X225285750Y-28615000D01*
X225127000Y-28773750D01*
X224873000Y-28773750D01*
X224714250Y-28615000D01*
X223123691Y-28615000D01*
X222890302Y-28711673D01*
X222711673Y-28890301D01*
X222615000Y-29123690D01*
X177385000Y-29123690D01*
X177288327Y-28890301D01*
X177109698Y-28711673D01*
X176876309Y-28615000D01*
X175285750Y-28615000D01*
X175127000Y-28773750D01*
X174873000Y-28773750D01*
X174714250Y-28615000D01*
X173123691Y-28615000D01*
X172890302Y-28711673D01*
X172711673Y-28890301D01*
X172615000Y-29123690D01*
X170250319Y-29123690D01*
X174402148Y-21685000D01*
X225597853Y-21685000D01*
X244551474Y-55643571D01*
X244551474Y-55643571D01*
G37*
X244551474Y-55643571D02*
X238935000Y-55643571D01*
X238935000Y-72356428D01*
X244435948Y-72356428D01*
X225602480Y-105315000D01*
X174397521Y-105315000D01*
X173360379Y-103500000D01*
X175342765Y-103500000D01*
X175430854Y-103942854D01*
X175681712Y-104318288D01*
X176057146Y-104569146D01*
X176500000Y-104657235D01*
X176942854Y-104569146D01*
X177223523Y-104381608D01*
X179223521Y-102381611D01*
X179318289Y-102318289D01*
X179365000Y-102248381D01*
X179365000Y-103611782D01*
X179430854Y-103942854D01*
X179681711Y-104318289D01*
X180057145Y-104569146D01*
X180500000Y-104657235D01*
X180942854Y-104569146D01*
X181318289Y-104318289D01*
X181500001Y-104046339D01*
X181681712Y-104318289D01*
X182057146Y-104569146D01*
X182500000Y-104657235D01*
X182942855Y-104569146D01*
X183318289Y-104318289D01*
X183569146Y-103942855D01*
X183635000Y-103611783D01*
X183635000Y-100084180D01*
X184015000Y-100084180D01*
X184015000Y-100515820D01*
X184180182Y-100914603D01*
X184485397Y-101219818D01*
X184884180Y-101385000D01*
X185315820Y-101385000D01*
X185714603Y-101219818D01*
X186019818Y-100914603D01*
X186185000Y-100515820D01*
X186185000Y-100084180D01*
X188415000Y-100084180D01*
X188415000Y-100515820D01*
X188580182Y-100914603D01*
X188885397Y-101219818D01*
X189284180Y-101385000D01*
X189715820Y-101385000D01*
X190114603Y-101219818D01*
X190419818Y-100914603D01*
X190585000Y-100515820D01*
X190585000Y-100084180D01*
X190419818Y-99685397D01*
X190114603Y-99380182D01*
X189715820Y-99215000D01*
X189284180Y-99215000D01*
X188885397Y-99380182D01*
X188580182Y-99685397D01*
X188415000Y-100084180D01*
X186185000Y-100084180D01*
X186019818Y-99685397D01*
X185714603Y-99380182D01*
X185315820Y-99215000D01*
X184884180Y-99215000D01*
X184485397Y-99380182D01*
X184180182Y-99685397D01*
X184015000Y-100084180D01*
X183635000Y-100084180D01*
X183635000Y-99970131D01*
X185381608Y-98223524D01*
X185569146Y-97942855D01*
X185657235Y-97500001D01*
X185569146Y-97057146D01*
X185318288Y-96681712D01*
X184942854Y-96430854D01*
X184499999Y-96342765D01*
X184057145Y-96430854D01*
X183776476Y-96618392D01*
X181776482Y-98618387D01*
X181681711Y-98681711D01*
X181635000Y-98751619D01*
X181635000Y-97388217D01*
X181569146Y-97057145D01*
X181318289Y-96681711D01*
X180942855Y-96430854D01*
X180500000Y-96342765D01*
X180057146Y-96430854D01*
X179681712Y-96681711D01*
X179500001Y-96953661D01*
X179318289Y-96681711D01*
X178942854Y-96430854D01*
X178500000Y-96342765D01*
X178057145Y-96430854D01*
X177681711Y-96681711D01*
X177430854Y-97057146D01*
X177365000Y-97388218D01*
X177365001Y-100388213D01*
X177365000Y-100388218D01*
X177365000Y-101029868D01*
X175618392Y-102776477D01*
X175430854Y-103057146D01*
X175342765Y-103500000D01*
X173360379Y-103500000D01*
X158588951Y-77650000D01*
X179882560Y-77650000D01*
X179882560Y-79350000D01*
X179931843Y-79597765D01*
X180072191Y-79807809D01*
X180282235Y-79948157D01*
X180530000Y-79997440D01*
X180620000Y-79997440D01*
X180620001Y-84385148D01*
X180605112Y-84460000D01*
X180620001Y-84534852D01*
X180664097Y-84756537D01*
X180832072Y-85007929D01*
X180895528Y-85050329D01*
X193315526Y-97470329D01*
X193315532Y-97470333D01*
X196478791Y-100633593D01*
X196405908Y-101000000D01*
X196521161Y-101579418D01*
X196849375Y-102070625D01*
X197340582Y-102398839D01*
X197773744Y-102485000D01*
X198066256Y-102485000D01*
X198499418Y-102398839D01*
X198990625Y-102070625D01*
X199203843Y-101751522D01*
X199264817Y-101881358D01*
X199693076Y-102271645D01*
X200103110Y-102441476D01*
X200333000Y-102320155D01*
X200333000Y-101127000D01*
X200587000Y-101127000D01*
X200587000Y-102320155D01*
X200816890Y-102441476D01*
X201226924Y-102271645D01*
X201655183Y-101881358D01*
X201730000Y-101722046D01*
X201804817Y-101881358D01*
X202233076Y-102271645D01*
X202643110Y-102441476D01*
X202873000Y-102320155D01*
X202873000Y-101127000D01*
X203127000Y-101127000D01*
X203127000Y-102320155D01*
X203356890Y-102441476D01*
X203766924Y-102271645D01*
X204195183Y-101881358D01*
X204270000Y-101722046D01*
X204344817Y-101881358D01*
X204773076Y-102271645D01*
X205183110Y-102441476D01*
X205413000Y-102320155D01*
X205413000Y-101127000D01*
X205667000Y-101127000D01*
X205667000Y-102320155D01*
X205896890Y-102441476D01*
X206306924Y-102271645D01*
X206735183Y-101881358D01*
X206810000Y-101722046D01*
X206884817Y-101881358D01*
X207313076Y-102271645D01*
X207723110Y-102441476D01*
X207953000Y-102320155D01*
X207953000Y-101127000D01*
X208207000Y-101127000D01*
X208207000Y-102320155D01*
X208436890Y-102441476D01*
X208846924Y-102271645D01*
X209275183Y-101881358D01*
X209521486Y-101356892D01*
X209400819Y-101127000D01*
X208207000Y-101127000D01*
X207953000Y-101127000D01*
X205667000Y-101127000D01*
X205413000Y-101127000D01*
X203127000Y-101127000D01*
X202873000Y-101127000D01*
X200587000Y-101127000D01*
X200333000Y-101127000D01*
X200313000Y-101127000D01*
X200313000Y-100873000D01*
X200333000Y-100873000D01*
X200333000Y-100853000D01*
X200587000Y-100853000D01*
X200587000Y-100873000D01*
X202873000Y-100873000D01*
X202873000Y-100853000D01*
X203127000Y-100853000D01*
X203127000Y-100873000D01*
X205413000Y-100873000D01*
X205413000Y-100853000D01*
X205667000Y-100853000D01*
X205667000Y-100873000D01*
X207953000Y-100873000D01*
X207953000Y-100853000D01*
X208207000Y-100853000D01*
X208207000Y-100873000D01*
X209400819Y-100873000D01*
X209521486Y-100643108D01*
X209275183Y-100118642D01*
X208850214Y-99731353D01*
X209150625Y-99530625D01*
X209478839Y-99039418D01*
X209594092Y-98460000D01*
X209478839Y-97880582D01*
X209150625Y-97389375D01*
X208659418Y-97061161D01*
X208226256Y-96975000D01*
X207933744Y-96975000D01*
X207500582Y-97061161D01*
X207009375Y-97389375D01*
X206810000Y-97687761D01*
X206610625Y-97389375D01*
X206119418Y-97061161D01*
X205686256Y-96975000D01*
X205393744Y-96975000D01*
X204960582Y-97061161D01*
X204469375Y-97389375D01*
X204270000Y-97687761D01*
X204070625Y-97389375D01*
X203579418Y-97061161D01*
X203146256Y-96975000D01*
X202853744Y-96975000D01*
X202420582Y-97061161D01*
X201929375Y-97389375D01*
X201730000Y-97687761D01*
X201530625Y-97389375D01*
X201039418Y-97061161D01*
X200606256Y-96975000D01*
X200313744Y-96975000D01*
X199880582Y-97061161D01*
X199389375Y-97389375D01*
X199377184Y-97407619D01*
X199368157Y-97362235D01*
X199227809Y-97152191D01*
X199017765Y-97011843D01*
X198770000Y-96962560D01*
X197070000Y-96962560D01*
X196822235Y-97011843D01*
X196612191Y-97152191D01*
X196471843Y-97362235D01*
X196422560Y-97610000D01*
X196422560Y-98427758D01*
X194390333Y-96395532D01*
X194390329Y-96395526D01*
X187888936Y-89894134D01*
X195865000Y-89894134D01*
X195865000Y-90305882D01*
X196022569Y-90686288D01*
X196313720Y-90977439D01*
X196694126Y-91135008D01*
X196860199Y-91135008D01*
X199740000Y-94014810D01*
X199740000Y-94396311D01*
X199622569Y-94513742D01*
X199465000Y-94894148D01*
X199465000Y-95305896D01*
X199622569Y-95686302D01*
X199913720Y-95977453D01*
X200294126Y-96135022D01*
X200705874Y-96135022D01*
X201086280Y-95977453D01*
X201377431Y-95686302D01*
X201535000Y-95305896D01*
X201535000Y-94894148D01*
X201377431Y-94513742D01*
X201260000Y-94396311D01*
X201260000Y-93774856D01*
X201274888Y-93700008D01*
X201260000Y-93625160D01*
X201260000Y-93625156D01*
X201215904Y-93403471D01*
X201215904Y-93403470D01*
X201090329Y-93215535D01*
X201047929Y-93152079D01*
X200984473Y-93109679D01*
X197935000Y-90060207D01*
X197935000Y-89894134D01*
X197777431Y-89513728D01*
X197486280Y-89222577D01*
X197105874Y-89065008D01*
X196694126Y-89065008D01*
X196313720Y-89222577D01*
X196022569Y-89513728D01*
X195865000Y-89894134D01*
X187888936Y-89894134D01*
X186198242Y-88203440D01*
X214774502Y-88203440D01*
X214774502Y-88615188D01*
X214932071Y-88995594D01*
X215223222Y-89286745D01*
X215603628Y-89444314D01*
X216015376Y-89444314D01*
X216395782Y-89286745D01*
X216686933Y-88995594D01*
X216844502Y-88615188D01*
X216844502Y-88203440D01*
X216686933Y-87823034D01*
X216569502Y-87705603D01*
X216569502Y-86920000D01*
X221225908Y-86920000D01*
X221341161Y-87499418D01*
X221669375Y-87990625D01*
X221967761Y-88190000D01*
X221669375Y-88389375D01*
X221341161Y-88880582D01*
X221225908Y-89460000D01*
X221341161Y-90039418D01*
X221669375Y-90530625D01*
X221967761Y-90730000D01*
X221669375Y-90929375D01*
X221341161Y-91420582D01*
X221225908Y-92000000D01*
X221341161Y-92579418D01*
X221669375Y-93070625D01*
X221967761Y-93270000D01*
X221669375Y-93469375D01*
X221341161Y-93960582D01*
X221225908Y-94540000D01*
X221341161Y-95119418D01*
X221669375Y-95610625D01*
X221967761Y-95810000D01*
X221669375Y-96009375D01*
X221341161Y-96500582D01*
X221225908Y-97080000D01*
X221341161Y-97659418D01*
X221669375Y-98150625D01*
X221687619Y-98162816D01*
X221642235Y-98171843D01*
X221432191Y-98312191D01*
X221291843Y-98522235D01*
X221242560Y-98770000D01*
X221242560Y-100470000D01*
X221291843Y-100717765D01*
X221432191Y-100927809D01*
X221642235Y-101068157D01*
X221890000Y-101117440D01*
X223590000Y-101117440D01*
X223837765Y-101068157D01*
X224047809Y-100927809D01*
X224188157Y-100717765D01*
X224237440Y-100470000D01*
X224237440Y-98770000D01*
X224188157Y-98522235D01*
X224047809Y-98312191D01*
X223837765Y-98171843D01*
X223792381Y-98162816D01*
X223810625Y-98150625D01*
X224138839Y-97659418D01*
X224254092Y-97080000D01*
X224138839Y-96500582D01*
X223810625Y-96009375D01*
X223512239Y-95810000D01*
X223810625Y-95610625D01*
X224043273Y-95262443D01*
X224329375Y-95690625D01*
X224820582Y-96018839D01*
X225253744Y-96105000D01*
X225546256Y-96105000D01*
X225979418Y-96018839D01*
X226470625Y-95690625D01*
X226671353Y-95390214D01*
X227058642Y-95815183D01*
X227583108Y-96061486D01*
X227813000Y-95940819D01*
X227813000Y-94747000D01*
X228067000Y-94747000D01*
X228067000Y-95940819D01*
X228296892Y-96061486D01*
X228821358Y-95815183D01*
X229211645Y-95386924D01*
X229381476Y-94976890D01*
X229260155Y-94747000D01*
X228067000Y-94747000D01*
X227813000Y-94747000D01*
X227793000Y-94747000D01*
X227793000Y-94493000D01*
X227813000Y-94493000D01*
X227813000Y-92207000D01*
X228067000Y-92207000D01*
X228067000Y-94493000D01*
X229260155Y-94493000D01*
X229381476Y-94263110D01*
X229211645Y-93853076D01*
X228821358Y-93424817D01*
X228662046Y-93350000D01*
X228821358Y-93275183D01*
X229211645Y-92846924D01*
X229381476Y-92436890D01*
X229260155Y-92207000D01*
X228067000Y-92207000D01*
X227813000Y-92207000D01*
X227793000Y-92207000D01*
X227793000Y-91953000D01*
X227813000Y-91953000D01*
X227813000Y-89667000D01*
X228067000Y-89667000D01*
X228067000Y-91953000D01*
X229260155Y-91953000D01*
X229381476Y-91723110D01*
X229211645Y-91313076D01*
X228821358Y-90884817D01*
X228662046Y-90810000D01*
X228821358Y-90735183D01*
X229211645Y-90306924D01*
X229381476Y-89896890D01*
X229260155Y-89667000D01*
X228067000Y-89667000D01*
X227813000Y-89667000D01*
X227793000Y-89667000D01*
X227793000Y-89413000D01*
X227813000Y-89413000D01*
X227813000Y-87127000D01*
X228067000Y-87127000D01*
X228067000Y-89413000D01*
X229260155Y-89413000D01*
X229381476Y-89183110D01*
X229211645Y-88773076D01*
X228821358Y-88344817D01*
X228662046Y-88270000D01*
X228821358Y-88195183D01*
X229211645Y-87766924D01*
X229381476Y-87356890D01*
X229260155Y-87127000D01*
X228067000Y-87127000D01*
X227813000Y-87127000D01*
X227793000Y-87127000D01*
X227793000Y-86873000D01*
X227813000Y-86873000D01*
X227813000Y-85679181D01*
X228067000Y-85679181D01*
X228067000Y-86873000D01*
X229260155Y-86873000D01*
X229381476Y-86643110D01*
X229211645Y-86233076D01*
X228821358Y-85804817D01*
X228296892Y-85558514D01*
X228067000Y-85679181D01*
X227813000Y-85679181D01*
X227583108Y-85558514D01*
X227058642Y-85804817D01*
X226869961Y-86011855D01*
X226848157Y-85902235D01*
X226707809Y-85692191D01*
X226497765Y-85551843D01*
X226250000Y-85502560D01*
X224550000Y-85502560D01*
X224302235Y-85551843D01*
X224092191Y-85692191D01*
X223951843Y-85902235D01*
X223927550Y-86024366D01*
X223810625Y-85849375D01*
X223491522Y-85636157D01*
X223621358Y-85575183D01*
X224011645Y-85146924D01*
X224181476Y-84736890D01*
X224060155Y-84507000D01*
X222867000Y-84507000D01*
X222867000Y-84527000D01*
X222613000Y-84527000D01*
X222613000Y-84507000D01*
X221419845Y-84507000D01*
X221298524Y-84736890D01*
X221468355Y-85146924D01*
X221858642Y-85575183D01*
X221988478Y-85636157D01*
X221669375Y-85849375D01*
X221341161Y-86340582D01*
X221225908Y-86920000D01*
X216569502Y-86920000D01*
X216569502Y-81840000D01*
X221225908Y-81840000D01*
X221341161Y-82419418D01*
X221669375Y-82910625D01*
X221988478Y-83123843D01*
X221858642Y-83184817D01*
X221468355Y-83613076D01*
X221298524Y-84023110D01*
X221419845Y-84253000D01*
X222613000Y-84253000D01*
X222613000Y-84233000D01*
X222867000Y-84233000D01*
X222867000Y-84253000D01*
X224060155Y-84253000D01*
X224181476Y-84023110D01*
X224011645Y-83613076D01*
X223621358Y-83184817D01*
X223491522Y-83123843D01*
X223810625Y-82910625D01*
X224138839Y-82419418D01*
X224254092Y-81840000D01*
X224138839Y-81260582D01*
X223810625Y-80769375D01*
X223319418Y-80441161D01*
X222886256Y-80355000D01*
X222593744Y-80355000D01*
X222160582Y-80441161D01*
X221669375Y-80769375D01*
X221341161Y-81260582D01*
X221225908Y-81840000D01*
X216569502Y-81840000D01*
X216569502Y-75150000D01*
X229462560Y-75150000D01*
X229462560Y-76850000D01*
X229511843Y-77097765D01*
X229652191Y-77307809D01*
X229862235Y-77448157D01*
X230110000Y-77497440D01*
X231810000Y-77497440D01*
X232057765Y-77448157D01*
X232267809Y-77307809D01*
X232408157Y-77097765D01*
X232417184Y-77052381D01*
X232429375Y-77070625D01*
X232920582Y-77398839D01*
X233353744Y-77485000D01*
X233646256Y-77485000D01*
X234079418Y-77398839D01*
X234570625Y-77070625D01*
X234783843Y-76751522D01*
X234844817Y-76881358D01*
X235273076Y-77271645D01*
X235683110Y-77441476D01*
X235913000Y-77320155D01*
X235913000Y-76127000D01*
X236167000Y-76127000D01*
X236167000Y-77320155D01*
X236396890Y-77441476D01*
X236806924Y-77271645D01*
X237235183Y-76881358D01*
X237481486Y-76356892D01*
X237360819Y-76127000D01*
X236167000Y-76127000D01*
X235913000Y-76127000D01*
X235893000Y-76127000D01*
X235893000Y-75873000D01*
X235913000Y-75873000D01*
X235913000Y-74679845D01*
X236167000Y-74679845D01*
X236167000Y-75873000D01*
X237360819Y-75873000D01*
X237481486Y-75643108D01*
X237235183Y-75118642D01*
X236806924Y-74728355D01*
X236396890Y-74558524D01*
X236167000Y-74679845D01*
X235913000Y-74679845D01*
X235683110Y-74558524D01*
X235273076Y-74728355D01*
X234844817Y-75118642D01*
X234783843Y-75248478D01*
X234570625Y-74929375D01*
X234079418Y-74601161D01*
X233646256Y-74515000D01*
X233353744Y-74515000D01*
X232920582Y-74601161D01*
X232429375Y-74929375D01*
X232417184Y-74947619D01*
X232408157Y-74902235D01*
X232267809Y-74692191D01*
X232057765Y-74551843D01*
X231810000Y-74502560D01*
X230110000Y-74502560D01*
X229862235Y-74551843D01*
X229652191Y-74692191D01*
X229511843Y-74902235D01*
X229462560Y-75150000D01*
X216569502Y-75150000D01*
X216569502Y-71650000D01*
X229462560Y-71650000D01*
X229462560Y-73350000D01*
X229511843Y-73597765D01*
X229652191Y-73807809D01*
X229862235Y-73948157D01*
X230110000Y-73997440D01*
X231810000Y-73997440D01*
X232057765Y-73948157D01*
X232267809Y-73807809D01*
X232408157Y-73597765D01*
X232417184Y-73552381D01*
X232429375Y-73570625D01*
X232920582Y-73898839D01*
X233353744Y-73985000D01*
X233646256Y-73985000D01*
X234079418Y-73898839D01*
X234570625Y-73570625D01*
X234783843Y-73251522D01*
X234844817Y-73381358D01*
X235273076Y-73771645D01*
X235683110Y-73941476D01*
X235913000Y-73820155D01*
X235913000Y-72627000D01*
X236167000Y-72627000D01*
X236167000Y-73820155D01*
X236396890Y-73941476D01*
X236806924Y-73771645D01*
X237235183Y-73381358D01*
X237481486Y-72856892D01*
X237360819Y-72627000D01*
X236167000Y-72627000D01*
X235913000Y-72627000D01*
X235893000Y-72627000D01*
X235893000Y-72373000D01*
X235913000Y-72373000D01*
X235913000Y-71179845D01*
X236167000Y-71179845D01*
X236167000Y-72373000D01*
X237360819Y-72373000D01*
X237481486Y-72143108D01*
X237235183Y-71618642D01*
X236806924Y-71228355D01*
X236396890Y-71058524D01*
X236167000Y-71179845D01*
X235913000Y-71179845D01*
X235683110Y-71058524D01*
X235273076Y-71228355D01*
X234844817Y-71618642D01*
X234783843Y-71748478D01*
X234570625Y-71429375D01*
X234079418Y-71101161D01*
X233646256Y-71015000D01*
X233353744Y-71015000D01*
X232920582Y-71101161D01*
X232429375Y-71429375D01*
X232417184Y-71447619D01*
X232408157Y-71402235D01*
X232267809Y-71192191D01*
X232057765Y-71051843D01*
X231810000Y-71002560D01*
X230110000Y-71002560D01*
X229862235Y-71051843D01*
X229652191Y-71192191D01*
X229511843Y-71402235D01*
X229462560Y-71650000D01*
X216569502Y-71650000D01*
X216569502Y-68150000D01*
X229462560Y-68150000D01*
X229462560Y-69850000D01*
X229511843Y-70097765D01*
X229652191Y-70307809D01*
X229862235Y-70448157D01*
X230110000Y-70497440D01*
X231810000Y-70497440D01*
X232057765Y-70448157D01*
X232267809Y-70307809D01*
X232408157Y-70097765D01*
X232417184Y-70052381D01*
X232429375Y-70070625D01*
X232920582Y-70398839D01*
X233353744Y-70485000D01*
X233646256Y-70485000D01*
X234079418Y-70398839D01*
X234570625Y-70070625D01*
X234783843Y-69751522D01*
X234844817Y-69881358D01*
X235273076Y-70271645D01*
X235683110Y-70441476D01*
X235913000Y-70320155D01*
X235913000Y-69127000D01*
X236167000Y-69127000D01*
X236167000Y-70320155D01*
X236396890Y-70441476D01*
X236806924Y-70271645D01*
X237235183Y-69881358D01*
X237481486Y-69356892D01*
X237360819Y-69127000D01*
X236167000Y-69127000D01*
X235913000Y-69127000D01*
X235893000Y-69127000D01*
X235893000Y-68873000D01*
X235913000Y-68873000D01*
X235913000Y-67679845D01*
X236167000Y-67679845D01*
X236167000Y-68873000D01*
X237360819Y-68873000D01*
X237481486Y-68643108D01*
X237235183Y-68118642D01*
X236806924Y-67728355D01*
X236396890Y-67558524D01*
X236167000Y-67679845D01*
X235913000Y-67679845D01*
X235683110Y-67558524D01*
X235273076Y-67728355D01*
X234844817Y-68118642D01*
X234783843Y-68248478D01*
X234570625Y-67929375D01*
X234079418Y-67601161D01*
X233646256Y-67515000D01*
X233353744Y-67515000D01*
X232920582Y-67601161D01*
X232429375Y-67929375D01*
X232417184Y-67947619D01*
X232408157Y-67902235D01*
X232267809Y-67692191D01*
X232057765Y-67551843D01*
X231810000Y-67502560D01*
X230110000Y-67502560D01*
X229862235Y-67551843D01*
X229652191Y-67692191D01*
X229511843Y-67902235D01*
X229462560Y-68150000D01*
X216569502Y-68150000D01*
X216569502Y-64650000D01*
X229462560Y-64650000D01*
X229462560Y-66350000D01*
X229511843Y-66597765D01*
X229652191Y-66807809D01*
X229862235Y-66948157D01*
X230110000Y-66997440D01*
X231810000Y-66997440D01*
X232057765Y-66948157D01*
X232267809Y-66807809D01*
X232408157Y-66597765D01*
X232417184Y-66552381D01*
X232429375Y-66570625D01*
X232920582Y-66898839D01*
X233353744Y-66985000D01*
X233646256Y-66985000D01*
X234079418Y-66898839D01*
X234570625Y-66570625D01*
X234783843Y-66251522D01*
X234844817Y-66381358D01*
X235273076Y-66771645D01*
X235683110Y-66941476D01*
X235913000Y-66820155D01*
X235913000Y-65627000D01*
X236167000Y-65627000D01*
X236167000Y-66820155D01*
X236396890Y-66941476D01*
X236806924Y-66771645D01*
X237235183Y-66381358D01*
X237481486Y-65856892D01*
X237360819Y-65627000D01*
X236167000Y-65627000D01*
X235913000Y-65627000D01*
X235893000Y-65627000D01*
X235893000Y-65373000D01*
X235913000Y-65373000D01*
X235913000Y-64179845D01*
X236167000Y-64179845D01*
X236167000Y-65373000D01*
X237360819Y-65373000D01*
X237481486Y-65143108D01*
X237235183Y-64618642D01*
X236806924Y-64228355D01*
X236396890Y-64058524D01*
X236167000Y-64179845D01*
X235913000Y-64179845D01*
X235683110Y-64058524D01*
X235273076Y-64228355D01*
X234844817Y-64618642D01*
X234783843Y-64748478D01*
X234570625Y-64429375D01*
X234079418Y-64101161D01*
X233646256Y-64015000D01*
X233353744Y-64015000D01*
X232920582Y-64101161D01*
X232429375Y-64429375D01*
X232417184Y-64447619D01*
X232408157Y-64402235D01*
X232267809Y-64192191D01*
X232057765Y-64051843D01*
X231810000Y-64002560D01*
X230110000Y-64002560D01*
X229862235Y-64051843D01*
X229652191Y-64192191D01*
X229511843Y-64402235D01*
X229462560Y-64650000D01*
X216569502Y-64650000D01*
X216569502Y-62505299D01*
X217924801Y-61150000D01*
X229462560Y-61150000D01*
X229462560Y-62850000D01*
X229511843Y-63097765D01*
X229652191Y-63307809D01*
X229862235Y-63448157D01*
X230110000Y-63497440D01*
X231810000Y-63497440D01*
X232057765Y-63448157D01*
X232267809Y-63307809D01*
X232408157Y-63097765D01*
X232417184Y-63052381D01*
X232429375Y-63070625D01*
X232920582Y-63398839D01*
X233353744Y-63485000D01*
X233646256Y-63485000D01*
X234079418Y-63398839D01*
X234570625Y-63070625D01*
X234783843Y-62751522D01*
X234844817Y-62881358D01*
X235273076Y-63271645D01*
X235683110Y-63441476D01*
X235913000Y-63320155D01*
X235913000Y-62127000D01*
X236167000Y-62127000D01*
X236167000Y-63320155D01*
X236396890Y-63441476D01*
X236806924Y-63271645D01*
X237235183Y-62881358D01*
X237481486Y-62356892D01*
X237360819Y-62127000D01*
X236167000Y-62127000D01*
X235913000Y-62127000D01*
X235893000Y-62127000D01*
X235893000Y-61873000D01*
X235913000Y-61873000D01*
X235913000Y-60679845D01*
X236167000Y-60679845D01*
X236167000Y-61873000D01*
X237360819Y-61873000D01*
X237481486Y-61643108D01*
X237235183Y-61118642D01*
X236806924Y-60728355D01*
X236396890Y-60558524D01*
X236167000Y-60679845D01*
X235913000Y-60679845D01*
X235683110Y-60558524D01*
X235273076Y-60728355D01*
X234844817Y-61118642D01*
X234783843Y-61248478D01*
X234570625Y-60929375D01*
X234079418Y-60601161D01*
X233646256Y-60515000D01*
X233353744Y-60515000D01*
X232920582Y-60601161D01*
X232429375Y-60929375D01*
X232417184Y-60947619D01*
X232408157Y-60902235D01*
X232267809Y-60692191D01*
X232057765Y-60551843D01*
X231810000Y-60502560D01*
X230110000Y-60502560D01*
X229862235Y-60551843D01*
X229652191Y-60692191D01*
X229511843Y-60902235D01*
X229462560Y-61150000D01*
X217924801Y-61150000D01*
X221424801Y-57650000D01*
X229462560Y-57650000D01*
X229462560Y-59350000D01*
X229511843Y-59597765D01*
X229652191Y-59807809D01*
X229862235Y-59948157D01*
X230110000Y-59997440D01*
X231810000Y-59997440D01*
X232057765Y-59948157D01*
X232267809Y-59807809D01*
X232408157Y-59597765D01*
X232417184Y-59552381D01*
X232429375Y-59570625D01*
X232920582Y-59898839D01*
X233353744Y-59985000D01*
X233646256Y-59985000D01*
X234079418Y-59898839D01*
X234570625Y-59570625D01*
X234783843Y-59251522D01*
X234844817Y-59381358D01*
X235273076Y-59771645D01*
X235683110Y-59941476D01*
X235913000Y-59820155D01*
X235913000Y-58627000D01*
X236167000Y-58627000D01*
X236167000Y-59820155D01*
X236396890Y-59941476D01*
X236806924Y-59771645D01*
X237235183Y-59381358D01*
X237481486Y-58856892D01*
X237360819Y-58627000D01*
X236167000Y-58627000D01*
X235913000Y-58627000D01*
X235893000Y-58627000D01*
X235893000Y-58373000D01*
X235913000Y-58373000D01*
X235913000Y-57179845D01*
X236167000Y-57179845D01*
X236167000Y-58373000D01*
X237360819Y-58373000D01*
X237481486Y-58143108D01*
X237235183Y-57618642D01*
X236806924Y-57228355D01*
X236396890Y-57058524D01*
X236167000Y-57179845D01*
X235913000Y-57179845D01*
X235683110Y-57058524D01*
X235273076Y-57228355D01*
X234844817Y-57618642D01*
X234783843Y-57748478D01*
X234570625Y-57429375D01*
X234079418Y-57101161D01*
X233646256Y-57015000D01*
X233353744Y-57015000D01*
X232920582Y-57101161D01*
X232429375Y-57429375D01*
X232417184Y-57447619D01*
X232408157Y-57402235D01*
X232267809Y-57192191D01*
X232057765Y-57051843D01*
X231810000Y-57002560D01*
X230110000Y-57002560D01*
X229862235Y-57051843D01*
X229652191Y-57192191D01*
X229511843Y-57402235D01*
X229462560Y-57650000D01*
X221424801Y-57650000D01*
X224924801Y-54150000D01*
X229462560Y-54150000D01*
X229462560Y-55850000D01*
X229511843Y-56097765D01*
X229652191Y-56307809D01*
X229862235Y-56448157D01*
X230110000Y-56497440D01*
X231810000Y-56497440D01*
X232057765Y-56448157D01*
X232267809Y-56307809D01*
X232408157Y-56097765D01*
X232417184Y-56052381D01*
X232429375Y-56070625D01*
X232920582Y-56398839D01*
X233353744Y-56485000D01*
X233646256Y-56485000D01*
X234079418Y-56398839D01*
X234570625Y-56070625D01*
X234783843Y-55751522D01*
X234844817Y-55881358D01*
X235273076Y-56271645D01*
X235683110Y-56441476D01*
X235913000Y-56320155D01*
X235913000Y-55127000D01*
X236167000Y-55127000D01*
X236167000Y-56320155D01*
X236396890Y-56441476D01*
X236806924Y-56271645D01*
X237235183Y-55881358D01*
X237481486Y-55356892D01*
X237360819Y-55127000D01*
X236167000Y-55127000D01*
X235913000Y-55127000D01*
X235893000Y-55127000D01*
X235893000Y-54873000D01*
X235913000Y-54873000D01*
X235913000Y-53679845D01*
X236167000Y-53679845D01*
X236167000Y-54873000D01*
X237360819Y-54873000D01*
X237481486Y-54643108D01*
X237235183Y-54118642D01*
X236806924Y-53728355D01*
X236396890Y-53558524D01*
X236167000Y-53679845D01*
X235913000Y-53679845D01*
X235683110Y-53558524D01*
X235273076Y-53728355D01*
X234844817Y-54118642D01*
X234783843Y-54248478D01*
X234570625Y-53929375D01*
X234079418Y-53601161D01*
X233646256Y-53515000D01*
X233353744Y-53515000D01*
X232920582Y-53601161D01*
X232429375Y-53929375D01*
X232417184Y-53947619D01*
X232408157Y-53902235D01*
X232267809Y-53692191D01*
X232057765Y-53551843D01*
X231810000Y-53502560D01*
X230110000Y-53502560D01*
X229862235Y-53551843D01*
X229652191Y-53692191D01*
X229511843Y-53902235D01*
X229462560Y-54150000D01*
X224924801Y-54150000D01*
X225484473Y-53590329D01*
X225547929Y-53547929D01*
X225648483Y-53397440D01*
X226750000Y-53397440D01*
X226997765Y-53348157D01*
X227207809Y-53207809D01*
X227348157Y-52997765D01*
X227397440Y-52750000D01*
X227397440Y-50650000D01*
X229462560Y-50650000D01*
X229462560Y-52350000D01*
X229511843Y-52597765D01*
X229652191Y-52807809D01*
X229862235Y-52948157D01*
X230110000Y-52997440D01*
X231810000Y-52997440D01*
X232057765Y-52948157D01*
X232267809Y-52807809D01*
X232408157Y-52597765D01*
X232417184Y-52552381D01*
X232429375Y-52570625D01*
X232920582Y-52898839D01*
X233353744Y-52985000D01*
X233646256Y-52985000D01*
X234079418Y-52898839D01*
X234570625Y-52570625D01*
X234783843Y-52251522D01*
X234844817Y-52381358D01*
X235273076Y-52771645D01*
X235683110Y-52941476D01*
X235913000Y-52820155D01*
X235913000Y-51627000D01*
X236167000Y-51627000D01*
X236167000Y-52820155D01*
X236396890Y-52941476D01*
X236806924Y-52771645D01*
X237235183Y-52381358D01*
X237481486Y-51856892D01*
X237360819Y-51627000D01*
X236167000Y-51627000D01*
X235913000Y-51627000D01*
X235893000Y-51627000D01*
X235893000Y-51373000D01*
X235913000Y-51373000D01*
X235913000Y-50179845D01*
X236167000Y-50179845D01*
X236167000Y-51373000D01*
X237360819Y-51373000D01*
X237481486Y-51143108D01*
X237235183Y-50618642D01*
X236806924Y-50228355D01*
X236396890Y-50058524D01*
X236167000Y-50179845D01*
X235913000Y-50179845D01*
X235683110Y-50058524D01*
X235273076Y-50228355D01*
X234844817Y-50618642D01*
X234783843Y-50748478D01*
X234570625Y-50429375D01*
X234079418Y-50101161D01*
X233646256Y-50015000D01*
X233353744Y-50015000D01*
X232920582Y-50101161D01*
X232429375Y-50429375D01*
X232417184Y-50447619D01*
X232408157Y-50402235D01*
X232267809Y-50192191D01*
X232057765Y-50051843D01*
X231810000Y-50002560D01*
X230110000Y-50002560D01*
X229862235Y-50051843D01*
X229652191Y-50192191D01*
X229511843Y-50402235D01*
X229462560Y-50650000D01*
X227397440Y-50650000D01*
X227397440Y-49250000D01*
X227348157Y-49002235D01*
X227207809Y-48792191D01*
X226997765Y-48651843D01*
X226750000Y-48602560D01*
X223250000Y-48602560D01*
X223002235Y-48651843D01*
X222792191Y-48792191D01*
X222651843Y-49002235D01*
X222602560Y-49250000D01*
X222602560Y-52750000D01*
X222651843Y-52997765D01*
X222792191Y-53207809D01*
X223002235Y-53348157D01*
X223250000Y-53397440D01*
X223527758Y-53397440D01*
X215325032Y-61600167D01*
X215261573Y-61642569D01*
X215093598Y-61893962D01*
X215049502Y-62115647D01*
X215049502Y-62115651D01*
X215034614Y-62190498D01*
X215049502Y-62265345D01*
X215049503Y-87705602D01*
X214932071Y-87823034D01*
X214774502Y-88203440D01*
X186198242Y-88203440D01*
X182140000Y-84145199D01*
X182140000Y-79997440D01*
X182230000Y-79997440D01*
X182477765Y-79948157D01*
X182687809Y-79807809D01*
X182828157Y-79597765D01*
X182848739Y-79494292D01*
X183153076Y-79771645D01*
X183563110Y-79941476D01*
X183793000Y-79820155D01*
X183793000Y-78627000D01*
X183773000Y-78627000D01*
X183773000Y-78373000D01*
X183793000Y-78373000D01*
X183793000Y-77179845D01*
X184047000Y-77179845D01*
X184047000Y-78373000D01*
X184067000Y-78373000D01*
X184067000Y-78627000D01*
X184047000Y-78627000D01*
X184047000Y-79820155D01*
X184276890Y-79941476D01*
X184686924Y-79771645D01*
X185115183Y-79381358D01*
X185176157Y-79251522D01*
X185389375Y-79570625D01*
X185880582Y-79898839D01*
X186313744Y-79985000D01*
X186606256Y-79985000D01*
X187039418Y-79898839D01*
X187530625Y-79570625D01*
X187730000Y-79272239D01*
X187929375Y-79570625D01*
X188420582Y-79898839D01*
X188853744Y-79985000D01*
X189146256Y-79985000D01*
X189579418Y-79898839D01*
X190070625Y-79570625D01*
X190398839Y-79079418D01*
X190514092Y-78500000D01*
X190398839Y-77920582D01*
X190070625Y-77429375D01*
X189579418Y-77101161D01*
X189146256Y-77015000D01*
X188853744Y-77015000D01*
X188420582Y-77101161D01*
X187929375Y-77429375D01*
X187730000Y-77727761D01*
X187530625Y-77429375D01*
X187039418Y-77101161D01*
X186606256Y-77015000D01*
X186313744Y-77015000D01*
X185880582Y-77101161D01*
X185389375Y-77429375D01*
X185176157Y-77748478D01*
X185115183Y-77618642D01*
X184686924Y-77228355D01*
X184276890Y-77058524D01*
X184047000Y-77179845D01*
X183793000Y-77179845D01*
X183563110Y-77058524D01*
X183153076Y-77228355D01*
X182848739Y-77505708D01*
X182828157Y-77402235D01*
X182687809Y-77192191D01*
X182477765Y-77051843D01*
X182230000Y-77002560D01*
X180530000Y-77002560D01*
X180282235Y-77051843D01*
X180072191Y-77192191D01*
X179931843Y-77402235D01*
X179882560Y-77650000D01*
X158588951Y-77650000D01*
X157564317Y-75856892D01*
X163018514Y-75856892D01*
X163264817Y-76381358D01*
X163693076Y-76771645D01*
X164103110Y-76941476D01*
X164333000Y-76820155D01*
X164333000Y-75627000D01*
X163139181Y-75627000D01*
X163018514Y-75856892D01*
X157564317Y-75856892D01*
X157156441Y-75143108D01*
X163018514Y-75143108D01*
X163139181Y-75373000D01*
X164333000Y-75373000D01*
X164333000Y-74179845D01*
X164587000Y-74179845D01*
X164587000Y-75373000D01*
X164607000Y-75373000D01*
X164607000Y-75627000D01*
X164587000Y-75627000D01*
X164587000Y-76820155D01*
X164816890Y-76941476D01*
X165226924Y-76771645D01*
X165655183Y-76381358D01*
X165716157Y-76251522D01*
X165929375Y-76570625D01*
X166420582Y-76898839D01*
X166853744Y-76985000D01*
X167146256Y-76985000D01*
X167579418Y-76898839D01*
X168070625Y-76570625D01*
X168082816Y-76552381D01*
X168091843Y-76597765D01*
X168232191Y-76807809D01*
X168442235Y-76948157D01*
X168690000Y-76997440D01*
X170390000Y-76997440D01*
X170637765Y-76948157D01*
X170847809Y-76807809D01*
X170988157Y-76597765D01*
X171037440Y-76350000D01*
X171037440Y-74650000D01*
X170988157Y-74402235D01*
X170847809Y-74192191D01*
X170637765Y-74051843D01*
X170390000Y-74002560D01*
X168690000Y-74002560D01*
X168442235Y-74051843D01*
X168232191Y-74192191D01*
X168091843Y-74402235D01*
X168082816Y-74447619D01*
X168070625Y-74429375D01*
X167579418Y-74101161D01*
X167146256Y-74015000D01*
X166853744Y-74015000D01*
X166420582Y-74101161D01*
X165929375Y-74429375D01*
X165716157Y-74748478D01*
X165655183Y-74618642D01*
X165226924Y-74228355D01*
X164816890Y-74058524D01*
X164587000Y-74179845D01*
X164333000Y-74179845D01*
X164103110Y-74058524D01*
X163693076Y-74228355D01*
X163264817Y-74618642D01*
X163018514Y-75143108D01*
X157156441Y-75143108D01*
X155564317Y-72356892D01*
X163018514Y-72356892D01*
X163264817Y-72881358D01*
X163693076Y-73271645D01*
X164103110Y-73441476D01*
X164333000Y-73320155D01*
X164333000Y-72127000D01*
X163139181Y-72127000D01*
X163018514Y-72356892D01*
X155564317Y-72356892D01*
X155156441Y-71643108D01*
X163018514Y-71643108D01*
X163139181Y-71873000D01*
X164333000Y-71873000D01*
X164333000Y-70679845D01*
X164587000Y-70679845D01*
X164587000Y-71873000D01*
X164607000Y-71873000D01*
X164607000Y-72127000D01*
X164587000Y-72127000D01*
X164587000Y-73320155D01*
X164816890Y-73441476D01*
X165226924Y-73271645D01*
X165655183Y-72881358D01*
X165716157Y-72751522D01*
X165929375Y-73070625D01*
X166420582Y-73398839D01*
X166853744Y-73485000D01*
X167146256Y-73485000D01*
X167579418Y-73398839D01*
X168070625Y-73070625D01*
X168082816Y-73052381D01*
X168091843Y-73097765D01*
X168232191Y-73307809D01*
X168442235Y-73448157D01*
X168690000Y-73497440D01*
X170390000Y-73497440D01*
X170637765Y-73448157D01*
X170847809Y-73307809D01*
X170988157Y-73097765D01*
X171037440Y-72850000D01*
X171037440Y-71150000D01*
X170988157Y-70902235D01*
X170847809Y-70692191D01*
X170637765Y-70551843D01*
X170390000Y-70502560D01*
X168690000Y-70502560D01*
X168442235Y-70551843D01*
X168232191Y-70692191D01*
X168091843Y-70902235D01*
X168082816Y-70947619D01*
X168070625Y-70929375D01*
X167579418Y-70601161D01*
X167146256Y-70515000D01*
X166853744Y-70515000D01*
X166420582Y-70601161D01*
X165929375Y-70929375D01*
X165716157Y-71248478D01*
X165655183Y-71118642D01*
X165226924Y-70728355D01*
X164816890Y-70558524D01*
X164587000Y-70679845D01*
X164333000Y-70679845D01*
X164103110Y-70558524D01*
X163693076Y-70728355D01*
X163264817Y-71118642D01*
X163018514Y-71643108D01*
X155156441Y-71643108D01*
X154722419Y-70883572D01*
X160905000Y-70883572D01*
X160905000Y-68856892D01*
X163018514Y-68856892D01*
X163264817Y-69381358D01*
X163693076Y-69771645D01*
X164103110Y-69941476D01*
X164333000Y-69820155D01*
X164333000Y-68627000D01*
X163139181Y-68627000D01*
X163018514Y-68856892D01*
X160905000Y-68856892D01*
X160905000Y-68143108D01*
X163018514Y-68143108D01*
X163139181Y-68373000D01*
X164333000Y-68373000D01*
X164333000Y-67179845D01*
X164587000Y-67179845D01*
X164587000Y-68373000D01*
X164607000Y-68373000D01*
X164607000Y-68627000D01*
X164587000Y-68627000D01*
X164587000Y-69820155D01*
X164816890Y-69941476D01*
X165226924Y-69771645D01*
X165655183Y-69381358D01*
X165716157Y-69251522D01*
X165929375Y-69570625D01*
X166420582Y-69898839D01*
X166853744Y-69985000D01*
X167146256Y-69985000D01*
X167579418Y-69898839D01*
X168070625Y-69570625D01*
X168082816Y-69552381D01*
X168091843Y-69597765D01*
X168232191Y-69807809D01*
X168442235Y-69948157D01*
X168690000Y-69997440D01*
X170390000Y-69997440D01*
X170637765Y-69948157D01*
X170847809Y-69807809D01*
X170988157Y-69597765D01*
X171037440Y-69350000D01*
X171037440Y-67650000D01*
X170988157Y-67402235D01*
X170847809Y-67192191D01*
X170637765Y-67051843D01*
X170390000Y-67002560D01*
X168690000Y-67002560D01*
X168442235Y-67051843D01*
X168232191Y-67192191D01*
X168091843Y-67402235D01*
X168082816Y-67447619D01*
X168070625Y-67429375D01*
X167579418Y-67101161D01*
X167146256Y-67015000D01*
X166853744Y-67015000D01*
X166420582Y-67101161D01*
X165929375Y-67429375D01*
X165716157Y-67748478D01*
X165655183Y-67618642D01*
X165226924Y-67228355D01*
X164816890Y-67058524D01*
X164587000Y-67179845D01*
X164333000Y-67179845D01*
X164103110Y-67058524D01*
X163693076Y-67228355D01*
X163264817Y-67618642D01*
X163018514Y-68143108D01*
X160905000Y-68143108D01*
X160905000Y-65356892D01*
X163018514Y-65356892D01*
X163264817Y-65881358D01*
X163693076Y-66271645D01*
X164103110Y-66441476D01*
X164333000Y-66320155D01*
X164333000Y-65127000D01*
X163139181Y-65127000D01*
X163018514Y-65356892D01*
X160905000Y-65356892D01*
X160905000Y-64643108D01*
X163018514Y-64643108D01*
X163139181Y-64873000D01*
X164333000Y-64873000D01*
X164333000Y-63679845D01*
X164587000Y-63679845D01*
X164587000Y-64873000D01*
X164607000Y-64873000D01*
X164607000Y-65127000D01*
X164587000Y-65127000D01*
X164587000Y-66320155D01*
X164816890Y-66441476D01*
X165226924Y-66271645D01*
X165655183Y-65881358D01*
X165716157Y-65751522D01*
X165929375Y-66070625D01*
X166420582Y-66398839D01*
X166853744Y-66485000D01*
X167146256Y-66485000D01*
X167579418Y-66398839D01*
X168070625Y-66070625D01*
X168082816Y-66052381D01*
X168091843Y-66097765D01*
X168232191Y-66307809D01*
X168442235Y-66448157D01*
X168690000Y-66497440D01*
X170390000Y-66497440D01*
X170637765Y-66448157D01*
X170847809Y-66307809D01*
X170988157Y-66097765D01*
X171037440Y-65850000D01*
X171037440Y-64150000D01*
X170988157Y-63902235D01*
X170847809Y-63692191D01*
X170637765Y-63551843D01*
X170390000Y-63502560D01*
X168690000Y-63502560D01*
X168442235Y-63551843D01*
X168232191Y-63692191D01*
X168091843Y-63902235D01*
X168082816Y-63947619D01*
X168070625Y-63929375D01*
X167579418Y-63601161D01*
X167146256Y-63515000D01*
X166853744Y-63515000D01*
X166420582Y-63601161D01*
X165929375Y-63929375D01*
X165716157Y-64248478D01*
X165655183Y-64118642D01*
X165226924Y-63728355D01*
X164816890Y-63558524D01*
X164587000Y-63679845D01*
X164333000Y-63679845D01*
X164103110Y-63558524D01*
X163693076Y-63728355D01*
X163264817Y-64118642D01*
X163018514Y-64643108D01*
X160905000Y-64643108D01*
X160905000Y-61856892D01*
X163018514Y-61856892D01*
X163264817Y-62381358D01*
X163693076Y-62771645D01*
X164103110Y-62941476D01*
X164333000Y-62820155D01*
X164333000Y-61627000D01*
X163139181Y-61627000D01*
X163018514Y-61856892D01*
X160905000Y-61856892D01*
X160905000Y-61143108D01*
X163018514Y-61143108D01*
X163139181Y-61373000D01*
X164333000Y-61373000D01*
X164333000Y-60179845D01*
X164587000Y-60179845D01*
X164587000Y-61373000D01*
X164607000Y-61373000D01*
X164607000Y-61627000D01*
X164587000Y-61627000D01*
X164587000Y-62820155D01*
X164816890Y-62941476D01*
X165226924Y-62771645D01*
X165655183Y-62381358D01*
X165716157Y-62251522D01*
X165929375Y-62570625D01*
X166420582Y-62898839D01*
X166853744Y-62985000D01*
X167146256Y-62985000D01*
X167579418Y-62898839D01*
X168070625Y-62570625D01*
X168082816Y-62552381D01*
X168091843Y-62597765D01*
X168232191Y-62807809D01*
X168442235Y-62948157D01*
X168690000Y-62997440D01*
X170390000Y-62997440D01*
X170637765Y-62948157D01*
X170847809Y-62807809D01*
X170988157Y-62597765D01*
X171037440Y-62350000D01*
X171037440Y-60650000D01*
X170988157Y-60402235D01*
X170847809Y-60192191D01*
X170637765Y-60051843D01*
X170390000Y-60002560D01*
X168690000Y-60002560D01*
X168442235Y-60051843D01*
X168232191Y-60192191D01*
X168091843Y-60402235D01*
X168082816Y-60447619D01*
X168070625Y-60429375D01*
X167579418Y-60101161D01*
X167146256Y-60015000D01*
X166853744Y-60015000D01*
X166420582Y-60101161D01*
X165929375Y-60429375D01*
X165716157Y-60748478D01*
X165655183Y-60618642D01*
X165226924Y-60228355D01*
X164816890Y-60058524D01*
X164587000Y-60179845D01*
X164333000Y-60179845D01*
X164103110Y-60058524D01*
X163693076Y-60228355D01*
X163264817Y-60618642D01*
X163018514Y-61143108D01*
X160905000Y-61143108D01*
X160905000Y-58356892D01*
X163018514Y-58356892D01*
X163264817Y-58881358D01*
X163693076Y-59271645D01*
X164103110Y-59441476D01*
X164333000Y-59320155D01*
X164333000Y-58127000D01*
X163139181Y-58127000D01*
X163018514Y-58356892D01*
X160905000Y-58356892D01*
X160905000Y-57643108D01*
X163018514Y-57643108D01*
X163139181Y-57873000D01*
X164333000Y-57873000D01*
X164333000Y-56679845D01*
X164587000Y-56679845D01*
X164587000Y-57873000D01*
X164607000Y-57873000D01*
X164607000Y-58127000D01*
X164587000Y-58127000D01*
X164587000Y-59320155D01*
X164816890Y-59441476D01*
X165226924Y-59271645D01*
X165655183Y-58881358D01*
X165716157Y-58751522D01*
X165929375Y-59070625D01*
X166420582Y-59398839D01*
X166853744Y-59485000D01*
X167146256Y-59485000D01*
X167579418Y-59398839D01*
X168070625Y-59070625D01*
X168082816Y-59052381D01*
X168091843Y-59097765D01*
X168232191Y-59307809D01*
X168442235Y-59448157D01*
X168690000Y-59497440D01*
X170390000Y-59497440D01*
X170637765Y-59448157D01*
X170847809Y-59307809D01*
X170988157Y-59097765D01*
X171037440Y-58850000D01*
X171037440Y-57150000D01*
X170988157Y-56902235D01*
X170847809Y-56692191D01*
X170637765Y-56551843D01*
X170390000Y-56502560D01*
X168690000Y-56502560D01*
X168442235Y-56551843D01*
X168232191Y-56692191D01*
X168091843Y-56902235D01*
X168082816Y-56947619D01*
X168070625Y-56929375D01*
X167579418Y-56601161D01*
X167146256Y-56515000D01*
X166853744Y-56515000D01*
X166420582Y-56601161D01*
X165929375Y-56929375D01*
X165716157Y-57248478D01*
X165655183Y-57118642D01*
X165226924Y-56728355D01*
X164816890Y-56558524D01*
X164587000Y-56679845D01*
X164333000Y-56679845D01*
X164103110Y-56558524D01*
X163693076Y-56728355D01*
X163264817Y-57118642D01*
X163018514Y-57643108D01*
X160905000Y-57643108D01*
X160905000Y-56456429D01*
X154994837Y-56456429D01*
X155887601Y-54856892D01*
X163018514Y-54856892D01*
X163264817Y-55381358D01*
X163693076Y-55771645D01*
X164103110Y-55941476D01*
X164333000Y-55820155D01*
X164333000Y-54627000D01*
X163139181Y-54627000D01*
X163018514Y-54856892D01*
X155887601Y-54856892D01*
X156285992Y-54143108D01*
X163018514Y-54143108D01*
X163139181Y-54373000D01*
X164333000Y-54373000D01*
X164333000Y-53179845D01*
X164587000Y-53179845D01*
X164587000Y-54373000D01*
X164607000Y-54373000D01*
X164607000Y-54627000D01*
X164587000Y-54627000D01*
X164587000Y-55820155D01*
X164816890Y-55941476D01*
X165226924Y-55771645D01*
X165655183Y-55381358D01*
X165716157Y-55251522D01*
X165929375Y-55570625D01*
X166420582Y-55898839D01*
X166853744Y-55985000D01*
X167146256Y-55985000D01*
X167579418Y-55898839D01*
X168070625Y-55570625D01*
X168082816Y-55552381D01*
X168091843Y-55597765D01*
X168232191Y-55807809D01*
X168442235Y-55948157D01*
X168690000Y-55997440D01*
X170390000Y-55997440D01*
X170637765Y-55948157D01*
X170847809Y-55807809D01*
X170988157Y-55597765D01*
X171037440Y-55350000D01*
X171037440Y-53650000D01*
X170988157Y-53402235D01*
X170847809Y-53192191D01*
X170637765Y-53051843D01*
X170390000Y-53002560D01*
X168690000Y-53002560D01*
X168442235Y-53051843D01*
X168232191Y-53192191D01*
X168091843Y-53402235D01*
X168082816Y-53447619D01*
X168070625Y-53429375D01*
X167579418Y-53101161D01*
X167146256Y-53015000D01*
X166853744Y-53015000D01*
X166420582Y-53101161D01*
X165929375Y-53429375D01*
X165716157Y-53748478D01*
X165655183Y-53618642D01*
X165226924Y-53228355D01*
X164816890Y-53058524D01*
X164587000Y-53179845D01*
X164333000Y-53179845D01*
X164103110Y-53058524D01*
X163693076Y-53228355D01*
X163264817Y-53618642D01*
X163018514Y-54143108D01*
X156285992Y-54143108D01*
X157841089Y-51356892D01*
X163018514Y-51356892D01*
X163264817Y-51881358D01*
X163693076Y-52271645D01*
X164103110Y-52441476D01*
X164333000Y-52320155D01*
X164333000Y-51127000D01*
X163139181Y-51127000D01*
X163018514Y-51356892D01*
X157841089Y-51356892D01*
X158239480Y-50643108D01*
X163018514Y-50643108D01*
X163139181Y-50873000D01*
X164333000Y-50873000D01*
X164333000Y-49679845D01*
X164587000Y-49679845D01*
X164587000Y-50873000D01*
X164607000Y-50873000D01*
X164607000Y-51127000D01*
X164587000Y-51127000D01*
X164587000Y-52320155D01*
X164816890Y-52441476D01*
X165226924Y-52271645D01*
X165655183Y-51881358D01*
X165716157Y-51751522D01*
X165929375Y-52070625D01*
X166420582Y-52398839D01*
X166853744Y-52485000D01*
X167146256Y-52485000D01*
X167579418Y-52398839D01*
X168070625Y-52070625D01*
X168082816Y-52052381D01*
X168091843Y-52097765D01*
X168232191Y-52307809D01*
X168442235Y-52448157D01*
X168690000Y-52497440D01*
X170390000Y-52497440D01*
X170637765Y-52448157D01*
X170847809Y-52307809D01*
X170988157Y-52097765D01*
X171037440Y-51850000D01*
X171037440Y-50150000D01*
X170988157Y-49902235D01*
X170847809Y-49692191D01*
X170637765Y-49551843D01*
X170390000Y-49502560D01*
X168690000Y-49502560D01*
X168442235Y-49551843D01*
X168232191Y-49692191D01*
X168091843Y-49902235D01*
X168082816Y-49947619D01*
X168070625Y-49929375D01*
X167579418Y-49601161D01*
X167146256Y-49515000D01*
X166853744Y-49515000D01*
X166420582Y-49601161D01*
X165929375Y-49929375D01*
X165716157Y-50248478D01*
X165655183Y-50118642D01*
X165226924Y-49728355D01*
X164816890Y-49558524D01*
X164587000Y-49679845D01*
X164333000Y-49679845D01*
X164103110Y-49558524D01*
X163693076Y-49728355D01*
X163264817Y-50118642D01*
X163018514Y-50643108D01*
X158239480Y-50643108D01*
X159017028Y-49250000D01*
X172602560Y-49250000D01*
X172602560Y-52750000D01*
X172651843Y-52997765D01*
X172792191Y-53207809D01*
X173002235Y-53348157D01*
X173250000Y-53397440D01*
X176750000Y-53397440D01*
X176997765Y-53348157D01*
X177207809Y-53207809D01*
X177348157Y-52997765D01*
X177397440Y-52750000D01*
X177397440Y-49810000D01*
X192012560Y-49810000D01*
X192012560Y-51510000D01*
X192061843Y-51757765D01*
X192202191Y-51967809D01*
X192412235Y-52108157D01*
X192660000Y-52157440D01*
X194360000Y-52157440D01*
X194607765Y-52108157D01*
X194817809Y-51967809D01*
X194958157Y-51757765D01*
X194978739Y-51654292D01*
X195283076Y-51931645D01*
X195693110Y-52101476D01*
X195923000Y-51980155D01*
X195923000Y-50787000D01*
X196177000Y-50787000D01*
X196177000Y-51980155D01*
X196406890Y-52101476D01*
X196816924Y-51931645D01*
X197245183Y-51541358D01*
X197320000Y-51382046D01*
X197394817Y-51541358D01*
X197823076Y-51931645D01*
X198233110Y-52101476D01*
X198463000Y-51980155D01*
X198463000Y-50787000D01*
X196177000Y-50787000D01*
X195923000Y-50787000D01*
X195903000Y-50787000D01*
X195903000Y-50533000D01*
X195923000Y-50533000D01*
X195923000Y-49339845D01*
X196177000Y-49339845D01*
X196177000Y-50533000D01*
X198463000Y-50533000D01*
X198463000Y-49339845D01*
X198717000Y-49339845D01*
X198717000Y-50533000D01*
X198737000Y-50533000D01*
X198737000Y-50787000D01*
X198717000Y-50787000D01*
X198717000Y-51980155D01*
X198946890Y-52101476D01*
X199356924Y-51931645D01*
X199785183Y-51541358D01*
X199846157Y-51411522D01*
X200059375Y-51730625D01*
X200550582Y-52058839D01*
X200983744Y-52145000D01*
X201276256Y-52145000D01*
X201709418Y-52058839D01*
X202200625Y-51730625D01*
X202400000Y-51432239D01*
X202599375Y-51730625D01*
X202910287Y-51938370D01*
X202954097Y-52158618D01*
X203062033Y-52320155D01*
X203122072Y-52410010D01*
X203185528Y-52452410D01*
X205180000Y-54446883D01*
X205180001Y-71755197D01*
X202250199Y-74685000D01*
X202114126Y-74685000D01*
X201733720Y-74842569D01*
X201442569Y-75133720D01*
X201285000Y-75514126D01*
X201285000Y-75925874D01*
X201442569Y-76306280D01*
X201733720Y-76597431D01*
X202114126Y-76755000D01*
X202525874Y-76755000D01*
X202906280Y-76597431D01*
X203197431Y-76306280D01*
X203355000Y-75925874D01*
X203355000Y-75729801D01*
X206424473Y-72660329D01*
X206487929Y-72617929D01*
X206655904Y-72366537D01*
X206700000Y-72144852D01*
X206700000Y-72144848D01*
X206714888Y-72070001D01*
X206700000Y-71995154D01*
X206700000Y-54206929D01*
X206714888Y-54132081D01*
X206700000Y-54057233D01*
X206700000Y-54057229D01*
X206655904Y-53835544D01*
X206655904Y-53835543D01*
X206530329Y-53647608D01*
X206487929Y-53584152D01*
X206424473Y-53541752D01*
X204664326Y-51781606D01*
X204740625Y-51730625D01*
X205068839Y-51239418D01*
X205184092Y-50660000D01*
X205068839Y-50080582D01*
X204740625Y-49589375D01*
X204249418Y-49261161D01*
X203816256Y-49175000D01*
X203523744Y-49175000D01*
X203090582Y-49261161D01*
X202599375Y-49589375D01*
X202400000Y-49887761D01*
X202200625Y-49589375D01*
X201709418Y-49261161D01*
X201276256Y-49175000D01*
X200983744Y-49175000D01*
X200550582Y-49261161D01*
X200059375Y-49589375D01*
X199846157Y-49908478D01*
X199785183Y-49778642D01*
X199356924Y-49388355D01*
X198946890Y-49218524D01*
X198717000Y-49339845D01*
X198463000Y-49339845D01*
X198233110Y-49218524D01*
X197823076Y-49388355D01*
X197394817Y-49778642D01*
X197320000Y-49937954D01*
X197245183Y-49778642D01*
X196816924Y-49388355D01*
X196406890Y-49218524D01*
X196177000Y-49339845D01*
X195923000Y-49339845D01*
X195693110Y-49218524D01*
X195283076Y-49388355D01*
X194978739Y-49665708D01*
X194958157Y-49562235D01*
X194817809Y-49352191D01*
X194607765Y-49211843D01*
X194360000Y-49162560D01*
X192660000Y-49162560D01*
X192412235Y-49211843D01*
X192202191Y-49352191D01*
X192061843Y-49562235D01*
X192012560Y-49810000D01*
X177397440Y-49810000D01*
X177397440Y-49250000D01*
X177348157Y-49002235D01*
X177207809Y-48792191D01*
X176997765Y-48651843D01*
X176750000Y-48602560D01*
X173250000Y-48602560D01*
X173002235Y-48651843D01*
X172792191Y-48792191D01*
X172651843Y-49002235D01*
X172602560Y-49250000D01*
X159017028Y-49250000D01*
X160122144Y-47270000D01*
X181852560Y-47270000D01*
X181852560Y-48970000D01*
X181901843Y-49217765D01*
X182042191Y-49427809D01*
X182252235Y-49568157D01*
X182500000Y-49617440D01*
X184200000Y-49617440D01*
X184447765Y-49568157D01*
X184657809Y-49427809D01*
X184798157Y-49217765D01*
X184807184Y-49172381D01*
X184819375Y-49190625D01*
X185310582Y-49518839D01*
X185743744Y-49605000D01*
X186036256Y-49605000D01*
X186469418Y-49518839D01*
X186960625Y-49190625D01*
X187173843Y-48871522D01*
X187234817Y-49001358D01*
X187663076Y-49391645D01*
X188073110Y-49561476D01*
X188303000Y-49440155D01*
X188303000Y-48247000D01*
X188557000Y-48247000D01*
X188557000Y-49440155D01*
X188786890Y-49561476D01*
X189196924Y-49391645D01*
X189625183Y-49001358D01*
X189700000Y-48842046D01*
X189774817Y-49001358D01*
X190203076Y-49391645D01*
X190613110Y-49561476D01*
X190843000Y-49440155D01*
X190843000Y-48247000D01*
X191097000Y-48247000D01*
X191097000Y-49440155D01*
X191326890Y-49561476D01*
X191736924Y-49391645D01*
X192165183Y-49001358D01*
X192411486Y-48476892D01*
X192374145Y-48405750D01*
X204725000Y-48405750D01*
X204725000Y-49096309D01*
X204821673Y-49329698D01*
X205000301Y-49508327D01*
X205233690Y-49605000D01*
X205924250Y-49605000D01*
X206083000Y-49446250D01*
X206083000Y-48247000D01*
X206337000Y-48247000D01*
X206337000Y-49446250D01*
X206495750Y-49605000D01*
X207186310Y-49605000D01*
X207419699Y-49508327D01*
X207598327Y-49329698D01*
X207685136Y-49120122D01*
X207983076Y-49391645D01*
X208393110Y-49561476D01*
X208623000Y-49440155D01*
X208623000Y-48247000D01*
X206337000Y-48247000D01*
X206083000Y-48247000D01*
X204883750Y-48247000D01*
X204725000Y-48405750D01*
X192374145Y-48405750D01*
X192290819Y-48247000D01*
X191097000Y-48247000D01*
X190843000Y-48247000D01*
X188557000Y-48247000D01*
X188303000Y-48247000D01*
X188283000Y-48247000D01*
X188283000Y-47993000D01*
X188303000Y-47993000D01*
X188303000Y-46799845D01*
X188557000Y-46799845D01*
X188557000Y-47993000D01*
X190843000Y-47993000D01*
X190843000Y-46799845D01*
X191097000Y-46799845D01*
X191097000Y-47993000D01*
X192290819Y-47993000D01*
X192411486Y-47763108D01*
X192165183Y-47238642D01*
X192060994Y-47143691D01*
X204725000Y-47143691D01*
X204725000Y-47834250D01*
X204883750Y-47993000D01*
X206083000Y-47993000D01*
X206083000Y-46793750D01*
X206337000Y-46793750D01*
X206337000Y-47993000D01*
X208623000Y-47993000D01*
X208623000Y-46799845D01*
X208877000Y-46799845D01*
X208877000Y-47993000D01*
X208897000Y-47993000D01*
X208897000Y-48247000D01*
X208877000Y-48247000D01*
X208877000Y-49440155D01*
X209106890Y-49561476D01*
X209516924Y-49391645D01*
X209945183Y-49001358D01*
X210006157Y-48871522D01*
X210219375Y-49190625D01*
X210710582Y-49518839D01*
X211143744Y-49605000D01*
X211436256Y-49605000D01*
X211869418Y-49518839D01*
X212360625Y-49190625D01*
X212560000Y-48892239D01*
X212759375Y-49190625D01*
X213250582Y-49518839D01*
X213683744Y-49605000D01*
X213976256Y-49605000D01*
X214409418Y-49518839D01*
X214900625Y-49190625D01*
X215228839Y-48699418D01*
X215344092Y-48120000D01*
X215228839Y-47540582D01*
X214900625Y-47049375D01*
X214409418Y-46721161D01*
X213976256Y-46635000D01*
X213683744Y-46635000D01*
X213250582Y-46721161D01*
X212759375Y-47049375D01*
X212560000Y-47347761D01*
X212360625Y-47049375D01*
X211869418Y-46721161D01*
X211436256Y-46635000D01*
X211143744Y-46635000D01*
X210710582Y-46721161D01*
X210219375Y-47049375D01*
X210006157Y-47368478D01*
X209945183Y-47238642D01*
X209516924Y-46848355D01*
X209106890Y-46678524D01*
X208877000Y-46799845D01*
X208623000Y-46799845D01*
X208393110Y-46678524D01*
X207983076Y-46848355D01*
X207685136Y-47119878D01*
X207598327Y-46910302D01*
X207419699Y-46731673D01*
X207186310Y-46635000D01*
X206495750Y-46635000D01*
X206337000Y-46793750D01*
X206083000Y-46793750D01*
X205924250Y-46635000D01*
X205233690Y-46635000D01*
X205000301Y-46731673D01*
X204821673Y-46910302D01*
X204725000Y-47143691D01*
X192060994Y-47143691D01*
X191736924Y-46848355D01*
X191326890Y-46678524D01*
X191097000Y-46799845D01*
X190843000Y-46799845D01*
X190613110Y-46678524D01*
X190203076Y-46848355D01*
X189774817Y-47238642D01*
X189700000Y-47397954D01*
X189625183Y-47238642D01*
X189196924Y-46848355D01*
X188786890Y-46678524D01*
X188557000Y-46799845D01*
X188303000Y-46799845D01*
X188073110Y-46678524D01*
X187663076Y-46848355D01*
X187234817Y-47238642D01*
X187173843Y-47368478D01*
X186960625Y-47049375D01*
X186469418Y-46721161D01*
X186036256Y-46635000D01*
X185743744Y-46635000D01*
X185310582Y-46721161D01*
X184819375Y-47049375D01*
X184807184Y-47067619D01*
X184798157Y-47022235D01*
X184657809Y-46812191D01*
X184447765Y-46671843D01*
X184200000Y-46622560D01*
X182500000Y-46622560D01*
X182252235Y-46671843D01*
X182042191Y-46812191D01*
X181901843Y-47022235D01*
X181852560Y-47270000D01*
X160122144Y-47270000D01*
X162113460Y-43702225D01*
X223115000Y-43702225D01*
X223115000Y-45247775D01*
X223706456Y-46675676D01*
X224799324Y-47768544D01*
X226227225Y-48360000D01*
X227772775Y-48360000D01*
X229200676Y-47768544D01*
X230293544Y-46675676D01*
X230885000Y-45247775D01*
X230885000Y-43702225D01*
X230293544Y-42274324D01*
X229200676Y-41181456D01*
X228810458Y-41019822D01*
X229016174Y-40934612D01*
X229411957Y-40464459D01*
X227000000Y-38052502D01*
X224588043Y-40464459D01*
X224983826Y-40934612D01*
X225206504Y-41012797D01*
X224799324Y-41181456D01*
X223706456Y-42274324D01*
X223115000Y-43702225D01*
X162113460Y-43702225D01*
X165872601Y-36967100D01*
X223078373Y-36967100D01*
X223163390Y-38510309D01*
X223590388Y-39541174D01*
X224060541Y-39936957D01*
X226472498Y-37525000D01*
X227527502Y-37525000D01*
X229939459Y-39936957D01*
X230409612Y-39541174D01*
X230921627Y-38082900D01*
X230836610Y-36539691D01*
X230409612Y-35508826D01*
X229939459Y-35113043D01*
X227527502Y-37525000D01*
X226472498Y-37525000D01*
X224060541Y-35113043D01*
X223590388Y-35508826D01*
X223078373Y-36967100D01*
X165872601Y-36967100D01*
X167201843Y-34585541D01*
X224588043Y-34585541D01*
X227000000Y-36997498D01*
X229411957Y-34585541D01*
X229016174Y-34115388D01*
X227557900Y-33603373D01*
X226014691Y-33688390D01*
X224983826Y-34115388D01*
X224588043Y-34585541D01*
X167201843Y-34585541D01*
X169043588Y-31285750D01*
X172615000Y-31285750D01*
X172615000Y-32876310D01*
X172711673Y-33109699D01*
X172890302Y-33288327D01*
X173123691Y-33385000D01*
X174714250Y-33385000D01*
X174873000Y-33226250D01*
X174873000Y-31127000D01*
X175127000Y-31127000D01*
X175127000Y-33226250D01*
X175285750Y-33385000D01*
X176876309Y-33385000D01*
X177109698Y-33288327D01*
X177288327Y-33109699D01*
X177385000Y-32876310D01*
X177385000Y-31285750D01*
X222615000Y-31285750D01*
X222615000Y-32876310D01*
X222711673Y-33109699D01*
X222890302Y-33288327D01*
X223123691Y-33385000D01*
X224714250Y-33385000D01*
X224873000Y-33226250D01*
X224873000Y-31127000D01*
X225127000Y-31127000D01*
X225127000Y-33226250D01*
X225285750Y-33385000D01*
X226876309Y-33385000D01*
X227109698Y-33288327D01*
X227288327Y-33109699D01*
X227385000Y-32876310D01*
X227385000Y-31285750D01*
X227226250Y-31127000D01*
X225127000Y-31127000D01*
X224873000Y-31127000D01*
X222773750Y-31127000D01*
X222615000Y-31285750D01*
X177385000Y-31285750D01*
X177226250Y-31127000D01*
X175127000Y-31127000D01*
X174873000Y-31127000D01*
X172773750Y-31127000D01*
X172615000Y-31285750D01*
X169043588Y-31285750D01*
X170250319Y-29123690D01*
X172615000Y-29123690D01*
X172615000Y-30714250D01*
X172773750Y-30873000D01*
X174873000Y-30873000D01*
X174873000Y-28773750D01*
X175127000Y-28773750D01*
X175127000Y-30873000D01*
X177226250Y-30873000D01*
X177385000Y-30714250D01*
X177385000Y-29123690D01*
X222615000Y-29123690D01*
X222615000Y-30714250D01*
X222773750Y-30873000D01*
X224873000Y-30873000D01*
X224873000Y-28773750D01*
X225127000Y-28773750D01*
X225127000Y-30873000D01*
X227226250Y-30873000D01*
X227385000Y-30714250D01*
X227385000Y-29123690D01*
X227288327Y-28890301D01*
X227109698Y-28711673D01*
X226876309Y-28615000D01*
X225285750Y-28615000D01*
X225127000Y-28773750D01*
X224873000Y-28773750D01*
X224714250Y-28615000D01*
X223123691Y-28615000D01*
X222890302Y-28711673D01*
X222711673Y-28890301D01*
X222615000Y-29123690D01*
X177385000Y-29123690D01*
X177288327Y-28890301D01*
X177109698Y-28711673D01*
X176876309Y-28615000D01*
X175285750Y-28615000D01*
X175127000Y-28773750D01*
X174873000Y-28773750D01*
X174714250Y-28615000D01*
X173123691Y-28615000D01*
X172890302Y-28711673D01*
X172711673Y-28890301D01*
X172615000Y-29123690D01*
X170250319Y-29123690D01*
X174402148Y-21685000D01*
X225597853Y-21685000D01*
X244551474Y-55643571D01*
M02*
