G04 #@! TF.GenerationSoftware,KiCad,Pcbnew,no-vcs-found-3ad3869~61~ubuntu16.04.1*
G04 #@! TF.CreationDate,2018-02-15T12:37:46+02:00*
G04 #@! TF.ProjectId,BrainDamage,427261696E44616D6167652E6B696361,rev?*
G04 #@! TF.SameCoordinates,Original*
G04 #@! TF.FileFunction,Soldermask,Bot*
G04 #@! TF.FilePolarity,Negative*
%FSLAX46Y46*%
G04 Gerber Fmt 4.6, Leading zero omitted, Abs format (unit mm)*
G04 Created by KiCad (PCBNEW no-vcs-found-3ad3869~61~ubuntu16.04.1) date Thu Feb 15 12:37:46 2018*
%MOMM*%
%LPD*%
G01*
G04 APERTURE LIST*
%ADD10R,3.500000X3.500000*%
%ADD11R,1.700000X1.700000*%
%ADD12O,1.700000X1.700000*%
%ADD13C,0.900000*%
%ADD14C,6.500000*%
G04 APERTURE END LIST*
D10*
X225000000Y-31000000D03*
X225000000Y-51000000D03*
X175000000Y-51000000D03*
X175000000Y-31000000D03*
D11*
X225400000Y-87000000D03*
D12*
X227940000Y-87000000D03*
X225400000Y-89540000D03*
X227940000Y-89540000D03*
X225400000Y-92080000D03*
X227940000Y-92080000D03*
X225400000Y-94620000D03*
X227940000Y-94620000D03*
D11*
X193510000Y-50660000D03*
D12*
X196050000Y-50660000D03*
X198590000Y-50660000D03*
X201130000Y-50660000D03*
X203670000Y-50660000D03*
D13*
X185100000Y-100300000D03*
X189500000Y-100300000D03*
D11*
X169540000Y-75500000D03*
D12*
X167000000Y-75500000D03*
X164460000Y-75500000D03*
D11*
X181380000Y-78500000D03*
D12*
X183920000Y-78500000D03*
X186460000Y-78500000D03*
X189000000Y-78500000D03*
D11*
X197920000Y-98460000D03*
D12*
X197920000Y-101000000D03*
X200460000Y-98460000D03*
X200460000Y-101000000D03*
X203000000Y-98460000D03*
X203000000Y-101000000D03*
X205540000Y-98460000D03*
X205540000Y-101000000D03*
X208080000Y-98460000D03*
X208080000Y-101000000D03*
D11*
X230960000Y-62000000D03*
D12*
X233500000Y-62000000D03*
X236040000Y-62000000D03*
D11*
X230960000Y-69000000D03*
D12*
X233500000Y-69000000D03*
X236040000Y-69000000D03*
D11*
X230960000Y-65500000D03*
D12*
X233500000Y-65500000D03*
X236040000Y-65500000D03*
D11*
X230960000Y-72500000D03*
D12*
X233500000Y-72500000D03*
X236040000Y-72500000D03*
D11*
X230960000Y-58500000D03*
D12*
X233500000Y-58500000D03*
X236040000Y-58500000D03*
D11*
X230960000Y-76000000D03*
D12*
X233500000Y-76000000D03*
X236040000Y-76000000D03*
D11*
X230960000Y-55000000D03*
D12*
X233500000Y-55000000D03*
X236040000Y-55000000D03*
D11*
X230960000Y-51500000D03*
D12*
X233500000Y-51500000D03*
X236040000Y-51500000D03*
D11*
X169540000Y-72000000D03*
D12*
X167000000Y-72000000D03*
X164460000Y-72000000D03*
D11*
X169540000Y-68500000D03*
D12*
X167000000Y-68500000D03*
X164460000Y-68500000D03*
D11*
X169540000Y-65000000D03*
D12*
X167000000Y-65000000D03*
X164460000Y-65000000D03*
D11*
X169540000Y-61500000D03*
D12*
X167000000Y-61500000D03*
X164460000Y-61500000D03*
D11*
X169540000Y-58000000D03*
D12*
X167000000Y-58000000D03*
X164460000Y-58000000D03*
D11*
X169540000Y-54500000D03*
D12*
X167000000Y-54500000D03*
X164460000Y-54500000D03*
D11*
X169540000Y-51000000D03*
D12*
X167000000Y-51000000D03*
X164460000Y-51000000D03*
D14*
X227000000Y-37525000D03*
X227000000Y-44475000D03*
D11*
X183350000Y-48120000D03*
D12*
X185890000Y-48120000D03*
X188430000Y-48120000D03*
X190970000Y-48120000D03*
D11*
X206210000Y-48120000D03*
D12*
X208750000Y-48120000D03*
X211290000Y-48120000D03*
X213830000Y-48120000D03*
D11*
X222740000Y-99620000D03*
D12*
X222740000Y-97080000D03*
X222740000Y-94540000D03*
X222740000Y-92000000D03*
X222740000Y-89460000D03*
X222740000Y-86920000D03*
X222740000Y-84380000D03*
X222740000Y-81840000D03*
M02*
