M48
;DRILL file {KiCad 4.0.7} date 01/17/18 20:37:42
;FORMAT={-:-/ absolute / inch / decimal}
FMAT,2
INCH,TZ
T1C0.039
T2C0.079
%
G90
G05
M72
T1
X6.4173Y-2.5165
X6.4173Y-2.6165
X6.4173Y-2.7165
X6.4173Y-2.8165
X6.5929Y-1.8504
X6.5929Y-1.9882
X6.5929Y-2.126
X6.5929Y-2.2638
X6.5929Y-2.4016
X6.5929Y-2.5394
X6.5929Y-2.6772
X6.5929Y-2.815
X6.6929Y-1.8504
X6.6929Y-1.9882
X6.6929Y-2.126
X6.6929Y-2.2638
X6.6929Y-2.4016
X6.6929Y-2.5394
X6.6929Y-2.6772
X6.6929Y-2.815
X6.7929Y-1.8504
X6.7929Y-1.9882
X6.7929Y-2.126
X6.7929Y-2.2638
X6.7929Y-2.4016
X6.7929Y-2.5394
X6.7929Y-2.6772
X6.7929Y-2.815
X7.1425Y-2.7953
X7.2425Y-2.7953
X7.3425Y-2.7953
X7.4425Y-2.7953
X7.5425Y-2.7953
X7.7921Y-3.8764
X7.7921Y-3.9764
X7.8921Y-3.8764
X7.8921Y-3.9764
X7.9921Y-3.8764
X7.9921Y-3.9764
X8.0921Y-3.8764
X8.0921Y-3.9764
X8.1921Y-3.8764
X8.1921Y-3.9764
X8.7693Y-3.0106
X8.7693Y-3.1106
X8.7693Y-3.2106
X8.7693Y-3.3106
X8.7693Y-3.4106
X8.7693Y-3.5106
X8.7693Y-3.6106
X8.7693Y-3.7106
X8.9551Y-1.8504
X8.9551Y-1.9882
X8.9551Y-2.126
X8.9551Y-2.2638
X8.9551Y-2.4016
X8.9551Y-2.5394
X8.9551Y-2.6772
X8.9551Y-2.815
X9.0551Y-1.8504
X9.0551Y-1.9882
X9.0551Y-2.126
X9.0551Y-2.2638
X9.0551Y-2.4016
X9.0551Y-2.5394
X9.0551Y-2.6772
X9.0551Y-2.815
X9.1551Y-1.8504
X9.1551Y-1.9882
X9.1551Y-2.126
X9.1551Y-2.2638
X9.1551Y-2.4016
X9.1551Y-2.5394
X9.1551Y-2.6772
X9.1551Y-2.815
T2
X7.126Y-0.9843
X7.126Y-1.6142
X8.622Y-0.9843
T0
M30
