%TF.GenerationSoftware,KiCad,Pcbnew,4.0.7*%
%TF.CreationDate,2018-01-17T20:37:36+02:00*%
%TF.ProjectId,BrainDamage,427261696E44616D6167652E6B696361,rev?*%
%TF.FileFunction,Copper,L1,Top,Signal*%
%FSLAX46Y46*%
G04 Gerber Fmt 4.6, Leading zero omitted, Abs format (unit mm)*
G04 Created by KiCad (PCBNEW 4.0.7) date 01/17/18 20:37:36*
%MOMM*%
%LPD*%
G01*
G04 APERTURE LIST*
%ADD10C,0.100000*%
%ADD11C,0.300000*%
%ADD12R,1.700000X1.700000*%
%ADD13O,1.700000X1.700000*%
%ADD14R,1.600000X0.550000*%
%ADD15R,0.550000X1.600000*%
%ADD16R,1.300000X1.500000*%
%ADD17R,1.100000X0.400000*%
%ADD18R,1.800000X1.100000*%
%ADD19R,1.500000X1.300000*%
%ADD20R,1.000000X1.000000*%
%ADD21R,4.000000X4.000000*%
%ADD22R,0.970000X1.270000*%
%ADD23R,4.800000X1.750000*%
%ADD24R,1.270000X0.970000*%
%ADD25C,1.000000*%
%ADD26C,0.250000*%
%ADD27C,0.254000*%
G04 APERTURE END LIST*
D10*
D11*
X180857144Y-95189286D02*
X180785716Y-95117857D01*
X180642859Y-95046429D01*
X180500001Y-95046429D01*
X180357144Y-95117857D01*
X180285716Y-95189286D01*
X180214287Y-95332143D01*
X180214287Y-95475000D01*
X180285716Y-95617857D01*
X180357144Y-95689286D01*
X180500001Y-95760714D01*
X180642859Y-95760714D01*
X180785716Y-95689286D01*
X180857144Y-95617857D01*
X180857144Y-95046429D02*
X180857144Y-95617857D01*
X180928573Y-95689286D01*
X181000001Y-95689286D01*
X181142859Y-95617857D01*
X181214287Y-95475000D01*
X181214287Y-95117857D01*
X181071430Y-94903571D01*
X180857144Y-94760714D01*
X180571430Y-94689286D01*
X180285716Y-94760714D01*
X180071430Y-94903571D01*
X179928573Y-95117857D01*
X179857144Y-95403571D01*
X179928573Y-95689286D01*
X180071430Y-95903571D01*
X180285716Y-96046429D01*
X180571430Y-96117857D01*
X180857144Y-96046429D01*
X181071430Y-95903571D01*
X182428572Y-95832143D02*
X182285715Y-95903571D01*
X182000001Y-95903571D01*
X181857144Y-95832143D01*
X181785715Y-95689286D01*
X181785715Y-95117857D01*
X181857144Y-94975000D01*
X182000001Y-94903571D01*
X182285715Y-94903571D01*
X182428572Y-94975000D01*
X182500001Y-95117857D01*
X182500001Y-95260714D01*
X181785715Y-95403571D01*
X183785715Y-95832143D02*
X183642858Y-95903571D01*
X183357144Y-95903571D01*
X183214286Y-95832143D01*
X183142858Y-95760714D01*
X183071429Y-95617857D01*
X183071429Y-95189286D01*
X183142858Y-95046429D01*
X183214286Y-94975000D01*
X183357144Y-94903571D01*
X183642858Y-94903571D01*
X183785715Y-94975000D01*
X185071429Y-95832143D02*
X184928572Y-95903571D01*
X184642858Y-95903571D01*
X184500000Y-95832143D01*
X184428572Y-95760714D01*
X184357143Y-95617857D01*
X184357143Y-95189286D01*
X184428572Y-95046429D01*
X184500000Y-94975000D01*
X184642858Y-94903571D01*
X184928572Y-94903571D01*
X185071429Y-94975000D01*
X185928572Y-95903571D02*
X185785714Y-95832143D01*
X185714286Y-95760714D01*
X185642857Y-95617857D01*
X185642857Y-95189286D01*
X185714286Y-95046429D01*
X185785714Y-94975000D01*
X185928572Y-94903571D01*
X186142857Y-94903571D01*
X186285714Y-94975000D01*
X186357143Y-95046429D01*
X186428572Y-95189286D01*
X186428572Y-95617857D01*
X186357143Y-95760714D01*
X186285714Y-95832143D01*
X186142857Y-95903571D01*
X185928572Y-95903571D01*
X187857143Y-95903571D02*
X187000000Y-95903571D01*
X187428572Y-95903571D02*
X187428572Y-94403571D01*
X187285715Y-94617857D01*
X187142857Y-94760714D01*
X187000000Y-94832143D01*
X188571428Y-95903571D02*
X188857143Y-95903571D01*
X189000000Y-95832143D01*
X189071428Y-95760714D01*
X189214286Y-95546429D01*
X189285714Y-95260714D01*
X189285714Y-94689286D01*
X189214286Y-94546429D01*
X189142857Y-94475000D01*
X189000000Y-94403571D01*
X188714286Y-94403571D01*
X188571428Y-94475000D01*
X188500000Y-94546429D01*
X188428571Y-94689286D01*
X188428571Y-95046429D01*
X188500000Y-95189286D01*
X188571428Y-95260714D01*
X188714286Y-95332143D01*
X189000000Y-95332143D01*
X189142857Y-95260714D01*
X189214286Y-95189286D01*
X189285714Y-95046429D01*
X189999999Y-95903571D02*
X190285714Y-95903571D01*
X190428571Y-95832143D01*
X190499999Y-95760714D01*
X190642857Y-95546429D01*
X190714285Y-95260714D01*
X190714285Y-94689286D01*
X190642857Y-94546429D01*
X190571428Y-94475000D01*
X190428571Y-94403571D01*
X190142857Y-94403571D01*
X189999999Y-94475000D01*
X189928571Y-94546429D01*
X189857142Y-94689286D01*
X189857142Y-95046429D01*
X189928571Y-95189286D01*
X189999999Y-95260714D01*
X190142857Y-95332143D01*
X190428571Y-95332143D01*
X190571428Y-95260714D01*
X190642857Y-95189286D01*
X190714285Y-95046429D01*
X191999999Y-94403571D02*
X191714285Y-94403571D01*
X191571428Y-94475000D01*
X191499999Y-94546429D01*
X191357142Y-94760714D01*
X191285713Y-95046429D01*
X191285713Y-95617857D01*
X191357142Y-95760714D01*
X191428570Y-95832143D01*
X191571428Y-95903571D01*
X191857142Y-95903571D01*
X191999999Y-95832143D01*
X192071428Y-95760714D01*
X192142856Y-95617857D01*
X192142856Y-95260714D01*
X192071428Y-95117857D01*
X191999999Y-95046429D01*
X191857142Y-94975000D01*
X191571428Y-94975000D01*
X191428570Y-95046429D01*
X191357142Y-95117857D01*
X191285713Y-95260714D01*
X183428572Y-97096429D02*
X183500001Y-97025000D01*
X183642858Y-96953571D01*
X184000001Y-96953571D01*
X184142858Y-97025000D01*
X184214287Y-97096429D01*
X184285715Y-97239286D01*
X184285715Y-97382143D01*
X184214287Y-97596429D01*
X183357144Y-98453571D01*
X184285715Y-98453571D01*
X185214286Y-96953571D02*
X185357143Y-96953571D01*
X185500000Y-97025000D01*
X185571429Y-97096429D01*
X185642858Y-97239286D01*
X185714286Y-97525000D01*
X185714286Y-97882143D01*
X185642858Y-98167857D01*
X185571429Y-98310714D01*
X185500000Y-98382143D01*
X185357143Y-98453571D01*
X185214286Y-98453571D01*
X185071429Y-98382143D01*
X185000000Y-98310714D01*
X184928572Y-98167857D01*
X184857143Y-97882143D01*
X184857143Y-97525000D01*
X184928572Y-97239286D01*
X185000000Y-97096429D01*
X185071429Y-97025000D01*
X185214286Y-96953571D01*
X187142857Y-98453571D02*
X186285714Y-98453571D01*
X186714286Y-98453571D02*
X186714286Y-96953571D01*
X186571429Y-97167857D01*
X186428571Y-97310714D01*
X186285714Y-97382143D01*
X188000000Y-97596429D02*
X187857142Y-97525000D01*
X187785714Y-97453571D01*
X187714285Y-97310714D01*
X187714285Y-97239286D01*
X187785714Y-97096429D01*
X187857142Y-97025000D01*
X188000000Y-96953571D01*
X188285714Y-96953571D01*
X188428571Y-97025000D01*
X188500000Y-97096429D01*
X188571428Y-97239286D01*
X188571428Y-97310714D01*
X188500000Y-97453571D01*
X188428571Y-97525000D01*
X188285714Y-97596429D01*
X188000000Y-97596429D01*
X187857142Y-97667857D01*
X187785714Y-97739286D01*
X187714285Y-97882143D01*
X187714285Y-98167857D01*
X187785714Y-98310714D01*
X187857142Y-98382143D01*
X188000000Y-98453571D01*
X188285714Y-98453571D01*
X188428571Y-98382143D01*
X188500000Y-98310714D01*
X188571428Y-98167857D01*
X188571428Y-97882143D01*
X188500000Y-97739286D01*
X188428571Y-97667857D01*
X188285714Y-97596429D01*
X241596429Y-56285714D02*
X243096429Y-56285714D01*
X241596429Y-57857143D02*
X242310714Y-57357143D01*
X241596429Y-57000000D02*
X243096429Y-57000000D01*
X243096429Y-57571428D01*
X243025000Y-57714286D01*
X242953571Y-57785714D01*
X242810714Y-57857143D01*
X242596429Y-57857143D01*
X242453571Y-57785714D01*
X242382143Y-57714286D01*
X242310714Y-57571428D01*
X242310714Y-57000000D01*
X241596429Y-58500000D02*
X243096429Y-58500000D01*
X241667857Y-59142857D02*
X241596429Y-59357143D01*
X241596429Y-59714286D01*
X241667857Y-59857143D01*
X241739286Y-59928572D01*
X241882143Y-60000000D01*
X242025000Y-60000000D01*
X242167857Y-59928572D01*
X242239286Y-59857143D01*
X242310714Y-59714286D01*
X242382143Y-59428572D01*
X242453571Y-59285714D01*
X242525000Y-59214286D01*
X242667857Y-59142857D01*
X242810714Y-59142857D01*
X242953571Y-59214286D01*
X243025000Y-59285714D01*
X243096429Y-59428572D01*
X243096429Y-59785714D01*
X243025000Y-60000000D01*
X241596429Y-62642857D02*
X242310714Y-62142857D01*
X241596429Y-61785714D02*
X243096429Y-61785714D01*
X243096429Y-62357142D01*
X243025000Y-62500000D01*
X242953571Y-62571428D01*
X242810714Y-62642857D01*
X242596429Y-62642857D01*
X242453571Y-62571428D01*
X242382143Y-62500000D01*
X242310714Y-62357142D01*
X242310714Y-61785714D01*
X241596429Y-63500000D02*
X241667857Y-63357142D01*
X241739286Y-63285714D01*
X241882143Y-63214285D01*
X242310714Y-63214285D01*
X242453571Y-63285714D01*
X242525000Y-63357142D01*
X242596429Y-63500000D01*
X242596429Y-63714285D01*
X242525000Y-63857142D01*
X242453571Y-63928571D01*
X242310714Y-64000000D01*
X241882143Y-64000000D01*
X241739286Y-63928571D01*
X241667857Y-63857142D01*
X241596429Y-63714285D01*
X241596429Y-63500000D01*
X241596429Y-64642857D02*
X243096429Y-64642857D01*
X242525000Y-64642857D02*
X242596429Y-64785714D01*
X242596429Y-65071428D01*
X242525000Y-65214285D01*
X242453571Y-65285714D01*
X242310714Y-65357143D01*
X241882143Y-65357143D01*
X241739286Y-65285714D01*
X241667857Y-65214285D01*
X241596429Y-65071428D01*
X241596429Y-64785714D01*
X241667857Y-64642857D01*
X241596429Y-66214286D02*
X241667857Y-66071428D01*
X241739286Y-66000000D01*
X241882143Y-65928571D01*
X242310714Y-65928571D01*
X242453571Y-66000000D01*
X242525000Y-66071428D01*
X242596429Y-66214286D01*
X242596429Y-66428571D01*
X242525000Y-66571428D01*
X242453571Y-66642857D01*
X242310714Y-66714286D01*
X241882143Y-66714286D01*
X241739286Y-66642857D01*
X241667857Y-66571428D01*
X241596429Y-66428571D01*
X241596429Y-66214286D01*
X242596429Y-67142857D02*
X242596429Y-67714286D01*
X243096429Y-67357143D02*
X241810714Y-67357143D01*
X241667857Y-67428571D01*
X241596429Y-67571429D01*
X241596429Y-67714286D01*
X241596429Y-68214286D02*
X242596429Y-68214286D01*
X243096429Y-68214286D02*
X243025000Y-68142857D01*
X242953571Y-68214286D01*
X243025000Y-68285714D01*
X243096429Y-68214286D01*
X242953571Y-68214286D01*
X241667857Y-69571429D02*
X241596429Y-69428572D01*
X241596429Y-69142858D01*
X241667857Y-69000000D01*
X241739286Y-68928572D01*
X241882143Y-68857143D01*
X242310714Y-68857143D01*
X242453571Y-68928572D01*
X242525000Y-69000000D01*
X242596429Y-69142858D01*
X242596429Y-69428572D01*
X242525000Y-69571429D01*
X241667857Y-70142857D02*
X241596429Y-70285714D01*
X241596429Y-70571429D01*
X241667857Y-70714286D01*
X241810714Y-70785714D01*
X241882143Y-70785714D01*
X242025000Y-70714286D01*
X242096429Y-70571429D01*
X242096429Y-70357143D01*
X242167857Y-70214286D01*
X242310714Y-70142857D01*
X242382143Y-70142857D01*
X242525000Y-70214286D01*
X242596429Y-70357143D01*
X242596429Y-70571429D01*
X242525000Y-70714286D01*
X239046429Y-57428573D02*
X240546429Y-57428573D01*
X239475000Y-57928573D01*
X240546429Y-58428573D01*
X239046429Y-58428573D01*
X240546429Y-58928573D02*
X239046429Y-59428573D01*
X240546429Y-59928573D01*
X240403571Y-60357144D02*
X240475000Y-60428573D01*
X240546429Y-60571430D01*
X240546429Y-60928573D01*
X240475000Y-61071430D01*
X240403571Y-61142859D01*
X240260714Y-61214287D01*
X240117857Y-61214287D01*
X239903571Y-61142859D01*
X239046429Y-60285716D01*
X239046429Y-61214287D01*
X240546429Y-61714287D02*
X240546429Y-62714287D01*
X239046429Y-62071430D01*
X240546429Y-63071429D02*
X240546429Y-63928572D01*
X239046429Y-63500001D02*
X240546429Y-63500001D01*
X240046429Y-65428572D02*
X239046429Y-65785715D01*
X240046429Y-66142857D01*
X240546429Y-67000000D02*
X240546429Y-67142857D01*
X240475000Y-67285714D01*
X240403571Y-67357143D01*
X240260714Y-67428572D01*
X239975000Y-67500000D01*
X239617857Y-67500000D01*
X239332143Y-67428572D01*
X239189286Y-67357143D01*
X239117857Y-67285714D01*
X239046429Y-67142857D01*
X239046429Y-67000000D01*
X239117857Y-66857143D01*
X239189286Y-66785714D01*
X239332143Y-66714286D01*
X239617857Y-66642857D01*
X239975000Y-66642857D01*
X240260714Y-66714286D01*
X240403571Y-66785714D01*
X240475000Y-66857143D01*
X240546429Y-67000000D01*
X239189286Y-68142857D02*
X239117857Y-68214285D01*
X239046429Y-68142857D01*
X239117857Y-68071428D01*
X239189286Y-68142857D01*
X239046429Y-68142857D01*
X239046429Y-69642857D02*
X239046429Y-68785714D01*
X239046429Y-69214286D02*
X240546429Y-69214286D01*
X240332143Y-69071429D01*
X240189286Y-68928571D01*
X240117857Y-68785714D01*
X190892857Y-47535714D02*
X190964285Y-47607143D01*
X190892857Y-47678571D01*
X190821428Y-47607143D01*
X190892857Y-47535714D01*
X190892857Y-47678571D01*
X190892857Y-47107143D02*
X190821428Y-46250000D01*
X190892857Y-46178571D01*
X190964285Y-46250000D01*
X190892857Y-47107143D01*
X190892857Y-46178571D01*
X191392857Y-46678571D02*
X191964286Y-46678571D01*
X191607143Y-47678571D02*
X191607143Y-46392857D01*
X191678571Y-46250000D01*
X191821429Y-46178571D01*
X191964286Y-46178571D01*
X192678572Y-47678571D02*
X192535714Y-47607143D01*
X192464286Y-47464286D01*
X192464286Y-46178571D01*
X193464286Y-47678571D02*
X193321428Y-47607143D01*
X193250000Y-47535714D01*
X193178571Y-47392857D01*
X193178571Y-46964286D01*
X193250000Y-46821429D01*
X193321428Y-46750000D01*
X193464286Y-46678571D01*
X193678571Y-46678571D01*
X193821428Y-46750000D01*
X193892857Y-46821429D01*
X193964286Y-46964286D01*
X193964286Y-47392857D01*
X193892857Y-47535714D01*
X193821428Y-47607143D01*
X193678571Y-47678571D01*
X193464286Y-47678571D01*
X195250000Y-47678571D02*
X195250000Y-46892857D01*
X195178571Y-46750000D01*
X195035714Y-46678571D01*
X194750000Y-46678571D01*
X194607143Y-46750000D01*
X195250000Y-47607143D02*
X195107143Y-47678571D01*
X194750000Y-47678571D01*
X194607143Y-47607143D01*
X194535714Y-47464286D01*
X194535714Y-47321429D01*
X194607143Y-47178571D01*
X194750000Y-47107143D01*
X195107143Y-47107143D01*
X195250000Y-47035714D01*
X195750000Y-46678571D02*
X196321429Y-46678571D01*
X195964286Y-46178571D02*
X195964286Y-47464286D01*
X196035714Y-47607143D01*
X196178572Y-47678571D01*
X196321429Y-47678571D01*
X196821429Y-47678571D02*
X196821429Y-46678571D01*
X196821429Y-46178571D02*
X196750000Y-46250000D01*
X196821429Y-46321429D01*
X196892857Y-46250000D01*
X196821429Y-46178571D01*
X196821429Y-46321429D01*
X197535715Y-46678571D02*
X197535715Y-47678571D01*
X197535715Y-46821429D02*
X197607143Y-46750000D01*
X197750001Y-46678571D01*
X197964286Y-46678571D01*
X198107143Y-46750000D01*
X198178572Y-46892857D01*
X198178572Y-47678571D01*
X199535715Y-46678571D02*
X199535715Y-47892857D01*
X199464286Y-48035714D01*
X199392858Y-48107143D01*
X199250001Y-48178571D01*
X199035715Y-48178571D01*
X198892858Y-48107143D01*
X199535715Y-47607143D02*
X199392858Y-47678571D01*
X199107144Y-47678571D01*
X198964286Y-47607143D01*
X198892858Y-47535714D01*
X198821429Y-47392857D01*
X198821429Y-46964286D01*
X198892858Y-46821429D01*
X198964286Y-46750000D01*
X199107144Y-46678571D01*
X199392858Y-46678571D01*
X199535715Y-46750000D01*
X202035715Y-46678571D02*
X202035715Y-47892857D01*
X201964286Y-48035714D01*
X201892858Y-48107143D01*
X201750001Y-48178571D01*
X201535715Y-48178571D01*
X201392858Y-48107143D01*
X202035715Y-47607143D02*
X201892858Y-47678571D01*
X201607144Y-47678571D01*
X201464286Y-47607143D01*
X201392858Y-47535714D01*
X201321429Y-47392857D01*
X201321429Y-46964286D01*
X201392858Y-46821429D01*
X201464286Y-46750000D01*
X201607144Y-46678571D01*
X201892858Y-46678571D01*
X202035715Y-46750000D01*
X202750001Y-47678571D02*
X202750001Y-46678571D01*
X202750001Y-46964286D02*
X202821429Y-46821429D01*
X202892858Y-46750000D01*
X203035715Y-46678571D01*
X203178572Y-46678571D01*
X203892858Y-47678571D02*
X203750000Y-47607143D01*
X203678572Y-47535714D01*
X203607143Y-47392857D01*
X203607143Y-46964286D01*
X203678572Y-46821429D01*
X203750000Y-46750000D01*
X203892858Y-46678571D01*
X204107143Y-46678571D01*
X204250000Y-46750000D01*
X204321429Y-46821429D01*
X204392858Y-46964286D01*
X204392858Y-47392857D01*
X204321429Y-47535714D01*
X204250000Y-47607143D01*
X204107143Y-47678571D01*
X203892858Y-47678571D01*
X205678572Y-46678571D02*
X205678572Y-47678571D01*
X205035715Y-46678571D02*
X205035715Y-47464286D01*
X205107143Y-47607143D01*
X205250001Y-47678571D01*
X205464286Y-47678571D01*
X205607143Y-47607143D01*
X205678572Y-47535714D01*
X206392858Y-46678571D02*
X206392858Y-47678571D01*
X206392858Y-46821429D02*
X206464286Y-46750000D01*
X206607144Y-46678571D01*
X206821429Y-46678571D01*
X206964286Y-46750000D01*
X207035715Y-46892857D01*
X207035715Y-47678571D01*
X208392858Y-47678571D02*
X208392858Y-46178571D01*
X208392858Y-47607143D02*
X208250001Y-47678571D01*
X207964287Y-47678571D01*
X207821429Y-47607143D01*
X207750001Y-47535714D01*
X207678572Y-47392857D01*
X207678572Y-46964286D01*
X207750001Y-46821429D01*
X207821429Y-46750000D01*
X207964287Y-46678571D01*
X208250001Y-46678571D01*
X208392858Y-46750000D01*
X209107144Y-47535714D02*
X209178572Y-47607143D01*
X209107144Y-47678571D01*
X209035715Y-47607143D01*
X209107144Y-47535714D01*
X209107144Y-47678571D01*
X209107144Y-47107143D02*
X209035715Y-46250000D01*
X209107144Y-46178571D01*
X209178572Y-46250000D01*
X209107144Y-47107143D01*
X209107144Y-46178571D01*
D12*
X197920000Y-98460000D03*
D13*
X197920000Y-101000000D03*
X200460000Y-98460000D03*
X200460000Y-101000000D03*
X203000000Y-98460000D03*
X203000000Y-101000000D03*
X205540000Y-98460000D03*
X205540000Y-101000000D03*
X208080000Y-98460000D03*
X208080000Y-101000000D03*
D14*
X195750000Y-75200000D03*
X195750000Y-76000000D03*
X195750000Y-76800000D03*
X195750000Y-77600000D03*
X195750000Y-78400000D03*
X195750000Y-79200000D03*
X195750000Y-80000000D03*
X195750000Y-80800000D03*
D15*
X197200000Y-82250000D03*
X198000000Y-82250000D03*
X198800000Y-82250000D03*
X199600000Y-82250000D03*
X200400000Y-82250000D03*
X201200000Y-82250000D03*
X202000000Y-82250000D03*
X202800000Y-82250000D03*
D14*
X204250000Y-80800000D03*
X204250000Y-80000000D03*
X204250000Y-79200000D03*
X204250000Y-78400000D03*
X204250000Y-77600000D03*
X204250000Y-76800000D03*
X204250000Y-76000000D03*
X204250000Y-75200000D03*
D15*
X202800000Y-73750000D03*
X202000000Y-73750000D03*
X201200000Y-73750000D03*
X200400000Y-73750000D03*
X199600000Y-73750000D03*
X198800000Y-73750000D03*
X198000000Y-73750000D03*
X197200000Y-73750000D03*
D12*
X227460000Y-57500000D03*
D13*
X230000000Y-57500000D03*
X232540000Y-57500000D03*
D12*
X227460000Y-64500000D03*
D13*
X230000000Y-64500000D03*
X232540000Y-64500000D03*
D12*
X227460000Y-61000000D03*
D13*
X230000000Y-61000000D03*
X232540000Y-61000000D03*
D12*
X227460000Y-68000000D03*
D13*
X230000000Y-68000000D03*
X232540000Y-68000000D03*
D12*
X227460000Y-54000000D03*
D13*
X230000000Y-54000000D03*
X232540000Y-54000000D03*
D12*
X227460000Y-71500000D03*
D13*
X230000000Y-71500000D03*
X232540000Y-71500000D03*
D12*
X227460000Y-50500000D03*
D13*
X230000000Y-50500000D03*
X232540000Y-50500000D03*
D12*
X227460000Y-47000000D03*
D13*
X230000000Y-47000000D03*
X232540000Y-47000000D03*
D12*
X191580000Y-71000000D03*
D13*
X189040000Y-71000000D03*
X186500000Y-71000000D03*
X183960000Y-71000000D03*
X181420000Y-71000000D03*
D16*
X192000000Y-68200000D03*
X192000000Y-65500000D03*
D17*
X197150000Y-67725000D03*
X197150000Y-67075000D03*
X197150000Y-66425000D03*
X197150000Y-65775000D03*
X197150000Y-65125000D03*
X197150000Y-64475000D03*
X197150000Y-63825000D03*
X197150000Y-63175000D03*
X197150000Y-62525000D03*
X197150000Y-61875000D03*
X197150000Y-61225000D03*
X197150000Y-60575000D03*
X197150000Y-59925000D03*
X197150000Y-59275000D03*
X202850000Y-59275000D03*
X202850000Y-59925000D03*
X202850000Y-60575000D03*
X202850000Y-61225000D03*
X202850000Y-61875000D03*
X202850000Y-62525000D03*
X202850000Y-63175000D03*
X202850000Y-63825000D03*
X202850000Y-64475000D03*
X202850000Y-65125000D03*
X202850000Y-65775000D03*
X202850000Y-66425000D03*
X202850000Y-67075000D03*
X202850000Y-67725000D03*
D18*
X196900000Y-88300000D03*
X203100000Y-88300000D03*
X196900000Y-92000000D03*
X203100000Y-92000000D03*
D16*
X227500000Y-83650000D03*
X227500000Y-86350000D03*
X230000000Y-86350000D03*
X230000000Y-83650000D03*
D19*
X212850000Y-91250000D03*
X210150000Y-91250000D03*
X209800000Y-88000000D03*
X207100000Y-88000000D03*
D20*
X200500000Y-86500000D03*
X199500000Y-85000000D03*
X198500000Y-86500000D03*
X197500000Y-85000000D03*
X201500000Y-85000000D03*
X196500000Y-86500000D03*
D21*
X181000000Y-25000000D03*
X181000000Y-41000000D03*
X219000000Y-41000000D03*
X219000000Y-25000000D03*
D22*
X186220000Y-65500000D03*
X187500000Y-65500000D03*
D19*
X204700000Y-70250000D03*
X202000000Y-70250000D03*
X186300000Y-68000000D03*
X189000000Y-68000000D03*
D23*
X172000000Y-87750000D03*
X172000000Y-84500000D03*
X172000000Y-81250000D03*
D24*
X196000000Y-51360000D03*
X196000000Y-52640000D03*
X198000000Y-51360000D03*
X198000000Y-52640000D03*
X200000000Y-51360000D03*
X200000000Y-52640000D03*
X202000000Y-51360000D03*
X202000000Y-52640000D03*
X204000000Y-51360000D03*
X204000000Y-52640000D03*
D12*
X172540000Y-71500000D03*
D13*
X170000000Y-71500000D03*
X167460000Y-71500000D03*
D12*
X222740000Y-94250000D03*
D13*
X222740000Y-91710000D03*
X222740000Y-89170000D03*
X222740000Y-86630000D03*
X222740000Y-84090000D03*
X222740000Y-81550000D03*
X222740000Y-79010000D03*
X222740000Y-76470000D03*
D12*
X172540000Y-68000000D03*
D13*
X170000000Y-68000000D03*
X167460000Y-68000000D03*
D12*
X172540000Y-64500000D03*
D13*
X170000000Y-64500000D03*
X167460000Y-64500000D03*
D12*
X172540000Y-61000000D03*
D13*
X170000000Y-61000000D03*
X167460000Y-61000000D03*
D12*
X172540000Y-57500000D03*
D13*
X170000000Y-57500000D03*
X167460000Y-57500000D03*
D12*
X172540000Y-54000000D03*
D13*
X170000000Y-54000000D03*
X167460000Y-54000000D03*
D12*
X172540000Y-50500000D03*
D13*
X170000000Y-50500000D03*
X167460000Y-50500000D03*
D12*
X172540000Y-47000000D03*
D13*
X170000000Y-47000000D03*
X167460000Y-47000000D03*
D12*
X163000000Y-63920000D03*
D13*
X163000000Y-66460000D03*
X163000000Y-69000000D03*
X163000000Y-71540000D03*
D19*
X157150000Y-63000000D03*
X159850000Y-63000000D03*
X169650000Y-76500000D03*
X172350000Y-76500000D03*
X157150000Y-65000000D03*
X159850000Y-65000000D03*
D16*
X166500000Y-79350000D03*
X166500000Y-76650000D03*
D25*
X243500000Y-26500000D02*
X243500000Y-23500000D01*
X247500000Y-24500000D02*
X247500000Y-20500000D01*
X245500000Y-20500000D02*
X245500000Y-26500000D01*
X243500000Y-23500000D02*
X243500000Y-22500000D01*
X249500000Y-26500000D02*
X247500000Y-24500000D01*
X243500000Y-22500000D02*
X241500000Y-20500000D01*
X198000000Y-31500000D02*
X196000000Y-29500000D01*
X198000000Y-32500000D02*
X198000000Y-31500000D01*
X198000000Y-35500000D02*
X198000000Y-32500000D01*
X200000000Y-29500000D02*
X200000000Y-35500000D01*
X202000000Y-33500000D02*
X202000000Y-29500000D01*
X204000000Y-35500000D02*
X202000000Y-33500000D01*
D26*
X197150000Y-65775000D02*
X197950000Y-65775000D01*
X207000000Y-49277326D02*
X207000000Y-52750000D01*
X207000000Y-52750000D02*
X202850000Y-56900000D01*
X202850000Y-56900000D02*
X202850000Y-59275000D01*
X197950000Y-65775000D02*
X198264788Y-65460212D01*
X198264788Y-65460212D02*
X198264788Y-58605220D01*
X198264788Y-58605220D02*
X193000000Y-53340432D01*
X193000000Y-53340432D02*
X193000000Y-50065931D01*
X193000000Y-50065931D02*
X192997263Y-50063194D01*
X192997263Y-50063194D02*
X193783131Y-49277326D01*
X193783131Y-49277326D02*
X207000000Y-49277326D01*
X195750000Y-76800000D02*
X191700000Y-76800000D01*
X191700000Y-76800000D02*
X191500000Y-77000000D01*
X191500000Y-77000000D02*
X191500000Y-78000000D01*
X191500000Y-78000000D02*
X191900000Y-78400000D01*
X191900000Y-78400000D02*
X195750000Y-78400000D01*
X227380000Y-83650000D02*
X227500000Y-83650000D01*
X204250000Y-77600000D02*
X205300000Y-77600000D01*
X205300000Y-77600000D02*
X220700000Y-93000000D01*
X220700000Y-93000000D02*
X225750000Y-93000000D01*
X191580000Y-68620000D02*
X192000000Y-68200000D01*
X192080000Y-68280000D02*
X192000000Y-68200000D01*
X192000000Y-68200000D02*
X192900000Y-68200000D01*
X192900000Y-68200000D02*
X195325000Y-65775000D01*
X195325000Y-65775000D02*
X196350000Y-65775000D01*
X196350000Y-65775000D02*
X197150000Y-65775000D01*
X197150000Y-65775000D02*
X197150000Y-65799999D01*
X203000000Y-98500000D02*
X203000000Y-97297919D01*
X203000000Y-97297919D02*
X201396781Y-95694700D01*
X201396781Y-95694700D02*
X201396781Y-90081041D01*
X201396781Y-90081041D02*
X203123536Y-88354286D01*
X199600000Y-73750000D02*
X199600000Y-78369998D01*
X199600000Y-78369998D02*
X194346008Y-83623990D01*
X194346008Y-83623990D02*
X194346008Y-87346008D01*
X194346008Y-87346008D02*
X195300000Y-88300000D01*
X195300000Y-88300000D02*
X196900000Y-88300000D01*
X202000000Y-82250000D02*
X202000000Y-83500000D01*
X202000000Y-83500000D02*
X202500000Y-84000000D01*
X202500000Y-84000000D02*
X202500000Y-86683805D01*
X202500000Y-86683805D02*
X199985750Y-89198055D01*
X199985750Y-89198055D02*
X199985750Y-94014250D01*
X199985750Y-94014250D02*
X197920000Y-96080000D01*
X197920000Y-96080000D02*
X197920000Y-97400000D01*
X197920000Y-97400000D02*
X197920000Y-98500000D01*
X204250000Y-80800000D02*
X204725102Y-80800000D01*
X204725102Y-80800000D02*
X207100000Y-83174898D01*
X207100000Y-83174898D02*
X207100000Y-88000000D01*
X207100000Y-91500000D02*
X207100000Y-93600000D01*
X207244642Y-99725001D02*
X206019641Y-98500000D01*
X207100000Y-93600000D02*
X210000000Y-96500000D01*
X210000000Y-96500000D02*
X210000000Y-99000000D01*
X210000000Y-99000000D02*
X209274999Y-99725001D01*
X209274999Y-99725001D02*
X207244642Y-99725001D01*
X206019641Y-98500000D02*
X205540000Y-98500000D01*
X207100000Y-88000000D02*
X207100000Y-91500000D01*
X207100000Y-91500000D02*
X207100000Y-91994554D01*
X207050000Y-87950000D02*
X207100000Y-88000000D01*
X208080000Y-98500000D02*
X208080000Y-97297919D01*
X208080000Y-97297919D02*
X205500000Y-94717919D01*
X205500000Y-94717919D02*
X205500000Y-84425000D01*
X202800000Y-82250000D02*
X203325000Y-82250000D01*
X203325000Y-82250000D02*
X205500000Y-84425000D01*
X227500000Y-86350000D02*
X228400000Y-86350000D01*
X228400000Y-86350000D02*
X230000000Y-86350000D01*
X198000000Y-73750000D02*
X198000000Y-72700000D01*
X198000000Y-72700000D02*
X197800000Y-72500000D01*
X193500000Y-74500000D02*
X182500000Y-74500000D01*
X182500000Y-74500000D02*
X181420000Y-73420000D01*
X181420000Y-73420000D02*
X181420000Y-71000000D01*
X197800000Y-72500000D02*
X195500000Y-72500000D01*
X195500000Y-72500000D02*
X193500000Y-74500000D01*
X198800000Y-73750000D02*
X198800000Y-72700000D01*
X198800000Y-72700000D02*
X197600000Y-71500000D01*
X197600000Y-71500000D02*
X195250000Y-71500000D01*
X195250000Y-71500000D02*
X193250000Y-73500000D01*
X193250000Y-73500000D02*
X185000000Y-73500000D01*
X185000000Y-73500000D02*
X183960000Y-72460000D01*
X183960000Y-72460000D02*
X183960000Y-71000000D01*
X189000000Y-68000000D02*
X189000000Y-68900000D01*
X189000000Y-68900000D02*
X190265001Y-70165001D01*
X190265001Y-70165001D02*
X190265001Y-71984999D01*
X190265001Y-71984999D02*
X190780002Y-72500000D01*
X193250000Y-72500000D02*
X195500000Y-70250000D01*
X190780002Y-72500000D02*
X193250000Y-72500000D01*
X200400000Y-73750000D02*
X200400000Y-72900000D01*
X200400000Y-72900000D02*
X197750000Y-70250000D01*
X197750000Y-70250000D02*
X195500000Y-70250000D01*
X195500000Y-70250000D02*
X194750000Y-69500000D01*
X194750000Y-69500000D02*
X194750000Y-67500000D01*
X194750000Y-67500000D02*
X195825000Y-66425000D01*
X195825000Y-66425000D02*
X196350000Y-66425000D01*
X196350000Y-66425000D02*
X197150000Y-66425000D01*
X197150000Y-67075000D02*
X196175000Y-67075000D01*
X196175000Y-67075000D02*
X195559389Y-67690611D01*
X195559389Y-67690611D02*
X195559389Y-68987963D01*
X195559389Y-68987963D02*
X195971426Y-69400000D01*
X195971426Y-69400000D02*
X197900000Y-69400000D01*
X197900000Y-69400000D02*
X201200000Y-72700000D01*
X201200000Y-72700000D02*
X202000000Y-71900000D01*
X202000000Y-71900000D02*
X202000000Y-70250000D01*
X201200000Y-72700000D02*
X201200000Y-73750000D01*
X202000000Y-52640000D02*
X202000000Y-53375000D01*
X202000000Y-53375000D02*
X201101260Y-54273740D01*
X201101260Y-54273740D02*
X201101260Y-64954091D01*
X201101260Y-64954091D02*
X201922169Y-65775000D01*
X201922169Y-65775000D02*
X202050000Y-65775000D01*
X202050000Y-65775000D02*
X202850000Y-65775000D01*
X202850000Y-66425000D02*
X201729332Y-66425000D01*
X201729332Y-66425000D02*
X200541070Y-65236738D01*
X200541070Y-65236738D02*
X200541070Y-53916070D01*
X200541070Y-53916070D02*
X200000000Y-53375000D01*
X200000000Y-53375000D02*
X200000000Y-52640000D01*
X202850000Y-67075000D02*
X201601499Y-67075000D01*
X201601499Y-67075000D02*
X199990539Y-65464040D01*
X199990539Y-65464040D02*
X199990539Y-55365539D01*
X199990539Y-55365539D02*
X198000000Y-53375000D01*
X198000000Y-53375000D02*
X198000000Y-52640000D01*
X201473666Y-67725000D02*
X199440007Y-65691341D01*
X202850000Y-67725000D02*
X201473666Y-67725000D01*
X199440007Y-65691341D02*
X199440007Y-57662174D01*
X199440007Y-57662174D02*
X196000000Y-54222167D01*
X196000000Y-54222167D02*
X196000000Y-53375000D01*
X196000000Y-53375000D02*
X196000000Y-52640000D01*
X196007306Y-52640000D02*
X196000000Y-52640000D01*
X222740000Y-91710000D02*
X220710000Y-91710000D01*
X220710000Y-91710000D02*
X205800000Y-76800000D01*
X205800000Y-76800000D02*
X204250000Y-76800000D01*
X204250000Y-76800000D02*
X205300000Y-76800000D01*
X204250000Y-76800000D02*
X204800000Y-76800000D01*
X222740000Y-94250000D02*
X220500000Y-94250000D01*
X220500000Y-94250000D02*
X205450000Y-79200000D01*
X205450000Y-79200000D02*
X204250000Y-79200000D01*
X181000000Y-68500000D02*
X181500000Y-68000000D01*
X181500000Y-68000000D02*
X184000000Y-65500000D01*
X182500000Y-68000000D02*
X181500000Y-68000000D01*
X184000000Y-65500000D02*
X186220000Y-65500000D01*
X170797919Y-73500000D02*
X176000000Y-73500000D01*
X176000000Y-73500000D02*
X181250000Y-68250000D01*
X157150000Y-63000000D02*
X157250000Y-63000000D01*
X157250000Y-63000000D02*
X158750000Y-61500000D01*
X158750000Y-61500000D02*
X164000000Y-61500000D01*
X164000000Y-61500000D02*
X165500000Y-63000000D01*
X165500000Y-63000000D02*
X165500000Y-72000000D01*
X165500000Y-72000000D02*
X167000000Y-73500000D01*
X167000000Y-73500000D02*
X170797919Y-73500000D01*
X170000000Y-72702081D02*
X170797919Y-73500000D01*
X168500000Y-80000000D02*
X168500000Y-82000000D01*
X169300000Y-79200000D02*
X168500000Y-80000000D01*
X195750000Y-79200000D02*
X169300000Y-79200000D01*
X169500000Y-83000000D02*
X174500000Y-83000000D01*
X168500000Y-82000000D02*
X169500000Y-83000000D01*
X174500000Y-83000000D02*
X175500000Y-84000000D01*
X206212164Y-99734821D02*
X206854999Y-100377656D01*
X206854999Y-100377656D02*
X206854999Y-101854999D01*
X206854999Y-101854999D02*
X207500000Y-102500000D01*
X175500000Y-85500000D02*
X174700002Y-86299998D01*
X175500000Y-84000000D02*
X175500000Y-85500000D01*
X169500000Y-86299998D02*
X168500000Y-87299998D01*
X174700002Y-86299998D02*
X169500000Y-86299998D01*
X169500000Y-90000000D02*
X197500000Y-90000000D01*
X168500000Y-89000000D02*
X169500000Y-90000000D01*
X168500000Y-87299998D02*
X168500000Y-89000000D01*
X197500000Y-90000000D02*
X198843040Y-91343040D01*
X198843040Y-93351760D02*
X196000000Y-96194800D01*
X198843040Y-91343040D02*
X198843040Y-93351760D01*
X208500000Y-83402759D02*
X205097241Y-80000000D01*
X196000000Y-96194800D02*
X196000000Y-100000000D01*
X196000000Y-100000000D02*
X196190001Y-100190001D01*
X196190001Y-100190001D02*
X197070001Y-100190001D01*
X197070001Y-100190001D02*
X197920000Y-101040000D01*
X197920000Y-101040000D02*
X199225179Y-99734821D01*
X199225179Y-99734821D02*
X206212164Y-99734821D01*
X207500000Y-102500000D02*
X209654654Y-102500000D01*
X209654654Y-102500000D02*
X211500000Y-100654654D01*
X211500000Y-100654654D02*
X211500000Y-95500000D01*
X211500000Y-95500000D02*
X208500000Y-92500000D01*
X208500000Y-92500000D02*
X208500000Y-83402759D01*
X205097241Y-80000000D02*
X204250000Y-80000000D01*
X230000000Y-83650000D02*
X230000000Y-78240002D01*
X230000000Y-78240002D02*
X227379999Y-75620001D01*
D25*
X230000000Y-47000000D02*
X230000000Y-71500000D01*
X181000000Y-41000000D02*
X184000000Y-41000000D01*
X184000000Y-41000000D02*
X187500000Y-44500000D01*
X187500000Y-44500000D02*
X228702081Y-44500000D01*
X228702081Y-44500000D02*
X230000000Y-45797919D01*
X230000000Y-45797919D02*
X230000000Y-47000000D01*
X171500000Y-44000000D02*
X171000000Y-44500000D01*
X171000000Y-44500000D02*
X170000000Y-45500000D01*
X181000000Y-41000000D02*
X174500000Y-41000000D01*
X174500000Y-41000000D02*
X171000000Y-44500000D01*
D26*
X186500000Y-71000000D02*
X183500000Y-68000000D01*
X183500000Y-68000000D02*
X182500000Y-68000000D01*
X186300000Y-68000000D02*
X182500000Y-68000000D01*
X170000000Y-71500000D02*
X170000000Y-72702081D01*
X186220000Y-67920000D02*
X186300000Y-68000000D01*
X218261414Y-76470000D02*
X212000000Y-70208586D01*
X212000000Y-70208586D02*
X210541414Y-68750000D01*
X204700000Y-70250000D02*
X211958586Y-70250000D01*
X211958586Y-70250000D02*
X212000000Y-70208586D01*
X222740000Y-76470000D02*
X218261414Y-76470000D01*
X197500000Y-67725000D02*
X197150000Y-67725000D01*
X210541414Y-68750000D02*
X198525000Y-68750000D01*
X198525000Y-68750000D02*
X197500000Y-67725000D01*
X222740000Y-76470000D02*
X223589999Y-75620001D01*
X223589999Y-75620001D02*
X227379999Y-75620001D01*
X227379999Y-75620001D02*
X230000000Y-73000000D01*
X230000000Y-73000000D02*
X230000000Y-71500000D01*
D25*
X170000000Y-45500000D02*
X170000000Y-71500000D01*
D26*
X197150000Y-67725000D02*
X197950000Y-67725000D01*
X197950000Y-67725000D02*
X198842017Y-66832983D01*
X198842017Y-66832983D02*
X198842017Y-58175368D01*
X198842017Y-58175368D02*
X194532756Y-53866107D01*
X194532756Y-53866107D02*
X194532756Y-51717244D01*
X194532756Y-51717244D02*
X194890000Y-51360000D01*
X194890000Y-51360000D02*
X203115000Y-51360000D01*
X203115000Y-51360000D02*
X204000000Y-51360000D01*
X182500000Y-40500000D02*
X182500000Y-40000000D01*
X195750000Y-77600000D02*
X196791996Y-77600000D01*
X196791996Y-77600000D02*
X197154458Y-77962462D01*
X197154458Y-77962462D02*
X197154458Y-78845542D01*
X197154458Y-78845542D02*
X196800000Y-79200000D01*
X196800000Y-79200000D02*
X195750000Y-79200000D01*
X195750000Y-80800000D02*
X194700000Y-80800000D01*
X194700000Y-80800000D02*
X192206180Y-83293820D01*
X192206180Y-83293820D02*
X183178078Y-83293820D01*
X183178078Y-83293820D02*
X178721898Y-87750000D01*
X178721898Y-87750000D02*
X173782150Y-87750000D01*
X173782150Y-87750000D02*
X173750672Y-87781478D01*
X195750000Y-80000000D02*
X192000000Y-80000000D01*
X192000000Y-80000000D02*
X190750000Y-81250000D01*
X190750000Y-81250000D02*
X173942570Y-81250000D01*
X173942570Y-81250000D02*
X173923917Y-81268653D01*
X202850000Y-64475000D02*
X207975000Y-64475000D01*
X207975000Y-64475000D02*
X215000000Y-71500000D01*
X215000000Y-71500000D02*
X227460000Y-71500000D01*
X203150000Y-63825000D02*
X210325000Y-63825000D01*
X210325000Y-63825000D02*
X214500000Y-68000000D01*
X214500000Y-68000000D02*
X226360000Y-68000000D01*
X226360000Y-68000000D02*
X227460000Y-68000000D01*
X212089244Y-63175000D02*
X203650000Y-63175000D01*
X203650000Y-63175000D02*
X202850000Y-63175000D01*
X213414244Y-64500000D02*
X212089244Y-63175000D01*
X227460000Y-64500000D02*
X213414244Y-64500000D01*
X227460000Y-61000000D02*
X215800000Y-61000000D01*
X215800000Y-61000000D02*
X214275000Y-62525000D01*
X202850000Y-62525000D02*
X214275000Y-62525000D01*
X227460000Y-57500000D02*
X215500000Y-57500000D01*
X215500000Y-57500000D02*
X211125000Y-61875000D01*
X211125000Y-61875000D02*
X202850000Y-61875000D01*
X227460000Y-54000000D02*
X216750000Y-54000000D01*
X216750000Y-54000000D02*
X209525000Y-61225000D01*
X209525000Y-61225000D02*
X202850000Y-61225000D01*
X197150000Y-59275000D02*
X194275000Y-59275000D01*
X194275000Y-59275000D02*
X183000000Y-48000000D01*
X183000000Y-48000000D02*
X176916891Y-48000000D01*
X176916891Y-48000000D02*
X175916891Y-47000000D01*
X175916891Y-47000000D02*
X172540000Y-47000000D01*
X172540000Y-50500000D02*
X182636410Y-50500000D01*
X182636410Y-50500000D02*
X192061410Y-59925000D01*
X192061410Y-59925000D02*
X196350000Y-59925000D01*
X196350000Y-59925000D02*
X197150000Y-59925000D01*
X172540000Y-54000000D02*
X183000000Y-54000000D01*
X183000000Y-54000000D02*
X189575000Y-60575000D01*
X189575000Y-60575000D02*
X197150000Y-60575000D01*
X172540000Y-57500000D02*
X181500000Y-57500000D01*
X181500000Y-57500000D02*
X185225000Y-61225000D01*
X185225000Y-61225000D02*
X197150000Y-61225000D01*
X172540000Y-61000000D02*
X181000000Y-61000000D01*
X181000000Y-61000000D02*
X181875000Y-61875000D01*
X181875000Y-61875000D02*
X197150000Y-61875000D01*
X197150000Y-62525000D02*
X180475000Y-62525000D01*
X180475000Y-62525000D02*
X178500000Y-64500000D01*
X178500000Y-64500000D02*
X172540000Y-64500000D01*
X227460000Y-50500000D02*
X217250000Y-50500000D01*
X217250000Y-50500000D02*
X207175000Y-60575000D01*
X207175000Y-60575000D02*
X202850000Y-60575000D01*
X172540000Y-68000000D02*
X177000000Y-68000000D01*
X177000000Y-68000000D02*
X181825000Y-63175000D01*
X181825000Y-63175000D02*
X197150000Y-63175000D01*
X227460000Y-47000000D02*
X223841729Y-47000000D01*
X217250000Y-48000000D02*
X213750000Y-51500000D01*
X223841729Y-47000000D02*
X222841729Y-48000000D01*
X222841729Y-48000000D02*
X217250000Y-48000000D01*
X205325000Y-59925000D02*
X213750000Y-51500000D01*
X213750000Y-51500000D02*
X214022933Y-51227067D01*
X202850000Y-59925000D02*
X205325000Y-59925000D01*
X172540000Y-71500000D02*
X175500000Y-71500000D01*
X175500000Y-71500000D02*
X183175000Y-63825000D01*
X183175000Y-63825000D02*
X197150000Y-63825000D01*
X209800000Y-88000000D02*
X209800000Y-90900000D01*
X209800000Y-90900000D02*
X210150000Y-91250000D01*
X187500000Y-65500000D02*
X188750000Y-65500000D01*
X188750000Y-65500000D02*
X190250000Y-67000000D01*
X190250000Y-67000000D02*
X193000000Y-67000000D01*
X193000000Y-67000000D02*
X194875000Y-65125000D01*
X194875000Y-65125000D02*
X197150000Y-65125000D01*
X192000000Y-65500000D02*
X193500000Y-65500000D01*
X193500000Y-65500000D02*
X194525000Y-64475000D01*
X194525000Y-64475000D02*
X197150000Y-64475000D01*
X202850000Y-65125000D02*
X202050000Y-65125000D01*
X202050000Y-65125000D02*
X201709742Y-64784742D01*
X201709742Y-64784742D02*
X201709742Y-55665258D01*
X201709742Y-55665258D02*
X204000000Y-53375000D01*
X204000000Y-53375000D02*
X204000000Y-52640000D01*
X197200000Y-82250000D02*
X197200000Y-82300000D01*
X197200000Y-82300000D02*
X196500000Y-83000000D01*
X196500000Y-83000000D02*
X196500000Y-86500000D01*
X198000000Y-82250000D02*
X197900001Y-82349999D01*
X197900001Y-82349999D02*
X197900001Y-83390001D01*
X197900001Y-83390001D02*
X197347824Y-83942178D01*
X197347824Y-83942178D02*
X197347824Y-84847824D01*
X197347824Y-84847824D02*
X197500000Y-85000000D01*
X198800000Y-82250000D02*
X198800000Y-83700000D01*
X198500000Y-84000000D02*
X198500000Y-86500000D01*
X198800000Y-83700000D02*
X198500000Y-84000000D01*
X199600000Y-82250000D02*
X199600000Y-84900000D01*
X199600000Y-84900000D02*
X199500000Y-85000000D01*
X200400000Y-82250000D02*
X200499999Y-82349999D01*
X200499999Y-82349999D02*
X200499999Y-83390001D01*
X200499999Y-83390001D02*
X200528755Y-83418757D01*
X200528755Y-83418757D02*
X200528755Y-86471245D01*
X200528755Y-86471245D02*
X200500000Y-86500000D01*
X201200000Y-82250000D02*
X201200000Y-84700000D01*
X201200000Y-84700000D02*
X201500000Y-85000000D01*
X222740000Y-89170000D02*
X219670000Y-89170000D01*
X219670000Y-89170000D02*
X206500000Y-76000000D01*
X206500000Y-76000000D02*
X205300000Y-76000000D01*
X205300000Y-76000000D02*
X204250000Y-76000000D01*
X222740000Y-86630000D02*
X218630000Y-86630000D01*
X218630000Y-86630000D02*
X207200000Y-75200000D01*
X207200000Y-75200000D02*
X205300000Y-75200000D01*
X205300000Y-75200000D02*
X204250000Y-75200000D01*
X202800000Y-73750000D02*
X207250000Y-73750000D01*
X207250000Y-73750000D02*
X217590000Y-84090000D01*
X217590000Y-84090000D02*
X221537919Y-84090000D01*
X221537919Y-84090000D02*
X222740000Y-84090000D01*
X202000000Y-73750000D02*
X202000000Y-72700000D01*
X207500000Y-72500000D02*
X216550000Y-81550000D01*
X202000000Y-72700000D02*
X202200000Y-72500000D01*
X202200000Y-72500000D02*
X207500000Y-72500000D01*
X216550000Y-81550000D02*
X222740000Y-81550000D01*
X159850000Y-64000000D02*
X159850000Y-65000000D01*
X159850000Y-63000000D02*
X159850000Y-64000000D01*
X159850000Y-64000000D02*
X159930000Y-63920000D01*
X159930000Y-63920000D02*
X163000000Y-63920000D01*
X163000000Y-69000000D02*
X164225001Y-70225001D01*
X164225001Y-70225001D02*
X164225001Y-72725001D01*
X164225001Y-72725001D02*
X166700000Y-75200000D01*
X166700000Y-75200000D02*
X195750000Y-75200000D01*
X169650000Y-76500000D02*
X166650000Y-76500000D01*
X166650000Y-76500000D02*
X166500000Y-76650000D01*
X163000000Y-71540000D02*
X163000000Y-74050000D01*
X163000000Y-74050000D02*
X165600000Y-76650000D01*
X165600000Y-76650000D02*
X166500000Y-76650000D01*
X172350000Y-76500000D02*
X173350000Y-76500000D01*
X173350000Y-76500000D02*
X173850000Y-76000000D01*
X173850000Y-76000000D02*
X194700000Y-76000000D01*
X194700000Y-76000000D02*
X195750000Y-76000000D01*
D27*
G36*
X227280033Y-23553977D02*
X249174646Y-62781826D01*
X249317500Y-63500000D01*
X248878608Y-65706458D01*
X227333593Y-103410235D01*
X223647805Y-105873000D01*
X176352195Y-105873000D01*
X172666407Y-103410235D01*
X166940559Y-93390000D01*
X178936430Y-93390000D01*
X178936430Y-99760000D01*
X193063570Y-99760000D01*
X193063570Y-93390000D01*
X178936430Y-93390000D01*
X166940559Y-93390000D01*
X166309560Y-92285750D01*
X195365000Y-92285750D01*
X195365000Y-92676310D01*
X195461673Y-92909699D01*
X195640302Y-93088327D01*
X195873691Y-93185000D01*
X196614250Y-93185000D01*
X196773000Y-93026250D01*
X196773000Y-92127000D01*
X195523750Y-92127000D01*
X195365000Y-92285750D01*
X166309560Y-92285750D01*
X165759812Y-91323690D01*
X195365000Y-91323690D01*
X195365000Y-91714250D01*
X195523750Y-91873000D01*
X196773000Y-91873000D01*
X196773000Y-90973750D01*
X196614250Y-90815000D01*
X195873691Y-90815000D01*
X195640302Y-90911673D01*
X195461673Y-91090301D01*
X195365000Y-91323690D01*
X165759812Y-91323690D01*
X159080988Y-79635750D01*
X165215000Y-79635750D01*
X165215000Y-80226309D01*
X165311673Y-80459698D01*
X165490301Y-80638327D01*
X165723690Y-80735000D01*
X166214250Y-80735000D01*
X166373000Y-80576250D01*
X166373000Y-79477000D01*
X165373750Y-79477000D01*
X165215000Y-79635750D01*
X159080988Y-79635750D01*
X151121392Y-65706458D01*
X151037708Y-65285750D01*
X155765000Y-65285750D01*
X155765000Y-65776310D01*
X155861673Y-66009699D01*
X156040302Y-66188327D01*
X156273691Y-66285000D01*
X156864250Y-66285000D01*
X157023000Y-66126250D01*
X157023000Y-65127000D01*
X155923750Y-65127000D01*
X155765000Y-65285750D01*
X151037708Y-65285750D01*
X150682500Y-63500000D01*
X150825354Y-62781826D01*
X151066373Y-62350000D01*
X155752560Y-62350000D01*
X155752560Y-63650000D01*
X155796838Y-63885317D01*
X155863328Y-63988646D01*
X155861673Y-63990301D01*
X155765000Y-64223690D01*
X155765000Y-64714250D01*
X155923750Y-64873000D01*
X157023000Y-64873000D01*
X157023000Y-64853000D01*
X157277000Y-64853000D01*
X157277000Y-64873000D01*
X157297000Y-64873000D01*
X157297000Y-65127000D01*
X157277000Y-65127000D01*
X157277000Y-66126250D01*
X157435750Y-66285000D01*
X158026309Y-66285000D01*
X158259698Y-66188327D01*
X158438327Y-66009699D01*
X158494654Y-65873713D01*
X158496838Y-65885317D01*
X158635910Y-66101441D01*
X158848110Y-66246431D01*
X159100000Y-66297440D01*
X160600000Y-66297440D01*
X160835317Y-66253162D01*
X161051441Y-66114090D01*
X161196431Y-65901890D01*
X161247440Y-65650000D01*
X161247440Y-64680000D01*
X161502560Y-64680000D01*
X161502560Y-64770000D01*
X161546838Y-65005317D01*
X161685910Y-65221441D01*
X161898110Y-65366431D01*
X162006107Y-65388301D01*
X161728355Y-65693076D01*
X161558524Y-66103110D01*
X161679845Y-66333000D01*
X162873000Y-66333000D01*
X162873000Y-66313000D01*
X163127000Y-66313000D01*
X163127000Y-66333000D01*
X164320155Y-66333000D01*
X164441476Y-66103110D01*
X164271645Y-65693076D01*
X163995499Y-65390063D01*
X164085317Y-65373162D01*
X164301441Y-65234090D01*
X164446431Y-65021890D01*
X164497440Y-64770000D01*
X164497440Y-63072242D01*
X164740000Y-63314802D01*
X164740000Y-69665198D01*
X164441210Y-69366408D01*
X164514093Y-69000000D01*
X164401054Y-68431715D01*
X164079147Y-67949946D01*
X163738447Y-67722298D01*
X163881358Y-67655183D01*
X164271645Y-67226924D01*
X164441476Y-66816890D01*
X164320155Y-66587000D01*
X163127000Y-66587000D01*
X163127000Y-66607000D01*
X162873000Y-66607000D01*
X162873000Y-66587000D01*
X161679845Y-66587000D01*
X161558524Y-66816890D01*
X161728355Y-67226924D01*
X162118642Y-67655183D01*
X162261553Y-67722298D01*
X161920853Y-67949946D01*
X161598946Y-68431715D01*
X161485907Y-69000000D01*
X161598946Y-69568285D01*
X161920853Y-70050054D01*
X162250026Y-70270000D01*
X161920853Y-70489946D01*
X161598946Y-70971715D01*
X161485907Y-71540000D01*
X161598946Y-72108285D01*
X161920853Y-72590054D01*
X162240000Y-72803301D01*
X162240000Y-74050000D01*
X162297852Y-74340839D01*
X162462599Y-74587401D01*
X165062599Y-77187401D01*
X165202560Y-77280920D01*
X165202560Y-77400000D01*
X165246838Y-77635317D01*
X165385910Y-77851441D01*
X165598110Y-77996431D01*
X165631490Y-78003191D01*
X165490301Y-78061673D01*
X165311673Y-78240302D01*
X165215000Y-78473691D01*
X165215000Y-79064250D01*
X165373750Y-79223000D01*
X166373000Y-79223000D01*
X166373000Y-79203000D01*
X166627000Y-79203000D01*
X166627000Y-79223000D01*
X167626250Y-79223000D01*
X167785000Y-79064250D01*
X167785000Y-78473691D01*
X167688327Y-78240302D01*
X167509699Y-78061673D01*
X167373713Y-78005346D01*
X167385317Y-78003162D01*
X167601441Y-77864090D01*
X167746431Y-77651890D01*
X167797440Y-77400000D01*
X167797440Y-77260000D01*
X168273258Y-77260000D01*
X168296838Y-77385317D01*
X168435910Y-77601441D01*
X168648110Y-77746431D01*
X168900000Y-77797440D01*
X170400000Y-77797440D01*
X170635317Y-77753162D01*
X170851441Y-77614090D01*
X170996431Y-77401890D01*
X170999081Y-77388803D01*
X171135910Y-77601441D01*
X171348110Y-77746431D01*
X171600000Y-77797440D01*
X173100000Y-77797440D01*
X173335317Y-77753162D01*
X173551441Y-77614090D01*
X173696431Y-77401890D01*
X173747440Y-77150000D01*
X173747440Y-77130920D01*
X173887401Y-77037401D01*
X174164802Y-76760000D01*
X194535025Y-76760000D01*
X194593397Y-76799884D01*
X194498559Y-76860910D01*
X194409505Y-76991245D01*
X194315000Y-77085750D01*
X194315000Y-77201310D01*
X194323468Y-77221753D01*
X194302560Y-77325000D01*
X194302560Y-77875000D01*
X194322450Y-77980705D01*
X194315000Y-77998690D01*
X194315000Y-78114250D01*
X194411401Y-78210651D01*
X194485910Y-78326441D01*
X194593397Y-78399884D01*
X194531054Y-78440000D01*
X169300000Y-78440000D01*
X169009161Y-78497852D01*
X168762599Y-78662599D01*
X167962599Y-79462599D01*
X167797852Y-79709161D01*
X167785000Y-79773772D01*
X167785000Y-79635750D01*
X167626250Y-79477000D01*
X166627000Y-79477000D01*
X166627000Y-80576250D01*
X166785750Y-80735000D01*
X167276310Y-80735000D01*
X167509699Y-80638327D01*
X167688327Y-80459698D01*
X167740000Y-80334948D01*
X167740000Y-82000000D01*
X167797852Y-82290839D01*
X167962599Y-82537401D01*
X168962599Y-83537401D01*
X168965000Y-83539005D01*
X168965000Y-84214250D01*
X169123750Y-84373000D01*
X171873000Y-84373000D01*
X171873000Y-84353000D01*
X172127000Y-84353000D01*
X172127000Y-84373000D01*
X172147000Y-84373000D01*
X172147000Y-84627000D01*
X172127000Y-84627000D01*
X172127000Y-84647000D01*
X171873000Y-84647000D01*
X171873000Y-84627000D01*
X169123750Y-84627000D01*
X168965000Y-84785750D01*
X168965000Y-85501309D01*
X169049248Y-85704700D01*
X168962599Y-85762597D01*
X167962599Y-86762597D01*
X167797852Y-87009159D01*
X167740000Y-87299998D01*
X167740000Y-89000000D01*
X167797852Y-89290839D01*
X167962599Y-89537401D01*
X168962599Y-90537401D01*
X169209161Y-90702148D01*
X169500000Y-90760000D01*
X197185198Y-90760000D01*
X197240198Y-90815000D01*
X197185750Y-90815000D01*
X197027000Y-90973750D01*
X197027000Y-91873000D01*
X197047000Y-91873000D01*
X197047000Y-92127000D01*
X197027000Y-92127000D01*
X197027000Y-93026250D01*
X197185750Y-93185000D01*
X197926309Y-93185000D01*
X197941142Y-93178856D01*
X195462599Y-95657399D01*
X195297852Y-95903961D01*
X195240000Y-96194800D01*
X195240000Y-100000000D01*
X195297852Y-100290839D01*
X195462599Y-100537401D01*
X195652600Y-100727402D01*
X195899162Y-100892149D01*
X196190001Y-100950001D01*
X196439158Y-100950001D01*
X196435000Y-100970907D01*
X196435000Y-101029093D01*
X196548039Y-101597378D01*
X196869946Y-102079147D01*
X197351715Y-102401054D01*
X197920000Y-102514093D01*
X198488285Y-102401054D01*
X198970054Y-102079147D01*
X199197702Y-101738447D01*
X199264817Y-101881358D01*
X199693076Y-102271645D01*
X200103110Y-102441476D01*
X200333000Y-102320155D01*
X200333000Y-101127000D01*
X200587000Y-101127000D01*
X200587000Y-102320155D01*
X200816890Y-102441476D01*
X201226924Y-102271645D01*
X201655183Y-101881358D01*
X201730000Y-101722046D01*
X201804817Y-101881358D01*
X202233076Y-102271645D01*
X202643110Y-102441476D01*
X202873000Y-102320155D01*
X202873000Y-101127000D01*
X203127000Y-101127000D01*
X203127000Y-102320155D01*
X203356890Y-102441476D01*
X203766924Y-102271645D01*
X204195183Y-101881358D01*
X204270000Y-101722046D01*
X204344817Y-101881358D01*
X204773076Y-102271645D01*
X205183110Y-102441476D01*
X205413000Y-102320155D01*
X205413000Y-101127000D01*
X203127000Y-101127000D01*
X202873000Y-101127000D01*
X200587000Y-101127000D01*
X200333000Y-101127000D01*
X200313000Y-101127000D01*
X200313000Y-100873000D01*
X200333000Y-100873000D01*
X200333000Y-100853000D01*
X200587000Y-100853000D01*
X200587000Y-100873000D01*
X202873000Y-100873000D01*
X202873000Y-100853000D01*
X203127000Y-100853000D01*
X203127000Y-100873000D01*
X205413000Y-100873000D01*
X205413000Y-100853000D01*
X205667000Y-100853000D01*
X205667000Y-100873000D01*
X205687000Y-100873000D01*
X205687000Y-101127000D01*
X205667000Y-101127000D01*
X205667000Y-102320155D01*
X205896890Y-102441476D01*
X206252088Y-102294357D01*
X206317598Y-102392400D01*
X206962599Y-103037401D01*
X207209161Y-103202148D01*
X207500000Y-103260000D01*
X209654654Y-103260000D01*
X209945493Y-103202148D01*
X210192055Y-103037401D01*
X212037401Y-101192055D01*
X212202148Y-100945494D01*
X212260000Y-100654654D01*
X212260000Y-95500000D01*
X212202148Y-95209161D01*
X212037401Y-94962599D01*
X209622242Y-92547440D01*
X210900000Y-92547440D01*
X211135317Y-92503162D01*
X211351441Y-92364090D01*
X211496431Y-92151890D01*
X211503191Y-92118510D01*
X211561673Y-92259699D01*
X211740302Y-92438327D01*
X211973691Y-92535000D01*
X212564250Y-92535000D01*
X212723000Y-92376250D01*
X212723000Y-91377000D01*
X212977000Y-91377000D01*
X212977000Y-92376250D01*
X213135750Y-92535000D01*
X213726309Y-92535000D01*
X213959698Y-92438327D01*
X214138327Y-92259699D01*
X214235000Y-92026310D01*
X214235000Y-91535750D01*
X214076250Y-91377000D01*
X212977000Y-91377000D01*
X212723000Y-91377000D01*
X212703000Y-91377000D01*
X212703000Y-91123000D01*
X212723000Y-91123000D01*
X212723000Y-90123750D01*
X212977000Y-90123750D01*
X212977000Y-91123000D01*
X214076250Y-91123000D01*
X214235000Y-90964250D01*
X214235000Y-90473690D01*
X214138327Y-90240301D01*
X213959698Y-90061673D01*
X213726309Y-89965000D01*
X213135750Y-89965000D01*
X212977000Y-90123750D01*
X212723000Y-90123750D01*
X212564250Y-89965000D01*
X211973691Y-89965000D01*
X211740302Y-90061673D01*
X211561673Y-90240301D01*
X211505346Y-90376287D01*
X211503162Y-90364683D01*
X211364090Y-90148559D01*
X211151890Y-90003569D01*
X210900000Y-89952560D01*
X210560000Y-89952560D01*
X210560000Y-89295558D01*
X210785317Y-89253162D01*
X211001441Y-89114090D01*
X211146431Y-88901890D01*
X211197440Y-88650000D01*
X211197440Y-87350000D01*
X211153162Y-87114683D01*
X211014090Y-86898559D01*
X210801890Y-86753569D01*
X210550000Y-86702560D01*
X209260000Y-86702560D01*
X209260000Y-84084802D01*
X219962599Y-94787401D01*
X220209161Y-94952148D01*
X220500000Y-95010000D01*
X221242560Y-95010000D01*
X221242560Y-95100000D01*
X221286838Y-95335317D01*
X221425910Y-95551441D01*
X221638110Y-95696431D01*
X221890000Y-95747440D01*
X223590000Y-95747440D01*
X223825317Y-95703162D01*
X224041441Y-95564090D01*
X224186431Y-95351890D01*
X224237440Y-95100000D01*
X224237440Y-93400000D01*
X224193162Y-93164683D01*
X224054090Y-92948559D01*
X223841890Y-92803569D01*
X223774459Y-92789914D01*
X223819147Y-92760054D01*
X224141054Y-92278285D01*
X224254093Y-91710000D01*
X224141054Y-91141715D01*
X223819147Y-90659946D01*
X223489974Y-90440000D01*
X223819147Y-90220054D01*
X224141054Y-89738285D01*
X224254093Y-89170000D01*
X224141054Y-88601715D01*
X223819147Y-88119946D01*
X223489974Y-87900000D01*
X223819147Y-87680054D01*
X224141054Y-87198285D01*
X224254093Y-86630000D01*
X224141054Y-86061715D01*
X223819147Y-85579946D01*
X223489974Y-85360000D01*
X223819147Y-85140054D01*
X224141054Y-84658285D01*
X224254093Y-84090000D01*
X224141054Y-83521715D01*
X223819147Y-83039946D01*
X223489974Y-82820000D01*
X223559280Y-82773691D01*
X226215000Y-82773691D01*
X226215000Y-83364250D01*
X226373750Y-83523000D01*
X227373000Y-83523000D01*
X227373000Y-82423750D01*
X227214250Y-82265000D01*
X226723690Y-82265000D01*
X226490301Y-82361673D01*
X226311673Y-82540302D01*
X226215000Y-82773691D01*
X223559280Y-82773691D01*
X223819147Y-82600054D01*
X224141054Y-82118285D01*
X224254093Y-81550000D01*
X224141054Y-80981715D01*
X223819147Y-80499946D01*
X223478447Y-80272298D01*
X223621358Y-80205183D01*
X224011645Y-79776924D01*
X224181476Y-79366890D01*
X224060155Y-79137000D01*
X222867000Y-79137000D01*
X222867000Y-79157000D01*
X222613000Y-79157000D01*
X222613000Y-79137000D01*
X221419845Y-79137000D01*
X221298524Y-79366890D01*
X221468355Y-79776924D01*
X221858642Y-80205183D01*
X222001553Y-80272298D01*
X221660853Y-80499946D01*
X221467046Y-80790000D01*
X216864802Y-80790000D01*
X208037401Y-71962599D01*
X207790839Y-71797852D01*
X207500000Y-71740000D01*
X202760000Y-71740000D01*
X202760000Y-71545558D01*
X202985317Y-71503162D01*
X203201441Y-71364090D01*
X203346431Y-71151890D01*
X203349081Y-71138803D01*
X203485910Y-71351441D01*
X203698110Y-71496431D01*
X203950000Y-71547440D01*
X205450000Y-71547440D01*
X205685317Y-71503162D01*
X205901441Y-71364090D01*
X206046431Y-71151890D01*
X206075164Y-71010000D01*
X211726612Y-71010000D01*
X217724013Y-77007401D01*
X217970575Y-77172148D01*
X218261414Y-77230000D01*
X221467046Y-77230000D01*
X221660853Y-77520054D01*
X222001553Y-77747702D01*
X221858642Y-77814817D01*
X221468355Y-78243076D01*
X221298524Y-78653110D01*
X221419845Y-78883000D01*
X222613000Y-78883000D01*
X222613000Y-78863000D01*
X222867000Y-78863000D01*
X222867000Y-78883000D01*
X224060155Y-78883000D01*
X224181476Y-78653110D01*
X224011645Y-78243076D01*
X223621358Y-77814817D01*
X223478447Y-77747702D01*
X223819147Y-77520054D01*
X224141054Y-77038285D01*
X224254093Y-76470000D01*
X224236191Y-76380001D01*
X227065197Y-76380001D01*
X229240000Y-78554804D01*
X229240000Y-82273258D01*
X229114683Y-82296838D01*
X228898559Y-82435910D01*
X228753569Y-82648110D01*
X228746809Y-82681491D01*
X228688327Y-82540302D01*
X228509699Y-82361673D01*
X228276310Y-82265000D01*
X227785750Y-82265000D01*
X227627000Y-82423750D01*
X227627000Y-83523000D01*
X227647000Y-83523000D01*
X227647000Y-83777000D01*
X227627000Y-83777000D01*
X227627000Y-83797000D01*
X227373000Y-83797000D01*
X227373000Y-83777000D01*
X226373750Y-83777000D01*
X226215000Y-83935750D01*
X226215000Y-84526309D01*
X226311673Y-84759698D01*
X226490301Y-84938327D01*
X226626287Y-84994654D01*
X226614683Y-84996838D01*
X226398559Y-85135910D01*
X226253569Y-85348110D01*
X226202560Y-85600000D01*
X226202560Y-87100000D01*
X226246838Y-87335317D01*
X226385910Y-87551441D01*
X226598110Y-87696431D01*
X226850000Y-87747440D01*
X228150000Y-87747440D01*
X228385317Y-87703162D01*
X228601441Y-87564090D01*
X228746431Y-87351890D01*
X228749081Y-87338803D01*
X228885910Y-87551441D01*
X229098110Y-87696431D01*
X229350000Y-87747440D01*
X230650000Y-87747440D01*
X230885317Y-87703162D01*
X231101441Y-87564090D01*
X231246431Y-87351890D01*
X231297440Y-87100000D01*
X231297440Y-85600000D01*
X231253162Y-85364683D01*
X231114090Y-85148559D01*
X230901890Y-85003569D01*
X230888803Y-85000919D01*
X231101441Y-84864090D01*
X231246431Y-84651890D01*
X231297440Y-84400000D01*
X231297440Y-82900000D01*
X231253162Y-82664683D01*
X231114090Y-82448559D01*
X230901890Y-82303569D01*
X230760000Y-82274836D01*
X230760000Y-78240002D01*
X230702148Y-77949163D01*
X230537401Y-77702601D01*
X228454801Y-75620001D01*
X230537401Y-73537401D01*
X230702148Y-73290839D01*
X230760000Y-73000000D01*
X230760000Y-72772954D01*
X231050054Y-72579147D01*
X231277702Y-72238447D01*
X231344817Y-72381358D01*
X231773076Y-72771645D01*
X232183110Y-72941476D01*
X232413000Y-72820155D01*
X232413000Y-71627000D01*
X232667000Y-71627000D01*
X232667000Y-72820155D01*
X232896890Y-72941476D01*
X233306924Y-72771645D01*
X233735183Y-72381358D01*
X233981486Y-71856892D01*
X233860819Y-71627000D01*
X232667000Y-71627000D01*
X232413000Y-71627000D01*
X232393000Y-71627000D01*
X232393000Y-71373000D01*
X232413000Y-71373000D01*
X232413000Y-70179845D01*
X232667000Y-70179845D01*
X232667000Y-71373000D01*
X233860819Y-71373000D01*
X233981486Y-71143108D01*
X233735183Y-70618642D01*
X233306924Y-70228355D01*
X232896890Y-70058524D01*
X232667000Y-70179845D01*
X232413000Y-70179845D01*
X232183110Y-70058524D01*
X231773076Y-70228355D01*
X231344817Y-70618642D01*
X231277702Y-70761553D01*
X231135000Y-70547984D01*
X231135000Y-68952016D01*
X231277702Y-68738447D01*
X231344817Y-68881358D01*
X231773076Y-69271645D01*
X232183110Y-69441476D01*
X232413000Y-69320155D01*
X232413000Y-68127000D01*
X232667000Y-68127000D01*
X232667000Y-69320155D01*
X232896890Y-69441476D01*
X233306924Y-69271645D01*
X233735183Y-68881358D01*
X233981486Y-68356892D01*
X233860819Y-68127000D01*
X232667000Y-68127000D01*
X232413000Y-68127000D01*
X232393000Y-68127000D01*
X232393000Y-67873000D01*
X232413000Y-67873000D01*
X232413000Y-66679845D01*
X232667000Y-66679845D01*
X232667000Y-67873000D01*
X233860819Y-67873000D01*
X233981486Y-67643108D01*
X233735183Y-67118642D01*
X233306924Y-66728355D01*
X232896890Y-66558524D01*
X232667000Y-66679845D01*
X232413000Y-66679845D01*
X232183110Y-66558524D01*
X231773076Y-66728355D01*
X231344817Y-67118642D01*
X231277702Y-67261553D01*
X231135000Y-67047984D01*
X231135000Y-65452016D01*
X231277702Y-65238447D01*
X231344817Y-65381358D01*
X231773076Y-65771645D01*
X232183110Y-65941476D01*
X232413000Y-65820155D01*
X232413000Y-64627000D01*
X232667000Y-64627000D01*
X232667000Y-65820155D01*
X232896890Y-65941476D01*
X233306924Y-65771645D01*
X233735183Y-65381358D01*
X233981486Y-64856892D01*
X233860819Y-64627000D01*
X232667000Y-64627000D01*
X232413000Y-64627000D01*
X232393000Y-64627000D01*
X232393000Y-64373000D01*
X232413000Y-64373000D01*
X232413000Y-63179845D01*
X232667000Y-63179845D01*
X232667000Y-64373000D01*
X233860819Y-64373000D01*
X233981486Y-64143108D01*
X233735183Y-63618642D01*
X233306924Y-63228355D01*
X232896890Y-63058524D01*
X232667000Y-63179845D01*
X232413000Y-63179845D01*
X232183110Y-63058524D01*
X231773076Y-63228355D01*
X231344817Y-63618642D01*
X231277702Y-63761553D01*
X231135000Y-63547984D01*
X231135000Y-61952016D01*
X231277702Y-61738447D01*
X231344817Y-61881358D01*
X231773076Y-62271645D01*
X232183110Y-62441476D01*
X232413000Y-62320155D01*
X232413000Y-61127000D01*
X232667000Y-61127000D01*
X232667000Y-62320155D01*
X232896890Y-62441476D01*
X233306924Y-62271645D01*
X233735183Y-61881358D01*
X233981486Y-61356892D01*
X233860819Y-61127000D01*
X232667000Y-61127000D01*
X232413000Y-61127000D01*
X232393000Y-61127000D01*
X232393000Y-60873000D01*
X232413000Y-60873000D01*
X232413000Y-59679845D01*
X232667000Y-59679845D01*
X232667000Y-60873000D01*
X233860819Y-60873000D01*
X233981486Y-60643108D01*
X233735183Y-60118642D01*
X233306924Y-59728355D01*
X232896890Y-59558524D01*
X232667000Y-59679845D01*
X232413000Y-59679845D01*
X232183110Y-59558524D01*
X231773076Y-59728355D01*
X231344817Y-60118642D01*
X231277702Y-60261553D01*
X231135000Y-60047984D01*
X231135000Y-58452016D01*
X231277702Y-58238447D01*
X231344817Y-58381358D01*
X231773076Y-58771645D01*
X232183110Y-58941476D01*
X232413000Y-58820155D01*
X232413000Y-57627000D01*
X232667000Y-57627000D01*
X232667000Y-58820155D01*
X232896890Y-58941476D01*
X233306924Y-58771645D01*
X233735183Y-58381358D01*
X233981486Y-57856892D01*
X233860819Y-57627000D01*
X232667000Y-57627000D01*
X232413000Y-57627000D01*
X232393000Y-57627000D01*
X232393000Y-57373000D01*
X232413000Y-57373000D01*
X232413000Y-56179845D01*
X232667000Y-56179845D01*
X232667000Y-57373000D01*
X233860819Y-57373000D01*
X233981486Y-57143108D01*
X233735183Y-56618642D01*
X233306924Y-56228355D01*
X232896890Y-56058524D01*
X232667000Y-56179845D01*
X232413000Y-56179845D01*
X232183110Y-56058524D01*
X231773076Y-56228355D01*
X231344817Y-56618642D01*
X231277702Y-56761553D01*
X231135000Y-56547984D01*
X231135000Y-54952016D01*
X231277702Y-54738447D01*
X231344817Y-54881358D01*
X231773076Y-55271645D01*
X232183110Y-55441476D01*
X232413000Y-55320155D01*
X232413000Y-54127000D01*
X232667000Y-54127000D01*
X232667000Y-55320155D01*
X232896890Y-55441476D01*
X233253986Y-55293571D01*
X237740000Y-55293571D01*
X237740000Y-71706429D01*
X244110000Y-71706429D01*
X244110000Y-55293571D01*
X237740000Y-55293571D01*
X233253986Y-55293571D01*
X233306924Y-55271645D01*
X233735183Y-54881358D01*
X233981486Y-54356892D01*
X233860819Y-54127000D01*
X232667000Y-54127000D01*
X232413000Y-54127000D01*
X232393000Y-54127000D01*
X232393000Y-53873000D01*
X232413000Y-53873000D01*
X232413000Y-52679845D01*
X232667000Y-52679845D01*
X232667000Y-53873000D01*
X233860819Y-53873000D01*
X233981486Y-53643108D01*
X233735183Y-53118642D01*
X233306924Y-52728355D01*
X232896890Y-52558524D01*
X232667000Y-52679845D01*
X232413000Y-52679845D01*
X232183110Y-52558524D01*
X231773076Y-52728355D01*
X231344817Y-53118642D01*
X231277702Y-53261553D01*
X231135000Y-53047984D01*
X231135000Y-51452016D01*
X231277702Y-51238447D01*
X231344817Y-51381358D01*
X231773076Y-51771645D01*
X232183110Y-51941476D01*
X232413000Y-51820155D01*
X232413000Y-50627000D01*
X232667000Y-50627000D01*
X232667000Y-51820155D01*
X232896890Y-51941476D01*
X233306924Y-51771645D01*
X233735183Y-51381358D01*
X233981486Y-50856892D01*
X233860819Y-50627000D01*
X232667000Y-50627000D01*
X232413000Y-50627000D01*
X232393000Y-50627000D01*
X232393000Y-50373000D01*
X232413000Y-50373000D01*
X232413000Y-49179845D01*
X232667000Y-49179845D01*
X232667000Y-50373000D01*
X233860819Y-50373000D01*
X233981486Y-50143108D01*
X233735183Y-49618642D01*
X233306924Y-49228355D01*
X232896890Y-49058524D01*
X232667000Y-49179845D01*
X232413000Y-49179845D01*
X232183110Y-49058524D01*
X231773076Y-49228355D01*
X231344817Y-49618642D01*
X231277702Y-49761553D01*
X231135000Y-49547984D01*
X231135000Y-47952016D01*
X231277702Y-47738447D01*
X231344817Y-47881358D01*
X231773076Y-48271645D01*
X232183110Y-48441476D01*
X232413000Y-48320155D01*
X232413000Y-47127000D01*
X232667000Y-47127000D01*
X232667000Y-48320155D01*
X232896890Y-48441476D01*
X233306924Y-48271645D01*
X233735183Y-47881358D01*
X233981486Y-47356892D01*
X233860819Y-47127000D01*
X232667000Y-47127000D01*
X232413000Y-47127000D01*
X232393000Y-47127000D01*
X232393000Y-46873000D01*
X232413000Y-46873000D01*
X232413000Y-45679845D01*
X232667000Y-45679845D01*
X232667000Y-46873000D01*
X233860819Y-46873000D01*
X233981486Y-46643108D01*
X233735183Y-46118642D01*
X233306924Y-45728355D01*
X232896890Y-45558524D01*
X232667000Y-45679845D01*
X232413000Y-45679845D01*
X232183110Y-45558524D01*
X231773076Y-45728355D01*
X231344817Y-46118642D01*
X231277702Y-46261553D01*
X231135000Y-46047984D01*
X231135000Y-45797919D01*
X231111514Y-45679845D01*
X231048604Y-45363574D01*
X230802566Y-44995353D01*
X229504647Y-43697434D01*
X229353485Y-43596431D01*
X229136427Y-43451397D01*
X228702081Y-43365000D01*
X221519146Y-43365000D01*
X221596431Y-43251890D01*
X221647440Y-43000000D01*
X221647440Y-39000000D01*
X221603162Y-38764683D01*
X221464090Y-38548559D01*
X221251890Y-38403569D01*
X221000000Y-38352560D01*
X217000000Y-38352560D01*
X216764683Y-38396838D01*
X216548559Y-38535910D01*
X216403569Y-38748110D01*
X216352560Y-39000000D01*
X216352560Y-43000000D01*
X216396838Y-43235317D01*
X216480287Y-43365000D01*
X187970133Y-43365000D01*
X184802566Y-40197434D01*
X184507085Y-40000000D01*
X184434346Y-39951397D01*
X184000000Y-39865000D01*
X183647440Y-39865000D01*
X183647440Y-39000000D01*
X183603162Y-38764683D01*
X183464090Y-38548559D01*
X183251890Y-38403569D01*
X183000000Y-38352560D01*
X179000000Y-38352560D01*
X178764683Y-38396838D01*
X178548559Y-38535910D01*
X178403569Y-38748110D01*
X178352560Y-39000000D01*
X178352560Y-39865000D01*
X174500000Y-39865000D01*
X174065654Y-39951397D01*
X173697433Y-40197434D01*
X170197437Y-43697431D01*
X170197434Y-43697433D01*
X169197434Y-44697434D01*
X168951397Y-45065654D01*
X168865000Y-45500000D01*
X168865000Y-46047984D01*
X168722298Y-46261553D01*
X168655183Y-46118642D01*
X168226924Y-45728355D01*
X167816890Y-45558524D01*
X167587000Y-45679845D01*
X167587000Y-46873000D01*
X167607000Y-46873000D01*
X167607000Y-47127000D01*
X167587000Y-47127000D01*
X167587000Y-48320155D01*
X167816890Y-48441476D01*
X168226924Y-48271645D01*
X168655183Y-47881358D01*
X168722298Y-47738447D01*
X168865000Y-47952016D01*
X168865000Y-49547984D01*
X168722298Y-49761553D01*
X168655183Y-49618642D01*
X168226924Y-49228355D01*
X167816890Y-49058524D01*
X167587000Y-49179845D01*
X167587000Y-50373000D01*
X167607000Y-50373000D01*
X167607000Y-50627000D01*
X167587000Y-50627000D01*
X167587000Y-51820155D01*
X167816890Y-51941476D01*
X168226924Y-51771645D01*
X168655183Y-51381358D01*
X168722298Y-51238447D01*
X168865000Y-51452016D01*
X168865000Y-53047984D01*
X168722298Y-53261553D01*
X168655183Y-53118642D01*
X168226924Y-52728355D01*
X167816890Y-52558524D01*
X167587000Y-52679845D01*
X167587000Y-53873000D01*
X167607000Y-53873000D01*
X167607000Y-54127000D01*
X167587000Y-54127000D01*
X167587000Y-55320155D01*
X167816890Y-55441476D01*
X168226924Y-55271645D01*
X168655183Y-54881358D01*
X168722298Y-54738447D01*
X168865000Y-54952016D01*
X168865000Y-56547984D01*
X168722298Y-56761553D01*
X168655183Y-56618642D01*
X168226924Y-56228355D01*
X167816890Y-56058524D01*
X167587000Y-56179845D01*
X167587000Y-57373000D01*
X167607000Y-57373000D01*
X167607000Y-57627000D01*
X167587000Y-57627000D01*
X167587000Y-58820155D01*
X167816890Y-58941476D01*
X168226924Y-58771645D01*
X168655183Y-58381358D01*
X168722298Y-58238447D01*
X168865000Y-58452016D01*
X168865000Y-60047984D01*
X168722298Y-60261553D01*
X168655183Y-60118642D01*
X168226924Y-59728355D01*
X167816890Y-59558524D01*
X167587000Y-59679845D01*
X167587000Y-60873000D01*
X167607000Y-60873000D01*
X167607000Y-61127000D01*
X167587000Y-61127000D01*
X167587000Y-62320155D01*
X167816890Y-62441476D01*
X168226924Y-62271645D01*
X168655183Y-61881358D01*
X168722298Y-61738447D01*
X168865000Y-61952016D01*
X168865000Y-63547984D01*
X168722298Y-63761553D01*
X168655183Y-63618642D01*
X168226924Y-63228355D01*
X167816890Y-63058524D01*
X167587000Y-63179845D01*
X167587000Y-64373000D01*
X167607000Y-64373000D01*
X167607000Y-64627000D01*
X167587000Y-64627000D01*
X167587000Y-65820155D01*
X167816890Y-65941476D01*
X168226924Y-65771645D01*
X168655183Y-65381358D01*
X168722298Y-65238447D01*
X168865000Y-65452016D01*
X168865000Y-67047984D01*
X168722298Y-67261553D01*
X168655183Y-67118642D01*
X168226924Y-66728355D01*
X167816890Y-66558524D01*
X167587000Y-66679845D01*
X167587000Y-67873000D01*
X167607000Y-67873000D01*
X167607000Y-68127000D01*
X167587000Y-68127000D01*
X167587000Y-69320155D01*
X167816890Y-69441476D01*
X168226924Y-69271645D01*
X168655183Y-68881358D01*
X168722298Y-68738447D01*
X168865000Y-68952016D01*
X168865000Y-70547984D01*
X168722298Y-70761553D01*
X168655183Y-70618642D01*
X168226924Y-70228355D01*
X167816890Y-70058524D01*
X167587000Y-70179845D01*
X167587000Y-71373000D01*
X167607000Y-71373000D01*
X167607000Y-71627000D01*
X167587000Y-71627000D01*
X167587000Y-71647000D01*
X167333000Y-71647000D01*
X167333000Y-71627000D01*
X167313000Y-71627000D01*
X167313000Y-71373000D01*
X167333000Y-71373000D01*
X167333000Y-70179845D01*
X167103110Y-70058524D01*
X166693076Y-70228355D01*
X166264817Y-70618642D01*
X166260000Y-70628899D01*
X166260000Y-68871101D01*
X166264817Y-68881358D01*
X166693076Y-69271645D01*
X167103110Y-69441476D01*
X167333000Y-69320155D01*
X167333000Y-68127000D01*
X167313000Y-68127000D01*
X167313000Y-67873000D01*
X167333000Y-67873000D01*
X167333000Y-66679845D01*
X167103110Y-66558524D01*
X166693076Y-66728355D01*
X166264817Y-67118642D01*
X166260000Y-67128899D01*
X166260000Y-65371101D01*
X166264817Y-65381358D01*
X166693076Y-65771645D01*
X167103110Y-65941476D01*
X167333000Y-65820155D01*
X167333000Y-64627000D01*
X167313000Y-64627000D01*
X167313000Y-64373000D01*
X167333000Y-64373000D01*
X167333000Y-63179845D01*
X167103110Y-63058524D01*
X166693076Y-63228355D01*
X166264817Y-63618642D01*
X166260000Y-63628899D01*
X166260000Y-63000000D01*
X166255027Y-62975000D01*
X166202148Y-62709160D01*
X166037401Y-62462599D01*
X164931694Y-61356892D01*
X166018514Y-61356892D01*
X166264817Y-61881358D01*
X166693076Y-62271645D01*
X167103110Y-62441476D01*
X167333000Y-62320155D01*
X167333000Y-61127000D01*
X166139181Y-61127000D01*
X166018514Y-61356892D01*
X164931694Y-61356892D01*
X164537401Y-60962599D01*
X164290839Y-60797852D01*
X164000000Y-60740000D01*
X158750000Y-60740000D01*
X158459160Y-60797852D01*
X158212599Y-60962599D01*
X157472638Y-61702560D01*
X156400000Y-61702560D01*
X156164683Y-61746838D01*
X155948559Y-61885910D01*
X155803569Y-62098110D01*
X155752560Y-62350000D01*
X151066373Y-62350000D01*
X152019056Y-60643108D01*
X166018514Y-60643108D01*
X166139181Y-60873000D01*
X167333000Y-60873000D01*
X167333000Y-59679845D01*
X167103110Y-59558524D01*
X166693076Y-59728355D01*
X166264817Y-60118642D01*
X166018514Y-60643108D01*
X152019056Y-60643108D01*
X153574153Y-57856892D01*
X166018514Y-57856892D01*
X166264817Y-58381358D01*
X166693076Y-58771645D01*
X167103110Y-58941476D01*
X167333000Y-58820155D01*
X167333000Y-57627000D01*
X166139181Y-57627000D01*
X166018514Y-57856892D01*
X153574153Y-57856892D01*
X153972544Y-57143108D01*
X166018514Y-57143108D01*
X166139181Y-57373000D01*
X167333000Y-57373000D01*
X167333000Y-56179845D01*
X167103110Y-56058524D01*
X166693076Y-56228355D01*
X166264817Y-56618642D01*
X166018514Y-57143108D01*
X153972544Y-57143108D01*
X155527641Y-54356892D01*
X166018514Y-54356892D01*
X166264817Y-54881358D01*
X166693076Y-55271645D01*
X167103110Y-55441476D01*
X167333000Y-55320155D01*
X167333000Y-54127000D01*
X166139181Y-54127000D01*
X166018514Y-54356892D01*
X155527641Y-54356892D01*
X155926032Y-53643108D01*
X166018514Y-53643108D01*
X166139181Y-53873000D01*
X167333000Y-53873000D01*
X167333000Y-52679845D01*
X167103110Y-52558524D01*
X166693076Y-52728355D01*
X166264817Y-53118642D01*
X166018514Y-53643108D01*
X155926032Y-53643108D01*
X157481129Y-50856892D01*
X166018514Y-50856892D01*
X166264817Y-51381358D01*
X166693076Y-51771645D01*
X167103110Y-51941476D01*
X167333000Y-51820155D01*
X167333000Y-50627000D01*
X166139181Y-50627000D01*
X166018514Y-50856892D01*
X157481129Y-50856892D01*
X157879520Y-50143108D01*
X166018514Y-50143108D01*
X166139181Y-50373000D01*
X167333000Y-50373000D01*
X167333000Y-49179845D01*
X167103110Y-49058524D01*
X166693076Y-49228355D01*
X166264817Y-49618642D01*
X166018514Y-50143108D01*
X157879520Y-50143108D01*
X159434617Y-47356892D01*
X166018514Y-47356892D01*
X166264817Y-47881358D01*
X166693076Y-48271645D01*
X167103110Y-48441476D01*
X167333000Y-48320155D01*
X167333000Y-47127000D01*
X166139181Y-47127000D01*
X166018514Y-47356892D01*
X159434617Y-47356892D01*
X159833008Y-46643108D01*
X166018514Y-46643108D01*
X166139181Y-46873000D01*
X167333000Y-46873000D01*
X167333000Y-45679845D01*
X167103110Y-45558524D01*
X166693076Y-45728355D01*
X166264817Y-46118642D01*
X166018514Y-46643108D01*
X159833008Y-46643108D01*
X169401255Y-29500000D01*
X194865000Y-29500000D01*
X194951397Y-29934345D01*
X195197434Y-30302566D01*
X196865000Y-31970132D01*
X196865000Y-35500000D01*
X196951397Y-35934346D01*
X197197434Y-36302566D01*
X197565654Y-36548603D01*
X198000000Y-36635000D01*
X198434346Y-36548603D01*
X198802566Y-36302566D01*
X199000000Y-36007085D01*
X199197434Y-36302566D01*
X199565654Y-36548603D01*
X200000000Y-36635000D01*
X200434346Y-36548603D01*
X200802566Y-36302566D01*
X201048603Y-35934346D01*
X201135000Y-35500000D01*
X201135000Y-34209127D01*
X201197434Y-34302566D01*
X203197434Y-36302566D01*
X203565655Y-36548603D01*
X204000000Y-36635000D01*
X204434345Y-36548603D01*
X204802566Y-36302566D01*
X205048603Y-35934345D01*
X205135000Y-35500000D01*
X205048603Y-35065655D01*
X204802566Y-34697434D01*
X203135000Y-33029868D01*
X203135000Y-29500000D01*
X203048603Y-29065654D01*
X202802566Y-28697434D01*
X202434346Y-28451397D01*
X202000000Y-28365000D01*
X201565654Y-28451397D01*
X201197434Y-28697434D01*
X201000000Y-28992915D01*
X200802566Y-28697434D01*
X200434346Y-28451397D01*
X200000000Y-28365000D01*
X199565654Y-28451397D01*
X199197434Y-28697434D01*
X198951397Y-29065654D01*
X198865000Y-29500000D01*
X198865000Y-30790873D01*
X198802566Y-30697434D01*
X196802566Y-28697434D01*
X196434345Y-28451397D01*
X196000000Y-28365000D01*
X195565655Y-28451397D01*
X195197434Y-28697434D01*
X194951397Y-29065655D01*
X194865000Y-29500000D01*
X169401255Y-29500000D01*
X171753395Y-25285750D01*
X178365000Y-25285750D01*
X178365000Y-27126310D01*
X178461673Y-27359699D01*
X178640302Y-27538327D01*
X178873691Y-27635000D01*
X180714250Y-27635000D01*
X180873000Y-27476250D01*
X180873000Y-25127000D01*
X181127000Y-25127000D01*
X181127000Y-27476250D01*
X181285750Y-27635000D01*
X183126309Y-27635000D01*
X183359698Y-27538327D01*
X183538327Y-27359699D01*
X183635000Y-27126310D01*
X183635000Y-25285750D01*
X216365000Y-25285750D01*
X216365000Y-27126310D01*
X216461673Y-27359699D01*
X216640302Y-27538327D01*
X216873691Y-27635000D01*
X218714250Y-27635000D01*
X218873000Y-27476250D01*
X218873000Y-25127000D01*
X219127000Y-25127000D01*
X219127000Y-27476250D01*
X219285750Y-27635000D01*
X221126309Y-27635000D01*
X221359698Y-27538327D01*
X221538327Y-27359699D01*
X221635000Y-27126310D01*
X221635000Y-25285750D01*
X221476250Y-25127000D01*
X219127000Y-25127000D01*
X218873000Y-25127000D01*
X216523750Y-25127000D01*
X216365000Y-25285750D01*
X183635000Y-25285750D01*
X183476250Y-25127000D01*
X181127000Y-25127000D01*
X180873000Y-25127000D01*
X178523750Y-25127000D01*
X178365000Y-25285750D01*
X171753395Y-25285750D01*
X172719967Y-23553977D01*
X173738088Y-22873690D01*
X178365000Y-22873690D01*
X178365000Y-24714250D01*
X178523750Y-24873000D01*
X180873000Y-24873000D01*
X180873000Y-22523750D01*
X181127000Y-22523750D01*
X181127000Y-24873000D01*
X183476250Y-24873000D01*
X183635000Y-24714250D01*
X183635000Y-22873690D01*
X216365000Y-22873690D01*
X216365000Y-24714250D01*
X216523750Y-24873000D01*
X218873000Y-24873000D01*
X218873000Y-22523750D01*
X219127000Y-22523750D01*
X219127000Y-24873000D01*
X221476250Y-24873000D01*
X221635000Y-24714250D01*
X221635000Y-22873690D01*
X221538327Y-22640301D01*
X221359698Y-22461673D01*
X221126309Y-22365000D01*
X219285750Y-22365000D01*
X219127000Y-22523750D01*
X218873000Y-22523750D01*
X218714250Y-22365000D01*
X216873691Y-22365000D01*
X216640302Y-22461673D01*
X216461673Y-22640301D01*
X216365000Y-22873690D01*
X183635000Y-22873690D01*
X183538327Y-22640301D01*
X183359698Y-22461673D01*
X183126309Y-22365000D01*
X181285750Y-22365000D01*
X181127000Y-22523750D01*
X180873000Y-22523750D01*
X180714250Y-22365000D01*
X178873691Y-22365000D01*
X178640302Y-22461673D01*
X178461673Y-22640301D01*
X178365000Y-22873690D01*
X173738088Y-22873690D01*
X176352195Y-21127000D01*
X223647805Y-21127000D01*
X227280033Y-23553977D01*
X227280033Y-23553977D01*
G37*
X227280033Y-23553977D02*
X249174646Y-62781826D01*
X249317500Y-63500000D01*
X248878608Y-65706458D01*
X227333593Y-103410235D01*
X223647805Y-105873000D01*
X176352195Y-105873000D01*
X172666407Y-103410235D01*
X166940559Y-93390000D01*
X178936430Y-93390000D01*
X178936430Y-99760000D01*
X193063570Y-99760000D01*
X193063570Y-93390000D01*
X178936430Y-93390000D01*
X166940559Y-93390000D01*
X166309560Y-92285750D01*
X195365000Y-92285750D01*
X195365000Y-92676310D01*
X195461673Y-92909699D01*
X195640302Y-93088327D01*
X195873691Y-93185000D01*
X196614250Y-93185000D01*
X196773000Y-93026250D01*
X196773000Y-92127000D01*
X195523750Y-92127000D01*
X195365000Y-92285750D01*
X166309560Y-92285750D01*
X165759812Y-91323690D01*
X195365000Y-91323690D01*
X195365000Y-91714250D01*
X195523750Y-91873000D01*
X196773000Y-91873000D01*
X196773000Y-90973750D01*
X196614250Y-90815000D01*
X195873691Y-90815000D01*
X195640302Y-90911673D01*
X195461673Y-91090301D01*
X195365000Y-91323690D01*
X165759812Y-91323690D01*
X159080988Y-79635750D01*
X165215000Y-79635750D01*
X165215000Y-80226309D01*
X165311673Y-80459698D01*
X165490301Y-80638327D01*
X165723690Y-80735000D01*
X166214250Y-80735000D01*
X166373000Y-80576250D01*
X166373000Y-79477000D01*
X165373750Y-79477000D01*
X165215000Y-79635750D01*
X159080988Y-79635750D01*
X151121392Y-65706458D01*
X151037708Y-65285750D01*
X155765000Y-65285750D01*
X155765000Y-65776310D01*
X155861673Y-66009699D01*
X156040302Y-66188327D01*
X156273691Y-66285000D01*
X156864250Y-66285000D01*
X157023000Y-66126250D01*
X157023000Y-65127000D01*
X155923750Y-65127000D01*
X155765000Y-65285750D01*
X151037708Y-65285750D01*
X150682500Y-63500000D01*
X150825354Y-62781826D01*
X151066373Y-62350000D01*
X155752560Y-62350000D01*
X155752560Y-63650000D01*
X155796838Y-63885317D01*
X155863328Y-63988646D01*
X155861673Y-63990301D01*
X155765000Y-64223690D01*
X155765000Y-64714250D01*
X155923750Y-64873000D01*
X157023000Y-64873000D01*
X157023000Y-64853000D01*
X157277000Y-64853000D01*
X157277000Y-64873000D01*
X157297000Y-64873000D01*
X157297000Y-65127000D01*
X157277000Y-65127000D01*
X157277000Y-66126250D01*
X157435750Y-66285000D01*
X158026309Y-66285000D01*
X158259698Y-66188327D01*
X158438327Y-66009699D01*
X158494654Y-65873713D01*
X158496838Y-65885317D01*
X158635910Y-66101441D01*
X158848110Y-66246431D01*
X159100000Y-66297440D01*
X160600000Y-66297440D01*
X160835317Y-66253162D01*
X161051441Y-66114090D01*
X161196431Y-65901890D01*
X161247440Y-65650000D01*
X161247440Y-64680000D01*
X161502560Y-64680000D01*
X161502560Y-64770000D01*
X161546838Y-65005317D01*
X161685910Y-65221441D01*
X161898110Y-65366431D01*
X162006107Y-65388301D01*
X161728355Y-65693076D01*
X161558524Y-66103110D01*
X161679845Y-66333000D01*
X162873000Y-66333000D01*
X162873000Y-66313000D01*
X163127000Y-66313000D01*
X163127000Y-66333000D01*
X164320155Y-66333000D01*
X164441476Y-66103110D01*
X164271645Y-65693076D01*
X163995499Y-65390063D01*
X164085317Y-65373162D01*
X164301441Y-65234090D01*
X164446431Y-65021890D01*
X164497440Y-64770000D01*
X164497440Y-63072242D01*
X164740000Y-63314802D01*
X164740000Y-69665198D01*
X164441210Y-69366408D01*
X164514093Y-69000000D01*
X164401054Y-68431715D01*
X164079147Y-67949946D01*
X163738447Y-67722298D01*
X163881358Y-67655183D01*
X164271645Y-67226924D01*
X164441476Y-66816890D01*
X164320155Y-66587000D01*
X163127000Y-66587000D01*
X163127000Y-66607000D01*
X162873000Y-66607000D01*
X162873000Y-66587000D01*
X161679845Y-66587000D01*
X161558524Y-66816890D01*
X161728355Y-67226924D01*
X162118642Y-67655183D01*
X162261553Y-67722298D01*
X161920853Y-67949946D01*
X161598946Y-68431715D01*
X161485907Y-69000000D01*
X161598946Y-69568285D01*
X161920853Y-70050054D01*
X162250026Y-70270000D01*
X161920853Y-70489946D01*
X161598946Y-70971715D01*
X161485907Y-71540000D01*
X161598946Y-72108285D01*
X161920853Y-72590054D01*
X162240000Y-72803301D01*
X162240000Y-74050000D01*
X162297852Y-74340839D01*
X162462599Y-74587401D01*
X165062599Y-77187401D01*
X165202560Y-77280920D01*
X165202560Y-77400000D01*
X165246838Y-77635317D01*
X165385910Y-77851441D01*
X165598110Y-77996431D01*
X165631490Y-78003191D01*
X165490301Y-78061673D01*
X165311673Y-78240302D01*
X165215000Y-78473691D01*
X165215000Y-79064250D01*
X165373750Y-79223000D01*
X166373000Y-79223000D01*
X166373000Y-79203000D01*
X166627000Y-79203000D01*
X166627000Y-79223000D01*
X167626250Y-79223000D01*
X167785000Y-79064250D01*
X167785000Y-78473691D01*
X167688327Y-78240302D01*
X167509699Y-78061673D01*
X167373713Y-78005346D01*
X167385317Y-78003162D01*
X167601441Y-77864090D01*
X167746431Y-77651890D01*
X167797440Y-77400000D01*
X167797440Y-77260000D01*
X168273258Y-77260000D01*
X168296838Y-77385317D01*
X168435910Y-77601441D01*
X168648110Y-77746431D01*
X168900000Y-77797440D01*
X170400000Y-77797440D01*
X170635317Y-77753162D01*
X170851441Y-77614090D01*
X170996431Y-77401890D01*
X170999081Y-77388803D01*
X171135910Y-77601441D01*
X171348110Y-77746431D01*
X171600000Y-77797440D01*
X173100000Y-77797440D01*
X173335317Y-77753162D01*
X173551441Y-77614090D01*
X173696431Y-77401890D01*
X173747440Y-77150000D01*
X173747440Y-77130920D01*
X173887401Y-77037401D01*
X174164802Y-76760000D01*
X194535025Y-76760000D01*
X194593397Y-76799884D01*
X194498559Y-76860910D01*
X194409505Y-76991245D01*
X194315000Y-77085750D01*
X194315000Y-77201310D01*
X194323468Y-77221753D01*
X194302560Y-77325000D01*
X194302560Y-77875000D01*
X194322450Y-77980705D01*
X194315000Y-77998690D01*
X194315000Y-78114250D01*
X194411401Y-78210651D01*
X194485910Y-78326441D01*
X194593397Y-78399884D01*
X194531054Y-78440000D01*
X169300000Y-78440000D01*
X169009161Y-78497852D01*
X168762599Y-78662599D01*
X167962599Y-79462599D01*
X167797852Y-79709161D01*
X167785000Y-79773772D01*
X167785000Y-79635750D01*
X167626250Y-79477000D01*
X166627000Y-79477000D01*
X166627000Y-80576250D01*
X166785750Y-80735000D01*
X167276310Y-80735000D01*
X167509699Y-80638327D01*
X167688327Y-80459698D01*
X167740000Y-80334948D01*
X167740000Y-82000000D01*
X167797852Y-82290839D01*
X167962599Y-82537401D01*
X168962599Y-83537401D01*
X168965000Y-83539005D01*
X168965000Y-84214250D01*
X169123750Y-84373000D01*
X171873000Y-84373000D01*
X171873000Y-84353000D01*
X172127000Y-84353000D01*
X172127000Y-84373000D01*
X172147000Y-84373000D01*
X172147000Y-84627000D01*
X172127000Y-84627000D01*
X172127000Y-84647000D01*
X171873000Y-84647000D01*
X171873000Y-84627000D01*
X169123750Y-84627000D01*
X168965000Y-84785750D01*
X168965000Y-85501309D01*
X169049248Y-85704700D01*
X168962599Y-85762597D01*
X167962599Y-86762597D01*
X167797852Y-87009159D01*
X167740000Y-87299998D01*
X167740000Y-89000000D01*
X167797852Y-89290839D01*
X167962599Y-89537401D01*
X168962599Y-90537401D01*
X169209161Y-90702148D01*
X169500000Y-90760000D01*
X197185198Y-90760000D01*
X197240198Y-90815000D01*
X197185750Y-90815000D01*
X197027000Y-90973750D01*
X197027000Y-91873000D01*
X197047000Y-91873000D01*
X197047000Y-92127000D01*
X197027000Y-92127000D01*
X197027000Y-93026250D01*
X197185750Y-93185000D01*
X197926309Y-93185000D01*
X197941142Y-93178856D01*
X195462599Y-95657399D01*
X195297852Y-95903961D01*
X195240000Y-96194800D01*
X195240000Y-100000000D01*
X195297852Y-100290839D01*
X195462599Y-100537401D01*
X195652600Y-100727402D01*
X195899162Y-100892149D01*
X196190001Y-100950001D01*
X196439158Y-100950001D01*
X196435000Y-100970907D01*
X196435000Y-101029093D01*
X196548039Y-101597378D01*
X196869946Y-102079147D01*
X197351715Y-102401054D01*
X197920000Y-102514093D01*
X198488285Y-102401054D01*
X198970054Y-102079147D01*
X199197702Y-101738447D01*
X199264817Y-101881358D01*
X199693076Y-102271645D01*
X200103110Y-102441476D01*
X200333000Y-102320155D01*
X200333000Y-101127000D01*
X200587000Y-101127000D01*
X200587000Y-102320155D01*
X200816890Y-102441476D01*
X201226924Y-102271645D01*
X201655183Y-101881358D01*
X201730000Y-101722046D01*
X201804817Y-101881358D01*
X202233076Y-102271645D01*
X202643110Y-102441476D01*
X202873000Y-102320155D01*
X202873000Y-101127000D01*
X203127000Y-101127000D01*
X203127000Y-102320155D01*
X203356890Y-102441476D01*
X203766924Y-102271645D01*
X204195183Y-101881358D01*
X204270000Y-101722046D01*
X204344817Y-101881358D01*
X204773076Y-102271645D01*
X205183110Y-102441476D01*
X205413000Y-102320155D01*
X205413000Y-101127000D01*
X203127000Y-101127000D01*
X202873000Y-101127000D01*
X200587000Y-101127000D01*
X200333000Y-101127000D01*
X200313000Y-101127000D01*
X200313000Y-100873000D01*
X200333000Y-100873000D01*
X200333000Y-100853000D01*
X200587000Y-100853000D01*
X200587000Y-100873000D01*
X202873000Y-100873000D01*
X202873000Y-100853000D01*
X203127000Y-100853000D01*
X203127000Y-100873000D01*
X205413000Y-100873000D01*
X205413000Y-100853000D01*
X205667000Y-100853000D01*
X205667000Y-100873000D01*
X205687000Y-100873000D01*
X205687000Y-101127000D01*
X205667000Y-101127000D01*
X205667000Y-102320155D01*
X205896890Y-102441476D01*
X206252088Y-102294357D01*
X206317598Y-102392400D01*
X206962599Y-103037401D01*
X207209161Y-103202148D01*
X207500000Y-103260000D01*
X209654654Y-103260000D01*
X209945493Y-103202148D01*
X210192055Y-103037401D01*
X212037401Y-101192055D01*
X212202148Y-100945494D01*
X212260000Y-100654654D01*
X212260000Y-95500000D01*
X212202148Y-95209161D01*
X212037401Y-94962599D01*
X209622242Y-92547440D01*
X210900000Y-92547440D01*
X211135317Y-92503162D01*
X211351441Y-92364090D01*
X211496431Y-92151890D01*
X211503191Y-92118510D01*
X211561673Y-92259699D01*
X211740302Y-92438327D01*
X211973691Y-92535000D01*
X212564250Y-92535000D01*
X212723000Y-92376250D01*
X212723000Y-91377000D01*
X212977000Y-91377000D01*
X212977000Y-92376250D01*
X213135750Y-92535000D01*
X213726309Y-92535000D01*
X213959698Y-92438327D01*
X214138327Y-92259699D01*
X214235000Y-92026310D01*
X214235000Y-91535750D01*
X214076250Y-91377000D01*
X212977000Y-91377000D01*
X212723000Y-91377000D01*
X212703000Y-91377000D01*
X212703000Y-91123000D01*
X212723000Y-91123000D01*
X212723000Y-90123750D01*
X212977000Y-90123750D01*
X212977000Y-91123000D01*
X214076250Y-91123000D01*
X214235000Y-90964250D01*
X214235000Y-90473690D01*
X214138327Y-90240301D01*
X213959698Y-90061673D01*
X213726309Y-89965000D01*
X213135750Y-89965000D01*
X212977000Y-90123750D01*
X212723000Y-90123750D01*
X212564250Y-89965000D01*
X211973691Y-89965000D01*
X211740302Y-90061673D01*
X211561673Y-90240301D01*
X211505346Y-90376287D01*
X211503162Y-90364683D01*
X211364090Y-90148559D01*
X211151890Y-90003569D01*
X210900000Y-89952560D01*
X210560000Y-89952560D01*
X210560000Y-89295558D01*
X210785317Y-89253162D01*
X211001441Y-89114090D01*
X211146431Y-88901890D01*
X211197440Y-88650000D01*
X211197440Y-87350000D01*
X211153162Y-87114683D01*
X211014090Y-86898559D01*
X210801890Y-86753569D01*
X210550000Y-86702560D01*
X209260000Y-86702560D01*
X209260000Y-84084802D01*
X219962599Y-94787401D01*
X220209161Y-94952148D01*
X220500000Y-95010000D01*
X221242560Y-95010000D01*
X221242560Y-95100000D01*
X221286838Y-95335317D01*
X221425910Y-95551441D01*
X221638110Y-95696431D01*
X221890000Y-95747440D01*
X223590000Y-95747440D01*
X223825317Y-95703162D01*
X224041441Y-95564090D01*
X224186431Y-95351890D01*
X224237440Y-95100000D01*
X224237440Y-93400000D01*
X224193162Y-93164683D01*
X224054090Y-92948559D01*
X223841890Y-92803569D01*
X223774459Y-92789914D01*
X223819147Y-92760054D01*
X224141054Y-92278285D01*
X224254093Y-91710000D01*
X224141054Y-91141715D01*
X223819147Y-90659946D01*
X223489974Y-90440000D01*
X223819147Y-90220054D01*
X224141054Y-89738285D01*
X224254093Y-89170000D01*
X224141054Y-88601715D01*
X223819147Y-88119946D01*
X223489974Y-87900000D01*
X223819147Y-87680054D01*
X224141054Y-87198285D01*
X224254093Y-86630000D01*
X224141054Y-86061715D01*
X223819147Y-85579946D01*
X223489974Y-85360000D01*
X223819147Y-85140054D01*
X224141054Y-84658285D01*
X224254093Y-84090000D01*
X224141054Y-83521715D01*
X223819147Y-83039946D01*
X223489974Y-82820000D01*
X223559280Y-82773691D01*
X226215000Y-82773691D01*
X226215000Y-83364250D01*
X226373750Y-83523000D01*
X227373000Y-83523000D01*
X227373000Y-82423750D01*
X227214250Y-82265000D01*
X226723690Y-82265000D01*
X226490301Y-82361673D01*
X226311673Y-82540302D01*
X226215000Y-82773691D01*
X223559280Y-82773691D01*
X223819147Y-82600054D01*
X224141054Y-82118285D01*
X224254093Y-81550000D01*
X224141054Y-80981715D01*
X223819147Y-80499946D01*
X223478447Y-80272298D01*
X223621358Y-80205183D01*
X224011645Y-79776924D01*
X224181476Y-79366890D01*
X224060155Y-79137000D01*
X222867000Y-79137000D01*
X222867000Y-79157000D01*
X222613000Y-79157000D01*
X222613000Y-79137000D01*
X221419845Y-79137000D01*
X221298524Y-79366890D01*
X221468355Y-79776924D01*
X221858642Y-80205183D01*
X222001553Y-80272298D01*
X221660853Y-80499946D01*
X221467046Y-80790000D01*
X216864802Y-80790000D01*
X208037401Y-71962599D01*
X207790839Y-71797852D01*
X207500000Y-71740000D01*
X202760000Y-71740000D01*
X202760000Y-71545558D01*
X202985317Y-71503162D01*
X203201441Y-71364090D01*
X203346431Y-71151890D01*
X203349081Y-71138803D01*
X203485910Y-71351441D01*
X203698110Y-71496431D01*
X203950000Y-71547440D01*
X205450000Y-71547440D01*
X205685317Y-71503162D01*
X205901441Y-71364090D01*
X206046431Y-71151890D01*
X206075164Y-71010000D01*
X211726612Y-71010000D01*
X217724013Y-77007401D01*
X217970575Y-77172148D01*
X218261414Y-77230000D01*
X221467046Y-77230000D01*
X221660853Y-77520054D01*
X222001553Y-77747702D01*
X221858642Y-77814817D01*
X221468355Y-78243076D01*
X221298524Y-78653110D01*
X221419845Y-78883000D01*
X222613000Y-78883000D01*
X222613000Y-78863000D01*
X222867000Y-78863000D01*
X222867000Y-78883000D01*
X224060155Y-78883000D01*
X224181476Y-78653110D01*
X224011645Y-78243076D01*
X223621358Y-77814817D01*
X223478447Y-77747702D01*
X223819147Y-77520054D01*
X224141054Y-77038285D01*
X224254093Y-76470000D01*
X224236191Y-76380001D01*
X227065197Y-76380001D01*
X229240000Y-78554804D01*
X229240000Y-82273258D01*
X229114683Y-82296838D01*
X228898559Y-82435910D01*
X228753569Y-82648110D01*
X228746809Y-82681491D01*
X228688327Y-82540302D01*
X228509699Y-82361673D01*
X228276310Y-82265000D01*
X227785750Y-82265000D01*
X227627000Y-82423750D01*
X227627000Y-83523000D01*
X227647000Y-83523000D01*
X227647000Y-83777000D01*
X227627000Y-83777000D01*
X227627000Y-83797000D01*
X227373000Y-83797000D01*
X227373000Y-83777000D01*
X226373750Y-83777000D01*
X226215000Y-83935750D01*
X226215000Y-84526309D01*
X226311673Y-84759698D01*
X226490301Y-84938327D01*
X226626287Y-84994654D01*
X226614683Y-84996838D01*
X226398559Y-85135910D01*
X226253569Y-85348110D01*
X226202560Y-85600000D01*
X226202560Y-87100000D01*
X226246838Y-87335317D01*
X226385910Y-87551441D01*
X226598110Y-87696431D01*
X226850000Y-87747440D01*
X228150000Y-87747440D01*
X228385317Y-87703162D01*
X228601441Y-87564090D01*
X228746431Y-87351890D01*
X228749081Y-87338803D01*
X228885910Y-87551441D01*
X229098110Y-87696431D01*
X229350000Y-87747440D01*
X230650000Y-87747440D01*
X230885317Y-87703162D01*
X231101441Y-87564090D01*
X231246431Y-87351890D01*
X231297440Y-87100000D01*
X231297440Y-85600000D01*
X231253162Y-85364683D01*
X231114090Y-85148559D01*
X230901890Y-85003569D01*
X230888803Y-85000919D01*
X231101441Y-84864090D01*
X231246431Y-84651890D01*
X231297440Y-84400000D01*
X231297440Y-82900000D01*
X231253162Y-82664683D01*
X231114090Y-82448559D01*
X230901890Y-82303569D01*
X230760000Y-82274836D01*
X230760000Y-78240002D01*
X230702148Y-77949163D01*
X230537401Y-77702601D01*
X228454801Y-75620001D01*
X230537401Y-73537401D01*
X230702148Y-73290839D01*
X230760000Y-73000000D01*
X230760000Y-72772954D01*
X231050054Y-72579147D01*
X231277702Y-72238447D01*
X231344817Y-72381358D01*
X231773076Y-72771645D01*
X232183110Y-72941476D01*
X232413000Y-72820155D01*
X232413000Y-71627000D01*
X232667000Y-71627000D01*
X232667000Y-72820155D01*
X232896890Y-72941476D01*
X233306924Y-72771645D01*
X233735183Y-72381358D01*
X233981486Y-71856892D01*
X233860819Y-71627000D01*
X232667000Y-71627000D01*
X232413000Y-71627000D01*
X232393000Y-71627000D01*
X232393000Y-71373000D01*
X232413000Y-71373000D01*
X232413000Y-70179845D01*
X232667000Y-70179845D01*
X232667000Y-71373000D01*
X233860819Y-71373000D01*
X233981486Y-71143108D01*
X233735183Y-70618642D01*
X233306924Y-70228355D01*
X232896890Y-70058524D01*
X232667000Y-70179845D01*
X232413000Y-70179845D01*
X232183110Y-70058524D01*
X231773076Y-70228355D01*
X231344817Y-70618642D01*
X231277702Y-70761553D01*
X231135000Y-70547984D01*
X231135000Y-68952016D01*
X231277702Y-68738447D01*
X231344817Y-68881358D01*
X231773076Y-69271645D01*
X232183110Y-69441476D01*
X232413000Y-69320155D01*
X232413000Y-68127000D01*
X232667000Y-68127000D01*
X232667000Y-69320155D01*
X232896890Y-69441476D01*
X233306924Y-69271645D01*
X233735183Y-68881358D01*
X233981486Y-68356892D01*
X233860819Y-68127000D01*
X232667000Y-68127000D01*
X232413000Y-68127000D01*
X232393000Y-68127000D01*
X232393000Y-67873000D01*
X232413000Y-67873000D01*
X232413000Y-66679845D01*
X232667000Y-66679845D01*
X232667000Y-67873000D01*
X233860819Y-67873000D01*
X233981486Y-67643108D01*
X233735183Y-67118642D01*
X233306924Y-66728355D01*
X232896890Y-66558524D01*
X232667000Y-66679845D01*
X232413000Y-66679845D01*
X232183110Y-66558524D01*
X231773076Y-66728355D01*
X231344817Y-67118642D01*
X231277702Y-67261553D01*
X231135000Y-67047984D01*
X231135000Y-65452016D01*
X231277702Y-65238447D01*
X231344817Y-65381358D01*
X231773076Y-65771645D01*
X232183110Y-65941476D01*
X232413000Y-65820155D01*
X232413000Y-64627000D01*
X232667000Y-64627000D01*
X232667000Y-65820155D01*
X232896890Y-65941476D01*
X233306924Y-65771645D01*
X233735183Y-65381358D01*
X233981486Y-64856892D01*
X233860819Y-64627000D01*
X232667000Y-64627000D01*
X232413000Y-64627000D01*
X232393000Y-64627000D01*
X232393000Y-64373000D01*
X232413000Y-64373000D01*
X232413000Y-63179845D01*
X232667000Y-63179845D01*
X232667000Y-64373000D01*
X233860819Y-64373000D01*
X233981486Y-64143108D01*
X233735183Y-63618642D01*
X233306924Y-63228355D01*
X232896890Y-63058524D01*
X232667000Y-63179845D01*
X232413000Y-63179845D01*
X232183110Y-63058524D01*
X231773076Y-63228355D01*
X231344817Y-63618642D01*
X231277702Y-63761553D01*
X231135000Y-63547984D01*
X231135000Y-61952016D01*
X231277702Y-61738447D01*
X231344817Y-61881358D01*
X231773076Y-62271645D01*
X232183110Y-62441476D01*
X232413000Y-62320155D01*
X232413000Y-61127000D01*
X232667000Y-61127000D01*
X232667000Y-62320155D01*
X232896890Y-62441476D01*
X233306924Y-62271645D01*
X233735183Y-61881358D01*
X233981486Y-61356892D01*
X233860819Y-61127000D01*
X232667000Y-61127000D01*
X232413000Y-61127000D01*
X232393000Y-61127000D01*
X232393000Y-60873000D01*
X232413000Y-60873000D01*
X232413000Y-59679845D01*
X232667000Y-59679845D01*
X232667000Y-60873000D01*
X233860819Y-60873000D01*
X233981486Y-60643108D01*
X233735183Y-60118642D01*
X233306924Y-59728355D01*
X232896890Y-59558524D01*
X232667000Y-59679845D01*
X232413000Y-59679845D01*
X232183110Y-59558524D01*
X231773076Y-59728355D01*
X231344817Y-60118642D01*
X231277702Y-60261553D01*
X231135000Y-60047984D01*
X231135000Y-58452016D01*
X231277702Y-58238447D01*
X231344817Y-58381358D01*
X231773076Y-58771645D01*
X232183110Y-58941476D01*
X232413000Y-58820155D01*
X232413000Y-57627000D01*
X232667000Y-57627000D01*
X232667000Y-58820155D01*
X232896890Y-58941476D01*
X233306924Y-58771645D01*
X233735183Y-58381358D01*
X233981486Y-57856892D01*
X233860819Y-57627000D01*
X232667000Y-57627000D01*
X232413000Y-57627000D01*
X232393000Y-57627000D01*
X232393000Y-57373000D01*
X232413000Y-57373000D01*
X232413000Y-56179845D01*
X232667000Y-56179845D01*
X232667000Y-57373000D01*
X233860819Y-57373000D01*
X233981486Y-57143108D01*
X233735183Y-56618642D01*
X233306924Y-56228355D01*
X232896890Y-56058524D01*
X232667000Y-56179845D01*
X232413000Y-56179845D01*
X232183110Y-56058524D01*
X231773076Y-56228355D01*
X231344817Y-56618642D01*
X231277702Y-56761553D01*
X231135000Y-56547984D01*
X231135000Y-54952016D01*
X231277702Y-54738447D01*
X231344817Y-54881358D01*
X231773076Y-55271645D01*
X232183110Y-55441476D01*
X232413000Y-55320155D01*
X232413000Y-54127000D01*
X232667000Y-54127000D01*
X232667000Y-55320155D01*
X232896890Y-55441476D01*
X233253986Y-55293571D01*
X237740000Y-55293571D01*
X237740000Y-71706429D01*
X244110000Y-71706429D01*
X244110000Y-55293571D01*
X237740000Y-55293571D01*
X233253986Y-55293571D01*
X233306924Y-55271645D01*
X233735183Y-54881358D01*
X233981486Y-54356892D01*
X233860819Y-54127000D01*
X232667000Y-54127000D01*
X232413000Y-54127000D01*
X232393000Y-54127000D01*
X232393000Y-53873000D01*
X232413000Y-53873000D01*
X232413000Y-52679845D01*
X232667000Y-52679845D01*
X232667000Y-53873000D01*
X233860819Y-53873000D01*
X233981486Y-53643108D01*
X233735183Y-53118642D01*
X233306924Y-52728355D01*
X232896890Y-52558524D01*
X232667000Y-52679845D01*
X232413000Y-52679845D01*
X232183110Y-52558524D01*
X231773076Y-52728355D01*
X231344817Y-53118642D01*
X231277702Y-53261553D01*
X231135000Y-53047984D01*
X231135000Y-51452016D01*
X231277702Y-51238447D01*
X231344817Y-51381358D01*
X231773076Y-51771645D01*
X232183110Y-51941476D01*
X232413000Y-51820155D01*
X232413000Y-50627000D01*
X232667000Y-50627000D01*
X232667000Y-51820155D01*
X232896890Y-51941476D01*
X233306924Y-51771645D01*
X233735183Y-51381358D01*
X233981486Y-50856892D01*
X233860819Y-50627000D01*
X232667000Y-50627000D01*
X232413000Y-50627000D01*
X232393000Y-50627000D01*
X232393000Y-50373000D01*
X232413000Y-50373000D01*
X232413000Y-49179845D01*
X232667000Y-49179845D01*
X232667000Y-50373000D01*
X233860819Y-50373000D01*
X233981486Y-50143108D01*
X233735183Y-49618642D01*
X233306924Y-49228355D01*
X232896890Y-49058524D01*
X232667000Y-49179845D01*
X232413000Y-49179845D01*
X232183110Y-49058524D01*
X231773076Y-49228355D01*
X231344817Y-49618642D01*
X231277702Y-49761553D01*
X231135000Y-49547984D01*
X231135000Y-47952016D01*
X231277702Y-47738447D01*
X231344817Y-47881358D01*
X231773076Y-48271645D01*
X232183110Y-48441476D01*
X232413000Y-48320155D01*
X232413000Y-47127000D01*
X232667000Y-47127000D01*
X232667000Y-48320155D01*
X232896890Y-48441476D01*
X233306924Y-48271645D01*
X233735183Y-47881358D01*
X233981486Y-47356892D01*
X233860819Y-47127000D01*
X232667000Y-47127000D01*
X232413000Y-47127000D01*
X232393000Y-47127000D01*
X232393000Y-46873000D01*
X232413000Y-46873000D01*
X232413000Y-45679845D01*
X232667000Y-45679845D01*
X232667000Y-46873000D01*
X233860819Y-46873000D01*
X233981486Y-46643108D01*
X233735183Y-46118642D01*
X233306924Y-45728355D01*
X232896890Y-45558524D01*
X232667000Y-45679845D01*
X232413000Y-45679845D01*
X232183110Y-45558524D01*
X231773076Y-45728355D01*
X231344817Y-46118642D01*
X231277702Y-46261553D01*
X231135000Y-46047984D01*
X231135000Y-45797919D01*
X231111514Y-45679845D01*
X231048604Y-45363574D01*
X230802566Y-44995353D01*
X229504647Y-43697434D01*
X229353485Y-43596431D01*
X229136427Y-43451397D01*
X228702081Y-43365000D01*
X221519146Y-43365000D01*
X221596431Y-43251890D01*
X221647440Y-43000000D01*
X221647440Y-39000000D01*
X221603162Y-38764683D01*
X221464090Y-38548559D01*
X221251890Y-38403569D01*
X221000000Y-38352560D01*
X217000000Y-38352560D01*
X216764683Y-38396838D01*
X216548559Y-38535910D01*
X216403569Y-38748110D01*
X216352560Y-39000000D01*
X216352560Y-43000000D01*
X216396838Y-43235317D01*
X216480287Y-43365000D01*
X187970133Y-43365000D01*
X184802566Y-40197434D01*
X184507085Y-40000000D01*
X184434346Y-39951397D01*
X184000000Y-39865000D01*
X183647440Y-39865000D01*
X183647440Y-39000000D01*
X183603162Y-38764683D01*
X183464090Y-38548559D01*
X183251890Y-38403569D01*
X183000000Y-38352560D01*
X179000000Y-38352560D01*
X178764683Y-38396838D01*
X178548559Y-38535910D01*
X178403569Y-38748110D01*
X178352560Y-39000000D01*
X178352560Y-39865000D01*
X174500000Y-39865000D01*
X174065654Y-39951397D01*
X173697433Y-40197434D01*
X170197437Y-43697431D01*
X170197434Y-43697433D01*
X169197434Y-44697434D01*
X168951397Y-45065654D01*
X168865000Y-45500000D01*
X168865000Y-46047984D01*
X168722298Y-46261553D01*
X168655183Y-46118642D01*
X168226924Y-45728355D01*
X167816890Y-45558524D01*
X167587000Y-45679845D01*
X167587000Y-46873000D01*
X167607000Y-46873000D01*
X167607000Y-47127000D01*
X167587000Y-47127000D01*
X167587000Y-48320155D01*
X167816890Y-48441476D01*
X168226924Y-48271645D01*
X168655183Y-47881358D01*
X168722298Y-47738447D01*
X168865000Y-47952016D01*
X168865000Y-49547984D01*
X168722298Y-49761553D01*
X168655183Y-49618642D01*
X168226924Y-49228355D01*
X167816890Y-49058524D01*
X167587000Y-49179845D01*
X167587000Y-50373000D01*
X167607000Y-50373000D01*
X167607000Y-50627000D01*
X167587000Y-50627000D01*
X167587000Y-51820155D01*
X167816890Y-51941476D01*
X168226924Y-51771645D01*
X168655183Y-51381358D01*
X168722298Y-51238447D01*
X168865000Y-51452016D01*
X168865000Y-53047984D01*
X168722298Y-53261553D01*
X168655183Y-53118642D01*
X168226924Y-52728355D01*
X167816890Y-52558524D01*
X167587000Y-52679845D01*
X167587000Y-53873000D01*
X167607000Y-53873000D01*
X167607000Y-54127000D01*
X167587000Y-54127000D01*
X167587000Y-55320155D01*
X167816890Y-55441476D01*
X168226924Y-55271645D01*
X168655183Y-54881358D01*
X168722298Y-54738447D01*
X168865000Y-54952016D01*
X168865000Y-56547984D01*
X168722298Y-56761553D01*
X168655183Y-56618642D01*
X168226924Y-56228355D01*
X167816890Y-56058524D01*
X167587000Y-56179845D01*
X167587000Y-57373000D01*
X167607000Y-57373000D01*
X167607000Y-57627000D01*
X167587000Y-57627000D01*
X167587000Y-58820155D01*
X167816890Y-58941476D01*
X168226924Y-58771645D01*
X168655183Y-58381358D01*
X168722298Y-58238447D01*
X168865000Y-58452016D01*
X168865000Y-60047984D01*
X168722298Y-60261553D01*
X168655183Y-60118642D01*
X168226924Y-59728355D01*
X167816890Y-59558524D01*
X167587000Y-59679845D01*
X167587000Y-60873000D01*
X167607000Y-60873000D01*
X167607000Y-61127000D01*
X167587000Y-61127000D01*
X167587000Y-62320155D01*
X167816890Y-62441476D01*
X168226924Y-62271645D01*
X168655183Y-61881358D01*
X168722298Y-61738447D01*
X168865000Y-61952016D01*
X168865000Y-63547984D01*
X168722298Y-63761553D01*
X168655183Y-63618642D01*
X168226924Y-63228355D01*
X167816890Y-63058524D01*
X167587000Y-63179845D01*
X167587000Y-64373000D01*
X167607000Y-64373000D01*
X167607000Y-64627000D01*
X167587000Y-64627000D01*
X167587000Y-65820155D01*
X167816890Y-65941476D01*
X168226924Y-65771645D01*
X168655183Y-65381358D01*
X168722298Y-65238447D01*
X168865000Y-65452016D01*
X168865000Y-67047984D01*
X168722298Y-67261553D01*
X168655183Y-67118642D01*
X168226924Y-66728355D01*
X167816890Y-66558524D01*
X167587000Y-66679845D01*
X167587000Y-67873000D01*
X167607000Y-67873000D01*
X167607000Y-68127000D01*
X167587000Y-68127000D01*
X167587000Y-69320155D01*
X167816890Y-69441476D01*
X168226924Y-69271645D01*
X168655183Y-68881358D01*
X168722298Y-68738447D01*
X168865000Y-68952016D01*
X168865000Y-70547984D01*
X168722298Y-70761553D01*
X168655183Y-70618642D01*
X168226924Y-70228355D01*
X167816890Y-70058524D01*
X167587000Y-70179845D01*
X167587000Y-71373000D01*
X167607000Y-71373000D01*
X167607000Y-71627000D01*
X167587000Y-71627000D01*
X167587000Y-71647000D01*
X167333000Y-71647000D01*
X167333000Y-71627000D01*
X167313000Y-71627000D01*
X167313000Y-71373000D01*
X167333000Y-71373000D01*
X167333000Y-70179845D01*
X167103110Y-70058524D01*
X166693076Y-70228355D01*
X166264817Y-70618642D01*
X166260000Y-70628899D01*
X166260000Y-68871101D01*
X166264817Y-68881358D01*
X166693076Y-69271645D01*
X167103110Y-69441476D01*
X167333000Y-69320155D01*
X167333000Y-68127000D01*
X167313000Y-68127000D01*
X167313000Y-67873000D01*
X167333000Y-67873000D01*
X167333000Y-66679845D01*
X167103110Y-66558524D01*
X166693076Y-66728355D01*
X166264817Y-67118642D01*
X166260000Y-67128899D01*
X166260000Y-65371101D01*
X166264817Y-65381358D01*
X166693076Y-65771645D01*
X167103110Y-65941476D01*
X167333000Y-65820155D01*
X167333000Y-64627000D01*
X167313000Y-64627000D01*
X167313000Y-64373000D01*
X167333000Y-64373000D01*
X167333000Y-63179845D01*
X167103110Y-63058524D01*
X166693076Y-63228355D01*
X166264817Y-63618642D01*
X166260000Y-63628899D01*
X166260000Y-63000000D01*
X166255027Y-62975000D01*
X166202148Y-62709160D01*
X166037401Y-62462599D01*
X164931694Y-61356892D01*
X166018514Y-61356892D01*
X166264817Y-61881358D01*
X166693076Y-62271645D01*
X167103110Y-62441476D01*
X167333000Y-62320155D01*
X167333000Y-61127000D01*
X166139181Y-61127000D01*
X166018514Y-61356892D01*
X164931694Y-61356892D01*
X164537401Y-60962599D01*
X164290839Y-60797852D01*
X164000000Y-60740000D01*
X158750000Y-60740000D01*
X158459160Y-60797852D01*
X158212599Y-60962599D01*
X157472638Y-61702560D01*
X156400000Y-61702560D01*
X156164683Y-61746838D01*
X155948559Y-61885910D01*
X155803569Y-62098110D01*
X155752560Y-62350000D01*
X151066373Y-62350000D01*
X152019056Y-60643108D01*
X166018514Y-60643108D01*
X166139181Y-60873000D01*
X167333000Y-60873000D01*
X167333000Y-59679845D01*
X167103110Y-59558524D01*
X166693076Y-59728355D01*
X166264817Y-60118642D01*
X166018514Y-60643108D01*
X152019056Y-60643108D01*
X153574153Y-57856892D01*
X166018514Y-57856892D01*
X166264817Y-58381358D01*
X166693076Y-58771645D01*
X167103110Y-58941476D01*
X167333000Y-58820155D01*
X167333000Y-57627000D01*
X166139181Y-57627000D01*
X166018514Y-57856892D01*
X153574153Y-57856892D01*
X153972544Y-57143108D01*
X166018514Y-57143108D01*
X166139181Y-57373000D01*
X167333000Y-57373000D01*
X167333000Y-56179845D01*
X167103110Y-56058524D01*
X166693076Y-56228355D01*
X166264817Y-56618642D01*
X166018514Y-57143108D01*
X153972544Y-57143108D01*
X155527641Y-54356892D01*
X166018514Y-54356892D01*
X166264817Y-54881358D01*
X166693076Y-55271645D01*
X167103110Y-55441476D01*
X167333000Y-55320155D01*
X167333000Y-54127000D01*
X166139181Y-54127000D01*
X166018514Y-54356892D01*
X155527641Y-54356892D01*
X155926032Y-53643108D01*
X166018514Y-53643108D01*
X166139181Y-53873000D01*
X167333000Y-53873000D01*
X167333000Y-52679845D01*
X167103110Y-52558524D01*
X166693076Y-52728355D01*
X166264817Y-53118642D01*
X166018514Y-53643108D01*
X155926032Y-53643108D01*
X157481129Y-50856892D01*
X166018514Y-50856892D01*
X166264817Y-51381358D01*
X166693076Y-51771645D01*
X167103110Y-51941476D01*
X167333000Y-51820155D01*
X167333000Y-50627000D01*
X166139181Y-50627000D01*
X166018514Y-50856892D01*
X157481129Y-50856892D01*
X157879520Y-50143108D01*
X166018514Y-50143108D01*
X166139181Y-50373000D01*
X167333000Y-50373000D01*
X167333000Y-49179845D01*
X167103110Y-49058524D01*
X166693076Y-49228355D01*
X166264817Y-49618642D01*
X166018514Y-50143108D01*
X157879520Y-50143108D01*
X159434617Y-47356892D01*
X166018514Y-47356892D01*
X166264817Y-47881358D01*
X166693076Y-48271645D01*
X167103110Y-48441476D01*
X167333000Y-48320155D01*
X167333000Y-47127000D01*
X166139181Y-47127000D01*
X166018514Y-47356892D01*
X159434617Y-47356892D01*
X159833008Y-46643108D01*
X166018514Y-46643108D01*
X166139181Y-46873000D01*
X167333000Y-46873000D01*
X167333000Y-45679845D01*
X167103110Y-45558524D01*
X166693076Y-45728355D01*
X166264817Y-46118642D01*
X166018514Y-46643108D01*
X159833008Y-46643108D01*
X169401255Y-29500000D01*
X194865000Y-29500000D01*
X194951397Y-29934345D01*
X195197434Y-30302566D01*
X196865000Y-31970132D01*
X196865000Y-35500000D01*
X196951397Y-35934346D01*
X197197434Y-36302566D01*
X197565654Y-36548603D01*
X198000000Y-36635000D01*
X198434346Y-36548603D01*
X198802566Y-36302566D01*
X199000000Y-36007085D01*
X199197434Y-36302566D01*
X199565654Y-36548603D01*
X200000000Y-36635000D01*
X200434346Y-36548603D01*
X200802566Y-36302566D01*
X201048603Y-35934346D01*
X201135000Y-35500000D01*
X201135000Y-34209127D01*
X201197434Y-34302566D01*
X203197434Y-36302566D01*
X203565655Y-36548603D01*
X204000000Y-36635000D01*
X204434345Y-36548603D01*
X204802566Y-36302566D01*
X205048603Y-35934345D01*
X205135000Y-35500000D01*
X205048603Y-35065655D01*
X204802566Y-34697434D01*
X203135000Y-33029868D01*
X203135000Y-29500000D01*
X203048603Y-29065654D01*
X202802566Y-28697434D01*
X202434346Y-28451397D01*
X202000000Y-28365000D01*
X201565654Y-28451397D01*
X201197434Y-28697434D01*
X201000000Y-28992915D01*
X200802566Y-28697434D01*
X200434346Y-28451397D01*
X200000000Y-28365000D01*
X199565654Y-28451397D01*
X199197434Y-28697434D01*
X198951397Y-29065654D01*
X198865000Y-29500000D01*
X198865000Y-30790873D01*
X198802566Y-30697434D01*
X196802566Y-28697434D01*
X196434345Y-28451397D01*
X196000000Y-28365000D01*
X195565655Y-28451397D01*
X195197434Y-28697434D01*
X194951397Y-29065655D01*
X194865000Y-29500000D01*
X169401255Y-29500000D01*
X171753395Y-25285750D01*
X178365000Y-25285750D01*
X178365000Y-27126310D01*
X178461673Y-27359699D01*
X178640302Y-27538327D01*
X178873691Y-27635000D01*
X180714250Y-27635000D01*
X180873000Y-27476250D01*
X180873000Y-25127000D01*
X181127000Y-25127000D01*
X181127000Y-27476250D01*
X181285750Y-27635000D01*
X183126309Y-27635000D01*
X183359698Y-27538327D01*
X183538327Y-27359699D01*
X183635000Y-27126310D01*
X183635000Y-25285750D01*
X216365000Y-25285750D01*
X216365000Y-27126310D01*
X216461673Y-27359699D01*
X216640302Y-27538327D01*
X216873691Y-27635000D01*
X218714250Y-27635000D01*
X218873000Y-27476250D01*
X218873000Y-25127000D01*
X219127000Y-25127000D01*
X219127000Y-27476250D01*
X219285750Y-27635000D01*
X221126309Y-27635000D01*
X221359698Y-27538327D01*
X221538327Y-27359699D01*
X221635000Y-27126310D01*
X221635000Y-25285750D01*
X221476250Y-25127000D01*
X219127000Y-25127000D01*
X218873000Y-25127000D01*
X216523750Y-25127000D01*
X216365000Y-25285750D01*
X183635000Y-25285750D01*
X183476250Y-25127000D01*
X181127000Y-25127000D01*
X180873000Y-25127000D01*
X178523750Y-25127000D01*
X178365000Y-25285750D01*
X171753395Y-25285750D01*
X172719967Y-23553977D01*
X173738088Y-22873690D01*
X178365000Y-22873690D01*
X178365000Y-24714250D01*
X178523750Y-24873000D01*
X180873000Y-24873000D01*
X180873000Y-22523750D01*
X181127000Y-22523750D01*
X181127000Y-24873000D01*
X183476250Y-24873000D01*
X183635000Y-24714250D01*
X183635000Y-22873690D01*
X216365000Y-22873690D01*
X216365000Y-24714250D01*
X216523750Y-24873000D01*
X218873000Y-24873000D01*
X218873000Y-22523750D01*
X219127000Y-22523750D01*
X219127000Y-24873000D01*
X221476250Y-24873000D01*
X221635000Y-24714250D01*
X221635000Y-22873690D01*
X221538327Y-22640301D01*
X221359698Y-22461673D01*
X221126309Y-22365000D01*
X219285750Y-22365000D01*
X219127000Y-22523750D01*
X218873000Y-22523750D01*
X218714250Y-22365000D01*
X216873691Y-22365000D01*
X216640302Y-22461673D01*
X216461673Y-22640301D01*
X216365000Y-22873690D01*
X183635000Y-22873690D01*
X183538327Y-22640301D01*
X183359698Y-22461673D01*
X183126309Y-22365000D01*
X181285750Y-22365000D01*
X181127000Y-22523750D01*
X180873000Y-22523750D01*
X180714250Y-22365000D01*
X178873691Y-22365000D01*
X178640302Y-22461673D01*
X178461673Y-22640301D01*
X178365000Y-22873690D01*
X173738088Y-22873690D01*
X176352195Y-21127000D01*
X223647805Y-21127000D01*
X227280033Y-23553977D01*
G36*
X210740000Y-100339852D02*
X209343088Y-101736764D01*
X209521486Y-101356892D01*
X209400819Y-101127000D01*
X208207000Y-101127000D01*
X208207000Y-101147000D01*
X207953000Y-101147000D01*
X207953000Y-101127000D01*
X207933000Y-101127000D01*
X207933000Y-100873000D01*
X207953000Y-100873000D01*
X207953000Y-100853000D01*
X208207000Y-100853000D01*
X208207000Y-100873000D01*
X209400819Y-100873000D01*
X209521486Y-100643108D01*
X209432520Y-100453668D01*
X209565838Y-100427149D01*
X209812400Y-100262402D01*
X210537401Y-99537401D01*
X210702148Y-99290840D01*
X210740000Y-99100546D01*
X210740000Y-100339852D01*
X210740000Y-100339852D01*
G37*
X210740000Y-100339852D02*
X209343088Y-101736764D01*
X209521486Y-101356892D01*
X209400819Y-101127000D01*
X208207000Y-101127000D01*
X208207000Y-101147000D01*
X207953000Y-101147000D01*
X207953000Y-101127000D01*
X207933000Y-101127000D01*
X207933000Y-100873000D01*
X207953000Y-100873000D01*
X207953000Y-100853000D01*
X208207000Y-100853000D01*
X208207000Y-100873000D01*
X209400819Y-100873000D01*
X209521486Y-100643108D01*
X209432520Y-100453668D01*
X209565838Y-100427149D01*
X209812400Y-100262402D01*
X210537401Y-99537401D01*
X210702148Y-99290840D01*
X210740000Y-99100546D01*
X210740000Y-100339852D01*
G36*
X204740000Y-84739803D02*
X204740000Y-94717919D01*
X204797852Y-95008758D01*
X204962599Y-95255320D01*
X207064826Y-97357547D01*
X207029946Y-97380853D01*
X206810000Y-97710026D01*
X206590054Y-97380853D01*
X206108285Y-97058946D01*
X205540000Y-96945907D01*
X204971715Y-97058946D01*
X204489946Y-97380853D01*
X204270000Y-97710026D01*
X204050054Y-97380853D01*
X203734565Y-97170051D01*
X203702148Y-97007080D01*
X203537401Y-96760518D01*
X202156781Y-95379898D01*
X202156781Y-93185000D01*
X202814250Y-93185000D01*
X202973000Y-93026250D01*
X202973000Y-92127000D01*
X203227000Y-92127000D01*
X203227000Y-93026250D01*
X203385750Y-93185000D01*
X204126309Y-93185000D01*
X204359698Y-93088327D01*
X204538327Y-92909699D01*
X204635000Y-92676310D01*
X204635000Y-92285750D01*
X204476250Y-92127000D01*
X203227000Y-92127000D01*
X202973000Y-92127000D01*
X202953000Y-92127000D01*
X202953000Y-91873000D01*
X202973000Y-91873000D01*
X202973000Y-90973750D01*
X203227000Y-90973750D01*
X203227000Y-91873000D01*
X204476250Y-91873000D01*
X204635000Y-91714250D01*
X204635000Y-91323690D01*
X204538327Y-91090301D01*
X204359698Y-90911673D01*
X204126309Y-90815000D01*
X203385750Y-90815000D01*
X203227000Y-90973750D01*
X202973000Y-90973750D01*
X202814250Y-90815000D01*
X202156781Y-90815000D01*
X202156781Y-90395843D01*
X203055184Y-89497440D01*
X204000000Y-89497440D01*
X204235317Y-89453162D01*
X204451441Y-89314090D01*
X204596431Y-89101890D01*
X204647440Y-88850000D01*
X204647440Y-87750000D01*
X204603162Y-87514683D01*
X204464090Y-87298559D01*
X204251890Y-87153569D01*
X204000000Y-87102560D01*
X203116678Y-87102560D01*
X203202148Y-86974645D01*
X203219798Y-86885910D01*
X203260000Y-86683805D01*
X203260000Y-84000000D01*
X203202148Y-83709161D01*
X203180991Y-83677496D01*
X203310317Y-83653162D01*
X203519046Y-83518848D01*
X204740000Y-84739803D01*
X204740000Y-84739803D01*
G37*
X204740000Y-84739803D02*
X204740000Y-94717919D01*
X204797852Y-95008758D01*
X204962599Y-95255320D01*
X207064826Y-97357547D01*
X207029946Y-97380853D01*
X206810000Y-97710026D01*
X206590054Y-97380853D01*
X206108285Y-97058946D01*
X205540000Y-96945907D01*
X204971715Y-97058946D01*
X204489946Y-97380853D01*
X204270000Y-97710026D01*
X204050054Y-97380853D01*
X203734565Y-97170051D01*
X203702148Y-97007080D01*
X203537401Y-96760518D01*
X202156781Y-95379898D01*
X202156781Y-93185000D01*
X202814250Y-93185000D01*
X202973000Y-93026250D01*
X202973000Y-92127000D01*
X203227000Y-92127000D01*
X203227000Y-93026250D01*
X203385750Y-93185000D01*
X204126309Y-93185000D01*
X204359698Y-93088327D01*
X204538327Y-92909699D01*
X204635000Y-92676310D01*
X204635000Y-92285750D01*
X204476250Y-92127000D01*
X203227000Y-92127000D01*
X202973000Y-92127000D01*
X202953000Y-92127000D01*
X202953000Y-91873000D01*
X202973000Y-91873000D01*
X202973000Y-90973750D01*
X203227000Y-90973750D01*
X203227000Y-91873000D01*
X204476250Y-91873000D01*
X204635000Y-91714250D01*
X204635000Y-91323690D01*
X204538327Y-91090301D01*
X204359698Y-90911673D01*
X204126309Y-90815000D01*
X203385750Y-90815000D01*
X203227000Y-90973750D01*
X202973000Y-90973750D01*
X202814250Y-90815000D01*
X202156781Y-90815000D01*
X202156781Y-90395843D01*
X203055184Y-89497440D01*
X204000000Y-89497440D01*
X204235317Y-89453162D01*
X204451441Y-89314090D01*
X204596431Y-89101890D01*
X204647440Y-88850000D01*
X204647440Y-87750000D01*
X204603162Y-87514683D01*
X204464090Y-87298559D01*
X204251890Y-87153569D01*
X204000000Y-87102560D01*
X203116678Y-87102560D01*
X203202148Y-86974645D01*
X203219798Y-86885910D01*
X203260000Y-86683805D01*
X203260000Y-84000000D01*
X203202148Y-83709161D01*
X203180991Y-83677496D01*
X203310317Y-83653162D01*
X203519046Y-83518848D01*
X204740000Y-84739803D01*
G36*
X220172599Y-92247401D02*
X220419160Y-92412148D01*
X220710000Y-92470000D01*
X221467046Y-92470000D01*
X221660853Y-92760054D01*
X221702452Y-92787850D01*
X221654683Y-92796838D01*
X221438559Y-92935910D01*
X221293569Y-93148110D01*
X221242560Y-93400000D01*
X221242560Y-93490000D01*
X220814802Y-93490000D01*
X205987401Y-78662599D01*
X205740839Y-78497852D01*
X205697440Y-78489219D01*
X205697440Y-78125000D01*
X205677550Y-78019295D01*
X205685000Y-78001310D01*
X205685000Y-77885750D01*
X205588599Y-77789349D01*
X205548480Y-77727002D01*
X205652200Y-77727002D01*
X220172599Y-92247401D01*
X220172599Y-92247401D01*
G37*
X220172599Y-92247401D02*
X220419160Y-92412148D01*
X220710000Y-92470000D01*
X221467046Y-92470000D01*
X221660853Y-92760054D01*
X221702452Y-92787850D01*
X221654683Y-92796838D01*
X221438559Y-92935910D01*
X221293569Y-93148110D01*
X221242560Y-93400000D01*
X221242560Y-93490000D01*
X220814802Y-93490000D01*
X205987401Y-78662599D01*
X205740839Y-78497852D01*
X205697440Y-78489219D01*
X205697440Y-78125000D01*
X205677550Y-78019295D01*
X205685000Y-78001310D01*
X205685000Y-77885750D01*
X205588599Y-77789349D01*
X205548480Y-77727002D01*
X205652200Y-77727002D01*
X220172599Y-92247401D01*
G36*
X195287599Y-65887599D02*
X194212599Y-66962599D01*
X194047852Y-67209161D01*
X193990000Y-67500000D01*
X193990000Y-69500000D01*
X194047852Y-69790839D01*
X194212599Y-70037401D01*
X194425198Y-70250000D01*
X193065000Y-71610198D01*
X193065000Y-71285750D01*
X192906250Y-71127000D01*
X191707000Y-71127000D01*
X191707000Y-71147000D01*
X191453000Y-71147000D01*
X191453000Y-71127000D01*
X191433000Y-71127000D01*
X191433000Y-70873000D01*
X191453000Y-70873000D01*
X191453000Y-70853000D01*
X191707000Y-70853000D01*
X191707000Y-70873000D01*
X192906250Y-70873000D01*
X193065000Y-70714250D01*
X193065000Y-70023691D01*
X192968327Y-69790302D01*
X192789699Y-69611673D01*
X192725305Y-69585000D01*
X192776310Y-69585000D01*
X193009699Y-69488327D01*
X193188327Y-69309698D01*
X193285000Y-69076309D01*
X193285000Y-68485750D01*
X193126250Y-68327000D01*
X192127000Y-68327000D01*
X192127000Y-68347000D01*
X191873000Y-68347000D01*
X191873000Y-68327000D01*
X190873750Y-68327000D01*
X190715000Y-68485750D01*
X190715000Y-69076309D01*
X190811673Y-69309698D01*
X190990301Y-69488327D01*
X191054695Y-69515000D01*
X190689802Y-69515000D01*
X190236939Y-69062137D01*
X190346431Y-68901890D01*
X190397440Y-68650000D01*
X190397440Y-67760000D01*
X190715000Y-67760000D01*
X190715000Y-67914250D01*
X190873750Y-68073000D01*
X191873000Y-68073000D01*
X191873000Y-68053000D01*
X192127000Y-68053000D01*
X192127000Y-68073000D01*
X193126250Y-68073000D01*
X193285000Y-67914250D01*
X193285000Y-67703309D01*
X193290839Y-67702148D01*
X193537401Y-67537401D01*
X195189802Y-65885000D01*
X195291489Y-65885000D01*
X195287599Y-65887599D01*
X195287599Y-65887599D01*
G37*
X195287599Y-65887599D02*
X194212599Y-66962599D01*
X194047852Y-67209161D01*
X193990000Y-67500000D01*
X193990000Y-69500000D01*
X194047852Y-69790839D01*
X194212599Y-70037401D01*
X194425198Y-70250000D01*
X193065000Y-71610198D01*
X193065000Y-71285750D01*
X192906250Y-71127000D01*
X191707000Y-71127000D01*
X191707000Y-71147000D01*
X191453000Y-71147000D01*
X191453000Y-71127000D01*
X191433000Y-71127000D01*
X191433000Y-70873000D01*
X191453000Y-70873000D01*
X191453000Y-70853000D01*
X191707000Y-70853000D01*
X191707000Y-70873000D01*
X192906250Y-70873000D01*
X193065000Y-70714250D01*
X193065000Y-70023691D01*
X192968327Y-69790302D01*
X192789699Y-69611673D01*
X192725305Y-69585000D01*
X192776310Y-69585000D01*
X193009699Y-69488327D01*
X193188327Y-69309698D01*
X193285000Y-69076309D01*
X193285000Y-68485750D01*
X193126250Y-68327000D01*
X192127000Y-68327000D01*
X192127000Y-68347000D01*
X191873000Y-68347000D01*
X191873000Y-68327000D01*
X190873750Y-68327000D01*
X190715000Y-68485750D01*
X190715000Y-69076309D01*
X190811673Y-69309698D01*
X190990301Y-69488327D01*
X191054695Y-69515000D01*
X190689802Y-69515000D01*
X190236939Y-69062137D01*
X190346431Y-68901890D01*
X190397440Y-68650000D01*
X190397440Y-67760000D01*
X190715000Y-67760000D01*
X190715000Y-67914250D01*
X190873750Y-68073000D01*
X191873000Y-68073000D01*
X191873000Y-68053000D01*
X192127000Y-68053000D01*
X192127000Y-68073000D01*
X193126250Y-68073000D01*
X193285000Y-67914250D01*
X193285000Y-67703309D01*
X193290839Y-67702148D01*
X193537401Y-67537401D01*
X195189802Y-65885000D01*
X195291489Y-65885000D01*
X195287599Y-65887599D01*
G36*
X178352560Y-43000000D02*
X178396838Y-43235317D01*
X178535910Y-43451441D01*
X178748110Y-43596431D01*
X179000000Y-43647440D01*
X183000000Y-43647440D01*
X183235317Y-43603162D01*
X183451441Y-43464090D01*
X183596431Y-43251890D01*
X183647440Y-43000000D01*
X183647440Y-42252572D01*
X186697433Y-45302566D01*
X186996746Y-45502560D01*
X187065654Y-45548603D01*
X187500000Y-45635000D01*
X189900714Y-45635000D01*
X189900714Y-48985000D01*
X210099287Y-48985000D01*
X210099287Y-45635000D01*
X226237675Y-45635000D01*
X226158559Y-45685910D01*
X226013569Y-45898110D01*
X225962560Y-46150000D01*
X225962560Y-46240000D01*
X223841729Y-46240000D01*
X223550890Y-46297852D01*
X223304328Y-46462599D01*
X222526927Y-47240000D01*
X217250000Y-47240000D01*
X217007414Y-47288254D01*
X216959160Y-47297852D01*
X216712599Y-47462599D01*
X205010198Y-59165000D01*
X204035000Y-59165000D01*
X204035000Y-59147998D01*
X203903252Y-59147998D01*
X204035000Y-59016250D01*
X204035000Y-58948690D01*
X203938327Y-58715301D01*
X203759698Y-58536673D01*
X203526309Y-58440000D01*
X203135750Y-58440000D01*
X202977000Y-58598750D01*
X202977000Y-59077560D01*
X202723000Y-59077560D01*
X202723000Y-58598750D01*
X202564250Y-58440000D01*
X202469742Y-58440000D01*
X202469742Y-55980060D01*
X204537401Y-53912401D01*
X204630920Y-53772440D01*
X204635000Y-53772440D01*
X204870317Y-53728162D01*
X205086441Y-53589090D01*
X205231431Y-53376890D01*
X205282440Y-53125000D01*
X205282440Y-52155000D01*
X205252204Y-51994310D01*
X205282440Y-51845000D01*
X205282440Y-50875000D01*
X205238162Y-50639683D01*
X205099090Y-50423559D01*
X204886890Y-50278569D01*
X204635000Y-50227560D01*
X203365000Y-50227560D01*
X203129683Y-50271838D01*
X202999573Y-50355562D01*
X202886890Y-50278569D01*
X202635000Y-50227560D01*
X201365000Y-50227560D01*
X201129683Y-50271838D01*
X200999573Y-50355562D01*
X200886890Y-50278569D01*
X200635000Y-50227560D01*
X199365000Y-50227560D01*
X199129683Y-50271838D01*
X198999573Y-50355562D01*
X198886890Y-50278569D01*
X198635000Y-50227560D01*
X197365000Y-50227560D01*
X197129683Y-50271838D01*
X196999573Y-50355562D01*
X196886890Y-50278569D01*
X196635000Y-50227560D01*
X195365000Y-50227560D01*
X195129683Y-50271838D01*
X194913559Y-50410910D01*
X194768569Y-50623110D01*
X194768349Y-50624198D01*
X194599160Y-50657852D01*
X194352599Y-50822599D01*
X193995355Y-51179843D01*
X193830608Y-51426405D01*
X193772756Y-51717244D01*
X193772756Y-53866107D01*
X193830608Y-54156946D01*
X193995355Y-54403508D01*
X198082017Y-58490170D01*
X198082017Y-58567481D01*
X197951890Y-58478569D01*
X197700000Y-58427560D01*
X196600000Y-58427560D01*
X196364683Y-58471838D01*
X196297607Y-58515000D01*
X194589802Y-58515000D01*
X183537401Y-47462599D01*
X183290839Y-47297852D01*
X183000000Y-47240000D01*
X177231693Y-47240000D01*
X176454292Y-46462599D01*
X176207730Y-46297852D01*
X175916891Y-46240000D01*
X174037440Y-46240000D01*
X174037440Y-46150000D01*
X173993162Y-45914683D01*
X173854090Y-45698559D01*
X173641890Y-45553569D01*
X173390000Y-45502560D01*
X171690000Y-45502560D01*
X171582309Y-45522823D01*
X171802567Y-45302566D01*
X171802569Y-45302563D01*
X172302566Y-44802566D01*
X174970133Y-42135000D01*
X178352560Y-42135000D01*
X178352560Y-43000000D01*
X178352560Y-43000000D01*
G37*
X178352560Y-43000000D02*
X178396838Y-43235317D01*
X178535910Y-43451441D01*
X178748110Y-43596431D01*
X179000000Y-43647440D01*
X183000000Y-43647440D01*
X183235317Y-43603162D01*
X183451441Y-43464090D01*
X183596431Y-43251890D01*
X183647440Y-43000000D01*
X183647440Y-42252572D01*
X186697433Y-45302566D01*
X186996746Y-45502560D01*
X187065654Y-45548603D01*
X187500000Y-45635000D01*
X189900714Y-45635000D01*
X189900714Y-48985000D01*
X210099287Y-48985000D01*
X210099287Y-45635000D01*
X226237675Y-45635000D01*
X226158559Y-45685910D01*
X226013569Y-45898110D01*
X225962560Y-46150000D01*
X225962560Y-46240000D01*
X223841729Y-46240000D01*
X223550890Y-46297852D01*
X223304328Y-46462599D01*
X222526927Y-47240000D01*
X217250000Y-47240000D01*
X217007414Y-47288254D01*
X216959160Y-47297852D01*
X216712599Y-47462599D01*
X205010198Y-59165000D01*
X204035000Y-59165000D01*
X204035000Y-59147998D01*
X203903252Y-59147998D01*
X204035000Y-59016250D01*
X204035000Y-58948690D01*
X203938327Y-58715301D01*
X203759698Y-58536673D01*
X203526309Y-58440000D01*
X203135750Y-58440000D01*
X202977000Y-58598750D01*
X202977000Y-59077560D01*
X202723000Y-59077560D01*
X202723000Y-58598750D01*
X202564250Y-58440000D01*
X202469742Y-58440000D01*
X202469742Y-55980060D01*
X204537401Y-53912401D01*
X204630920Y-53772440D01*
X204635000Y-53772440D01*
X204870317Y-53728162D01*
X205086441Y-53589090D01*
X205231431Y-53376890D01*
X205282440Y-53125000D01*
X205282440Y-52155000D01*
X205252204Y-51994310D01*
X205282440Y-51845000D01*
X205282440Y-50875000D01*
X205238162Y-50639683D01*
X205099090Y-50423559D01*
X204886890Y-50278569D01*
X204635000Y-50227560D01*
X203365000Y-50227560D01*
X203129683Y-50271838D01*
X202999573Y-50355562D01*
X202886890Y-50278569D01*
X202635000Y-50227560D01*
X201365000Y-50227560D01*
X201129683Y-50271838D01*
X200999573Y-50355562D01*
X200886890Y-50278569D01*
X200635000Y-50227560D01*
X199365000Y-50227560D01*
X199129683Y-50271838D01*
X198999573Y-50355562D01*
X198886890Y-50278569D01*
X198635000Y-50227560D01*
X197365000Y-50227560D01*
X197129683Y-50271838D01*
X196999573Y-50355562D01*
X196886890Y-50278569D01*
X196635000Y-50227560D01*
X195365000Y-50227560D01*
X195129683Y-50271838D01*
X194913559Y-50410910D01*
X194768569Y-50623110D01*
X194768349Y-50624198D01*
X194599160Y-50657852D01*
X194352599Y-50822599D01*
X193995355Y-51179843D01*
X193830608Y-51426405D01*
X193772756Y-51717244D01*
X193772756Y-53866107D01*
X193830608Y-54156946D01*
X193995355Y-54403508D01*
X198082017Y-58490170D01*
X198082017Y-58567481D01*
X197951890Y-58478569D01*
X197700000Y-58427560D01*
X196600000Y-58427560D01*
X196364683Y-58471838D01*
X196297607Y-58515000D01*
X194589802Y-58515000D01*
X183537401Y-47462599D01*
X183290839Y-47297852D01*
X183000000Y-47240000D01*
X177231693Y-47240000D01*
X176454292Y-46462599D01*
X176207730Y-46297852D01*
X175916891Y-46240000D01*
X174037440Y-46240000D01*
X174037440Y-46150000D01*
X173993162Y-45914683D01*
X173854090Y-45698559D01*
X173641890Y-45553569D01*
X173390000Y-45502560D01*
X171690000Y-45502560D01*
X171582309Y-45522823D01*
X171802567Y-45302566D01*
X171802569Y-45302563D01*
X172302566Y-44802566D01*
X174970133Y-42135000D01*
X178352560Y-42135000D01*
X178352560Y-43000000D01*
M02*
